<?xml version="1.0" encoding="UTF-8" standalone="no"?>
<svg
   xmlns:dc="http://purl.org/dc/elements/1.1/"
   xmlns:cc="http://creativecommons.org/ns#"
   xmlns:rdf="http://www.w3.org/1999/02/22-rdf-syntax-ns#"
   xmlns:svg="http://www.w3.org/2000/svg"
   xmlns="http://www.w3.org/2000/svg"
   xmlns:sodipodi="http://sodipodi.sourceforge.net/DTD/sodipodi-0.dtd"
   xmlns:inkscape="http://www.inkscape.org/namespaces/inkscape"
   width="50"
   height="50"
   viewBox="0 0 13.229166 13.229167"
   version="1.1"
   id="svg8"
   inkscape:version="1.0 (4035a4fb49, 2020-05-01)"
   sodipodi:docname="cloudy_sunny.svg">
  <defs
     id="defs2" />
  <sodipodi:namedview
     id="base"
     pagecolor="#ffffff"
     bordercolor="#666666"
     borderopacity="1.0"
     inkscape:pageopacity="0.0"
     inkscape:pageshadow="2"
     inkscape:zoom="5.6"
     inkscape:cx="37.92762"
     inkscape:cy="29.984623"
     inkscape:document-units="mm"
     inkscape:current-layer="layer1"
     inkscape:document-rotation="0"
     showgrid="true"
     units="px"
     inkscape:window-width="1920"
     inkscape:window-height="986"
     inkscape:window-x="-11"
     inkscape:window-y="-11"
     inkscape:window-maximized="1">
    <inkscape:grid
       type="xygrid"
       id="grid10" />
  </sodipodi:namedview>
  <metadata
     id="metadata5">
    <rdf:RDF>
      <cc:Work
         rdf:about="">
        <dc:format>image/svg+xml</dc:format>
        <dc:type
           rdf:resource="http://purl.org/dc/dcmitype/StillImage" />
        <dc:title />
      </cc:Work>
    </rdf:RDF>
  </metadata>
  <g
     inkscape:label="Warstwa 1"
     inkscape:groupmode="layer"
     id="layer1">
    <g
       transform="matrix(0.31262413,0,0,0.31262413,28.244805,-32.393328)"
       id="g1066">
      <path
         style="fill:#ffcc00;fill-opacity:1;stroke:#ffcc00;stroke-width:8.64378;stroke-linecap:square;stroke-linejoin:round;stroke-miterlimit:4;stroke-dasharray:none;stroke-opacity:1;paint-order:stroke fill markers"
         d="m -316.29489,459.16824 c -0.36923,-0.40439 -0.79513,-0.48403 -2.58852,-0.48403 -1.66643,0 -2.14657,-0.0787 -2.14657,-0.35179 0,-0.45185 -0.53638,-0.65106 -1.85156,-0.68766 -0.57894,-0.0161 -0.85375,-0.0813 -0.61069,-0.14479 0.24307,-0.0635 0.44194,-0.27762 0.44194,-0.47578 0,-0.19816 0.18111,-0.36029 0.40245,-0.36029 0.22135,0 0.46189,-0.22728 0.53453,-0.50507 0.0727,-0.2778 0.2853,-0.50508 0.47255,-0.50508 0.18726,0 0.46211,-0.22728 0.61078,-0.50508 0.14867,-0.27779 0.42352,-0.50507 0.61078,-0.50507 0.18725,0 0.3999,-0.22729 0.47255,-0.50508 0.0726,-0.27779 0.30552,-0.50508 0.51751,-0.50508 0.21198,0 0.45757,-0.22728 0.54573,-0.50507 0.0882,-0.27779 0.31546,-0.50508 0.50508,-0.50508 0.18962,0 0.41691,-0.22728 0.50508,-0.50507 0.0882,-0.2778 0.31666,-0.50508 0.50777,-0.50508 0.19111,0 0.49597,-0.21098 0.67746,-0.46885 0.1815,-0.25786 0.58569,-0.54963 0.89821,-0.64836 0.31251,-0.0987 0.56821,-0.28831 0.56821,-0.42129 0,-0.13297 0.2841,-0.34979 0.63134,-0.48181 0.34724,-0.13201 0.63135,-0.40005 0.63135,-0.59564 0,-0.19558 0.22728,-0.41504 0.50507,-0.48768 0.34701,-0.0907 0.50508,-0.34447 0.50508,-0.81071 0,-0.46625 -0.15807,-0.71997 -0.50508,-0.81071 -0.27953,-0.0731 -0.50507,-0.34447 -0.50507,-0.6077 0,-0.30727 -0.17879,-0.47563 -0.50508,-0.47563 -0.33672,0 -0.50507,-0.16836 -0.50507,-0.50507 0,-0.33672 -0.16836,-0.50508 -0.50508,-0.50508 -0.33672,0 -0.50508,-0.16836 -0.50508,-0.50508 0,-0.33671 -0.16836,-0.50507 -0.50507,-0.50507 -0.33672,0 -0.50508,-0.16836 -0.50508,-0.50508 0,-0.33672 -0.16836,-0.50508 -0.50508,-0.50508 -0.28519,0 -0.50507,-0.16835 -0.50507,-0.38673 0,-0.2127 -0.19888,-0.46091 -0.44194,-0.55158 -0.24307,-0.0907 -0.59044,-0.3712 -0.77194,-0.62342 -0.18149,-0.25221 -0.46667,-0.45857 -0.63373,-0.45857 -0.16706,0 -0.44568,-0.22728 -0.61917,-0.50508 -0.17348,-0.27779 -0.52849,-0.50507 -0.7889,-0.50507 -0.2611,0 -0.53273,-0.22656 -0.60557,-0.50508 -0.0726,-0.27779 -0.29993,-0.50508 -0.50507,-0.50508 -0.20515,0 -0.43244,-0.22728 -0.50508,-0.50507 -0.0726,-0.27779 -0.31318,-0.50508 -0.53453,-0.50508 -0.23409,0 -0.40245,-0.21129 -0.40245,-0.50507 0,-0.45832 0.16951,-0.5054 1.8309,-0.50853 2.16732,-0.004 2.96732,-0.1813 2.96732,-0.65735 0,-0.26395 0.42926,-0.34935 1.75589,-0.34935 1.68989,0 3.04234,-0.35481 3.04234,-0.79815 0,-0.1166 0.7862,-0.21201 1.74711,-0.21201 2.15147,0 2.54604,-0.14116 2.54604,-0.9109 0,-0.33238 0.11364,-0.60432 0.25254,-0.60432 0.13889,0 0.25253,-0.22729 0.25253,-0.50508 0,-0.27779 -0.11364,-0.50508 -0.25253,-0.50508 -0.1389,0 -0.25254,-0.48996 -0.25254,-1.0888 0,-0.73973 -0.16193,-1.26261 -0.50508,-1.63094 -0.34593,-0.37131 -0.50507,-0.8912 -0.50507,-1.64997 0,-0.78712 -0.14623,-1.24017 -0.50508,-1.56493 -0.33825,-0.30612 -0.50508,-0.77781 -0.50508,-1.4281 0,-0.6343 -0.17514,-1.14616 -0.50507,-1.47609 -0.33672,-0.33672 -0.50508,-0.8418 -0.50508,-1.51523 0,-0.67344 -0.16836,-1.17851 -0.50508,-1.51523 -0.69061,-0.69061 -0.6494,-0.75761 0.46594,-0.75761 0.65029,0 1.12199,0.16682 1.4281,0.50507 0.33101,0.36577 0.77781,0.50508 1.61989,0.50508 0.8893,0 1.23699,0.1188 1.47823,0.50508 0.24699,0.39549 0.58893,0.50507 1.57598,0.50507 0.9091,0 1.26055,0.0981 1.26055,0.35179 0,0.46613 0.55905,0.65836 1.91469,0.65836 0.81705,0 1.11576,0.10013 1.11576,0.374 0,0.4812 0.84846,0.68797 2.41585,0.58875 l 1.24596,-0.0789 0.0757,-1.4521 c 0.0524,-1.00392 0.17967,-1.45209 0.41249,-1.45209 0.45858,0 0.64066,-0.81228 0.64475,-2.87635 0.003,-1.36291 0.0992,-1.80995 0.44539,-2.06308 0.34777,-0.25429 0.46107,-0.78875 0.53174,-2.50824 0.0646,-1.57173 0.18864,-2.22302 0.44194,-2.32022 0.19368,-0.0743 0.35215,-0.28673 0.35215,-0.47202 0,-0.61811 0.53938,-0.68019 0.96672,-0.11125 0.23223,0.30917 0.60138,0.7562 0.82033,0.99339 0.21896,0.23719 0.47109,0.62144 0.56029,0.8539 0.0892,0.23246 0.33621,0.42265 0.54892,0.42265 0.21837,0 0.38673,0.21988 0.38673,0.50508 0,0.29378 0.16836,0.50507 0.40245,0.50507 0.22135,0 0.4609,0.22352 0.53234,0.49671 0.0714,0.2732 0.34491,0.56496 0.60771,0.64837 0.26279,0.0834 0.47781,0.30679 0.47781,0.49642 0,0.18962 0.21501,0.41301 0.47781,0.49642 0.26279,0.0834 0.53626,0.37517 0.6077,0.64836 0.0714,0.2732 0.31099,0.49672 0.53234,0.49672 0.22135,0 0.40245,0.16646 0.40245,0.36992 0,0.20346 0.22729,0.49156 0.50508,0.64023 0.27779,0.14867 0.50507,0.41916 0.50507,0.60109 0,0.45365 0.77588,1.10849 1.38896,1.17228 1.29502,0.13475 2.17046,-0.0265 2.32461,-0.42825 0.15535,-0.40483 0.52571,-0.86391 1.60169,-1.98535 0.27122,-0.28267 0.49312,-0.69558 0.49312,-0.91756 0,-0.22198 0.22728,-0.46304 0.50508,-0.53569 0.27779,-0.0726 0.50507,-0.29993 0.50507,-0.50507 0,-0.20515 0.22729,-0.43244 0.50508,-0.50508 0.27779,-0.0726 0.50508,-0.30553 0.50508,-0.51751 0,-0.21199 0.22728,-0.45757 0.50507,-0.54574 0.27779,-0.0882 0.50508,-0.31545 0.50508,-0.50508 0,-0.18962 0.22728,-0.4169 0.50507,-0.50507 0.2778,-0.0882 0.50508,-0.31911 0.50508,-0.51321 0,-0.1941 0.22729,-0.47454 0.50508,-0.62321 0.27779,-0.14867 0.50507,-0.43678 0.50507,-0.64023 0,-0.20346 0.17047,-0.36993 0.37881,-0.36993 0.20834,0 0.37881,-0.17046 0.37881,-0.3788 0,-0.20835 0.14773,-0.37881 0.3283,-0.37881 0.70498,0 0.93439,0.63189 0.93439,2.57375 0,1.69416 0.0702,2.0115 0.50507,2.28308 0.44238,0.27627 0.50508,0.58893 0.50508,2.51864 0,1.94475 0.0592,2.23492 0.50508,2.47352 0.43583,0.23324 0.50507,0.52877 0.50507,2.15546 v 1.88515 h 1.79141 c 1.57903,0 1.80707,-0.0599 1.92349,-0.50508 0.1118,-0.42752 0.34447,-0.50508 1.51523,-0.50508 1.17077,0 1.40343,-0.0776 1.51523,-0.50507 0.1118,-0.42752 0.34447,-0.50508 1.51523,-0.50508 1.17076,0 1.40343,-0.0776 1.51523,-0.50507 0.11048,-0.42249 0.34446,-0.50508 1.43084,-0.50508 1.02526,0 1.36518,-0.10636 1.61418,-0.50508 0.21759,-0.34841 0.58893,-0.50507 1.19717,-0.50507 0.73258,0 0.88174,0.0914 0.88174,0.54037 0,0.2972 -0.182,0.67345 -0.40444,0.8361 -0.23227,0.16984 -0.46409,0.82674 -0.54454,1.54307 -0.0771,0.68604 -0.30434,1.36789 -0.50508,1.51523 -0.20074,0.14734 -0.42745,0.82214 -0.5038,1.49955 -0.14718,1.30581 -0.98408,2.39944 -1.83616,2.39944 -0.24051,0 -0.56698,0.15628 -0.72551,0.34729 -0.15852,0.19101 -0.74065,0.41964 -1.29361,0.50806 -0.64975,0.1039 -1.00539,0.29371 -1.00539,0.53659 0,0.22913 -0.23836,0.37582 -0.61069,0.37582 -0.87178,0 -1.40961,0.2512 -1.40961,0.65837 0,0.20688 -0.26006,0.35178 -0.63135,0.35178 -0.34724,0 -0.85863,0.22729 -1.13642,0.50508 -0.27779,0.27779 -0.65793,0.50508 -0.84474,0.50508 -0.18682,0 -0.54536,0.22728 -0.79676,0.50507 -0.2514,0.2778 -0.55771,0.50508 -0.68071,0.50508 -0.28848,0 -1.55186,-0.91335 -2.70557,-1.95596 -0.49877,-0.45075 -1.03131,-0.82009 -1.1834,-0.82075 -0.15209,-6.7e-4 -0.48222,-0.22849 -0.73362,-0.50629 -0.2514,-0.27779 -0.69624,-0.50507 -0.98854,-0.50507 -0.29231,0 -0.6734,-0.22729 -0.84689,-0.50508 -0.24216,-0.38776 -0.58892,-0.50507 -1.49295,-0.50507 -0.76734,0 -1.3474,-0.15396 -1.66516,-0.44195 -0.41855,-0.37933 -1.12898,-0.45315 -5.01492,-0.5211 -4.21015,-0.0736 -4.58634,-0.0427 -5.37044,0.44195 -0.48363,0.2989 -1.27358,0.5211 -1.85258,0.5211 -0.62703,0 -1.25266,0.19133 -1.65152,0.50507 -0.35315,0.27779 -0.80772,0.50508 -1.01015,0.50508 -0.20243,0 -0.657,0.22728 -1.01015,0.50507 -0.35316,0.2778 -0.74098,0.50508 -0.86182,0.50508 -0.12084,0 -0.40439,0.19887 -0.63011,0.44194 -0.22572,0.24307 -0.81816,0.72605 -1.31653,1.07329 -1.12664,0.78498 -4.36537,4.76691 -4.58324,5.63495 -0.0886,0.35308 -0.32133,0.70343 -0.51714,0.77857 -0.1958,0.0751 -0.35671,0.33906 -0.35757,0.58649 -8.6e-4,0.24742 -0.18821,0.79079 -0.41635,1.20748 -0.22814,0.41669 -0.50063,1.269 -0.60553,1.89403 -0.1049,0.62504 -0.38235,1.64782 -0.61654,2.27285 -0.5689,1.51832 -0.43483,6.55233 0.20514,7.70241 0.23186,0.41669 0.42227,1.05748 0.42313,1.42399 10e-4,0.56394 -0.13635,0.69225 -0.8956,0.83468 -0.49344,0.0926 -0.96016,0.3325 -1.03717,0.53318 -0.077,0.20068 -0.33982,0.36488 -0.58402,0.36488 -0.2442,0 -0.71502,0.21165 -1.04627,0.47033 -0.33124,0.25869 -0.84297,0.5457 -1.13717,0.6378 -0.2942,0.0921 -0.73797,0.39184 -0.98616,0.66608 -0.24819,0.27425 -0.55712,0.49863 -0.68652,0.49863 -0.1294,0 -0.8455,0.62503 -1.59134,1.38896 -1.43589,1.47074 -1.98803,1.64693 -2.70393,0.86284 z"
         id="path995"
         transform="scale(0.26458333)" />
      <path
         style="fill:#000000;fill-opacity:1;stroke:none;stroke-width:1.08524;stroke-linecap:square;stroke-linejoin:round;paint-order:stroke fill markers"
         d="m -295.09173,512.22229 c -0.12381,-0.47347 -0.34446,-0.50507 -3.52584,-0.50507 -3.07305,0 -3.43696,-0.0477 -3.85086,-0.50508 -0.35575,-0.3931 -0.77781,-0.50508 -1.90372,-0.50508 -1.23425,0 -1.46602,-0.0742 -1.57872,-0.50507 -0.11179,-0.42752 -0.34446,-0.50508 -1.51522,-0.50508 -1.17077,0 -1.40343,-0.0776 -1.51523,-0.50508 -0.10014,-0.38291 -0.34447,-0.50507 -1.01016,-0.50507 -0.66568,0 -0.91001,-0.12217 -1.01015,-0.50508 -0.10117,-0.38687 -0.34446,-0.50507 -1.0396,-0.50507 -0.73917,0 -0.90753,-0.0937 -0.90753,-0.50508 0,-0.36149 -0.16836,-0.50508 -0.5922,-0.50508 -0.32572,0 -0.7979,-0.22728 -1.0493,-0.50507 -0.2514,-0.2778 -0.66676,-0.50508 -0.92302,-0.50508 -0.29758,0 -0.46594,-0.1825 -0.46594,-0.50508 0,-0.33671 -0.16836,-0.50507 -0.50507,-0.50507 -0.2852,0 -0.50508,-0.16836 -0.50508,-0.38673 0,-0.21271 -0.19887,-0.45983 -0.44194,-0.54917 -0.24307,-0.0893 -0.52785,-0.30418 -0.63285,-0.47742 -0.105,-0.17324 -0.5196,-0.38717 -0.92134,-0.47541 -0.42426,-0.0932 -0.78421,-0.36608 -0.85873,-0.65108 -0.0706,-0.26986 -0.30942,-0.49065 -0.53076,-0.49065 -0.22135,0 -0.40245,-0.16174 -0.40245,-0.35943 0,-0.19769 -0.28411,-0.69707 -0.63135,-1.10974 -0.34724,-0.41268 -0.63134,-0.87596 -0.63134,-1.02953 0,-0.15357 -0.16281,-0.27922 -0.36179,-0.27922 -0.19899,0 -0.43393,-0.22728 -0.5221,-0.50508 -0.0882,-0.27779 -0.32311,-0.50507 -0.52209,-0.50507 -0.19898,0 -0.36179,-0.22729 -0.36179,-0.50508 0,-0.33671 -0.16836,-0.50507 -0.50508,-0.50507 -0.41137,0 -0.50507,-0.16836 -0.50507,-0.90753 0,-0.69514 -0.1182,-0.93844 -0.50508,-1.03961 -0.32052,-0.0838 -0.50507,-0.34446 -0.50507,-0.71331 0,-0.82527 -0.2534,-1.38016 -0.63026,-1.38016 -0.17803,0 -0.39625,-0.38678 -0.48493,-0.85951 -0.0887,-0.47272 -0.32862,-0.92372 -0.53318,-1.00222 -0.23905,-0.0917 -0.37194,-0.4925 -0.37194,-1.12167 0,-0.65821 -0.16547,-1.12869 -0.50508,-1.43602 -0.35198,-0.31855 -0.50507,-0.77781 -0.50507,-1.51523 0,-0.73742 -0.15309,-1.19669 -0.50508,-1.51523 -0.48225,-0.43643 -0.50507,-0.77781 -0.50507,-7.55454 0,-6.87797 0.016,-7.10743 0.51687,-7.42024 0.44601,-0.27854 0.50661,-0.53793 0.44195,-1.89165 l -0.0749,-1.56885 -1.42573,-0.075 c -1.16628,-0.0613 -1.44921,-0.16472 -1.55472,-0.56821 -0.11368,-0.4347 -0.35669,-0.49326 -2.04667,-0.49326 -1.58096,0 -2.00636,-0.0887 -2.42276,-0.50508 -0.33671,-0.33672 -0.84179,-0.50508 -1.51523,-0.50508 -0.84179,0 -1.01015,-0.0842 -1.01015,-0.50507 0,-0.33672 -0.16836,-0.50508 -0.50507,-0.50508 -0.4209,0 -0.50508,-0.16836 -0.50508,-1.01015 0,-0.72956 -0.10522,-1.01015 -0.37881,-1.01015 -0.47133,0 -0.46913,-0.23816 0.008,-0.86902 0.21789,-0.28808 0.37078,-1.04303 0.37078,-1.8309 0,-1.17234 0.0634,-1.3407 0.50508,-1.3407 0.33671,0 0.50507,-0.16835 0.50507,-0.50507 0,-0.29537 0.16836,-0.50508 0.40549,-0.50508 0.36065,0 1.19672,-0.55526 2.39172,-1.58843 0.21896,-0.1893 0.58829,-0.41717 0.82075,-0.50637 0.23246,-0.0892 0.42265,-0.32296 0.42265,-0.51947 0,-0.1965 0.22729,-0.41671 0.50508,-0.48936 0.27779,-0.0726 0.50507,-0.31318 0.50507,-0.53453 0,-0.23409 0.2113,-0.40245 0.50508,-0.40245 0.33672,0 0.50508,-0.16836 0.50508,-0.50507 0,-0.33672 0.16836,-0.50508 0.50507,-0.50508 0.33672,0 0.50508,-0.16836 0.50508,-0.50508 0,-0.33671 0.16836,-0.50507 0.50508,-0.50507 0.33671,0 0.50507,-0.16836 0.50507,-0.50508 0,-0.33672 0.16836,-0.50508 0.50508,-0.50508 0.95712,0 1.51523,-0.88367 1.51523,-2.39911 0,-1.2206 -0.0612,-1.38896 -0.50508,-1.38896 -0.33672,0 -0.50507,-0.16836 -0.50507,-0.50507 0,-0.3263 -0.16836,-0.50508 -0.47563,-0.50508 -0.26323,0 -0.5346,-0.22554 -0.6077,-0.50508 -0.0726,-0.27779 -0.31318,-0.50507 -0.53453,-0.50507 -0.22135,0 -0.40245,-0.17403 -0.40245,-0.38673 0,-0.21271 -0.19887,-0.46092 -0.44194,-0.55159 -0.24307,-0.0907 -0.59044,-0.3712 -0.77194,-0.62342 -0.18149,-0.25221 -0.43719,-0.45857 -0.56821,-0.45857 -0.13102,0 -0.4655,-0.22728 -0.74329,-0.50507 -0.27779,-0.2778 -0.73236,-0.50508 -1.01015,-0.50508 -0.33672,0 -0.50508,-0.16836 -0.50508,-0.50508 0,-0.33671 -0.16836,-0.50507 -0.50508,-0.50507 -0.33671,0 -0.50507,-0.16836 -0.50507,-0.50508 0,-0.33672 -0.16836,-0.50508 -0.50508,-0.50508 -0.33672,0 -0.50508,-0.16835 -0.50508,-0.50507 0,-0.33672 -0.16835,-0.50508 -0.50507,-0.50508 -0.33672,0 -0.50508,-0.16836 -0.50508,-0.50507 0,-0.33672 -0.16836,-0.50508 -0.50507,-0.50508 -0.47129,0 -0.50508,-0.16836 -0.50508,-2.5165 0,-2.25803 0.0519,-2.54426 0.50508,-2.7868 0.27779,-0.14867 0.50507,-0.37995 0.50507,-0.51396 0,-0.60488 1.04564,-1.25381 2.02031,-1.25381 0.67343,0 1.17851,-0.16836 1.51523,-0.50507 0.42089,-0.4209 0.84179,-0.50508 2.52538,-0.50508 1.68359,0 2.10448,-0.0842 2.52538,-0.50508 0.42081,-0.4208 0.84179,-0.50507 2.52324,-0.50507 1.74466,0 2.06091,-0.0685 2.33359,-0.50508 0.24365,-0.39015 0.58893,-0.50508 1.51737,-0.50508 h 1.20194 v -1.79141 c 0,-1.57902 -0.0599,-1.80706 -0.50507,-1.92348 -0.40633,-0.10626 -0.50508,-0.34447 -0.50508,-1.2184 0,-1.32717 -0.19489,-1.88524 -0.65836,-1.88524 -0.24858,0 -0.35179,-0.33341 -0.35179,-1.13642 0,-0.7997 -0.14965,-1.28607 -0.50508,-1.64149 -0.37286,-0.37287 -0.50507,-0.8418 -0.50507,-1.79141 0,-1.07395 -0.0834,-1.30815 -0.50508,-1.41842 -0.46159,-0.12071 -0.50508,-0.34446 -0.50508,-2.59855 0,-2.25409 0.0435,-2.47785 0.50508,-2.59856 0.27779,-0.0726 0.50508,-0.29992 0.50508,-0.50507 0,-0.20515 0.22728,-0.43243 0.50507,-0.50508 0.27779,-0.0726 0.50508,-0.31318 0.50508,-0.53453 0,-0.34491 0.41522,-0.40245 2.90419,-0.40245 2.56747,0 2.96274,0.0586 3.40926,0.50508 0.33672,0.33672 0.84179,0.50507 1.51523,0.50507 0.67344,0 1.17851,0.16836 1.51523,0.50508 0.35542,0.35542 0.84179,0.50508 1.6415,0.50508 0.803,0 1.13642,0.10321 1.13642,0.35179 0,0.45329 0.55428,0.65836 1.77953,0.65836 0.72216,0 1.05186,0.13312 1.25093,0.50508 0.20868,0.38993 0.52877,0.50507 1.40409,0.50507 0.95956,0 1.16866,-0.0917 1.36073,-0.5969 0.12482,-0.3283 0.40611,-0.66566 0.6251,-0.74969 0.32072,-0.12308 0.39815,-0.58448 0.39815,-2.37281 0,-1.94652 0.0622,-2.25888 0.50507,-2.53544 0.44345,-0.27694 0.50508,-0.58893 0.50508,-2.55668 0,-2.02886 0.0479,-2.25376 0.50508,-2.37333 0.44914,-0.11745 0.50507,-0.34446 0.50507,-2.04976 0,-1.55371 0.0734,-1.91768 0.38673,-1.91768 0.21271,0 0.45693,-0.19887 0.54271,-0.44194 0.22855,-0.64758 1.12587,-1.57836 1.52162,-1.57836 0.18849,0 0.40813,-0.17046 0.48808,-0.37881 0.20712,-0.53975 4.13193,-0.55591 4.13193,-0.017 0,0.19899 0.22729,0.43393 0.50508,0.5221 0.27779,0.0882 0.50507,0.30985 0.50507,0.49264 0,0.18278 0.22729,0.39177 0.50508,0.46441 0.27779,0.0727 0.50508,0.31319 0.50508,0.53453 0,0.23409 0.21129,0.40245 0.50507,0.40245 0.36826,0 0.50508,0.16836 0.50508,0.62151 0,0.34183 0.20909,0.82481 0.46464,1.07329 0.25556,0.24848 0.53609,0.65065 0.62342,0.89372 0.0873,0.24307 0.33281,0.44194 0.54551,0.44194 0.2127,0 0.38673,0.1811 0.38673,0.40245 0,0.22135 0.22729,0.46189 0.50508,0.53453 0.27954,0.0731 0.50508,0.34447 0.50508,0.6077 0,0.30727 0.17878,0.47563 0.50507,0.47563 0.33672,0 0.50508,0.16836 0.50508,0.50507 0,0.33672 0.16836,0.50508 0.50507,0.50508 0.33672,0 0.50508,0.16836 0.50508,0.50508 0,0.27779 0.16281,0.50507 0.36179,0.50507 0.19898,0 0.43393,0.22729 0.52209,0.50508 0.0882,0.27779 0.31546,0.50507 0.50508,0.50507 0.18962,0 0.41691,0.22729 0.50508,0.50508 0.10826,0.34111 0.38023,0.50396 0.83776,0.50163 1.29082,-0.007 1.77885,-0.27228 1.95253,-1.06304 0.0975,-0.4441 0.36723,-0.81481 0.64577,-0.88765 0.26305,-0.0688 0.47828,-0.33911 0.47828,-0.6007 0,-0.30726 0.17878,-0.47562 0.50507,-0.47562 0.33672,0 0.50508,-0.16836 0.50508,-0.50508 0,-0.33671 0.16836,-0.50507 0.50508,-0.50507 0.33671,0 0.50507,-0.16836 0.50507,-0.50508 0,-0.33672 0.16836,-0.50508 0.50508,-0.50508 0.32629,0 0.50508,-0.16835 0.50508,-0.47562 0,-0.26324 0.22553,-0.5346 0.50507,-0.6077 0.27779,-0.0727 0.50508,-0.29993 0.50508,-0.50508 0,-0.20515 0.22728,-0.43243 0.50507,-0.50507 0.2778,-0.0727 0.50508,-0.31319 0.50508,-0.53453 0,-0.22135 0.14205,-0.4066 0.31567,-0.41167 0.33045,-0.01 1.70464,-2.00434 1.70464,-2.47435 0,-0.14931 0.38987,-0.34461 0.86639,-0.434 0.47651,-0.0894 0.92751,-0.32183 1.00222,-0.51652 0.19101,-0.49775 3.18215,-0.50476 3.18215,-0.007 0,0.209 0.40089,0.41063 1.01015,0.50806 0.76878,0.12293 1.01015,0.27657 1.01015,0.64296 0,0.74989 0.27278,1.28036 0.65837,1.28036 0.25876,0 0.35179,0.37354 0.35179,1.41261 0,1.20021 0.0759,1.43246 0.50507,1.54468 0.46026,0.12036 0.50508,0.34446 0.50508,2.52538 0,2.18092 0.0448,2.40502 0.50507,2.52538 0.45707,0.11953 0.50508,0.34447 0.50508,2.36659 0,1.97604 0.0584,2.26577 0.50508,2.50481 0.3747,0.20053 0.50507,0.52877 0.50507,1.27157 v 1.00127 h 1.28634 c 1.07395,0 1.30814,-0.0834 1.41841,-0.50507 0.10626,-0.40633 0.34447,-0.50508 1.21839,-0.50508 1.32718,0 1.88524,-0.19489 1.88524,-0.65836 0,-0.24762 0.33042,-0.35179 1.11577,-0.35179 1.35563,0 1.91469,-0.19223 1.91469,-0.65837 0,-0.2537 0.35145,-0.35179 1.26055,-0.35179 0.98705,0 1.32899,-0.10958 1.57597,-0.50507 0.28638,-0.45856 0.58893,-0.50508 3.28514,-0.50508 2.54892,0 2.96971,0.057 2.96971,0.40245 0,0.22135 0.22729,0.46189 0.50508,0.53453 0.27779,0.0727 0.50507,0.28163 0.50507,0.46442 0,0.18278 0.22729,0.40447 0.50508,0.49264 0.46042,0.14613 0.50508,0.3821 0.50508,2.66867 0,2.17164 -0.0678,2.57616 -0.50508,3.01344 -0.40805,0.40805 -0.50508,0.84179 -0.50508,2.25793 0,0.96408 0.10643,1.81864 0.23651,1.89904 0.13008,0.0804 1.49378,0.2181 3.03046,0.30602 1.94278,0.11116 2.79395,0.25372 2.79395,0.46795 0,0.18651 0.51503,0.35758 1.30508,0.4335 0.7976,0.0766 1.42218,0.28553 1.60621,0.53721 0.1709,0.23372 0.65423,0.4118 1.11767,0.4118 0.60416,0 0.8509,0.13137 0.94863,0.50508 0.10527,0.40254 0.34447,0.50507 1.1783,0.50507 0.77272,0 1.12868,0.13204 1.36165,0.50508 0.17348,0.27779 0.58531,0.50507 0.91517,0.50507 0.38737,0 0.64653,0.17886 0.73183,0.50508 0.0954,0.36471 0.34447,0.50508 0.89632,0.50508 0.54245,0 0.81077,0.14658 0.92455,0.50507 0.11929,0.37585 0.3821,0.50508 1.02717,0.50508 0.60844,0 0.86686,0.11479 0.86686,0.38506 0,0.21178 0.26861,0.48718 0.59691,0.612 0.32829,0.12481 0.66565,0.40611 0.74969,0.62509 0.0926,0.24135 0.45427,0.39815 0.91832,0.39815 0.59718,0 0.76554,0.11108 0.76554,0.50508 0,0.32629 0.16836,0.50508 0.47562,0.50508 0.26324,0 0.5346,0.22553 0.60771,0.50507 0.079,0.30219 0.34446,0.50508 0.6608,0.50508 0.30161,0 0.52871,0.16271 0.52871,0.37881 0,0.20834 0.17563,0.3788 0.39029,0.3788 0.21466,0 0.67439,0.28411 1.02163,0.63135 0.34724,0.34724 0.79664,0.63134 0.99867,0.63134 0.20204,0 0.36733,0.22143 0.36733,0.49207 0,0.27064 0.28411,0.79862 0.63135,1.1733 0.34724,0.37468 0.63134,0.77828 0.63134,0.89689 0,0.11862 0.15721,0.21566 0.34936,0.21566 0.19214,0 0.40879,0.22729 0.48143,0.50508 0.0726,0.27779 0.31318,0.50508 0.53453,0.50508 0.22942,0 0.40245,0.20984 0.40245,0.48805 0,0.26844 0.22729,0.5602 0.50508,0.64837 0.27779,0.0882 0.50507,0.36668 0.50507,0.61891 0,0.25223 0.22729,0.51804 0.50508,0.59068 0.36777,0.0962 0.50508,0.34447 0.50508,0.91334 0,0.53173 0.12298,0.78126 0.38505,0.78126 0.21179,0 0.49308,0.2841 0.6251,0.63134 0.13202,0.34724 0.34385,0.63135 0.47072,0.63135 0.12688,0 0.30324,0.38677 0.39193,0.8595 0.0887,0.47272 0.32861,0.92372 0.53318,1.00222 0.20456,0.0785 0.37194,0.36429 0.37194,0.63508 0,0.76013 0.2708,1.29127 0.65836,1.29127 0.23543,0 0.35179,0.30017 0.35179,0.90753 0,0.69514 0.1182,0.93843 0.50508,1.0396 0.38725,0.10127 0.50588,0.34613 0.50852,1.04965 0.005,1.29095 0.24905,2.05398 0.65735,2.05398 0.25483,0 0.34935,0.37342 0.34935,1.38008 0,1.10658 0.0969,1.43194 0.4891,1.64183 0.29503,0.15789 0.5205,0.5873 0.56822,1.08217 0.078,0.80901 0.0989,0.82146 1.50483,0.89537 1.16628,0.0613 1.44921,0.16471 1.55473,0.56821 0.10769,0.41182 0.35217,0.49326 1.48084,0.49326 1.07836,0 1.41567,0.10218 1.66728,0.50507 0.20124,0.32223 0.58893,0.50508 1.0709,0.50508 0.41876,0 0.98059,0.22511 1.26055,0.50508 0.33672,0.33671 0.8418,0.50507 1.51523,0.50507 0.84179,0 1.01015,0.0842 1.01015,0.50508 0,0.32629 0.16836,0.50507 0.47563,0.50507 0.26323,0 0.5346,0.22554 0.6077,0.50508 0.10117,0.38688 0.34446,0.50508 1.03961,0.50508 0.73916,0 0.90752,0.0937 0.90752,0.50507 0,0.3263 0.16836,0.50508 0.47562,0.50508 0.26324,0 0.53461,0.22554 0.60771,0.50508 0.0726,0.27779 0.31318,0.50507 0.53453,0.50507 0.22134,0 0.40245,0.16281 0.40245,0.36179 0,0.19899 0.22728,0.43393 0.50507,0.5221 0.2778,0.0882 0.50508,0.32311 0.50508,0.52209 0,0.19898 0.12238,0.36179 0.27196,0.36179 0.35345,0 1.74834,1.3949 1.74834,1.74834 0,0.14958 0.17047,0.27196 0.37881,0.27196 0.20835,0 0.37881,0.11365 0.37881,0.25254 0,0.1389 0.19887,0.45297 0.44194,0.69794 0.24307,0.24498 0.58955,0.72796 0.76996,1.07329 0.88875,1.70119 1.11624,2.01684 1.45353,2.01684 0.24811,0 0.36503,0.28027 0.36503,0.875 0,0.59556 0.15047,0.95553 0.47119,1.12717 0.31941,0.17095 0.51417,0.6335 0.60462,1.43599 0.0805,0.71448 0.29421,1.27379 0.53896,1.41076 0.29629,0.16581 0.40553,0.60408 0.40553,1.627 0,1.18767 0.0766,1.42009 0.50508,1.53213 0.48691,0.12733 0.50507,0.34447 0.50507,6.03727 0,5.56848 -0.0288,5.934 -0.50507,6.41027 -0.35543,0.35543 -0.50508,0.8418 -0.50508,1.6415 0,0.79921 -0.10366,1.13642 -0.34935,1.13642 -0.4113,0 -0.65255,0.76463 -0.65735,2.08344 -0.003,0.68056 -0.11226,0.94702 -0.39018,0.94702 -0.21271,0 -0.45933,0.19887 -0.54807,0.44194 -0.0887,0.24307 -0.36927,0.71297 -0.62342,1.04421 -0.25415,0.33125 -0.46209,0.81423 -0.46209,1.07329 0,0.25906 -0.15625,0.47102 -0.34724,0.47102 -0.19098,0 -0.41566,0.34211 -0.49928,0.76024 -0.0836,0.41814 -0.53504,1.14323 -1.00312,1.61132 -0.46809,0.46809 -0.9217,1.03511 -1.00802,1.26006 -0.0863,0.22494 -0.33097,0.40899 -0.54368,0.40899 -0.2127,0 -0.38673,0.12238 -0.38673,0.27196 0,0.35345 -1.39489,1.74834 -1.74834,1.74834 -0.14958,0 -0.27196,0.17047 -0.27196,0.37881 0,0.20834 -0.18111,0.37881 -0.40245,0.37881 -0.22135,0 -0.46189,0.22728 -0.53453,0.50507 -0.0731,0.27954 -0.34447,0.50508 -0.60771,0.50508 -0.29792,0 -0.47562,0.1782 -0.47562,0.47697 0,0.34259 -0.24215,0.5224 -0.8595,0.63822 -0.47272,0.0887 -0.91822,0.31426 -0.98999,0.50129 -0.0718,0.18703 -0.52634,0.41431 -1.01015,0.50508 -0.48382,0.0908 -0.94389,0.33239 -1.02239,0.53696 -0.0785,0.20457 -0.4304,0.37194 -0.782,0.37194 -0.3516,0 -0.86655,0.22728 -1.14434,0.50507 -0.2874,0.2874 -0.8418,0.50508 -1.28634,0.50508 -0.56887,0 -0.81716,0.13731 -0.91334,0.50508 -0.11293,0.43186 -0.34446,0.50507 -1.5972,0.50507 -1.69477,0 -2.26404,0.16554 -2.26404,0.65837 0,0.28046 -0.59362,0.35179 -2.92783,0.35179 -2.71545,0 -2.93741,0.0366 -3.05991,0.50507 -0.13142,0.50253 -0.34447,0.50508 -42.24704,0.50508 -41.90258,0 -42.11563,-0.003 -42.24705,-0.50508 z m 91.16627,-9.09137 c 0.11119,-0.42517 0.34447,-0.50508 1.47457,-0.50508 1.12069,0 1.36897,-0.0834 1.50279,-0.50507 0.0882,-0.2778 0.37993,-0.50508 0.64837,-0.50508 0.31969,0 0.48805,-0.17423 0.48805,-0.50508 0,-0.41137 0.16836,-0.50507 0.90753,-0.50507 0.69514,0 0.93844,-0.1182 1.03961,-0.50508 0.0731,-0.27954 0.34446,-0.50507 0.6077,-0.50507 0.30726,0 0.47562,-0.17879 0.47562,-0.50508 0,-0.35992 0.16836,-0.50508 0.5858,-0.50508 0.3222,0 0.83283,-0.2841 1.13476,-0.63134 0.30192,-0.34724 0.65819,-0.63135 0.79171,-0.63135 0.13352,0 0.31738,-0.39775 0.40858,-0.88388 0.10094,-0.53806 0.31228,-0.88388 0.54016,-0.88388 0.20589,0 0.43378,-0.22729 0.50643,-0.50508 0.0726,-0.27779 0.28929,-0.50508 0.48143,-0.50508 0.19215,0 0.34936,-0.20967 0.34936,-0.46593 0,-0.25627 0.22728,-0.67163 0.50507,-0.92303 0.27779,-0.2514 0.50508,-0.66676 0.50508,-0.92302 0,-0.25626 0.22728,-0.69322 0.50508,-0.97101 0.39061,-0.39061 0.50507,-0.8418 0.50507,-1.99085 0,-1.27339 0.0722,-1.50466 0.50508,-1.61786 0.48275,-0.12624 0.50507,-0.34446 0.50507,-4.93693 0,-4.58306 -0.0233,-4.81225 -0.50507,-4.96515 -0.42163,-0.13382 -0.50508,-0.3821 -0.50508,-1.5028 0,-1.1301 -0.0799,-1.36338 -0.50507,-1.47456 -0.38688,-0.10117 -0.50508,-0.34447 -0.50508,-1.03961 0,-0.60735 -0.11636,-0.90753 -0.35179,-0.90753 -0.40717,0 -0.65836,-0.53782 -0.65836,-1.40961 0,-0.3516 -0.14822,-0.61069 -0.34936,-0.61069 -0.19214,0 -0.40879,-0.22729 -0.48143,-0.50508 -0.0726,-0.27779 -0.30086,-0.50507 -0.50715,-0.50507 -0.20629,0 -0.45264,-0.30905 -0.54744,-0.68677 -0.23316,-0.92895 -1.64408,-2.33769 -2.34464,-2.341 -0.39895,-0.002 -0.56821,-0.15314 -0.56821,-0.50777 0,-0.32629 -0.16836,-0.50507 -0.47562,-0.50507 -0.26324,0 -0.5346,-0.22554 -0.6077,-0.50508 -0.0972,-0.37181 -0.34447,-0.50508 -0.93698,-0.50508 -0.59252,0 -0.83975,-0.13327 -0.93698,-0.50507 -0.0989,-0.37821 -0.34447,-0.50508 -0.97763,-0.50508 -0.58708,0 -0.92817,-0.15439 -1.11585,-0.50508 -0.21858,-0.40842 -0.52877,-0.50507 -1.62093,-0.50507 -1.13823,0 -1.37139,-0.0794 -1.4827,-0.50508 -0.12577,-0.48093 -0.34447,-0.50507 -4.57514,-0.50507 h -4.44306 v -1.28634 c 0,-1.07395 -0.0834,-1.30814 -0.50508,-1.41841 -0.46897,-0.12264 -0.50507,-0.34447 -0.50507,-3.10363 0,-2.75917 -0.0361,-2.98099 -0.50508,-3.10363 -0.42914,-0.11223 -0.50508,-0.34447 -0.50508,-1.54468 0,-1.03588 -0.0934,-1.41261 -0.35013,-1.41261 -0.22171,0 -0.41305,-0.41958 -0.52167,-1.1439 -0.18609,-1.24093 -1.08321,-2.86884 -1.59044,-2.88602 -0.17362,-0.006 -0.31568,-0.2855 -0.31568,-0.62138 0,-0.85698 -0.2494,-1.40961 -0.63616,-1.40961 -0.18772,0 -0.40306,-0.43482 -0.50026,-1.01016 -0.10492,-0.62103 -0.30803,-1.01015 -0.52727,-1.01015 -0.19614,0 -0.35661,-0.1811 -0.35661,-0.40245 0,-0.22134 -0.22729,-0.46188 -0.50508,-0.53453 -0.27779,-0.0726 -0.50507,-0.29425 -0.50507,-0.49245 0,-0.19821 -0.28411,-0.66677 -0.63135,-1.04126 -0.34724,-0.37448 -0.63134,-0.82765 -0.63134,-1.00705 0,-0.1794 -0.16614,-0.38993 -0.3692,-0.46786 -0.20306,-0.0779 -0.438,-0.35845 -0.52209,-0.62341 -0.0841,-0.26496 -0.30805,-0.48175 -0.49767,-0.48175 -0.18963,0 -0.41691,-0.22728 -0.50508,-0.50508 -0.0882,-0.27779 -0.37993,-0.50507 -0.64836,-0.50507 -0.26843,0 -0.48806,-0.16532 -0.48806,-0.36737 0,-0.2199 -0.3548,-0.43392 -0.88389,-0.53318 -0.63963,-0.11999 -0.88388,-0.29762 -0.88388,-0.64279 0,-0.30861 -0.17828,-0.47697 -0.50507,-0.47697 -0.2852,0 -0.50508,-0.16836 -0.50508,-0.38673 0,-0.21271 -0.19887,-0.46091 -0.44194,-0.55158 -0.24307,-0.0907 -0.59044,-0.37121 -0.77194,-0.62342 -0.1903,-0.26446 -0.64463,-0.45857 -1.07328,-0.45857 -0.46698,0 -0.7433,-0.13078 -0.7433,-0.35179 0,-0.40257 -0.53624,-0.65837 -1.38016,-0.65837 -0.36885,0 -0.6295,-0.18455 -0.71332,-0.50507 -0.10013,-0.38291 -0.34446,-0.50508 -1.01015,-0.50508 -0.66568,0 -0.91002,-0.12216 -1.01015,-0.50507 -0.11222,-0.42914 -0.34447,-0.50508 -1.54468,-0.50508 -1.03907,0 -1.41261,-0.093 -1.41261,-0.35179 0,-0.46613 -0.55905,-0.65836 -1.91469,-0.65836 -0.77835,0 -1.11576,-0.10501 -1.11576,-0.34724 0,-0.56964 -1.23039,-0.66292 -8.74414,-0.66292 h -7.16577 v -0.98069 c 0,-0.76832 0.10939,-1.00931 0.50508,-1.11278 0.42752,-0.1118 0.50508,-0.34447 0.50508,-1.51523 0,-1.17076 0.0775,-1.40343 0.50507,-1.51523 0.42744,-0.11178 0.50508,-0.34447 0.50508,-1.51376 0,-0.92008 0.12655,-1.48671 0.37881,-1.69606 0.83855,-0.69594 0.11244,-1.51523 -1.34291,-1.51523 -0.53237,0 -0.78243,0.14403 -0.87684,0.50507 -0.11222,0.42914 -0.34447,0.50508 -1.54468,0.50508 -1.24425,0 -1.41261,0.0602 -1.41261,0.50508 0,0.44487 -0.16836,0.50507 -1.4126,0.50507 -1.20022,0 -1.43246,0.0759 -1.54468,0.50508 -0.1118,0.42752 -0.34447,0.50507 -1.51523,0.50507 -1.17076,0 -1.40343,0.0776 -1.51523,0.50508 -0.1118,0.42752 -0.34447,0.50508 -1.51523,0.50508 -1.17076,0 -1.40343,0.0775 -1.51523,0.50507 -0.0726,0.2778 -0.33612,0.50508 -0.5855,0.50508 -0.33219,0 -0.49906,-0.27008 -0.62409,-1.01015 -0.10493,-0.62104 -0.30803,-1.01016 -0.52727,-1.01016 -0.27254,0 -0.35661,-0.4093 -0.35661,-1.73619 0,-2.1685 -0.22053,-3.31457 -0.63779,-3.31457 -0.231,0 -0.34708,-0.6487 -0.41037,-2.29335 -0.0702,-1.82442 -0.17863,-2.3594 -0.53021,-2.61636 -0.31859,-0.23285 -0.44194,-0.67435 -0.44194,-1.58185 0,-0.89737 -0.13219,-1.37847 -0.46037,-1.67547 -0.42891,-0.38816 -0.53244,-0.38181 -1.51523,0.093 -0.58017,0.28031 -1.05486,0.67747 -1.05486,0.88257 0,0.2051 -0.17046,0.37291 -0.3788,0.37291 -0.20835,0 -0.37881,0.0956 -0.37881,0.21254 0,0.21124 -0.61786,1.01354 -1.70463,2.21349 -0.31252,0.34506 -0.56821,0.79269 -0.56821,0.99472 0,0.20203 -0.18111,0.36732 -0.40245,0.36732 -0.22135,0 -0.46189,0.22729 -0.53453,0.50508 -0.0727,0.27779 -0.29993,0.50508 -0.50508,0.50508 -0.20515,0 -0.43243,0.22728 -0.50508,0.50507 -0.0726,0.2778 -0.28163,0.50508 -0.46441,0.50508 -0.18279,0 -0.40447,0.22728 -0.49264,0.50508 -0.0882,0.27779 -0.32311,0.50507 -0.5221,0.50507 -0.19898,0 -0.36179,0.16647 -0.36179,0.36992 0,0.20346 -0.22728,0.49156 -0.50507,0.64023 -0.27779,0.14867 -0.50508,0.42912 -0.50508,0.62322 0,0.19409 -0.22728,0.42504 -0.50508,0.51321 -0.27779,0.0882 -0.51227,0.35152 -0.52108,0.58522 -0.0115,0.30528 -0.0803,0.26493 -0.2444,-0.14328 -0.12562,-0.31252 -0.40252,-0.56821 -0.61534,-0.56821 -0.21858,0 -0.38694,-0.21976 -0.38694,-0.50508 0,-0.33672 -0.16836,-0.50508 -0.50508,-0.50508 -0.33671,0 -0.50507,-0.16835 -0.50507,-0.50507 0,-0.33672 -0.16836,-0.50508 -0.50508,-0.50508 -0.33672,0 -0.50508,-0.16836 -0.50508,-0.50507 0,-0.33672 -0.16836,-0.50508 -0.50507,-0.50508 -0.32925,0 -0.50508,-0.16836 -0.50508,-0.48362 0,-0.46473 -0.64702,-1.38695 -1.57836,-2.24969 -0.24307,-0.22517 -0.44194,-0.54695 -0.44194,-0.71506 0,-0.16812 -0.22729,-0.3778 -0.50508,-0.46597 -0.27779,-0.0882 -0.50508,-0.33375 -0.50508,-0.54574 0,-0.21199 -0.22728,-0.44487 -0.50507,-0.51751 -0.2778,-0.0726 -0.50508,-0.24121 -0.50508,-0.37459 0,-0.33333 -1.41206,-1.71889 -1.75177,-1.71889 -0.15146,0 -0.49831,-0.13922 -0.77077,-0.30937 -0.80854,-0.50494 -1.24795,0.35409 -1.2575,2.45833 -0.007,1.49152 -0.0875,1.81981 -0.51311,2.08558 -0.43527,0.27184 -0.50507,0.58893 -0.50507,2.29445 0,1.65831 -0.0819,2.0531 -0.50508,2.43612 -0.42218,0.38206 -0.50508,0.7778 -0.50508,2.41123 0,1.44579 -0.0924,1.98958 -0.35499,2.09037 -0.19525,0.0749 -0.43156,0.48483 -0.52514,0.9109 -0.19687,0.89632 -1.00263,1.07536 -1.21334,0.2696 -0.1118,-0.42752 -0.34447,-0.50507 -1.51523,-0.50507 -1.17077,0 -1.40343,-0.0776 -1.51523,-0.50508 -0.11067,-0.42319 -0.34447,-0.50508 -1.44206,-0.50508 -1.09759,0 -1.33139,-0.0819 -1.44205,-0.50507 -0.1093,-0.41794 -0.34447,-0.50508 -1.36318,-0.50508 -0.9576,0 -1.30117,-0.11221 -1.54652,-0.50507 -0.23765,-0.38054 -0.58893,-0.50508 -1.42462,-0.50508 -0.80785,0 -1.23254,-0.14223 -1.56325,-0.52354 -0.30546,-0.3522 -0.68708,-0.49683 -1.16604,-0.44194 -0.6979,0.08 -0.71343,0.11685 -0.7852,1.86423 -0.0628,1.52899 7e-5,1.84896 0.44194,2.24884 0.3502,0.31693 0.51516,0.78054 0.51516,1.4478 0,0.6325 0.17962,1.17436 0.50508,1.5237 0.34315,0.36833 0.50508,0.89121 0.50508,1.63094 0,0.59884 0.0954,1.0888 0.212,1.0888 0.34641,0 0.79815,1.22166 0.79815,2.15846 0,0.4796 0.1083,0.872 0.24067,0.872 0.26988,0 0.76591,1.59013 0.76807,2.46225 10e-4,0.50373 -0.12521,0.56821 -1.11436,0.56821 -1.33505,0 -1.91469,0.1917 -1.91469,0.63324 0,0.23669 -0.6309,0.35097 -2.29074,0.41492 -1.85977,0.0717 -2.33725,0.17141 -2.53793,0.5302 -0.19771,0.35349 -0.59167,0.44194 -1.96835,0.44194 -1.31915,0 -1.86618,0.11407 -2.34203,0.48839 -0.34202,0.26902 -1.12294,0.52423 -1.73869,0.56821 -1.0629,0.0759 -1.12178,0.12109 -1.19838,0.91966 -0.0636,0.66276 0.0247,0.86736 0.4186,0.97037 0.27453,0.0718 0.55584,0.34731 0.62512,0.61226 0.0693,0.26495 0.30708,0.48172 0.52843,0.48172 0.22135,0 0.40245,0.16281 0.40245,0.36179 0,0.19899 0.22728,0.43393 0.50507,0.5221 0.2778,0.0882 0.50508,0.32311 0.50508,0.52209 0,0.19899 0.16647,0.36179 0.36992,0.36179 0.20346,0 0.49156,0.22729 0.64023,0.50508 0.14867,0.27779 0.43678,0.50507 0.64023,0.50507 0.20346,0 0.36993,0.18111 0.36993,0.40245 0,0.22135 0.22352,0.46091 0.49671,0.53235 0.27319,0.0714 0.56495,0.3449 0.64836,0.6077 0.0834,0.2628 0.27651,0.47781 0.42912,0.47781 0.15261,0 0.45747,0.16986 0.67746,0.37748 0.99201,0.93617 2.02162,1.64282 2.39362,1.64282 0.23713,0 0.40549,0.20971 0.40549,0.50508 0,0.33672 0.16836,0.50508 0.50507,0.50508 0.3638,0 0.50508,0.16836 0.50508,0.60189 0,0.3895 -0.17822,0.6485 -0.50508,0.73397 -0.27779,0.0727 -0.50507,0.29993 -0.50507,0.50508 0,0.20514 -0.22729,0.43243 -0.50508,0.50507 -0.27779,0.0727 -0.50507,0.31319 -0.50507,0.53453 0,0.23409 -0.2113,0.40245 -0.50508,0.40245 -0.29379,0 -0.50508,0.16836 -0.50508,0.40245 0,0.22135 -0.22728,0.46189 -0.50507,0.53453 -0.2778,0.0727 -0.50508,0.28163 -0.50508,0.46442 0,0.18278 -0.22728,0.40447 -0.50508,0.49264 -0.27779,0.0882 -0.50507,0.32311 -0.50507,0.52209 0,0.19899 -0.16647,0.36179 -0.36992,0.36179 -0.20346,0 -0.49156,0.22729 -0.64023,0.50508 -0.14867,0.27779 -0.42485,0.50507 -0.61373,0.50507 -0.18888,0 -0.61104,0.28215 -0.93813,0.62699 -0.3271,0.34484 -0.73677,0.62894 -0.91039,0.63134 -0.17362,0.003 -0.31567,0.17839 -0.31567,0.3911 0,0.2127 -0.17432,0.45362 -0.38738,0.53538 -0.80869,0.31032 -1.88547,1.48095 -1.88547,2.04979 0,0.32262 0.27894,0.86553 0.61987,1.20645 0.55059,0.55059 0.83678,0.61987 2.56067,0.61987 1.55693,0 2.00473,0.0874 2.26397,0.44194 0.25363,0.34688 0.78635,0.46098 2.47645,0.53043 2.29451,0.0943 2.45588,0.20239 2.22402,1.48988 -0.0634,0.3519 -0.28339,0.56821 -0.57797,0.56821 -0.30728,0 -0.47563,0.17878 -0.47563,0.50507 0,0.2778 -0.22729,0.73236 -0.50508,1.01016 -0.27779,0.27779 -0.50508,0.7191 -0.50508,0.9807 0,0.26323 -0.22554,0.5346 -0.50507,0.6077 -0.3784,0.099 -0.50508,0.34446 -0.50508,0.97886 0,0.57328 -0.16313,0.94866 -0.50508,1.1622 -0.39549,0.24699 -0.50507,0.58893 -0.50507,1.57598 0,0.92383 -0.13492,1.39546 -0.50508,1.76562 -0.47755,0.47755 -0.50507,0.8418 -0.50507,6.68338 0,5.91984 0.0211,6.18961 0.50507,6.44861 0.40289,0.21561 0.50508,0.52877 0.50508,1.54775 0,1.06507 0.084,1.29941 0.50507,1.40953 0.3957,0.10348 0.50508,0.34447 0.50508,1.11278 0,0.81234 0.0867,0.9807 0.50508,0.9807 0.41137,0 0.50507,0.16836 0.50507,0.90753 0,0.69514 0.1182,0.93843 0.50508,1.0396 0.27779,0.0727 0.50508,0.3285 0.50508,0.56856 0,0.24007 0.22728,0.64218 0.50507,0.89357 0.27779,0.2514 0.50508,0.6035 0.50508,0.78244 0,0.17894 0.20636,0.47384 0.45857,0.65534 0.25222,0.18149 0.53275,0.52887 0.62342,0.77193 0.0907,0.24307 0.33888,0.44195 0.55158,0.44195 0.21837,0 0.38673,0.21987 0.38673,0.50507 0,0.32629 0.16836,0.50508 0.47563,0.50508 0.26323,0 0.5346,0.22553 0.6077,0.50507 0.0887,0.33905 0.34446,0.50508 0.77818,0.50508 0.38764,0 0.75424,0.20205 0.91641,0.50508 0.14867,0.27779 0.42912,0.50507 0.62322,0.50507 0.19409,0 0.42504,0.22729 0.5132,0.50508 0.0882,0.27779 0.36232,0.50508 0.60923,0.50508 0.2469,0 0.6546,0.22728 0.906,0.50507 0.2514,0.27779 0.71033,0.50508 1.01984,0.50508 0.35037,0 0.6126,0.19062 0.69483,0.50507 0.0962,0.36778 0.34447,0.50508 0.91334,0.50508 0.44454,0 0.99894,0.21769 1.28633,0.50508 0.39061,0.39061 0.8418,0.50507 1.99086,0.50507 1.27338,0 1.50465,0.0722 1.61785,0.50508 0.13151,0.50288 0.34447,0.50508 48.91923,0.50508 48.57476,0 48.78772,-0.002 48.91922,-0.50508 z"
         id="path993"
         transform="scale(0.26458333)" />
      <path
         style="fill:#ffdd55;fill-opacity:1;stroke:#ffdd55;stroke-width:2.97449;stroke-linecap:square;stroke-linejoin:round;stroke-miterlimit:4;stroke-dasharray:none;stroke-opacity:1;paint-order:stroke fill markers"
         d="m -286.18347,453.25012 c -0.15955,-0.19225 -0.82059,-0.42583 -1.46899,-0.51907 -0.6484,-0.0932 -1.38971,-0.35451 -1.64735,-0.58059 -0.40348,-0.35405 -1.26869,-0.41105 -6.23941,-0.41105 -5.27743,0 -5.79957,0.0391 -6.10523,0.45706 -0.26582,0.3635 -0.61394,0.44105 -1.70062,0.37881 -1.32422,-0.0758 -1.37332,-0.1052 -1.59153,-0.95155 -0.12383,-0.48032 -0.18736,-2.69634 -0.14118,-4.9245 0.0697,-3.36028 0.15934,-4.15768 0.52591,-4.6756 0.24307,-0.34342 0.44194,-0.97947 0.44194,-1.41345 0,-0.43398 0.22729,-1.05111 0.50508,-1.37141 0.27779,-0.3203 0.50508,-0.78414 0.50508,-1.03075 0,-0.24662 0.15572,-0.60413 0.34606,-0.79446 0.19033,-0.19033 0.53417,-0.70984 0.7641,-1.15446 0.22992,-0.44462 0.52876,-0.8084 0.66409,-0.8084 0.13533,0 0.24605,-0.12377 0.24605,-0.27504 0,-0.15128 0.82391,-1.05528 1.8309,-2.0089 2.57761,-2.44099 2.63102,-2.48364 3.32935,-2.65891 0.34508,-0.0866 0.75713,-0.31377 0.91568,-0.50482 0.15855,-0.19104 0.70302,-0.42156 1.20992,-0.51228 0.5069,-0.0907 1.10081,-0.32079 1.3198,-0.51128 0.22134,-0.19253 1.2868,-0.41748 2.39912,-0.50653 1.10052,-0.0881 2.38416,-0.3156 2.85254,-0.50555 1.07973,-0.4379 2.01552,-0.43785 3.09504,1.5e-4 0.46838,0.19003 1.68157,0.41867 2.69598,0.50809 1.01442,0.0894 2.09402,0.32052 2.39912,0.51357 0.30509,0.19305 0.92405,0.42801 1.37546,0.52213 0.45142,0.0941 0.82075,0.27855 0.82075,0.40985 0,0.13129 0.28575,0.34736 0.635,0.48014 0.81275,0.30901 2.02317,1.17212 3.05855,2.18097 0.44784,0.43636 0.96483,0.85355 1.14887,0.92708 0.1924,0.0769 0.10916,0.14216 -0.19586,0.15362 -0.29177,0.011 -1.29882,0.75862 -2.2379,1.66144 -0.93908,0.90282 -1.80838,1.6415 -1.93177,1.6415 -0.12339,0 -0.22435,0.1628 -0.22435,0.36179 0,0.19898 -0.22728,0.43392 -0.50507,0.52209 -0.2778,0.0882 -0.50508,0.2497 -0.50508,0.35895 0,0.10925 -0.28411,0.5052 -0.63135,0.87988 -0.34724,0.37468 -0.63134,0.8894 -0.63134,1.14384 0,0.25444 -0.22729,0.52205 -0.50508,0.59469 -0.27779,0.0726 -0.50507,0.31319 -0.50507,0.53453 0,0.22135 -0.0945,0.40245 -0.21001,0.40245 -0.2638,0 -1.8103,2.36474 -1.8103,2.7681 0,0.16414 -0.17029,0.46873 -0.37843,0.67687 -0.20813,0.20813 -0.45424,0.68299 -0.54691,1.05524 -0.0927,0.37225 -0.32271,0.79084 -0.51122,0.93019 -0.18851,0.13935 -0.4142,0.70756 -0.50155,1.26269 -0.0873,0.55513 -0.30399,1.09571 -0.48145,1.20129 -0.17746,0.10558 -0.40247,0.8308 -0.50003,1.61161 -0.20067,1.60615 -0.87867,2.58081 -1.37731,1.97998 z"
         id="path997"
         transform="scale(0.26458333)" />
      <path
         style="fill:#f9f9f9;stroke:#f9f9f9;stroke-width:5.2422;stroke-linecap:square;stroke-linejoin:round;stroke-miterlimit:4;stroke-dasharray:none;stroke-opacity:1;paint-order:stroke fill markers"
         d="m -301.06992,501.2319 c -0.23059,-0.43086 -0.52877,-0.50508 -2.02919,-0.50508 -1.59052,0 -1.75888,-0.0483 -1.75888,-0.50507 0,-0.3137 -0.16836,-0.50508 -0.44433,-0.50508 -0.24438,0 -0.58627,-0.22728 -0.75975,-0.50507 -0.1966,-0.31481 -0.58893,-0.50508 -1.04145,-0.50508 -0.51363,0 -0.76466,-0.14775 -0.8581,-0.50508 -0.10117,-0.38687 -0.34447,-0.50507 -1.03961,-0.50507 -0.73916,0 -0.90752,-0.0937 -0.90752,-0.50508 0,-0.33672 -0.16836,-0.50508 -0.50508,-0.50508 -0.33672,0 -0.50508,-0.16836 -0.50508,-0.50507 0,-0.32629 -0.16835,-0.50508 -0.47562,-0.50508 -0.26323,0 -0.5346,-0.22554 -0.6077,-0.50507 -0.0726,-0.2778 -0.29993,-0.50508 -0.50508,-0.50508 -0.20514,0 -0.43243,-0.22729 -0.50507,-0.50508 -0.0727,-0.27779 -0.29993,-0.50507 -0.50508,-0.50507 -0.20515,0 -0.43243,-0.22729 -0.50508,-0.50508 -0.0726,-0.27779 -0.31318,-0.50508 -0.53453,-0.50508 -0.23409,0 -0.40245,-0.21129 -0.40245,-0.50507 0,-0.33672 -0.16835,-0.50508 -0.50507,-0.50508 -0.40887,0 -0.50508,-0.16836 -0.50508,-0.88388 0,-0.61226 -0.11493,-0.88389 -0.37399,-0.88389 -0.2057,0 -0.44414,-0.27944 -0.52986,-0.62098 -0.0857,-0.34154 -0.31517,-0.75321 -0.50989,-0.91481 -0.19471,-0.1616 -0.35403,-0.50622 -0.35403,-0.76583 0,-0.25961 -0.22728,-0.61396 -0.50507,-0.78744 -0.35634,-0.22254 -0.50508,-0.58893 -0.50508,-1.24418 0,-1.17537 -0.21046,-1.72767 -0.65836,-1.72767 -0.2901,0 -0.35179,-0.98045 -0.35179,-5.59113 0,-4.96419 0.048,-5.62623 0.42803,-5.90412 0.30462,-0.22275 0.45872,-0.79504 0.53449,-1.98501 0.0759,-1.19205 0.20539,-1.67203 0.45105,-1.67203 0.18951,0 0.41588,-0.2841 0.50303,-0.63134 0.0872,-0.34724 0.25097,-0.63135 0.36404,-0.63135 0.11306,0 0.33352,-0.3877 0.48991,-0.86155 0.15638,-0.47386 0.4493,-0.92486 0.65093,-1.00223 0.22467,-0.0862 0.36659,-0.48593 0.36659,-1.03248 0,-0.72345 0.0953,-0.89181 0.50508,-0.89181 0.33672,0 0.50507,-0.16836 0.50507,-0.50508 0,-0.33671 0.16836,-0.50507 0.50508,-0.50507 0.33672,0 0.50508,-0.16836 0.50508,-0.50508 0,-0.2852 0.16836,-0.50508 0.38673,-0.50508 0.2127,0 0.45917,-0.19887 0.54769,-0.44194 0.18169,-0.49885 2.28917,-2.58851 2.61058,-2.58851 0.11497,0 0.28117,-0.22729 0.36934,-0.50508 0.0882,-0.27779 0.33359,-0.50508 0.54539,-0.50508 0.2118,0 0.67404,-0.22728 1.0272,-0.50507 0.35315,-0.2778 0.85405,-0.50508 1.11312,-0.50508 0.25906,0 0.47101,-0.15782 0.47101,-0.3507 0,-0.20034 0.37603,-0.42125 0.87702,-0.51523 0.48236,-0.0905 0.96534,-0.31501 1.07329,-0.49892 0.10795,-0.18391 0.79404,-0.39005 1.52465,-0.45809 0.73061,-0.068 1.53506,-0.31075 1.78765,-0.53935 0.66299,-0.59999 11.57168,-0.62938 12.00842,-0.0323 0.15554,0.21263 0.87067,0.45317 1.6062,0.54025 0.87293,0.10335 1.32583,0.27435 1.32583,0.5006 0,0.24816 0.38588,0.34363 1.38896,0.34363 h 1.38895 v -0.95403 c 0,-0.64152 0.16545,-1.09569 0.50508,-1.38649 0.39902,-0.34165 0.50508,-0.74497 0.50508,-1.9207 0,-1.27587 0.0721,-1.5071 0.50507,-1.62033 0.38291,-0.10013 0.50508,-0.34447 0.50508,-1.01015 0,-0.66569 0.12217,-0.91002 0.50508,-1.01016 0.36619,-0.0958 0.50507,-0.34446 0.50507,-0.90445 0,-0.51391 0.16902,-0.86283 0.50508,-1.04268 0.27779,-0.14867 0.50508,-0.47598 0.50508,-0.72736 0,-0.25138 0.22728,-0.66274 0.50507,-0.91414 0.27779,-0.2514 0.50508,-0.6535 0.50508,-0.89357 0,-0.24006 0.22728,-0.49592 0.50507,-0.56856 0.2778,-0.0726 0.50508,-0.31318 0.50508,-0.53453 0,-0.22135 0.16281,-0.40245 0.36179,-0.40245 0.19898,0 0.43749,-0.2385 0.53001,-0.53001 0.19286,-0.60767 2.8497,-3.34178 3.48377,-3.5851 0.23246,-0.0892 0.42265,-0.33622 0.42265,-0.54892 0,-0.2127 0.18111,-0.38673 0.40245,-0.38673 0.22135,0 0.46189,-0.22729 0.53453,-0.50508 0.0726,-0.27779 0.33286,-0.50507 0.57825,-0.50507 0.2454,0 0.50561,-0.22729 0.57825,-0.50508 0.0891,-0.34076 0.34447,-0.50508 0.78493,-0.50508 0.37935,0 0.78499,-0.21159 0.96827,-0.50507 0.17349,-0.2778 0.50212,-0.50508 0.73031,-0.50508 0.22818,0 0.47431,-0.22728 0.54695,-0.50508 0.0972,-0.3718 0.34446,-0.50507 0.93698,-0.50507 0.59251,0 0.83975,-0.13327 0.93698,-0.50508 0.0996,-0.38068 0.34447,-0.50507 0.99444,-0.50507 0.535,0 0.91774,-0.14434 1.00826,-0.38024 0.0803,-0.20912 0.58807,-0.45093 1.12849,-0.53735 0.58804,-0.094 0.98259,-0.29627 0.98259,-0.50365 0,-0.25311 0.39149,-0.34746 1.4521,-0.34998 1.77444,-0.004 2.58851,-0.2035 2.58851,-0.63367 0,-0.37825 4.94566,-0.55791 11.27855,-0.4097 3.50441,0.082 3.83927,0.13013 3.95383,0.56821 0.10404,0.39783 0.36358,0.47861 1.53777,0.47861 1.03021,0 1.4126,0.094 1.4126,0.34724 0,0.34721 1.04107,0.66291 2.18606,0.66291 0.33424,0 0.67194,0.16737 0.75044,0.37194 0.0785,0.20457 0.5295,0.4445 1.00222,0.53318 0.47273,0.0887 0.8595,0.30907 0.8595,0.48975 0,0.18645 0.43681,0.4023 1.01016,0.49917 0.62103,0.10492 1.01015,0.30803 1.01015,0.52727 0,0.19614 0.22328,0.35661 0.49619,0.35661 0.27291,0 0.61783,0.22728 0.7665,0.50508 0.177,0.33072 0.52877,0.50507 1.01904,0.50507 0.58037,0 0.74873,0.11357 0.74873,0.50508 0,0.33672 0.16836,0.50508 0.50507,0.50508 0.33672,0 0.50508,0.16835 0.50508,0.50507 0,0.33672 0.16836,0.50508 0.50507,0.50508 0.2852,0 0.50508,0.16836 0.50508,0.38673 0,0.2127 0.18181,0.4565 0.40402,0.54177 0.52042,0.19971 1.49823,1.17751 1.69793,1.69793 0.0853,0.22222 0.32907,0.40403 0.54178,0.40403 0.21837,0 0.38673,0.21987 0.38673,0.50507 0,0.33672 0.16836,0.50508 0.50507,0.50508 0.33672,0 0.50508,0.16836 0.50508,0.50507 0,0.33672 0.16836,0.50508 0.50508,0.50508 0.33671,0 0.50507,0.16836 0.50507,0.50508 0,0.33671 0.16836,0.50507 0.50508,0.50507 0.4209,0 0.50508,0.16836 0.50508,1.01016 0,0.84179 0.0842,1.01015 0.50507,1.01015 0.41138,0 0.50508,0.16836 0.50508,0.90752 0,0.69514 0.1182,0.93844 0.50507,1.03961 0.37698,0.0986 0.50508,0.34447 0.50508,0.96949 0,0.61562 0.13377,0.87987 0.50508,0.99772 0.37928,0.12038 0.50507,0.3821 0.50507,1.05081 0,0.67812 0.12046,0.92201 0.50508,1.02259 0.42752,0.1118 0.50508,0.34447 0.50508,1.51523 0,1.17076 0.0776,1.40343 0.50507,1.51523 0.46214,0.12085 0.50508,0.34447 0.50508,2.63048 0,2.18589 0.0632,2.55249 0.50507,2.93086 0.42472,0.36365 0.50508,0.74497 0.50508,2.39664 v 1.96418 h 4.89504 c 4.68265,0 4.90077,0.0219 5.02712,0.50507 0.1118,0.42753 0.34447,0.50508 1.51523,0.50508 1.17076,0 1.40343,0.0776 1.51523,0.50508 0.10117,0.38687 0.34446,0.50507 1.03961,0.50507 0.73916,0 0.90752,0.0937 0.90752,0.50508 0,0.4209 0.16836,0.50508 1.01015,0.50508 0.8418,0 1.01016,0.0842 1.01016,0.50507 0,0.33672 0.16836,0.50508 0.50507,0.50508 0.33672,0 0.50508,0.16836 0.50508,0.50507 0,0.33672 0.16836,0.50508 0.50508,0.50508 0.33671,0 0.50507,0.16836 0.50507,0.50508 0,0.33671 0.16836,0.50507 0.50508,0.50507 0.33671,0 0.50507,0.16836 0.50507,0.50508 0,0.33672 0.16836,0.50508 0.50508,0.50508 0.33672,0 0.50508,0.16836 0.50508,0.50507 0,0.33672 0.16836,0.50508 0.50507,0.50508 0.4209,0 0.50508,0.16836 0.50508,1.01015 0,0.84179 0.0842,1.01015 0.50508,1.01015 0.41137,0 0.50507,0.16836 0.50507,0.90753 0,0.69514 0.1182,0.93844 0.50508,1.03961 0.42517,0.11118 0.50507,0.34446 0.50507,1.47456 0,1.1207 0.0834,1.36898 0.50508,1.5028 0.47703,0.1514 0.50508,0.3821 0.50508,4.15444 0,3.78175 -0.0269,4.00116 -0.50508,4.12622 -0.42752,0.1118 -0.50508,0.34446 -0.50508,1.51523 0,1.17076 -0.0776,1.40343 -0.50507,1.51523 -0.36239,0.0948 -0.50508,0.34446 -0.50508,0.88388 0,0.53942 -0.14268,0.78912 -0.50507,0.88388 -0.38688,0.10117 -0.50508,0.34447 -0.50508,1.03961 0,0.73917 -0.0937,0.90753 -0.50508,0.90753 -0.33671,0 -0.50507,0.16836 -0.50507,0.50507 0,0.33672 -0.16836,0.50508 -0.50508,0.50508 -0.33672,0 -0.50508,0.16836 -0.50508,0.50508 0,0.29378 -0.16836,0.50507 -0.40245,0.50507 -0.22134,0 -0.46188,0.22729 -0.53453,0.50508 -0.0731,0.27954 -0.34446,0.50507 -0.6077,0.50507 -0.30726,0 -0.47562,0.17879 -0.47562,0.50508 0,0.33672 -0.16836,0.50508 -0.50508,0.50508 -0.33671,0 -0.50507,0.16836 -0.50507,0.50507 0,0.41138 -0.16836,0.50508 -0.90753,0.50508 -0.69514,0 -0.93844,0.1182 -1.03961,0.50508 -0.0731,0.27953 -0.34446,0.50507 -0.6077,0.50507 -0.30726,0 -0.47562,0.17879 -0.47562,0.50508 0,0.44488 -0.16836,0.50507 -1.4126,0.50507 -1.20022,0 -1.43246,0.0759 -1.54469,0.50508 -0.13149,0.50284 -0.34446,0.50508 -48.07598,0.50508 -47.68545,0 -47.94537,-0.003 -48.21422,-0.50508 z"
         id="path935"
         transform="scale(0.26458333)" />
    </g>
    <text
       xml:space="preserve"
       style="font-size:4.23333px;line-height:1.25;font-family:Webdings;-inkscape-font-specification:Webdings;letter-spacing:0px;word-spacing:0px;stroke-width:0.264583"
       x="11.90625"
       y="5.2916665"
       id="text44"><tspan
         sodipodi:role="line"
         id="tspan42"
         x="11.90625"
         y="5.2916665"
         style="stroke-width:0.264583" /></text>
  </g>
</svg>
