<?xml version="1.0" encoding="UTF-8" standalone="no"?>
<svg
   xmlns:dc="http://purl.org/dc/elements/1.1/"
   xmlns:cc="http://creativecommons.org/ns#"
   xmlns:rdf="http://www.w3.org/1999/02/22-rdf-syntax-ns#"
   xmlns:svg="http://www.w3.org/2000/svg"
   xmlns="http://www.w3.org/2000/svg"
   xmlns:sodipodi="http://sodipodi.sourceforge.net/DTD/sodipodi-0.dtd"
   xmlns:inkscape="http://www.inkscape.org/namespaces/inkscape"
   sodipodi:docname="cloudy.svg"
   inkscape:version="1.0 (4035a4fb49, 2020-05-01)"
   id="svg8"
   version="1.1"
   viewBox="0 0 13.229166 13.229167"
   height="50"
   width="50">
  <defs
     id="defs2" />
  <sodipodi:namedview
     inkscape:window-maximized="1"
     inkscape:window-y="-11"
     inkscape:window-x="-11"
     inkscape:window-height="986"
     inkscape:window-width="1920"
     units="px"
     showgrid="true"
     inkscape:document-rotation="0"
     inkscape:current-layer="layer1"
     inkscape:document-units="mm"
     inkscape:cy="29.984623"
     inkscape:cx="37.92762"
     inkscape:zoom="5.6"
     inkscape:pageshadow="2"
     inkscape:pageopacity="0.0"
     borderopacity="1.0"
     bordercolor="#666666"
     pagecolor="#ffffff"
     id="base">
    <inkscape:grid
       id="grid10"
       type="xygrid" />
  </sodipodi:namedview>
  <metadata
     id="metadata5">
    <rdf:RDF>
      <cc:Work
         rdf:about="">
        <dc:format>image/svg+xml</dc:format>
        <dc:type
           rdf:resource="http://purl.org/dc/dcmitype/StillImage" />
        <dc:title />
      </cc:Work>
    </rdf:RDF>
  </metadata>
  <g
     id="layer1"
     inkscape:groupmode="layer"
     inkscape:label="Warstwa 1">
    <g
       id="g1214"
       transform="matrix(0.31359772,0,0,0.31359772,12.737843,-33.2591)">
      <path
         transform="scale(0.26458333)"
         id="path933"
         d="m -108.08998,512.20475 c -0.19104,-0.29758 -0.91702,-0.42751 -3.02917,-0.54213 -1.82437,-0.099 -2.84267,-0.2599 -2.96655,-0.46871 -0.10375,-0.17487 -0.77897,-0.39915 -1.50049,-0.49838 -0.72152,-0.0992 -1.46866,-0.33723 -1.66031,-0.52888 -0.19165,-0.19165 -0.62044,-0.34845 -0.95287,-0.34845 -0.34596,0 -0.72001,-0.21598 -0.87473,-0.50508 -0.177,-0.33072 -0.52877,-0.50508 -1.01904,-0.50508 -0.50258,0 -0.74873,-0.12659 -0.74873,-0.38505 0,-0.21178 -0.26861,-0.48718 -0.5969,-0.612 -0.3283,-0.12482 -0.66566,-0.40611 -0.74969,-0.6251 -0.0926,-0.24135 -0.45428,-0.39815 -0.91833,-0.39815 -0.59718,0 -0.76554,-0.11108 -0.76554,-0.50508 0,-0.33671 -0.16836,-0.50507 -0.50507,-0.50507 -0.33672,0 -0.50508,-0.16836 -0.50508,-0.50508 0,-0.33672 -0.16836,-0.50508 -0.50508,-0.50508 -0.33671,0 -0.50507,-0.16836 -0.50507,-0.50507 0,-0.33672 -0.16836,-0.50508 -0.50508,-0.50508 -0.3137,0 -0.50507,-0.16836 -0.50507,-0.44433 0,-0.24438 -0.22729,-0.58627 -0.50508,-0.75975 -0.29348,-0.18328 -0.50508,-0.58893 -0.50508,-0.96827 0,-0.44047 -0.16431,-0.69582 -0.50507,-0.78493 -0.35594,-0.0931 -0.50508,-0.34447 -0.50508,-0.85136 0,-0.46081 -0.18149,-0.8164 -0.50508,-0.98958 -0.27779,-0.14867 -0.50507,-0.4936 -0.50507,-0.7665 0,-0.32783 -0.17138,-0.49619 -0.50508,-0.49619 -0.44896,0 -0.50507,-0.16836 -0.50507,-1.51523 0,-1.34687 -0.0561,-1.51523 -0.50508,-1.51523 -0.47141,0 -0.50508,-0.16836 -0.50508,-2.52538 0,-2.18867 -0.0673,-2.59273 -0.50507,-3.03046 -0.39284,-0.39284 -0.50508,-0.84179 -0.50508,-2.02031 0,-1.34686 0.0561,-1.51522 0.50508,-1.51522 0.46236,0 0.50507,-0.16836 0.50507,-1.99086 0,-1.77846 0.0539,-2.00494 0.50508,-2.12293 0.42319,-0.11066 0.50508,-0.34446 0.50508,-1.44205 0,-1.09759 0.0819,-1.33139 0.50507,-1.44206 0.37505,-0.0981 0.50508,-0.34447 0.50508,-0.95706 0,-0.61258 0.13003,-0.85897 0.50507,-0.95705 0.38688,-0.10117 0.50508,-0.34447 0.50508,-1.03961 0,-0.73916 0.0937,-0.90752 0.50508,-0.90752 0.32629,0 0.50507,-0.16836 0.50507,-0.47563 0,-0.26323 0.22554,-0.5346 0.50508,-0.6077 0.30219,-0.079 0.50508,-0.34446 0.50508,-0.6608 0,-0.29079 0.1583,-0.52872 0.35178,-0.52872 0.38614,0 0.65837,-0.53065 0.65837,-1.28334 0,-0.31606 0.17553,-0.48442 0.50507,-0.48442 0.33672,0 0.50508,-0.16836 0.50508,-0.50508 0,-0.32925 0.16836,-0.50508 0.48362,-0.50508 0.46473,0 1.38695,-0.64701 2.24969,-1.57836 0.22517,-0.24307 0.61142,-0.44194 0.85835,-0.44194 0.28059,0 0.44895,-0.18941 0.44895,-0.50508 0,-0.4209 0.16836,-0.50507 1.01015,-0.50507 0.8418,0 1.01016,-0.0842 1.01016,-0.50508 0,-0.41138 0.16835,-0.50508 0.90752,-0.50508 0.69514,0 0.93844,-0.1182 1.03961,-0.50507 0.1118,-0.42752 0.34446,-0.50508 1.51523,-0.50508 1.17076,0 1.40343,-0.0776 1.51523,-0.50508 0.12685,-0.4851 0.34446,-0.50507 5.50274,-0.50507 5.15827,0 5.37588,0.02 5.50274,0.50507 0.1118,0.42753 0.34447,0.50508 1.51523,0.50508 1.18101,0 1.402889,0.0755 1.518231,0.51656 0.122964,0.47022 0.301177,0.50986 1.986624,0.44194 l 1.851542,-0.0746 0.07495,-1.42572 c 0.06131,-1.16628 0.164713,-1.44921 0.568211,-1.55473 0.41516,-0.10856 0.49326,-0.35265 0.49326,-1.54159 0,-1.24424 0.0602,-1.4126 0.505077,-1.4126 0.420897,0 0.505076,-0.16836 0.505076,-1.01015 0,-0.8418 0.08418,-1.01016 0.505076,-1.01016 0.406983,0 0.505076,-0.16836 0.505076,-0.86686 0,-0.64507 0.129227,-0.90788 0.505077,-1.02717 0.371304,-0.11785 0.505076,-0.3821 0.505076,-0.99772 0,-0.62503 0.128097,-0.87091 0.505076,-0.96949 0.277792,-0.0727 0.505076,-0.29993 0.505076,-0.50508 0,-0.20515 0.227285,-0.43243 0.505077,-0.50507 0.302187,-0.079 0.505076,-0.34447 0.505076,-0.6608 0,-0.2943 0.162882,-0.52872 0.367365,-0.52872 0.218011,0 0.433004,-0.3499 0.52882,-0.86064 0.102848,-0.54823 0.336181,-0.90633 0.642787,-0.98651 0.264734,-0.0692 0.481333,-0.29372 0.481333,-0.49887 0,-0.20515 0.227284,-0.43243 0.505076,-0.50507 0.277792,-0.0727 0.505077,-0.31319 0.505077,-0.53453 0,-0.22135 0.181102,-0.40245 0.402449,-0.40245 0.221348,0 0.461885,-0.22729 0.53453,-0.50508 0.07264,-0.27779 0.28929,-0.50508 0.481434,-0.50508 0.192143,0 0.576638,-0.22728 0.85443,-0.50507 0.277792,-0.27779 0.686179,-0.50508 0.907526,-0.50508 0.221347,0 0.461885,-0.22728 0.53453,-0.50508 0.07265,-0.27779 0.318773,-0.50507 0.546954,-0.50507 0.228184,0 0.556819,-0.22729 0.730303,-0.50508 0.201232,-0.32222 0.588924,-0.50507 1.070898,-0.50507 0.587116,0 0.755475,-0.11256 0.755475,-0.50508 0,-0.33672 0.16836,-0.50508 0.505076,-0.50508 0.277792,0 0.732361,-0.22728 1.010153,-0.50507 0.317678,-0.31768 0.841793,-0.50508 1.412602,-0.50508 0.695142,0 0.938437,-0.1182 1.039606,-0.50508 0.100134,-0.38291 0.344467,-0.50507 1.010153,-0.50507 0.665688,0 0.910019,-0.12217 1.010152,-0.50508 0.11586,-0.44305 0.344468,-0.50507 1.86151,-0.50507 1.470966,0 1.769825,-0.0755 1.999735,-0.50508 0.249657,-0.46649 0.52877,-0.50508 3.653124,-0.50508 3.30732,0 3.385258,-0.0127 3.492259,-0.56821 l 0.109442,-0.56821 0.03439,0.56821 c 0.03393,0.56056 0.08199,0.56821 3.569924,0.56821 2.853653,0 3.535534,0.0679 3.535534,0.35179 0,0.49283 0.569274,0.65837 2.264045,0.65837 1.252733,0 1.484265,0.0732 1.5972,0.50507 0.107854,0.41244 0.344465,0.50508 1.290005,0.50508 0.884424,0 1.232427,0.1193 1.473348,0.50507 0.173484,0.2778 0.572196,0.50508 0.886025,0.50508 0.319362,0 0.570597,0.15489 0.570597,0.35179 0,0.38302 0.529611,0.65836 1.266328,0.65836 0.257071,0 0.53954,0.22729 0.627708,0.50508 0.119289,0.37585 0.382098,0.50508 1.027171,0.50508 0.698506,0 0.866865,0.0981 0.866865,0.50507 0,0.33672 0.16836,0.50508 0.505077,0.50508 0.285199,0 0.505076,0.16836 0.505076,0.38673 0,0.2127 0.190191,0.45972 0.42265,0.54892 0.232457,0.0892 0.601794,0.31707 0.820749,0.50637 1.195001,1.03317 2.031071,1.58844 2.391726,1.58844 0.237126,0 0.405485,0.2097 0.405485,0.50507 0,0.33672 0.16836,0.50508 0.505076,0.50508 0.336002,0 0.505077,0.16836 0.505077,0.50293 0,0.27662 0.227284,0.64488 0.505076,0.81837 0.277792,0.17348 0.505076,0.57219 0.505076,0.88602 0,0.34296 0.153619,0.5706 0.385058,0.5706 0.211781,0 0.493075,0.2841 0.625095,0.63134 0.132019,0.34724 0.413314,0.63135 0.625095,0.63135 0.211781,0 0.385057,0.1811 0.385057,0.40245 0,0.22135 0.227285,0.46188 0.505077,0.53453 0.375046,0.0981 0.505076,0.34446 0.505076,0.95705 0,0.61259 0.130029,0.85898 0.505076,0.95706 0.386876,0.10117 0.505076,0.34447 0.505076,1.03961 0,0.62576 0.114057,0.90752 0.367365,0.90752 0.221461,0 0.434722,0.35905 0.536964,0.90405 0.09328,0.49722 0.325714,0.96395 0.516519,1.03717 0.190805,0.0732 0.346919,0.47276 0.346919,0.88787 0,0.41511 0.210786,1.0564 0.468413,1.42508 0.257629,0.36868 0.53972,1.29536 0.62687,2.05929 0.09039,0.79229 0.323105,1.5094 0.541738,1.66933 0.305995,0.22384 0.383284,0.89444 0.383284,3.32548 0,3.20834 0.104001,3.84402 0.628911,3.84402 0.177285,0 0.38177,0.22729 0.454415,0.50508 0.125766,0.48093 0.344464,0.50507 4.57514,0.50507 3.629364,0 4.44306,0.0644 4.44306,0.35179 0,0.50245 0.573062,0.65837 2.419767,0.65837 1.452483,0 1.620843,0.0525 1.620843,0.50507 0,0.4209 0.168359,0.50508 1.010152,0.50508 0.841793,0 1.010153,0.0842 1.010153,0.50508 0,0.3272 0.16836,0.50507 0.478057,0.50507 0.262933,0 0.541066,0.16419 0.618072,0.36488 0.07701,0.20068 0.543737,0.44061 1.037172,0.53318 0.6517678,0.12227 0.8971566,0.29877 0.8971566,0.64528 0,0.30861 0.1782793,0.47697 0.5050763,0.47697 0.3262918,0 0.5050762,0.16836 0.5050762,0.47562 0,0.26323 0.2255368,0.5346 0.5050763,0.6077 0.3470076,0.0907 0.5050763,0.34447 0.5050763,0.81071 0,0.46625 0.1580686,0.71997 0.5050762,0.81071 0.2795395,0.0731 0.5050763,0.34447 0.5050763,0.60771 0,0.26159 0.1604754,0.47562 0.3566091,0.47562 0.2192435,0 0.4223498,0.38911 0.5272744,1.01015 0.09555,0.56556 0.3134124,1.01015 0.4949974,1.01015 0.1831079,0 0.3946692,0.43986 0.4858632,1.01016 0.104518,0.65363 0.2941741,1.01015 0.5373532,1.01015 0.285863,0 0.3758222,0.3231 0.3758222,1.34982 0,1.0291 0.1200086,1.45842 0.5050762,1.80691 0.4321458,0.39108 0.5050763,0.77781 0.5050763,2.67824 0,1.77515 -0.081282,2.26664 -0.4047934,2.44769 -0.2862368,0.16018 -0.4445428,0.73707 -0.5405174,1.96972 -0.083739,1.0755 -0.2668318,1.8203 -0.4780168,1.94453 -0.1882596,0.11074 -0.4141196,0.65054 -0.501912,1.19956 -0.08779,0.54901 -0.2449494,0.9982 -0.3492426,0.9982 -0.1042932,0 -0.33879,0.36934 -0.5211048,0.82075 -0.1823124,0.45141 -0.4672587,0.90438 -0.6332116,1.0066 -0.1659504,0.10222 -0.376648,0.5852 -0.4682133,1.07329 -0.099783,0.53189 -0.3136675,0.88743 -0.5338479,0.88743 -0.2020508,0 -0.3673647,0.22729 -0.3673647,0.50508 0,0.33672 -0.1683596,0.50508 -0.5050763,0.50508 -0.3367167,0 -0.5050763,0.16836 -0.5050763,0.50507 0,0.33672 -0.1683596,0.50508 -0.5050762,0.50508 -0.3367167,0 -0.5050763,0.16836 -0.5050763,0.50508 0,0.33671 -0.1683596,0.50507 -0.5050766,0.50507 -0.336716,0 -0.505076,0.16836 -0.505076,0.50508 0,0.4209 -0.16836,0.50507 -1.010152,0.50507 -0.695074,0 -1.010153,0.10973 -1.010153,0.35179 0,0.40717 -0.537828,0.65837 -1.409615,0.65837 -0.349197,0 -0.61069,0.14838 -0.61069,0.34653 0,0.209 -0.400892,0.41063 -1.010153,0.50806 -0.594876,0.0951 -1.010152,0.30048 -1.010152,0.49952 0,0.25325 -0.707635,0.37532 -2.822508,0.48689 -2.184482,0.11524 -2.872351,0.23796 -3.043006,0.54291 -0.198417,0.35455 -4.474458,0.39401 -42.698782,0.39401 -38.088085,0 -42.504255,-0.0405 -42.729525,-0.39137 z"
         style="fill:#f9f9f9;stroke:#f9f9f9;stroke-width:4.86425;stroke-linecap:square;stroke-linejoin:round;stroke-miterlimit:4;stroke-dasharray:none;stroke-opacity:1;paint-order:stroke fill markers" />
      <path
         transform="scale(0.26458333)"
         id="path999"
         d="m -108.14033,522.19755 c -0.25295,-0.30478 -1.02853,-0.37881 -3.96891,-0.37881 -3.44214,0 -3.6622,-0.0294 -3.7866,-0.50508 -0.11282,-0.43141 -0.34447,-0.50507 -1.5884,-0.50507 -1.24394,0 -1.47559,-0.0737 -1.58841,-0.50508 -0.10998,-0.42056 -0.34446,-0.50507 -1.40139,-0.50507 -1.04752,0 -1.29733,-0.0883 -1.42962,-0.50508 -0.11785,-0.3713 -0.3821,-0.50508 -0.99772,-0.50508 -0.62502,0 -0.87091,-0.12809 -0.96949,-0.50507 -0.10117,-0.38688 -0.34447,-0.50508 -1.03961,-0.50508 -0.73916,0 -0.90752,-0.0937 -0.90752,-0.50508 0,-0.33671 -0.16836,-0.50507 -0.50508,-0.50507 -0.27779,0 -0.73236,-0.22729 -1.01015,-0.50508 -0.27779,-0.27779 -0.73236,-0.50507 -1.01015,-0.50507 -0.33672,0 -0.50508,-0.16836 -0.50508,-0.50508 0,-0.33672 -0.16836,-0.50508 -0.50508,-0.50508 -0.29378,0 -0.50507,-0.16836 -0.50507,-0.40245 0,-0.22134 -0.22729,-0.46188 -0.50508,-0.53453 -0.27779,-0.0726 -0.50507,-0.29285 -0.50507,-0.48936 0,-0.1965 -0.19888,-0.42989 -0.44195,-0.51864 -0.56803,-0.20742 -1.44627,-1.08565 -1.65368,-1.65369 -0.0888,-0.24306 -0.32214,-0.44194 -0.51865,-0.44194 -0.1965,0 -0.41671,-0.22728 -0.48936,-0.50507 -0.0726,-0.2778 -0.31318,-0.50508 -0.53453,-0.50508 -0.23409,0 -0.40245,-0.21129 -0.40245,-0.50508 0,-0.33671 -0.16835,-0.50507 -0.50507,-0.50507 -0.33672,0 -0.50508,-0.16836 -0.50508,-0.50508 0,-0.33671 -0.16836,-0.50507 -0.50507,-0.50507 -0.41138,0 -0.50508,-0.16836 -0.50508,-0.90753 0,-0.69514 -0.1182,-0.93844 -0.50508,-1.03961 -0.37697,-0.0986 -0.50507,-0.34446 -0.50507,-0.96949 0,-0.61562 -0.13378,-0.87987 -0.50508,-0.99772 -0.37585,-0.11928 -0.50508,-0.38209 -0.50508,-1.02717 0,-0.6985 -0.0981,-0.86686 -0.50507,-0.86686 -0.41837,0 -0.50508,-0.16836 -0.50508,-0.9807 0,-0.76831 -0.10938,-1.0093 -0.50507,-1.11278 -0.42914,-0.11222 -0.50508,-0.34446 -0.50508,-1.54468 0,-1.02302 -0.0948,-1.4126 -0.34363,-1.4126 -0.39555,0 -0.66092,-1.72781 -0.66433,-4.32537 -0.002,-1.17753 -0.11449,-1.7669 -0.381,-1.98809 -0.52241,-0.43356 -0.54761,-5.10136 -0.0299,-5.53106 0.23688,-0.1966 0.38298,-1.0677 0.45492,-2.71242 0.0833,-1.90405 0.19781,-2.48997 0.53493,-2.73648 0.3066,-0.2242 0.42896,-0.68137 0.42896,-1.60277 0,-1.03063 0.10127,-1.34329 0.50508,-1.5594 0.40096,-0.21459 0.50507,-0.52877 0.50507,-1.52412 0,-1.08544 0.0678,-1.2538 0.50508,-1.2538 0.39252,0 0.50507,-0.16836 0.50507,-0.75548 0,-0.48197 0.18286,-0.86966 0.50508,-1.0709 0.27779,-0.17348 0.50508,-0.45855 0.50508,-0.63348 0,-0.17494 0.22728,-0.54535 0.50507,-0.82314 0.2778,-0.27779 0.50508,-0.78918 0.50508,-1.13642 0,-0.46299 0.13469,-0.63135 0.50508,-0.63135 0.33671,0 0.50507,-0.16835 0.50507,-0.50507 0,-0.2852 0.16836,-0.50508 0.38674,-0.50508 0.2127,0 0.45818,-0.19887 0.5455,-0.44194 0.0873,-0.24307 0.36787,-0.64524 0.62342,-0.89372 0.25556,-0.24848 0.46465,-0.66138 0.46465,-0.91756 0,-0.25619 0.22728,-0.52523 0.50507,-0.59787 0.2778,-0.0726 0.50508,-0.29993 0.50508,-0.50508 0,-0.20514 0.22728,-0.43243 0.50508,-0.50507 0.27779,-0.0727 0.50507,-0.31319 0.50507,-0.53453 0,-0.22135 0.1653,-0.40245 0.36733,-0.40245 0.20203,0 0.65143,-0.28411 0.99867,-0.63135 0.34724,-0.34724 0.80698,-0.63134 1.02164,-0.63134 0.21465,0 0.39028,-0.17047 0.39028,-0.37881 0,-0.20834 0.16402,-0.37881 0.36449,-0.37881 0.20047,0 0.51298,-0.20635 0.69448,-0.45857 0.1815,-0.25221 0.52887,-0.53275 0.77193,-0.62342 0.24307,-0.0907 0.44195,-0.33888 0.44195,-0.55158 0,-0.26032 0.24473,-0.38673 0.74872,-0.38673 0.49027,0 0.84204,-0.17435 1.01904,-0.50508 0.14867,-0.27779 0.4843,-0.50508 0.74585,-0.50508 0.74434,0 1.27446,-0.27384 1.27446,-0.65836 0,-0.20725 0.26042,-0.35179 0.63381,-0.35179 0.3486,0 0.82843,-0.22728 1.06628,-0.50507 0.32025,-0.37403 0.74497,-0.50508 1.63689,-0.50508 0.93092,0 1.27605,-0.11469 1.51985,-0.50508 0.25161,-0.40289 0.58892,-0.50507 1.66728,-0.50507 1.13947,0 1.37261,-0.0793 1.48393,-0.50508 0.12744,-0.48729 0.34447,-0.50508 6.16355,-0.50508 5.73859,0 6.03146,-0.0231 6.03146,-0.47562 0,-0.26323 0.22553,-0.5346 0.50507,-0.6077 0.32607,-0.0853 0.50508,-0.34447 0.50508,-0.73132 0,-0.32958 0.22728,-0.76305 0.50508,-0.96327 0.27779,-0.20023 0.50507,-0.56624 0.50507,-0.81337 0,-0.24713 0.16912,-0.44933 0.37583,-0.44933 0.24317,0 0.43283,-0.35652 0.537348,-1.01015 0.103238,-0.64562 0.295117,-1.01015 0.531704,-1.01015 0.203594,0 0.429608,-0.22728 0.502253,-0.50508 0.07265,-0.27779 0.281631,-0.50507 0.464415,-0.50507 0.182785,0 0.401142,-0.21679 0.485237,-0.48175 0.0841,-0.26496 0.308322,-0.54139 0.498281,-0.61428 0.189959,-0.0729 0.420817,-0.47599 0.513013,-0.89577 0.09525,-0.43368 0.378141,-0.83004 0.65516,-0.91796 0.268137,-0.0851 0.487525,-0.24751 0.487525,-0.36091 0,-0.3135 3.205555,-3.54786 3.516257,-3.54786 0.149498,0 0.271815,-0.22729 0.271815,-0.50508 0,-0.32454 0.168359,-0.50508 0.471019,-0.50508 0.259061,0 0.74204,-0.20794 1.073287,-0.46209 0.331247,-0.25414 0.801142,-0.53468 1.04421,-0.62341 0.243068,-0.0887 0.441941,-0.33536 0.441941,-0.54807 0,-0.21837 0.219878,-0.38673 0.505077,-0.38673 0.336716,0 0.505076,-0.16836 0.505076,-0.50508 0,-0.37039 0.16836,-0.50507 0.631345,-0.50507 0.34724,0 0.85863,-0.22729 1.136422,-0.50508 0.277792,-0.27779 0.648202,-0.50508 0.823135,-0.50508 0.174933,0 0.460004,-0.22728 0.633487,-0.50507 0.183282,-0.29348 0.588924,-0.50508 0.968272,-0.50508 0.440464,0 0.695818,-0.16431 0.784929,-0.50507 0.100134,-0.38291 0.344467,-0.50508 1.010152,-0.50508 0.665688,0 0.910019,-0.12217 1.010153,-0.50508 0.103477,-0.39569 0.344467,-0.50507 1.112779,-0.50507 0.643982,0 1.154114,-0.17342 1.485775,-0.50508 0.317678,-0.31768 0.841793,-0.50508 1.412602,-0.50508 0.695142,0 0.938437,-0.1182 1.039606,-0.50507 0.116898,-0.44702 0.344468,-0.50508 1.979644,-0.50508 1.625773,0 1.86681,-0.0606 2.007871,-0.50507 0.151707,-0.47799 0.382097,-0.50508 4.295845,-0.50508 3.987271,0 4.149636,-0.0201 4.52867,-0.56127 0.298682,-0.42643 0.393126,-0.46325 0.393126,-0.15329 0,0.63656 0.522828,0.71456 4.789427,0.71456 3.778114,0 3.997529,0.0269 4.122581,0.50508 0.117223,0.44826 0.344465,0.50507 2.020305,0.50507 1.675838,0 1.903082,0.0568 2.020305,0.50508 0.111799,0.42752 0.344465,0.50507 1.515229,0.50507 1.170762,0 1.40343,0.0776 1.515229,0.50508 0.101169,0.38688 0.344464,0.50508 1.039606,0.50508 0.607352,0 0.907526,0.11635 0.907526,0.35179 0,0.40295 0.536373,0.65836 1.382596,0.65836 0.321019,0 0.644972,0.15975 0.719895,0.35499 0.07492,0.19525 0.513241,0.43734 0.974037,0.53799 0.460796,0.10065 1.108834,0.39547 1.440081,0.65516 0.331247,0.25969 0.814226,0.47216 1.073287,0.47216 0.30266,0 0.471019,0.18054 0.471019,0.50508 0,0.33672 0.16836,0.50508 0.505076,0.50508 0.277792,0 0.505077,0.1628 0.505077,0.36179 0,0.19898 0.246959,0.44017 0.548798,0.53597 0.301836,0.0958 0.777835,0.38756 1.057771,0.64836 0.279936,0.2608 0.658008,0.47418 0.840162,0.47418 0.182153,0 0.331188,0.17403 0.331188,0.38674 0,0.2127 0.164723,0.44994 0.366052,0.5272 0.525284,0.20157 4.684711,4.31128 4.684711,4.62871 0,0.14615 0.227284,0.26573 0.505076,0.26573 0.333704,0 0.505076,0.16836 0.505076,0.49619 0,0.27291 0.212271,0.6098 0.471716,0.74865 0.259443,0.13885 0.540707,0.59741 0.625032,1.01903 0.09032,0.45161 0.311554,0.76659 0.538437,0.76659 0.216761,0 0.385121,0.2208 0.385121,0.50507 0,0.33672 0.168359,0.50508 0.505076,0.50508 0.336716,0 0.505076,0.16836 0.505076,0.50508 0,0.33671 0.16836,0.50507 0.505076,0.50507 0.420898,0 0.505077,0.16836 0.505077,1.01015 0,0.8418 0.08418,1.01016 0.505076,1.01016 0.411377,0 0.505076,0.16836 0.505076,0.90752 0,0.69514 0.118201,0.93844 0.505076,1.03961 0.382911,0.10013 0.505077,0.34447 0.505077,1.01015 0,0.66569 0.122165,0.91002 0.505076,1.01015 0.392308,0.1026 0.505076,0.34447 0.505076,1.08333 0,0.73886 0.112769,0.98073 0.505076,1.08333 0.427522,0.11179 0.505077,0.34446 0.505077,1.51522 0,1.17077 0.07755,1.40343 0.505076,1.51523 0.423188,0.11067 0.505076,0.34447 0.505076,1.44206 0,1.09759 0.08189,1.33139 0.505077,1.44205 0.279539,0.0731 0.505076,0.34447 0.505076,0.60771 0,0.37869 0.187333,0.47562 0.919178,0.47562 0.556076,0 1.037422,0.16171 1.218512,0.40936 0.209106,0.28598 0.845507,0.44845 2.111279,0.53901 1.219166,0.0872 1.811946,0.23363 1.811946,0.4475 0,0.37599 0.560842,0.62444 1.409615,0.62444 0.357581,0 0.61069,0.1478 0.61069,0.3566 0,0.21806 0.384792,0.42162 0.9903688,0.52394 0.5447046,0.092 1.0484146,0.31858 1.1193576,0.50346 0.070946,0.18487 0.4775951,0.4127 0.9036673,0.50628 0.4260723,0.0936 0.7746784,0.33159 0.7746784,0.52889 0,0.19731 0.2232867,0.35874 0.496192,0.35874 0.2729054,0 0.6178295,0.22729 0.7664987,0.50508 0.1621775,0.30303 0.5287694,0.50508 0.9164104,0.50508 0.4337191,0 0.68952,0.16603 0.7781836,0.50507 0.073102,0.27954 0.3444671,0.50508 0.6077027,0.50508 0.3072632,0 0.4756228,0.17878 0.4756228,0.50508 0,0.33671 0.1683596,0.50507 0.5050763,0.50507 0.3367166,0 0.5050762,0.16836 0.5050762,0.50508 0,0.33672 0.1683596,0.50507 0.5050763,0.50507 0.33671667,0 0.50507627,0.16836 0.50507627,0.50508 0,0.3268 0.1683596,0.50508 0.4769713,0.50508 0.3451666,0 0.52279182,0.24425 0.64278784,0.88388 0.0911991,0.48614 0.27712272,0.88388 0.41316249,0.88388 0.13603977,0 0.3553641,0.28411 0.4873834,0.63135 0.1320194,0.34724 0.4133141,0.63134 0.6250951,0.63134 0.2166979,0 0.3850575,0.22084 0.3850575,0.50508 0,0.33672 0.1683596,0.50508 0.5050763,0.50508 0.4208977,0 0.5050762,0.16836 0.5050762,1.01015 0,0.84179 0.084179,1.01015 0.5050763,1.01015 0.4208977,0 0.5050763,0.16836 0.5050763,1.01016 0,0.84179 0.084179,1.01015 0.5050762,1.01015 0.4448788,0 0.5050763,0.16836 0.5050763,1.4126 0,1.20022 0.075938,1.43246 0.5050763,1.54468 0.4475455,0.11704 0.5050762,0.34447 0.5050762,1.99666 0,1.52787 0.091209,1.9558 0.5050763,2.36966 0.4542883,0.45429 0.5050763,0.8418 0.5050763,3.8536 0,3.07501 -0.041255,3.37428 -0.5050763,3.66394 -0.4356156,0.27205 -0.5050763,0.58893 -0.5050763,2.30414 0,1.77632 -0.05394,2.00281 -0.5050762,2.12079 -0.4275218,0.1118 -0.5050763,0.34446 -0.5050763,1.51523 0,1.17076 -0.077554,1.40343 -0.5050763,1.51523 -0.364713,0.0954 -0.5050762,0.34446 -0.5050762,0.89631 0,0.54245 -0.1465807,0.81077 -0.5050763,0.92455 -0.3713043,0.11785 -0.5050763,0.3821 -0.5050763,0.99772 0,0.62502 -0.1280974,0.87091 -0.5050762,0.96949 -0.3868758,0.10117 -0.5050763,0.34446 -0.5050763,1.0396 0,0.73917 -0.093699,0.90753 -0.5050763,0.90753 -0.3367167,0 -0.5050763,0.16836 -0.5050763,0.50508 0,0.33671 -0.1683596,0.50507 -0.50507622,0.50507 -0.33671667,0 -0.50507627,0.16836 -0.50507627,0.50508 0,0.29378 -0.1683596,0.50508 -0.40244982,0.50508 -0.22134715,0 -0.46188467,0.22728 -0.53452979,0.50507 -0.0726451,0.27779 -0.2999294,0.50508 -0.5050763,0.50508 -0.2051468,0 -0.4324311,0.22728 -0.5050762,0.50507 -0.072645,0.2778 -0.2999295,0.50508 -0.5050763,0.50508 -0.2051468,0 -0.4324312,0.22729 -0.5050763,0.50508 -0.073102,0.27954 -0.344467,0.50507 -0.6077027,0.50507 -0.3072631,0 -0.4756227,0.17879 -0.4756227,0.50508 0,0.3137 -0.1683596,0.50508 -0.4443283,0.50508 -0.2443811,0 -0.5862723,0.22728 -0.7597559,0.50507 -0.1734836,0.27779 -0.5523842,0.50508 -0.8420025,0.50508 -0.3141954,0 -0.5798528,0.20371 -0.6586599,0.50507 -0.082234,0.31446 -0.3444671,0.50508 -0.6948309,0.50508 -0.3095133,0 -0.7684407,0.22729 -1.0198399,0.50508 -0.2513992,0.27779 -0.7103266,0.50507 -1.0198399,0.50507 -0.3503638,0 -0.6125969,0.19062 -0.6948309,0.50508 -0.1083816,0.41445 -0.3444646,0.50508 -1.3157866,0.50508 -0.971322,0 -1.207405,0.0906 -1.315787,0.50507 -0.1132,0.43288 -0.344467,0.50508 -1.617855,0.50508 -1.317416,0 -1.485776,0.0572 -1.485776,0.50507 0,0.47924 -0.168359,0.50508 -3.29092,0.50508 -2.692301,0 -3.317364,0.0689 -3.436284,0.37881 -0.128418,0.33464 -5.113993,0.37881 -42.766366,0.37881 -37.577254,0 -42.658204,-0.0448 -42.935384,-0.37881 z m 91.74025,-8.96511 c 0.353154,-0.27779 1.004152,-0.50507 1.44666,-0.50507 0.592174,0 0.839424,-0.13333 0.936638,-0.50508 0.100134,-0.38291 0.344468,-0.50507 1.010153,-0.50507 0.665688,0 0.910019,-0.12217 1.010153,-0.50508 0.100133,-0.38291 0.344467,-0.50508 1.010152,-0.50508 0.665688,0 0.910019,-0.12216 1.0101526,-0.50507 0.073102,-0.27954 0.3444671,-0.50508 0.6077027,-0.50508 0.3072632,0 0.4756228,-0.17878 0.4756228,-0.50508 0,-0.31919 0.1683596,-0.50507 0.4574576,-0.50507 0.622456,0 1.5628474,-0.91766 1.5628474,-1.52507 0,-0.32688 0.1717032,-0.49524 0.5050763,-0.49524 0.3262919,0 0.5050763,-0.16836 0.5050763,-0.47562 0,-0.26324 0.2255367,-0.5346 0.5050763,-0.6077 0.3021871,-0.079 0.5050762,-0.34447 0.5050762,-0.6608 0,-0.2908 0.161435,-0.52872 0.3587405,-0.52872 0.1993991,0 0.4388128,-0.36455 0.5390073,-0.82074 0.099144,-0.4514 0.3922801,-0.96924 0.6514095,-1.15074 0.3240999,-0.22701 0.4711478,-0.64014 0.4711478,-1.3237 0,-0.72019 0.1390147,-1.08051 0.5050763,-1.30911 0.4444267,-0.27755 0.5050762,-0.58893 0.5050762,-2.59305 0,-2.04217 0.054968,-2.31194 0.5317292,-2.60969 0.47980728,-0.29964 0.52236248,-0.51761 0.43577978,-2.23218 -0.0722183,-1.43012 -0.20374268,-1.97893 -0.53172918,-2.21877 -0.3359868,-0.24567 -0.4357798,-0.6979 -0.4357798,-1.97478 0,-1.88119 -0.1538917,-2.45506 -0.6583644,-2.45506 -0.2420603,0 -0.3517881,-0.31508 -0.3517881,-1.01015 0,-0.67344 -0.1683596,-1.17852 -0.5050763,-1.51523 -0.2777919,-0.2778 -0.5050762,-0.68618 -0.5050762,-0.90753 0,-0.22135 -0.2272844,-0.46188 -0.5050763,-0.53453 -0.3769788,-0.0986 -0.5050763,-0.34447 -0.5050763,-0.96949 0,-0.59969 -0.1356407,-0.88046 -0.4778097,-0.98906 -0.2627962,-0.0834 -0.5362622,-0.37517 -0.6077027,-0.64837 -0.071441,-0.27319 -0.2977425,-0.49671 -0.5028893,-0.49671 -0.2051468,0 -0.4324312,-0.22728 -0.5050763,-0.50508 -0.072645,-0.27779 -0.2999294,-0.50507 -0.5050763,-0.50507 -0.2051468,0 -0.4324311,-0.22729 -0.5050762,-0.50508 -0.072645,-0.27779 -0.3131827,-0.50508 -0.5345298,-0.50508 -0.2213472,0 -0.4024498,-0.1628 -0.4024498,-0.36178 0,-0.19899 -0.2272844,-0.43393 -0.5050763,-0.5221 -0.277792,-0.0882 -0.5050763,-0.31312 -0.5050763,-0.4999 0,-0.19938 -0.4170515,-0.41005 -1.0101525,-0.51025 -0.565559,-0.0956 -1.010153,-0.31341 -1.010153,-0.495 0,-0.18159 -0.432443,-0.39348 -0.982588,-0.48145 -0.540421,-0.0864 -1.042798,-0.31403 -1.11639,-0.50581 -0.08804,-0.22943 -0.781759,-0.4094 -2.028419,-0.52622 -1.276719,-0.11964 -1.939556,-0.29465 -2.032412,-0.53663 -0.111654,-0.29096 -0.953654,-0.35908 -4.438868,-0.35908 h -4.301072 v -3.27111 c 0,-3.07498 -0.25964,-4.55757 -0.798152,-4.55757 -0.1166,0 -0.212001,-0.51139 -0.212001,-1.13642 0,-0.79971 -0.149652,-1.28608 -0.505076,-1.6415 -0.355748,-0.35575 -0.505077,-0.84179 -0.505077,-1.64397 0,-0.82638 -0.138592,-1.25756 -0.505076,-1.57135 -0.277792,-0.23786 -0.505076,-0.63449 -0.505076,-0.88142 0,-0.24692 -0.227284,-0.67623 -0.505076,-0.95402 -0.277792,-0.2778 -0.505077,-0.71475 -0.505077,-0.97102 0,-0.25626 -0.227284,-0.67162 -0.505076,-0.92302 -0.277792,-0.2514 -0.505076,-0.6774 -0.505076,-0.94667 0,-0.27719 -0.21911,-0.54687 -0.505076,-0.62165 -0.27954,-0.0731 -0.505077,-0.34447 -0.505077,-0.60771 0,-0.26159 -0.207556,-0.68318 -0.461233,-0.93685 -0.253679,-0.25368 -0.534216,-0.65143 -0.623421,-0.88389 -0.0892,-0.23245 -0.336214,-0.42265 -0.548919,-0.42265 -0.218372,0 -0.386732,-0.21988 -0.386732,-0.50507 0,-0.33672 -0.168359,-0.50508 -0.505076,-0.50508 -0.336717,0 -0.505076,-0.16836 -0.505076,-0.50508 0,-0.33671 -0.16836,-0.50507 -0.505077,-0.50507 -0.336716,0 -0.505076,-0.16836 -0.505076,-0.50508 0,-0.33672 -0.168359,-0.50507 -0.505076,-0.50507 -0.336717,0 -0.505076,-0.16836 -0.505076,-0.50508 0,-0.33672 -0.16836,-0.50508 -0.505077,-0.50508 -0.336716,0 -0.505076,-0.16836 -0.505076,-0.50507 0,-0.33672 -0.16836,-0.50508 -0.505076,-0.50508 -0.336717,0 -0.505076,-0.16836 -0.505076,-0.50508 0,-0.32629 -0.16836,-0.50507 -0.475623,-0.50507 -0.263236,0 -0.534601,-0.22554 -0.607703,-0.50508 -0.07265,-0.27779 -0.313183,-0.50508 -0.53453,-0.50508 -0.221347,0 -0.629734,-0.22728 -0.907526,-0.50507 -0.277792,-0.27779 -0.705023,-0.50508 -0.949404,-0.50508 -0.244381,0 -0.586273,-0.22728 -0.759756,-0.50507 -0.196601,-0.31481 -0.588924,-0.50508 -1.041445,-0.50508 -0.513635,0 -0.76466,-0.14775 -0.858102,-0.50508 -0.09723,-0.3718 -0.344464,-0.50507 -0.936979,-0.50507 -0.592515,0 -0.83975,-0.13328 -0.93698,-0.50508 -0.111311,-0.42565 -0.344467,-0.50508 -1.482702,-0.50508 -1.092159,0 -1.402347,-0.0967 -1.620928,-0.50507 -0.214587,-0.40096 -0.52877,-0.50508 -1.524113,-0.50508 -0.91709,0 -1.389448,-0.13564 -1.758883,-0.50507 -0.483419,-0.48342 -0.841793,-0.50508 -8.357401,-0.50508 -7.63994,0 -7.855898,0.0137 -7.984405,0.50508 -0.117223,0.44826 -0.344467,0.50507 -2.020305,0.50507 -1.675841,0 -1.903082,0.0568 -2.020305,0.50508 -0.102861,0.39334 -0.344467,0.50507 -1.092124,0.50507 -1.205458,0 -1.758969,0.20718 -1.758969,0.65837 0,0.23352 -0.296429,0.35179 -0.881744,0.35179 -0.608243,0 -0.979583,0.15666 -1.197167,0.50507 -0.173484,0.2778 -0.51441,0.50508 -0.757615,0.50508 -0.243204,0 -0.58413,0.22728 -0.757614,0.50508 -0.173484,0.27779 -0.564536,0.50507 -0.869006,0.50507 -0.331788,0 -0.617807,0.20236 -0.713885,0.50508 -0.08817,0.27779 -0.379931,0.50507 -0.648364,0.50507 -0.268431,0 -0.715342,0.22729 -0.993134,0.50508 -0.277792,0.27779 -0.667883,0.50508 -0.866865,0.50508 -0.198985,0 -0.433926,0.22728 -0.522095,0.50507 -0.08817,0.2778 -0.315453,0.50508 -0.505076,0.50508 -0.189623,0 -0.416908,0.22728 -0.505076,0.50508 -0.08817,0.27779 -0.309857,0.50507 -0.492642,0.50507 -0.182784,0 -0.39177,0.22729 -0.464415,0.50508 -0.07264,0.27779 -0.299929,0.50508 -0.505076,0.50508 -0.205147,0 -0.432431,0.22728 -0.505076,0.50507 -0.07265,0.27779 -0.29993,0.50508 -0.505077,0.50508 -0.205146,0 -0.432431,0.22728 -0.505076,0.50507 -0.07264,0.2778 -0.313183,0.50508 -0.53453,0.50508 -0.225784,0 -0.40245,0.20879 -0.40245,0.47562 0,0.26324 -0.225536,0.5346 -0.505076,0.60771 -0.362392,0.0948 -0.505076,0.34446 -0.505076,0.88388 0,0.53942 -0.142684,0.78911 -0.505076,0.88388 -0.277792,0.0727 -0.505077,0.30553 -0.505077,0.51751 0,0.21199 -0.227284,0.45757 -0.505076,0.54574 -0.371304,0.11785 -0.505076,0.3821 -0.505076,0.99772 0,0.62502 -0.128098,0.87091 -0.505076,0.96949 -0.382911,0.10013 -0.505077,0.34446 -0.505077,1.01015 0,0.66569 -0.122165,0.91002 -0.505076,1.01016 -0.382911,0.10013 -0.505076,0.34446 -0.505076,1.01015 0,0.66568 -0.122166,0.91002 -0.505076,1.01015 -0.427522,0.1118 -0.505077,0.34446 -0.505077,1.51523 0,1.17076 -0.07755,1.40343 -0.505076,1.51523 -0.386876,0.10117 -0.505076,0.34446 -0.505076,1.0396 0,0.72044 -0.09805,0.90753 -0.475623,0.90753 -0.263236,0 -0.534601,-0.22554 -0.607703,-0.50508 -0.112223,-0.42913 -0.344464,-0.50507 -1.544685,-0.50507 -1.07588,0 -1.53299,-0.12039 -1.91768,-0.50508 -0.47435,-0.47435 -0.84179,-0.50507 -6.04026,-0.50507 -3.04435,0 -5.71494,0.069 -5.93464,0.15328 -0.21971,0.0843 -0.39946,0.31159 -0.39946,0.50508 0,0.25877 -0.37354,0.35179 -1.41261,0.35179 -1.20021,0 -1.43246,0.0759 -1.54468,0.50507 -0.10348,0.3957 -0.34447,0.50508 -1.11278,0.50508 -0.81234,0 -0.9807,0.0867 -0.9807,0.50508 0,0.41137 -0.16836,0.50507 -0.90752,0.50507 -0.69514,0 -0.93844,0.1182 -1.03961,0.50508 -0.10013,0.38291 -0.34447,0.50508 -1.01015,0.50508 -0.66569,0 -0.91002,0.12216 -1.01015,0.50507 -0.0731,0.27954 -0.34447,0.50508 -0.60771,0.50508 -0.30726,0 -0.47562,0.17878 -0.47562,0.50507 0,0.33672 -0.16836,0.50508 -0.50508,0.50508 -0.33671,0 -0.50507,0.16836 -0.50507,0.50508 0,0.33671 -0.16836,0.50507 -0.50508,0.50507 -0.33672,0 -0.50507,0.16836 -0.50507,0.50508 0,0.33672 -0.16836,0.50508 -0.50508,0.50508 -0.33672,0 -0.50508,0.16835 -0.50508,0.50507 0,0.2852 -0.16836,0.50508 -0.38673,0.50508 -0.2127,0 -0.45972,0.19019 -0.54892,0.42265 -0.0892,0.23245 -0.36974,0.6302 -0.62342,0.88388 -0.25368,0.25368 -0.46123,0.73209 -0.46123,1.06313 0,0.3895 -0.17823,0.64849 -0.50508,0.73397 -0.36471,0.0954 -0.50507,0.34446 -0.50507,0.89632 0,0.54244 -0.14659,0.81076 -0.50508,0.92454 -0.27779,0.0882 -0.50508,0.37429 -0.50508,0.63582 0,0.26153 -0.18249,0.57763 -0.40553,0.70245 -0.24988,0.13984 -0.4578,0.70199 -0.54171,1.46464 -0.0749,0.68074 -0.34699,1.50872 -0.60463,1.83997 -0.38307,0.49252 -0.46843,1.05133 -0.46843,3.06657 0,1.95753 -0.0779,2.4942 -0.37881,2.60967 -0.54031,0.20734 -0.54031,3.14555 0,3.35288 0.30013,0.11518 0.37952,0.65116 0.38226,2.5806 0.004,2.75597 0.15402,3.57165 0.65735,3.57165 0.24473,0 0.34935,0.33414 0.34935,1.11576 0,1.35564 0.19223,1.91469 0.65836,1.91469 0.20689,0 0.35179,0.26006 0.35179,0.63135 0,0.34724 0.21572,0.84706 0.47937,1.11071 0.26365,0.26365 0.55678,0.83186 0.65141,1.26269 0.0946,0.43083 0.27947,0.78332 0.41077,0.78332 0.1313,0 0.34674,0.28411 0.47876,0.63135 0.13202,0.34724 0.41331,0.63135 0.62509,0.63135 0.2167,0 0.38506,0.22083 0.38506,0.50507 0,0.33672 0.16836,0.50508 0.50508,0.50508 0.33671,0 0.50507,0.16836 0.50507,0.50507 0,0.33672 0.16836,0.50508 0.50508,0.50508 0.33672,0 0.50508,0.16836 0.50508,0.50508 0,0.33671 0.16835,0.50507 0.50507,0.50507 0.33672,0 0.50508,0.16836 0.50508,0.50508 0,0.33672 0.16836,0.50508 0.50507,0.50508 0.29379,0 0.50508,0.16836 0.50508,0.40245 0,0.22134 0.22728,0.46188 0.50508,0.53453 0.27779,0.0726 0.50507,0.2921 0.50507,0.48768 0,0.19558 0.28411,0.46362 0.63135,0.59564 0.34724,0.13202 0.63134,0.35134 0.63134,0.48738 0,0.13604 0.38988,0.32049 0.86639,0.40988 0.47652,0.0894 0.92341,0.31112 0.99309,0.49271 0.0697,0.18159 0.50209,0.41262 0.96091,0.51339 0.45881,0.10078 0.95638,0.35031 1.1057,0.55453 0.14933,0.20422 0.83281,0.43307 1.51884,0.50858 0.68604,0.0755 1.51836,0.34806 1.8496,0.6057 0.58182,0.45253 2.25935,0.46844 49.400285,0.46844 48.415623,0 48.803047,-0.004 49.440115,-0.50508 z"
         style="fill:#000000;fill-opacity:1;stroke:none;stroke-width:1.08524;stroke-linecap:square;stroke-linejoin:round;paint-order:stroke fill markers" />
    </g>
    <text
       id="text44"
       y="5.2916665"
       x="11.90625"
       style="font-size:4.23333px;line-height:1.25;font-family:Webdings;-inkscape-font-specification:Webdings;letter-spacing:0px;word-spacing:0px;stroke-width:0.264583"
       xml:space="preserve"><tspan
         style="stroke-width:0.264583"
         y="5.2916665"
         x="11.90625"
         id="tspan42"
         sodipodi:role="line" /></text>
  </g>
</svg>
