<?xml version="1.0" encoding="UTF-8" standalone="no"?>
<svg
   xmlns:dc="http://purl.org/dc/elements/1.1/"
   xmlns:cc="http://creativecommons.org/ns#"
   xmlns:rdf="http://www.w3.org/1999/02/22-rdf-syntax-ns#"
   xmlns:svg="http://www.w3.org/2000/svg"
   xmlns="http://www.w3.org/2000/svg"
   xmlns:sodipodi="http://sodipodi.sourceforge.net/DTD/sodipodi-0.dtd"
   xmlns:inkscape="http://www.inkscape.org/namespaces/inkscape"
   width="50"
   height="50"
   viewBox="0 0 13.229166 13.229167"
   version="1.1"
   id="svg8"
   inkscape:version="1.0 (4035a4fb49, 2020-05-01)"
   sodipodi:docname="foggy.svg">
  <defs
     id="defs2" />
  <sodipodi:namedview
     id="base"
     pagecolor="#ffffff"
     bordercolor="#666666"
     borderopacity="1.0"
     inkscape:pageopacity="0.0"
     inkscape:pageshadow="2"
     inkscape:zoom="5.6"
     inkscape:cx="37.92762"
     inkscape:cy="29.984623"
     inkscape:document-units="mm"
     inkscape:current-layer="layer1"
     inkscape:document-rotation="0"
     showgrid="true"
     units="px"
     inkscape:window-width="1920"
     inkscape:window-height="986"
     inkscape:window-x="-11"
     inkscape:window-y="-11"
     inkscape:window-maximized="1">
    <inkscape:grid
       type="xygrid"
       id="grid10" />
  </sodipodi:namedview>
  <metadata
     id="metadata5">
    <rdf:RDF>
      <cc:Work
         rdf:about="">
        <dc:format>image/svg+xml</dc:format>
        <dc:type
           rdf:resource="http://purl.org/dc/dcmitype/StillImage" />
        <dc:title />
      </cc:Work>
    </rdf:RDF>
  </metadata>
  <g
     inkscape:label="Warstwa 1"
     inkscape:groupmode="layer"
     id="layer1">
    <g
       transform="matrix(0.29814652,0,0,0.29814652,-3.2236645,-30.790529)"
       id="g1210">
      <path
         style="fill:#000000;fill-opacity:1;stroke:none;stroke-width:1.08524;stroke-linecap:square;stroke-linejoin:round;paint-order:stroke fill markers"
         d="m 124.70512,522.20392 c -0.26252,-0.31631 -1.05385,-0.38518 -4.42618,-0.38518 -3.89412,0 -4.11333,-0.0261 -4.23858,-0.50508 -0.1121,-0.42865 -0.34447,-0.50507 -1.5358,-0.50507 -1.14526,0 -1.45349,-0.093 -1.67403,-0.50508 -0.21324,-0.39845 -0.52876,-0.50507 -1.49465,-0.50507 -1.01197,0 -1.24727,-0.0876 -1.35644,-0.50508 -0.11222,-0.42914 -0.34446,-0.50508 -1.54468,-0.50508 -1.24424,0 -1.4126,-0.0602 -1.4126,-0.50507 0,-0.40699 -0.16836,-0.50508 -0.86687,-0.50508 -0.64507,0 -0.90788,-0.12923 -1.02717,-0.50508 -0.11785,-0.3713 -0.3821,-0.50507 -0.99772,-0.50507 -0.62502,0 -0.8709,-0.1281 -0.96949,-0.50508 -0.0759,-0.29022 -0.34446,-0.50507 -0.63134,-0.50507 -0.28688,0 -0.55545,-0.21486 -0.63135,-0.50508 -0.0948,-0.36239 -0.34446,-0.50508 -0.88388,-0.50508 -0.53942,0 -0.78912,-0.14268 -0.88388,-0.50507 -0.0726,-0.27779 -0.313187,-0.50508 -0.534535,-0.50508 -0.221347,0 -0.629734,-0.22728 -0.907526,-0.50508 -0.277792,-0.27779 -0.719107,-0.50507 -0.980699,-0.50507 -0.263235,0 -0.5346,-0.22554 -0.607702,-0.50508 -0.07903,-0.30219 -0.344465,-0.50507 -0.660799,-0.50507 -0.294293,0 -0.528719,-0.16289 -0.528719,-0.36737 0,-0.21801 -0.349894,-0.433 -0.86064,-0.52882 -0.548225,-0.10285 -0.906329,-0.33618 -0.98651,-0.64279 -0.09434,-0.36077 -0.35318,-0.48133 -1.033396,-0.48133 -0.739167,0 -0.907526,-0.0937 -0.907526,-0.50508 0,-0.33671 -0.16836,-0.50507 -0.505076,-0.50507 -0.277792,0 -0.732361,-0.22729 -1.010153,-0.50508 -0.382633,-0.38263 -0.841793,-0.50507 -1.894036,-0.50507 -1.073431,0 -1.509201,-0.12025 -1.918259,-0.5293 -0.474224,-0.47423 -0.765406,-0.52021 -2.798429,-0.44195 -1.801963,0.0694 -2.335629,0.17835 -2.592134,0.5293 -0.256094,0.3504 -0.701397,0.44195 -2.149706,0.44195 -1.61432,0 -1.842061,0.0587 -1.958784,0.50507 -0.100134,0.38291 -0.344467,0.50508 -1.010153,0.50508 -0.665688,0 -0.910018,0.12216 -1.010152,0.50507 -0.0847,0.3239 -0.344467,0.50508 -0.724136,0.50508 -0.325627,0 -0.795353,0.20909 -1.043831,0.46465 -0.24848,0.25555 -0.650654,0.53609 -0.893722,0.62341 -0.243068,0.0873 -0.441942,0.33281 -0.441942,0.54551 0,0.21288 -0.217771,0.38674 -0.484421,0.38674 -0.75269,0 -1.283346,0.27222 -1.283346,0.65836 0,0.19348 -0.237923,0.35179 -0.528719,0.35179 -0.316333,0 -0.581775,0.20289 -0.660799,0.50507 -0.09477,0.3624 -0.344466,0.50508 -0.883883,0.50508 -0.539418,0 -0.789116,0.14268 -0.883884,0.50508 -0.08547,0.32685 -0.344466,0.50507 -0.733971,0.50507 -0.331041,0 -0.829176,0.22729 -1.106968,0.50508 -0.277792,0.27779 -0.686179,0.50508 -0.907526,0.50508 -0.221347,0 -0.461886,0.22728 -0.53453,0.50507 -0.119622,0.45743 -0.344466,0.50508 -2.383608,0.50508 -2.081674,0 -2.266864,0.0415 -2.454833,0.54959 l -0.203306,0.54959 -0.143721,-0.54959 c -0.131352,-0.50229 -0.305391,-0.54959 -2.022259,-0.54959 -1.557817,0 -1.956576,-0.0862 -2.335626,-0.50508 -0.251398,-0.27779 -0.696244,-0.50507 -0.988546,-0.50507 -0.292302,0 -0.673399,-0.22729 -0.846883,-0.50508 -0.178317,-0.28553 -0.588926,-0.50508 -0.944631,-0.50508 -0.396666,0 -0.629205,-0.14292 -0.629205,-0.38673 0,-0.2127 -0.198874,-0.4591 -0.441942,-0.54755 -0.488786,-0.17786 -1.830901,-1.56265 -1.830901,-1.88912 0,-0.11388 -0.170463,-0.20705 -0.378807,-0.20705 -0.208344,0 -0.378808,-0.18111 -0.378808,-0.40245 0,-0.22135 -0.227284,-0.46189 -0.505076,-0.53453 -0.357324,-0.0935 -0.505076,-0.34447 -0.505076,-0.85811 0,-0.45252 -0.190268,-0.84484 -0.505076,-1.04144 -0.326952,-0.20418 -0.505077,-0.58893 -0.505077,-1.09094 0,-0.42654 -0.227284,-1.01948 -0.505076,-1.31766 -0.498905,-0.53551 -0.505076,-0.8912 -0.505076,-29.11314 0,-28.35863 0.0038,-28.572 0.505076,-28.7031 0.395694,-0.10347 0.505076,-0.34446 0.505076,-1.11277 0,-0.6699 0.111489,-0.9807 0.351789,-0.9807 0.40717,0 0.658364,-0.53783 0.658364,-1.40962 0,-0.44233 0.139242,-0.61069 0.505076,-0.61069 0.326292,0 0.505076,-0.16836 0.505076,-0.47562 0,-0.26324 0.225538,-0.5346 0.505077,-0.6077 0.277792,-0.0727 0.505076,-0.31319 0.505076,-0.53453 0,-0.22135 0.162805,-0.40245 0.361789,-0.40245 0.198984,0 0.433927,-0.22729 0.522094,-0.50508 0.08817,-0.27779 0.270078,-0.50508 0.404244,-0.50508 0.134166,0 0.624315,-0.38037 1.08922,-0.84528 0.464905,-0.4649 1.029328,-0.91591 1.254273,-1.00222 0.224944,-0.0863 0.40899,-0.31833 0.40899,-0.51558 0,-0.20991 0.366516,-0.42738 0.883884,-0.52444 0.529086,-0.0993 0.883883,-0.31328 0.883883,-0.53318 0,-0.20205 0.21403,-0.36737 0.475623,-0.36737 0.261592,0 0.531031,-0.21188 0.598754,-0.47085 0.07919,-0.30281 0.450228,-0.53223 1.039606,-0.64279 0.554803,-0.10409 0.916475,-0.31691 0.916475,-0.5393 0,-0.20205 0.175215,-0.36736 0.389366,-0.36736 0.214152,0 0.633328,-0.22729 0.931503,-0.50508 0.298174,-0.27779 0.75863,-0.50508 1.023235,-0.50508 0.268715,0 0.539408,-0.22297 0.613181,-0.50507 0.100133,-0.38291 0.344466,-0.50508 1.010152,-0.50508 0.665687,0 0.91002,-0.12216 1.010153,-0.50507 0.100133,-0.38291 0.344466,-0.50508 1.010152,-0.50508 0.665687,0 0.91002,-0.12217 1.010153,-0.50508 0.111799,-0.42752 0.344466,-0.50507 1.515229,-0.50507 1.170762,0 1.403429,-0.0776 1.515228,-0.50508 0.112934,-0.43186 0.344466,-0.50508 1.597201,-0.50508 1.69477,0 2.264044,-0.16554 2.264044,-0.65836 0,-0.26221 0.391874,-0.35179 1.538872,-0.35179 1.326486,0 1.557099,-0.0697 1.670951,-0.50507 0.125297,-0.47914 0.344467,-0.50508 4.267367,-0.50508 3.861785,0 4.156146,-0.0334 4.450709,-0.50508 0.412779,-0.66096 1.356948,-0.66096 1.529795,0 0.124903,0.47763 0.344465,0.50508 4.04061,0.50508 3.696143,0 3.915708,0.0274 4.04061,0.50508 0.11616,0.44419 0.344465,0.50507 1.894036,0.50507 1.549569,0 1.777877,0.0609 1.894036,0.50508 0.112223,0.42914 0.344465,0.50507 1.544683,0.50507 1.244244,0 1.412604,0.0602 1.412604,0.50508 0,0.41837 0.16836,0.50508 0.9807,0.50508 0.76831,0 1.0093,0.10938 1.11278,0.50507 0.10013,0.38291 0.34446,0.50508 1.01015,0.50508 0.66568,0 0.91002,0.12217 1.01015,0.50508 0.10014,0.38291 0.34447,0.50507 1.01015,0.50507 0.66569,0 0.91002,0.12217 1.01016,0.50508 0.0891,0.34076 0.34446,0.50507 0.78493,0.50507 0.37934,0 0.78498,0.2116 0.96827,0.50508 0.17348,0.27779 0.51537,0.50508 0.75975,0.50508 0.24438,0 0.44433,0.1583 0.44433,0.35179 0,0.38301 0.52961,0.65836 1.26633,0.65836 0.25707,0 0.53954,0.22728 0.62771,0.50508 0.0882,0.27779 0.37993,0.50507 0.64836,0.50507 0.26843,0 0.48806,0.15831 0.48806,0.35179 0,0.38613 0.53065,0.65836 1.28334,0.65836 0.26643,0 0.48443,0.17328 0.48443,0.38506 0,0.21178 0.2841,0.49308 0.63134,0.6251 0.34724,0.13202 0.63135,0.34746 0.63135,0.47876 0,0.1313 0.35249,0.31614 0.78332,0.41077 0.43083,0.0946 0.99904,0.38776 1.26269,0.65141 0.26365,0.26365 0.75783,0.47936 1.09816,0.47936 0.34034,0 0.72995,0.19888 0.86579,0.44194 0.21837,0.39073 0.78313,0.45174 4.87292,0.52643 4.40865,0.0805 6.52194,-0.14425 6.52194,-0.69369 0,-0.11557 0.45892,-0.28351 1.01982,-0.3732 0.5609,-0.0897 1.08445,-0.3315 1.16344,-0.53735 0.079,-0.20586 0.34342,-0.37428 0.58762,-0.37428 0.2442,0 0.71503,-0.20794 1.04627,-0.46209 0.33125,-0.25415 0.80114,-0.53469 1.04421,-0.62342 0.24307,-0.0887 0.44194,-0.33536 0.44194,-0.54806 0,-0.21271 0.20586,-0.38674 0.45746,-0.38674 0.2516,0 0.70142,-0.22728 0.99959,-0.50507 0.29818,-0.27779 0.72799,-0.50508 0.95515,-0.50508 0.22715,0 0.47244,-0.22728 0.54509,-0.50507 0.0731,-0.27954 0.34447,-0.50508 0.6077,-0.50508 0.26159,0 0.70291,-0.22728 0.9807,-0.50508 0.27779,-0.27779 0.68618,-0.50507 0.90753,-0.50507 0.22134,0 0.46188,-0.22729 0.53453,-0.50508 0.0855,-0.32685 0.34446,-0.50508 0.73397,-0.50508 0.33104,0 0.80945,-0.20755 1.06312,-0.46123 0.25368,-0.25368 0.65143,-0.53422 0.88389,-0.62342 0.23245,-0.0892 0.42265,-0.33621 0.42265,-0.54892 0,-0.27554 0.26092,-0.38673 0.90752,-0.38673 0.69514,0 0.93844,-0.1182 1.03961,-0.50508 0.10348,-0.39569 0.34447,-0.50507 1.11278,-0.50507 0.64398,0 1.15411,-0.17342 1.48577,-0.50508 0.33321,-0.3332 0.8418,-0.50508 1.49458,-0.50508 1.2338,0 1.78842,-0.20416 1.78842,-0.65836 0,-0.2616 0.38844,-0.35179 1.51523,-0.35179 1.17851,0 1.62746,-0.11224 2.0203,-0.50507 0.46016,-0.46016 0.8418,-0.50508 4.29101,-0.50508 3.46107,0 3.81194,-0.0416 4.08902,-0.48533 0.29898,-0.47874 0.31146,-0.47874 0.92008,0 0.54768,0.43081 1.05191,0.48533 4.48839,0.48533 3.61294,0 3.88945,0.0337 4.14171,0.50508 0.22991,0.42959 0.52877,0.50507 1.99974,0.50507 1.51704,0 1.74565,0.062 1.8615,0.50508 0.11723,0.44826 0.34447,0.50507 2.02031,0.50507 1.67584,0 1.90308,0.0568 2.0203,0.50508 0.11223,0.42914 0.34447,0.50508 1.54469,0.50508 1.24424,0 1.4126,0.0602 1.4126,0.50507 0,0.41138 0.16836,0.50508 0.90753,0.50508 0.69514,0 0.93843,0.1182 1.0396,0.50508 0.0981,0.37504 0.34447,0.50507 0.95706,0.50507 0.61259,0 0.85898,0.13003 0.95705,0.50508 0.079,0.30219 0.34447,0.50507 0.6608,0.50507 0.2908,0 0.52872,0.16144 0.52872,0.35875 0,0.19907 0.36369,0.43862 0.81714,0.53821 0.44943,0.0987 0.93435,0.33976 1.07759,0.53566 0.2805,0.3836 1.09856,0.90131 2.20902,1.39797 0.38196,0.17083 0.69448,0.44849 0.69448,0.61703 0,0.16853 0.2385,0.38212 0.53,0.47464 0.29151,0.0925 0.74608,0.38428 1.01016,0.64836 0.26408,0.26408 0.69417,0.48015 0.95576,0.48015 0.26324,0 0.53461,0.22554 0.60771,0.50507 0.0726,0.2778 0.31318,0.50508 0.53453,0.50508 0.22134,0 0.40245,0.16281 0.40245,0.36179 0,0.19898 0.22728,0.43393 0.50507,0.52209 0.2778,0.0882 0.50508,0.31546 0.50508,0.50508 0,0.18962 0.22728,0.41691 0.50508,0.50508 0.27779,0.0882 0.50507,0.30985 0.50507,0.49264 0,0.18278 0.22729,0.39177 0.50508,0.46441 0.3718,0.0972 0.50507,0.34447 0.50507,0.93698 0,0.59252 0.13328,0.83975 0.50508,0.93698 0.27779,0.0727 0.50508,0.3285 0.50508,0.56856 0,0.24007 0.22728,0.64218 0.50507,0.89357 0.35745,0.32349 0.50508,0.77781 0.50508,1.55437 0,0.92893 0.0775,1.09728 0.50508,1.09728 0.50199,0 0.50507,0.16836 0.50507,27.62348 0,27.41108 -0.004,27.62448 -0.50507,27.75555 -0.4452,0.11642 -0.50508,0.34446 -0.50508,1.92349 0,1.62305 -0.0475,1.79141 -0.50508,1.79141 -0.33671,0 -0.50507,0.16836 -0.50507,0.50507 0,0.2778 -0.22729,0.73236 -0.50508,1.01016 -0.27779,0.27779 -0.50508,0.73236 -0.50508,1.01015 0,0.33672 -0.16836,0.50508 -0.50507,0.50508 -0.33672,0 -0.50508,0.16836 -0.50508,0.50507 0,0.33672 -0.16836,0.50508 -0.50507,0.50508 -0.33672,0 -0.50508,0.16836 -0.50508,0.50507 0,0.33672 -0.16836,0.50508 -0.50508,0.50508 -0.33671,0 -0.50507,0.16836 -0.50507,0.50508 0,0.41137 -0.16836,0.50507 -0.90753,0.50507 -0.69514,0 -0.93844,0.1182 -1.03961,0.50508 -0.0928,0.3548 -0.34446,0.50508 -0.84592,0.50508 -0.41906,0 -0.85489,0.20137 -1.05541,0.48766 -0.36475,0.52076 -1.13217,0.58154 -6.82127,0.54033 -2.28794,-0.0166 -2.46225,-0.0536 -2.46225,-0.52292 0,-0.4209 -0.16836,-0.50507 -1.01015,-0.50507 -0.84179,0 -1.01015,-0.0842 -1.01015,-0.50508 0,-0.4209 -0.16836,-0.50508 -1.01015,-0.50508 -0.8418,0 -1.01016,-0.0842 -1.01016,-0.50507 0,-0.33672 -0.16836,-0.50508 -0.50507,-0.50508 -0.27779,0 -0.50508,-0.15831 -0.50508,-0.35179 0,-0.38302 -0.52961,-0.65836 -1.26633,-0.65836 -0.25707,0 -0.53954,-0.22729 -0.6277,-0.50508 -0.0882,-0.27779 -0.36668,-0.50507 -0.61892,-0.50507 -0.25223,0 -0.51803,-0.22729 -0.59068,-0.50508 -0.0962,-0.36777 -0.34446,-0.50508 -0.91334,-0.50508 -0.53173,0 -0.78125,-0.12298 -0.78125,-0.38505 0,-0.21179 -0.26861,-0.48719 -0.59691,-0.61201 -0.32829,-0.12481 -0.66565,-0.4061 -0.74968,-0.62509 -0.0992,-0.2585 -0.46559,-0.39815 -1.0446,-0.39815 -0.59094,0 -0.89181,-0.11786 -0.89181,-0.34936 0,-0.4473 -0.78405,-0.65301 -2.5055,-0.65735 -0.94572,-0.002 -1.52008,-0.1401 -1.85741,-0.44539 -0.39509,-0.35754 -0.96046,-0.44194 -2.96069,-0.44194 -2.00024,0 -2.56561,0.0844 -2.9607,0.44194 -0.29751,0.26924 -0.89191,0.44195 -1.52109,0.44195 -1.27548,0 -1.83167,0.19991 -1.83167,0.65836 0,0.20688 -0.26006,0.35179 -0.63134,0.35179 -0.34724,0 -0.85863,0.22728 -1.13643,0.50507 -0.27779,0.2778 -0.67553,0.50508 -0.88388,0.50508 -0.21045,0 -0.37881,0.22448 -0.37881,0.50508 0,0.41137 -0.16836,0.50507 -0.90752,0.50507 -0.69514,0 -0.93844,0.1182 -1.03961,0.50508 -0.0731,0.27954 -0.34447,0.50508 -0.6077,0.50508 -0.30726,0 -0.47562,0.17878 -0.47562,0.50507 0,0.41138 -0.16836,0.50508 -0.90753,0.50508 -0.69514,0 -0.93844,0.1182 -1.03961,0.50507 -0.0731,0.27954 -0.34446,0.50508 -0.6077,0.50508 -0.30726,0 -0.47562,0.17879 -0.47562,0.50508 0,0.41137 -0.16836,0.50507 -0.90753,0.50507 -0.69514,0 -0.93843,0.1182 -1.0396,0.50508 -0.0931,0.35594 -0.34447,0.50508 -0.85136,0.50508 -0.46081,0 -0.81641,0.18149 -0.98958,0.50507 -0.17986,0.33606 -0.52877,0.50508 -1.04268,0.50508 -0.55999,0 -0.8087,0.13888 -0.90446,0.50507 -0.10013,0.38292 -0.34446,0.50508 -1.01015,0.50508 -0.66569,0 -0.91002,0.12217 -1.01015,0.50508 -0.10297,0.39376 -0.34447,0.50507 -1.09576,0.50507 -0.74189,0 -1.00058,0.11625 -1.12399,0.50508 -0.13439,0.42342 -0.3821,0.50508 -1.53224,0.50508 -1.20359,0 -1.37195,0.062 -1.37195,0.50507 0,0.44785 -0.16836,0.50508 -1.48577,0.50508 -1.27339,0 -1.50466,0.0722 -1.61786,0.50507 -0.12525,0.47897 -0.34446,0.50508 -4.23958,0.50508 -3.32691,0 -4.18838,0.0732 -4.53312,0.38518 -0.38145,0.34521 -0.45879,0.34521 -0.74528,0 z m 6.91885,-8.61969 c 0.21971,-0.0843 0.39946,-0.31159 0.39946,-0.50507 0,-0.26416 0.40378,-0.35179 1.62085,-0.35179 1.81544,0 2.41976,-0.1564 2.41976,-0.62624 0,-0.20044 0.48675,-0.36642 1.30509,-0.44506 0.7976,-0.0766 1.42217,-0.28553 1.6062,-0.5372 0.16562,-0.22649 0.53499,-0.41181 0.82084,-0.41181 0.78588,0 1.31864,-0.26599 1.31864,-0.65836 0,-0.22101 0.27632,-0.35179 0.74329,-0.35179 0.43917,0 0.87832,-0.19277 1.0733,-0.47115 0.1815,-0.25913 0.69933,-0.55226 1.15074,-0.65141 0.45618,-0.10019 0.82074,-0.3396 0.82074,-0.539 0,-0.19731 0.23792,-0.35874 0.52872,-0.35874 0.31633,0 0.58177,-0.20289 0.6608,-0.50508 0.0731,-0.27954 0.34446,-0.50508 0.6077,-0.50508 0.26159,0 0.70291,-0.22728 0.9807,-0.50507 0.27779,-0.2778 0.68618,-0.50508 0.90752,-0.50508 0.22135,0 0.46189,-0.22728 0.53453,-0.50508 0.0948,-0.36239 0.34447,-0.50507 0.88389,-0.50507 0.53942,0 0.78911,-0.14269 0.88388,-0.50508 0.0853,-0.32621 0.34447,-0.50507 0.73183,-0.50507 0.32987,0 0.74169,-0.22729 0.91518,-0.50508 0.17348,-0.27779 0.55894,-0.50508 0.85657,-0.50508 0.32876,0 0.59298,-0.19823 0.67322,-0.50507 0.0972,-0.37181 0.34447,-0.50508 0.93698,-0.50508 0.59252,0 0.83975,-0.13327 0.93698,-0.50508 0.10348,-0.39569 0.34447,-0.50507 1.11278,-0.50507 0.81234,0 0.9807,-0.0867 0.9807,-0.50508 0,-0.46073 0.16836,-0.50507 1.91768,-0.50507 1.70529,0 1.93231,-0.0559 2.04976,-0.50508 0.12268,-0.46913 0.34447,-0.50508 3.11606,-0.50508 2.7622,0 2.99591,0.0375 3.1443,0.50508 0.14519,0.45746 0.38209,0.50508 2.51294,0.50508 2.14025,0 2.36456,0.0456 2.48472,0.50507 0.10495,0.40131 0.34447,0.50508 1.16588,0.50508 0.71528,0 1.03379,0.10838 1.03379,0.35179 0,0.38613 0.53066,0.65836 1.28335,0.65836 0.26643,0 0.7117,0.22728 0.9895,0.50508 0.27779,0.27779 0.67553,0.50507 0.88388,0.50507 0.20834,0 0.60609,0.22729 0.88388,0.50508 0.27779,0.27779 0.77593,0.50508 1.10697,0.50508 0.38951,0 0.6485,0.17822 0.73397,0.50507 0.10117,0.38688 0.34447,0.50508 1.03961,0.50508 0.73916,0 0.90752,0.0937 0.90752,0.50507 0,0.33672 0.16836,0.50508 0.50508,0.50508 0.27779,0 0.50508,0.15831 0.50508,0.35179 0,0.39034 0.53207,0.65836 1.30699,0.65836 0.29567,0 0.56327,0.21114 0.64014,0.50508 0.0731,0.27954 0.34447,0.50508 0.6077,0.50508 0.26159,0 0.47562,0.1583 0.47562,0.35178 0,0.53755 0.58741,0.65837 3.20103,0.65837 2.18971,0 2.41378,-0.0447 2.53418,-0.50508 0.0995,-0.38068 0.34447,-0.50507 0.99444,-0.50507 0.59013,0 0.91439,-0.13951 1.0272,-0.44195 0.0907,-0.24306 0.3712,-0.59044 0.62342,-0.77193 0.34028,-0.24487 0.45857,-0.66316 0.45857,-1.62161 0,-0.87196 0.1425,-1.44909 0.43859,-1.77626 0.41643,-0.46015 0.41643,-0.50084 0,-0.80534 -0.29061,-0.21249 -0.43859,-0.66351 -0.43859,-1.3367 0,-0.8036 -0.10558,-1.0436 -0.50508,-1.14807 -0.27779,-0.0726 -0.50507,-0.29993 -0.50507,-0.50508 0,-0.20514 -0.22729,-0.43243 -0.50508,-0.50507 -0.27779,-0.0726 -0.50508,-0.31318 -0.50508,-0.53453 0,-0.23409 -0.21129,-0.40245 -0.50507,-0.40245 -0.33672,0 -0.50508,-0.16836 -0.50508,-0.50508 0,-0.33671 -0.16836,-0.50507 -0.50507,-0.50507 -0.33672,0 -0.50508,-0.16836 -0.50508,-0.50508 0,-0.33672 -0.16836,-0.50508 -0.50508,-0.50508 -0.33671,0 -0.50507,-0.16836 -0.50507,-0.50507 0,-0.33672 -0.16836,-0.50508 -0.50508,-0.50508 -0.27779,0 -0.73236,-0.22728 -1.01015,-0.50508 -0.27779,-0.27779 -0.71911,-0.50507 -0.9807,-0.50507 -0.26324,0 -0.5346,-0.22554 -0.6077,-0.50508 -0.10014,-0.38291 -0.34447,-0.50507 -1.01016,-0.50507 -0.66568,0 -0.91002,-0.12217 -1.01015,-0.50508 -0.10117,-0.38688 -0.34446,-0.50508 -1.03961,-0.50508 -0.60735,0 -0.90752,-0.11635 -0.90752,-0.35179 0,-0.40716 -0.53783,-0.65836 -1.40962,-0.65836 -0.35363,0 -0.61069,-0.14808 -0.61069,-0.35179 0,-0.46613 -0.55905,-0.65836 -1.91469,-0.65836 -0.9474,0 -1.11576,-0.0762 -1.11576,-0.50508 0,-0.44784 -0.16836,-0.50507 -1.48578,-0.50507 -1.27339,0 -1.50465,-0.0722 -1.61785,-0.50508 -0.12391,-0.47383 -0.34447,-0.50508 -3.56499,-0.50508 -2.76593,0 -3.43291,-0.0684 -3.43291,-0.35179 0,-0.55549 -0.59511,-0.65836 -3.80873,-0.65836 -2.67308,0 -3.0663,0.0565 -3.51488,0.50508 -0.43418,0.43419 -0.84179,0.50507 -2.90418,0.50507 -2.0624,0 -2.47,0.0709 -2.90419,0.50508 -0.33672,0.33672 -0.8418,0.50508 -1.51523,0.50508 -0.84179,0 -1.01015,0.0842 -1.01015,0.50507 0,0.43762 -0.16836,0.50508 -1.26056,0.50508 -0.98705,0 -1.32898,0.10958 -1.57597,0.50507 -0.19125,0.30624 -0.58893,0.50508 -1.01015,0.50508 -0.42123,0 -0.81891,0.19884 -1.01015,0.50508 -0.17349,0.27779 -0.57124,0.50507 -0.88389,0.50507 -0.31265,0 -0.7104,0.22729 -0.88388,0.50508 -0.17349,0.27779 -0.52602,0.50508 -0.7834,0.50508 -0.25738,0 -0.52741,0.22728 -0.60005,0.50507 -0.0727,0.27779 -0.33682,0.50508 -0.58705,0.50508 -0.72506,0 -1.25389,0.27767 -1.25389,0.65836 0,0.19348 -0.23792,0.35179 -0.52872,0.35179 -0.31633,0 -0.58177,0.20289 -0.6608,0.50508 -0.0931,0.35594 -0.34447,0.50507 -0.85136,0.50507 -0.46081,0 -0.8164,0.18149 -0.98958,0.50508 -0.14867,0.27779 -0.43277,0.50508 -0.63134,0.50508 -0.19857,0 -0.48268,0.22728 -0.63135,0.50507 -0.177,0.33073 -0.52877,0.50508 -1.01904,0.50508 -0.49453,0 -0.74873,0.12759 -0.74873,0.37582 0,0.24318 -0.35652,0.43284 -1.01015,0.53735 -0.55558,0.0888 -1.01015,0.30295 -1.01015,0.47579 0,0.17284 -0.45457,0.38694 -1.01015,0.47578 -0.60389,0.0966 -1.01016,0.2996 -1.01016,0.50482 0,0.22168 -0.4515,0.40318 -1.27455,0.51237 -0.75909,0.10069 -1.33176,0.31812 -1.41598,0.53761 -0.20761,0.541 -11.4516,0.55271 -11.4516,0.0119 0,-0.21805 -0.38479,-0.42162 -0.99037,-0.52393 -0.5447,-0.092 -1.04702,-0.31495 -1.11626,-0.49539 -0.0692,-0.18043 -0.52174,-0.40232 -1.00555,-0.49309 -0.48382,-0.0908 -0.94389,-0.3324 -1.02239,-0.53696 -0.0785,-0.20457 -0.43151,-0.37194 -0.78447,-0.37194 -0.35296,0 -0.83635,-0.22728 -1.0742,-0.50508 -0.24609,-0.2874 -0.74498,-0.50507 -1.1576,-0.50507 -0.51274,0 -0.76382,-0.14793 -0.85721,-0.50508 -0.10348,-0.39569 -0.34447,-0.50507 -1.11278,-0.50507 -0.81234,0 -0.9807,-0.0867 -0.9807,-0.50508 0,-0.32629 -0.16836,-0.50508 -0.47562,-0.50508 -0.26324,0 -0.5346,-0.22553 -0.6077,-0.50507 -0.0972,-0.37181 -0.34447,-0.50508 -0.93698,-0.50508 -0.59252,0 -0.83975,-0.13327 -0.93698,-0.50508 -0.0726,-0.27779 -0.33286,-0.50507 -0.57825,-0.50507 -0.24539,0 -0.50561,-0.22729 -0.57825,-0.50508 -0.0954,-0.36471 -0.34446,-0.50507 -0.89632,-0.50507 -0.54245,0 -0.81076,-0.14659 -0.92454,-0.50508 -0.0882,-0.27779 -0.35468,-0.50508 -0.59224,-0.50508 -0.23757,0 -0.62654,-0.22728 -0.8644,-0.50507 -0.29499,-0.34454 -0.74497,-0.50508 -1.41563,-0.50508 -0.77078,0 -1.011699,-0.10911 -1.115247,-0.50508 -0.100134,-0.38291 -0.344465,-0.50507 -1.010153,-0.50507 -0.665685,0 -0.910018,-0.12217 -1.010152,-0.50508 -0.111799,-0.42752 -0.344465,-0.50507 -1.515229,-0.50507 -1.170762,0 -1.40343,-0.0776 -1.515229,-0.50508 -0.120501,-0.4608 -0.344465,-0.50508 -2.554835,-0.50508 -2.086038,0 -2.49295,-0.0702 -2.927831,-0.50507 -0.451164,-0.45117 -0.841793,-0.50508 -3.659664,-0.50508 -2.881086,0 -3.181932,0.0438 -3.47001,0.50508 -0.289843,0.46411 -0.588927,0.50507 -3.687587,0.50507 -3.159775,0 -3.380478,0.0318 -3.50424,0.50508 -0.111798,0.42752 -0.344467,0.50508 -1.515229,0.50508 -1.170764,0 -1.40343,0.0776 -1.515228,0.50507 -0.111185,0.42517 -0.344467,0.50508 -1.474569,0.50508 -1.120694,0 -1.368972,0.0834 -1.502793,0.50507 -0.118468,0.37327 -0.382099,0.50508 -1.010152,0.50508 -0.628054,0 -0.891684,0.13182 -1.010153,0.50508 -0.118468,0.37326 -0.382099,0.50507 -1.010152,0.50507 -0.628054,0 -0.891685,0.13182 -1.010153,0.50508 -0.11929,0.37585 -0.382099,0.50508 -1.027171,0.50508 -0.698506,0 -0.866865,0.0981 -0.866865,0.50507 0,0.41138 -0.168359,0.50508 -0.907526,0.50508 -0.69514,0 -0.938436,0.1182 -1.039606,0.50507 -0.0731,0.27954 -0.344466,0.50508 -0.607703,0.50508 -0.307264,0 -0.475623,0.17879 -0.475623,0.50508 0,0.36825 -0.168358,0.50507 -0.621507,0.50507 -0.34183,0 -0.824809,0.20909 -1.073287,0.46465 -0.248479,0.25555 -0.650654,0.53609 -0.893721,0.62342 -0.243068,0.0873 -0.441942,0.3328 -0.441942,0.54551 0,0.2127 -0.17403,0.38673 -0.386733,0.38673 -0.212703,0 -0.458183,0.19887 -0.545509,0.44194 -0.08733,0.24307 -0.367865,0.64524 -0.62342,0.89372 -0.255554,0.24848 -0.464643,0.71821 -0.464643,1.04383 0,0.37967 -0.181185,0.63944 -0.505077,0.72414 -0.445195,0.11642 -0.505076,0.34446 -0.505076,1.92349 0,1.45469 0.09494,1.88634 0.505076,2.29648 0.277792,0.2778 0.505077,0.73236 0.505077,1.01016 0,0.33671 0.168359,0.50507 0.505076,0.50507 0.336717,0 0.505076,0.16836 0.505076,0.50508 0,0.3137 0.168359,0.50508 0.444329,0.50508 0.244381,0 0.586271,0.22728 0.759755,0.50507 0.282865,0.45294 0.588926,0.50508 2.964935,0.50508 2.481152,0 2.649511,-0.0321 2.649511,-0.50508 0,-0.41138 0.168359,-0.50507 0.907526,-0.50507 0.69514,0 0.938436,-0.1182 1.039606,-0.50508 0.0731,-0.27954 0.344466,-0.50508 0.607703,-0.50508 0.307264,0 0.475622,-0.17878 0.475622,-0.50507 0,-0.41138 0.168359,-0.50508 0.907527,-0.50508 0.69514,0 0.938436,-0.1182 1.039606,-0.50508 0.0731,-0.27954 0.344466,-0.50507 0.607703,-0.50507 0.261592,0 0.702906,-0.22729 0.980698,-0.50508 0.277792,-0.27779 0.732361,-0.50507 1.010153,-0.50507 0.336717,0 0.505076,-0.16836 0.505076,-0.50508 0,-0.41138 0.16836,-0.50508 0.907526,-0.50508 0.695142,0 0.938437,-0.1182 1.039606,-0.50507 0.100134,-0.38291 0.344467,-0.50508 1.010153,-0.50508 0.665688,0 0.910019,-0.12217 1.010152,-0.50508 0.109761,-0.41972 0.344467,-0.50507 1.38896,-0.50507 1.044495,0 1.279199,-0.0854 1.38896,-0.50508 0.12036,-0.46025 0.344467,-0.50507 2.525381,-0.50507 2.180917,0 2.405022,-0.0448 2.525382,-0.50508 0.123109,-0.47078 0.344467,-0.50508 3.259353,-0.50508 2.958913,0 3.127273,0.0272 3.127273,0.50508 0,0.4468 0.168359,0.50508 1.459105,0.50508 1.146591,0 1.551728,0.10817 1.891563,0.50507 0.294998,0.34453 0.744973,0.50508 1.415631,0.50508 0.770784,0 1.011703,0.1091 1.115251,0.50507 0.101169,0.38688 0.344464,0.50508 1.039606,0.50508 0.739166,0 0.907526,0.0937 0.907526,0.50508 0,0.3137 0.16836,0.50507 0.444328,0.50507 0.244381,0 0.586273,0.22729 0.759756,0.50508 0.196601,0.31481 0.588924,0.50508 1.041445,0.50508 0.513635,0 0.76466,0.14775 0.858102,0.50507 0.07264,0.27779 0.313182,0.50508 0.534529,0.50508 0.221352,0 0.629732,0.22728 0.907522,0.50507 0.2778,0.2778 0.71911,0.50508 0.9807,0.50508 0.26324,0 0.5346,0.22554 0.60771,0.50508 0.10117,0.38687 0.34446,0.50507 1.0396,0.50507 0.73917,0 0.90753,0.0937 0.90753,0.50508 0,0.32629 0.16836,0.50508 0.47562,0.50508 0.26324,0 0.5346,0.22553 0.6077,0.50507 0.10014,0.38291 0.34447,0.50508 1.01016,0.50508 0.66568,0 0.91001,0.12216 1.01015,0.50507 0.0931,0.3562 0.34446,0.50508 0.85259,0.50508 0.44701,0 0.84024,0.19173 1.03593,0.50508 0.21421,0.34299 0.58893,0.50507 1.16772,0.50507 0.6399,0 0.8852,0.12587 0.98437,0.50508 0.11012,0.4211 0.34446,0.50508 1.40953,0.50508 1.01898,0 1.33214,0.10219 1.54775,0.50507 0.21969,0.41049 0.52877,0.50508 1.65039,0.50508 0.78041,0 1.38007,0.11327 1.38007,0.26067 0,0.14338 0.2557,0.36346 0.56821,0.48907 0.62989,0.25319 13.04555,0.35041 13.67954,0.10712 z m -1.01015,-25.00127 c 0.2197,-0.0843 0.39946,-0.31159 0.39946,-0.50508 0,-0.27087 0.45685,-0.35179 1.98625,-0.35179 1.60386,0 2.10986,-0.0972 2.62835,-0.50507 0.35315,-0.2778 1.00415,-0.50508 1.44666,-0.50508 0.5752,0 0.83997,-0.13541 0.92878,-0.47502 0.0949,-0.36292 0.42517,-0.50394 1.3995,-0.59756 0.7749,-0.0745 1.35957,-0.27314 1.49008,-0.50636 0.11814,-0.2111 0.61415,-0.45874 1.10224,-0.5503 0.53189,-0.0998 0.88743,-0.31367 0.88743,-0.53385 0,-0.20449 0.23443,-0.36737 0.52872,-0.36737 0.31634,0 0.58178,-0.20289 0.6608,-0.50507 0.0928,-0.35481 0.34447,-0.50508 0.84592,-0.50508 0.4002,0 0.85883,-0.20148 1.04384,-0.45857 0.18149,-0.25222 0.52886,-0.53276 0.77193,-0.62342 0.24307,-0.0907 0.44194,-0.33888 0.44194,-0.55158 0,-0.26224 0.24645,-0.38673 0.76554,-0.38673 0.46405,0 0.82571,-0.15681 0.91833,-0.39816 0.084,-0.21898 0.42139,-0.50027 0.74968,-0.62509 0.3283,-0.12482 0.59691,-0.40022 0.59691,-0.612 0,-0.26918 0.25713,-0.38506 0.85443,-0.38506 0.64204,0 0.88726,-0.12555 0.98651,-0.50508 0.0891,-0.34076 0.34446,-0.50507 0.78493,-0.50507 0.37935,0 0.78499,-0.2116 0.96827,-0.50508 0.17348,-0.27779 0.50212,-0.50508 0.7303,-0.50508 0.22818,0 0.47431,-0.22728 0.54696,-0.50507 0.10117,-0.38688 0.34446,-0.50508 1.0396,-0.50508 0.57081,0 1.09493,-0.1874 1.4126,-0.50507 0.37017,-0.37016 0.8418,-0.50508 1.76563,-0.50508 0.98705,0 1.32899,-0.10959 1.57598,-0.50508 0.29606,-0.47407 0.58892,-0.50507 4.77091,-0.50507 4.2431,0 4.46178,0.0241 4.58756,0.50507 0.11723,0.44827 0.34447,0.50508 2.02031,0.50508 1.67584,0 1.90308,0.0568 2.0203,0.50508 0.10014,0.38291 0.34447,0.50507 1.01016,0.50507 0.66568,0 0.91002,0.12217 1.01015,0.50508 0.10013,0.38291 0.34446,0.50507 1.01015,0.50507 0.66569,0 0.91002,0.12217 1.01015,0.50508 0.10117,0.38688 0.34447,0.50508 1.03961,0.50508 0.73917,0 0.90753,0.0937 0.90753,0.50507 0,0.4209 0.16836,0.50508 1.01015,0.50508 0.84179,0 1.01015,0.0842 1.01015,0.50508 0,0.33671 0.16836,0.50507 0.50508,0.50507 0.27779,0 0.50507,0.15831 0.50507,0.35179 0,0.40717 0.53783,0.65837 1.40962,0.65837 0.44233,0 0.61069,0.13924 0.61069,0.50507 0,0.33672 0.16836,0.50508 0.50508,0.50508 0.27779,0 0.50507,0.1583 0.50507,0.35179 0,0.38451 0.53011,0.65836 1.27446,0.65836 0.26155,0 0.59718,0.22728 0.74585,0.50508 0.23553,0.4401 0.52877,0.50507 2.27959,0.50507 1.73578,0 2.05221,-0.0687 2.3247,-0.50507 0.17348,-0.2778 0.56408,-0.50508 0.86799,-0.50508 0.56064,0 1.34625,-0.60001 1.34625,-1.02819 0,-0.12897 0.15721,-0.2345 0.34935,-0.2345 0.40855,0 0.6525,-0.76317 0.65735,-2.05642 0.002,-0.58235 0.14247,-0.97335 0.38226,-1.06536 0.20834,-0.0799 0.3788,-0.36406 0.3788,-0.63135 0,-0.26729 -0.17046,-0.55139 -0.3788,-0.63134 -0.24857,-0.0954 -0.37881,-0.48956 -0.37881,-1.14643 0,-0.77926 -0.11191,-1.03657 -0.50508,-1.16136 -0.27779,-0.0882 -0.50507,-0.37064 -0.50507,-0.62771 0,-0.72618 -0.27357,-1.26633 -0.64135,-1.26633 -0.18412,0 -0.40691,-0.22728 -0.49507,-0.50507 -0.0882,-0.2778 -0.31912,-0.50508 -0.51321,-0.50508 -0.1941,0 -0.47455,-0.22728 -0.62322,-0.50508 -0.14867,-0.27779 -0.43677,-0.50507 -0.64023,-0.50507 -0.20345,0 -0.36992,-0.15831 -0.36992,-0.35179 0,-0.38614 -0.53065,-0.65836 -1.28334,-0.65836 -0.31607,0 -0.48443,-0.17554 -0.48443,-0.50508 0,-0.33672 -0.16836,-0.50508 -0.50507,-0.50508 -0.27779,0 -0.73236,-0.22728 -1.01015,-0.50507 -0.2778,-0.2778 -0.73237,-0.50508 -1.01016,-0.50508 -0.27779,0 -0.73236,-0.22728 -1.01015,-0.50508 -0.33672,-0.33671 -0.84179,-0.50507 -1.51523,-0.50507 -0.84179,0 -1.01015,-0.0842 -1.01015,-0.50508 0,-0.4209 -0.16836,-0.50507 -1.01015,-0.50507 -0.8418,0 -1.01016,-0.0842 -1.01016,-0.50508 0,-0.41134 -0.16836,-0.50508 -0.90718,-0.50508 -0.5248,0 -1.17784,-0.21289 -1.54929,-0.50507 -0.45968,-0.36159 -1.02449,-0.50508 -1.98811,-0.50508 -1.08756,0 -1.39793,-0.097 -1.61633,-0.50508 -0.23325,-0.43582 -0.52877,-0.50507 -2.15546,-0.50507 -1.44298,0 -1.88515,-0.0825 -1.88515,-0.35179 0,-0.19349 -0.17976,-0.42077 -0.39946,-0.50508 -0.52117,-0.19999 -12.31697,-0.19999 -12.83814,0 -0.2197,0.0843 -0.39946,0.31159 -0.39946,0.50508 0,0.2616 -0.38844,0.35179 -1.51523,0.35179 -1.17851,0 -1.62747,0.11224 -2.0203,0.50507 -0.33672,0.33672 -0.8418,0.50508 -1.51523,0.50508 -0.8418,0 -1.01016,0.0842 -1.01016,0.50508 0,0.42089 -0.16836,0.50507 -1.01015,0.50507 -0.67343,0 -1.17851,0.16836 -1.51523,0.50508 -0.27779,0.27779 -0.73347,0.50508 -1.01262,0.50508 -0.27915,0 -0.70216,0.22728 -0.94001,0.50507 -0.23785,0.27779 -0.64513,0.50508 -0.90505,0.50508 -0.26021,0 -0.53196,0.22698 -0.60468,0.50507 -0.0948,0.3624 -0.34447,0.50508 -0.88388,0.50508 -0.53942,0 -0.78912,0.14268 -0.88389,0.50508 -0.0759,0.29022 -0.34446,0.50507 -0.63134,0.50507 -0.28688,0 -0.55545,0.21486 -0.63135,0.50508 -0.0734,0.2807 -0.34446,0.50508 -0.61017,0.50508 -0.26295,0 -0.6727,0.22728 -0.91056,0.50507 -0.23785,0.27779 -0.62123,0.50508 -0.85195,0.50508 -0.23073,0 -0.47894,0.22728 -0.55158,0.50507 -0.0958,0.36619 -0.34447,0.50508 -0.90445,0.50508 -0.51391,0 -0.86283,0.16902 -1.04268,0.50508 -0.15054,0.28128 -0.52877,0.50507 -0.85363,0.50507 -0.32083,0 -0.78901,0.22729 -1.04041,0.50508 -0.2514,0.27779 -0.70966,0.50508 -1.01837,0.50508 -0.30871,0 -0.6935,0.15931 -0.8551,0.35403 -0.1616,0.19471 -0.60168,0.43085 -0.97794,0.52475 -0.37627,0.0939 -0.85459,0.31843 -1.06293,0.49896 -0.20834,0.18053 -0.90931,0.40453 -1.55771,0.49778 -0.6484,0.0932 -1.31576,0.33443 -1.48302,0.53596 -0.24458,0.2947 -1.17014,0.36643 -4.7279,0.36643 -3.79833,0 -4.46636,-0.0582 -4.72491,-0.4118 -0.18403,-0.25167 -0.8086,-0.46057 -1.6062,-0.53721 -0.87103,-0.0837 -1.30509,-0.23971 -1.30509,-0.46909 0,-0.2057 -0.40559,-0.40855 -1.01015,-0.50522 -0.5703,-0.0912 -1.01015,-0.30276 -1.01015,-0.48587 0,-0.18158 -0.4446,-0.39944 -1.01015,-0.49499 -0.62104,-0.10493 -1.01016,-0.30803 -1.01016,-0.52728 0,-0.20881 -0.25311,-0.35661 -0.61069,-0.35661 -0.87178,0 -1.40961,-0.25119 -1.40961,-0.65836 0,-0.19348 -0.22329,-0.35179 -0.49619,-0.35179 -0.27291,0 -0.61783,-0.22728 -0.7665,-0.50508 -0.177,-0.33072 -0.52877,-0.50507 -1.01904,-0.50507 -0.58037,0 -0.74873,-0.11357 -0.74873,-0.50508 0,-0.32629 -0.16836,-0.50507 -0.47562,-0.50507 -0.26324,0 -0.5346,-0.22554 -0.60771,-0.50508 -0.0887,-0.33905 -0.34446,-0.50508 -0.77818,-0.50508 -0.38764,0 -0.75423,-0.20204 -0.91641,-0.50507 -0.14867,-0.2778 -0.49359,-0.50508 -0.7665,-0.50508 -0.32783,0 -0.49619,-0.17137 -0.49619,-0.50508 0,-0.40698 -0.16836,-0.50507 -0.86686,-0.50507 -0.64508,0 -0.90789,-0.12923 -1.02718,-0.50508 -0.11784,-0.3713 -0.38209,-0.50507 -0.99771,-0.50507 -0.62503,0 -0.87091,-0.1281 -0.96949,-0.50508 -0.10058,-0.38462 -0.344469,-0.50508 -1.022592,-0.50508 -0.668716,0 -0.930434,-0.12579 -1.050814,-0.50507 -0.13382,-0.42164 -0.382098,-0.50508 -1.502794,-0.50508 -1.1301,0 -1.363382,-0.0799 -1.474567,-0.50508 -0.112223,-0.42913 -0.344465,-0.50507 -1.544683,-0.50507 -1.075885,0 -1.532995,-0.12039 -1.917678,-0.50508 -0.476921,-0.47692 -0.841793,-0.50507 -6.545337,-0.50507 -3.322144,0 -6.220019,0.069 -6.439722,0.15328 -0.219706,0.0843 -0.399463,0.31159 -0.399463,0.50508 0,0.26981 -0.446894,0.35179 -1.917678,0.35179 -1.705294,0 -1.932306,0.0559 -2.049759,0.50507 -0.115859,0.44305 -0.344467,0.50508 -1.861509,0.50508 -1.470966,0 -1.769825,0.0755 -1.999736,0.50508 -0.200704,0.37502 -0.52877,0.50507 -1.274047,0.50507 -0.691227,0 -1.138385,0.15726 -1.436199,0.50508 -0.237853,0.27779 -0.682015,0.50508 -0.987026,0.50508 -0.81873,0 -1.35349,0.26011 -1.35349,0.65836 0,0.23543 -0.300174,0.35179 -0.907526,0.35179 -0.695141,0 -0.938437,0.1182 -1.039607,0.50507 -0.100133,0.38291 -0.344466,0.50508 -1.010152,0.50508 -0.665687,0 -0.91002,0.12217 -1.010153,0.50508 -0.07264,0.27779 -0.338452,0.50507 -0.590685,0.50507 -0.252232,0 -0.530742,0.22729 -0.618909,0.50508 -0.113782,0.35849 -0.382099,0.50508 -0.924544,0.50508 -0.551853,0 -0.800945,0.14036 -0.896319,0.50507 -0.0731,0.27954 -0.344467,0.50508 -0.607703,0.50508 -0.307264,0 -0.475623,0.17878 -0.475623,0.50507 0,0.33672 -0.168359,0.50508 -0.505076,0.50508 -0.336717,0 -0.505076,0.16836 -0.505076,0.50508 0,0.33671 -0.168359,0.50507 -0.505076,0.50507 -0.326292,0 -0.505077,0.16836 -0.505077,0.47563 0,0.26323 -0.225538,0.5346 -0.505076,0.6077 -0.371804,0.0972 -0.505076,0.34446 -0.505076,0.93698 0,0.59251 -0.133273,0.83975 -0.505077,0.93698 -0.444194,0.11616 -0.505076,0.34446 -0.505076,1.89403 0,1.54958 0.06088,1.77788 0.505076,1.89404 0.38291,0.10013 0.505077,0.34447 0.505077,1.01015 0,0.6515 0.124301,0.91058 0.481728,1.00405 0.26495,0.0693 0.538416,0.34275 0.607703,0.6077 0.09347,0.35743 0.352546,0.48173 1.004046,0.48173 0.665687,0 0.91002,0.12217 1.010153,0.50508 0.117293,0.44853 0.344466,0.50507 2.029104,0.50507 2.087678,0 2.695948,-0.1422 2.695948,-0.63026 0,-0.17802 0.397747,-0.3983 0.883883,-0.4895 0.486136,-0.0912 0.883884,-0.27712 0.883884,-0.41316 0,-0.13604 0.284105,-0.35536 0.631345,-0.48738 0.34724,-0.13202 0.631345,-0.41332 0.631345,-0.6251 0,-0.2167 0.220835,-0.38505 0.505077,-0.38505 0.336717,0 0.505076,-0.16836 0.505076,-0.50508 0,-0.41138 0.168359,-0.50508 0.907526,-0.50508 0.69514,0 0.938436,-0.1182 1.039606,-0.50507 0.09344,-0.35733 0.344466,-0.50508 0.858101,-0.50508 0.45252,0 0.844845,-0.19027 1.041446,-0.50508 0.195691,-0.31335 0.588926,-0.50507 1.035936,-0.50507 0.508125,0 0.759443,-0.14888 0.852589,-0.50508 0.100134,-0.38291 0.344467,-0.50508 1.010153,-0.50508 0.665688,0 0.910018,-0.12216 1.010152,-0.50507 0.102591,-0.39231 0.344467,-0.50508 1.083326,-0.50508 0.738858,0 0.980734,-0.11277 1.083325,-0.50507 0.116625,-0.44598 0.344465,-0.50508 1.947132,-0.50508 1.602668,0 1.830508,-0.0591 1.947132,-0.50508 0.12604,-0.48197 0.344468,-0.50507 4.774582,-0.50507 4.474143,0 4.642502,0.0183 4.642502,0.50507 0,0.44785 0.16836,0.50508 1.485776,0.50508 1.273388,0 1.504655,0.0722 1.617855,0.50508 0.101169,0.38687 0.344464,0.50507 1.039606,0.50507 0.607352,0 0.907526,0.11636 0.907526,0.35179 0,0.3807 0.528835,0.65836 1.253892,0.65836 0.250233,0 0.514403,0.22729 0.587048,0.50508 0.101169,0.38688 0.344464,0.50508 1.039606,0.50508 0.739167,0 0.907526,0.0937 0.907526,0.50507 0,0.33371 0.16836,0.50508 0.496192,0.50508 0.272905,0 0.61783,0.22728 0.766499,0.50508 0.173178,0.32358 0.528769,0.50507 0.989586,0.50507 0.50689,0 0.75827,0.14914 0.85135,0.50508 0.0726,0.27779 0.31319,0.50508 0.53453,0.50508 0.22135,0 0.62974,0.22728 0.90753,0.50507 0.27779,0.27779 0.71911,0.50508 0.9807,0.50508 0.26323,0 0.5346,0.22553 0.6077,0.50507 0.0727,0.2778 0.30102,0.50508 0.50751,0.50508 0.20649,0 0.43844,0.16419 0.51545,0.36487 0.077,0.20068 0.54373,0.44062 1.03717,0.53319 0.49344,0.0926 0.89716,0.31396 0.89716,0.49199 0,0.38133 0.55673,0.63026 1.40961,0.63026 0.35363,0 0.61069,0.14807 0.61069,0.35178 0,0.40717 0.53783,0.65837 1.40962,0.65837 0.35159,0 0.61069,0.14822 0.61069,0.34935 0,0.4113 0.76463,0.65255 2.08344,0.65735 0.63628,0.002 0.94701,0.11808 0.94701,0.3528 0,0.45213 0.7867,0.65307 2.57361,0.65736 0.79046,0.002 1.51235,0.12505 1.60421,0.27368 0.0919,0.14863 0.41108,0.36871 0.70939,0.48907 0.61264,0.24719 10.76415,0.33421 11.38085,0.0976 z m -1.75678,-25.42341 c 0.21499,-0.29402 0.92928,-0.40653 3.00502,-0.47335 2.27307,-0.0732 2.7638,-0.16067 2.96996,-0.52959 0.17024,-0.30464 0.55692,-0.44194 1.24457,-0.44194 0.66089,0 1.16808,-0.17048 1.50268,-0.50508 0.27996,-0.27996 0.8418,-0.50508 1.26055,-0.50508 0.48198,0 0.86967,-0.18285 1.0709,-0.50507 0.18903,-0.30269 0.58893,-0.50508 0.99797,-0.50508 0.3754,0 0.83105,-0.20636 1.01255,-0.45857 0.18149,-0.25222 0.52886,-0.53276 0.77193,-0.62342 0.24307,-0.0907 0.44194,-0.33888 0.44194,-0.55158 0,-0.27554 0.26093,-0.38674 0.90753,-0.38674 0.69514,0 0.93843,-0.1182 1.0396,-0.50507 0.0726,-0.27779 0.33682,-0.50508 0.58705,-0.50508 0.72506,0 1.25389,-0.27767 1.25389,-0.65836 0,-0.19348 0.23793,-0.35179 0.52872,-0.35179 0.31634,0 0.58178,-0.20289 0.6608,-0.50508 0.0931,-0.35594 0.34447,-0.50507 0.85136,-0.50507 0.46081,0 0.8164,-0.18149 0.98958,-0.50508 0.14867,-0.27779 0.49359,-0.50508 0.7665,-0.50508 0.2729,0 0.72348,-0.22728 1.00127,-0.50507 0.27779,-0.27779 0.66788,-0.50508 0.86686,-0.50508 0.19899,0 0.43393,-0.22728 0.5221,-0.50507 0.11378,-0.3585 0.3821,-0.50508 0.92454,-0.50508 0.55186,0 0.80095,-0.14036 0.89632,-0.50508 0.10013,-0.38291 0.34447,-0.50507 1.01015,-0.50507 0.66569,0 0.91002,-0.12217 1.01016,-0.50508 0.10929,-0.41794 0.34446,-0.50508 1.36317,-0.50508 0.9576,0 1.30117,-0.1122 1.54652,-0.50507 0.29965,-0.4798 0.58893,-0.50508 5.78107,-0.50508 5.25325,0 5.47077,0.0196 5.59772,0.50508 0.11209,0.42866 0.34446,0.50507 1.53579,0.50507 1.14526,0 1.45349,0.093 1.67403,0.50508 0.177,0.33072 0.52877,0.50508 1.01904,0.50508 0.41201,0 0.97587,0.22714 1.2538,0.50507 0.27779,0.2778 0.73593,0.50508 1.01808,0.50508 0.28215,0 0.57575,0.16352 0.65244,0.36338 0.0767,0.19985 0.49928,0.4424 0.93908,0.539 0.43981,0.0966 0.94815,0.38765 1.12965,0.64678 0.18974,0.27088 0.63342,0.47114 1.04384,0.47114 0.50146,0 0.75314,0.15028 0.84592,0.50508 0.10117,0.38688 0.34447,0.50508 1.03961,0.50508 0.73917,0 0.90753,0.0937 0.90753,0.50507 0,0.33672 0.16836,0.50508 0.50507,0.50508 0.33672,0 0.50508,0.16836 0.50508,0.50508 0,0.31567 0.16836,0.50507 0.44895,0.50507 0.24693,0 0.64356,0.22729 0.88141,0.50508 0.23786,0.27779 0.71768,0.50507 1.06628,0.50507 0.3486,0 0.8611,0.22729 1.13889,0.50508 0.7084,0.7084 2.64667,0.7084 3.08907,0 0.21354,-0.34194 0.58892,-0.50508 1.1622,-0.50508 0.6344,0 0.87991,-0.12668 0.97886,-0.50507 0.0731,-0.27954 0.34447,-0.50508 0.6077,-0.50508 0.30727,0 0.47563,-0.17878 0.47563,-0.50507 0,-0.33672 0.16836,-0.50508 0.50507,-0.50508 0.42436,0 0.50508,-0.16836 0.50508,-1.0534 0,-0.64578 0.16972,-1.24094 0.43859,-1.53804 0.41643,-0.46015 0.41643,-0.50084 0,-0.80534 -0.30733,-0.22472 -0.43859,-0.67138 -0.43859,-1.49242 0,-0.79787 -0.14716,-1.31887 -0.46123,-1.63295 -0.25368,-0.25368 -0.53422,-0.65142 -0.62342,-0.88388 -0.0892,-0.23246 -0.33622,-0.42265 -0.54892,-0.42265 -0.21271,0 -0.38674,-0.1811 -0.38674,-0.40245 0,-0.22135 -0.22728,-0.46189 -0.50507,-0.53453 -0.27779,-0.0726 -0.50508,-0.2921 -0.50508,-0.48769 0,-0.19558 -0.26861,-0.45772 -0.5969,-0.58254 -0.3283,-0.12482 -0.66566,-0.40611 -0.74969,-0.6251 -0.0926,-0.24135 -0.45428,-0.39815 -0.91833,-0.39815 -0.59718,0 -0.76554,-0.11108 -0.76554,-0.50508 0,-0.3137 -0.16836,-0.50507 -0.44432,-0.50507 -0.24439,0 -0.58628,-0.22729 -0.75976,-0.50508 -0.1966,-0.31481 -0.58892,-0.50508 -1.04144,-0.50508 -0.51364,0 -0.76466,-0.14775 -0.85811,-0.50507 -0.10117,-0.38688 -0.34446,-0.50508 -1.0396,-0.50508 -0.73917,0 -0.90753,-0.0937 -0.90753,-0.50507 0,-0.4209 -0.16836,-0.50508 -1.01015,-0.50508 -0.84179,0 -1.01015,-0.0842 -1.01015,-0.50508 0,-0.42089 -0.16836,-0.50507 -1.01016,-0.50507 -0.67343,0 -1.17851,-0.16836 -1.51523,-0.50508 -0.31266,-0.31267 -0.84179,-0.50508 -1.38895,-0.50508 -0.54717,0 -1.0763,-0.19241 -1.38896,-0.50507 -0.38815,-0.38815 -0.8418,-0.50508 -1.95956,-0.50508 -1.18098,0 -1.5138,-0.095 -1.76991,-0.50507 -0.3044,-0.48743 -0.58892,-0.50508 -8.14197,-0.50508 -7.48982,0 -7.84827,0.0217 -8.33162,0.50508 -0.37286,0.37286 -0.84179,0.50507 -1.7914,0.50507 -1.07395,0 -1.30814,0.0834 -1.41842,0.50508 -0.10679,0.40839 -0.34447,0.50507 -1.24152,0.50507 -0.79693,0 -1.23126,0.14228 -1.5419,0.50508 -0.26576,0.31039 -0.74497,0.50508 -1.2432,0.50508 -0.58895,0 -0.85459,0.13817 -0.97104,0.50507 -0.11216,0.35338 -0.3821,0.50508 -0.89877,0.50508 -0.46495,0 -0.85528,0.18706 -1.05388,0.50508 -0.17348,0.27779 -0.51648,0.50507 -0.76222,0.50507 -0.24575,0 -0.64141,0.22729 -0.87926,0.50508 -0.23786,0.27779 -0.64513,0.50507 -0.90506,0.50507 -0.26021,0 -0.53195,0.22699 -0.60467,0.50508 -0.0731,0.27954 -0.34447,0.50508 -0.60771,0.50508 -0.30726,0 -0.47562,0.17878 -0.47562,0.50507 0,0.40888 -0.16836,0.50508 -0.88388,0.50508 -0.6237,0 -0.88389,0.11335 -0.88389,0.38506 0,0.21178 -0.2841,0.49307 -0.63134,0.62509 -0.34724,0.13202 -0.63135,0.41332 -0.63135,0.6251 0,0.26629 -0.25388,0.38506 -0.82313,0.38506 -0.54964,0 -0.92794,0.16782 -1.13857,0.50507 -0.20123,0.32223 -0.58892,0.50508 -1.07089,0.50508 -0.48228,0 -0.75548,0.12896 -0.75548,0.35661 0,0.21924 -0.38911,0.42235 -1.01015,0.52727 -0.56556,0.0956 -1.01015,0.31341 -1.01015,0.495 0,0.18311 -0.43986,0.39467 -1.01016,0.48586 -0.60153,0.0962 -1.01015,0.29983 -1.01015,0.50342 0,0.24368 -0.52048,0.37913 -1.81194,0.47154 -1.26578,0.0906 -1.90218,0.25303 -2.11128,0.539 -0.42415,0.58006 -6.10205,0.60734 -6.52927,0.0314 -0.17123,-0.23085 -0.91937,-0.44217 -1.92188,-0.54286 -0.90282,-0.0907 -1.72513,-0.30538 -1.82735,-0.47712 -0.10221,-0.17173 -0.57422,-0.3851 -1.0489,-0.47415 -0.47468,-0.0891 -0.92728,-0.32929 -1.00578,-0.53385 -0.0785,-0.20457 -0.43151,-0.37194 -0.78447,-0.37194 -0.35296,0 -0.83635,-0.22728 -1.0742,-0.50508 -0.24608,-0.2874 -0.74497,-0.50507 -1.15759,-0.50507 -0.51275,0 -0.76382,-0.14794 -0.85722,-0.50508 -0.10347,-0.39569 -0.34446,-0.50507 -1.11278,-0.50507 -0.81233,0 -0.98069,-0.0867 -0.98069,-0.50508 0,-0.31567 -0.16836,-0.50508 -0.44896,-0.50508 -0.24692,0 -0.64355,-0.22728 -0.88141,-0.50507 -0.23785,-0.2778 -0.71768,-0.50508 -1.06627,-0.50508 -0.46546,0 -0.63382,-0.13416 -0.63382,-0.50508 0,-0.33671 -0.16836,-0.50507 -0.50508,-0.50507 -0.27779,0 -0.50507,-0.15831 -0.50507,-0.35179 0,-0.38302 -0.52962,-0.65837 -1.26633,-0.65837 -0.25707,0 -0.53954,-0.22728 -0.62771,-0.50507 -0.11785,-0.3713 -0.3821,-0.50508 -0.99772,-0.50508 -0.62502,0 -0.87091,-0.1281 -0.96949,-0.50507 -0.0726,-0.2778 -0.31318,-0.50508 -0.53453,-0.50508 -0.22135,0 -0.62973,-0.22728 -0.90753,-0.50508 -0.33166,-0.33166 -0.841788,-0.50507 -1.485771,-0.50507 -0.768312,0 -1.009301,-0.10938 -1.112779,-0.50508 -0.104945,-0.40131 -0.344464,-0.50508 -1.165875,-0.50508 -0.715281,0 -1.033795,-0.10838 -1.033795,-0.35178 0,-0.49283 -0.569274,-0.65837 -2.264045,-0.65837 -1.252733,0 -1.484265,-0.0732 -1.5972,-0.50507 -0.128209,-0.49027 -0.344465,-0.50508 -7.376702,-0.50508 -7.032238,0 -7.248494,0.0148 -7.376702,0.50508 -0.117223,0.44826 -0.344467,0.50507 -2.020305,0.50507 -1.675841,0 -1.903082,0.0568 -2.020305,0.50508 -0.113201,0.43288 -0.344467,0.50507 -1.617856,0.50507 -1.149058,0 -1.60024,0.11447 -1.990851,0.50508 -0.308889,0.30889 -0.841794,0.50508 -1.371942,0.50508 -0.645072,0 -0.90788,0.12922 -1.02717,0.50507 -0.118469,0.37326 -0.382099,0.50508 -1.010153,0.50508 -0.628054,0 -0.891684,0.13181 -1.010152,0.50508 -0.118469,0.37326 -0.382099,0.50507 -1.010153,0.50507 -0.628054,0 -0.891684,0.13182 -1.010153,0.50508 -0.119289,0.37585 -0.382098,0.50507 -1.02717,0.50507 -0.698507,0 -0.866866,0.0981 -0.866866,0.50508 0,0.41138 -0.168358,0.50508 -0.907526,0.50508 -0.69514,0 -0.938436,0.1182 -1.039606,0.50507 -0.0731,0.27954 -0.344466,0.50508 -0.607703,0.50508 -0.307263,0 -0.475622,0.17878 -0.475622,0.50508 0,0.33671 -0.168359,0.50507 -0.505076,0.50507 -0.336718,0 -0.505077,0.16836 -0.505077,0.50508 0,0.33672 -0.168359,0.50508 -0.505076,0.50508 -0.293785,0 -0.505076,0.16835 -0.505076,0.40244 0,0.22135 -0.227285,0.46189 -0.505076,0.53453 -0.277792,0.0727 -0.505077,0.29993 -0.505077,0.50508 0,0.20515 -0.227284,0.43243 -0.505076,0.50508 -0.277792,0.0726 -0.505076,0.33285 -0.505076,0.57825 0,0.24539 -0.227285,0.5056 -0.505077,0.57825 -0.45618,0.11929 -0.505076,0.34446 -0.505076,2.32593 0,1.98148 0.0489,2.20665 0.505076,2.32594 0.37953,0.0992 0.505077,0.34447 0.505077,0.98651 0,0.46994 0.113642,0.85443 0.252538,0.85443 0.138896,0 0.498278,0.24574 0.798626,0.54609 0.354456,0.35446 0.967216,0.58656 1.746172,0.6614 0.904029,0.0869 1.23073,0.2325 1.324306,0.59034 0.20368,0.77887 2.696887,0.60937 2.696887,-0.18335 0,-0.24206 0.31508,-0.35179 1.010153,-0.35179 0.841794,0 1.010152,-0.0842 1.010152,-0.50507 0,-0.36584 0.168359,-0.50508 0.610691,-0.50508 0.871788,0 1.409614,-0.25119 1.409614,-0.65836 0,-0.19348 0.181103,-0.35179 0.40245,-0.35179 0.221347,0 0.461886,-0.22728 0.53453,-0.50508 0.09344,-0.35732 0.344466,-0.50507 0.858101,-0.50507 0.45252,0 0.844845,-0.19027 1.041446,-0.50508 0.173484,-0.27779 0.515374,-0.50508 0.759755,-0.50508 0.27597,0 0.444329,-0.19137 0.444329,-0.50507 0,-0.41138 0.168358,-0.50508 0.907526,-0.50508 0.695141,0 0.938436,-0.1182 1.039606,-0.50507 0.100134,-0.38291 0.344467,-0.50508 1.010152,-0.50508 0.665688,0 0.910019,-0.12217 1.010153,-0.50508 0.100134,-0.38291 0.344467,-0.50507 1.010152,-0.50507 0.665688,0 0.910019,-0.12217 1.010153,-0.50508 0.11616,-0.44419 0.344467,-0.50508 1.894036,-0.50508 1.549571,0 1.777876,-0.0609 1.894036,-0.50507 0.127118,-0.4861 0.344467,-0.50508 5.784734,-0.50508 5.484295,0 5.652655,0.0151 5.652655,0.50508 0,0.44253 0.16836,0.50507 1.359506,0.50507 1.147119,0 1.380139,0.0789 1.491586,0.50508 0.100134,0.38291 0.344465,0.50508 1.010153,0.50508 0.665685,0 0.910019,0.12216 1.010152,0.50507 0.07265,0.2778 0.313183,0.50508 0.53453,0.50508 0.221347,0 0.629734,0.22728 0.907526,0.50508 0.277792,0.27779 0.724704,0.50507 0.993134,0.50507 0.268433,0 0.560196,0.22729 0.648364,0.50508 0.117847,0.3713 0.382098,0.50507 0.997718,0.50507 0.625024,0 0.87091,0.1281 0.96949,0.50508 0.079,0.30219 0.34447,0.50508 0.6608,0.50508 0.29429,0 0.52872,0.16288 0.52872,0.36736 0,0.21801 0.34989,0.43301 0.86064,0.52882 0.54822,0.10285 0.90633,0.33618 0.98651,0.64279 0.0943,0.36077 0.35318,0.48133 1.03339,0.48133 0.73917,0 0.90753,0.0937 0.90753,0.50508 0,0.2806 0.16836,0.50507 0.37881,0.50507 0.20834,0 0.60609,0.22729 0.88388,0.50508 0.27779,0.27779 0.77593,0.50508 1.10697,0.50508 0.3895,0 0.6485,0.17822 0.73397,0.50507 0.10014,0.38291 0.34447,0.50508 1.01015,0.50508 0.66569,0 0.91002,0.12217 1.01016,0.50508 0.10117,0.38687 0.34446,0.50507 1.0396,0.50507 0.60433,0 0.90753,0.11672 0.90753,0.34936 0,0.41129 0.76463,0.65254 2.08344,0.65735 0.63946,0.002 0.94702,0.11769 0.94702,0.35523 0,0.52584 0.58252,0.65837 2.89392,0.65837 1.51814,0 2.17834,0.10042 2.39768,0.36471 0.40226,0.48469 1.57626,0.60676 5.04288,0.52432 2.23763,-0.0532 2.94786,-0.1551 3.16664,-0.4543 z"
         id="path1001"
         transform="scale(0.26458333)" />
      <path
         style="fill:#b3b3b3;fill-opacity:1;stroke:#b3b3b3;stroke-width:4.86425;stroke-linecap:square;stroke-linejoin:round;stroke-miterlimit:4;stroke-dasharray:none;stroke-opacity:1;paint-order:stroke fill markers"
         d="m 124.8397,511.99176 c -0.10792,-0.17461 -1.34859,-0.27454 -3.40832,-0.27454 -3.02625,0 -3.2473,-0.0331 -3.37072,-0.50508 -0.11027,-0.42168 -0.34446,-0.50508 -1.41841,-0.50508 -0.94962,0 -1.41855,-0.13221 -1.79141,-0.50507 -0.35542,-0.35543 -0.84179,-0.50508 -1.6415,-0.50508 -0.96806,0 -1.13642,-0.0748 -1.13642,-0.50508 0,-0.41836 -0.16836,-0.50507 -0.9807,-0.50507 -0.76831,0 -1.0093,-0.10938 -1.11278,-0.50508 -0.10117,-0.38687 -0.34446,-0.50507 -1.0396,-0.50507 -0.73917,0 -0.90753,-0.0937 -0.90753,-0.50508 0,-0.40698 -0.16836,-0.50508 -0.86686,-0.50508 -0.62859,0 -0.90856,-0.13134 -1.01852,-0.47781 -0.0834,-0.26279 -0.37517,-0.53626 -0.64837,-0.6077 -0.27319,-0.0714 -0.49671,-0.311 -0.49671,-0.53234 0,-0.29159 -0.24349,-0.40245 -0.88388,-0.40245 -0.62537,0 -0.88388,-0.11311 -0.88388,-0.38674 0,-0.2127 -0.19888,-0.45818 -0.44195,-0.5455 -0.24306,-0.0873 -0.64524,-0.36787 -0.89372,-0.62342 -0.24848,-0.25556 -0.7182,-0.46465 -1.04383,-0.46465 -0.37967,0 -0.63944,-0.18118 -0.72413,-0.50507 -0.10014,-0.38291 -0.344469,-0.50508 -1.010157,-0.50508 -0.665686,0 -0.910019,-0.12217 -1.010153,-0.50508 -0.07265,-0.27779 -0.301023,-0.50507 -0.507511,-0.50507 -0.206487,0 -0.438439,-0.1642 -0.515445,-0.36488 -0.07701,-0.20068 -0.543737,-0.44061 -1.037172,-0.53318 -0.493436,-0.0926 -0.897157,-0.31347 -0.897157,-0.4909 0,-0.17743 -0.426158,-0.40168 -0.947018,-0.49834 -0.520859,-0.0967 -1.128913,-0.33884 -1.35123,-0.53818 -0.244679,-0.21939 -1.241384,-0.42513 -2.525381,-0.52129 -1.370651,-0.10265 -2.192625,-0.27959 -2.323121,-0.50008 -0.292983,-0.49503 -5.732694,-0.4933 -5.732694,0.002 0,0.2606 -0.678646,0.37521 -2.823831,0.47689 -2.049238,0.0971 -2.897828,0.23405 -3.093592,0.49914 -0.148369,0.20092 -0.837972,0.44161 -1.532452,0.53487 -0.69448,0.0933 -1.377957,0.3244 -1.518837,0.51364 -0.140881,0.18923 -0.631539,0.42651 -1.090351,0.52728 -0.458813,0.10077 -0.895506,0.34297 -0.970429,0.53821 -0.07492,0.19525 -0.408171,0.355 -0.74055,0.355 -0.33238,0 -0.82004,0.21571 -1.08369,0.47936 -0.26365,0.26365 -0.831861,0.55679 -1.262691,0.65141 -0.43083,0.0946 -0.783327,0.27947 -0.783327,0.41077 0,0.1313 -0.284106,0.34674 -0.631346,0.47876 -0.34724,0.13202 -0.631345,0.41332 -0.631345,0.6251 0,0.27026 -0.258423,0.38506 -0.866865,0.38506 -0.645072,0 -0.907881,0.12922 -1.027171,0.50507 -0.08817,0.27779 -0.333749,0.50508 -0.545737,0.50508 -0.211987,0 -0.444868,0.22728 -0.517512,0.50507 -0.09477,0.3624 -0.344466,0.50508 -0.883883,0.50508 -0.539418,0 -0.789116,0.14269 -0.883884,0.50508 -0.117868,0.45073 -0.344466,0.50507 -2.105914,0.50507 -1.752039,0 -1.991846,-0.0568 -2.134138,-0.50507 -0.08817,-0.2778 -0.315452,-0.50508 -0.505076,-0.50508 -0.189624,0 -0.416909,-0.22728 -0.505076,-0.50508 -0.08817,-0.27779 -0.32311,-0.50507 -0.522095,-0.50507 -0.273828,0 -0.361789,-0.3684 -0.361789,-1.51523 0,-1.14683 0.08796,-1.51523 0.361789,-1.51523 0.198985,0 0.433927,-0.22728 0.522095,-0.50508 0.08817,-0.27779 0.32311,-0.50507 0.522094,-0.50507 0.198984,0 0.361789,-0.22729 0.361789,-0.50508 0,-0.33672 0.168359,-0.50507 0.505076,-0.50507 0.336718,0 0.505077,-0.16836 0.505077,-0.50508 0,-0.33672 0.168359,-0.50508 0.505076,-0.50508 0.336717,0 0.505076,-0.16836 0.505076,-0.50507 0,-0.33672 0.168359,-0.50508 0.505077,-0.50508 0.336717,0 0.505076,-0.16836 0.505076,-0.50508 0,-0.33671 0.168359,-0.50507 0.505076,-0.50507 0.277792,0 0.505076,-0.15831 0.505076,-0.35179 0,-0.40717 0.537827,-0.65836 1.409614,-0.65836 0.372323,0 0.610691,-0.1467 0.610691,-0.37583 0,-0.24318 0.356525,-0.43283 1.010153,-0.53735 0.555584,-0.0888 1.010152,-0.30294 1.010152,-0.47578 0,-0.17284 0.454569,-0.38695 1.010153,-0.47579 0.653628,-0.10452 1.010153,-0.29417 1.010153,-0.53735 0,-0.22913 0.238368,-0.37582 0.610691,-0.37582 0.850049,0 1.409614,-0.2486 1.409614,-0.62624 0,-0.20018 0.484742,-0.36623 1.296878,-0.44427 0.838669,-0.0806 1.37846,-0.27039 1.527778,-0.53721 0.126994,-0.22692 0.495152,-0.41259 0.818128,-0.41259 1.088718,0 2.165593,-0.31351 2.165593,-0.63047 0,-0.2256 0.797129,-0.34765 2.813144,-0.43071 2.244366,-0.0925 2.875477,-0.20115 3.121434,-0.53752 0.264836,-0.36218 0.856384,-0.4216 4.197176,-0.4216 3.615386,0 3.911071,0.0355 4.204313,0.50507 0.26391,0.42259 0.588924,0.50508 1.990076,0.50508 1.256754,0 1.749794,0.10276 1.97577,0.4118 0.18403,0.25167 0.808607,0.46057 1.606206,0.53721 0.871027,0.0837 1.305084,0.23971 1.305084,0.46909 0,0.2048 0.401932,0.40797 0.994563,0.50273 0.547011,0.0875 1.049327,0.30175 1.116259,0.47618 0.06693,0.17442 0.517544,0.39139 1.00136,0.48216 0.483815,0.0908 0.93838,0.31805 1.01015,0.50507 0.0718,0.18703 0.53731,0.41637 1.03454,0.50965 0.51335,0.0963 0.90404,0.31877 0.90404,0.51477 0,0.20589 0.4076,0.41403 1.01016,0.51583 0.62103,0.10493 1.01015,0.30803 1.01015,0.52728 0,0.19613 0.22728,0.35661 0.50507,0.35661 0.33672,0 0.50508,0.16835 0.50508,0.50507 0,0.4209 0.16836,0.50508 1.01015,0.50508 0.8418,0 1.01016,0.0842 1.01016,0.50507 0,0.33672 0.16836,0.50508 0.50507,0.50508 0.33672,0 0.50508,0.16836 0.50508,0.50508 0,0.42089 0.16836,0.50507 1.01015,0.50507 0.84179,0 1.01015,0.0842 1.01015,0.50508 0,0.40555 0.16836,0.50508 0.85443,0.50508 0.64205,0 0.88726,0.12554 0.98651,0.50507 0.10014,0.38291 0.34447,0.50508 1.01016,0.50508 0.66568,0 0.91001,0.12216 1.01015,0.50507 0.10117,0.38688 0.34446,0.50508 1.0396,0.50508 0.73917,0 0.90753,0.0937 0.90753,0.50508 0,0.43025 0.16836,0.50507 1.13642,0.50507 0.80301,0 1.13642,0.10322 1.13642,0.35179 0,0.19348 0.17976,0.42077 0.39947,0.50508 0.2197,0.0843 3.06075,0.15329 6.31345,0.15329 5.74563,0 5.91399,-0.0144 5.91399,-0.50508 0,-0.44896 0.16836,-0.50508 1.51523,-0.50508 1.34687,0 1.51523,-0.0561 1.51523,-0.50507 0,-0.4209 0.16836,-0.50508 1.01015,-0.50508 0.84179,0 1.01015,-0.0842 1.01015,-0.50508 0,-0.42089 0.16836,-0.50507 1.01016,-0.50507 0.84179,0 1.01015,-0.0842 1.01015,-0.50508 0,-0.4209 0.16836,-0.50507 1.01015,-0.50507 0.84179,0 1.01015,-0.0842 1.01015,-0.50508 0,-0.33672 0.16836,-0.50508 0.50508,-0.50508 0.33672,0 0.50508,-0.16836 0.50508,-0.50507 0,-0.4209 0.16836,-0.50508 1.01015,-0.50508 0.84179,0 1.01015,-0.0842 1.01015,-0.50508 0,-0.41137 0.16836,-0.50507 0.90753,-0.50507 0.69514,0 0.93843,-0.1182 1.0396,-0.50508 0.0731,-0.27954 0.34447,-0.50507 0.60771,-0.50507 0.26159,0 0.47562,-0.15831 0.47562,-0.35179 0,-0.38614 0.53065,-0.65837 1.28334,-0.65837 0.26643,0 0.48443,-0.11608 0.48443,-0.25795 0,-0.14187 0.2841,-0.3874 0.63134,-0.54561 0.34724,-0.15822 0.63135,-0.43988 0.63135,-0.62593 0,-0.18942 0.26873,-0.33827 0.61069,-0.33827 0.87178,0 1.40961,-0.2512 1.40961,-0.65837 0,-0.20194 0.25548,-0.35179 0.59978,-0.35179 1.1377,0 2.17814,-0.31665 2.17814,-0.66291 0,-0.23502 0.31695,-0.34724 0.9807,-0.34724 0.76831,0 1.0093,-0.10938 1.11278,-0.50508 0.11821,-0.45205 0.34446,-0.50507 2.15537,-0.50507 2.24096,0 2.82222,-0.1356 2.82222,-0.65837 0,-0.28599 0.75342,-0.35178 4.02806,-0.35178 3.55715,0 4.05667,0.0511 4.27275,0.43723 0.2035,0.36363 0.71577,0.45336 3.043,0.53301 2.0582,0.0705 2.79832,0.18144 2.79832,0.41963 0,0.43879 0.58204,0.63043 1.9147,0.63043 0.78162,0 1.11576,0.10462 1.11576,0.34935 0,0.4083 0.76304,0.6525 2.05399,0.65735 0.70352,0.003 0.94837,0.12128 1.04964,0.50853 0.10117,0.38687 0.34447,0.50508 1.03961,0.50508 0.60735,0 0.90752,0.11635 0.90752,0.35178 0,0.40717 0.53783,0.65837 1.40962,0.65837 0.36602,0 0.61069,0.14718 0.61069,0.36736 0,0.2199 0.3548,0.43393 0.88388,0.53318 0.48614,0.0912 0.88389,0.26963 0.88389,0.3965 0,0.12688 0.2841,0.3387 0.63134,0.47073 0.34724,0.13202 0.63135,0.41331 0.63135,0.62509 0,0.27171 0.26019,0.38506 0.88388,0.38506 0.71552,0 0.88388,0.0962 0.88388,0.50507 0,0.33672 0.16836,0.50508 0.50508,0.50508 0.33672,0 0.50508,0.16836 0.50508,0.50508 0,0.33671 0.16836,0.50507 0.50507,0.50507 0.33672,0 0.50508,0.16836 0.50508,0.50508 0,0.33672 0.16836,0.50508 0.50508,0.50508 0.33671,0 0.50507,0.16835 0.50507,0.50507 0,0.33672 0.16836,0.50508 0.50508,0.50508 0.40975,0 0.50507,0.16836 0.50507,0.89202 0,0.68903 0.12931,0.94399 0.56822,1.12041 0.38708,0.15559 0.43672,0.2335 0.15572,0.2444 -0.45691,0.0177 -0.71524,0.72522 -0.72049,1.97318 -0.003,0.7423 -0.0757,0.82075 -0.75892,0.82075 -0.48198,0 -0.86967,0.18285 -1.0709,0.50508 -0.25643,0.41061 -0.58893,0.50507 -1.77783,0.50507 -1.05495,0 -1.50218,-0.10363 -1.60514,-0.37194 -0.0785,-0.20456 -0.51904,-0.44253 -0.97898,-0.52882 -0.52637,-0.0987 -0.8829,-0.33524 -0.96213,-0.63821 -0.0692,-0.26473 -0.29481,-0.48133 -0.5013,-0.48133 -0.20649,0 -0.43844,-0.1642 -0.51544,-0.36488 -0.077,-0.20068 -0.53328,-0.43865 -1.01393,-0.52882 -0.56013,-0.10508 -0.91911,-0.33677 -0.99978,-0.64528 -0.0906,-0.34641 -0.35149,-0.48133 -0.93077,-0.48133 -0.59252,0 -0.83975,-0.13327 -0.93698,-0.50507 -0.0731,-0.27954 -0.34447,-0.50508 -0.60771,-0.50508 -0.26159,0 -0.47562,-0.16047 -0.47562,-0.35661 0,-0.21924 -0.38911,-0.42235 -1.01015,-0.52727 -0.58403,-0.0987 -1.01015,-0.31173 -1.01015,-0.50508 0,-0.19223 -0.42108,-0.40555 -0.99037,-0.50173 -0.54471,-0.092 -1.04948,-0.32135 -1.12171,-0.5096 -0.0722,-0.18825 -0.67777,-0.41915 -1.34561,-0.51312 -0.66785,-0.094 -1.34461,-0.33492 -1.50392,-0.53544 -0.20527,-0.25837 -1.08814,-0.40848 -3.03046,-0.51523 -1.90534,-0.10472 -2.80236,-0.25481 -2.94276,-0.49239 -0.31066,-0.52573 -5.73269,-0.49068 -5.73269,0.0371 0,0.28961 -0.31877,0.37881 -1.35371,0.37881 -2.15307,0 -3.69705,0.278 -3.69705,0.66567 0,0.19598 -0.26326,0.34448 -0.61069,0.34448 -0.87179,0 -1.40962,0.2512 -1.40962,0.65837 0,0.20371 -0.25706,0.35179 -0.61069,0.35179 -0.84995,0 -1.40961,0.24857 -1.40961,0.62608 0,0.17749 -0.44903,0.39132 -1.01016,0.48104 -0.60899,0.0974 -1.01015,0.29909 -1.01015,0.5079 0,0.19051 -0.22728,0.40581 -0.50507,0.47845 -0.2778,0.0727 -0.50508,0.31319 -0.50508,0.53453 0,0.29358 -0.2455,0.40245 -0.90753,0.40245 -0.69514,0 -0.93843,0.1182 -1.0396,0.50508 -0.0855,0.32685 -0.34447,0.50508 -0.73398,0.50508 -0.33103,0 -0.80944,0.20755 -1.06312,0.46123 -0.25368,0.25368 -0.65143,0.53422 -0.88388,0.62342 -0.23246,0.0892 -0.42265,0.33621 -0.42265,0.54892 0,0.25969 -0.24418,0.38673 -0.7433,0.38673 -0.42866,0 -0.88298,0.19411 -1.07329,0.45857 -0.18149,0.25222 -0.52886,0.53276 -0.77193,0.62342 -0.24307,0.0907 -0.44194,0.33888 -0.44194,0.55158 0,0.27554 -0.26093,0.38674 -0.90753,0.38674 -0.69514,0 -0.93843,0.1182 -1.0396,0.50507 -0.0979,0.37432 -0.34447,0.50508 -0.95246,0.50508 -0.4512,0 -1.10932,0.22728 -1.46247,0.50507 -0.35315,0.2778 -1.00415,0.50508 -1.44666,0.50508 -0.59217,0 -0.83942,0.13333 -0.93664,0.50508 -0.1132,0.43287 -0.34447,0.50507 -1.61785,0.50507 -1.31742,0 -1.48578,0.0572 -1.48578,0.50508 0,0.47976 -0.16836,0.50508 -3.35876,0.50508 -2.08192,0 -3.46312,0.10436 -3.63329,0.27454 -0.1977,0.1977 -0.32204,0.1977 -0.44422,0 z"
         id="path1003"
         transform="scale(0.26458333)" />
      <path
         style="fill:#b3b3b3;fill-opacity:1;stroke:#b3b3b3;stroke-width:4.86425;stroke-linecap:square;stroke-linejoin:round;stroke-miterlimit:4;stroke-dasharray:none;stroke-opacity:1;paint-order:stroke fill markers"
         d="m 119.07082,486.21086 c -0.11746,-0.44913 -0.34447,-0.50507 -2.04976,-0.50507 -1.74932,0 -1.91768,-0.0443 -1.91768,-0.50508 0,-0.4209 -0.16836,-0.50507 -1.01015,-0.50507 -0.67344,0 -1.17852,-0.16836 -1.51523,-0.50508 -0.33672,-0.33672 -0.8418,-0.50508 -1.51523,-0.50508 -0.84179,0 -1.01015,-0.0842 -1.01015,-0.50507 0,-0.4209 -0.16836,-0.50508 -1.01016,-0.50508 -0.84179,0 -1.01015,-0.0842 -1.01015,-0.50508 0,-0.33671 -0.16836,-0.50507 -0.50508,-0.50507 -0.27779,0 -0.50507,-0.15831 -0.50507,-0.35179 0,-0.38302 -0.52961,-0.65836 -1.26633,-0.65836 -0.25707,0 -0.53954,-0.22729 -0.62771,-0.50508 -0.0882,-0.27779 -0.37993,-0.50508 -0.64836,-0.50508 -0.26843,0 -0.48806,-0.1583 -0.48806,-0.35179 0,-0.38069 -0.52883,-0.65836 -1.25389,-0.65836 -0.25023,0 -0.5144,-0.22728 -0.58705,-0.50508 -0.079,-0.30218 -0.34446,-0.50507 -0.6608,-0.50507 -0.29429,0 -0.52872,-0.16289 -0.52872,-0.36737 0,-0.2199 -0.35479,-0.43392 -0.88388,-0.53318 -0.486137,-0.0912 -0.883884,-0.31147 -0.883884,-0.4895 0,-0.38133 -0.556733,-0.63026 -1.409615,-0.63026 -0.38004,0 -0.61069,-0.14606 -0.61069,-0.38673 0,-0.2127 -0.198874,-0.46136 -0.441942,-0.55256 -0.243068,-0.0912 -0.555584,-0.31694 -0.69448,-0.50163 -0.138896,-0.18469 -0.84916,-0.40643 -1.578363,-0.49277 -0.79944,-0.0946 -1.325826,-0.28086 -1.325826,-0.46903 0,-0.32724 -1.090197,-0.62774 -2.277391,-0.62774 -0.388394,0 -0.763625,-0.16833 -0.844392,-0.3788 -0.216503,-0.56421 -10.047028,-0.56421 -10.515276,0 -0.17291,0.20834 -0.682353,0.3788 -1.132096,0.3788 -1.656311,0 -3.161052,0.31688 -3.161052,0.66568 0,0.19598 -0.263259,0.34448 -0.610691,0.34448 -0.849545,0 -1.409614,0.24853 -1.409614,0.62552 0,0.19258 -0.469175,0.37183 -1.184199,0.45242 -0.663505,0.0748 -1.314234,0.31131 -1.479935,0.53792 -0.162654,0.22244 -0.49272,0.40444 -0.733479,0.40444 -0.24076,0 -0.497181,0.22729 -0.569825,0.50508 -0.100133,0.38291 -0.344466,0.50507 -1.010152,0.50507 -0.665687,0 -0.91002,0.12217 -1.010153,0.50508 -0.0847,0.32389 -0.344466,0.50508 -0.724134,0.50508 -0.32563,0 -0.795355,0.20909 -1.043833,0.46464 -0.248479,0.25556 -0.650653,0.53609 -0.893721,0.62342 -0.243068,0.0873 -0.441942,0.33281 -0.441942,0.54551 0,0.21288 -0.217771,0.38673 -0.484422,0.38673 -0.752689,0 -1.283345,0.27223 -1.283345,0.65837 0,0.19348 -0.223286,0.35179 -0.496191,0.35179 -0.272905,0 -0.61783,0.22728 -0.7665,0.50507 -0.218581,0.40842 -0.52877,0.50508 -1.620929,0.50508 -1.138235,0 -1.37139,-0.0794 -1.482701,-0.50508 -0.09564,-0.36573 -0.344466,-0.50507 -0.901894,-0.50507 -0.679844,0 -0.789193,-0.10331 -0.935631,-0.88389 -0.09497,-0.50623 -0.315661,-0.88388 -0.51652,-0.88388 -0.247288,0 -0.350702,-0.33511 -0.350702,-1.13642 0,-0.8418 0.09821,-1.13643 0.378807,-1.13643 0.208344,0 0.378808,-0.19994 0.378808,-0.44432 0,-0.24438 0.217064,-0.57989 0.482365,-0.74558 0.265301,-0.16568 0.558436,-0.64758 0.651411,-1.0709 0.09298,-0.42331 0.317225,-0.76965 0.498333,-0.76965 0.181108,0 0.388724,-0.22729 0.461368,-0.50508 0.09723,-0.3718 0.344466,-0.50508 0.93698,-0.50508 0.592514,0 0.839751,-0.13327 0.93698,-0.50507 0.0731,-0.27954 0.344466,-0.50508 0.607703,-0.50508 0.307263,0 0.475622,-0.17878 0.475622,-0.50507 0,-0.28811 0.168359,-0.50508 0.39191,-0.50508 0.336062,0 1.502752,-0.52842 2.891086,-1.30943 0.208344,-0.1172 0.691323,-0.33621 1.073287,-0.48669 0.381964,-0.15048 0.69448,-0.41848 0.69448,-0.59557 0,-0.20322 0.48133,-0.36822 1.305085,-0.44737 0.797597,-0.0766 1.422177,-0.28554 1.606204,-0.53721 0.165615,-0.22649 0.534991,-0.4118 0.820834,-0.4118 0.766874,0 1.31864,-0.26318 1.31864,-0.62895 0,-0.21828 0.539844,-0.35674 1.672028,-0.42883 1.189966,-0.0758 1.762265,-0.22987 1.985011,-0.5345 0.214193,-0.29292 0.672859,-0.42803 1.453131,-0.42803 1.640863,0 2.718512,-0.26278 2.718512,-0.66291 0,-0.28498 1.086679,-0.34724 6.060915,-0.34724 5.012231,0 6.060915,0.0609 6.060915,0.35179 0,0.45768 0.555905,0.65836 1.823715,0.65836 0.655957,0 1.133168,0.14822 1.325911,0.41181 0.184029,0.25167 0.808607,0.46056 1.606205,0.5372 0.81834,0.0786 1.305085,0.24463 1.305085,0.44506 0,0.37765 0.559563,0.62624 1.409614,0.62624 0.372322,0 0.610691,0.14669 0.610691,0.37582 0,0.24318 0.356523,0.43283 1.010154,0.53735 0.55558,0.0888 1.01497,0.28906 1.02086,0.44493 0.006,0.15587 0.68774,0.61953 1.51522,1.03036 0.82749,0.41083 1.50453,0.89381 1.50453,1.07329 0,0.17948 0.19995,0.32632 0.44433,0.32632 0.24438,0 0.58627,0.22728 0.75975,0.50508 0.20123,0.32222 0.58893,0.50507 1.0709,0.50507 0.58712,0 0.75548,0.11256 0.75548,0.50508 0,0.32629 0.16836,0.50507 0.47562,0.50507 0.26323,0 0.5346,0.22554 0.6077,0.50508 0.10117,0.38688 0.34447,0.50508 1.03961,0.50508 0.73916,0 0.90752,0.0937 0.90752,0.50507 0,0.41138 0.16836,0.50508 0.90753,0.50508 0.69514,0 0.93844,0.1182 1.03961,0.50508 0.0986,0.37697 0.34446,0.50507 0.96949,0.50507 0.61562,0 0.87987,0.13378 0.99771,0.50508 0.11847,0.37326 0.3821,0.50507 1.01016,0.50507 0.62805,0 0.89168,0.13182 1.01015,0.50508 0.14106,0.44444 0.3821,0.50508 2.00787,0.50508 1.63518,0 1.86275,0.0581 1.97964,0.50507 0.12627,0.48283 0.34447,0.50508 4.95395,0.50508 4.65351,0 4.82187,-0.0176 4.82187,-0.50508 0,-0.45261 0.16836,-0.50507 1.62084,-0.50507 1.84671,0 2.41977,-0.15592 2.41977,-0.65837 0,-0.23543 0.30017,-0.35179 0.90752,-0.35179 0.69515,0 0.93844,-0.1182 1.03961,-0.50507 0.10013,-0.38291 0.34447,-0.50508 1.01015,-0.50508 0.66569,0 0.91002,-0.12216 1.01016,-0.50507 0.0934,-0.35733 0.34446,-0.50508 0.8581,-0.50508 0.45252,0 0.84484,-0.19027 1.04144,-0.50508 0.17349,-0.27779 0.51538,-0.50507 0.75976,-0.50507 0.27597,0 0.44433,-0.19138 0.44433,-0.50508 0,-0.4209 0.16836,-0.50508 1.01015,-0.50508 0.84179,0 1.01015,-0.0842 1.01015,-0.50507 0,-0.32629 0.16836,-0.50508 0.47562,-0.50508 0.26324,0 0.5346,-0.22554 0.60771,-0.50507 0.0972,-0.37181 0.34446,-0.50508 0.93698,-0.50508 0.59251,0 0.83975,-0.13327 0.93698,-0.50508 0.0731,-0.27953 0.34446,-0.50507 0.6077,-0.50507 0.26159,0 0.47562,-0.16532 0.47562,-0.36737 0,-0.22146 0.35905,-0.43472 0.90405,-0.53696 0.49722,-0.0933 0.96276,-0.32262 1.03453,-0.50965 0.0718,-0.18703 0.51727,-0.41261 0.98999,-0.50129 0.47273,-0.0887 0.8595,-0.30454 0.8595,-0.47967 0,-0.17622 0.45114,-0.39057 1.01016,-0.47996 0.65363,-0.10452 1.01015,-0.29417 1.01015,-0.53735 0,-0.26903 0.28221,-0.37582 0.99313,-0.37582 0.77134,0 1.02894,-0.1128 1.15344,-0.50508 0.13624,-0.42926 0.3821,-0.50508 1.63786,-0.50508 1.70689,0 2.27648,-0.16473 2.27648,-0.65836 0,-0.29092 1.04869,-0.35179 6.06092,-0.35179 4.99201,0 6.06091,0.0616 6.06091,0.34935 0,0.44673 0.78374,0.65301 2.49755,0.65735 0.95373,0.002 1.44963,0.1245 1.65685,0.4079 0.17262,0.23606 0.81503,0.45813 1.54307,0.5334 0.68603,0.0709 1.37628,0.29048 1.53389,0.48789 0.15761,0.19741 0.86787,0.42778 1.57836,0.51192 0.83998,0.0995 1.29181,0.27215 1.29181,0.49365 0,0.20214 0.41072,0.40632 1.01015,0.50217 0.5703,0.0912 1.01015,0.30276 1.01015,0.48587 0,0.18158 0.4446,0.39944 1.01016,0.49499 0.56556,0.0956 1.01015,0.31342 1.01015,0.495 0,0.18311 0.43985,0.39467 1.01015,0.48586 0.65363,0.10452 1.01015,0.29418 1.01015,0.53736 0,0.26115 0.26969,0.37582 0.88389,0.37582 0.71552,0 0.88388,0.0962 0.88388,0.50508 0,0.33671 0.16836,0.50507 0.50508,0.50507 0.29378,0 0.50507,0.16836 0.50507,0.40245 0,0.22135 0.22729,0.46189 0.50508,0.53453 0.27779,0.0727 0.50508,0.29993 0.50508,0.50508 0,0.20515 0.22728,0.43243 0.50507,0.50507 0.27779,0.0727 0.50508,0.29993 0.50508,0.50508 0,0.20515 0.22728,0.43243 0.50508,0.50508 0.27779,0.0726 0.50507,0.29993 0.50507,0.50507 0,0.20515 0.22729,0.43244 0.50508,0.50508 0.35122,0.0919 0.50507,0.34447 0.50507,0.82932 0,0.38348 0.17765,0.84467 0.39477,1.02486 0.35799,0.29711 0.35799,0.34821 0,0.54855 -0.21712,0.12151 -0.39477,0.51476 -0.39477,0.87389 0,0.64533 -0.81812,1.62268 -1.61394,1.92807 -0.2235,0.0858 -0.40636,0.32996 -0.40636,0.54266 0,0.30432 -0.32292,0.38674 -1.51523,0.38674 -1.18944,0 -1.51523,-0.0828 -1.51523,-0.38506 0,-0.21178 -0.2841,-0.49307 -0.63134,-0.62509 -0.34724,-0.13203 -0.63135,-0.35135 -0.63135,-0.48739 0,-0.13604 -0.39775,-0.32196 -0.88388,-0.41316 -0.63964,-0.12 -0.88389,-0.29762 -0.88389,-0.64279 0,-0.29963 -0.17775,-0.47697 -0.47805,-0.47697 -0.26294,0 -0.54107,-0.16419 -0.61808,-0.36487 -0.077,-0.20068 -0.54373,-0.44062 -1.03717,-0.53319 -0.49343,-0.0926 -0.89715,-0.31396 -0.89715,-0.49199 0,-0.35933 -0.54785,-0.63026 -1.27446,-0.63026 -0.26155,0 -0.59718,-0.22728 -0.74585,-0.50507 -0.16876,-0.31533 -0.52877,-0.50508 -0.95829,-0.50508 -0.41448,0 -0.81337,-0.20079 -1.00341,-0.50507 -0.19699,-0.31545 -0.58892,-0.50508 -1.04388,-0.50508 -0.41063,0 -0.79111,-0.1633 -0.87208,-0.37428 -0.079,-0.20585 -0.60254,-0.44766 -1.16344,-0.53735 -0.5609,-0.0897 -1.01981,-0.30319 -1.01981,-0.47443 0,-0.32312 -1.78393,-0.62803 -3.69792,-0.63205 -0.69552,-0.001 -1.095,-0.12919 -1.19163,-0.381 -0.20574,-0.53614 -9.75767,-0.572 -9.75767,-0.0366 0,0.24224 -0.53367,0.38692 -1.82718,0.49536 -1.15948,0.0972 -1.92541,0.28752 -2.09598,0.52077 -0.14783,0.20217 -0.6893,0.44647 -1.20326,0.5429 -0.51397,0.0964 -0.93449,0.32047 -0.93449,0.4979 0,0.17743 -0.40372,0.39834 -0.89716,0.49091 -0.49343,0.0926 -0.95586,0.3213 -1.02762,0.50829 -0.0718,0.187 -0.34989,0.39737 -0.61807,0.4675 -0.26819,0.0701 -0.48761,0.30862 -0.48761,0.52997 0,0.25729 -0.22027,0.40244 -0.61069,0.40244 -0.87179,0 -1.40961,0.2512 -1.40961,0.65837 0,0.19348 -0.22729,0.35179 -0.50508,0.35179 -0.33672,0 -0.50508,0.16836 -0.50508,0.50507 0,0.41138 -0.16836,0.50508 -0.90752,0.50508 -0.69514,0 -0.93844,0.1182 -1.03961,0.50508 -0.0731,0.27953 -0.34447,0.50507 -0.6077,0.50507 -0.26159,0 -0.70291,0.22729 -0.9807,0.50508 -0.27779,0.27779 -0.68618,0.50508 -0.90753,0.50508 -0.22134,0 -0.46188,0.22728 -0.53453,0.50507 -0.0726,0.27779 -0.33681,0.50508 -0.58704,0.50508 -0.72506,0 -1.2539,0.27767 -1.2539,0.65836 0,0.19349 -0.23792,0.35179 -0.52871,0.35179 -0.31634,0 -0.58178,0.20289 -0.6608,0.50508 -0.10976,0.41973 -0.34447,0.50507 -1.38896,0.50507 -1.0445,0 -1.2792,0.0854 -1.38896,0.50508 -0.10348,0.39569 -0.34447,0.50508 -1.11278,0.50508 -0.81234,0 -0.9807,0.0867 -0.9807,0.50507 0,0.46299 -0.16836,0.50508 -2.02031,0.50508 -1.85194,0 -2.0203,0.0421 -2.0203,0.50507 0,0.49098 -0.16836,0.50508 -6.03146,0.50508 -5.81908,0 -6.03611,-0.0178 -6.16354,-0.50508 z"
         id="path1005"
         transform="scale(0.26458333)" />
      <path
         style="fill:#b3b3b3;fill-opacity:1;stroke:#b3b3b3;stroke-width:5.62016;stroke-linecap:square;stroke-linejoin:round;stroke-miterlimit:4;stroke-dasharray:none;stroke-opacity:1;paint-order:stroke fill markers"
         d="m 120.91176,461.20959 c -0.23905,-0.44666 -0.52877,-0.50508 -2.50482,-0.50508 -2.02212,0 -2.24706,-0.048 -2.36658,-0.50507 -0.11223,-0.42914 -0.34447,-0.50508 -1.54468,-0.50508 -1.24425,0 -1.41261,-0.0602 -1.41261,-0.50508 0,-0.41836 -0.16836,-0.50507 -0.9807,-0.50507 -0.76831,0 -1.0093,-0.10938 -1.11277,-0.50508 -0.10117,-0.38687 -0.34447,-0.50508 -1.03961,-0.50508 -0.73917,0 -0.90753,-0.0937 -0.90753,-0.50507 0,-0.33672 -0.16836,-0.50508 -0.50507,-0.50508 -0.27882,0 -0.50508,-0.16836 -0.50508,-0.37582 0,-0.24318 -0.35652,-0.43283 -1.01015,-0.53735 -0.76129,-0.12174 -1.01015,-0.27801 -1.01015,-0.63433 0,-0.36888 -0.18781,-0.4728 -0.85443,-0.4728 -0.64205,0 -0.88726,-0.12555 -0.98651,-0.50508 -0.079,-0.30219 -0.34447,-0.50508 -0.6608,-0.50508 -0.2908,0 -0.52872,-0.1583 -0.52872,-0.35178 0,-0.38614 -0.53066,-0.65837 -1.28335,-0.65837 -0.26643,0 -0.48442,-0.1583 -0.48442,-0.35179 0,-0.40717 -0.53783,-0.65836 -1.409614,-0.65836 -0.390422,0 -0.61069,-0.14516 -0.61069,-0.40245 0,-0.22135 -0.219423,-0.45983 -0.487609,-0.52996 -0.268182,-0.0701 -0.546315,-0.28051 -0.618071,-0.4675 -0.07176,-0.187 -0.534187,-0.41573 -1.027621,-0.5083 -0.511971,-0.096 -0.897157,-0.3176 -0.897157,-0.51602 0,-0.21039 -0.39895,-0.41152 -1.010153,-0.50925 -0.557078,-0.0891 -1.010152,-0.30391 -1.010152,-0.47896 0,-0.1968 -0.548164,-0.38592 -1.442427,-0.49766 -0.793334,-0.0991 -1.560418,-0.32912 -1.704633,-0.51113 -0.280264,-0.3537 -4.822278,-0.551 -10.048058,-0.43649 -2.086359,0.0457 -2.714785,0.1387 -2.714785,0.40167 0,0.24224 -0.533675,0.38693 -1.827188,0.49537 -1.159471,0.0972 -1.92541,0.28751 -2.095971,0.52077 -0.14783,0.20217 -0.689301,0.44647 -1.203269,0.54289 -0.513968,0.0964 -0.934487,0.3186 -0.934487,0.49374 0,0.17621 -0.451136,0.39056 -1.010152,0.47995 -0.611203,0.0977 -1.010153,0.29886 -1.010153,0.50925 0,0.19843 -0.385185,0.41998 -0.897156,0.51602 -0.493436,0.0926 -0.957498,0.32556 -1.031249,0.51775 -0.07375,0.1922 -0.473205,0.42393 -0.887675,0.51496 -0.41447,0.091 -0.814882,0.32526 -0.889805,0.52051 -0.07492,0.19524 -0.361989,0.35499 -0.637924,0.35499 -0.281065,0 -0.557055,0.21168 -0.627571,0.48133 -0.08018,0.30661 -0.438284,0.53994 -0.986511,0.64279 -0.510744,0.0958 -0.860638,0.31081 -0.860638,0.52882 0,0.20205 -0.214031,0.36737 -0.475623,0.36737 -0.263237,0 -0.534602,0.22554 -0.607703,0.50507 -0.07687,0.29394 -0.344466,0.50508 -0.640144,0.50508 -0.774913,0 -1.306988,0.26802 -1.306988,0.65836 0,0.20689 -0.260059,0.35179 -0.631345,0.35179 -0.390609,0 -0.631346,-0.1433 -0.631346,-0.37582 0,-0.24318 -0.356524,-0.43283 -1.010152,-0.53735 -0.579861,-0.0927 -1.010153,-0.30189 -1.010153,-0.49105 0,-0.18123 -0.227284,-0.40165 -0.505076,-0.48981 -0.277792,-0.0882 -0.505076,-0.32668 -0.505076,-0.53002 0,-0.20335 -0.170464,-0.43513 -0.378808,-0.51508 -0.276221,-0.106 -0.378807,-0.54041 -0.378807,-1.60412 0,-1.24637 0.07354,-1.47799 0.505077,-1.59084 0.277791,-0.0726 0.505076,-0.31318 0.505076,-0.53453 0,-0.22134 0.170463,-0.40245 0.378807,-0.40245 0.210448,0 0.378807,-0.22447 0.378807,-0.50507 0,-0.33672 0.168359,-0.50508 0.505076,-0.50508 0.336718,0 0.505077,-0.16836 0.505077,-0.50507 0,-0.33672 0.168359,-0.50508 0.505076,-0.50508 0.336717,0 0.505076,-0.16836 0.505076,-0.50508 0,-0.41137 0.168359,-0.50507 0.907526,-0.50507 0.695141,0 0.938437,-0.1182 1.039607,-0.50508 0.0731,-0.27954 0.344466,-0.50508 0.607702,-0.50508 0.261593,0 0.475623,-0.16912 0.475623,-0.37582 0,-0.24318 0.356524,-0.43283 1.010152,-0.53735 0.570301,-0.0912 1.010153,-0.30276 1.010153,-0.48586 0,-0.18159 0.444594,-0.39945 1.010152,-0.495 0.621037,-0.10493 1.010153,-0.30803 1.010153,-0.52728 0,-0.2088 0.253108,-0.35661 0.610691,-0.35661 0.871787,0 1.409614,-0.25119 1.409614,-0.65836 0,-0.23543 0.300173,-0.35179 0.907526,-0.35179 0.677379,0 0.939164,-0.12098 1.032282,-0.47706 0.102386,-0.39153 0.420591,-0.49591 1.774655,-0.58213 1.109266,-0.0706 1.744498,-0.23443 1.938595,-0.49987 0.196622,-0.2689 0.840965,-0.42998 2.020305,-0.50508 1.243263,-0.0792 1.819876,-0.23097 2.044592,-0.53829 0.258288,-0.35323 0.756853,-0.42803 2.853005,-0.42803 2.749587,0 3.338943,-0.1162 3.338943,-0.65836 0,-0.20688 0.260058,-0.35179 0.631345,-0.35179 0.371287,0 0.631345,0.14491 0.631345,0.35179 0,0.55475 0.594781,0.65836 3.779274,0.65836 2.767962,0 2.989761,0.036 3.112429,0.50508 0.111798,0.42752 0.344464,0.50508 1.515229,0.50508 1.170761,0 1.40343,0.0775 1.515228,0.50507 0.100223,0.38325 0.344465,0.50508 1.012587,0.50508 0.534765,0 0.935488,0.14327 1.020522,0.36487 0.07701,0.20068 0.535866,0.43914 1.019678,0.5299 0.483816,0.0908 0.938384,0.31805 1.010153,0.50508 0.07177,0.18703 0.534212,0.41579 1.027642,0.50836 0.49344,0.0926 0.89716,0.31613 0.89716,0.49681 0,0.18645 0.43681,0.4023 1.01015,0.49917 0.62104,0.10492 1.01016,0.30803 1.01016,0.52727 0,0.19614 0.21403,0.35661 0.47562,0.35661 0.26323,0 0.5346,0.22554 0.6077,0.50508 0.0972,0.3718 0.34447,0.50507 0.93698,0.50507 0.59252,0 0.83975,0.13328 0.93698,0.50508 0.0731,0.27954 0.34447,0.50508 0.6077,0.50508 0.30727,0 0.47563,0.17878 0.47563,0.50507 0,0.4209 0.16836,0.50508 1.01015,0.50508 0.84179,0 1.01015,0.0842 1.01015,0.50508 0,0.40698 0.16836,0.50507 0.86687,0.50507 0.64507,0 0.90788,0.12923 1.02717,0.50508 0.11784,0.3713 0.38209,0.50507 0.99771,0.50507 0.62503,0 0.87091,0.1281 0.9695,0.50508 0.10013,0.38291 0.34446,0.50508 1.01015,0.50508 0.66568,0 0.91002,0.12216 1.01015,0.50507 0.10013,0.38291 0.34447,0.50508 1.01015,0.50508 0.66569,0 0.91002,0.12217 1.01016,0.50508 0.11738,0.44887 0.34446,0.50507 2.04087,0.50507 1.65033,0 1.9454,0.0684 2.1791,0.50508 0.24791,0.46321 0.52877,0.50507 3.3887,0.50507 2.906,0 3.12738,-0.0344 3.25047,-0.50507 0.1205,-0.4608 0.34446,-0.50508 2.55483,-0.50508 2.2544,0 2.42276,-0.0351 2.42276,-0.50507 0,-0.4209 0.16836,-0.50508 1.01015,-0.50508 0.84179,0 1.01015,-0.0842 1.01015,-0.50508 0,-0.42089 0.16836,-0.50507 1.01015,-0.50507 0.8418,0 1.01016,-0.0842 1.01016,-0.50508 0,-0.4209 0.16836,-0.50508 1.01015,-0.50508 0.84179,0 1.01015,-0.0842 1.01015,-0.50507 0,-0.4209 0.16836,-0.50508 1.01015,-0.50508 0.8418,0 1.01016,-0.0842 1.01016,-0.50507 0,-0.33672 0.16836,-0.50508 0.50507,-0.50508 0.33672,0 0.50508,-0.16836 0.50508,-0.50508 0,-0.42089 0.16836,-0.50507 1.01015,-0.50507 0.84179,0 1.01015,-0.0842 1.01015,-0.50508 0,-0.33672 0.16836,-0.50508 0.50508,-0.50508 0.27779,0 0.50508,-0.16143 0.50508,-0.35874 0,-0.20032 0.36243,-0.43635 0.82075,-0.53449 0.45141,-0.0967 1.02404,-0.3898 1.27252,-0.65141 0.24848,-0.26161 0.67821,-0.47566 0.95495,-0.47566 0.27674,0 0.56464,-0.16021 0.63978,-0.35602 0.0751,-0.19581 0.4125,-0.42526 0.74969,-0.50988 0.33719,-0.0846 0.61307,-0.30739 0.61307,-0.49503 0,-0.21903 0.4239,-0.38893 1.1842,-0.47463 0.6635,-0.0748 1.31423,-0.31131 1.47993,-0.53792 0.16565,-0.22653 0.65493,-0.40444 1.11229,-0.40444 0.60417,0 0.8509,-0.13137 0.94863,-0.50508 0.1118,-0.42752 0.34447,-0.50507 1.51523,-0.50507 1.17076,0 1.40343,-0.0776 1.51523,-0.50508 0.12311,-0.47077 0.34447,-0.50508 3.25935,-0.50508 2.70594,0 3.19021,-0.0629 3.59443,-0.46715 0.42222,-0.42222 0.49162,-0.4283 0.72152,-0.0631 0.2094,0.33261 0.88904,0.41861 3.84542,0.48658 3.13994,0.0722 3.65206,0.14357 4.0767,0.56821 0.37774,0.37773 0.84387,0.48565 2.0977,0.48565 1.39966,0 1.62944,0.0665 1.74412,0.50507 0.0977,0.37371 0.34447,0.50508 0.94863,0.50508 0.46344,0 0.94677,0.17808 1.11767,0.4118 0.18403,0.25168 0.80861,0.46057 1.60621,0.53721 0.81834,0.0786 1.30508,0.24462 1.30508,0.44506 0,0.37764 0.55957,0.62623 1.40962,0.62623 0.36602,0 0.61069,0.14719 0.61069,0.36737 0,0.21849 0.3511,0.43323 0.86639,0.5299 0.47651,0.0894 0.92751,0.32183 1.00223,0.51652 0.0747,0.19469 0.30586,0.35398 0.51368,0.35398 0.20781,0 0.49949,0.22729 0.64815,0.50508 0.177,0.33072 0.52877,0.50507 1.01904,0.50507 0.51673,0 0.74873,0.12471 0.74873,0.40245 0,0.22135 0.22352,0.46091 0.49671,0.53235 0.2732,0.0714 0.56496,0.3449 0.64837,0.6077 0.0834,0.2628 0.37127,0.47781 0.63971,0.47781 0.27821,0 0.48805,0.17304 0.48805,0.40245 0,0.22135 0.22729,0.46189 0.50508,0.53453 0.27779,0.0726 0.50508,0.29286 0.50508,0.48936 0,0.1965 0.16613,0.42103 0.36919,0.49895 0.20306,0.0779 0.438,0.35846 0.5221,0.62342 0.0841,0.26496 0.29222,0.48175 0.46251,0.48175 0.4054,0 0.96777,2.06403 0.65022,2.38648 -0.12994,0.13195 -0.23626,0.54486 -0.23626,0.91757 0,0.46526 -0.15829,0.71905 -0.50507,0.80973 -0.27779,0.0726 -0.50508,0.31318 -0.50508,0.53453 0,0.27855 -0.23257,0.40245 -0.75547,0.40245 -0.48198,0 -0.86967,0.18285 -1.0709,0.50508 -0.45362,0.72635 -2.21424,0.72635 -2.21424,0 0,-0.33672 -0.16836,-0.50508 -0.50507,-0.50508 -0.2778,0 -0.50508,-0.1583 -0.50508,-0.35179 0,-0.40717 -0.53783,-0.65836 -1.40962,-0.65836 -0.44233,0 -0.61069,-0.13924 -0.61069,-0.50508 0,-0.33672 -0.16836,-0.50508 -0.50507,-0.50508 -0.27779,0 -0.50508,-0.1583 -0.50508,-0.35178 0,-0.40717 -0.53783,-0.65837 -1.40961,-0.65837 -0.44233,0 -0.61069,-0.13924 -0.61069,-0.50507 0,-0.32721 -0.16836,-0.50508 -0.47806,-0.50508 -0.26293,0 -0.54107,-0.16419 -0.61807,-0.36487 -0.077,-0.20068 -0.54374,-0.44062 -1.03717,-0.53319 -0.49344,-0.0926 -0.89716,-0.31613 -0.89716,-0.49681 0,-0.18645 -0.43681,-0.4023 -1.01015,-0.49917 -0.56411,-0.0953 -1.01016,-0.31354 -1.01016,-0.49423 0,-0.17796 -0.40984,-0.39007 -0.91075,-0.47136 -0.50092,-0.0813 -1.04072,-0.31949 -1.19956,-0.52934 -0.18134,-0.23958 -0.94656,-0.44686 -2.05657,-0.55708 -0.97227,-0.0965 -1.8814,-0.31516 -2.0203,-0.4858 -0.57108,-0.70161 -12.50064,-0.65393 -12.50064,0.05 0,0.20754 -0.28451,0.34128 -0.72605,0.34128 -1.25422,0 -2.30441,0.30211 -2.30441,0.66291 0,0.1989 -0.26088,0.34724 -0.61069,0.34724 -0.87178,0 -1.40961,0.2512 -1.40961,0.65837 0,0.20371 -0.25706,0.35178 -0.61069,0.35178 -0.85288,0 -1.40962,0.24893 -1.40962,0.63026 0,0.17803 -0.40372,0.39943 -0.89715,0.49199 -0.49344,0.0926 -0.96017,0.33251 -1.03717,0.53319 -0.077,0.20068 -0.30896,0.36487 -0.51545,0.36487 -0.20649,0 -0.43487,0.22728 -0.50751,0.50508 -0.10013,0.38291 -0.34447,0.50507 -1.01015,0.50507 -0.65125,0 -0.91059,0.12434 -1.00395,0.48133 -0.0802,0.30661 -0.43828,0.53994 -0.98651,0.64279 -0.47335,0.0888 -0.86064,0.27276 -0.86064,0.4088 0,0.13604 -0.2841,0.35537 -0.63134,0.48739 -0.34724,0.13202 -0.63135,0.41331 -0.63135,0.62509 0,0.27362 -0.26264,0.38506 -0.90752,0.38506 -0.68048,0 -0.93905,0.12052 -1.0335,0.48173 -0.0693,0.26495 -0.34275,0.53841 -0.6077,0.6077 -0.26496,0.0693 -0.48173,0.30708 -0.48173,0.52843 0,0.29358 -0.2455,0.40244 -0.90753,0.40244 -0.69514,0 -0.93844,0.11821 -1.03961,0.50508 -0.10347,0.3957 -0.34446,0.50508 -1.11278,0.50508 -0.64398,0 -1.15411,0.17341 -1.48577,0.50507 -0.31267,0.31267 -0.84179,0.50508 -1.38896,0.50508 -0.54717,0 -1.07629,0.19241 -1.38896,0.50508 -0.41639,0.41639 -0.84179,0.50507 -2.42275,0.50507 -1.7053,0 -1.93231,0.0559 -2.04976,0.50508 -0.12508,0.47827 -0.34447,0.50508 -4.13436,0.50508 -3.74381,0 -4.01972,-0.0326 -4.27257,-0.50508 z"
         id="path1007"
         transform="scale(0.26458333)" />
    </g>
    <text
       xml:space="preserve"
       style="font-size:4.23333px;line-height:1.25;font-family:Webdings;-inkscape-font-specification:Webdings;letter-spacing:0px;word-spacing:0px;stroke-width:0.264583"
       x="11.90625"
       y="5.2916665"
       id="text44"><tspan
         sodipodi:role="line"
         id="tspan42"
         x="11.90625"
         y="5.2916665"
         style="stroke-width:0.264583" /></text>
  </g>
</svg>
