<?xml version="1.0" encoding="UTF-8" standalone="no"?>
<svg
   xmlns:dc="http://purl.org/dc/elements/1.1/"
   xmlns:cc="http://creativecommons.org/ns#"
   xmlns:rdf="http://www.w3.org/1999/02/22-rdf-syntax-ns#"
   xmlns:svg="http://www.w3.org/2000/svg"
   xmlns="http://www.w3.org/2000/svg"
   xmlns:sodipodi="http://sodipodi.sourceforge.net/DTD/sodipodi-0.dtd"
   xmlns:inkscape="http://www.inkscape.org/namespaces/inkscape"
   width="50"
   height="50"
   viewBox="0 0 13.229166 13.229167"
   version="1.1"
   id="svg8"
   inkscape:version="1.0 (4035a4fb49, 2020-05-01)"
   sodipodi:docname="ok.svg">
  <defs
     id="defs2" />
  <sodipodi:namedview
     id="base"
     pagecolor="#ffffff"
     bordercolor="#666666"
     borderopacity="1.0"
     inkscape:pageopacity="0.0"
     inkscape:pageshadow="2"
     inkscape:zoom="0.24748738"
     inkscape:cx="-1880.8153"
     inkscape:cy="-286.30534"
     inkscape:document-units="mm"
     inkscape:current-layer="layer1"
     inkscape:document-rotation="0"
     showgrid="true"
     units="px"
     inkscape:window-width="1920"
     inkscape:window-height="986"
     inkscape:window-x="-11"
     inkscape:window-y="-11"
     inkscape:window-maximized="1">
    <inkscape:grid
       type="xygrid"
       id="grid10" />
  </sodipodi:namedview>
  <metadata
     id="metadata5">
    <rdf:RDF>
      <cc:Work
         rdf:about="">
        <dc:format>image/svg+xml</dc:format>
        <dc:type
           rdf:resource="http://purl.org/dc/dcmitype/StillImage" />
        <dc:title></dc:title>
      </cc:Work>
    </rdf:RDF>
  </metadata>
  <g
     inkscape:label="Warstwa 1"
     inkscape:groupmode="layer"
     id="layer1">
    <text
       xml:space="preserve"
       style="font-size:4.23333px;line-height:1.25;font-family:Webdings;-inkscape-font-specification:Webdings;letter-spacing:0px;word-spacing:0px;stroke-width:0.264583"
       x="11.90625"
       y="5.2916665"
       id="text44"><tspan
         sodipodi:role="line"
         id="tspan42"
         x="11.90625"
         y="5.2916665"
         style="stroke-width:0.264583" /></text>
    <g
       transform="matrix(0.29979544,0,0,0.29979544,32.973705,-11.252823)"
       id="g1050">
      <path
         style="fill:#f9f9f9;stroke:#f9f9f9;stroke-width:2.59654;stroke-linecap:square;stroke-linejoin:round;stroke-miterlimit:4;stroke-dasharray:none;stroke-opacity:1;paint-order:stroke fill markers"
         d="m -352.56776,258.60589 c -0.011,-0.17362 -0.1904,-0.31567 -0.39874,-0.31567 -0.20835,0 -0.37881,-0.18111 -0.37881,-0.40245 0,-0.22135 -0.22729,-0.46189 -0.50508,-0.53453 -0.27779,-0.0727 -0.50507,-0.29993 -0.50507,-0.50508 0,-0.20515 -0.21678,-0.42968 -0.48173,-0.49897 -0.26495,-0.0693 -0.53842,-0.34275 -0.60771,-0.6077 -0.0693,-0.26495 -0.30707,-0.48173 -0.52842,-0.48173 -0.22135,0 -0.40245,-0.18111 -0.40245,-0.40245 0,-0.22135 -0.21678,-0.45914 -0.48173,-0.52843 -0.26495,-0.0693 -0.53841,-0.34275 -0.6077,-0.6077 -0.0693,-0.26495 -0.29382,-0.48173 -0.49897,-0.48173 -0.20515,0 -0.43243,-0.22728 -0.50508,-0.50507 -0.0726,-0.2778 -0.29993,-0.50508 -0.50507,-0.50508 -0.20515,0 -0.43244,-0.22728 -0.50508,-0.50508 -0.0726,-0.27779 -0.31318,-0.50507 -0.53453,-0.50507 -0.22135,0 -0.40245,-0.18111 -0.40245,-0.40245 0,-0.22135 -0.21678,-0.45914 -0.48173,-0.52843 -0.26495,-0.0693 -0.53841,-0.34275 -0.6077,-0.6077 -0.0693,-0.26495 -0.29382,-0.48173 -0.49897,-0.48173 -0.20515,0 -0.43243,-0.22728 -0.50508,-0.50507 -0.0726,-0.2778 -0.29993,-0.50508 -0.50507,-0.50508 -0.20515,0 -0.43244,-0.22728 -0.50508,-0.50508 -0.0726,-0.27779 -0.31318,-0.50507 -0.53453,-0.50507 -0.22135,0 -0.40245,-0.16281 -0.40245,-0.36179 0,-0.19899 -0.22728,-0.43393 -0.50508,-0.5221 -0.27779,-0.0882 -0.50507,-0.31545 -0.50507,-0.50507 0,-0.18963 -0.22729,-0.41691 -0.50508,-0.50508 -0.27779,-0.0882 -0.50508,-0.31545 -0.50508,-0.50508 0,-0.18962 -0.22728,-0.4169 -0.50507,-0.50507 -0.27779,-0.0882 -0.50508,-0.31545 -0.50508,-0.50508 0,-0.18962 -0.22728,-0.41691 -0.50507,-0.50507 -0.2778,-0.0882 -0.50508,-0.31546 -0.50508,-0.50508 0,-0.18962 -0.22728,-0.41691 -0.50508,-0.50508 -0.27779,-0.0882 -0.50507,-0.30985 -0.50507,-0.49264 0,-0.18278 -0.22729,-0.39177 -0.50508,-0.46441 -0.27779,-0.0726 -0.50508,-0.29993 -0.50508,-0.50508 0,-0.20515 -0.22728,-0.43243 -0.50507,-0.50508 -0.27779,-0.0726 -0.50508,-0.29992 -0.50508,-0.50507 0,-0.20515 -0.22728,-0.43243 -0.50507,-0.50508 -0.2778,-0.0726 -0.50508,-0.29993 -0.50508,-0.50507 0,-0.20515 -0.22728,-0.43244 -0.50508,-0.50508 -0.27779,-0.0726 -0.50507,-0.31318 -0.50507,-0.53453 0,-0.22135 -0.16281,-0.40245 -0.36179,-0.40245 -0.19899,0 -0.43393,-0.22728 -0.5221,-0.50508 -0.0882,-0.27779 -0.31545,-0.50507 -0.50507,-0.50507 -0.18963,0 -0.41691,-0.22729 -0.50508,-0.50508 -0.0882,-0.27779 -0.31545,-0.50508 -0.50508,-0.50508 -0.18962,0 -0.4169,-0.22728 -0.50507,-0.50507 -0.0882,-0.27779 -0.31545,-0.50508 -0.50508,-0.50508 -0.18962,0 -0.41691,-0.22728 -0.50507,-0.50507 -0.0882,-0.2778 -0.31546,-0.50508 -0.50508,-0.50508 -0.18962,0 -0.41691,-0.22728 -0.50508,-0.50508 -0.0882,-0.27779 -0.31545,-0.50507 -0.50507,-0.50507 -0.18963,0 -0.41691,-0.22729 -0.50508,-0.50508 -0.0882,-0.27779 -0.31545,-0.50508 -0.50508,-0.50508 -0.18962,0 -0.4169,-0.22728 -0.50507,-0.50507 -0.0882,-0.27779 -0.35152,-0.51405 -0.58523,-0.52502 -0.34911,-0.0164 -0.35734,-0.0463 -0.0461,-0.16772 0.20835,-0.0813 2.10833,-1.8848 4.2222,-4.00781 2.11386,-2.12301 3.98895,-3.89134 4.16687,-3.92964 0.17793,-0.0383 2.19424,1.77419 4.48071,4.02775 2.28647,2.25355 4.30362,4.09736 4.48255,4.09736 0.17894,0 0.32534,0.14998 0.32534,0.33329 0,0.35786 5.09688,5.34184 5.69921,5.57298 0.19894,0.0763 0.36171,0.31282 0.36171,0.52553 0,0.2127 0.1811,0.38673 0.40245,0.38673 0.22134,0 0.45913,0.21678 0.52842,0.48173 0.0693,0.26495 0.34275,0.53842 0.6077,0.6077 0.26495,0.0693 0.48173,0.30708 0.48173,0.52843 0,0.23409 0.21129,0.40245 0.50508,0.40245 0.33672,0 0.50508,0.16836 0.50508,0.50507 0,0.32629 0.16835,0.50508 0.47562,0.50508 0.26323,0 0.5346,0.22554 0.6077,0.50508 0.0972,0.3718 0.34447,0.50507 0.93698,0.50507 0.59252,0 0.83975,-0.13327 0.93698,-0.50507 0.0727,-0.2778 0.29993,-0.50508 0.50508,-0.50508 0.20514,0 0.43243,-0.22728 0.50507,-0.50508 0.0727,-0.27779 0.29993,-0.50507 0.50508,-0.50507 0.20515,0 0.43243,-0.22729 0.50508,-0.50508 0.0726,-0.27779 0.29992,-0.50508 0.50507,-0.50508 0.20515,0 0.43243,-0.22728 0.50508,-0.50507 0.0726,-0.27779 0.28163,-0.50508 0.46441,-0.50508 0.18279,0 0.40448,-0.22728 0.49264,-0.50507 0.0882,-0.2778 0.31546,-0.50508 0.50508,-0.50508 0.18962,0 0.41691,-0.22729 0.50508,-0.50508 0.0882,-0.27779 0.32311,-0.50507 0.52209,-0.50507 0.19898,0 0.36179,-0.18111 0.36179,-0.40245 0,-0.22135 0.22728,-0.46189 0.50508,-0.53453 0.27779,-0.0727 0.50507,-0.29993 0.50507,-0.50508 0,-0.20515 0.22729,-0.43243 0.50508,-0.50508 0.27779,-0.0726 0.50508,-0.29992 0.50508,-0.50507 0,-0.20515 0.22728,-0.43243 0.50507,-0.50508 0.27779,-0.0726 0.50508,-0.28163 0.50508,-0.46441 0,-0.18279 0.22728,-0.40448 0.50507,-0.49264 0.2778,-0.0882 0.50508,-0.31546 0.50508,-0.50508 0,-0.18962 0.22728,-0.41691 0.50508,-0.50508 0.27779,-0.0882 0.50507,-0.30985 0.50507,-0.49264 0,-0.18278 0.22729,-0.39177 0.50508,-0.46441 0.27779,-0.0727 0.50508,-0.29993 0.50508,-0.50508 0,-0.20515 0.22728,-0.43243 0.50507,-0.50508 0.27779,-0.0726 0.50508,-0.29993 0.50508,-0.50507 0,-0.20515 0.22728,-0.43243 0.50507,-0.50508 0.2778,-0.0726 0.50508,-0.29993 0.50508,-0.50507 0,-0.20515 0.22728,-0.43244 0.50508,-0.50508 0.27779,-0.0727 0.50507,-0.31318 0.50507,-0.53453 0,-0.22135 0.18111,-0.40245 0.40245,-0.40245 0.22135,0 0.46189,-0.22728 0.53453,-0.50508 0.0726,-0.27779 0.29993,-0.50507 0.50508,-0.50507 0.20515,0 0.43243,-0.22729 0.50508,-0.50508 0.0726,-0.27779 0.29992,-0.50508 0.50507,-0.50508 0.20515,0 0.43243,-0.22728 0.50508,-0.50507 0.0726,-0.27779 0.29993,-0.50508 0.50507,-0.50508 0.20515,0 0.43243,-0.22728 0.50508,-0.50507 0.0727,-0.2778 0.29993,-0.50508 0.50508,-0.50508 0.20514,0 0.43243,-0.22729 0.50507,-0.50508 0.0727,-0.27779 0.29993,-0.50507 0.50508,-0.50507 0.20515,0 0.43243,-0.22729 0.50508,-0.50508 0.0726,-0.27779 0.29992,-0.50508 0.50507,-0.50508 0.20515,0 0.43243,-0.22728 0.50508,-0.50507 0.0726,-0.27779 0.29993,-0.50508 0.50507,-0.50508 0.20515,0 0.43244,-0.22728 0.50508,-0.50507 0.0727,-0.2778 0.28163,-0.50508 0.46442,-0.50508 0.18278,0 0.40447,-0.22729 0.49264,-0.50508 0.0882,-0.27779 0.31545,-0.50507 0.50507,-0.50507 0.18963,0 0.41691,-0.22729 0.50508,-0.50508 0.0882,-0.27779 0.31545,-0.50508 0.50508,-0.50508 0.18962,0 0.4169,-0.22728 0.50507,-0.50507 0.0882,-0.27779 0.30986,-0.50508 0.49264,-0.50508 0.18279,0 0.39177,-0.22728 0.46442,-0.50507 0.0726,-0.2778 0.31318,-0.50508 0.53453,-0.50508 0.22135,0 0.40245,-0.1811 0.40245,-0.40245 0,-0.22135 0.22728,-0.46189 0.50507,-0.53453 0.27954,-0.0731 0.50508,-0.34447 0.50508,-0.6077 0,-0.30727 0.17878,-0.47563 0.50508,-0.47563 0.33671,0 0.50507,-0.16836 0.50507,-0.50507 0,-0.33672 0.16836,-0.50508 0.50508,-0.50508 0.33672,0 0.50508,-0.16836 0.50508,-0.50507 0,-0.33672 0.16835,-0.50508 0.50507,-0.50508 0.33672,0 0.50508,-0.16836 0.50508,-0.50508 0,-0.33671 0.16836,-0.50507 0.50507,-0.50507 0.33672,0 0.50508,-0.16836 0.50508,-0.50508 0,-0.33672 0.16836,-0.50508 0.50508,-0.50508 0.33671,0 0.50507,-0.16836 0.50507,-0.50507 0,-0.33672 0.16836,-0.50508 0.50508,-0.50508 0.29378,0 0.50508,-0.16836 0.50508,-0.40245 0,-0.22135 0.22728,-0.46188 0.50507,-0.53453 0.27779,-0.0726 0.50508,-0.29993 0.50508,-0.50507 0,-0.20515 0.22728,-0.43244 0.50507,-0.50508 0.2778,-0.0727 0.50508,-0.28163 0.50508,-0.46442 0,-0.18278 0.22728,-0.40447 0.50508,-0.49264 0.27779,-0.0882 0.50507,-0.31545 0.50507,-0.50507 0,-0.18963 0.22729,-0.41691 0.50508,-0.50508 0.27779,-0.0882 0.50508,-0.31545 0.50508,-0.50508 0,-0.18962 0.22728,-0.4169 0.50507,-0.50507 0.27779,-0.0882 0.50508,-0.31545 0.50508,-0.50508 0,-0.18962 0.22728,-0.41691 0.50507,-0.50507 0.2778,-0.0882 0.50508,-0.31546 0.50508,-0.50508 0,-0.18963 0.22729,-0.41691 0.50508,-0.50508 0.27779,-0.0882 0.50507,-0.31545 0.50507,-0.50507 0,-0.18963 0.22729,-0.41691 0.50508,-0.50508 0.27779,-0.0882 0.50508,-0.31545 0.50508,-0.50508 0,-0.18962 0.22728,-0.4169 0.50507,-0.50507 0.27779,-0.0882 0.50508,-0.30986 0.50508,-0.49264 0,-0.18279 0.22728,-0.39177 0.50507,-0.46442 0.2778,-0.0726 0.50508,-0.29993 0.50508,-0.50508 0,-0.20514 0.22729,-0.43243 0.50508,-0.50507 0.27779,-0.0727 0.50507,-0.31318 0.50507,-0.53453 0,-0.22135 0.18111,-0.40245 0.40245,-0.40245 0.22135,0 0.46189,-0.22729 0.53453,-0.50508 0.0727,-0.27779 0.29993,-0.50507 0.50508,-0.50507 0.20515,0 0.43243,-0.22729 0.50508,-0.50508 0.0726,-0.27779 0.29993,-0.50508 0.50507,-0.50508 0.20515,0 0.43243,-0.22728 0.50508,-0.50507 0.0726,-0.27779 0.29993,-0.50508 0.50507,-0.50508 0.20515,0 0.43244,-0.22728 0.50508,-0.50508 0.0727,-0.27779 0.29993,-0.50507 0.50508,-0.50507 0.20514,0 0.43243,-0.22729 0.50507,-0.50508 0.0726,-0.27779 0.28163,-0.50507 0.46442,-0.50507 0.18278,0 0.40447,-0.22729 0.49264,-0.50508 0.0882,-0.27779 0.31545,-0.50508 0.50508,-0.50508 0.18962,0 0.4169,-0.22728 0.50507,-0.50507 0.0882,-0.27779 0.31546,-0.50508 0.50508,-0.50508 0.18962,0 0.41691,-0.22728 0.50507,-0.50508 0.0882,-0.27779 0.30986,-0.50507 0.49265,-0.50507 0.18278,0 0.39177,-0.22729 0.46441,-0.50508 0.0727,-0.27779 0.29993,-0.50507 0.50508,-0.50507 0.20514,0 0.43243,-0.22729 0.50507,-0.50508 0.0726,-0.27779 0.29993,-0.50508 0.50508,-0.50508 0.20515,0 0.43243,-0.22728 0.50508,-0.50507 0.0726,-0.27779 0.31318,-0.50508 0.53453,-0.50508 0.22134,0 0.40245,-0.1628 0.40245,-0.36179 0,-0.19898 0.22728,-0.43392 0.50507,-0.52209 0.27779,-0.0882 0.50508,-0.32311 0.50508,-0.5221 0,-0.21755 0.25171,-0.36179 0.63134,-0.36179 0.34724,0 0.63135,0.11664 0.63135,0.25919 0,0.32029 2.17274,2.51873 2.48928,2.51873 0.12635,0 0.28917,0.22729 0.36181,0.50508 0.0727,0.27779 0.29993,0.50508 0.50508,0.50508 0.20514,0 0.43243,0.22728 0.50507,0.50507 0.0727,0.27779 0.29993,0.50508 0.50508,0.50508 0.20515,0 0.43243,0.22728 0.50508,0.50507 0.0726,0.2778 0.29993,0.50508 0.50507,0.50508 0.20515,0 0.43243,0.22729 0.50508,0.50508 0.0726,0.27779 0.29993,0.50507 0.50508,0.50507 0.20514,0 0.43243,0.22729 0.50507,0.50508 0.0727,0.27779 0.31318,0.50508 0.53453,0.50508 0.58401,0 0.49861,0.94559 -0.10263,1.13642 -0.27779,0.0882 -0.50507,0.25732 -0.50507,0.37589 0,0.281 -2.2473,2.5283 -2.5283,2.5283 -0.11857,0 -0.28772,0.22728 -0.37589,0.50507 -0.0882,0.27779 -0.31545,0.50508 -0.50508,0.50508 -0.18962,0 -0.4169,0.22728 -0.50507,0.50508 -0.0882,0.27779 -0.30986,0.50507 -0.49264,0.50507 -0.18279,0 -0.39177,0.22729 -0.46442,0.50508 -0.0726,0.27779 -0.31318,0.50507 -0.53453,0.50507 -0.23409,0 -0.40245,0.21129 -0.40245,0.50508 0,0.33672 -0.16836,0.50508 -0.50507,0.50508 -0.33672,0 -0.50508,0.16836 -0.50508,0.50507 0,0.33672 -0.16836,0.50508 -0.50508,0.50508 -0.33671,0 -0.50507,0.16836 -0.50507,0.50508 0,0.33671 -0.16836,0.50507 -0.50508,0.50507 -0.33672,0 -0.50508,0.16836 -0.50508,0.50508 0,0.33672 -0.16836,0.50507 -0.50507,0.50507 -0.33672,0 -0.50508,0.16836 -0.50508,0.50508 0,0.33672 -0.16836,0.50508 -0.50507,0.50508 -0.33672,0 -0.50508,0.16836 -0.50508,0.50507 0,0.33672 -0.16836,0.50508 -0.50508,0.50508 -0.33671,0 -0.50507,0.16836 -0.50507,0.50508 0,0.33671 -0.16836,0.50507 -0.50508,0.50507 -0.33672,0 -0.50508,0.16836 -0.50508,0.50508 0,0.33672 -0.16836,0.50507 -0.50507,0.50507 -0.33672,0 -0.50508,0.16836 -0.50508,0.50508 0,0.33672 -0.16836,0.50508 -0.50508,0.50508 -0.33671,0 -0.50507,0.16836 -0.50507,0.50507 0,0.33672 -0.16836,0.50508 -0.50508,0.50508 -0.33671,0 -0.50507,0.16836 -0.50507,0.50508 0,0.33671 -0.16836,0.50507 -0.50508,0.50507 -0.33672,0 -0.50508,0.16836 -0.50508,0.50508 0,0.33671 -0.16836,0.50507 -0.50507,0.50507 -0.33672,0 -0.50508,0.16836 -0.50508,0.50508 0,0.33672 -0.16836,0.50508 -0.50508,0.50508 -0.33671,0 -0.50507,0.16836 -0.50507,0.50507 0,0.33672 -0.16836,0.50508 -0.50508,0.50508 -0.33671,0 -0.50507,0.16836 -0.50507,0.50508 0,0.33671 -0.16836,0.50507 -0.50508,0.50507 -0.33672,0 -0.50508,0.16836 -0.50508,0.50508 0,0.33671 -0.16836,0.50507 -0.50507,0.50507 -0.33672,0 -0.50508,0.16836 -0.50508,0.50508 0,0.33672 -0.16836,0.50508 -0.50508,0.50508 -0.27779,0 -0.50507,0.1628 -0.50507,0.36179 0,0.19898 -0.22729,0.43392 -0.50508,0.52209 -0.27779,0.0882 -0.50507,0.31545 -0.50507,0.50508 0,0.18962 -0.22729,0.4169 -0.50508,0.50507 -0.27779,0.0882 -0.50508,0.25577 -0.50508,0.37245 0,0.27679 -3.2651,3.54189 -3.54189,3.54189 -0.11668,0 -0.28428,0.22729 -0.37245,0.50508 -0.0882,0.27779 -0.32311,0.50508 -0.52209,0.50508 -0.19898,0 -0.36179,0.22728 -0.36179,0.50507 0,0.33672 -0.16836,0.50508 -0.50508,0.50508 -0.33671,0 -0.50507,0.16836 -0.50507,0.50508 0,0.33671 -0.16836,0.50507 -0.50508,0.50507 -0.33672,0 -0.50508,0.16836 -0.50508,0.50508 0,0.33671 -0.16836,0.50507 -0.50507,0.50507 -0.33672,0 -0.50508,0.16836 -0.50508,0.50508 0,0.33672 -0.16836,0.50508 -0.50508,0.50508 -0.33671,0 -0.50507,0.16836 -0.50507,0.50507 0,0.33672 -0.16836,0.50508 -0.50508,0.50508 -0.33671,0 -0.50507,0.16836 -0.50507,0.50508 0,0.33671 -0.16836,0.50507 -0.50508,0.50507 -0.33672,0 -0.50508,0.16836 -0.50508,0.50508 0,0.33671 -0.16836,0.50507 -0.50507,0.50507 -0.33672,0 -0.50508,0.16836 -0.50508,0.50508 0,0.33672 -0.16836,0.50508 -0.50508,0.50508 -0.33671,0 -0.50507,0.16836 -0.50507,0.50507 0,0.33672 -0.16836,0.50508 -0.50508,0.50508 -0.33671,0 -0.50507,0.16836 -0.50507,0.50508 0,0.33671 -0.16836,0.50507 -0.50508,0.50507 -0.33672,0 -0.50508,0.16836 -0.50508,0.50508 0,0.33672 -0.16836,0.50507 -0.50507,0.50507 -0.33672,0 -0.50508,0.16836 -0.50508,0.50508 0,0.33672 -0.16836,0.50508 -0.50508,0.50508 -0.33671,0 -0.50507,0.16836 -0.50507,0.50507 0,0.33672 -0.16836,0.50508 -0.50508,0.50508 -0.33671,0 -0.50507,0.16836 -0.50507,0.50508 0,0.33671 -0.16836,0.50507 -0.50508,0.50507 -0.33672,0 -0.50508,0.16836 -0.50508,0.50508 0,0.33672 -0.16836,0.50507 -0.50507,0.50507 -0.33672,0 -0.50508,0.16836 -0.50508,0.50508 0,0.33672 -0.16836,0.50508 -0.50508,0.50508 -0.33671,0 -0.50507,0.16836 -0.50507,0.50507 0,0.33672 -0.16836,0.50508 -0.50508,0.50508 -0.33671,0 -0.50507,0.16836 -0.50507,0.50508 0,0.32629 -0.16836,0.50507 -0.47563,0.50507 -0.26323,0 -0.5346,0.22554 -0.6077,0.50508 -0.0726,0.27779 -0.31318,0.50507 -0.53453,0.50507 -0.22135,0 -0.40245,0.10176 -0.40245,0.22611 0,0.27674 -5.27753,5.58227 -5.55281,5.58227 -0.10816,0 -0.25609,0.22729 -0.32874,0.50508 -0.0726,0.27779 -0.31318,0.50507 -0.53453,0.50507 -0.23409,0 -0.40245,0.2113 -0.40245,0.50508 0,0.33672 -0.16836,0.50508 -0.50508,0.50508 -0.33671,0 -0.50507,0.16836 -0.50507,0.50507 0,0.33672 -0.16836,0.50508 -0.50508,0.50508 -0.33671,0 -0.50507,0.16836 -0.50507,0.50508 0,0.33671 -0.16836,0.50507 -0.50508,0.50507 -0.33672,0 -0.50508,0.16836 -0.50508,0.50508 0,0.33672 -0.16836,0.50507 -0.50507,0.50507 -0.33672,0 -0.50508,0.16836 -0.50508,0.50508 0,0.33672 -0.16836,0.50508 -0.50508,0.50508 -0.33671,0 -0.50507,0.16836 -0.50507,0.50507 0,0.33672 -0.16836,0.50508 -0.50508,0.50508 -0.33671,0 -0.50507,0.16836 -0.50507,0.50508 0,0.33671 -0.16836,0.50507 -0.50508,0.50507 -0.33672,0 -0.50508,0.16836 -0.50508,0.50508 0,0.33672 -0.16836,0.50507 -0.50507,0.50507 -0.33672,0 -0.50508,0.16836 -0.50508,0.50508 0,0.33672 -0.16836,0.50508 -0.50508,0.50508 -0.33671,0 -0.50507,0.16836 -0.50507,0.50507 0,0.33672 -0.16836,0.50508 -0.50508,0.50508 -0.33671,0 -0.50507,0.16836 -0.50507,0.50508 0,0.33671 -0.16836,0.50507 -0.50508,0.50507 -0.33672,0 -0.50508,0.16836 -0.50508,0.50508 0,0.3294 -0.16836,0.50508 -0.48403,0.50508 -0.26621,0 -0.54135,0.14205 -0.61141,0.31567 -0.1019,0.25254 -0.13136,0.25254 -0.14731,0 z"
         id="path937"
         transform="scale(0.26458333)" />
      <path
         style="fill:#000000;fill-opacity:1;stroke:none;stroke-width:1.08524;stroke-linecap:square;stroke-linejoin:round;paint-order:stroke fill markers"
         d="M -412.36461,225.25479 V 145.2002 h 80.05459 80.05459 v 80.05459 80.05459 h -80.05459 -80.05459 z m 151.19141,71.52242 c 0.16493,-0.10487 0.42063,-0.50828 0.56821,-0.89645 0.38748,-1.01914 0.37688,-140.19232 -0.0108,-141.30429 -0.15351,-0.44035 -0.48697,-0.91188 -0.74102,-1.04784 -0.50525,-0.2704 -140.81445,-0.36352 -141.51701,-0.0939 -0.21971,0.0843 -0.39946,0.29944 -0.39946,0.47806 0,0.17862 -0.17047,0.39018 -0.37881,0.47013 -0.33547,0.12873 -0.37881,8.20903 -0.37881,70.62165 v 70.4763 l 0.55257,0.74738 0.55257,0.74739 70.72632,-0.004 c 38.89948,-0.002 70.86126,-0.0897 71.02619,-0.19454 z"
         id="path947"
         transform="scale(0.26458333)" />
      <path
         style="fill:#16c60c;fill-opacity:1;stroke:#16c60c;stroke-width:3.73039;stroke-linecap:square;stroke-linejoin:round;stroke-miterlimit:4;stroke-dasharray:none;stroke-opacity:1;paint-order:stroke fill markers"
         d="m -402.26308,225.12852 v -70.07933 h 69.95306 69.95307 v 70.07933 70.07934 h -69.95307 -69.95306 z m 50.76016,35.48161 c 0,-0.33672 0.16836,-0.50508 0.50508,-0.50508 0.33672,0 0.50508,-0.16836 0.50508,-0.50507 0,-0.33672 0.16836,-0.50508 0.50507,-0.50508 0.33672,0 0.50508,-0.16836 0.50508,-0.50507 0,-0.33672 0.16836,-0.50508 0.50508,-0.50508 0.33671,0 0.50507,-0.16836 0.50507,-0.50508 0,-0.33671 0.16836,-0.50507 0.50508,-0.50507 0.33672,0 0.50508,-0.16836 0.50508,-0.50508 0,-0.33672 0.16835,-0.50508 0.50507,-0.50508 0.33672,0 0.50508,-0.16836 0.50508,-0.50507 0,-0.33672 0.16836,-0.50508 0.50507,-0.50508 0.33672,0 0.50508,-0.16836 0.50508,-0.50507 0,-0.33672 0.16836,-0.50508 0.50508,-0.50508 0.29378,0 0.50507,-0.16836 0.50507,-0.40245 0,-0.22135 0.22729,-0.46189 0.50508,-0.53453 0.27779,-0.0726 0.50508,-0.28163 0.50508,-0.46442 0,-0.18278 0.22728,-0.40447 0.50507,-0.49264 0.27779,-0.0882 0.50508,-0.32311 0.50508,-0.52209 0,-0.19898 0.1811,-0.36179 0.40245,-0.36179 0.22134,0 0.46188,-0.22728 0.53453,-0.50508 0.0726,-0.27779 0.29993,-0.50507 0.50507,-0.50507 0.20515,0 0.43243,-0.22729 0.50508,-0.50508 0.0727,-0.27779 0.29993,-0.50508 0.50508,-0.50508 0.20514,0 0.43243,-0.22728 0.50507,-0.50507 0.0726,-0.27779 0.29993,-0.50508 0.50508,-0.50508 0.20515,0 0.43243,-0.22728 0.50507,-0.50507 0.0727,-0.2778 0.29993,-0.50508 0.50508,-0.50508 0.20515,0 0.43243,-0.22728 0.50508,-0.50508 0.0726,-0.27779 0.29993,-0.50507 0.50507,-0.50507 0.20515,0 0.43243,-0.22729 0.50508,-0.50508 0.0727,-0.27779 0.29993,-0.50508 0.50508,-0.50508 0.20514,0 0.43243,-0.22728 0.50507,-0.50507 0.0727,-0.27779 0.29993,-0.50508 0.50508,-0.50508 0.20515,0 0.43243,-0.22728 0.50508,-0.50507 0.0726,-0.2778 0.29992,-0.50508 0.50507,-0.50508 0.20515,0 0.43243,-0.22729 0.50508,-0.50508 0.0726,-0.27779 0.29993,-0.50507 0.50507,-0.50507 0.20515,0 0.43244,-0.22729 0.50508,-0.50508 0.0727,-0.27779 0.29993,-0.50508 0.50508,-0.50508 0.20514,0 0.43243,-0.22728 0.50507,-0.50507 0.0727,-0.27779 0.29993,-0.50508 0.50508,-0.50508 0.20515,0 0.43243,-0.22728 0.50508,-0.50507 0.0726,-0.2778 0.29992,-0.50508 0.50507,-0.50508 0.20515,0 0.43243,-0.22729 0.50508,-0.50508 0.0726,-0.27779 0.29993,-0.50507 0.50507,-0.50507 0.20515,0 0.43244,-0.22729 0.50508,-0.50508 0.0727,-0.27779 0.29993,-0.50508 0.50508,-0.50508 0.20514,0 0.43243,-0.22728 0.50507,-0.50507 0.0727,-0.27779 0.28163,-0.50508 0.46442,-0.50508 0.18278,0 0.40447,-0.22728 0.49264,-0.50507 0.0882,-0.2778 0.32311,-0.50508 0.52209,-0.50508 0.19899,0 0.36179,-0.22729 0.36179,-0.50508 0,-0.33671 0.16836,-0.50507 0.50508,-0.50507 0.33672,0 0.50508,-0.16836 0.50508,-0.50508 0,-0.33672 0.16835,-0.50508 0.50507,-0.50508 0.33672,0 0.50508,-0.16836 0.50508,-0.50507 0,-0.33672 0.16836,-0.50508 0.50507,-0.50508 0.33672,0 0.50508,-0.16836 0.50508,-0.50507 0,-0.33672 0.16836,-0.50508 0.50508,-0.50508 0.33671,0 0.50507,-0.16836 0.50507,-0.50508 0,-0.33671 0.16836,-0.50507 0.50508,-0.50507 0.27779,0 0.50508,-0.16281 0.50508,-0.36179 0,-0.19899 0.22728,-0.43393 0.50507,-0.5221 0.27779,-0.0882 0.50508,-0.32311 0.50508,-0.52209 0,-0.19898 0.1811,-0.36179 0.40245,-0.36179 0.22134,0 0.46188,-0.22728 0.53453,-0.50508 0.0726,-0.27779 0.29993,-0.50507 0.50507,-0.50507 0.20515,0 0.43244,-0.22729 0.50508,-0.50508 0.0726,-0.27779 0.29993,-0.50508 0.50508,-0.50508 0.20514,0 0.43243,-0.22728 0.50507,-0.50507 0.0727,-0.27779 0.29993,-0.50508 0.50508,-0.50508 0.20515,0 0.43243,-0.22728 0.50508,-0.50507 0.0726,-0.2778 0.29992,-0.50508 0.50507,-0.50508 0.20515,0 0.43243,-0.22729 0.50508,-0.50508 0.0726,-0.27779 0.29993,-0.50507 0.50507,-0.50507 0.20515,0 0.43244,-0.22729 0.50508,-0.50508 0.0727,-0.27779 0.29993,-0.50508 0.50508,-0.50508 0.20514,0 0.43243,-0.22728 0.50507,-0.50507 0.0727,-0.27779 0.29993,-0.50508 0.50508,-0.50508 0.20515,0 0.43243,-0.22728 0.50508,-0.50507 0.0726,-0.2778 0.29992,-0.50508 0.50507,-0.50508 0.20515,0 0.43243,-0.22729 0.50508,-0.50508 0.0726,-0.27779 0.29993,-0.50507 0.50507,-0.50507 0.20515,0 0.43244,-0.22729 0.50508,-0.50508 0.0727,-0.27779 0.29993,-0.50508 0.50508,-0.50508 0.20514,0 0.43243,-0.22728 0.50507,-0.50507 0.0727,-0.27779 0.29993,-0.50508 0.50508,-0.50508 0.20515,0 0.43243,-0.22728 0.50508,-0.50507 0.0726,-0.2778 0.29992,-0.50508 0.50507,-0.50508 0.20515,0 0.43243,-0.22729 0.50508,-0.50508 0.0726,-0.27779 0.29993,-0.50507 0.50507,-0.50507 0.20515,0 0.43244,-0.22729 0.50508,-0.50508 0.0727,-0.27779 0.28163,-0.50508 0.46442,-0.50508 0.18278,0 0.40447,-0.22728 0.49264,-0.50507 0.0882,-0.27779 0.31545,-0.50508 0.50507,-0.50508 0.18963,0 0.41691,-0.22728 0.50508,-0.50507 0.0882,-0.2778 0.32311,-0.50508 0.52209,-0.50508 0.19899,0 0.36179,-0.1811 0.36179,-0.40245 0,-0.22135 0.22729,-0.46189 0.50508,-0.53453 0.27954,-0.0731 0.50508,-0.34447 0.50508,-0.6077 0,-0.30727 0.17878,-0.47563 0.50507,-0.47563 0.33672,0 0.50508,-0.16836 0.50508,-0.50507 0,-0.33672 0.16836,-0.50508 0.50507,-0.50508 0.33672,0 0.50508,-0.16836 0.50508,-0.50508 0,-0.33671 0.16836,-0.50507 0.50508,-0.50507 0.33671,0 0.50507,-0.16836 0.50507,-0.50508 0,-0.33671 0.16836,-0.50507 0.50508,-0.50507 0.33672,0 0.50508,-0.16836 0.50508,-0.50508 0,-0.33672 0.16836,-0.50508 0.50507,-0.50508 0.33672,0 0.50508,-0.16836 0.50508,-0.50507 0,-0.33672 0.16836,-0.50508 0.50507,-0.50508 0.33672,0 0.50508,-0.16836 0.50508,-0.50508 0,-0.33671 0.16836,-0.50507 0.50508,-0.50507 0.27779,0 0.50507,-0.16281 0.50507,-0.36179 0,-0.19899 0.22729,-0.43393 0.50508,-0.5221 0.27779,-0.0882 0.50508,-0.31545 0.50508,-0.50507 0,-0.18962 0.22728,-0.41691 0.50507,-0.50508 0.27779,-0.0882 0.50508,-0.31545 0.50508,-0.50507 0,-0.18963 0.22728,-0.41691 0.50507,-0.50508 0.2778,-0.0882 0.50508,-0.32311 0.50508,-0.52209 0,-0.19899 0.1811,-0.36179 0.40245,-0.36179 0.22135,0 0.46189,-0.22729 0.53453,-0.50508 0.0727,-0.27779 0.29993,-0.50508 0.50508,-0.50508 0.20514,0 0.43243,-0.22728 0.50507,-0.50507 0.0727,-0.27779 0.29993,-0.50508 0.50508,-0.50508 0.20515,0 0.42968,-0.21678 0.49897,-0.48173 0.0693,-0.26495 0.34275,-0.53841 0.6077,-0.6077 0.26495,-0.0693 0.48173,-0.30708 0.48173,-0.52842 0,-0.22135 0.1811,-0.40245 0.40245,-0.40245 0.22135,0 0.46189,-0.22729 0.53453,-0.50508 0.0727,-0.27779 0.29993,-0.50508 0.50508,-0.50508 0.20514,0 0.43243,-0.22728 0.50507,-0.50507 0.0726,-0.27779 0.29993,-0.50508 0.50508,-0.50508 0.20515,0 0.43243,-0.22728 0.50508,-0.50508 0.0726,-0.27779 0.29993,-0.50507 0.50507,-0.50507 0.20515,0 0.43243,-0.22729 0.50508,-0.50508 0.0726,-0.27779 0.29993,-0.50507 0.50507,-0.50507 0.20515,0 0.42969,-0.21678 0.49897,-0.48173 0.0693,-0.26495 0.34276,-0.53842 0.60771,-0.60771 0.39584,-0.10351 0.48173,-0.35952 0.48173,-1.43595 0,-1.09759 -0.0819,-1.33138 -0.50508,-1.44205 -0.27779,-0.0727 -0.50508,-0.29993 -0.50508,-0.50508 0,-0.20514 -0.22728,-0.43243 -0.50507,-0.50507 -0.27779,-0.0726 -0.50508,-0.28163 -0.50508,-0.46442 0,-0.18278 -0.22728,-0.40447 -0.50508,-0.49264 -0.27779,-0.0882 -0.50507,-0.31545 -0.50507,-0.50508 0,-0.18962 -0.22729,-0.4169 -0.50508,-0.50507 -0.27779,-0.0882 -0.50507,-0.32311 -0.50507,-0.5221 0,-0.19898 -0.18111,-0.36179 -0.40245,-0.36179 -0.22135,0 -0.46189,-0.22728 -0.53453,-0.50507 -0.0731,-0.27954 -0.34447,-0.50508 -0.60771,-0.50508 -0.30726,0 -0.47562,-0.17878 -0.47562,-0.50507 0,-0.33672 -0.16836,-0.50508 -0.50508,-0.50508 -0.33671,0 -0.50507,-0.16836 -0.50507,-0.50508 0,-0.33671 -0.16836,-0.50507 -0.50508,-0.50507 -0.33671,0 -0.50507,-0.16836 -0.50507,-0.50508 0,-0.33672 -0.16836,-0.50508 -0.50508,-0.50508 -0.33672,0 -0.50508,-0.16836 -0.50508,-0.50507 0,-0.44488 -0.16836,-0.50508 -1.4126,-0.50508 -1.20022,0 -1.43246,0.0759 -1.54468,0.50508 -0.0726,0.27779 -0.29993,0.50507 -0.50508,0.50507 -0.20514,0 -0.43243,0.22729 -0.50507,0.50508 -0.0727,0.27779 -0.29993,0.50508 -0.50508,0.50508 -0.20515,0 -0.43243,0.22728 -0.50508,0.50507 -0.0726,0.27779 -0.25413,0.50508 -0.40331,0.50508 -0.14917,0 -1.091,0.85232 -2.09294,1.89403 -1.00195,1.04172 -1.87692,1.89404 -1.94438,1.89404 -0.12391,0 -0.51098,0.36473 -5.82915,5.49271 -1.62053,1.56258 -3.04433,2.84105 -3.16398,2.84105 -0.11966,0 -0.277,0.22728 -0.34964,0.50508 -0.0727,0.27779 -0.29993,0.50507 -0.50508,0.50507 -0.20514,0 -0.43243,0.22729 -0.50507,0.50508 -0.0727,0.27779 -0.31319,0.50507 -0.53453,0.50507 -0.22135,0 -0.40245,0.16281 -0.40245,0.36179 0,0.19899 -0.22729,0.43393 -0.50508,0.5221 -0.27779,0.0882 -0.50508,0.31545 -0.50508,0.50507 0,0.18963 -0.22728,0.41691 -0.50507,0.50508 -0.27779,0.0882 -0.50508,0.31545 -0.50508,0.50508 0,0.18962 -0.22728,0.4169 -0.50507,0.50507 -0.2778,0.0882 -0.50508,0.24894 -0.50508,0.35728 0,0.10834 -3.83542,4.05556 -8.52316,8.77161 -11.08285,11.14978 -17.65146,17.92694 -17.83247,18.39864 -0.0798,0.20787 -0.3114,0.37794 -0.51474,0.37794 -0.20334,0 -0.44185,0.22728 -0.53002,0.50507 -0.0882,0.2778 -0.31545,0.50508 -0.50508,0.50508 -0.18962,0 -0.41357,0.21679 -0.49767,0.48175 -0.0841,0.26496 -0.31903,0.5455 -0.52209,0.62341 -0.20306,0.0779 -0.36919,0.30245 -0.36919,0.49896 0,0.1965 -0.22729,0.41671 -0.50508,0.48936 -0.27779,0.0726 -0.50508,0.31318 -0.50508,0.53453 0,0.22134 -0.12176,0.40245 -0.27057,0.40245 -0.33493,0 -4.52765,4.16545 -4.52765,4.49819 0,0.13262 -0.22729,0.30056 -0.50508,0.3732 -0.27779,0.0727 -0.50507,0.29993 -0.50507,0.50508 0,0.20515 -0.22729,0.43243 -0.50508,0.50508 -0.27779,0.0726 -0.50508,0.31318 -0.50508,0.53453 0,0.23409 -0.21129,0.40245 -0.50507,0.40245 -0.30974,0 -0.50805,0.17091 -0.51276,0.44194 -0.007,0.4209 -0.0199,0.4209 -0.26509,0 -0.14157,-0.24307 -0.42222,-0.44194 -0.62366,-0.44194 -0.20144,0 -0.36626,-0.16281 -0.36626,-0.36179 0,-0.19899 -0.22728,-0.43393 -0.50508,-0.5221 -0.27779,-0.0882 -0.50507,-0.26112 -0.50507,-0.38434 0,-0.29126 -1.21844,-1.50969 -1.50969,-1.50969 -0.12322,0 -0.29618,-0.22729 -0.38435,-0.50508 -0.0882,-0.27779 -0.31545,-0.50508 -0.50507,-0.50508 -0.18963,0 -0.41691,-0.22728 -0.50508,-0.50507 -0.0882,-0.27779 -0.32311,-0.50508 -0.5221,-0.50508 -0.19898,0 -0.36178,-0.1811 -0.36178,-0.40245 0,-0.22134 -0.22729,-0.46188 -0.50508,-0.53453 -0.27779,-0.0726 -0.50508,-0.29993 -0.50508,-0.50507 0,-0.20515 -0.22728,-0.43243 -0.50507,-0.50508 -0.2778,-0.0727 -0.50508,-0.29993 -0.50508,-0.50508 0,-0.20514 -0.22728,-0.43243 -0.50508,-0.50507 -0.27779,-0.0726 -0.50507,-0.29993 -0.50507,-0.50508 0,-0.20515 -0.22729,-0.43243 -0.50508,-0.50508 -0.27779,-0.0726 -0.50507,-0.29992 -0.50507,-0.50507 0,-0.20515 -0.21678,-0.42968 -0.48173,-0.49897 -0.26495,-0.0693 -0.53842,-0.34275 -0.60771,-0.6077 -0.0693,-0.26495 -0.29382,-0.48173 -0.49897,-0.48173 -0.20514,0 -0.43243,-0.22729 -0.50507,-0.50508 -0.0727,-0.27779 -0.29993,-0.50508 -0.50508,-0.50508 -0.20515,0 -0.43243,-0.22728 -0.50508,-0.50507 -0.0726,-0.27779 -0.29992,-0.50508 -0.50507,-0.50508 -0.20515,0 -0.43243,-0.22728 -0.50508,-0.50507 -0.0726,-0.2778 -0.29993,-0.50508 -0.50507,-0.50508 -0.20515,0 -0.43244,-0.22729 -0.50508,-0.50508 -0.0727,-0.27779 -0.29993,-0.50507 -0.50508,-0.50507 -0.20514,0 -0.43243,-0.22729 -0.50507,-0.50508 -0.0726,-0.27779 -0.29993,-0.50508 -0.50508,-0.50508 -0.20515,0 -0.43243,-0.22728 -0.50508,-0.50507 -0.0726,-0.27779 -0.29993,-0.50508 -0.50507,-0.50508 -0.20515,0 -0.43243,-0.22728 -0.50508,-0.50507 -0.0726,-0.2778 -0.31318,-0.50508 -0.53453,-0.50508 -0.22135,0 -0.40245,-0.16281 -0.40245,-0.36179 0,-0.45636 -0.84277,-0.73552 -1.54633,-0.51222 -0.2949,0.0936 -1.42244,1.06721 -2.50563,2.16359 -1.0832,1.09638 -2.08432,1.99341 -2.22472,1.99341 -0.1404,0 -0.32741,0.22729 -0.41558,0.50508 -0.0882,0.27779 -0.31545,0.50508 -0.50507,0.50508 -0.18963,0 -0.41691,0.22728 -0.50508,0.50507 -0.0882,0.2778 -0.32311,0.50508 -0.5221,0.50508 -0.19898,0 -0.36178,0.17046 -0.36178,0.37881 0,0.20834 -0.0986,0.3788 -0.21903,0.3788 -0.12046,0 -0.85914,0.62496 -1.6415,1.38879 -1.3083,1.27733 -1.42247,1.47925 -1.42247,2.51577 v 1.12699 l 12.87477,12.88905 c 7.08112,7.08898 12.99052,12.88906 13.13198,12.88906 0.14147,0 0.25722,0.1628 0.25722,0.36179 0,0.19898 0.22728,0.43392 0.50507,0.52209 0.27779,0.0882 0.50508,0.26 0.50508,0.38184 0,0.12185 0.58363,0.79604 1.29697,1.49821 1.10719,1.08987 1.43976,1.27668 2.27284,1.27668 0.80752,0 0.97587,-0.0871 0.97587,-0.50508 z"
         id="path949"
         transform="scale(0.26458333)" />
    </g>
  </g>
</svg>
