<?xml version="1.0" encoding="UTF-8" standalone="no"?>
<svg
   xmlns:dc="http://purl.org/dc/elements/1.1/"
   xmlns:cc="http://creativecommons.org/ns#"
   xmlns:rdf="http://www.w3.org/1999/02/22-rdf-syntax-ns#"
   xmlns:svg="http://www.w3.org/2000/svg"
   xmlns="http://www.w3.org/2000/svg"
   xmlns:sodipodi="http://sodipodi.sourceforge.net/DTD/sodipodi-0.dtd"
   xmlns:inkscape="http://www.inkscape.org/namespaces/inkscape"
   width="50"
   height="50"
   viewBox="0 0 13.229166 13.229167"
   version="1.1"
   id="svg8"
   inkscape:version="1.0 (4035a4fb49, 2020-05-01)"
   sodipodi:docname="rainy_sunny.svg">
  <defs
     id="defs2" />
  <sodipodi:namedview
     id="base"
     pagecolor="#ffffff"
     bordercolor="#666666"
     borderopacity="1.0"
     inkscape:pageopacity="0.0"
     inkscape:pageshadow="2"
     inkscape:zoom="5.6"
     inkscape:cx="37.92762"
     inkscape:cy="29.984623"
     inkscape:document-units="mm"
     inkscape:current-layer="layer1"
     inkscape:document-rotation="0"
     showgrid="true"
     units="px"
     inkscape:window-width="1920"
     inkscape:window-height="986"
     inkscape:window-x="-11"
     inkscape:window-y="-11"
     inkscape:window-maximized="1">
    <inkscape:grid
       type="xygrid"
       id="grid10" />
  </sodipodi:namedview>
  <metadata
     id="metadata5">
    <rdf:RDF>
      <cc:Work
         rdf:about="">
        <dc:format>image/svg+xml</dc:format>
        <dc:type
           rdf:resource="http://purl.org/dc/dcmitype/StillImage" />
        <dc:title />
      </cc:Work>
    </rdf:RDF>
  </metadata>
  <g
     inkscape:label="Warstwa 1"
     inkscape:groupmode="layer"
     id="layer1">
    <g
       transform="matrix(0.30701841,0,0,0.30701841,-65.19239,-31.810488)"
       id="g1363">
      <path
         style="fill:#00ccff;stroke:#00ccff;stroke-width:5.68063;stroke-linecap:square;stroke-linejoin:round;stroke-miterlimit:4;stroke-dasharray:none;stroke-opacity:1;paint-order:stroke fill markers"
         d="m 856.87704,542.21809 c -0.22019,-0.33164 -0.46513,-0.40587 -1.53963,-0.46658 -1.20462,-0.0681 -1.27778,-0.0964 -1.27778,-0.49508 0,-0.30214 -0.12746,-0.45486 -0.44643,-0.53492 -0.26771,-0.0672 -0.44643,-0.23971 -0.44643,-0.43094 0,-0.1754 -0.24107,-0.57697 -0.53571,-0.89239 -0.33279,-0.35625 -0.53572,-0.76407 -0.53572,-1.07661 0,-0.27672 -0.20089,-0.74188 -0.44643,-1.03368 -0.36734,-0.43656 -0.44643,-0.71984 -0.44643,-1.59906 0,-0.88112 0.0646,-1.11148 0.36835,-1.31351 0.23536,-0.15654 0.40435,-0.51396 0.46807,-0.99 0.0796,-0.59426 0.18568,-0.76657 0.52451,-0.85161 0.27041,-0.0679 0.42479,-0.23656 0.42479,-0.46419 0,-0.20738 0.18607,-0.44235 0.44299,-0.55941 0.24365,-0.11101 0.49014,-0.35036 0.54775,-0.53188 0.0576,-0.18153 0.24398,-0.33005 0.41415,-0.33005 0.40054,0 0.73797,-0.34292 0.73797,-0.75 0,-0.26213 0.14895,-0.32143 0.80739,-0.32143 0.68794,0 0.8375,-0.066 1.01081,-0.44642 0.11187,-0.24554 0.33923,-0.44643 0.50524,-0.44643 0.60181,0 1.39282,-0.38745 1.48123,-0.72552 0.0606,-0.23186 0.24574,-0.34591 0.5614,-0.34591 0.25902,0 0.68039,-0.19421 0.93639,-0.43159 0.25599,-0.23737 0.73463,-0.48208 1.06363,-0.5438 0.4814,-0.0903 0.59819,-0.19598 0.59819,-0.54123 0,-0.39115 0.0821,-0.43377 0.93024,-0.48298 0.81917,-0.0475 0.94498,-0.10728 1.05363,-0.5004 0.0679,-0.24554 0.1314,2.70759 0.14119,6.5625 0.0168,6.63688 7.4e-4,7.00893 -0.30363,7.00893 -0.44009,0 -0.75,0.3468 -0.75,0.83928 0,0.24861 -0.10724,0.41072 -0.27169,0.41072 -0.14942,0 -0.36011,0.19408 -0.46819,0.43129 -0.10808,0.23721 -0.3534,0.47232 -0.54514,0.52246 -0.19175,0.0502 -0.39222,0.25785 -0.44549,0.46157 -0.0791,0.30239 -0.23788,0.37039 -0.865,0.37039 -0.99814,0 -1.33306,0.13939 -1.33306,0.55482 0,0.29333 -0.13882,0.33804 -1.04965,0.33804 -0.88459,0 -1.09082,-0.062 -1.31151,-0.39438 z"
         id="path915"
         transform="scale(0.26458333)" />
      <path
         style="fill:#00ccff;stroke:#00ccff;stroke-width:5.30268;stroke-linecap:square;stroke-linejoin:round;stroke-miterlimit:4;stroke-dasharray:none;stroke-opacity:1;paint-order:stroke fill markers"
         d="m 897.09534,542.27443 c 0,-0.40854 -0.33458,-0.55482 -1.26902,-0.55482 -0.58674,0 -0.7324,-0.0744 -0.87384,-0.44643 -0.0996,-0.26183 -0.31122,-0.44643 -0.51193,-0.44643 -0.21359,0 -0.38319,-0.16331 -0.45127,-0.43452 -0.06,-0.23899 -0.26958,-0.48548 -0.46578,-0.54775 -0.1962,-0.0623 -0.35673,-0.25245 -0.35673,-0.42262 0,-0.40209 -0.34337,-0.73796 -0.75442,-0.73796 -0.30406,0 -0.32257,-0.19394 -0.27679,-2.89959 l 0.0491,-2.89959 0.49107,-0.23515 c 0.28438,-0.13619 0.49107,-0.37994 0.49107,-0.57916 0,-0.218 0.16351,-0.38503 0.44643,-0.45604 0.32051,-0.0804 0.44643,-0.2325 0.44643,-0.53912 0,-0.32202 0.0974,-0.42707 0.3961,-0.42707 0.21785,0 0.5677,-0.1997 0.77743,-0.44379 0.21083,-0.24535 0.69245,-0.5081 1.07712,-0.58763 0.52606,-0.10875 0.70969,-0.24006 0.75284,-0.53835 0.0451,-0.31167 0.17632,-0.39502 0.625,-0.39695 0.99532,-0.004 1.37151,-0.18075 1.37151,-0.64339 0,-0.37601 0.0815,-0.4256 0.69968,-0.4256 0.93005,0 1.2646,-0.14678 1.2646,-0.55482 0,-0.20251 0.12529,-0.33844 0.3125,-0.33903 0.17188,-5.6e-4 0.61384,-0.0847 0.98214,-0.18697 0.48175,-0.13379 0.66965,-0.28383 0.66965,-0.53472 0,-0.25533 0.12272,-0.34875 0.45817,-0.34875 0.53217,0 1.14519,-0.29426 1.45579,-0.69881 0.17231,-0.22443 0.21872,0.9864 0.22322,5.82462 l 0.006,6.10796 -0.44642,0.44643 c -0.36755,0.36755 -0.44643,0.61929 -0.44643,1.42482 0,0.9346 -0.022,0.98093 -0.49107,1.03491 -0.34434,0.0396 -0.50747,0.17154 -0.54594,0.44149 -0.0334,0.23438 -0.22551,0.42783 -0.49107,0.49448 -0.30894,0.0775 -0.43621,0.23286 -0.43621,0.53235 0,0.39866 -0.0732,0.42701 -1.27778,0.49508 -1.0745,0.0607 -1.31944,0.13494 -1.53964,0.46658 -0.22068,0.33236 -0.42691,0.39438 -1.3115,0.39438 -0.91083,0 -1.04965,-0.0447 -1.04965,-0.33804 z"
         id="path919"
         transform="scale(0.26458333)" />
      <path
         style="fill:#000000;fill-opacity:1;stroke:none;stroke-width:1.08524;stroke-linecap:square;stroke-linejoin:round;paint-order:stroke fill markers"
         d="m 854.80862,552.14436 c -0.31115,-0.34078 -0.7806,-0.48403 -1.58629,-0.48403 -0.77484,0 -1.19043,-0.1201 -1.28707,-0.37194 -0.0785,-0.20456 -0.5295,-0.44449 -1.00223,-0.53318 -0.49629,-0.0931 -0.8595,-0.31211 -0.8595,-0.51826 0,-0.1967 -0.34922,-0.42686 -0.7777,-0.51255 -0.42773,-0.0855 -0.90964,-0.36681 -1.0709,-0.62503 -0.16126,-0.25823 -0.49315,-0.4695 -0.73753,-0.4695 -0.24438,0 -0.44433,-0.1811 -0.44433,-0.40245 0,-0.22134 -0.22728,-0.46188 -0.50507,-0.53453 -0.2778,-0.0726 -0.50508,-0.29993 -0.50508,-0.50507 0,-0.20515 -0.22729,-0.43243 -0.50508,-0.50508 -0.27779,-0.0726 -0.50507,-0.27713 -0.50507,-0.45441 0,-0.17729 -0.1642,-0.38535 -0.36488,-0.46235 -0.20068,-0.077 -0.44061,-0.54374 -0.53318,-1.03717 -0.0926,-0.49344 -0.31348,-0.89716 -0.4909,-0.89716 -0.17743,0 -0.39664,-0.39466 -0.48713,-0.87702 -0.0905,-0.48236 -0.31437,-0.96534 -0.49751,-1.07329 -0.18313,-0.10795 -0.39431,-0.75756 -0.46928,-1.4436 -0.0787,-0.72034 -0.30719,-1.37228 -0.54075,-1.54307 -0.33219,-0.2429 -0.40445,-0.83976 -0.40445,-3.34083 0,-1.67481 -0.069,-3.22486 -0.15328,-3.44456 -0.12035,-0.31361 -0.5482,-0.39946 -1.99086,-0.39946 -1.62517,0 -1.85282,-0.0584 -1.96964,-0.50508 -0.0989,-0.37839 -0.34446,-0.50507 -0.97886,-0.50507 -0.57328,0 -0.94866,-0.16314 -1.1622,-0.50508 -0.17349,-0.27779 -0.46731,-0.50508 -0.65296,-0.50508 -0.18563,0 -0.54321,-0.22728 -0.79461,-0.50507 -0.2514,-0.2778 -0.6535,-0.50508 -0.89357,-0.50508 -0.24006,0 -0.49592,-0.22728 -0.56856,-0.50508 -0.0727,-0.27779 -0.29993,-0.50507 -0.50508,-0.50507 -0.20514,0 -0.43243,-0.22729 -0.50507,-0.50508 -0.0726,-0.27779 -0.29993,-0.50507 -0.50508,-0.50507 -0.20515,0 -0.43243,-0.22729 -0.50508,-0.50508 -0.0726,-0.27779 -0.31318,-0.50508 -0.53453,-0.50508 -0.23352,0 -0.40245,-0.21111 -0.40245,-0.50293 0,-0.27662 -0.22728,-0.64488 -0.50507,-0.81836 -0.29505,-0.18427 -0.50508,-0.58893 -0.50508,-0.97316 0,-0.36175 -0.22728,-0.86341 -0.50508,-1.11481 -0.33825,-0.30612 -0.50507,-0.77781 -0.50507,-1.4281 0,-0.80265 -0.0876,-0.97101 -0.50508,-0.97101 -0.48415,0 -0.50507,-0.16836 -0.50507,-4.06426 0,-3.85187 0.0264,-4.07115 0.50507,-4.19633 0.42443,-0.11099 0.50508,-0.34447 0.50508,-1.46213 0,-1.11767 0.0806,-1.35114 0.50507,-1.46214 0.28597,-0.0748 0.50508,-0.34446 0.50508,-0.62165 0,-0.26927 0.22729,-0.69527 0.50508,-0.94667 0.73568,-0.66578 0.73568,-3.14371 0,-3.33609 -0.27779,-0.0727 -0.50508,-0.29993 -0.50508,-0.50508 0,-0.20515 -0.22728,-0.43243 -0.50508,-0.50507 -0.27779,-0.0727 -0.50507,-0.28164 -0.50507,-0.46442 0,-0.18278 -0.22729,-0.40447 -0.50508,-0.49264 -0.27779,-0.0882 -0.50507,-0.31545 -0.50507,-0.50508 0,-0.18962 -0.22729,-0.4169 -0.50508,-0.50507 -0.27779,-0.0882 -0.50508,-0.31546 -0.50508,-0.50508 0,-0.18962 -0.22728,-0.41691 -0.50507,-0.50508 -0.27779,-0.0882 -0.50508,-0.33375 -0.50508,-0.54573 0,-0.21199 -0.22728,-0.44487 -0.50508,-0.51751 -0.27779,-0.0726 -0.50507,-0.29993 -0.50507,-0.50508 0,-0.20515 -0.22729,-0.43243 -0.50508,-0.50508 -0.36239,-0.0948 -0.50507,-0.34446 -0.50507,-0.88388 0,-0.53942 -0.14269,-0.78912 -0.50508,-0.88388 -0.27779,-0.0727 -0.50508,-0.28929 -0.50508,-0.48144 0,-0.19214 -0.22728,-0.57664 -0.50507,-0.85443 -0.27779,-0.27779 -0.50508,-0.78918 -0.50508,-1.13642 0,-0.3667 -0.14526,-0.63134 -0.34653,-0.63134 -0.20901,0 -0.41064,-0.4009 -0.50806,-1.01016 -0.0965,-0.60336 -0.29965,-1.01015 -0.50451,-1.01015 -0.21961,0 -0.38947,-0.41245 -0.47223,-1.14667 -0.0711,-0.63067 -0.31315,-1.34988 -0.53792,-1.59825 -0.22477,-0.24837 -0.41022,-0.84038 -0.41212,-1.31557 -0.005,-1.2404 -0.2547,-2.00043 -0.65735,-2.00043 -0.28836,0 -0.34935,-1.13043 -0.34935,-6.47501 0,-5.81593 0.0439,-6.50714 0.43157,-6.79059 0.34584,-0.25288 0.43363,-0.73499 0.44194,-2.42695 l 0.0104,-2.11138 -1.57836,-0.0752 c -1.1167,-0.0532 -1.57836,-0.17455 -1.57836,-0.41492 0,-0.4815 -0.58051,-0.64632 -2.27648,-0.64632 -1.25577,0 -1.50162,-0.0758 -1.63787,-0.50507 -0.11929,-0.37585 -0.38209,-0.50508 -1.02717,-0.50508 -0.53014,0 -1.06305,-0.19618 -1.37194,-0.50507 -0.27779,-0.2778 -0.73236,-0.50508 -1.01015,-0.50508 -0.47301,0 -0.50508,-0.16836 -0.50508,-2.65165 0,-2.18867 0.0661,-2.65165 0.37881,-2.65165 0.20834,0 0.37881,-0.1065 0.37881,-0.23667 0,-0.21183 0.44288,-0.66897 2.03382,-2.09931 0.27036,-0.24307 0.59754,-0.44194 0.72708,-0.44194 0.12954,0 0.30376,-0.21501 0.38717,-0.47781 0.0834,-0.2628 0.37517,-0.53626 0.64836,-0.6077 0.2732,-0.0714 0.49672,-0.29775 0.49672,-0.50289 0,-0.20515 0.22728,-0.43243 0.50507,-0.50508 0.27779,-0.0726 0.50508,-0.29993 0.50508,-0.50507 0,-0.20515 0.22728,-0.43244 0.50508,-0.50508 0.27779,-0.0727 0.50507,-0.31318 0.50507,-0.53453 0,-0.22135 0.19488,-0.40245 0.43306,-0.40245 0.23818,0 0.66434,-0.22191 0.94702,-0.49312 1.12144,-1.07598 1.58052,-1.44634 1.98534,-1.60169 0.23246,-0.0892 0.42265,-0.32296 0.42265,-0.51946 0,-0.19651 0.22729,-0.41672 0.50508,-0.48936 0.61814,-0.16165 0.71695,-1.55925 0.12627,-1.78592 -0.20835,-0.0799 -0.37881,-0.31173 -0.37881,-0.51508 0,-0.20334 -0.22728,-0.44185 -0.50507,-0.53002 -0.2778,-0.0882 -0.50508,-0.32311 -0.50508,-0.52209 0,-0.19898 -0.16647,-0.36179 -0.36992,-0.36179 -0.20346,0 -0.49156,-0.22728 -0.64023,-0.50508 -0.14867,-0.27779 -0.43678,-0.50507 -0.64023,-0.50507 -0.20346,0 -0.36993,-0.18111 -0.36993,-0.40245 0,-0.22135 -0.22728,-0.46189 -0.50507,-0.53453 -0.27779,-0.0727 -0.50508,-0.29993 -0.50508,-0.50508 0,-0.20515 -0.22352,-0.43145 -0.49671,-0.50289 -0.27319,-0.0714 -0.56496,-0.3449 -0.64836,-0.6077 -0.0834,-0.2628 -0.35803,-0.47781 -0.61026,-0.47781 -0.25223,0 -0.51804,-0.22728 -0.59068,-0.50508 -0.0962,-0.36777 -0.34447,-0.50507 -0.91334,-0.50507 -0.59677,0 -0.78126,-0.11232 -0.78126,-0.47563 0,-0.26323 -0.22554,-0.5346 -0.50508,-0.6077 -0.27779,-0.0726 -0.50507,-0.31318 -0.50507,-0.53453 0,-0.23409 -0.21129,-0.40245 -0.50508,-0.40245 -0.33672,0 -0.50507,-0.16836 -0.50507,-0.50507 0,-0.33672 -0.16836,-0.50508 -0.50508,-0.50508 -0.4714,0 -0.50508,-0.16836 -0.50508,-2.52538 0,-2.09943 0.0652,-2.52538 0.38674,-2.52538 0.2127,0 0.4565,-0.18181 0.54177,-0.40403 0.33226,-0.86586 1.36253,-1.61628 2.21904,-1.61628 1.10149,0 1.65068,-0.21904 1.65068,-0.65836 0,-0.27014 0.45428,-0.35259 1.95717,-0.35524 2.2899,-0.004 3.09359,-0.17481 3.09359,-0.65735 0,-0.27005 0.4873,-0.34935 2.14657,-0.34935 1.80986,0 2.22581,-0.0792 2.65166,-0.50508 0.27779,-0.27779 0.81759,-0.50663 1.19955,-0.50852 1.75453,-0.009 2.54632,-0.77876 1.59382,-1.55005 -0.41333,-0.3347 -0.52053,-0.71222 -0.52053,-1.83312 0,-1.24325 -0.0602,-1.41161 -0.50508,-1.41161 -0.44488,0 -0.50507,-0.16836 -0.50507,-1.4126 0,-1.20022 -0.0759,-1.43246 -0.50508,-1.54469 -0.42544,-0.11125 -0.50508,-0.34446 -0.50508,-1.47903 0,-0.94407 -0.1151,-1.41138 -0.38481,-1.56231 -0.23036,-0.12892 -0.44828,-0.75116 -0.54291,-1.55023 -0.0904,-0.7635 -0.30404,-1.39087 -0.49907,-1.46571 -0.5205,-0.19973 -0.4845,-4.11741 0.0378,-4.11741 0.21045,0 0.37881,-0.22448 0.37881,-0.50508 0,-0.33672 0.16836,-0.50508 0.50508,-0.50508 0.3326,0 0.50507,-0.16835 0.50507,-0.49302 0,-0.4284 0.2069,-0.50288 1.57837,-0.56821 0.8681,-0.0413 2.45413,-0.0383 3.52451,0.007 1.65822,0.0699 1.96897,0.15395 2.10045,0.56821 0.12682,0.39957 0.39349,0.48619 1.4968,0.48619 1.13011,0 1.36339,0.0799 1.47457,0.50508 0.10195,0.38983 0.34447,0.50508 1.06291,0.50508 0.54844,0 1.19461,0.20749 1.57293,0.50507 0.35315,0.27779 0.98358,0.50508 1.40095,0.50508 0.43108,0 0.89863,0.19089 1.08246,0.44194 0.24768,0.33825 0.68087,0.43991 1.84634,0.4333 0.8375,-0.005 1.61355,-0.0994 1.72454,-0.21031 0.11099,-0.11091 0.24291,-1.18338 0.29315,-2.38325 0.0693,-1.65407 0.19139,-2.25471 0.50507,-2.48397 0.31765,-0.23216 0.43423,-0.83496 0.502,-2.59573 0.0633,-1.64465 0.17937,-2.29335 0.41037,-2.29335 0.38192,0 0.63779,-1.11471 0.63779,-2.77857 0,-0.73488 0.14057,-1.31686 0.36257,-1.50111 0.19942,-0.1655 0.43573,-0.63398 0.52514,-1.04107 0.0894,-0.40709 0.32401,-0.74017 0.52131,-0.74017 0.19731,0 0.35874,-0.22728 0.35874,-0.50508 0,-0.33671 0.16836,-0.50507 0.50508,-0.50507 0.33672,0 0.50508,-0.16836 0.50508,-0.50508 0,-0.46546 0.16836,-0.50507 2.14657,-0.50507 1.97821,0 2.14657,0.0396 2.14657,0.50507 0,0.29379 0.16836,0.50508 0.40245,0.50508 0.22135,0 0.46189,0.22728 0.53453,0.50507 0.0727,0.2778 0.27604,0.50508 0.45198,0.50508 0.17595,0 0.37934,0.22729 0.45198,0.50508 0.0727,0.27779 0.29993,0.50507 0.50508,0.50507 0.20515,0 0.43243,0.22729 0.50508,0.50508 0.0726,0.27779 0.31318,0.50508 0.53453,0.50508 0.23409,0 0.40245,0.21129 0.40245,0.50507 0,0.33672 0.16836,0.50508 0.50507,0.50508 0.32065,0 0.50508,0.16836 0.50508,0.46105 0,0.25358 0.2841,0.72796 0.63134,1.05418 0.34724,0.32621 0.63135,0.67768 0.63135,0.78103 0,0.10335 0.45457,0.66102 1.01015,1.23927 0.55559,0.57825 1.01015,1.15574 1.01015,1.2833 0,0.12756 0.15721,0.23193 0.34936,0.23193 0.19214,0 0.40879,0.22729 0.48143,0.50508 0.0726,0.27779 0.29993,0.50507 0.50508,0.50507 0.20515,0 0.43243,0.22729 0.50507,0.50508 0.10667,0.4079 0.34447,0.50508 1.23591,0.50508 0.91852,0 1.21926,-0.13155 1.79141,-0.78359 0.37817,-0.43097 0.68758,-0.84516 0.68758,-0.92044 0,-0.0753 0.22615,-0.3761 0.50256,-0.66851 1.36063,-1.4394 1.77029,-1.97416 1.77029,-2.3109 0,-0.20203 0.1811,-0.36733 0.40245,-0.36733 0.22134,0 0.46188,-0.22728 0.53453,-0.50507 0.0726,-0.27779 0.29993,-0.50508 0.50507,-0.50508 0.20515,0 0.43243,-0.22728 0.50508,-0.50508 0.0726,-0.27779 0.28163,-0.50507 0.46441,-0.50507 0.18279,0 0.40448,-0.22729 0.49265,-0.50508 0.0882,-0.27779 0.32311,-0.50507 0.52209,-0.50507 0.19898,0 0.36179,-0.22729 0.36179,-0.50508 0,-0.33672 0.16836,-0.50508 0.50508,-0.50508 0.33671,0 0.50507,-0.16836 0.50507,-0.50507 0,-0.29379 0.16836,-0.50508 0.40245,-0.50508 0.22135,0 0.46189,-0.22728 0.53453,-0.50508 0.0731,-0.27953 0.34447,-0.50507 0.6077,-0.50507 0.30727,0 0.47563,-0.17879 0.47563,-0.50508 0,-0.45327 0.16836,-0.50507 1.64149,-0.50507 1.47314,0 1.6415,0.0518 1.6415,0.50507 0,0.40556 0.16836,0.50508 0.85443,0.50508 0.64205,0 0.88726,0.12555 0.98651,0.50507 0.0727,0.2778 0.29873,0.50508 0.5024,0.50508 0.26145,0 0.40719,0.38368 0.49572,1.30509 0.072,0.74938 0.28827,1.42417 0.50789,1.58476 0.27301,0.19963 0.40978,0.88061 0.47784,2.37919 0.0712,1.56754 0.19944,2.17563 0.50618,2.39992 0.31153,0.22781 0.43291,0.83768 0.50218,2.52327 0.0721,1.75441 0.18448,2.29096 0.53329,2.54601 0.31923,0.23343 0.44194,0.67496 0.44194,1.59022 0,0.82013 0.13408,1.37834 0.38011,1.58253 0.52956,0.43949 2.89631,0.18985 3.28879,-0.3469 0.1674,-0.22893 0.65229,-0.4118 1.09189,-0.4118 0.51727,0 0.89986,-0.17469 1.10619,-0.50508 0.24353,-0.38994 0.58893,-0.50507 1.51523,-0.50507 0.92631,0 1.27171,-0.11514 1.51523,-0.50508 0.24504,-0.39236 0.58893,-0.50508 1.54101,-0.50508 1.0132,0 1.24848,-0.0875 1.35767,-0.50507 0.11772,-0.45015 0.35545,-0.50774 2.18606,-0.52955 3.20204,-0.0381 4.05931,0.0435 4.2652,0.40627 0.105,0.18499 0.51731,0.40804 0.91625,0.49566 0.64908,0.14256 0.74294,0.29192 0.89266,1.42056 0.0993,0.74859 0.3171,1.31873 0.53584,1.40267 0.49179,0.18872 0.46958,1.09424 -0.0359,1.46386 -0.23227,0.16984 -0.46408,0.82673 -0.54454,1.54307 -0.0771,0.68603 -0.31259,1.37392 -0.5234,1.52863 -0.25255,0.18533 -0.38984,0.73061 -0.40248,1.59843 -0.0267,1.83714 0.30927,2.03461 3.462,2.03461 2.28838,0 2.51198,0.0429 2.63284,0.50508 0.11099,0.42443 0.34447,0.50508 1.46213,0.50508 1.11767,0 1.35114,0.0806 1.46214,0.50507 0.10494,0.40131 0.34446,0.50508 1.16587,0.50508 0.71528,0 1.0338,0.10839 1.0338,0.35179 0,0.45419 0.55461,0.65836 1.78842,0.65836 0.82114,0 0.9895,0.0859 0.9895,0.50508 0,0.4209 0.16835,0.50507 1.01015,0.50507 0.84179,0 1.01015,0.0842 1.01015,0.50508 0,0.31567 0.16836,0.50508 0.44895,0.50508 0.24693,0 0.64356,0.22728 0.88141,0.50507 0.23786,0.27779 0.70443,0.50508 1.03683,0.50508 0.39197,0 0.65077,0.17749 0.73644,0.50508 0.10117,0.38687 0.34447,0.50507 1.03961,0.50507 0.73916,0 0.90752,0.0937 0.90752,0.50508 0,0.33671 0.16836,0.50507 0.50508,0.50507 0.33672,0 0.50508,0.16836 0.50508,0.50508 0,0.33672 0.16836,0.50508 0.50507,0.50508 0.27779,0 0.50508,0.1583 0.50508,0.35178 0,0.38302 0.52961,0.65837 1.26633,0.65837 0.25707,0 0.53954,0.22728 0.6277,0.50508 0.0882,0.27779 0.31546,0.50507 0.50508,0.50507 0.18962,0 0.41691,0.22729 0.50508,0.50508 0.0882,0.27779 0.32311,0.50507 0.52209,0.50507 0.19898,0 0.36179,0.18111 0.36179,0.40245 0,0.22135 0.22728,0.46189 0.50508,0.53453 0.27779,0.0727 0.50507,0.29993 0.50507,0.50508 0,0.20515 0.22729,0.43243 0.50508,0.50508 0.27779,0.0726 0.50508,0.29993 0.50508,0.50507 0,0.20515 0.22728,0.43243 0.50507,0.50508 0.27779,0.0726 0.50508,0.29993 0.50508,0.50508 0,0.20514 0.22728,0.43243 0.50507,0.50507 0.35935,0.094 0.50508,0.34447 0.50508,0.86817 0,0.43723 0.16165,0.79812 0.39815,0.88887 0.21899,0.084 0.50028,0.42139 0.6251,0.74969 0.12482,0.32829 0.40022,0.5969 0.612,0.5969 0.26207,0 0.38506,0.24953 0.38506,0.78126 0,0.56887 0.1373,0.81716 0.50507,0.91334 0.32685,0.0855 0.50508,0.34446 0.50508,0.73397 0,0.33104 0.22728,0.82917 0.50507,1.10697 0.2778,0.27779 0.50508,0.78822 0.50508,1.13428 0,0.3557 0.21954,0.76631 0.50508,0.94463 0.27779,0.17348 0.50507,0.5629 0.50507,0.86537 0,0.81436 0.26088,1.34886 0.65837,1.34886 0.23543,0 0.35179,0.30018 0.35179,0.90753 0,0.69514 0.1182,0.93844 0.50507,1.03961 0.43093,0.11269 0.50508,0.34446 0.50508,1.57871 0,1.11298 0.11345,1.54931 0.49188,1.89179 0.30097,0.27236 0.52151,0.85118 0.56821,1.49123 l 0.0763,1.04609 1.42573,0.075 c 1.16628,0.0613 1.4492,0.16471 1.55472,0.56821 0.10704,0.40933 0.35183,0.49326 1.43863,0.49326 0.92724,0 1.49712,0.14747 1.95173,0.50507 0.361,0.28396 1.02449,0.50508 1.51557,0.50508 0.66109,0 0.90559,0.12281 1.00555,0.50508 0.10013,0.38291 0.34447,0.50507 1.01015,0.50507 0.66569,0 0.91002,0.12217 1.01016,0.50508 0.0726,0.27779 0.33395,0.50507 0.58068,0.50507 0.24673,0 0.5084,0.15584 0.5815,0.34632 0.0731,0.19047 0.4495,0.42577 0.83647,0.5229 0.38697,0.0971 0.85716,0.39585 1.04487,0.66383 0.18771,0.268 0.44641,0.48726 0.57491,0.48726 0.12849,0 0.64359,0.39813 1.14465,0.88473 0.50107,0.4866 1.17426,0.9508 1.49597,1.03154 0.32171,0.0808 0.64185,0.36447 0.71141,0.6305 0.0696,0.26603 0.30759,0.48369 0.52894,0.48369 0.22135,0 0.40245,0.17046 0.40245,0.3788 0,0.20835 0.22728,0.6061 0.50508,0.88389 0.27779,0.27779 0.50507,0.68618 0.50507,0.90752 0,0.22135 0.22729,0.46189 0.50508,0.53453 0.27954,0.0731 0.50508,0.34447 0.50508,0.60771 0,0.30726 0.17878,0.47562 0.50507,0.47562 0.39252,0 0.50508,0.16836 0.50508,0.75547 0,0.48198 0.18285,0.86967 0.50507,1.0709 0.2778,0.17349 0.50508,0.5629 0.50508,0.86537 0,0.81437 0.26088,1.34887 0.65837,1.34887 0.23543,0 0.35178,0.30017 0.35178,0.90753 0,0.69514 0.1182,0.93843 0.50508,1.0396 0.43142,0.11282 0.50508,0.34447 0.50508,1.5884 0,1.24394 0.0736,1.47559 0.50507,1.58841 0.48968,0.12805 0.50508,0.34446 0.50508,7.10052 0,6.80008 -0.0122,6.96844 -0.50508,6.96844 -0.44784,0 -0.50507,0.16836 -0.50507,1.48577 0,1.27339 -0.0722,1.50466 -0.50508,1.61786 -0.38291,0.10013 -0.50508,0.34446 -0.50508,1.01015 0,0.66569 -0.12216,0.91002 -0.50507,1.01015 -0.38291,0.10014 -0.50508,0.34447 -0.50508,1.01016 0,0.66568 -0.12216,0.91001 -0.50508,1.01015 -0.36777,0.0962 -0.50507,0.34446 -0.50507,0.91334 0,0.53172 -0.12299,0.78125 -0.38506,0.78125 -0.21178,0 -0.48718,0.26861 -0.612,0.59691 -0.12482,0.32829 -0.40611,0.66565 -0.6251,0.74968 -0.21898,0.084 -0.39815,0.33573 -0.39815,0.55933 0,0.22359 -0.43481,0.82378 -0.96626,1.33375 -2.72349,2.61342 -4.14036,3.8314 -4.45705,3.8314 -0.19307,0 -0.42316,0.22728 -0.51133,0.50508 -0.0882,0.27779 -0.37993,0.50507 -0.64837,0.50507 -0.26843,0 -0.71534,0.22729 -0.99313,0.50508 -0.27779,0.27779 -0.66788,0.50508 -0.86687,0.50508 -0.19898,0 -0.43392,0.22728 -0.52209,0.50507 -0.11761,0.37057 -0.3821,0.50508 -0.99311,0.50508 -0.45805,0 -1.12176,0.22728 -1.47491,0.50507 -0.35316,0.2778 -0.93573,0.50508 -1.29461,0.50508 -0.37901,0 -0.78472,0.21171 -0.96793,0.50508 -0.25489,0.40814 -0.58893,0.50507 -1.74046,0.50507 -1.21264,0 -1.44471,0.0753 -1.5571,0.50508 -0.10117,0.38687 -0.34447,0.50508 -1.03961,0.50508 h -0.90753 v 4.01115 c 0,3.79877 -0.0267,4.01815 -0.50507,4.14324 -0.41973,0.10976 -0.50508,0.34446 -0.50508,1.38896 0,1.04449 -0.0853,1.2792 -0.50508,1.38896 -0.28596,0.0748 -0.50507,0.34446 -0.50507,0.62166 0,0.26926 -0.22729,0.69526 -0.50508,0.94666 -0.27779,0.2514 -0.50507,0.66676 -0.50507,0.92303 0,0.25626 -0.17403,0.46593 -0.38674,0.46593 -0.2127,0 -0.45859,0.18725 -0.54641,0.41611 -0.18862,0.49155 -1.57256,1.85674 -1.88223,1.85674 -0.11829,0 -0.21508,0.15721 -0.21508,0.34935 0,0.19214 -0.22729,0.40879 -0.50508,0.48143 -0.27779,0.0727 -0.50507,0.31319 -0.50507,0.53453 0,0.27856 -0.23258,0.40245 -0.75548,0.40245 -0.48197,0 -0.86967,0.18285 -1.0709,0.50508 -0.19003,0.30429 -0.58892,0.50508 -1.00341,0.50508 -0.42952,0 -0.78953,0.18974 -0.95829,0.50507 -0.22328,0.41721 -0.52877,0.50508 -1.756,0.50508 -1.71481,0 -2.28461,0.1642 -2.28461,0.65836 0,0.60155 -2.90672,0.47552 -3.53553,-0.15329 -0.39456,-0.39456 -0.84179,-0.50507 -2.04395,-0.50507 -1.32649,0 -1.5571,-0.0697 -1.67095,-0.50508 -0.11145,-0.42617 -0.34447,-0.50507 -1.49159,-0.50507 h -1.3595 v 3.97986 c 0,3.70636 -0.0347,4.00154 -0.50508,4.29529 -0.38329,0.23937 -0.50507,0.58892 -0.50507,1.4497 0,0.79757 -0.14994,1.28422 -0.50508,1.63936 -0.27779,0.27779 -0.50508,0.77593 -0.50508,1.10697 0,0.3895 -0.17822,0.6485 -0.50507,0.73397 -0.36472,0.0954 -0.50508,0.34447 -0.50508,0.89632 0,0.54245 -0.14658,0.81076 -0.50508,0.92454 -0.27779,0.0882 -0.50507,0.31546 -0.50507,0.50508 0,0.18962 -0.22729,0.41691 -0.50508,0.50508 -0.27779,0.0882 -0.50508,0.30985 -0.50508,0.49264 0,0.18278 -0.22728,0.39177 -0.50507,0.46441 -0.27779,0.0726 -0.50508,0.31319 -0.50508,0.53453 0,0.22135 -0.15285,0.40245 -0.33966,0.40245 -0.18682,0 -0.54536,0.22729 -0.79676,0.50508 -0.2514,0.27779 -0.6658,0.50508 -0.92088,0.50508 -0.25509,0 -0.60574,0.22728 -0.77922,0.50507 -0.17349,0.27779 -0.51538,0.50508 -0.75976,0.50508 -0.24438,0 -0.67161,0.22728 -0.9494,0.50507 -0.33672,0.33672 -0.8418,0.50508 -1.51523,0.50508 -0.67344,0 -1.17851,0.16836 -1.51523,0.50508 -0.44841,0.4484 -0.84179,0.50507 -3.50608,0.50507 -2.78862,0 -3.01035,-0.0357 -3.13309,-0.50507 -0.11012,-0.42111 -0.34446,-0.50508 -1.40952,-0.50508 -1.01899,0 -1.33214,-0.10219 -1.54776,-0.50508 -0.14867,-0.27779 -0.47598,-0.50507 -0.72736,-0.50507 -0.25138,0 -0.66274,-0.22729 -0.91414,-0.50508 -0.2514,-0.27779 -0.58468,-0.50507 -0.74063,-0.50507 -0.15595,0 -0.46633,-0.19888 -0.68973,-0.44195 -0.22341,-0.24306 -0.71032,-0.66922 -1.08203,-0.94701 -1.0517,-0.78598 -2.65435,-2.47818 -2.81031,-2.96733 -0.0775,-0.24307 -0.30371,-0.44194 -0.50269,-0.44194 -0.21755,0 -0.36179,-0.25171 -0.36179,-0.63134 0,-0.34724 -0.22729,-0.85863 -0.50508,-1.13643 -0.28739,-0.28739 -0.50508,-0.84179 -0.50508,-1.28633 0,-0.56887 -0.1373,-0.81716 -0.50507,-0.91334 -0.4635,-0.1212 -0.50863,-0.36354 -0.54824,-2.94368 -0.0237,-1.54638 -0.0521,-3.24566 -0.0631,-3.77618 -0.0133,-0.6409 -0.16828,-1.04764 -0.46192,-1.2121 -0.24307,-0.13614 -0.44194,-0.46916 -0.44194,-0.74005 0,-0.43254 -0.18098,-0.49253 -1.48578,-0.49253 -1.27338,0 -1.50465,-0.0722 -1.61785,-0.50508 -0.1098,-0.41989 -0.34447,-0.50507 -1.3914,-0.50507 -1.52403,0 -1.56589,0.0775 -1.56589,2.89782 0,1.63272 -0.0841,2.13119 -0.3788,2.24426 -0.23348,0.0896 -0.37881,0.4733 -0.37881,1.00013 0,2.00833 -0.32883,3.95931 -0.66732,3.95931 -0.22796,0 -0.34283,0.31813 -0.34283,0.94941 0,0.6759 -0.1455,1.04027 -0.50508,1.26483 -0.32222,0.20123 -0.50508,0.58892 -0.50508,1.0709 0,0.51005 -0.12563,0.75547 -0.38673,0.75547 -0.2127,0 -0.45971,0.19019 -0.54892,0.42265 -0.2877,0.74974 -2.08502,2.60781 -2.52255,2.60781 -0.17165,0 -0.43374,0.22728 -0.58241,0.50507 -0.14866,0.2778 -0.43677,0.50508 -0.64022,0.50508 -0.20346,0 -0.36993,0.17046 -0.36993,0.37881 0,0.20834 -0.16646,0.37881 -0.36992,0.37881 -0.20346,0 -0.49156,0.22728 -0.64023,0.50507 -0.14867,0.27779 -0.4843,0.50508 -0.74585,0.50508 -0.74434,0 -1.27446,0.27385 -1.27446,0.65836 0,0.24761 -0.33042,0.35179 -1.11576,0.35179 -1.35564,0 -1.91469,0.19223 -1.91469,0.65837 0,0.28192 -0.58928,0.3476 -2.96733,0.33074 -2.58604,-0.0183 -3.02411,-0.0832 -3.40926,-0.50508 z m 4.73509,-8.06017 c 0.32379,-0.35778 0.77781,-0.50508 1.55684,-0.50508 0.78724,0 1.22264,-0.14352 1.53221,-0.50508 0.23786,-0.27779 0.58124,-0.50507 0.76307,-0.50507 0.18183,0 0.40038,-0.18181 0.48565,-0.40403 0.0853,-0.22221 0.42263,-0.67161 0.74969,-0.99867 0.32706,-0.32706 0.59465,-0.8271 0.59465,-1.11121 0,-0.2841 0.15625,-0.51655 0.34724,-0.51655 0.57174,0 0.66291,-1.2331 0.66291,-8.96575 0,-8.27111 0.0268,-8.14768 -1.70594,-7.8665 -0.51923,0.0843 -1.05969,0.31135 -1.20103,0.50463 -0.14133,0.19329 -0.61519,0.43012 -1.05302,0.52628 -0.43782,0.0962 -0.85468,0.32764 -0.92634,0.5144 -0.0717,0.18676 -0.48659,0.41782 -0.92205,0.51346 -0.43546,0.0956 -0.85304,0.33364 -0.92796,0.52889 -0.0749,0.19524 -0.33603,0.35499 -0.58023,0.35499 -0.2442,0 -0.73294,0.22729 -1.0861,0.50508 -0.35315,0.27779 -0.80544,0.50508 -1.00507,0.50508 -0.19963,0 -0.56866,0.22728 -0.82005,0.50507 -0.2514,0.27779 -0.6658,0.50508 -0.92089,0.50508 -0.25509,0 -0.60574,0.22728 -0.77922,0.50507 -0.17348,0.2778 -0.50952,0.50508 -0.74674,0.50508 -0.23723,0 -0.73788,0.28411 -1.11255,0.63135 -0.37468,0.34724 -0.77829,0.63134 -0.8969,0.63134 -0.11861,0 -0.21566,0.15285 -0.21566,0.33967 0,0.18681 -0.21541,0.53461 -0.47869,0.77288 -0.26328,0.23826 -0.55296,0.92843 -0.64372,1.53371 -0.0908,0.60528 -0.32993,1.23736 -0.53147,1.40462 -0.49999,0.41497 -0.51204,3.2327 -0.0146,3.42357 0.20743,0.0796 0.42219,0.69849 0.52336,1.50821 0.12262,0.98141 0.31046,1.44754 0.65836,1.63373 0.26774,0.14329 0.48679,0.42698 0.48679,0.63044 0,0.20346 0.16281,0.36993 0.36179,0.36993 0.19899,0 0.43393,0.22728 0.5221,0.50507 0.0882,0.27779 0.36668,0.50508 0.61891,0.50508 0.25223,0 0.51804,0.22728 0.59068,0.50507 0.11223,0.42914 0.34447,0.50508 1.54468,0.50508 1.05036,0 1.41261,0.0917 1.41261,0.35776 0,0.8008 2.46138,0.91567 3.15672,0.14732 z m 40.33844,0 c 0.25161,-0.4029 0.58892,-0.50508 1.66728,-0.50508 1.13947,0 1.37261,-0.0793 1.48393,-0.50508 0.0731,-0.27954 0.34447,-0.50507 0.60771,-0.50507 0.30726,0 0.47562,-0.17879 0.47562,-0.50508 0,-0.33672 0.16836,-0.50507 0.50508,-0.50507 0.3137,0 0.50507,-0.16836 0.50507,-0.44433 0,-0.24438 0.22729,-0.58628 0.50508,-0.75976 0.3764,-0.23506 0.50507,-0.58892 0.50507,-1.38896 0,-0.80003 0.12868,-1.15389 0.50508,-1.38896 0.48555,-0.30323 0.50508,-0.58892 0.50508,-7.3906 v -7.07518 l -0.64779,-0.24629 c -0.89528,-0.34038 -1.63956,-0.30256 -2.38267,0.1211 -0.34724,0.19797 -0.98681,0.52563 -1.42126,0.72813 -0.43446,0.2025 -0.86733,0.49342 -0.96193,0.64649 -0.0946,0.15306 -0.38858,0.2783 -0.65329,0.2783 -0.2647,0 -0.60292,0.22728 -0.75159,0.50508 -0.14867,0.27779 -0.4843,0.50507 -0.74585,0.50507 -0.74434,0 -1.27446,0.27385 -1.27446,0.65837 0,0.20371 -0.25706,0.35179 -0.61069,0.35179 -0.87178,0 -1.40961,0.25119 -1.40961,0.65836 0,0.20688 -0.26006,0.35179 -0.63135,0.35179 -0.34724,0 -0.8389,0.20755 -1.09258,0.46123 -0.25368,0.25368 -0.65142,0.53422 -0.88388,0.62342 -0.23246,0.0892 -0.42265,0.33622 -0.42265,0.54892 0,0.21837 -0.21988,0.38673 -0.50508,0.38673 -0.32629,0 -0.50507,0.16836 -0.50507,0.47563 0,0.26323 -0.22554,0.5346 -0.50508,0.6077 -0.30219,0.079 -0.50508,0.34446 -0.50508,0.6608 0,0.29079 -0.1583,0.52872 -0.35178,0.52872 -0.56199,0 -0.65837,0.59796 -0.65837,4.0849 0,3.01957 0.039,3.29619 0.48133,3.41186 0.30661,0.0802 0.53994,0.43828 0.64279,0.98651 0.0888,0.47335 0.27239,0.86064 0.40797,0.86064 0.13558,0 0.37595,0.2841 0.53417,0.63134 0.15821,0.34724 0.43988,0.63135 0.62593,0.63135 0.18605,0 0.56555,0.22728 0.84335,0.50507 0.33671,0.33672 0.84179,0.50508 1.51523,0.50508 0.67343,0 1.17851,0.16836 1.51522,0.50508 0.35515,0.35514 0.8418,0.50507 1.63936,0.50507 0.86078,0 1.21034,-0.12178 1.44971,-0.50507 z M 846.9699,523.12352 c 0.0731,-0.27954 0.34447,-0.50507 0.6077,-0.50507 0.30726,0 0.47562,-0.17879 0.47562,-0.50508 0,-0.33672 0.16836,-0.50508 0.50508,-0.50508 0.33672,0 0.50508,-0.16836 0.50508,-0.50507 0,-0.33672 0.16836,-0.50508 0.50507,-0.50508 0.3137,0 0.50508,-0.16836 0.50508,-0.44433 0,-0.24438 0.22728,-0.58627 0.50508,-0.75975 0.48713,-0.30422 0.50507,-0.58893 0.50507,-8.0157 v -7.70027 h 17.80608 c 17.74286,0 17.80496,0.002 17.49065,0.50507 -0.17348,0.27779 -0.56777,0.50508 -0.87618,0.50508 -0.30842,0 -0.76406,0.21404 -1.01254,0.47566 -0.24848,0.26161 -0.82112,0.55474 -1.27253,0.65141 -0.45831,0.0981 -0.82075,0.33417 -0.82075,0.53449 0,0.2143 -0.2542,0.35874 -0.63135,0.35874 -0.34724,0 -0.85862,0.22729 -1.13642,0.50508 -0.27779,0.27779 -0.66788,0.50508 -0.86686,0.50508 -0.19899,0 -0.43393,0.22728 -0.5221,0.50507 -0.0927,0.29198 -0.38209,0.50508 -0.68598,0.50508 -0.65363,0 -2.14031,1.49577 -2.36113,2.37555 -0.0904,0.3602 -0.30764,0.65491 -0.48276,0.65491 -0.40981,0 -0.63145,1.3739 -0.63145,3.91434 0,2.57927 0.22081,3.91434 0.64739,3.91434 0.18387,0 0.40821,0.39387 0.49852,0.87527 0.10175,0.54237 0.34623,0.93305 0.64279,1.02717 0.26322,0.0836 0.47859,0.30255 0.47859,0.48667 0,0.36778 0.54014,0.64135 1.26632,0.64135 0.25708,0 0.53954,0.22728 0.62771,0.50507 0.15076,0.47499 0.3821,0.50508 3.88374,0.50508 3.37437,0 3.77426,-0.0474 4.26558,-0.50508 0.29817,-0.27779 0.72798,-0.50507 0.95514,-0.50507 0.22715,0 0.47244,-0.22729 0.54509,-0.50508 0.0726,-0.27779 0.2921,-0.50508 0.48768,-0.50508 0.19559,0 0.46362,-0.2841 0.59564,-0.63134 0.13202,-0.34724 0.34538,-0.63135 0.47412,-0.63135 0.29257,0 0.78857,-1.38523 0.78857,-2.20229 0,-0.33644 0.17047,-0.78217 0.37881,-0.99051 0.31724,-0.31724 0.37881,-1.44308 0.37881,-6.92676 v -6.54795 l 17.7408,0.0199 c 9.75745,0.011 17.57034,0.0844 17.362,0.16329 -0.20834,0.0788 -0.46969,0.29717 -0.58076,0.48514 -0.11107,0.18798 -0.40598,0.34178 -0.65534,0.34178 -0.24936,0 -0.65907,0.22728 -0.91047,0.50508 -0.2514,0.27779 -0.71033,0.50507 -1.01984,0.50507 -0.35037,0 -0.6126,0.19062 -0.69483,0.50508 -0.0972,0.3718 -0.34447,0.50508 -0.93698,0.50508 -0.59252,0 -0.83975,0.13327 -0.93698,0.50507 -0.10014,0.38291 -0.34447,0.50508 -1.01016,0.50508 -0.66568,0 -0.91002,0.12216 -1.01015,0.50507 -0.0731,0.27954 -0.34447,0.50508 -0.6077,0.50508 -0.30727,0 -0.47562,0.17878 -0.47562,0.50508 0,0.33671 -0.16836,0.50507 -0.50508,0.50507 -0.32629,0 -0.50508,0.16836 -0.50508,0.47563 0,0.26323 -0.22553,0.5346 -0.50507,0.6077 -0.36619,0.0958 -0.50508,0.34446 -0.50508,0.90445 0,0.51391 -0.16902,0.86283 -0.50508,1.04268 -0.45611,0.24411 -0.50507,0.52877 -0.50507,2.93672 0,2.45402 0.0402,2.67693 0.50507,2.79848 0.3957,0.10348 0.50508,0.34447 0.50508,1.11278 0,0.81234 0.0867,0.9807 0.50508,0.9807 0.33671,0 0.50507,0.16836 0.50507,0.50508 0,0.33672 0.16836,0.50508 0.50508,0.50508 0.33672,0 0.50508,0.16835 0.50508,0.50507 0,0.32629 0.16835,0.50508 0.47562,0.50508 0.26323,0 0.5346,0.22553 0.6077,0.50507 0.12518,0.47867 0.34447,0.50508 4.19419,0.50508 3.78862,0 4.08335,-0.034 4.37754,-0.50508 0.17348,-0.27779 0.51538,-0.50507 0.75976,-0.50507 0.27597,0 0.44433,-0.19138 0.44433,-0.50508 0,-0.33672 0.16835,-0.50507 0.50507,-0.50507 0.32629,0 0.50508,-0.16836 0.50508,-0.47563 0,-0.26323 0.22553,-0.5346 0.50507,-0.6077 0.38291,-0.10013 0.50508,-0.34446 0.50508,-1.01015 0,-0.66569 0.12217,-0.91002 0.50508,-1.01016 0.49047,-0.12826 0.50507,-0.34446 0.50507,-7.47932 v -7.34726 h 4.89504 c 4.68266,0 4.90077,-0.0219 5.02712,-0.50508 0.11223,-0.42914 0.34447,-0.50508 1.54469,-0.50508 1.24424,0 1.4126,-0.0602 1.4126,-0.50507 0,-0.36584 0.16836,-0.50508 0.61069,-0.50508 0.87178,0 1.40961,-0.25119 1.40961,-0.65836 0,-0.19349 0.22729,-0.35179 0.50508,-0.35179 0.33672,0 0.50508,-0.16836 0.50508,-0.50508 0,-0.37039 0.16835,-0.50508 0.63134,-0.50508 0.34724,0 0.8389,-0.20755 1.09258,-0.46123 0.25368,-0.25368 0.65143,-0.53421 0.88388,-0.62342 0.23246,-0.0892 0.42265,-0.33621 0.42265,-0.54892 0,-0.2127 0.18111,-0.38673 0.40245,-0.38673 0.22135,0 0.46189,-0.22728 0.53453,-0.50508 0.0726,-0.27779 0.29286,-0.50507 0.48936,-0.50507 0.19651,0 0.43027,-0.19019 0.51947,-0.42265 0.0892,-0.23246 0.36974,-0.63021 0.62342,-0.88389 0.25367,-0.25367 0.46123,-0.73208 0.46123,-1.06312 0,-0.38951 0.17822,-0.6485 0.50508,-0.73397 0.38687,-0.10117 0.50507,-0.34447 0.50507,-1.03961 0,-0.73917 0.0937,-0.90753 0.50508,-0.90753 0.44896,0 0.50508,-0.16836 0.50508,-1.51522 0,-1.34687 0.0561,-1.51523 0.50507,-1.51523 0.49009,0 0.50508,-0.16836 0.50508,-5.67323 0,-5.41476 -0.023,-5.68553 -0.50508,-5.94353 -0.40021,-0.21419 -0.50507,-0.52877 -0.50507,-1.51523 0,-0.98646 -0.10487,-1.30103 -0.50508,-1.51522 -0.27779,-0.14867 -0.50508,-0.4843 -0.50508,-0.74585 0,-0.74435 -0.27384,-1.27446 -0.65836,-1.27446 -0.19348,0 -0.35179,-0.22632 -0.35179,-0.50294 0,-0.27661 -0.22728,-0.64487 -0.50508,-0.81836 -0.27779,-0.17348 -0.50507,-0.51441 -0.50507,-0.75761 0,-0.24321 -0.22729,-0.58413 -0.50508,-0.75762 -0.27779,-0.17348 -0.50507,-0.51537 -0.50507,-0.75975 0,-0.27597 -0.19138,-0.44433 -0.50508,-0.44433 -0.33672,0 -0.50508,-0.16836 -0.50508,-0.50508 0,-0.32629 -0.16836,-0.50507 -0.47562,-0.50507 -0.26324,0 -0.5346,-0.22554 -0.6077,-0.50508 -0.10117,-0.38687 -0.34447,-0.50508 -1.03961,-0.50508 -0.73917,0 -0.90752,-0.0937 -0.90752,-0.50507 0,-0.3137 -0.16836,-0.50508 -0.44433,-0.50508 -0.24438,0 -0.58628,-0.22728 -0.75976,-0.50507 -0.17832,-0.28554 -0.58892,-0.50508 -0.94463,-0.50508 -0.34606,0 -0.85649,-0.22728 -1.13428,-0.50508 -0.33672,-0.33671 -0.84179,-0.50507 -1.51523,-0.50507 -0.67344,0 -1.17851,-0.16836 -1.51523,-0.50508 -0.46766,-0.46766 -0.84179,-0.50508 -5.05076,-0.50508 h -4.54569 v -2.2707 c 0,-1.9972 -0.0608,-2.30869 -0.50507,-2.58613 -0.43383,-0.27093 -0.50508,-0.58892 -0.50508,-2.25433 0,-2.15812 -0.1394,-2.73782 -0.65836,-2.73782 -0.25778,0 -0.35179,-0.36881 -0.35179,-1.38008 0,-1.12161 -0.0946,-1.43069 -0.50508,-1.65038 -0.35069,-0.18768 -0.50507,-0.52877 -0.50507,-1.11585 0,-0.63316 -0.12687,-0.87872 -0.50508,-0.97763 -0.37181,-0.0972 -0.50508,-0.34446 -0.50508,-0.93698 0,-0.59251 -0.13327,-0.83975 -0.50507,-0.93698 -0.35733,-0.0934 -0.50508,-0.34446 -0.50508,-0.8581 0,-0.45252 -0.19027,-0.84484 -0.50508,-1.04144 -0.27779,-0.17349 -0.50507,-0.51538 -0.50507,-0.75976 0,-0.27597 -0.19138,-0.44433 -0.50508,-0.44433 -0.39067,0 -0.50508,-0.16836 -0.50508,-0.74329 0,-0.42866 -0.19411,-0.88298 -0.45857,-1.07329 -0.25221,-0.18149 -0.53275,-0.52887 -0.62342,-0.77193 -0.0907,-0.24307 -0.33887,-0.44195 -0.55158,-0.44195 -0.21837,0 -0.38673,-0.21987 -0.38673,-0.50507 0,-0.33672 -0.16836,-0.50508 -0.50508,-0.50508 -0.33671,0 -0.50507,-0.16836 -0.50507,-0.50507 0,-0.33672 -0.16836,-0.50508 -0.50508,-0.50508 -0.33672,0 -0.50508,-0.16836 -0.50508,-0.50508 0,-0.33671 -0.16835,-0.50507 -0.50507,-0.50507 -0.33672,0 -0.50508,-0.16836 -0.50508,-0.50508 0,-0.33672 -0.16836,-0.50508 -0.50507,-0.50508 -0.2778,0 -0.50508,-0.1583 -0.50508,-0.35178 0,-0.38614 -0.53066,-0.65837 -1.28335,-0.65837 -0.27488,0 -0.48442,-0.17408 -0.48442,-0.40245 0,-0.22135 -0.22352,-0.4609 -0.49671,-0.53234 -0.27319,-0.0714 -0.56496,-0.34491 -0.64836,-0.6077 -0.1086,-0.34217 -0.38938,-0.47781 -0.98907,-0.47781 -0.62502,0 -0.8709,-0.1281 -0.96949,-0.50508 -0.0865,-0.33089 -0.34446,-0.50508 -0.74792,-0.50508 -0.33872,0 -0.82154,-0.22728 -1.07294,-0.50507 -0.2514,-0.27779 -0.60994,-0.50508 -0.79676,-0.50508 -0.18681,0 -0.56695,-0.22728 -0.84474,-0.50507 -0.34051,-0.34052 -0.84179,-0.50508 -1.53853,-0.50508 -0.65106,0 -1.27104,-0.18689 -1.67555,-0.50508 -0.46089,-0.36253 -1.0245,-0.50507 -1.99701,-0.50507 -0.98975,0 -1.3549,-0.0948 -1.3549,-0.35179 0,-0.19349 -0.17976,-0.42077 -0.39946,-0.50508 -0.21971,-0.0843 -3.79943,-0.15329 -7.95495,-0.15329 h -7.55549 v -0.63134 c 0,-0.36733 0.14521,-0.63135 0.34724,-0.63135 0.34473,0 0.66291,-1.03943 0.66291,-2.16559 0,-0.32298 0.16927,-0.68196 0.37616,-0.79774 0.21246,-0.1189 0.44553,-0.75628 0.53558,-1.46464 0.0877,-0.68978 0.32322,-1.38547 0.52341,-1.54598 0.2424,-0.19436 0.33766,-0.65832 0.28517,-1.38896 l -0.0788,-1.09711 -1.17842,-0.0761 c -1.00285,-0.0648 -1.20292,10e-4 -1.34284,0.44194 -0.13631,0.42947 -0.3759,0.51805 -1.40122,0.51805 -0.97832,0 -1.29327,0.10555 -1.50709,0.50508 -0.21403,0.3999 -0.52877,0.50507 -1.51157,0.50507 -0.88593,0 -1.30735,0.11811 -1.47215,0.41259 -0.15011,0.26823 -0.69204,0.45691 -1.54881,0.53923 -0.74809,0.0719 -1.37252,0.26894 -1.4442,0.45575 -0.0698,0.18187 -0.74728,0.4067 -1.51426,0.50253 -0.81068,0.10129 -1.44337,0.31782 -1.52119,0.52062 -0.0733,0.19096 -0.40518,0.3472 -0.73756,0.3472 -0.56416,0 -0.60433,-0.0923 -0.60433,-1.38896 0,-1.05224 -0.12244,-1.5114 -0.50507,-1.89403 -0.4209,-0.4209 -0.50508,-0.8418 -0.50508,-2.52539 0,-1.68358 -0.0842,-2.10448 -0.50507,-2.52538 -0.41829,-0.41828 -0.50508,-0.84179 -0.50508,-2.46463 0,-1.68606 -0.0705,-2.00358 -0.50508,-2.27498 -0.29719,-0.1856 -0.50507,-0.58893 -0.50507,-0.97993 0,-1.01723 -0.63138,-1.34509 -1.66336,-0.86374 -0.46705,0.21786 -0.9252,0.62338 -1.0181,0.90117 -0.0929,0.2778 -0.3799,0.65358 -0.63777,0.83507 -0.25786,0.1815 -0.46885,0.55084 -0.46885,0.82075 0,0.3224 -0.17327,0.49076 -0.50507,0.49076 -0.33672,0 -0.50508,0.16836 -0.50508,0.50508 0,0.33671 -0.16836,0.50507 -0.50507,0.50507 -0.3263,0 -0.50508,0.16836 -0.50508,0.47562 0,0.26324 -0.22554,0.53461 -0.50508,0.60771 -0.27779,0.0726 -0.50507,0.29993 -0.50507,0.50507 0,0.20515 -0.22729,0.43244 -0.50508,0.50508 -0.27779,0.0726 -0.50508,0.31318 -0.50508,0.53453 0,0.22135 -0.17046,0.40245 -0.3788,0.40245 -0.20835,0 -0.37881,0.097 -0.37881,0.21566 0,0.11862 -0.25569,0.50697 -0.56821,0.86301 -1.43601,1.636 -1.70463,2.02654 -1.70463,2.47832 0,0.31526 -0.17583,0.48362 -0.50508,0.48362 -0.33672,0 -0.50508,-0.16836 -0.50508,-0.50508 0,-0.33671 -0.16836,-0.50507 -0.50507,-0.50507 -0.33672,0 -0.50508,-0.16836 -0.50508,-0.50508 0,-0.33672 -0.16836,-0.50508 -0.50507,-0.50508 -0.3274,0 -0.50508,-0.16835 -0.50508,-0.47857 0,-0.26321 -0.28214,-0.74619 -0.62698,-1.07328 -0.34484,-0.3271 -0.62895,-0.68374 -0.63135,-0.79254 -0.003,-0.1088 -0.38474,-0.5782 -0.84964,-1.04311 -0.46491,-0.4649 -0.91591,-1.02932 -1.00223,-1.25427 -0.0863,-0.22494 -0.33097,-0.40899 -0.54368,-0.40899 -0.2127,0 -0.38673,-0.1811 -0.38673,-0.40245 0,-0.22135 -0.22729,-0.46188 -0.50508,-0.53453 -0.27779,-0.0726 -0.50507,-0.29993 -0.50507,-0.50507 0,-0.20515 -0.22729,-0.43244 -0.50508,-0.50508 -0.27954,-0.0731 -0.50508,-0.34447 -0.50508,-0.6077 0,-0.30156 -0.17842,-0.47563 -0.48751,-0.47563 -0.30529,0 -0.51767,-0.20274 -0.56821,-0.54242 -0.13803,-0.92779 -0.74362,-1.08614 -1.79083,-0.46827 l -0.94152,0.55551 v 2.23088 c 0,2.00908 -0.0502,2.24682 -0.50507,2.39118 -0.45746,0.1452 -0.50508,0.3821 -0.50508,2.51295 0,2.14025 -0.0456,2.36456 -0.50508,2.48472 -0.45836,0.11986 -0.50507,0.34447 -0.50507,2.42857 v 2.29648 l -0.69448,-0.008 c -0.38197,-0.004 -0.9087,-0.17022 -1.17052,-0.36845 -0.26183,-0.19822 -0.96843,-0.43425 -1.57023,-0.5245 -0.6018,-0.0902 -1.2254,-0.32219 -1.38578,-0.51543 -0.16038,-0.19325 -0.71486,-0.35136 -1.23219,-0.35136 -0.57811,0 -1.16501,-0.19464 -1.52295,-0.50507 -0.33931,-0.29429 -0.94483,-0.50508 -1.4509,-0.50508 -0.48615,0 -1.15124,-0.22237 -1.51064,-0.50507 -0.38005,-0.29895 -1.0245,-0.50508 -1.57906,-0.50508 -0.61623,0 -1.09342,-0.17289 -1.39404,-0.50508 -0.30536,-0.33742 -0.77781,-0.50507 -1.42329,-0.50507 -0.82548,0 -0.98978,0.0939 -1.1281,0.64505 -0.21813,0.86911 0.0599,2.45069 0.48585,2.76338 0.1898,0.13935 0.40815,0.81467 0.4852,1.5007 0.0771,0.68604 0.30434,1.36789 0.50508,1.51523 0.20074,0.14734 0.42802,0.8292 0.50508,1.51523 0.0805,0.71634 0.31227,1.37323 0.54454,1.54307 0.25814,0.18876 0.40444,0.67391 0.40444,1.34118 0,0.70873 0.16268,1.20812 0.50508,1.55053 0.33672,0.33671 0.50508,0.84179 0.50508,1.51522 0,0.67344 0.16836,1.17852 0.50507,1.51523 0.50508,0.50508 0.50508,0.50508 -0.98949,0.50508 -1.72348,0 -2.2935,0.16363 -2.2935,0.65836 0,0.27138 -0.4618,0.35179 -2.02031,0.35179 -1.68359,0 -2.10448,0.0842 -2.52538,0.50508 -0.41639,0.41639 -0.84179,0.50507 -2.42275,0.50507 -1.7053,0 -1.93231,0.0559 -2.04976,0.50508 -0.10626,0.40633 -0.34447,0.50508 -1.2184,0.50508 -0.59747,0 -1.26607,0.069 -1.48577,0.15328 -0.59102,0.2268 -0.51201,1.3798 0.10561,1.54131 0.27954,0.0731 0.50508,0.34447 0.50508,0.6077 0,0.30727 0.17878,0.47563 0.50508,0.47563 0.33671,0 0.50507,0.16836 0.50507,0.50507 0,0.32629 0.16836,0.50508 0.47562,0.50508 0.26324,0 0.53461,0.22554 0.60771,0.50508 0.0726,0.27779 0.31318,0.50507 0.53453,0.50507 0.22134,0 0.40245,0.17403 0.40245,0.38673 0,0.21271 0.19887,0.46092 0.44194,0.55158 0.24307,0.0907 0.59044,0.37121 0.77193,0.62343 0.1815,0.25221 0.4764,0.45857 0.65534,0.45857 0.17894,0 0.53104,0.22728 0.78244,0.50507 0.2514,0.27779 0.59668,0.50508 0.7673,0.50508 0.17062,0 0.36965,0.22728 0.44229,0.50508 0.0726,0.27779 0.30553,0.50507 0.51751,0.50507 0.21199,0 0.45757,0.22729 0.54574,0.50508 0.0882,0.27779 0.31545,0.50507 0.50508,0.50507 0.18962,0 0.41691,0.22729 0.50507,0.50508 0.0882,0.27779 0.31545,0.50508 0.50508,0.50508 0.65603,0 0.70558,0.98755 0.0825,1.64455 -0.32317,0.34076 -0.72563,0.62153 -0.89436,0.62393 -0.16874,0.002 -0.42843,0.23164 -0.5771,0.50944 -0.14867,0.27779 -0.43677,0.50507 -0.64023,0.50507 -0.20346,0 -0.36992,0.16281 -0.36992,0.36179 0,0.19899 -0.22729,0.43393 -0.50508,0.5221 -0.27779,0.0882 -0.50508,0.32311 -0.50508,0.52209 0,0.19898 -0.1811,0.36179 -0.40245,0.36179 -0.22134,0 -0.46188,0.22728 -0.53453,0.50508 -0.0726,0.27779 -0.29992,0.50507 -0.50507,0.50507 -0.20515,0 -0.43243,0.22729 -0.50508,0.50508 -0.0731,0.27954 -0.34446,0.50507 -0.6077,0.50507 -0.30726,0 -0.47562,0.17879 -0.47562,0.50508 0,0.27779 -0.1653,0.50508 -0.36733,0.50508 -0.20203,0 -0.66951,0.27119 -1.03885,0.60264 -1.2066,1.08285 -1.57848,1.37538 -2.11024,1.65997 -0.70725,0.3785 -0.6599,1.10047 0.12791,1.95053 0.58244,0.62847 0.85812,0.71404 2.58065,0.80102 1.15638,0.0584 2.16522,0.25246 2.51966,0.48469 0.34464,0.22583 1.40086,0.43682 2.53324,0.50606 1.81089,0.11073 2.57349,0.35226 2.57349,0.81508 0,0.10569 -0.22729,0.2516 -0.50508,0.32425 -0.27779,0.0726 -0.50508,0.31318 -0.50508,0.53453 0,0.22134 -0.16047,0.40245 -0.35661,0.40245 -0.21924,0 -0.42235,0.38911 -0.52727,1.01015 -0.0972,0.57534 -0.31253,1.01015 -0.50025,1.01015 -0.38226,0 -0.63617,0.55085 -0.63617,1.38016 0,0.36885 -0.18456,0.6295 -0.50508,0.71332 -0.38687,0.10117 -0.50507,0.34446 -0.50507,1.03961 0,0.59978 -0.11725,0.90752 -0.34577,0.90752 -0.37947,0 -0.65715,1.2454 -0.66161,2.96733 -0.002,0.7395 -0.11046,1.07328 -0.34905,1.07328 -0.79911,0 -0.79583,10.22238 0.003,10.52906 0.18858,0.0724 0.34288,0.44614 0.34288,0.83061 0,1.22923 0.30511,2.27739 0.66292,2.27739 0.22832,0 0.34724,0.30196 0.34724,0.88175 0,0.60824 0.15666,0.97958 0.50507,1.19716 0.31336,0.1957 0.50508,0.58893 0.50508,1.03594 0,0.50812 0.14888,0.75944 0.50507,0.85259 0.32053,0.0838 0.50508,0.34447 0.50508,0.71332 0,0.84392 0.2558,1.38016 0.65837,1.38016 0.19348,0 0.35178,0.22728 0.35178,0.50507 0,0.33672 0.16836,0.50508 0.50508,0.50508 0.3272,0 0.50508,0.16836 0.50508,0.47806 0,0.26293 0.17144,0.54385 0.38099,0.62426 0.20954,0.0804 0.51975,0.4619 0.68934,0.84776 0.37634,0.85626 0.65462,1.07149 1.39191,1.07651 0.39857,0.003 0.56821,0.15467 0.56821,0.50894 0,0.33672 0.16836,0.50508 0.50508,0.50508 0.33672,0 0.50508,0.16836 0.50508,0.50508 0,0.32629 0.16836,0.50507 0.47562,0.50507 0.26323,0 0.5346,0.22554 0.6077,0.50508 0.10117,0.38687 0.34447,0.50507 1.03961,0.50507 0.73916,0 0.90752,0.0937 0.90752,0.50508 0,0.33672 0.16836,0.50508 0.50508,0.50508 0.27779,0 0.73236,0.22728 1.01015,0.50507 0.33166,0.33166 0.8418,0.50508 1.48578,0.50508 0.76831,0 1.0093,0.10938 1.11278,0.50508 0.1118,0.42752 0.34446,0.50507 1.51523,0.50507 1.17076,0 1.40343,0.0776 1.51522,0.50508 0.10245,0.39176 0.34447,0.50508 1.07875,0.50508 0.93067,0 0.93894,0.009 0.48958,0.50507 -0.2514,0.27779 -0.6774,0.50508 -0.94667,0.50508 -0.27719,0 -0.54687,0.21911 -0.62166,0.50507 -0.10013,0.38291 -0.34446,0.50508 -1.01015,0.50508 -0.66569,0 -0.91002,0.12217 -1.01015,0.50508 -0.0838,0.32052 -0.34447,0.50507 -0.71332,0.50507 -0.84392,0 -1.38016,0.2558 -1.38016,0.65837 0,0.22101 -0.27632,0.35179 -0.74329,0.35179 -0.42866,0 -0.88298,0.19411 -1.07329,0.45857 -0.18149,0.25221 -0.52887,0.53275 -0.77193,0.62342 -0.24307,0.0907 -0.44195,0.32562 -0.44195,0.52212 0,0.19651 -0.22728,0.41672 -0.50507,0.48936 -0.27779,0.0727 -0.50508,0.29993 -0.50508,0.50508 0,0.20515 -0.22728,0.43243 -0.50507,0.50508 -0.3784,0.099 -0.50508,0.34446 -0.50508,0.97885 0,0.57328 -0.16314,0.94866 -0.50508,1.16221 -0.44424,0.27743 -0.50507,0.58892 -0.50507,2.58613 0,1.93398 0.0749,2.3456 0.50507,2.77578 0.28739,0.28739 0.50508,0.84179 0.50508,1.28633 0,0.55625 0.13874,0.81754 0.48173,0.90723 0.26495,0.0693 0.53841,0.34275 0.6077,0.6077 0.0693,0.26495 0.30708,0.48173 0.52842,0.48173 0.22135,0 0.40245,0.17328 0.40245,0.38506 0,0.21178 0.26861,0.48718 0.59691,0.612 0.32829,0.12482 0.66565,0.40611 0.74969,0.6251 0.13036,0.33973 0.75027,0.39815 4.22496,0.39815 3.85979,0 4.07907,-0.0263 4.20426,-0.50508 z"
         id="path1015"
         transform="scale(0.26458333)" />
      <path
         style="fill:#ffcc00;fill-opacity:1;stroke:#ffcc00;stroke-width:5.2422;stroke-linecap:square;stroke-linejoin:round;stroke-miterlimit:4;stroke-dasharray:none;stroke-opacity:1;paint-order:stroke fill markers"
         d="m 830.04984,459.23137 c -0.11981,-0.45818 -0.34446,-0.50507 -2.41968,-0.50507 -2.02914,0 -2.31814,-0.0571 -2.55791,-0.50508 -0.20876,-0.39008 -0.5414,-0.50961 -1.46098,-0.52501 -0.65486,-0.011 -1.04861,-0.0773 -0.87499,-0.14732 0.17362,-0.07 0.31567,-0.28837 0.31567,-0.48513 0,-0.19677 0.1811,-0.35777 0.40245,-0.35777 0.22135,0 0.45914,-0.21678 0.52842,-0.48173 0.0693,-0.26495 0.34276,-0.53841 0.60771,-0.6077 0.26495,-0.0693 0.48172,-0.30708 0.48172,-0.52842 0,-0.23409 0.21129,-0.40245 0.50508,-0.40245 0.33672,0 0.50508,-0.16836 0.50508,-0.50508 0,-0.27779 0.16529,-0.50508 0.36732,-0.50508 0.20203,0 0.6466,-0.25569 0.98793,-0.56821 0.34133,-0.31251 0.93065,-0.79549 1.30961,-1.07328 0.37896,-0.2778 1.12228,-0.91702 1.65182,-1.42051 0.52955,-0.50349 1.13864,-0.9829 1.35352,-1.06537 0.21489,-0.0824 0.39071,-0.3107 0.39071,-0.5072 0,-0.19651 0.22729,-0.41672 0.50508,-0.48936 0.75647,-0.19782 0.66774,-1.46306 -0.16071,-2.2915 -0.36618,-0.36618 -0.82075,-0.66579 -1.01015,-0.66579 -0.1894,0 -0.34437,-0.15721 -0.34437,-0.34935 0,-0.19214 -0.22729,-0.40879 -0.50508,-0.48143 -0.27779,-0.0727 -0.50507,-0.31319 -0.50507,-0.53453 0,-0.23409 -0.21129,-0.40245 -0.50508,-0.40245 -0.33672,0 -0.50508,-0.16836 -0.50508,-0.50508 0,-0.33672 -0.16836,-0.50508 -0.50507,-0.50508 -0.33672,0 -0.50508,-0.16835 -0.50508,-0.50507 0,-0.33672 -0.16836,-0.50508 -0.50508,-0.50508 -0.29378,0 -0.50507,-0.16836 -0.50507,-0.40245 0,-0.22134 -0.22729,-0.46188 -0.50508,-0.53453 -0.27779,-0.0726 -0.50507,-0.29285 -0.50507,-0.48936 0,-0.1965 -0.19888,-0.42901 -0.44195,-0.51667 -0.24306,-0.0877 -0.6124,-0.31453 -0.82074,-0.50413 -1.42601,-1.29771 -1.85028,-1.59347 -2.28586,-1.59347 -0.48339,0 -0.48316,-0.009 0.013,-0.50507 0.36694,-0.36694 0.8418,-0.50508 1.7362,-0.50508 1.68359,0 2.80949,-0.25297 2.80949,-0.63124 0,-0.21922 0.66608,-0.35054 2.18133,-0.43007 1.57929,-0.0829 2.26038,-0.22261 2.46777,-0.50623 0.20221,-0.27653 0.84748,-0.42007 2.19413,-0.48808 1.7175,-0.0867 1.975,-0.16897 2.58299,-0.825 0.37142,-0.40077 0.6753,-0.87324 0.6753,-1.04994 0,-0.60048 -0.30545,-1.1202 -0.65836,-1.1202 -0.24761,0 -0.35179,-0.33042 -0.35179,-1.11577 0,-1.35563 -0.19223,-1.91469 -0.65836,-1.91469 -0.25371,0 -0.35179,-0.35145 -0.35179,-1.26055 0,-0.98705 -0.10959,-1.32899 -0.50508,-1.57598 -0.38929,-0.24311 -0.50507,-0.58892 -0.50507,-1.50848 0,-0.9346 -0.10942,-1.25162 -0.50508,-1.46337 -0.40163,-0.21494 -0.50508,-0.52877 -0.50508,-1.53225 0,-1.07265 -0.0852,-1.2962 -0.56821,-1.49034 -0.43925,-0.17656 -0.2333,-0.23202 0.90753,-0.2444 1.27066,-0.0138 1.49409,0.0542 1.60782,0.48907 0.10929,0.41794 0.34446,0.50508 1.36317,0.50508 0.9576,0 1.30118,0.11221 1.54653,0.50508 0.23219,0.3718 0.58892,0.50507 1.35196,0.50507 0.71581,0 1.17796,0.15628 1.49362,0.50508 0.35777,0.39533 0.77781,0.50507 1.93317,0.50507 1.30773,0 1.47609,0.0576 1.47609,0.50508 0,0.44386 0.16836,0.50508 1.38896,0.50508 h 1.38896 v -1.01016 c 0,-0.84179 0.0842,-1.01015 0.50508,-1.01015 0.46663,0 0.50507,-0.16836 0.50507,-2.21209 0,-1.9386 0.0625,-2.2511 0.50508,-2.52753 0.43206,-0.26982 0.50508,-0.58892 0.50508,-2.20732 0,-1.55518 0.0899,-1.98179 0.50507,-2.39697 0.39164,-0.39164 0.50956,-0.85956 0.52502,-2.08344 0.011,-0.8681 0.0824,-1.4079 0.15882,-1.19956 0.0764,0.20835 0.52198,0.7479 0.99021,1.19901 0.46824,0.45111 0.85133,0.89372 0.85133,0.98357 0,0.0899 0.22615,0.40263 0.50256,0.69504 1.25556,1.32824 1.77029,1.96086 1.77029,2.17574 0,0.1277 0.22728,0.35381 0.50507,0.50248 0.2778,0.14867 0.50508,0.43678 0.50508,0.64023 0,0.20346 0.15721,0.36993 0.34935,0.36993 0.19215,0 0.40879,0.22728 0.48144,0.50507 0.0726,0.27779 0.29993,0.50508 0.50507,0.50508 0.20515,0 0.43243,0.22728 0.50508,0.50507 0.0726,0.2778 0.31318,0.50508 0.53453,0.50508 0.23409,0 0.40245,0.21129 0.40245,0.50508 0,0.33671 0.16836,0.50507 0.50508,0.50507 0.33671,0 0.50507,0.16836 0.50507,0.50508 0,0.44488 0.16836,0.50508 1.4126,0.50508 1.20022,0 1.43246,-0.0759 1.54469,-0.50508 0.0726,-0.27779 0.28163,-0.50508 0.46441,-0.50508 0.18279,0 0.40447,-0.22728 0.49264,-0.50507 0.0882,-0.27779 0.32311,-0.50508 0.5221,-0.50508 0.19898,0 0.36179,-0.16646 0.36179,-0.36992 0,-0.20346 0.22728,-0.49156 0.50507,-0.64023 0.27779,-0.14867 0.50704,-0.40836 0.50944,-0.5771 0.003,-0.16873 0.28651,-0.57441 0.63135,-0.9015 0.34484,-0.3271 0.62698,-0.75325 0.62698,-0.94702 0,-0.19377 0.17046,-0.3523 0.37881,-0.3523 0.20834,0 0.3788,-0.10925 0.3788,-0.24278 0,-0.13353 0.45457,-0.69283 1.01016,-1.24289 0.55558,-0.55006 1.01015,-1.115 1.01015,-1.25543 0,-0.14043 0.22728,-0.32746 0.50508,-0.41563 0.27779,-0.0882 0.50507,-0.33375 0.50507,-0.54573 0,-0.21199 0.2212,-0.44328 0.49155,-0.51398 0.27035,-0.0707 0.54128,-0.31575 0.60205,-0.54457 0.0608,-0.22881 0.12369,0.64581 0.1398,1.9436 0.0265,2.13418 0.0775,2.37224 0.53437,2.4917 0.45956,0.12018 0.50507,0.34446 0.50507,2.48919 0,1.89095 0.0793,2.4015 0.40114,2.5816 0.30115,0.16852 0.44279,0.81692 0.56821,2.60106 l 0.16708,2.37658 1.72513,0.0751 c 1.55901,0.0679 1.73816,0.0253 1.86036,-0.44194 0.1155,-0.44169 0.3369,-0.51709 1.51837,-0.51709 1.17076,0 1.40343,-0.0775 1.51522,-0.50507 0.1118,-0.42752 0.34447,-0.50508 1.51523,-0.50508 1.17077,0 1.40343,-0.0775 1.51523,-0.50507 0.11119,-0.42518 0.34447,-0.50508 1.47457,-0.50508 1.1207,0 1.36897,-0.0834 1.50279,-0.50508 0.12451,-0.39228 0.3821,-0.50507 1.15344,-0.50507 h 0.99314 v 1.10696 c 0,0.89459 -0.0969,1.13231 -0.50508,1.23905 -0.41755,0.10919 -0.50508,0.34447 -0.50508,1.35767 0,0.95208 -0.11271,1.29597 -0.50507,1.54101 -0.39549,0.24699 -0.50508,0.58893 -0.50508,1.57598 0,1.21906 -0.0238,1.26055 -0.72355,1.26055 -0.39796,0 -1.01251,0.22728 -1.36566,0.50507 -0.35316,0.27779 -0.85146,0.50663 -1.10735,0.50853 -0.86959,0.006 -1.60166,0.3069 -1.60166,0.65735 0,0.23263 -0.3032,0.34935 -0.90753,0.34935 -0.69514,0 -0.93844,0.1182 -1.0396,0.50508 -0.0855,0.32685 -0.34447,0.50507 -0.73398,0.50507 -0.33104,0 -0.82917,0.22729 -1.10696,0.50508 -0.2778,0.27779 -0.66789,0.50508 -0.86687,0.50508 -0.19898,0 -0.43393,0.22728 -0.52209,0.50507 -0.23065,0.7267 -0.97869,0.62246 -1.94159,-0.27057 -0.45998,-0.4266 -1.14885,-0.94091 -1.53081,-1.1429 -0.38197,-0.202 -0.69448,-0.47799 -0.69448,-0.61332 0,-0.13533 -0.16604,-0.24605 -0.36897,-0.24605 -0.20294,0 -0.57227,-0.21318 -0.82075,-0.47374 -0.24848,-0.26056 -0.73059,-0.55966 -1.07135,-0.66467 -0.34076,-0.105 -0.77504,-0.34639 -0.96505,-0.53641 -0.19002,-0.19001 -0.7084,-0.34549 -1.15195,-0.34549 -0.44354,0 -1.23051,-0.22728 -1.74881,-0.50507 -0.83952,-0.44996 -1.42484,-0.50508 -5.36361,-0.50508 -3.93877,0 -4.52409,0.0551 -5.36361,0.50508 -0.5183,0.27779 -1.35488,0.50507 -1.85906,0.50507 -0.53431,0 -1.18455,0.21069 -1.5588,0.50508 -0.35316,0.27779 -0.81635,0.50508 -1.02931,0.50508 -0.21296,0 -0.46461,0.12523 -0.55921,0.2783 -0.0946,0.15307 -0.55587,0.4387 -1.02505,0.63474 -0.46918,0.19603 -0.85306,0.46089 -0.85306,0.58856 0,0.12767 -0.22728,0.30427 -0.50507,0.39243 -0.2778,0.0882 -0.50508,0.32311 -0.50508,0.5221 0,0.19898 -0.12385,0.36179 -0.27522,0.36179 -0.32095,0 -1.74509,1.2938 -1.74509,1.58539 0,0.10894 -0.45456,0.61602 -1.01015,1.12685 -0.55558,0.51083 -1.01015,1.06335 -1.01015,1.22782 0,0.16448 -0.16419,0.36206 -0.36487,0.43906 -0.20069,0.077 -0.43914,0.53587 -0.5299,1.01968 -0.0908,0.48381 -0.313,0.93644 -0.49385,1.00584 -0.18084,0.0694 -0.40933,0.61707 -0.50774,1.21705 -0.0984,0.59998 -0.34704,1.28135 -0.5525,1.51416 -0.20972,0.23762 -0.42452,1.12376 -0.48973,2.0203 -0.0639,0.87836 -0.29732,2.17194 -0.51873,2.87463 -0.41357,1.31252 -0.30548,3.47662 0.18891,3.78217 0.13088,0.0809 0.24066,0.62334 0.24398,1.20545 0.003,0.58211 0.10498,1.48454 0.22594,2.0054 0.20432,0.87983 0.17943,0.94701 -0.35078,0.94701 -0.31388,0 -0.85963,0.22729 -1.21279,0.50508 -0.35315,0.27779 -0.80544,0.50508 -1.00507,0.50508 -0.19963,0 -0.56866,0.22728 -0.82005,0.50507 -0.2514,0.2778 -0.73422,0.50508 -1.07294,0.50508 -0.40346,0 -0.6614,0.17418 -0.74793,0.50508 -0.0726,0.27779 -0.28529,0.50507 -0.47255,0.50507 -0.18725,0 -0.4621,0.22729 -0.61077,0.50508 -0.14867,0.27779 -0.37973,0.50507 -0.51345,0.50507 -0.13373,0 -0.72574,0.45457 -1.31557,1.01016 -1.17652,1.1082 -2.0751,1.30684 -2.28477,0.50507 z"
         id="path1017"
         transform="scale(0.26458333)" />
      <path
         style="fill:#ffdd55;fill-opacity:1;stroke:#ffdd55;stroke-width:3.35244;stroke-linecap:square;stroke-linejoin:round;stroke-miterlimit:4;stroke-dasharray:none;stroke-opacity:1;paint-order:stroke fill markers"
         d="m 859.85484,453.17046 c -0.31247,-0.36494 -0.74497,-0.50508 -1.5588,-0.50508 -0.81013,0 -1.19578,-0.12407 -1.37367,-0.44194 -0.22467,-0.40147 -0.79432,-0.44194 -6.22009,-0.44194 -5.39688,0 -6.00392,0.0426 -6.29592,0.44194 -0.21339,0.29182 -0.66215,0.44194 -1.32111,0.44194 -0.81298,0 -1.10038,-0.13853 -1.55053,-0.74739 -0.51079,-0.69088 -0.55256,-1.03462 -0.55256,-4.5466 0,-3.31673 0.0641,-3.91889 0.50507,-4.74157 0.27779,-0.5183 0.50508,-1.296 0.50508,-1.72822 0,-0.43221 0.22728,-1.0479 0.50507,-1.3682 0.2778,-0.3203 0.50508,-0.82382 0.50508,-1.11894 0,-0.29512 0.22729,-0.73119 0.50508,-0.96904 0.27779,-0.23785 0.50507,-0.58642 0.50507,-0.7746 0,-0.18817 0.22729,-0.54783 0.50508,-0.79922 0.27779,-0.2514 0.50508,-0.54246 0.50508,-0.6468 0,-0.22601 2.41374,-2.76247 2.62881,-2.76247 0.082,0 0.35652,-0.19887 0.61003,-0.44194 0.90379,-0.86657 1.92697,-1.57836 2.26885,-1.57836 0.19101,0 0.63623,-0.22729 0.98939,-0.50508 0.35315,-0.27779 0.88559,-0.50508 1.18319,-0.50508 0.29761,0 0.79459,-0.17754 1.1044,-0.39455 0.31329,-0.21943 1.50832,-0.49205 2.69245,-0.61422 1.17103,-0.12082 2.35589,-0.34102 2.63302,-0.48933 0.7135,-0.38186 2.08869,-0.3342 3.14977,0.10914 0.49863,0.20835 1.55125,0.37881 2.33915,0.37881 0.86857,0 1.84112,0.18753 2.47036,0.47634 0.5708,0.26199 1.32192,0.60517 1.66916,0.76262 0.34724,0.15746 1.08591,0.56272 1.6415,0.90057 0.55558,0.33786 1.15381,0.68931 1.32938,0.781 0.17558,0.0917 0.8471,0.66531 1.49227,1.27473 0.99663,0.94141 1.09104,1.10804 0.62778,1.10804 -0.37688,0 -0.54524,0.15596 -0.54524,0.50508 0,0.33672 -0.16836,0.50507 -0.50508,0.50507 -0.33672,0 -0.50508,0.16836 -0.50508,0.50508 0,0.33672 -0.16835,0.50508 -0.50507,0.50508 -0.27779,0 -0.50508,0.0967 -0.50508,0.2148 0,0.11814 -0.63154,0.71476 -1.40342,1.32582 -0.89976,0.71231 -1.45487,1.36026 -1.54679,1.80551 -0.0949,0.45971 -0.30345,0.69448 -0.61689,0.69448 -0.30515,0 -0.47351,0.17958 -0.47351,0.50507 0,0.2852 -0.16836,0.50508 -0.38673,0.50508 -0.21271,0 -0.45933,0.19887 -0.54806,0.44194 -0.0887,0.24307 -0.36927,0.71296 -0.62342,1.04421 -0.25415,0.33125 -0.46209,0.80097 -0.46209,1.04383 0,0.24287 -0.22729,0.50101 -0.50508,0.57365 -0.38291,0.10013 -0.50508,0.34447 -0.50508,1.01015 0,0.66569 -0.12216,0.91002 -0.50507,1.01015 -0.38291,0.10014 -0.50508,0.34447 -0.50508,1.01016 0,0.66568 -0.12216,0.91002 -0.50507,1.01015 -0.38824,0.10153 -0.50508,0.34447 -0.50508,1.05017 0,0.56901 -0.19204,1.12421 -0.50508,1.46022 -0.37363,0.40105 -0.50507,0.8912 -0.50507,1.88347 0,1.11709 -0.0751,1.34134 -0.44896,1.34134 -0.24692,0 -0.64355,-0.22728 -0.88141,-0.50507 z"
         id="path1019"
         transform="scale(0.26458333)" />
      <path
         style="fill:#f9f9f9;stroke:#f9f9f9;stroke-width:4.86425;stroke-linecap:square;stroke-linejoin:round;stroke-miterlimit:4;stroke-dasharray:none;stroke-opacity:1;paint-order:stroke fill markers"
         d="m 845.1275,501.2319 c -0.11198,-0.42821 -0.34446,-0.50508 -1.52766,-0.50508 -1.17379,0 -1.42106,-0.0803 -1.55589,-0.50507 -0.11785,-0.37131 -0.3821,-0.50508 -0.99772,-0.50508 -0.62502,0 -0.87091,-0.1281 -0.96949,-0.50507 -0.10117,-0.38688 -0.34447,-0.50508 -1.03961,-0.50508 -0.73916,0 -0.90752,-0.0937 -0.90752,-0.50508 0,-0.33671 -0.16836,-0.50507 -0.50508,-0.50507 -0.27779,0 -0.73236,-0.22729 -1.01015,-0.50508 -0.27779,-0.27779 -0.73236,-0.50508 -1.01015,-0.50508 -0.33672,0 -0.50508,-0.16836 -0.50508,-0.50507 0,-0.33672 -0.16836,-0.50508 -0.50508,-0.50508 -0.33671,0 -0.50507,-0.16836 -0.50507,-0.50507 0,-0.33672 -0.16836,-0.50508 -0.50508,-0.50508 -0.33672,0 -0.50508,-0.16836 -0.50508,-0.50508 0,-0.33671 -0.16835,-0.50507 -0.50507,-0.50507 -0.33672,0 -0.50508,-0.16836 -0.50508,-0.50508 0,-0.33672 -0.16836,-0.50508 -0.50507,-0.50508 -0.33672,0 -0.50508,-0.16836 -0.50508,-0.50507 0,-0.33672 -0.16836,-0.50508 -0.50508,-0.50508 -0.41138,0 -0.50507,-0.16836 -0.50507,-0.90752 0,-0.69515 -0.11821,-0.93844 -0.50508,-1.03961 -0.37505,-0.0981 -0.50508,-0.34447 -0.50508,-0.95706 0,-0.61259 -0.13003,-0.85898 -0.50507,-0.95705 -0.38688,-0.10117 -0.50508,-0.34447 -0.50508,-1.03961 0,-0.63833 -0.11236,-0.90753 -0.37881,-0.90753 -0.24887,0 -0.3788,-0.24903 -0.3788,-0.72604 0,-1.25423 -0.30211,-2.30441 -0.66292,-2.30441 -0.28161,0 -0.34724,-0.84901 -0.34724,-4.49229 0,-3.99371 0.0561,-4.60224 0.50508,-5.48297 0.27779,-0.54487 0.50508,-1.47804 0.50508,-2.0737 0,-0.79433 0.10097,-1.08303 0.3788,-1.08303 0.26645,0 0.37881,-0.26919 0.37881,-0.90752 0,-0.69514 0.1182,-0.93844 0.50508,-1.03961 0.39569,-0.10348 0.50507,-0.34447 0.50507,-1.11278 0,-0.81234 0.0867,-0.9807 0.50508,-0.9807 0.37039,0 0.50508,-0.16836 0.50508,-0.63134 0,-0.37129 0.1449,-0.63135 0.35178,-0.63135 0.38614,0 0.65837,-0.53065 0.65837,-1.28334 0,-0.31606 0.17554,-0.48442 0.50508,-0.48442 0.33671,0 0.50507,-0.16836 0.50507,-0.50508 0,-0.33672 0.16836,-0.50508 0.50508,-0.50508 0.33672,0 0.50507,-0.16836 0.50507,-0.50507 0,-0.29379 0.16836,-0.50508 0.40245,-0.50508 0.22135,0 0.46189,-0.22728 0.53453,-0.50508 0.0727,-0.27779 0.29993,-0.50507 0.50508,-0.50507 0.20515,0 0.43243,-0.22729 0.50508,-0.50508 0.0726,-0.27779 0.29992,-0.50507 0.50507,-0.50507 0.20515,0 0.43243,-0.22729 0.50508,-0.50508 0.0931,-0.35594 0.34446,-0.50508 0.85135,-0.50508 0.46082,0 0.81641,-0.18149 0.98959,-0.50507 0.14867,-0.2778 0.50408,-0.50508 0.7898,-0.50508 0.28572,0 0.80844,-0.22728 1.16159,-0.50508 0.35316,-0.27779 0.84015,-0.50507 1.0822,-0.50507 0.24205,0 0.56852,-0.15474 0.72548,-0.34386 0.15695,-0.18912 0.88113,-0.41439 1.60928,-0.5006 0.734,-0.0869 1.44884,-0.32752 1.60429,-0.54002 0.41076,-0.56153 11.58739,-0.57549 11.80256,-0.0147 0.0842,0.21948 0.6569,0.43691 1.41598,0.53761 0.757,0.10042 1.27456,0.29658 1.27456,0.48307 0,0.35549 1.77083,0.71097 2.37904,0.47758 0.21939,-0.0842 0.39888,-0.4074 0.39888,-0.71826 0,-0.31085 0.22728,-0.77087 0.50508,-1.02227 0.37941,-0.34336 0.50507,-0.77781 0.50507,-1.74616 0,-1.01557 0.10716,-1.356 0.50508,-1.6045 0.30755,-0.19207 0.50507,-0.58892 0.50507,-1.01477 0,-0.38684 0.2257,-0.8926 0.50508,-1.13181 0.27779,-0.23786 0.50508,-0.69034 0.50508,-1.00553 0,-0.31519 0.22728,-0.71501 0.50507,-0.8885 0.32223,-0.20123 0.50508,-0.58892 0.50508,-1.0709 0,-0.48738 0.12839,-0.75547 0.36179,-0.75547 0.19898,0 0.43749,-0.2385 0.53,-0.53001 0.0925,-0.2915 0.38429,-0.74607 0.64837,-1.01015 0.26408,-0.26408 0.48014,-0.69418 0.48014,-0.95577 0,-0.26324 0.22554,-0.5346 0.50508,-0.6077 0.27779,-0.0727 0.50508,-0.31318 0.50508,-0.53453 0,-0.22135 0.17046,-0.40245 0.3788,-0.40245 0.20835,0 0.37881,-0.0932 0.37881,-0.20706 0,-0.33545 1.40763,-1.81325 1.72716,-1.81325 0.16123,0 0.29315,-0.1811 0.29315,-0.40245 0,-0.22134 0.22728,-0.46188 0.50507,-0.53453 0.27779,-0.0726 0.50508,-0.29993 0.50508,-0.50507 0,-0.20515 0.21678,-0.42969 0.48173,-0.49897 0.26495,-0.0693 0.53841,-0.34276 0.6077,-0.60771 0.0693,-0.26495 0.29942,-0.48172 0.51141,-0.48172 0.21198,0 0.45756,-0.22729 0.54573,-0.50508 0.11378,-0.3585 0.3821,-0.50508 0.92455,-0.50508 0.55185,0 0.80094,-0.14036 0.89632,-0.50507 0.0726,-0.2778 0.32849,-0.50508 0.56856,-0.50508 0.24006,0 0.64217,-0.22728 0.89357,-0.50508 0.2514,-0.27779 0.71033,-0.50507 1.01984,-0.50507 0.35036,0 0.6126,-0.19062 0.69483,-0.50508 0.10117,-0.38687 0.34446,-0.50507 1.03961,-0.50507 0.61322,0 0.90752,-0.11565 0.90752,-0.35661 0,-0.21925 0.38912,-0.42235 1.01015,-0.52728 0.62104,-0.10492 1.01016,-0.30803 1.01016,-0.52727 0,-0.27008 0.39329,-0.35661 1.62084,-0.35661 1.84671,0 2.41977,-0.15592 2.41977,-0.65837 0,-0.28174 0.62227,-0.35178 3.12516,-0.35178 3.67859,0 4.69578,-0.15636 4.72346,-0.72605 0.0167,-0.34454 0.0431,-0.3496 0.16413,-0.0316 0.25666,0.67424 0.64969,0.74982 3.91967,0.75375 2.57123,0.003 3.21987,0.0742 3.21987,0.35322 0,0.40179 0.75956,0.65238 1.99246,0.65735 0.49664,0.002 0.98246,0.17634 1.15716,0.41525 0.18403,0.25168 0.80861,0.46057 1.60621,0.53721 0.81577,0.0784 1.30508,0.24484 1.30508,0.44397 0,0.17522 0.38678,0.39113 0.8595,0.47982 0.47273,0.0887 0.91822,0.31426 0.98999,0.50129 0.0718,0.18703 0.53731,0.41637 1.03454,0.50965 0.54499,0.10224 0.90404,0.3155 0.90404,0.53697 0,0.22018 0.24467,0.36736 0.61069,0.36736 0.87179,0 1.40962,0.25119 1.40962,0.65836 0,0.19349 0.22728,0.35179 0.50507,0.35179 0.33672,0 0.50508,0.16836 0.50508,0.50508 0,0.33672 0.16836,0.50508 0.50508,0.50508 0.28424,0 0.50507,0.16835 0.50507,0.38505 0,0.21178 0.26861,0.48718 0.59691,0.612 0.32829,0.12482 0.66565,0.40611 0.74968,0.6251 0.0926,0.24135 0.45428,0.39815 0.91833,0.39815 0.5623,0 0.76554,0.11797 0.76554,0.44433 0,0.24438 0.22728,0.58627 0.50508,0.75975 0.29348,0.18329 0.50507,0.58893 0.50507,0.96828 0,0.44046 0.16431,0.69581 0.50508,0.78493 0.27954,0.0731 0.50508,0.34446 0.50508,0.6077 0,0.30726 0.17878,0.47562 0.50507,0.47562 0.33672,0 0.50508,0.16836 0.50508,0.50508 0,0.33671 0.16836,0.50507 0.50507,0.50507 0.41138,0 0.50508,0.16836 0.50508,0.90753 0,0.69514 0.1182,0.93844 0.50508,1.03961 0.27954,0.0731 0.50507,0.34446 0.50507,0.6077 0,0.26159 0.22729,0.70291 0.50508,0.9807 0.27779,0.27779 0.50508,0.73236 0.50508,1.01015 0,0.33672 0.16836,0.50508 0.50507,0.50508 0.4209,0 0.50508,0.16835 0.50508,1.01015 0,0.84179 0.0842,1.01015 0.50507,1.01015 0.44488,0 0.50508,0.16836 0.50508,1.4126 0,1.20022 0.0759,1.43246 0.50508,1.54469 0.4467,0.11681 0.50507,0.34446 0.50507,1.96964 0,1.40043 0.0901,1.87214 0.37881,1.98293 0.2894,0.11105 0.37881,0.58553 0.37881,2.01027 0,1.02571 0.073,2.56344 0.16224,3.41719 l 0.16225,1.55228 h 4.87963 c 4.62117,0 4.89395,0.0267 5.14994,0.50507 0.21175,0.39566 0.52877,0.50508 1.46337,0.50508 0.91956,0 1.26537,0.11579 1.50848,0.50508 0.1966,0.31481 0.58893,0.50507 1.04145,0.50507 0.51363,0 0.76466,0.14776 0.8581,0.50508 0.10117,0.38688 0.34446,0.50508 1.0396,0.50508 0.73917,0 0.90753,0.0937 0.90753,0.50507 0,0.32629 0.16836,0.50508 0.47562,0.50508 0.26324,0 0.5346,0.22554 0.60771,0.50507 0.0726,0.2778 0.31318,0.50508 0.53453,0.50508 0.22134,0 0.40245,0.16281 0.40245,0.36179 0,0.19898 0.21501,0.43003 0.47781,0.51344 0.26279,0.0834 0.53626,0.37517 0.6077,0.64836 0.0714,0.27319 0.31099,0.49672 0.53234,0.49672 0.23409,0 0.40245,0.21129 0.40245,0.50507 0,0.33672 0.16836,0.50508 0.50508,0.50508 0.40698,0 0.50507,0.16836 0.50507,0.86686 0,0.64508 0.12923,0.90789 0.50508,1.02717 0.27779,0.0882 0.50508,0.37994 0.50508,0.64837 0,0.3197 0.17422,0.48806 0.50507,0.48806 0.4433,0 0.50508,0.16836 0.50508,1.37641 0,0.9056 0.1194,1.44549 0.34907,1.57836 0.37243,0.21547 0.57095,3.62909 0.46335,7.9675 -0.0439,1.77147 -0.12993,2.20971 -0.43361,2.20971 -0.29081,0 -0.37881,0.32269 -0.37881,1.38896 0,1.2206 -0.0612,1.38896 -0.50508,1.38896 -0.39252,0 -0.50507,0.16836 -0.50507,0.75547 0,0.48198 -0.18285,0.86967 -0.50508,1.0709 -0.27779,0.17349 -0.50508,0.51538 -0.50508,0.75976 0,0.24438 -0.1811,0.44433 -0.40245,0.44433 -0.22134,0 -0.46188,0.22728 -0.53453,0.50507 -0.0726,0.27779 -0.29285,0.50508 -0.48936,0.50508 -0.1965,0 -0.42704,0.18181 -0.51231,0.40402 -0.19971,0.52042 -1.17752,1.49823 -1.69793,1.69793 -0.22222,0.0853 -0.40403,0.32907 -0.40403,0.54177 0,0.21838 -0.21987,0.38674 -0.50507,0.38674 -0.33672,0 -0.50508,0.16836 -0.50508,0.50507 0,0.36584 -0.16836,0.50508 -0.61069,0.50508 -0.87179,0 -1.40961,0.25119 -1.40961,0.65836 0,0.19349 -0.22729,0.35179 -0.50508,0.35179 -0.33672,0 -0.50508,0.16836 -0.50508,0.50508 0,0.44488 -0.16836,0.50507 -1.4126,0.50507 -1.20022,0 -1.43246,0.0759 -1.54468,0.50508 -0.1315,0.50284 -0.34447,0.50508 -48.05542,0.50508 -47.71095,0 -47.92392,-0.002 -48.05542,-0.50508 z"
         id="path923"
         transform="scale(0.26458333)" />
      <path
         style="fill:#00ccff;stroke:#00ccff;stroke-width:4.54677;stroke-linecap:square;stroke-linejoin:round;stroke-miterlimit:4;stroke-dasharray:none;stroke-opacity:1;paint-order:stroke fill markers"
         d="m 882.00376,522.21068 c -0.14042,-0.32005 -0.34534,-0.41271 -1.00741,-0.45551 -0.71196,-0.046 -0.84688,-0.11644 -0.9409,-0.49107 -0.0779,-0.31035 -0.2328,-0.43735 -0.53344,-0.43735 -0.29989,0 -0.45553,-0.12694 -0.53273,-0.43452 -0.06,-0.23899 -0.2694,-0.48542 -0.46537,-0.54762 -0.19597,-0.0622 -0.40364,-0.30166 -0.46149,-0.53214 -0.0616,-0.24525 -0.28391,-0.46391 -0.53613,-0.52721 -0.39591,-0.0994 -0.43095,-0.19566 -0.43095,-1.18431 0,-0.89821 -0.0709,-1.14709 -0.42912,-1.50526 l -0.42911,-0.42912 0.42911,-0.28117 c 0.38524,-0.25241 0.42912,-0.40856 0.42912,-1.52705 0,-1.13736 0.0319,-1.24588 0.36643,-1.24588 0.2466,0 0.42751,-0.17519 0.55319,-0.53572 0.10271,-0.29464 0.30114,-0.53571 0.44096,-0.53571 0.13982,0 0.34575,-0.20089 0.45763,-0.44643 0.11187,-0.24553 0.33515,-0.44643 0.49617,-0.44643 0.38556,0 0.72133,-0.34911 0.72133,-0.75 0,-0.23916 0.13919,-0.32143 0.54384,-0.32143 0.34199,0 0.70952,-0.16569 0.99026,-0.44642 0.24553,-0.24554 0.63652,-0.44643 0.86886,-0.44643 0.24783,0 0.60425,-0.21607 0.86228,-0.52273 0.29317,-0.3484 0.64088,-0.54194 1.04266,-0.58036 0.46755,-0.0447 0.61562,-0.14779 0.65988,-0.45941 0.044,-0.30991 0.17407,-0.40179 0.56873,-0.40179 0.81378,0 1.42778,-0.30527 1.42778,-0.70986 0,-0.3059 0.11686,-0.36199 0.75893,-0.3643 0.8851,-0.003 1.13905,-0.13158 1.23087,-0.62227 0.044,-0.23509 0.23412,-0.37645 0.55637,-0.41364 l 0.48954,-0.0565 v 6.08329 c 0,3.62452 -0.067,6.08329 -0.16581,6.08329 -0.39817,0 -0.72704,0.60217 -0.72704,1.33122 0,0.61916 -0.0698,0.78823 -0.35624,0.86314 -0.19594,0.0512 -0.41245,0.23963 -0.48114,0.41863 -0.1843,0.48027 -1.25047,1.49415 -1.57121,1.49415 -0.1527,0 -0.36917,0.2009 -0.48105,0.44643 -0.159,0.34897 -0.33615,0.44643 -0.81148,0.44643 -0.73354,0 -1.29888,0.27477 -1.29888,0.63128 0,0.19946 -0.24438,0.26158 -1.02909,0.26158 -0.89592,0 -1.05189,-0.052 -1.20535,-0.40179 z"
         id="path917"
         transform="scale(0.26458333)" />
      <path
         style="fill:#00ccff;stroke:#00ccff;stroke-width:4.16882;stroke-linecap:square;stroke-linejoin:round;stroke-miterlimit:4;stroke-dasharray:none;stroke-opacity:1;paint-order:stroke fill markers"
         d="m 841.79171,522.37068 c -0.24791,-0.41976 -0.89296,-0.65107 -1.81563,-0.65107 -0.84114,0 -0.896,-0.0284 -0.94924,-0.49107 -0.0399,-0.34693 -0.17121,-0.5074 -0.4473,-0.5467 -0.24347,-0.0346 -0.41178,-0.20296 -0.44643,-0.44642 -0.0393,-0.27609 -0.19977,-0.40739 -0.5467,-0.44731 -0.44094,-0.0507 -0.49107,-0.12672 -0.49107,-0.74433 0,-0.91828 -0.14813,-1.25274 -0.55482,-1.25274 -0.31211,0 -0.33804,-0.15782 -0.33804,-2.05799 0,-2.03088 0.006,-2.06023 0.44643,-2.22772 0.38541,-0.14654 0.44643,-0.28018 0.44643,-0.97773 0,-0.65902 0.0593,-0.80799 0.32143,-0.80799 0.4114,0 0.75,-0.33859 0.75,-0.75 0,-0.21687 0.13434,-0.32143 0.41302,-0.32143 0.22716,0 0.64398,-0.24107 0.92627,-0.53571 0.32605,-0.34033 0.69191,-0.53572 1.00313,-0.53572 0.37133,0 0.50369,-0.0968 0.54695,-0.39996 0.0314,-0.21998 0.17759,-0.41552 0.32492,-0.43453 1.37349,-0.1773 1.57405,-0.25936 1.68164,-0.68804 0.0974,-0.38813 0.20847,-0.44175 0.91487,-0.44175 0.67574,0 0.8352,-0.0685 0.99959,-0.42928 0.14792,-0.32464 0.38869,-0.45824 0.98778,-0.54808 0.60207,-0.0903 0.83964,-0.22296 0.98995,-0.55286 0.10878,-0.23874 0.35088,-0.43407 0.538,-0.43407 0.46643,0 1.05922,-0.32353 1.42884,-0.77983 0.29355,-0.3624 0.30872,-0.0375 0.3125,6.69501 l 0.004,7.07589 -0.53572,0.10715 c -0.4207,0.0841 -0.53571,0.20128 -0.53571,0.54561 0,0.31876 -0.1097,0.45406 -0.40179,0.49554 -0.25395,0.0361 -0.42221,0.20055 -0.4573,0.44705 -0.0378,0.26578 -0.22266,0.42669 -0.58036,0.50526 -0.40054,0.088 -0.52484,0.21542 -0.52484,0.53818 0,0.38427 -0.0856,0.42784 -0.9375,0.47688 -0.81673,0.047 -0.94485,0.10573 -0.99456,0.45576 -0.0524,0.36873 -0.15082,0.40179 -1.19648,0.40179 -0.76886,0 -1.18587,-0.0786 -1.28223,-0.24179 z"
         id="path913"
         transform="scale(0.26458333)" />
      <path
         style="fill:#00ccff;stroke:#00ccff;stroke-width:4.16882;stroke-linecap:square;stroke-linejoin:round;stroke-miterlimit:4;stroke-dasharray:none;stroke-opacity:1;paint-order:stroke fill markers"
         d="m 922.06312,522.21068 c -0.0497,-0.35003 -0.17783,-0.40874 -0.99457,-0.45576 -0.86364,-0.0497 -0.9375,-0.0888 -0.9375,-0.49553 0,-0.34777 -0.11379,-0.46432 -0.53571,-0.54871 -0.41479,-0.0829 -0.53571,-0.20287 -0.53571,-0.53125 0,-0.32795 -0.0966,-0.4241 -0.42616,-0.4241 -0.3689,0 -0.44253,-0.10922 -0.54807,-0.81304 -0.0934,-0.62281 -0.22348,-0.8593 -0.55599,-1.0108 -0.42341,-0.19292 -0.43407,-0.24868 -0.43407,-2.26963 0,-1.9773 0.0183,-2.07989 0.40179,-2.24812 0.27259,-0.11959 0.45511,-0.41666 0.56764,-0.92386 0.12452,-0.56125 0.26917,-0.77351 0.58036,-0.85161 0.29044,-0.0729 0.4145,-0.23307 0.4145,-0.5352 0,-0.33762 0.10654,-0.44342 0.49107,-0.48767 0.34652,-0.0399 0.50741,-0.17127 0.54657,-0.4464 0.0456,-0.32021 0.22112,-0.41614 0.98215,-0.53679 0.77007,-0.12208 0.93628,-0.2146 0.9837,-0.5476 0.044,-0.30873 0.17452,-0.40071 0.56873,-0.40071 0.81377,0 1.42778,-0.30528 1.42778,-0.70987 0,-0.30168 0.11619,-0.36156 0.70153,-0.36156 0.66161,0 1.26275,-0.34612 1.26275,-0.72704 0,-0.0912 0.16471,-0.16582 0.36601,-0.16582 0.49678,0 1.35255,-0.46028 1.48175,-0.79697 0.0579,-0.15095 0.30255,-0.27446 0.54362,-0.27446 0.25357,0 0.68867,-0.24459 1.03239,-0.58035 l 0.59409,-0.58036 0.0468,6.6415 0.0468,6.64151 -0.44859,0.44859 c -0.2783,0.2783 -0.44859,0.65054 -0.44859,0.98056 0,0.44759 -0.0779,0.54094 -0.49107,0.58848 -0.34434,0.0396 -0.50747,0.17154 -0.54594,0.44149 -0.0334,0.23438 -0.22551,0.42783 -0.49107,0.49448 -0.31593,0.0793 -0.43621,0.23164 -0.43621,0.5525 0,0.41649 -0.0573,0.44303 -0.95607,0.44303 -0.7723,0 -1.04865,0.0858 -1.43777,0.44643 -0.40915,0.37919 -0.65326,0.44643 -1.6208,0.44643 -1.04532,0 -1.14379,-0.0331 -1.19615,-0.40179 z"
         id="path921"
         transform="scale(0.26458333)" />
    </g>
    <text
       xml:space="preserve"
       style="font-size:4.23333px;line-height:1.25;font-family:Webdings;-inkscape-font-specification:Webdings;letter-spacing:0px;word-spacing:0px;stroke-width:0.264583"
       x="11.90625"
       y="5.2916665"
       id="text44"><tspan
         sodipodi:role="line"
         id="tspan42"
         x="11.90625"
         y="5.2916665"
         style="stroke-width:0.264583" /></text>
  </g>
</svg>
