<?xml version="1.0" encoding="UTF-8" standalone="no"?>
<svg
   xmlns:dc="http://purl.org/dc/elements/1.1/"
   xmlns:cc="http://creativecommons.org/ns#"
   xmlns:rdf="http://www.w3.org/1999/02/22-rdf-syntax-ns#"
   xmlns:svg="http://www.w3.org/2000/svg"
   xmlns="http://www.w3.org/2000/svg"
   xmlns:sodipodi="http://sodipodi.sourceforge.net/DTD/sodipodi-0.dtd"
   xmlns:inkscape="http://www.inkscape.org/namespaces/inkscape"
   width="50"
   height="50"
   viewBox="0 0 13.229166 13.229167"
   version="1.1"
   id="svg8"
   inkscape:version="1.0 (4035a4fb49, 2020-05-01)"
   sodipodi:docname="rainy.svg">
  <defs
     id="defs2" />
  <sodipodi:namedview
     id="base"
     pagecolor="#ffffff"
     bordercolor="#666666"
     borderopacity="1.0"
     inkscape:pageopacity="0.0"
     inkscape:pageshadow="2"
     inkscape:zoom="5.6"
     inkscape:cx="37.92762"
     inkscape:cy="29.984623"
     inkscape:document-units="mm"
     inkscape:current-layer="layer1"
     inkscape:document-rotation="0"
     showgrid="true"
     units="px"
     inkscape:window-width="1920"
     inkscape:window-height="986"
     inkscape:window-x="-11"
     inkscape:window-y="-11"
     inkscape:window-maximized="1">
    <inkscape:grid
       type="xygrid"
       id="grid10" />
  </sodipodi:namedview>
  <metadata
     id="metadata5">
    <rdf:RDF>
      <cc:Work
         rdf:about="">
        <dc:format>image/svg+xml</dc:format>
        <dc:type
           rdf:resource="http://purl.org/dc/dcmitype/StillImage" />
        <dc:title />
      </cc:Work>
    </rdf:RDF>
  </metadata>
  <g
     inkscape:label="Warstwa 1"
     inkscape:groupmode="layer"
     id="layer1">
    <g
       transform="matrix(0.31893389,0,0,0.31893389,-19.815285,-33.32499)"
       id="g1204">
      <path
         style="fill:#00ccff;stroke:#00ccff;stroke-width:6.81449;stroke-linecap:square;stroke-linejoin:round;stroke-miterlimit:4;stroke-dasharray:none;stroke-opacity:1;paint-order:stroke fill markers"
         d="m 283.88106,542.37327 c 0,-0.36058 -0.80289,-0.65366 -1.79072,-0.65366 -0.79167,0 -0.89245,-0.0454 -0.99349,-0.44798 -0.0671,-0.2674 -0.28031,-0.49012 -0.52889,-0.55251 -0.24335,-0.0611 -0.43927,-0.26152 -0.47133,-0.4822 -0.0337,-0.23236 -0.22662,-0.41757 -0.50129,-0.48138 -0.38533,-0.0895 -0.45864,-0.22493 -0.53571,-0.98946 -0.0756,-0.74998 -0.15087,-0.8945 -0.49107,-0.94282 -0.38974,-0.0553 -0.40179,-0.11788 -0.40179,-2.08579 0,-1.96792 0.012,-2.03044 0.40179,-2.0858 0.28163,-0.04 0.41798,-0.19664 0.45594,-0.5238 0.0336,-0.28951 0.22007,-0.54234 0.49107,-0.66582 0.24031,-0.10949 0.43692,-0.29312 0.43692,-0.40807 0,-0.28527 1.17432,-1.4058 1.47329,-1.4058 0.33916,0 0.66956,-0.3701 0.66956,-0.75 0,-0.25498 0.14503,-0.32143 0.70153,-0.32143 0.66161,0 1.26276,-0.34611 1.26276,-0.72704 0,-0.0912 0.14837,-0.16581 0.32971,-0.16581 0.50813,0 1.456,-0.53165 1.456,-0.81665 0,-0.17046 0.19997,-0.25478 0.60418,-0.25478 0.45348,0 0.62741,-0.0888 0.69733,-0.35624 0.10115,-0.3868 0.2319,-0.45202 1.24314,-0.62008 0.5571,-0.0926 0.66964,-0.18339 0.66964,-0.5403 0,-0.39115 0.0821,-0.43377 0.93024,-0.48298 0.81916,-0.0475 0.94498,-0.10728 1.05363,-0.5004 0.0679,-0.24554 0.1314,2.70759 0.14119,6.5625 0.0178,6.99281 0.0169,7.00893 -0.35486,7.00893 -0.24509,0 -0.43794,0.17296 -0.56337,0.50528 -0.1049,0.2779 -0.35908,0.57924 -0.56485,0.66964 -0.20577,0.0904 -0.3998,0.34517 -0.43119,0.56615 -0.0369,0.26021 -0.18008,0.40178 -0.4062,0.40178 -0.20606,0 -0.4172,0.17902 -0.51522,0.43682 -0.14301,0.37614 -0.29743,0.44435 -1.11165,0.49107 -0.82502,0.0473 -0.95285,0.10548 -1.00264,0.45604 -0.0524,0.3691 -0.15049,0.40179 -1.20536,0.40179 -0.8405,0 -1.14829,-0.0641 -1.14829,-0.2392 z"
         id="path905"
         transform="scale(0.26458333)" />
      <path
         style="fill:#00ccff;stroke:#00ccff;stroke-width:4.92472;stroke-linecap:square;stroke-linejoin:round;stroke-miterlimit:4;stroke-dasharray:none;stroke-opacity:1;paint-order:stroke fill markers"
         d="m 324.05963,542.27443 c 0,-0.41632 -0.33495,-0.55482 -1.34186,-0.55482 -0.6201,0 -0.79981,-0.0721 -0.89028,-0.35714 -0.0624,-0.19643 -0.18562,-0.35714 -0.27394,-0.35714 -0.31468,0 -1.42249,-1.26834 -1.42249,-1.62861 0,-0.24346 -0.18004,-0.43466 -0.53572,-0.56891 l -0.53571,-0.20221 0.003,-2.77335 c 0.002,-1.52535 0.0618,-2.8645 0.13393,-2.97591 0.0722,-0.11141 0.29191,-0.23276 0.48834,-0.26968 0.20655,-0.0388 0.38119,-0.23565 0.41417,-0.46679 0.035,-0.24539 0.22063,-0.44073 0.48085,-0.50604 0.25015,-0.0628 0.44631,-0.26114 0.47869,-0.48405 0.0337,-0.23228 0.22672,-0.41768 0.50129,-0.4816 0.27968,-0.0651 0.46745,-0.24905 0.50272,-0.49248 0.0542,-0.37393 0.2802,-0.46176 1.64014,-0.6373 0.14732,-0.019 0.29353,-0.21456 0.32492,-0.43454 0.0453,-0.31779 0.17374,-0.40046 0.625,-0.4024 0.98763,-0.004 1.37151,-0.18158 1.37151,-0.63361 0,-0.36937 0.0947,-0.42189 0.84821,-0.47024 0.662,-0.0425 0.88465,-0.13738 1.01418,-0.43227 0.11501,-0.26184 0.41654,-0.42631 0.98214,-0.53571 0.58571,-0.1133 0.86596,-0.27133 0.99245,-0.55966 0.11986,-0.2732 0.32979,-0.40179 0.65594,-0.40179 0.26382,0 0.72691,-0.20803 1.02909,-0.4623 l 0.54941,-0.4623 v 6.06647 c 0,5.83381 -0.0132,6.06992 -0.34314,6.15621 -0.25361,0.0663 -0.37672,0.31637 -0.47184,0.95833 -0.0839,0.56624 -0.27642,1.00658 -0.55309,1.26499 -0.23343,0.21802 -0.47224,0.63551 -0.53068,0.92775 -0.0727,0.36359 -0.2267,0.54853 -0.48769,0.58575 -0.26618,0.038 -0.39848,0.20275 -0.43792,0.54546 -0.0542,0.47115 -0.0977,0.49117 -1.07143,0.49351 -1.31717,0.003 -1.78213,0.1374 -1.9139,0.55256 -0.0893,0.28142 -0.28421,0.33786 -1.16663,0.33786 -0.92038,0 -1.05939,-0.0444 -1.05939,-0.33804 z"
         id="path909"
         transform="scale(0.26458333)" />
      <path
         style="fill:#f9f9f9;stroke:#f9f9f9;stroke-width:5.2422;stroke-linecap:square;stroke-linejoin:round;stroke-miterlimit:4;stroke-dasharray:none;stroke-opacity:1;paint-order:stroke fill markers"
         d="m 272.0343,501.2319 c -0.11223,-0.42914 -0.34447,-0.50508 -1.54469,-0.50508 -1.03907,0 -1.4126,-0.093 -1.4126,-0.35178 0,-0.40257 -0.53624,-0.65837 -1.38016,-0.65837 -0.36885,0 -0.6295,-0.18456 -0.71332,-0.50507 -0.10117,-0.38688 -0.34446,-0.50508 -1.0396,-0.50508 -0.73917,0 -0.90753,-0.0937 -0.90753,-0.50508 0,-0.40887 -0.16836,-0.50507 -0.88388,-0.50507 -0.6404,0 -0.88389,-0.11087 -0.88389,-0.40245 0,-0.22135 -0.22352,-0.46091 -0.49671,-0.53235 -0.27319,-0.0714 -0.56495,-0.3449 -0.64836,-0.6077 -0.0834,-0.2628 -0.3068,-0.47781 -0.49642,-0.47781 -0.18963,0 -0.41691,-0.22728 -0.50508,-0.50507 -0.0882,-0.2778 -0.31545,-0.50508 -0.50508,-0.50508 -0.18962,0 -0.41691,-0.22729 -0.50507,-0.50508 -0.0882,-0.27779 -0.30986,-0.50507 -0.49264,-0.50507 -0.18279,0 -0.39178,-0.22729 -0.46442,-0.50508 -0.0726,-0.27779 -0.29993,-0.50508 -0.50508,-0.50508 -0.20514,0 -0.43243,-0.22728 -0.50507,-0.50507 -0.0727,-0.27779 -0.31319,-0.50508 -0.53453,-0.50508 -0.27775,0 -0.40245,-0.232 -0.40245,-0.74873 0,-0.49027 -0.17435,-0.84204 -0.50508,-1.01904 -0.27779,-0.14866 -0.50507,-0.4843 -0.50507,-0.74584 0,-0.74435 -0.27385,-1.27446 -0.65837,-1.27446 -0.23543,0 -0.35179,-0.30018 -0.35179,-0.90753 0,-0.69514 -0.1182,-0.93843 -0.50507,-1.0396 -0.40633,-0.10626 -0.50508,-0.34447 -0.50508,-1.2184 0,-1.32717 -0.19489,-1.88523 -0.65836,-1.88523 -0.2889,0 -0.35179,-0.89769 -0.35179,-5.02131 0,-4.80892 0.0214,-5.0269 0.50507,-5.15339 0.42752,-0.1118 0.50508,-0.34447 0.50508,-1.51523 0,-1.17076 0.0776,-1.40343 0.50508,-1.51523 0.38687,-0.10117 0.50507,-0.34446 0.50507,-1.03961 0,-0.60735 0.11636,-0.90752 0.35179,-0.90752 0.40257,0 0.65837,-0.53624 0.65837,-1.38016 0,-0.36885 0.18455,-0.6295 0.50507,-0.71332 0.38688,-0.10117 0.50508,-0.34446 0.50508,-1.03961 0,-0.73916 0.0937,-0.90752 0.50507,-0.90752 0.33672,0 0.50508,-0.16836 0.50508,-0.50508 0,-0.33671 0.16836,-0.50507 0.50508,-0.50507 0.33671,0 0.50507,-0.16836 0.50507,-0.50508 0,-0.27779 0.16281,-0.50508 0.36179,-0.50508 0.19899,0 0.43393,-0.22728 0.5221,-0.50507 0.0882,-0.27779 0.31545,-0.50508 0.50507,-0.50508 0.18963,0 0.41691,-0.22728 0.50508,-0.50508 0.0882,-0.27779 0.31545,-0.50507 0.50508,-0.50507 0.18962,0 0.4169,-0.22729 0.50507,-0.50508 0.0882,-0.27779 0.32311,-0.50507 0.5221,-0.50507 0.19898,0 0.36178,-0.16912 0.36178,-0.37583 0,-0.24318 0.35653,-0.43283 1.01016,-0.53735 0.58982,-0.0943 1.01015,-0.30096 1.01015,-0.49662 0,-0.18443 0.40644,-0.41134 0.90405,-0.50469 0.49722,-0.0933 0.95966,-0.31454 1.02764,-0.49169 0.068,-0.17715 0.51945,-0.39636 1.00326,-0.48712 0.48382,-0.0908 0.94267,-0.32922 1.01968,-0.5299 0.077,-0.20068 0.45458,-0.36488 0.83905,-0.36488 1.22923,0 2.27739,-0.3051 2.27739,-0.66291 0,-0.2841 1.01015,-0.34724 5.55584,-0.34724 4.54568,0 5.55584,0.0631 5.55584,0.34724 0,0.35754 1.04797,0.66291 2.27495,0.66291 0.48421,0 0.73687,0.154 0.82868,0.50508 0.10971,0.41954 0.34446,0.50508 1.38613,0.50508 h 1.25406 l 0.15712,-0.98259 c 0.0864,-0.54042 0.32823,-1.04825 0.53735,-1.1285 0.27384,-0.10508 0.38024,-0.52853 0.38024,-1.51334 0,-1.15504 0.0784,-1.38794 0.50507,-1.49951 0.38291,-0.10013 0.50508,-0.34447 0.50508,-1.01015 0,-0.66569 0.12216,-0.91002 0.50507,-1.01015 0.38292,-0.10014 0.50508,-0.34447 0.50508,-1.01016 0,-0.66568 0.12217,-0.91002 0.50508,-1.01015 0.38687,-0.10117 0.50507,-0.34447 0.50507,-1.03961 0,-0.73916 0.0937,-0.90752 0.50508,-0.90752 0.3337,0 0.50508,-0.16836 0.50508,-0.49619 0,-0.27291 0.22728,-0.61783 0.50507,-0.7665 0.33073,-0.177 0.50508,-0.52877 0.50508,-1.01904 0,-0.58037 0.11357,-0.74873 0.50507,-0.74873 0.3263,0 0.50508,-0.16836 0.50508,-0.47562 0,-0.26324 0.22554,-0.5346 0.50508,-0.6077 0.27779,-0.0727 0.50507,-0.29993 0.50507,-0.50508 0,-0.20515 0.22729,-0.43243 0.50508,-0.50508 0.27779,-0.0726 0.50508,-0.31318 0.50508,-0.53453 0,-0.23409 0.21129,-0.40245 0.50507,-0.40245 0.33672,0 0.50508,-0.16836 0.50508,-0.50507 0,-0.33672 0.16836,-0.50508 0.50507,-0.50508 0.33672,0 0.50508,-0.16836 0.50508,-0.50508 0,-0.33671 0.16836,-0.50507 0.50508,-0.50507 0.33671,0 0.50507,-0.16836 0.50507,-0.50508 0,-0.33672 0.16836,-0.50507 0.50508,-0.50507 0.33672,0 0.50508,-0.16836 0.50508,-0.50508 0,-0.41138 0.16836,-0.50508 0.90752,-0.50508 0.69514,0 0.93844,-0.1182 1.03961,-0.50507 0.0726,-0.2778 0.3394,-0.50508 0.5928,-0.50508 0.25339,0 0.53812,-0.12524 0.63272,-0.27831 0.0946,-0.15306 0.55587,-0.43869 1.02505,-0.63473 0.46918,-0.19604 0.85306,-0.46855 0.85306,-0.60558 0,-0.13703 0.2841,-0.24915 0.63134,-0.24915 0.34724,0 0.85863,-0.22728 1.13643,-0.50507 0.27779,-0.27779 0.78821,-0.50508 1.13428,-0.50508 0.3557,0 0.76631,-0.21954 0.94463,-0.50508 0.25525,-0.40873 0.58892,-0.50507 1.74925,-0.50507 1.63966,0 2.23275,-0.16772 2.23275,-0.63138 0,-0.24658 0.92757,-0.34651 3.85121,-0.41492 6.3756,-0.14919 11.30108,0.0302 11.30108,0.41161 0,0.4347 0.57464,0.63469 1.82371,0.63469 0.65596,0 1.13317,0.14821 1.32591,0.4118 0.18403,0.25168 0.80861,0.46057 1.60621,0.53721 0.82953,0.0797 1.30508,0.24364 1.30508,0.44988 0,0.18176 0.44432,0.39955 1.01016,0.49514 0.58403,0.0987 1.01015,0.31174 1.01015,0.50508 0,0.19335 0.42612,0.40641 1.01015,0.50508 0.62104,0.10492 1.01015,0.30803 1.01015,0.52727 0,0.19614 0.20968,0.35661 0.46594,0.35661 0.25627,0 0.67162,0.22728 0.92302,0.50508 0.2514,0.27779 0.65351,0.50507 0.89357,0.50507 0.24007,0 0.49592,0.22729 0.56857,0.50508 0.0726,0.27779 0.31318,0.50508 0.53453,0.50508 0.22134,0 0.40245,0.17327 0.40245,0.38505 0,0.21178 0.2841,0.49308 0.63134,0.6251 0.34724,0.13202 0.63135,0.41331 0.63135,0.62509 0,0.2693 0.25727,0.38506 0.85578,0.38506 0.78049,0 0.87058,0.0789 1.02408,0.89716 0.0926,0.49343 0.3325,0.96016 0.53318,1.03717 0.20068,0.077 0.36488,0.30896 0.36488,0.51544 0,0.20649 0.22728,0.43487 0.50507,0.50752 0.27954,0.0731 0.50508,0.34446 0.50508,0.6077 0,0.30726 0.17878,0.47562 0.50508,0.47562 0.33671,0 0.50507,0.16836 0.50507,0.50508 0,0.33671 0.16836,0.50507 0.50508,0.50507 0.41137,0 0.50507,0.16836 0.50507,0.90753 0,0.69514 0.1182,0.93844 0.50508,1.03961 0.35732,0.0934 0.50508,0.34446 0.50508,0.8581 0,0.45252 0.19026,0.84484 0.50507,1.04144 0.27779,0.17349 0.50508,0.51538 0.50508,0.75976 0,0.24438 0.22728,0.67161 0.50508,0.9494 0.27779,0.27779 0.50507,0.73236 0.50507,1.01015 0,0.2778 0.22729,0.73237 0.50508,1.01016 0.37286,0.37286 0.50507,0.84179 0.50507,1.79141 0,1.05231 0.0875,1.30921 0.48082,1.41207 0.41896,0.10956 0.49205,0.41742 0.56821,2.39336 0.0709,1.83828 0.17107,2.31444 0.52934,2.51483 0.37472,0.20959 0.44194,0.62937 0.44194,2.76002 v 2.51283 h 5.02131 c 4.80892,0 5.02689,0.0214 5.15339,0.50507 0.11066,0.42319 0.34446,0.50508 1.44205,0.50508 1.09759,0 1.33139,0.0819 1.44206,0.50508 0.0986,0.37698 0.34447,0.50507 0.96949,0.50507 0.61562,0 0.87987,0.13378 0.99772,0.50508 0.11929,0.37585 0.3821,0.50508 1.02717,0.50508 0.6985,0 0.86686,0.0981 0.86686,0.50507 0,0.32629 0.16836,0.50508 0.47563,0.50508 0.26323,0 0.5346,0.22554 0.6077,0.50507 0.0726,0.2778 0.29993,0.50508 0.50508,0.50508 0.20514,0 0.43243,0.22729 0.50507,0.50508 0.0726,0.27779 0.29993,0.50507 0.50508,0.50507 0.20515,0 0.43243,0.22729 0.50507,0.50508 0.0727,0.27779 0.31319,0.50508 0.53453,0.50508 0.23409,0 0.40245,0.21129 0.40245,0.50507 0,0.33672 0.16836,0.50508 0.50508,0.50508 0.41138,0 0.50508,0.16836 0.50508,0.90752 0,0.69515 0.1182,0.93844 0.50507,1.03961 0.35594,0.0931 0.50508,0.34447 0.50508,0.85136 0,0.46081 0.18149,0.8164 0.50508,0.98958 0.40288,0.21562 0.50507,0.52877 0.50507,1.54776 0,1.06506 0.084,1.2994 0.50508,1.40953 0.48123,0.12584 0.50507,0.34446 0.50507,4.63129 0,4.27742 -0.0249,4.50712 -0.50507,4.65952 -0.42343,0.13439 -0.50508,0.3821 -0.50508,1.53225 0,1.20358 -0.062,1.37194 -0.50507,1.37194 -0.37039,0 -0.50508,0.16836 -0.50508,0.63134 0,0.37129 -0.14491,0.63135 -0.35179,0.63135 -0.38613,0 -0.65836,0.53066 -0.65836,1.28335 0,0.27488 -0.17408,0.48442 -0.40245,0.48442 -0.22135,0 -0.46189,0.22728 -0.53453,0.50507 -0.0727,0.27779 -0.29993,0.50508 -0.50508,0.50508 -0.20515,0 -0.43243,0.22728 -0.50508,0.50508 -0.0726,0.27779 -0.29992,0.50507 -0.50507,0.50507 -0.20515,0 -0.43243,0.22729 -0.50508,0.50508 -0.0726,0.27779 -0.29993,0.50507 -0.50507,0.50507 -0.20515,0 -0.43244,0.22729 -0.50508,0.50508 -0.0731,0.27954 -0.34447,0.50508 -0.6077,0.50508 -0.30727,0 -0.47563,0.17878 -0.47563,0.50507 0,0.40699 -0.16836,0.50508 -0.86686,0.50508 -0.64507,0 -0.90788,0.12923 -1.02717,0.50508 -0.0882,0.27779 -0.37993,0.50507 -0.64837,0.50507 -0.31969,0 -0.48805,0.17423 -0.48805,0.50508 0,0.44385 -0.16836,0.50507 -1.38896,0.50507 -1.2206,0 -1.38896,0.0612 -1.38896,0.50508 0,0.50331 -0.16836,0.50508 -48.07906,0.50508 -47.86668,0 -48.07965,-0.002 -48.21114,-0.50508 z"
         id="path931"
         transform="scale(0.26458333)" />
      <path
         style="fill:#000000;fill-opacity:1;stroke:none;stroke-width:1.08524;stroke-linecap:square;stroke-linejoin:round;paint-order:stroke fill markers"
         d="m 281.90353,552.24179 c -0.14829,-0.22818 -0.81724,-0.45226 -1.63243,-0.54681 -0.80315,-0.0932 -1.58932,-0.35412 -1.87852,-0.62355 -0.27354,-0.25484 -0.7032,-0.46334 -0.9548,-0.46334 -0.2516,0 -0.45746,-0.15782 -0.45746,-0.3507 0,-0.20086 -0.37765,-0.42155 -0.88388,-0.51652 -0.50572,-0.0949 -0.88388,-0.31571 -0.88388,-0.51617 0,-0.19269 -0.21679,-0.41915 -0.48175,-0.50324 -0.26496,-0.0841 -0.5455,-0.31904 -0.62342,-0.5221 -0.0779,-0.20305 -0.3157,-0.36919 -0.52841,-0.36919 -0.2127,0 -0.38673,-0.1811 -0.38673,-0.40245 0,-0.22135 -0.22728,-0.46189 -0.50508,-0.53453 -0.27779,-0.0726 -0.50507,-0.29993 -0.50507,-0.50508 0,-0.20514 -0.2166,-0.42964 -0.48133,-0.49886 -0.30851,-0.0807 -0.5402,-0.43966 -0.64528,-0.99979 -0.0902,-0.48065 -0.32814,-0.93692 -0.52882,-1.01392 -0.20068,-0.077 -0.36488,-0.35514 -0.36488,-0.61808 0,-0.30969 -0.17787,-0.47805 -0.50507,-0.47805 -0.44747,0 -0.50508,-0.16836 -0.50508,-1.47609 0,-1.14872 -0.11052,-1.57611 -0.49834,-1.92708 -0.44407,-0.40188 -0.50596,-0.83935 -0.56821,-4.01662 l -0.0699,-3.56562 -1.93037,-0.0733 c -1.67091,-0.0634 -1.94776,-0.1398 -2.0598,-0.56821 -0.0983,-0.37573 -0.34801,-0.49493 -1.03695,-0.49493 -0.61577,0 -0.90753,-0.11533 -0.90753,-0.35874 0,-0.19731 -0.31885,-0.42878 -0.70856,-0.51437 -0.38971,-0.0856 -0.86936,-0.37873 -1.0659,-0.65141 -0.19654,-0.27269 -0.54629,-0.49579 -0.77722,-0.49579 -0.23092,0 -0.4793,-0.22728 -0.55195,-0.50508 -0.0726,-0.27779 -0.29993,-0.50507 -0.50507,-0.50507 -0.20515,0 -0.43244,-0.22729 -0.50508,-0.50508 -0.0726,-0.27779 -0.29993,-0.50507 -0.50508,-0.50507 -0.20514,0 -0.43243,-0.22729 -0.50507,-0.50508 -0.0727,-0.27779 -0.31319,-0.50508 -0.53453,-0.50508 -0.22135,0 -0.40245,-0.17403 -0.40245,-0.38673 0,-0.2127 -0.1593,-0.44786 -0.35399,-0.52257 -0.19469,-0.0747 -0.42712,-0.52571 -0.51652,-1.00223 -0.0967,-0.51528 -0.31141,-0.86639 -0.5299,-0.86639 -0.23627,0 -0.36736,-0.25908 -0.36736,-0.72604 0,-1.25423 -0.30211,-2.30441 -0.66291,-2.30441 -0.52947,0 -0.50869,-8.21777 0.0213,-8.42115 0.21949,-0.0842 0.43692,-0.65689 0.53761,-1.41597 0.10177,-0.76715 0.29574,-1.27456 0.48725,-1.27456 0.17499,0 0.3939,-0.40372 0.48647,-0.89716 0.0926,-0.49343 0.3325,-0.96016 0.53318,-1.03717 0.23696,-0.0909 0.36488,-0.50709 0.36488,-1.1871 0,-1.11416 -0.20043,-1.37585 -2.56998,-3.35555 -0.59477,-0.49692 -1.26706,-1.20321 -1.49399,-1.56954 -0.22692,-0.36633 -0.69533,-0.96617 -1.04091,-1.33298 -0.34557,-0.36681 -0.69849,-0.84979 -0.78425,-1.07329 -0.0858,-0.22349 -0.32997,-0.40635 -0.54267,-0.40635 -0.21837,0 -0.38673,-0.21988 -0.38673,-0.50508 0,-0.27779 -0.22729,-0.73236 -0.50508,-1.01015 -0.27779,-0.27779 -0.50507,-0.68618 -0.50507,-0.90753 0,-0.22134 -0.22729,-0.46188 -0.50508,-0.53453 -0.38291,-0.10013 -0.50508,-0.34446 -0.50508,-1.01015 0,-0.66569 -0.12216,-0.91002 -0.50507,-1.01015 -0.38291,-0.10014 -0.50508,-0.34447 -0.50508,-1.01015 0,-0.66569 -0.12217,-0.91002 -0.50508,-1.01016 -0.39569,-0.10347 -0.50507,-0.34446 -0.50507,-1.11278 0,-0.64398 -0.17342,-1.15411 -0.50508,-1.48577 -0.38184,-0.38185 -0.50508,-0.84179 -0.50508,-1.88515 0,-1.12162 -0.0946,-1.4307 -0.50507,-1.65038 -0.48626,-0.26024 -0.50508,-0.52877 -0.50508,-7.20623 0,-6.76755 0.0123,-6.93591 0.50508,-6.93591 0.44784,0 0.50507,-0.16836 0.50507,-1.48578 0,-1.27338 0.0722,-1.50465 0.50508,-1.61785 0.4211,-0.11012 0.50508,-0.34447 0.50508,-1.40953 0,-1.01899 0.10219,-1.33214 0.50507,-1.54776 0.31533,-0.16875 0.50508,-0.52876 0.50508,-0.95829 0,-0.41448 0.20079,-0.81337 0.50508,-1.0034 0.3148,-0.1966 0.50507,-0.58893 0.50507,-1.04145 0,-0.51363 0.14775,-0.76466 0.50508,-0.8581 0.38291,-0.10013 0.50508,-0.34446 0.50508,-1.01015 0,-0.66569 0.12216,-0.91002 0.50507,-1.01016 0.27779,-0.0726 0.50508,-0.31318 0.50508,-0.53453 0,-0.22134 0.17403,-0.40245 0.38673,-0.40245 0.2127,0 0.46208,-0.19633 0.55416,-0.43631 0.0921,-0.23996 0.54759,-0.81646 1.01222,-1.2811 0.46464,-0.46464 0.90931,-1.16737 0.98817,-1.56163 0.0824,-0.41196 0.34665,-0.76999 0.62134,-0.84182 0.2629,-0.0687 0.47799,-0.3061 0.47799,-0.52745 0,-0.28151 0.23476,-0.40245 0.78125,-0.40245 0.56888,0 0.81717,-0.1373 0.91334,-0.50507 0.0731,-0.27954 0.34447,-0.50508 0.6077,-0.50508 0.30727,0 0.47563,-0.17878 0.47563,-0.50508 0,-0.33671 0.16836,-0.50507 0.50507,-0.50507 0.33672,0 0.50508,-0.16836 0.50508,-0.50508 0,-0.37091 0.16836,-0.50508 0.63382,-0.50508 0.3486,0 0.82842,-0.22728 1.06627,-0.50507 0.23786,-0.27779 0.63449,-0.50508 0.88142,-0.50508 0.28059,0 0.44895,-0.1894 0.44895,-0.50507 0,-0.4209 0.16836,-0.50508 1.01015,-0.50508 0.84179,0 1.01015,-0.0842 1.01015,-0.50508 0,-0.42089 0.16836,-0.50507 1.01015,-0.50507 0.8418,0 1.01016,-0.0842 1.01016,-0.50508 0,-0.44896 0.16836,-0.50508 1.51523,-0.50508 1.11415,0 1.51523,-0.0915 1.51523,-0.34576 0,-0.33706 1.20672,-0.65571 2.50549,-0.66161 0.3363,-0.002 0.7949,-0.16879 1.01911,-0.3717 0.37188,-0.33655 3.73081,-0.51794 11.69082,-0.63134 0.61882,-0.009 0.69448,-0.10297 0.69448,-0.86432 0,-0.64204 0.12554,-0.88726 0.50507,-0.98651 0.2778,-0.0726 0.50508,-0.34267 0.50508,-0.60005 0,-0.25739 0.22728,-0.60992 0.50508,-0.7834 0.27942,-0.17451 0.50507,-0.58893 0.50507,-0.92761 0,-0.3904 0.18299,-0.67027 0.50508,-0.77249 0.27779,-0.0882 0.50508,-0.36232 0.50508,-0.60923 0,-0.2469 0.22728,-0.6546 0.50507,-0.906 0.27779,-0.2514 0.50508,-0.66676 0.50508,-0.92303 0,-0.29757 0.1825,-0.46593 0.50507,-0.46593 0.33672,0 0.50508,-0.16836 0.50508,-0.50508 0,-0.2852 0.16836,-0.50508 0.38673,-0.50508 0.21271,0 0.46303,-0.19887 0.55627,-0.44194 0.19119,-0.49842 4.32155,-4.60882 4.6312,-4.60882 0.11008,0 0.27228,-0.22728 0.36045,-0.50507 0.0882,-0.2778 0.31545,-0.50508 0.50507,-0.50508 0.18963,0 0.41302,-0.21501 0.49642,-0.47781 0.0834,-0.2628 0.37518,-0.53626 0.64837,-0.6077 0.27319,-0.0714 0.49671,-0.311 0.49671,-0.53235 0,-0.23474 0.2115,-0.40245 0.50755,-0.40245 0.27915,0 0.70215,-0.22728 0.94001,-0.50507 0.23785,-0.27779 0.62683,-0.50508 0.86439,-0.50508 0.23756,0 0.50407,-0.22728 0.59224,-0.50507 0.10223,-0.32209 0.3821,-0.50508 0.77249,-0.50508 0.33869,0 0.75311,-0.22565 0.92761,-0.50508 0.19125,-0.30623 0.58893,-0.50507 1.01016,-0.50507 0.42122,0 0.8189,-0.19884 1.01015,-0.50508 0.17348,-0.27779 0.57219,-0.50508 0.88602,-0.50508 0.31383,0 0.79789,-0.22728 1.07568,-0.50507 0.30603,-0.30604 0.84179,-0.50508 1.3595,-0.50508 0.64205,0 0.88726,-0.12555 0.98651,-0.50507 0.11006,-0.42087 0.34447,-0.50508 1.40587,-0.50508 0.88923,0 1.34007,-0.11845 1.49336,-0.39236 0.14267,-0.25493 0.7441,-0.44351 1.71718,-0.5384 0.82368,-0.0803 1.66807,-0.29287 1.87641,-0.47232 0.21434,-0.18462 1.44174,-0.40401 2.82692,-0.50531 1.70633,-0.12479 2.48824,-0.28365 2.58058,-0.52428 0.19346,-0.50415 6.16555,-0.50045 6.3591,0.004 0.0998,0.26001 1.00067,0.3956 3.52761,0.53094 2.51369,0.13464 3.39361,0.26646 3.39361,0.50842 0,0.22505 0.62838,0.38227 2.02031,0.50549 1.47511,0.13057 2.0203,0.27396 2.0203,0.53136 0,0.24291 0.31408,0.35252 1.01016,0.35252 0.69507,0 1.01015,0.10973 1.01015,0.35179 0,0.41683 0.54119,0.65836 1.47513,0.65836 0.40272,0 0.80379,0.20428 0.99164,0.50508 0.22727,0.36391 0.58893,0.50507 1.29399,0.50507 0.76617,0 1.00722,0.10963 1.11064,0.50508 0.10117,0.38688 0.34446,0.50508 1.0396,0.50508 0.64488,0 0.90753,0.11144 0.90753,0.38505 0,0.21179 0.26861,0.48719 0.5969,0.612 0.3283,0.12482 0.66566,0.40612 0.74969,0.6251 0.0926,0.24135 0.45428,0.39815 0.91833,0.39815 0.59718,0 0.76554,0.11108 0.76554,0.50508 0,0.3137 0.16836,0.50507 0.44432,0.50507 0.24439,0 0.58628,0.22729 0.75976,0.50508 0.20123,0.32223 0.58892,0.50508 1.0709,0.50508 0.58711,0 0.75547,0.11255 0.75547,0.50507 0,0.33672 0.16836,0.50508 0.50508,0.50508 0.33672,0 0.50508,0.16836 0.50508,0.50508 0,0.33671 0.16836,0.50507 0.50507,0.50507 0.33672,0 0.50508,0.16836 0.50508,0.50508 0,0.33672 0.16836,0.50507 0.50508,0.50507 0.33671,0 0.50507,0.16836 0.50507,0.50508 0,0.33672 0.16836,0.50508 0.50508,0.50508 0.33671,0 0.50507,0.16836 0.50507,0.50507 0,0.33672 0.16836,0.50508 0.50508,0.50508 0.3137,0 0.50508,0.16836 0.50508,0.44433 0,0.24438 0.22728,0.58627 0.50507,0.75975 0.27943,0.17451 0.50508,0.58893 0.50508,0.92762 0,0.39039 0.18299,0.67026 0.50508,0.77249 0.27779,0.0882 0.50507,0.36668 0.50507,0.61891 0,0.25223 0.22729,0.51804 0.50508,0.59068 0.28596,0.0748 0.50507,0.34447 0.50507,0.62166 0,0.26927 0.22729,0.69527 0.50508,0.94667 0.27779,0.2514 0.50508,0.6135 0.50508,0.80468 0,0.19117 0.15929,0.40872 0.35398,0.48343 0.19469,0.0747 0.42712,0.52571 0.51652,1.00222 0.0894,0.47652 0.31332,0.86639 0.49762,0.86639 0.19566,0 0.40231,0.42034 0.49662,1.01016 0.0992,0.62068 0.29787,1.01015 0.51516,1.01015 0.21576,0 0.42016,0.39382 0.52429,1.01015 0.0956,0.56584 0.31338,1.01015 0.49514,1.01015 0.20624,0 0.37017,0.47555 0.44988,1.30509 0.0702,0.73014 0.28943,1.42548 0.49774,1.57836 0.20478,0.15031 0.43538,0.83458 0.51244,1.52061 0.077,0.68604 0.31323,1.37393 0.52483,1.52866 0.21161,0.15473 0.42202,0.67303 0.46758,1.15178 0.0827,0.86937 0.0846,0.87055 1.50857,0.94541 1.16628,0.0613 1.44921,0.16471 1.55472,0.56821 0.10857,0.41516 0.35266,0.49326 1.5416,0.49326 1.07588,0 1.53299,0.12039 1.91768,0.50507 0.31767,0.31768 0.84179,0.50508 1.4126,0.50508 0.69514,0 0.93843,0.1182 1.0396,0.50508 0.10348,0.39569 0.34447,0.50507 1.11278,0.50507 0.81234,0 0.9807,0.0867 0.9807,0.50508 0,0.2806 0.16836,0.50507 0.37881,0.50507 0.20834,0 0.60609,0.22729 0.88388,0.50508 0.27779,0.27779 0.78918,0.50508 1.13642,0.50508 0.46299,0 0.63135,0.13468 0.63135,0.50507 0,0.33672 0.16836,0.50508 0.50508,0.50508 0.27779,0 0.50507,0.16281 0.50507,0.36179 0,0.19898 0.21679,0.43059 0.48175,0.51469 0.26496,0.0841 0.5455,0.31904 0.62342,0.52209 0.0779,0.20306 0.25371,0.3692 0.39066,0.3692 0.13694,0 0.53309,0.2841 0.88033,0.63134 0.34724,0.34724 0.79794,0.63135 1.00156,0.63135 0.20625,0 0.44413,0.33648 0.53709,0.75971 0.0918,0.41785 0.3849,0.87641 0.6514,1.01904 0.26651,0.14263 0.48455,0.42579 0.48455,0.62924 0,0.20346 0.11608,0.36993 0.25796,0.36993 0.14187,0 0.3874,0.2841 0.54561,0.63134 0.15821,0.34724 0.43988,0.63135 0.62593,0.63135 0.18605,0 0.33827,0.21799 0.33827,0.48442 0,0.75269 0.27223,1.28334 0.65837,1.28334 0.23543,0 0.35178,0.30018 0.35178,0.90753 0,0.69514 0.1182,0.93844 0.50508,1.03961 0.38291,0.10013 0.50508,0.34446 0.50508,1.01015 0,0.649 0.12465,0.91067 0.47784,1.00303 0.39848,0.10421 0.49447,0.41941 0.57802,1.89793 0.0734,1.29869 0.21577,1.85749 0.53231,2.08894 0.38667,0.28275 0.43213,0.94266 0.43213,6.27338 0,5.36094 -0.0433,5.98161 -0.43238,6.19936 -0.32653,0.18274 -0.45684,0.67491 -0.53231,2.01052 -0.0833,1.4743 -0.17944,1.78934 -0.57777,1.89351 -0.35319,0.0924 -0.47784,0.35403 -0.47784,1.00303 0,0.66569 -0.12217,0.91002 -0.50508,1.01015 -0.38688,0.10117 -0.50508,0.34447 -0.50508,1.03961 0,0.63314 -0.11307,0.90753 -0.37399,0.90753 -0.2057,0 -0.449,0.31251 -0.54067,0.69448 -0.0917,0.38196 -0.37794,0.89778 -0.63616,1.14626 -0.25821,0.24847 -0.46948,0.61781 -0.46948,0.82075 0,0.20293 -0.17046,0.36896 -0.37881,0.36896 -0.20834,0 -0.37881,0.16647 -0.37881,0.36993 0,0.20345 -0.22728,0.49156 -0.50507,0.64023 -0.27779,0.14867 -0.50508,0.36943 -0.50508,0.49057 0,0.2928 -3.26539,3.55004 -3.55891,3.55004 -0.12604,0 -0.22916,0.11645 -0.22916,0.25878 0,0.14234 -0.28411,0.36681 -0.63135,0.49883 -0.34724,0.13202 -0.63134,0.41331 -0.63134,0.6251 0,0.21178 -0.19995,0.38505 -0.44433,0.38505 -0.24438,0 -0.58627,0.22729 -0.75975,0.50508 -0.18329,0.29348 -0.58893,0.50508 -0.96828,0.50508 -0.44046,0 -0.69581,0.16431 -0.78493,0.50507 -0.10013,0.38291 -0.34446,0.50508 -1.01015,0.50508 -0.66569,0 -0.91002,0.12216 -1.01015,0.50507 -0.10013,0.38292 -0.34447,0.50508 -1.01015,0.50508 -0.66569,0 -0.91002,0.12217 -1.01016,0.50508 -0.11027,0.4217 -0.34606,0.50564 -1.42845,0.50852 -1.63612,0.004 -2.43279,0.21486 -2.43279,0.64283 0,0.21338 -0.38931,0.363 -1.07329,0.41249 l -1.07328,0.0777 -0.0694,3.94967 c -0.0648,3.69005 -0.10219,3.95823 -0.56821,4.0801 -0.42172,0.11028 -0.49881,0.34875 -0.49881,1.54304 0,1.24424 -0.0602,1.4126 -0.50507,1.4126 -0.3272,0 -0.50508,0.16836 -0.50508,0.47806 0,0.26293 -0.15584,0.53786 -0.34631,0.61095 -0.19047,0.0731 -0.41828,0.41964 -0.50624,0.77011 -0.16761,0.66779 -3.2017,3.94926 -3.65154,3.94926 -0.14305,0 -0.33223,0.22729 -0.4204,0.50508 -0.11378,0.35849 -0.3821,0.50507 -0.92455,0.50507 -0.55185,0 -0.80094,0.14037 -0.89632,0.50508 -0.10013,0.38291 -0.34446,0.50508 -1.01015,0.50508 -0.66569,0 -0.91002,0.12216 -1.01015,0.50507 -0.11445,0.43767 -0.34447,0.50508 -1.72347,0.50508 -1.81794,0 -2.39031,0.15765 -2.39031,0.65836 0,0.55443 -3.0019,0.48739 -3.41403,-0.0762 -0.22198,-0.30357 -0.79271,-0.45857 -1.96288,-0.53308 -1.37189,-0.0874 -1.67154,-0.18779 -1.77829,-0.59602 -0.11033,-0.42189 -0.31772,-0.48012 -1.47423,-0.41393 l -1.34583,0.077 -0.0697,3.69174 c -0.0624,3.30362 -0.1221,3.73916 -0.56821,4.14288 -0.37788,0.34198 -0.49851,0.7778 -0.49851,1.80097 0,1.02672 -0.09,1.34982 -0.37582,1.34982 -0.24318,0 -0.43284,0.35653 -0.53736,1.01016 -0.0897,0.56112 -0.30356,1.01015 -0.48104,1.01015 -0.37751,0 -0.62609,0.55967 -0.62609,1.40961 0,0.39043 -0.14516,0.61069 -0.40245,0.61069 -0.22134,0 -0.46188,0.22729 -0.53453,0.50508 -0.0726,0.27779 -0.29993,0.50508 -0.50507,0.50508 -0.20515,0 -0.43243,0.22728 -0.50508,0.50507 -0.0726,0.27779 -0.28364,0.50508 -0.46888,0.50508 -0.18525,0 -0.42769,0.14238 -0.53876,0.3164 -0.27661,0.43337 -2.17916,1.7039 -2.5515,1.7039 -0.16616,0 -0.3021,0.15782 -0.3021,0.35071 0,0.20033 -0.37603,0.42124 -0.87702,0.51523 -0.48236,0.0905 -0.96534,0.31437 -1.07329,0.4975 -0.10795,0.18314 -0.75757,0.39432 -1.4436,0.46929 -0.72034,0.0787 -1.37228,0.30718 -1.54307,0.54075 -0.24057,0.329 -0.82053,0.40444 -3.10895,0.40444 -2.4765,0 -2.87367,-0.0604 -3.31829,-0.50507 -0.35178,-0.35178 -0.84179,-0.50508 -1.61448,-0.50508 -0.73434,0 -1.15674,-0.12335 -1.24942,-0.36487 -0.077,-0.20068 -0.54373,-0.44061 -1.03717,-0.53318 -0.49343,-0.0926 -0.89715,-0.31847 -0.89715,-0.502 0,-0.18352 -0.22729,-0.40582 -0.50508,-0.49399 -0.27779,-0.0882 -0.50508,-0.2691 -0.50508,-0.40207 0,-0.13298 -0.2841,-0.34979 -0.63134,-0.48181 -0.34724,-0.13202 -0.63135,-0.34768 -0.63135,-0.47924 0,-0.13156 -0.39775,-0.37047 -0.88388,-0.53091 -0.48614,-0.16044 -0.88388,-0.42602 -0.88388,-0.59019 0,-0.16416 -0.22729,-0.44041 -0.50508,-0.6139 -0.27779,-0.17348 -0.50508,-0.48603 -0.50508,-0.69456 0,-0.20852 -0.22728,-0.57374 -0.50507,-0.8116 -0.2778,-0.23785 -0.50508,-0.60715 -0.50508,-0.82066 0,-0.21351 -0.22728,-0.53015 -0.50508,-0.70363 -0.31708,-0.19803 -0.50507,-0.58893 -0.50507,-1.05025 0,-0.98973 -0.23352,-1.53374 -0.65837,-1.53374 -0.27307,0 -0.35178,-0.47983 -0.35178,-2.14444 0,-1.87093 -0.0644,-2.18466 -0.50508,-2.45985 -0.44263,-0.27643 -0.50508,-0.58893 -0.50508,-2.52753 v -2.21209 h -1.51523 c -1.12173,0 -1.51522,-0.0907 -1.51522,-0.34936 0,-0.62831 -2.34213,-0.91179 -3.2996,-0.39937 -0.45658,0.24435 -0.48848,0.57414 -0.48848,5.05076 0,4.62098 -0.0177,4.78934 -0.50507,4.78934 -0.4209,0 -0.50508,0.16836 -0.50508,1.01015 0,0.69508 -0.10973,1.01016 -0.35179,1.01016 -0.40717,0 -0.65836,0.53782 -0.65836,1.40961 0,0.38004 -0.14607,0.61069 -0.38673,0.61069 -0.21271,0 -0.45972,0.19019 -0.54892,0.42265 -0.0892,0.23246 -0.34133,0.61671 -0.56029,0.85389 -0.21895,0.23718 -0.62538,0.72359 -0.90317,1.0809 -0.2778,0.35732 -0.6963,0.65492 -0.93,0.66134 -0.23371,0.006 -0.49706,0.23896 -0.58523,0.51676 -0.0882,0.27779 -0.32668,0.50507 -0.53002,0.50507 -0.20335,0 -0.43114,0.16006 -0.50621,0.35569 -0.0751,0.19562 -0.46925,0.49352 -0.87596,0.66198 -0.4067,0.16847 -0.73946,0.40615 -0.73946,0.5282 0,0.12204 -0.17047,0.2219 -0.37881,0.2219 -0.20834,0 -0.60609,0.22728 -0.88388,0.50507 -0.33672,0.33672 -0.8418,0.50508 -1.51523,0.50508 -0.67344,0 -1.17851,0.16836 -1.51523,0.50508 -0.44524,0.44524 -0.84179,0.50507 -3.34742,0.50507 -2.27424,0 -2.89257,-0.0773 -3.09359,-0.3866 z m 4.45371,-8.10329 c 0.24836,-0.22477 0.96757,-0.46683 1.59824,-0.53792 0.75076,-0.0846 1.14667,-0.25088 1.14667,-0.48152 0,-0.19375 0.34496,-0.42127 0.76659,-0.5056 0.42162,-0.0843 0.89156,-0.38684 1.04431,-0.67226 0.15275,-0.28541 0.48964,-0.7464 0.74864,-1.0244 0.25901,-0.27801 0.47092,-0.71133 0.47092,-0.96293 0,-0.2516 0.15831,-0.45746 0.35179,-0.45746 0.19348,0 0.42077,-0.17976 0.50507,-0.39946 0.0843,-0.2197 0.15329,-3.9699 0.15329,-8.33376 v -7.9343 h -1.37194 c -1.15015,0 -1.39786,0.0817 -1.53225,0.50508 -0.11928,0.37585 -0.38209,0.50508 -1.02717,0.50508 -0.59018,0 -0.86686,0.11725 -0.86686,0.36736 0,0.22146 -0.35905,0.43472 -0.90405,0.53697 -0.49722,0.0933 -0.96001,0.31545 -1.02842,0.49372 -0.0684,0.17827 -0.41167,0.39623 -0.76279,0.48436 -0.35112,0.0881 -0.93952,0.35863 -1.30755,0.60112 -1.20306,0.79268 -1.66936,1.05537 -2.35353,1.32583 -0.37083,0.1466 -0.73099,0.41444 -0.80035,0.5952 -0.0694,0.18077 -0.43397,0.40593 -0.81023,0.50037 -0.72298,0.18145 -2.13461,1.43408 -2.13461,1.89417 0,0.14958 -0.1583,0.27196 -0.35179,0.27196 -0.38613,0 -0.65836,0.53066 -0.65836,1.28335 0,0.26643 -0.22728,0.71171 -0.50508,0.9895 -0.42089,0.42089 -0.50507,0.84179 -0.50507,2.52538 0,1.68359 0.0842,2.10448 0.50507,2.52538 0.2874,0.28739 0.50508,0.84179 0.50508,1.28633 0,0.56888 0.13731,0.81717 0.50508,0.91334 0.27779,0.0726 0.50507,0.33845 0.50507,0.59068 0,0.25224 0.22729,0.53075 0.50508,0.61891 0.27779,0.0882 0.50508,0.32311 0.50508,0.5221 0,0.19898 0.16646,0.36179 0.36992,0.36179 0.20346,0 0.48362,0.21245 0.62258,0.4721 0.18004,0.33641 0.62794,0.50817 1.5583,0.59756 0.84621,0.0813 1.38689,0.27064 1.53654,0.53805 0.31385,0.56082 2.39837,0.56352 3.01673,0.004 z m 40.5789,-0.004 c 0.14964,-0.26741 0.69033,-0.45674 1.53653,-0.53805 0.93037,-0.0894 1.37827,-0.26115 1.55831,-0.59756 0.13896,-0.25966 0.40587,-0.47211 0.59313,-0.47211 0.18725,0 0.3999,-0.22728 0.47255,-0.50507 0.0726,-0.2778 0.31318,-0.50508 0.53453,-0.50508 0.22134,0 0.40245,-0.19995 0.40245,-0.44433 0,-0.24438 0.22728,-0.58627 0.50507,-0.75975 0.39287,-0.24535 0.50508,-0.58893 0.50508,-1.54652 0,-1.02192 0.0865,-1.25372 0.50905,-1.36422 0.49728,-0.13004 0.50749,-0.29844 0.44194,-7.28993 l -0.0671,-7.15681 -1.56324,-0.0748 c -1.35946,-0.065 -1.59929,-0.007 -1.83978,0.44194 -0.1521,0.28421 -0.44891,0.51674 -0.65958,0.51674 -0.4917,0 -2.44281,1.04212 -2.69966,1.44194 -0.10795,0.16803 -0.59093,0.37955 -1.07329,0.47004 -0.48235,0.0905 -0.87701,0.3097 -0.87701,0.48713 0,0.17743 -0.40372,0.39833 -0.89716,0.4909 -0.49344,0.0926 -0.95588,0.32133 -1.02765,0.50836 -0.0718,0.18703 -0.52036,0.41319 -0.99688,0.50259 -0.47651,0.0894 -0.86639,0.27384 -0.86639,0.40988 0,0.13604 -0.2841,0.35536 -0.63134,0.48738 -0.34724,0.13202 -0.63135,0.40006 -0.63135,0.59564 0,0.19558 -0.22728,0.41504 -0.50507,0.48769 -0.27779,0.0726 -0.50508,0.29993 -0.50508,0.50507 0,0.20515 -0.22728,0.43243 -0.50508,0.50508 -0.30218,0.079 -0.50507,0.34446 -0.50507,0.6608 0,0.29079 -0.15721,0.52872 -0.34936,0.52872 -0.52457,0 -0.65355,0.82829 -0.65735,4.22113 -0.003,2.82816 0.0386,3.10718 0.50163,3.35501 0.27779,0.14867 0.50508,0.48774 0.50508,0.75349 0,0.26575 0.2841,0.78973 0.63134,1.16441 0.34724,0.37468 0.63135,0.77828 0.63135,0.8969 0,0.11861 0.15285,0.21566 0.33967,0.21566 0.18681,0 0.54535,0.22728 0.79675,0.50507 0.27047,0.29887 0.77781,0.50508 1.24264,0.50508 0.43205,0 1.18152,0.22076 1.66549,0.49058 1.12553,0.62751 3.15863,0.68992 3.48486,0.10698 z m -53.05945,-21.05316 c 0.0759,-0.29022 0.34447,-0.50507 0.63135,-0.50507 0.28688,0 0.55545,-0.21486 0.63134,-0.50508 0.0727,-0.27779 0.29993,-0.50508 0.50508,-0.50508 0.20515,0 0.43243,-0.22728 0.50508,-0.50507 0.0726,-0.2778 0.28712,-0.50508 0.47662,-0.50508 0.18949,0 0.41879,-0.31252 0.50954,-0.69448 0.0908,-0.38196 0.34861,-0.90508 0.57302,-1.16249 0.35133,-0.40299 0.41877,-1.4819 0.48538,-7.76555 l 0.0774,-7.29753 17.85285,0.0199 c 9.81907,0.011 17.7108,0.0772 17.53718,0.14731 -0.17362,0.0701 -0.31568,0.28837 -0.31568,0.48514 0,0.21001 -0.25218,0.35775 -0.61069,0.35775 -0.84994,0 -1.40961,0.24858 -1.40961,0.62609 0,0.17748 -0.44903,0.39131 -1.01015,0.48104 -0.61121,0.0977 -1.01016,0.29885 -1.01016,0.50925 0,0.19842 -0.38518,0.41997 -0.89715,0.51602 -0.49344,0.0926 -0.96017,0.3325 -1.03717,0.53318 -0.077,0.20068 -0.32673,0.36501 -0.55494,0.36518 -0.22821,1.7e-4 -0.75585,0.27949 -1.17254,0.62071 -1.98591,1.62623 -2.39911,2.00508 -2.39911,2.19962 0,0.1154 -0.22729,0.43711 -0.50508,0.7149 -0.38263,0.38263 -0.50507,0.84179 -0.50507,1.89404 0,1.07146 -0.12046,1.50941 -0.52697,1.91592 -0.58144,0.58144 -0.50157,1.64279 0.16198,2.15253 0.21436,0.16467 0.36499,0.71182 0.36499,1.32582 0,0.87709 0.0813,1.04545 0.50507,1.04545 0.39068,0 0.50508,0.16836 0.50508,0.74329 0,0.42866 0.19411,0.88298 0.45857,1.07329 0.25221,0.18149 0.53275,0.52887 0.62342,0.77193 0.11427,0.30635 0.43847,0.44195 1.05666,0.44195 0.72345,0 0.89181,0.0953 0.89181,0.50507 0,0.48335 0.16836,0.50508 3.91434,0.50508 3.74598,0 3.91434,-0.0217 3.91434,-0.50508 0,-0.37301 0.16836,-0.50507 0.64386,-0.50507 0.88336,0 2.3866,-1.48742 2.3866,-2.36149 0,-0.50061 0.12711,-0.66897 0.50507,-0.66897 0.46336,0 0.50508,-0.16836 0.50508,-2.03835 0,-1.47514 0.10466,-2.143 0.37881,-2.41715 0.31368,-0.31368 0.3788,-1.33083 0.3788,-5.9166 v -5.5378 l 17.74081,0.0199 c 9.75744,0.011 17.57034,0.0844 17.36199,0.16329 -0.20834,0.0789 -0.46471,0.28829 -0.56971,0.46541 -0.105,0.17712 -0.53884,0.39846 -0.96408,0.49186 -0.42525,0.0934 -0.83448,0.32956 -0.9094,0.52481 -0.0749,0.19525 -0.33374,0.35499 -0.57514,0.35499 -0.24141,0 -0.64461,0.22729 -0.89601,0.50508 -0.2514,0.27779 -0.73422,0.50508 -1.07293,0.50508 -0.40347,0 -0.6614,0.17418 -0.74793,0.50507 -0.0934,0.35733 -0.34447,0.50508 -0.8581,0.50508 -0.45252,0 -0.84485,0.19027 -1.04145,0.50507 -0.17348,0.2778 -0.45455,0.50508 -0.6246,0.50508 -0.17004,0 -0.43081,0.22729 -0.57948,0.50508 -0.14867,0.27779 -0.43677,0.50507 -0.64023,0.50507 -0.20346,0 -0.36992,0.21403 -0.36992,0.47563 0,0.26323 -0.22554,0.5346 -0.50508,0.6077 -0.27779,0.0726 -0.50508,0.32906 -0.50508,0.56982 0,0.24076 -0.19887,0.58296 -0.44194,0.76045 -0.36531,0.26674 -0.45691,0.81367 -0.52829,3.15427 -0.0779,2.55483 -0.0347,2.9014 0.44194,3.54612 0.29056,0.393 0.52829,0.90025 0.52829,1.12723 0,0.22697 0.22729,0.4721 0.50508,0.54475 0.27954,0.0731 0.50508,0.34447 0.50508,0.6077 0,0.30727 0.17878,0.47563 0.50507,0.47563 0.33672,0 0.50508,0.16836 0.50508,0.50507 0,0.33085 0.16836,0.50508 0.48806,0.50508 0.26843,0 0.56019,0.22728 0.64836,0.50507 0.15179,0.47824 0.3821,0.50508 4.33381,0.50508 3.96112,0 4.18022,-0.0257 4.30558,-0.50508 0.0731,-0.27954 0.34447,-0.50507 0.60771,-0.50507 0.30726,0 0.47562,-0.17879 0.47562,-0.50508 0,-0.33671 0.16836,-0.50507 0.50507,-0.50507 0.33672,0 0.50508,-0.16836 0.50508,-0.50508 0,-0.33672 0.16836,-0.50508 0.50508,-0.50508 0.41837,0 0.50507,-0.16836 0.50507,-0.9807 0,-0.76831 0.10939,-1.0093 0.50508,-1.11277 0.49048,-0.12827 0.50508,-0.34447 0.50508,-7.47933 V 503.636 h 4.94813 c 4.73575,0 4.95381,-0.0217 5.08022,-0.50508 0.11118,-0.42517 0.34447,-0.50508 1.47457,-0.50508 1.12069,0 1.36897,-0.0834 1.50279,-0.50507 0.0882,-0.2778 0.37064,-0.50508 0.62771,-0.50508 0.73672,0 1.26633,-0.27534 1.26633,-0.65836 0,-0.19349 0.23792,-0.35179 0.52871,-0.35179 0.31634,0 0.58178,-0.20289 0.6608,-0.50508 0.0728,-0.27852 0.34447,-0.50507 0.60557,-0.50507 0.26041,0 0.61542,-0.22729 0.7889,-0.50508 0.17349,-0.27779 0.52602,-0.50508 0.7834,-0.50508 0.25739,0 0.52741,-0.22728 0.60005,-0.50507 0.0727,-0.2778 0.29993,-0.50508 0.50508,-0.50508 0.20515,0 0.43145,-0.22352 0.50289,-0.49671 0.0714,-0.2732 0.31988,-0.55702 0.5521,-0.63072 0.23221,-0.0737 0.56208,-0.4468 0.73305,-0.82911 0.5317,-1.18898 1.01014,-1.90811 1.42331,-2.13933 0.24171,-0.13527 0.39736,-0.56369 0.39736,-1.09371 0,-0.70298 0.0976,-0.87134 0.50507,-0.87134 0.44346,0 0.50508,-0.16835 0.50508,-1.38007 0,-1.12161 0.0946,-1.4307 0.50508,-1.65038 0.47993,-0.25685 0.50507,-0.52877 0.50507,-5.4621 0,-4.97941 -0.0207,-5.19719 -0.50507,-5.32387 -0.43845,-0.11465 -0.50508,-0.34447 -0.50508,-1.74198 0,-1.33641 -0.0858,-1.66349 -0.50508,-1.92533 -0.27779,-0.17349 -0.50507,-0.46904 -0.50507,-0.65679 0,-0.18775 -0.22729,-0.63031 -0.50508,-0.98346 -0.27779,-0.35316 -0.50508,-0.85406 -0.50508,-1.11312 0,-0.25906 -0.17046,-0.47102 -0.3788,-0.47102 -0.20835,0 -0.37881,-0.13133 -0.37881,-0.29184 0,-0.16051 -0.26406,-0.64349 -0.5868,-1.07328 -0.32274,-0.4298 -0.6601,-0.98033 -0.74969,-1.2234 -0.0896,-0.24307 -0.33692,-0.44194 -0.54962,-0.44194 -0.2127,0 -0.38673,-0.17403 -0.38673,-0.38673 0,-0.21271 -0.19888,-0.45818 -0.44195,-0.54551 -0.24306,-0.0873 -0.64524,-0.36787 -0.89372,-0.62342 -0.24848,-0.25556 -0.66138,-0.46464 -0.91756,-0.46464 -0.25618,0 -0.52522,-0.22729 -0.59787,-0.50508 -0.0748,-0.28597 -0.34446,-0.50508 -0.62165,-0.50508 -0.26927,0 -0.69527,-0.22728 -0.94667,-0.50507 -0.2514,-0.2778 -0.75306,-0.50508 -1.11482,-0.50508 -0.38422,0 -0.78888,-0.21002 -0.97315,-0.50508 -0.25728,-0.41196 -0.58892,-0.50507 -1.79906,-0.50507 -1.27125,0 -1.50254,-0.0723 -1.61571,-0.50508 -0.12577,-0.48093 -0.34447,-0.50507 -4.57514,-0.50507 h -4.44306 v -1.75889 c 0,-1.50042 -0.0742,-1.7986 -0.50508,-2.02919 -0.451,-0.24136 -0.50508,-0.52877 -0.50508,-2.68417 0,-2.20149 -0.0444,-2.4255 -0.50507,-2.54595 -0.43199,-0.11297 -0.50508,-0.34447 -0.50508,-1.59982 0,-1.00826 -0.1264,-1.59414 -0.40376,-1.8715 -0.22208,-0.22208 -0.46432,-0.85523 -0.53833,-1.407 -0.0814,-0.60711 -0.26911,-1.00323 -0.47531,-1.00323 -0.18741,0 -0.41636,-0.30127 -0.50877,-0.66949 -0.23124,-0.92132 -1.1628,-2.3373 -1.54623,-2.35028 -0.17362,-0.006 -0.31567,-0.2855 -0.31567,-0.62138 0,-0.87179 -0.2512,-1.40962 -0.65837,-1.40962 -0.19348,0 -0.35178,-0.12565 -0.35178,-0.27921 0,-0.15357 -0.28411,-0.61686 -0.63135,-1.02953 -0.34724,-0.41267 -0.63134,-0.91206 -0.63134,-1.10975 0,-0.19768 -0.11608,-0.35943 -0.25796,-0.35943 -0.14187,0 -0.3874,-0.2841 -0.54561,-0.63134 -0.15821,-0.34724 -0.43988,-0.63135 -0.62593,-0.63135 -0.18605,0 -0.33827,-0.1811 -0.33827,-0.40245 0,-0.22134 -0.22729,-0.46188 -0.50508,-0.53453 -0.27779,-0.0726 -0.50507,-0.2921 -0.50507,-0.48768 0,-0.19558 -0.26861,-0.45773 -0.59691,-0.58255 -0.32829,-0.12482 -0.66565,-0.40611 -0.74969,-0.62509 -0.0926,-0.24135 -0.45427,-0.39816 -0.91832,-0.39816 -0.59718,0 -0.76554,-0.11107 -0.76554,-0.50507 0,-0.33672 -0.16836,-0.50508 -0.50508,-0.50508 -0.29378,0 -0.50507,-0.16836 -0.50507,-0.40245 0,-0.22134 -0.22729,-0.46188 -0.50508,-0.53453 -0.27779,-0.0726 -0.50508,-0.27713 -0.50508,-0.45441 0,-0.37563 -0.55582,-0.62891 -1.38016,-0.62891 -0.36885,0 -0.6295,-0.18456 -0.71331,-0.50508 -0.10014,-0.38291 -0.34447,-0.50508 -1.01016,-0.50508 -0.66568,0 -0.91002,-0.12216 -1.01015,-0.50507 -0.10013,-0.38291 -0.34446,-0.50508 -1.01015,-0.50508 -0.66569,0 -0.91002,-0.12216 -1.01015,-0.50507 -0.10706,-0.40938 -0.34447,-0.50508 -1.25301,-0.50508 -0.8002,0 -1.25171,-0.14451 -1.57801,-0.50508 -0.34848,-0.38507 -0.77781,-0.50507 -1.80691,-0.50507 -0.9809,0 -1.34982,-0.0955 -1.34982,-0.34936 0,-0.58358 -0.86618,-0.65377 -8.11278,-0.65735 -7.2392,-0.004 -8.55473,0.0934 -8.55473,0.63097 0,0.21723 -0.57179,0.35105 -1.7953,0.42018 -1.31889,0.0745 -1.87915,0.21612 -2.11128,0.53358 -0.18542,0.25357 -0.6534,0.43213 -1.13253,0.43213 -0.60417,0 -0.85091,0.13137 -0.94864,0.50508 -0.10013,0.38291 -0.34446,0.50507 -1.01015,0.50507 -0.66569,0 -0.91002,0.12217 -1.01015,0.50508 -0.10014,0.38291 -0.34447,0.50507 -1.01015,0.50507 -0.66569,0 -0.91002,0.12217 -1.01016,0.50508 -0.0731,0.27954 -0.34446,0.50508 -0.6077,0.50508 -0.26159,0 -0.70291,0.22728 -0.9807,0.50507 -0.27779,0.2778 -0.68618,0.50508 -0.90752,0.50508 -0.22135,0 -0.4591,0.2166 -0.52832,0.48133 -0.0802,0.30661 -0.43829,0.53994 -0.98651,0.64279 -0.52064,0.0977 -0.86064,0.30972 -0.86064,0.53675 0,0.20641 -0.1985,0.45146 -0.44111,0.54455 -0.24261,0.0931 -1.04805,0.77139 -1.78987,1.50731 -0.74182,0.73592 -1.44481,1.33803 -1.56218,1.33803 -0.11738,0 -0.28912,0.23851 -0.38163,0.53001 -0.0925,0.2915 -0.38429,0.74607 -0.64837,1.01015 -0.26408,0.26408 -0.48014,0.70743 -0.48014,0.98522 0,0.33672 -0.16836,0.50508 -0.50508,0.50508 -0.33672,0 -0.50508,0.16836 -0.50508,0.50508 0,0.27779 -0.1583,0.50507 -0.35179,0.50507 -0.40256,0 -0.65836,0.53624 -0.65836,1.38016 0,0.36885 -0.18456,0.6295 -0.50508,0.71332 -0.2821,0.0738 -0.50507,0.34446 -0.50507,0.61318 0,0.26461 -0.22729,0.72506 -0.50508,1.02324 -0.27779,0.29817 -0.50507,0.75655 -0.50507,1.01863 0,0.26207 -0.22729,0.68218 -0.50508,0.93358 -0.33825,0.30611 -0.50508,0.77781 -0.50508,1.4281 0,0.65553 -0.11282,0.97101 -0.34724,0.97101 -0.34625,0 -0.66291,1.04045 -0.66291,2.17814 0,0.32988 -0.22728,0.82707 -0.50508,1.10486 -0.35835,0.35836 -0.50507,0.40288 -0.50507,0.15329 0,-0.46614 -0.55906,-0.65837 -1.91469,-0.65837 -0.78163,0 -1.11577,-0.10462 -1.11577,-0.34935 0,-0.56694 -0.85645,-0.6539 -6.43972,-0.6539 -5.58328,0 -6.43972,0.087 -6.43972,0.6539 0,0.24473 -0.33415,0.34935 -1.11577,0.34935 -1.35564,0 -1.91469,0.19223 -1.91469,0.65837 0,0.22782 -0.28922,0.353 -0.82075,0.35523 -1.17297,0.005 -1.95717,0.25706 -1.95717,0.62925 0,0.17668 -0.38678,0.39381 -0.8595,0.48249 -0.47273,0.0887 -0.92373,0.32862 -1.00223,0.53318 -0.0785,0.20457 -0.36958,0.37194 -0.64684,0.37194 -0.27727,0 -0.62576,0.22728 -0.77443,0.50508 -0.14867,0.27779 -0.43752,0.50507 -0.6419,0.50507 -0.20437,0 -0.61862,0.28411 -0.92054,0.63135 -0.30192,0.34724 -0.69892,0.63134 -0.88221,0.63134 -0.1833,0 -0.33327,0.16281 -0.33327,0.36179 0,0.19899 -0.22728,0.43393 -0.50507,0.5221 -0.2778,0.0882 -0.50508,0.32311 -0.50508,0.52209 0,0.19898 -0.22728,0.58907 -0.50508,0.86687 -0.27779,0.27779 -0.50507,0.73236 -0.50507,1.01015 0,0.33672 -0.16836,0.50508 -0.50508,0.50508 -0.33672,0 -0.50507,0.16835 -0.50507,0.50507 0,0.33672 -0.16836,0.50508 -0.50508,0.50508 -0.4209,0 -0.50508,0.16836 -0.50508,1.01015 0,0.84179 -0.0842,1.01015 -0.50507,1.01015 -0.33672,0 -0.50508,0.16836 -0.50508,0.50508 0,0.27779 -0.22728,0.73236 -0.50508,1.01015 -0.33671,0.33672 -0.50507,0.84179 -0.50507,1.51523 0,0.84179 -0.0842,1.01015 -0.50508,1.01015 -0.44784,0 -0.50507,0.16836 -0.50507,1.48578 0,1.27339 -0.0722,1.50465 -0.50508,1.61785 -0.48635,0.12719 -0.50508,0.34447 -0.50508,5.86148 0,5.51701 0.0187,5.73429 0.50508,5.86147 0.42752,0.1118 0.50508,0.34447 0.50508,1.51523 0,1.17076 0.0776,1.40343 0.50507,1.51523 0.39334,0.10286 0.50508,0.34446 0.50508,1.09212 0,1.20546 0.20717,1.75897 0.65836,1.75897 0.19349,0 0.35179,0.23792 0.35179,0.52872 0,0.31633 0.20289,0.58177 0.50508,0.6608 0.37697,0.0986 0.50507,0.34446 0.50507,0.96949 0,0.61562 0.13378,0.87987 0.50508,0.99772 0.27779,0.0882 0.50508,0.30549 0.50508,0.48295 0,0.17746 0.22728,0.52834 0.50507,0.77974 0.27779,0.2514 0.50508,0.60897 0.50508,0.79461 0,0.18564 0.22728,0.47947 0.50507,0.65295 0.2778,0.17349 0.50508,0.46212 0.50508,0.64141 0,0.1793 0.19019,0.39897 0.42265,0.48818 0.23246,0.0892 0.63021,0.36974 0.88388,0.62342 0.25368,0.25367 0.68086,0.46123 0.9493,0.46123 0.26843,0 0.5563,0.21501 0.6397,0.47781 0.0834,0.2628 0.37518,0.53626 0.64837,0.6077 0.27319,0.0714 0.49671,0.311 0.49671,0.53235 0,0.28894 0.24099,0.40245 0.85443,0.40245 0.64204,0 0.88726,0.12554 0.98651,0.50507 0.079,0.30219 0.34447,0.50508 0.6608,0.50508 0.29079,0 0.52872,0.1583 0.52872,0.35179 0,0.45119 0.55351,0.65836 1.75897,0.65836 0.74765,0 0.98926,0.11174 1.09212,0.50508 0.1118,0.42752 0.34447,0.50507 1.51523,0.50507 1.17076,0 1.40343,0.0776 1.51523,0.50508 0.10553,0.40356 0.35255,0.50851 1.22901,0.52217 0.97465,0.0152 1.03359,0.0476 0.52872,0.29113 -0.31252,0.15072 -0.56821,0.37031 -0.56821,0.48798 0,0.11767 -0.20968,0.21395 -0.46594,0.21395 -0.25627,0 -0.65982,0.21424 -0.89679,0.47609 -0.23697,0.26185 -0.76598,0.54311 -1.17557,0.62503 -0.43391,0.0868 -0.7447,0.30966 -0.7447,0.53406 0,0.25931 -0.2468,0.38512 -0.75548,0.38512 -0.48197,0 -0.86966,0.18285 -1.07089,0.50508 -0.17349,0.27779 -0.50608,0.50508 -0.7391,0.50508 -0.69577,0 -1.2226,0.28369 -1.2226,0.65836 0,0.19348 -0.21963,0.35179 -0.48806,0.35179 -0.26843,0 -0.5602,0.22728 -0.64836,0.50507 -0.0882,0.2778 -0.31546,0.50508 -0.50508,0.50508 -0.18962,0 -0.41691,0.22728 -0.50508,0.50508 -0.0882,0.27779 -0.32176,0.50507 -0.51911,0.50507 -0.22332,0 -0.41979,0.38142 -0.52033,1.01016 -0.0888,0.55558 -0.30381,1.01015 -0.47771,1.01015 -0.20658,0 -0.35492,0.53561 -0.42795,1.54526 -0.16203,2.24003 0.0463,4.26312 0.43895,4.26312 0.18276,0 0.40013,0.4427 0.496,1.01015 0.10021,0.5931 0.31087,1.01015 0.51026,1.01015 0.18677,0 0.41173,0.22728 0.49989,0.50508 0.0882,0.27779 0.31546,0.50507 0.50508,0.50507 0.18962,0 0.41691,0.22729 0.50508,0.50508 0.0882,0.27779 0.36667,0.50508 0.61891,0.50508 0.25223,0 0.51804,0.22728 0.59068,0.50507 0.12522,0.47884 0.34447,0.50508 4.21998,0.50508 3.87551,0 4.09475,-0.0262 4.21997,-0.50508 z"
         id="path1009"
         transform="scale(0.26458333)" />
      <path
         style="fill:#00ccff;stroke:#00ccff;stroke-width:4.92472;stroke-linecap:square;stroke-linejoin:round;stroke-miterlimit:4;stroke-dasharray:none;stroke-opacity:1;paint-order:stroke fill markers"
         d="m 349.02741,522.21068 c -0.0497,-0.35003 -0.17783,-0.40874 -0.99457,-0.45576 -0.85879,-0.0494 -0.9375,-0.0904 -0.9375,-0.48767 0,-0.31408 -0.12355,-0.4647 -0.44798,-0.54613 -0.2715,-0.0681 -0.49017,-0.28053 -0.55507,-0.53911 -0.0756,-0.30107 -0.23282,-0.42668 -0.53416,-0.42668 -0.33345,0 -0.42707,-0.0953 -0.42707,-0.43481 0,-0.69347 -0.33158,-1.37766 -0.71644,-1.4783 -0.32908,-0.0861 -0.35499,-0.24728 -0.35499,-2.20871 0,-2.11014 10e-4,-2.11736 0.53571,-2.6639 0.29465,-0.30141 0.53572,-0.70444 0.53572,-0.89561 0,-0.21966 0.16054,-0.38788 0.43621,-0.45707 0.26159,-0.0657 0.45817,-0.26066 0.49107,-0.48715 0.0335,-0.23025 0.22658,-0.41792 0.49478,-0.48079 0.27562,-0.0646 0.47837,-0.26741 0.5429,-0.54303 0.0889,-0.37973 0.21792,-0.44736 0.94305,-0.49431 0.70823,-0.0458 0.85644,-0.1196 0.94437,-0.46993 0.0857,-0.34157 0.2604,-0.43625 0.98118,-0.53186 0.72313,-0.0959 0.89531,-0.18977 0.98201,-0.53521 0.0834,-0.3322 0.25933,-0.43953 0.85014,-0.51862 0.47604,-0.0637 0.83345,-0.23271 0.99,-0.46807 0.13474,-0.20259 0.39311,-0.36835 0.57414,-0.36835 0.18103,0 0.60371,-0.24107 0.93929,-0.53571 0.34831,-0.30582 0.81242,-0.53572 1.08147,-0.53572 0.32946,0 0.53256,-0.13437 0.67474,-0.44643 0.11187,-0.24553 0.26429,-0.44642 0.33871,-0.44642 0.0744,0 0.26241,-0.0488 0.41776,-0.1084 0.25442,-0.0976 0.28246,0.54522 0.28246,6.47552 v 6.5839 l -0.40178,0.17627 c -0.32072,0.14071 -0.41268,0.34521 -0.45577,1.01353 -0.049,0.76066 -0.0981,0.84234 -0.53571,0.89286 -0.33763,0.039 -0.49838,0.1725 -0.53736,0.44641 -0.0346,0.24346 -0.20296,0.41177 -0.44643,0.44642 -0.27125,0.0386 -0.40749,0.19968 -0.44536,0.52653 -0.0517,0.44665 -0.11505,0.47475 -1.22922,0.5457 -0.93877,0.0598 -1.23837,0.15347 -1.49192,0.4666 -0.26304,0.32483 -0.50101,0.3918 -1.39229,0.3918 -0.97889,0 -1.08013,-0.0359 -1.13209,-0.40179 z"
         id="path911"
         transform="scale(0.26458333)" />
      <path
         style="fill:#00ccff;stroke:#00ccff;stroke-width:5.30268;stroke-linecap:square;stroke-linejoin:round;stroke-miterlimit:4;stroke-dasharray:none;stroke-opacity:1;paint-order:markers fill stroke"
         d="m 309.05963,522.35089 c 0,-0.35779 -0.5661,-0.63128 -1.30672,-0.63128 -0.46449,0 -0.63873,-0.0873 -0.70874,-0.35499 -0.0511,-0.19525 -0.29662,-0.43247 -0.54569,-0.52717 -0.24907,-0.0947 -0.54092,-0.33673 -0.64856,-0.53786 -0.10764,-0.20113 -0.30338,-0.36569 -0.43497,-0.36569 -0.13158,0 -0.28703,-0.23893 -0.34544,-0.53096 -0.0741,-0.37077 -0.23976,-0.56447 -0.54895,-0.64207 -0.38087,-0.0956 -0.45027,-0.22731 -0.49649,-0.94227 -0.0428,-0.66207 -0.13546,-0.86699 -0.45551,-1.0074 -0.34693,-0.15221 -0.40179,-0.31101 -0.40179,-1.16302 0,-0.85201 0.0549,-1.01081 0.40179,-1.16301 0.32092,-0.1408 0.41266,-0.34516 0.45584,-1.01544 0.0425,-0.65965 0.13169,-0.86381 0.41695,-0.95435 0.19959,-0.0633 0.44428,-0.34866 0.54377,-0.63404 0.0995,-0.28538 0.30107,-0.51887 0.44798,-0.51887 0.14691,0 0.30688,-0.15209 0.35549,-0.33799 0.0512,-0.19593 0.30489,-0.38128 0.60352,-0.44101 0.3546,-0.0709 0.54968,-0.24065 0.62598,-0.54463 0.0776,-0.30919 0.25304,-0.45806 0.58511,-0.49649 0.33474,-0.0387 0.49108,-0.17309 0.53135,-0.45667 0.0479,-0.33718 0.16756,-0.40178 0.74432,-0.40178 0.95648,0 1.25219,-0.14991 1.25219,-0.63478 0,-0.37834 0.0889,-0.42311 0.9375,-0.47196 0.79165,-0.0456 0.94574,-0.11163 0.99047,-0.42455 0.0421,-0.29456 0.24357,-0.40445 0.98214,-0.53572 0.75883,-0.13486 0.93941,-0.23709 0.98501,-0.55759 0.0471,-0.33091 0.1869,-0.40093 0.89145,-0.44643 0.71017,-0.0459 0.87079,-0.12769 1.06998,-0.54504 0.16128,-0.33795 0.37053,-0.49108 0.67105,-0.49108 h 0.43668 v 5.60322 c 0,5.56873 -0.002,5.60482 -0.39142,5.86312 -0.3224,0.21406 -0.40495,0.47209 -0.46804,1.46299 -0.068,1.06822 -0.12423,1.22119 -0.50143,1.3646 -0.2377,0.0904 -0.42482,0.30815 -0.42482,0.49442 0,0.18309 -0.19392,0.42126 -0.43094,0.52925 -0.23702,0.10799 -0.4835,0.36196 -0.54775,0.56438 -0.0655,0.20624 -0.2702,0.36802 -0.46574,0.36802 -0.19705,0 -0.43574,0.19051 -0.54835,0.43766 -0.16312,0.35801 -0.34927,0.44737 -1.02296,0.49107 -0.65431,0.0424 -0.85977,0.13598 -0.99982,0.4552 -0.15346,0.3498 -0.30943,0.40179 -1.20536,0.40179 -0.7847,0 -1.02908,-0.0621 -1.02908,-0.26158 z"
         id="path907"
         transform="scale(0.26458333)" />
      <path
         style="fill:#00ccff;stroke:#00ccff;stroke-width:4.54677;stroke-linecap:square;stroke-linejoin:round;stroke-miterlimit:4;stroke-dasharray:none;stroke-opacity:1;paint-order:stroke fill markers"
         d="m 268.756,522.37068 c -0.23894,-0.40458 -0.88219,-0.65107 -1.69905,-0.65107 -0.69842,0 -0.79642,-0.0537 -0.97837,-0.53571 -0.13263,-0.35138 -0.32617,-0.53572 -0.56245,-0.53572 -0.23532,0 -0.38002,-0.13677 -0.41729,-0.39446 -0.0361,-0.24955 -0.22107,-0.43257 -0.5035,-0.49818 -0.38533,-0.0895 -0.45864,-0.22493 -0.53571,-0.98946 -0.0756,-0.74998 -0.15087,-0.8945 -0.49107,-0.94282 -0.39051,-0.0555 -0.40179,-0.11568 -0.40179,-2.14515 0,-1.99416 0.0181,-2.09603 0.40179,-2.26437 0.30862,-0.1354 0.41438,-0.34945 0.45611,-0.92314 0.0483,-0.66401 0.11267,-0.75968 0.58035,-0.8624 0.40563,-0.0891 0.52604,-0.21447 0.52604,-0.54778 0,-0.34617 0.0922,-0.43224 0.46315,-0.43224 0.31867,0 0.49339,-0.11568 0.56012,-0.37084 0.1037,-0.39657 0.70243,-0.70059 1.37971,-0.70059 0.29421,0 0.44814,-0.13027 0.52749,-0.44642 0.0851,-0.33895 0.22946,-0.44702 0.59972,-0.44887 0.85405,-0.004 1.29176,-0.20532 1.40183,-0.6439 0.0878,-0.34966 0.22209,-0.42558 0.75698,-0.42783 0.71697,-0.003 0.98353,-0.12888 1.1323,-0.53468 0.0543,-0.14825 0.47836,-0.37107 0.94225,-0.49514 0.57556,-0.15393 0.87277,-0.33772 0.93577,-0.57865 0.0635,-0.24289 0.24438,-0.35308 0.57954,-0.35308 0.26797,0 0.63939,-0.16815 0.82539,-0.37368 0.186,-0.20553 0.47971,-0.44942 0.65268,-0.542 0.29769,-0.15931 0.3145,0.18998 0.3145,6.5344 0,5.68599 -0.0387,6.70271 -0.25478,6.70271 -0.28168,0 -0.81665,0.94568 -0.81665,1.44359 0,0.19308 -0.15728,0.33962 -0.40179,0.37435 -0.2582,0.0367 -0.42217,0.20064 -0.45885,0.45885 -0.0341,0.23989 -0.18157,0.40178 -0.36607,0.40178 -0.40019,0 -0.73758,0.34307 -0.73758,0.75 0,0.2635 -0.14984,0.32143 -0.83136,0.32143 -0.61165,0 -0.98603,0.11798 -1.41665,0.44643 -0.65629,0.50058 -1.91749,0.61991 -2.16276,0.20464 z"
         id="path903"
         transform="scale(0.26458333)" />
    </g>
    <text
       xml:space="preserve"
       style="font-size:4.23333px;line-height:1.25;font-family:Webdings;-inkscape-font-specification:Webdings;letter-spacing:0px;word-spacing:0px;stroke-width:0.264583"
       x="11.90625"
       y="5.2916665"
       id="text44"><tspan
         sodipodi:role="line"
         id="tspan42"
         x="11.90625"
         y="5.2916665"
         style="stroke-width:0.264583" /></text>
  </g>
</svg>
