<?xml version="1.0" encoding="UTF-8" standalone="no"?>
<svg
   xmlns:dc="http://purl.org/dc/elements/1.1/"
   xmlns:cc="http://creativecommons.org/ns#"
   xmlns:rdf="http://www.w3.org/1999/02/22-rdf-syntax-ns#"
   xmlns:svg="http://www.w3.org/2000/svg"
   xmlns="http://www.w3.org/2000/svg"
   xmlns:sodipodi="http://sodipodi.sourceforge.net/DTD/sodipodi-0.dtd"
   xmlns:inkscape="http://www.inkscape.org/namespaces/inkscape"
   width="50"
   height="50"
   viewBox="0 0 13.229166 13.229167"
   version="1.1"
   id="svg8"
   inkscape:version="1.0 (4035a4fb49, 2020-05-01)"
   sodipodi:docname="skull.svg">
  <defs
     id="defs2" />
  <sodipodi:namedview
     id="base"
     pagecolor="#ffffff"
     bordercolor="#666666"
     borderopacity="1.0"
     inkscape:pageopacity="0.0"
     inkscape:pageshadow="2"
     inkscape:zoom="0.49497475"
     inkscape:cx="39.776921"
     inkscape:cy="287.97624"
     inkscape:document-units="mm"
     inkscape:current-layer="layer1"
     inkscape:document-rotation="0"
     showgrid="true"
     units="px"
     inkscape:window-width="1920"
     inkscape:window-height="986"
     inkscape:window-x="-11"
     inkscape:window-y="-11"
     inkscape:window-maximized="1">
    <inkscape:grid
       type="xygrid"
       id="grid10" />
  </sodipodi:namedview>
  <metadata
     id="metadata5">
    <rdf:RDF>
      <cc:Work
         rdf:about="">
        <dc:format>image/svg+xml</dc:format>
        <dc:type
           rdf:resource="http://purl.org/dc/dcmitype/StillImage" />
        <dc:title></dc:title>
      </cc:Work>
    </rdf:RDF>
  </metadata>
  <g
     inkscape:label="Warstwa 1"
     inkscape:groupmode="layer"
     id="layer1">
    <text
       xml:space="preserve"
       style="font-size:4.23333px;line-height:1.25;font-family:Webdings;-inkscape-font-specification:Webdings;letter-spacing:0px;word-spacing:0px;stroke-width:0.264583"
       x="11.90625"
       y="5.2916665"
       id="text44"><tspan
         sodipodi:role="line"
         id="tspan42"
         x="11.90625"
         y="5.2916665"
         style="stroke-width:0.264583" /></text>
    <g
       transform="matrix(0.31764076,0,0,0.31764076,-14.865209,-12.090443)"
       id="g1164">
      <path
         style="fill:#f2f2f2;stroke:#f2f2f2;stroke-width:4.4863;stroke-linecap:square;stroke-linejoin:round;stroke-miterlimit:4;stroke-dasharray:none;stroke-opacity:1;paint-order:stroke fill markers"
         d="m 237.50974,284.72254 c 0,-0.33672 -0.16836,-0.50508 -0.50507,-0.50508 -0.49277,0 -0.50508,-0.16836 -0.50508,-6.91047 v -6.91047 l -1.17167,-0.1606 c -0.64442,-0.0883 -2.17859,-0.16059 -3.40926,-0.16059 -1.82062,0 -2.2376,-0.0706 -2.2376,-0.37881 0,-0.21045 -0.22448,-0.37881 -0.50508,-0.37881 -0.36583,0 -0.50507,-0.16836 -0.50507,-0.61069 0,-0.86597 -0.25049,-1.40961 -0.64948,-1.40961 -0.1886,0 -0.46454,-0.22729 -0.61321,-0.50508 -0.17318,-0.32358 -0.52877,-0.50507 -0.98959,-0.50507 -0.50688,0 -0.75827,-0.14914 -0.85135,-0.50508 -0.1205,-0.4608 -0.34447,-0.50508 -2.55484,-0.50508 -2.25439,0 -2.42275,-0.0351 -2.42275,-0.50507 0,-0.46237 -0.16836,-0.50508 -1.99085,-0.50508 -1.77847,0 -2.00494,-0.0539 -2.12293,-0.50508 -0.11223,-0.42913 -0.34447,-0.50507 -1.54469,-0.50507 -1.24424,0 -1.4126,-0.0602 -1.4126,-0.50508 0,-0.35605 -0.16836,-0.50507 -0.5706,-0.50507 -0.31383,0 -0.71254,-0.22729 -0.88602,-0.50508 -0.17348,-0.27779 -0.52849,-0.50508 -0.78891,-0.50508 -0.2611,0 -0.53273,-0.22655 -0.60556,-0.50507 -0.0727,-0.27779 -0.29993,-0.50508 -0.50508,-0.50508 -0.20515,0 -0.43243,-0.22728 -0.50507,-0.50508 -0.0726,-0.27779 -0.31319,-0.50507 -0.53453,-0.50507 -0.26093,0 -0.40245,-0.22203 -0.40245,-0.63135 0,-0.34724 -0.22729,-0.85863 -0.50508,-1.13642 -0.27779,-0.27779 -0.50508,-0.73236 -0.50508,-1.01015 0,-0.27779 -0.21132,-0.7164 -0.4696,-0.97468 -0.37687,-0.37687 -0.49434,-0.98318 -0.59484,-3.07029 -0.0973,-2.02012 -0.21794,-2.66847 -0.54055,-2.90436 -0.36454,-0.26656 -0.41531,-1.01332 -0.41531,-6.10822 0,-5.48381 -0.0279,-5.82979 -0.50508,-6.26162 -0.38507,-0.34848 -0.50507,-0.77781 -0.50507,-1.80691 0,-1.0131 -0.126,-1.47581 -0.50508,-1.85489 -0.31267,-0.31267 -0.50508,-0.84179 -0.50508,-1.38896 0,-0.54717 -0.19241,-1.07629 -0.50507,-1.38896 -0.27779,-0.27779 -0.50508,-0.68618 -0.50508,-0.90753 0,-0.22134 -0.22728,-0.46188 -0.50508,-0.53453 -0.38291,-0.10013 -0.50507,-0.34446 -0.50507,-1.01015 0,-0.66569 -0.12217,-0.91002 -0.50508,-1.01015 -0.35594,-0.0931 -0.50507,-0.34447 -0.50507,-0.85136 0,-0.46081 -0.1815,-0.8164 -0.50508,-0.98958 -0.27779,-0.14867 -0.50508,-0.4843 -0.50508,-0.74585 0,-0.74434 -0.27384,-1.27446 -0.65836,-1.27446 -0.23543,0 -0.35179,-0.30017 -0.35179,-0.90752 0,-0.69514 -0.1182,-0.93844 -0.50508,-1.03961 -0.43287,-0.1132 -0.50507,-0.34447 -0.50507,-1.61785 0,-1.31742 -0.0572,-1.48578 -0.50508,-1.48578 -0.4803,0 -0.50507,-0.16836 -0.50507,-3.43291 0,-3.22052 -0.0312,-3.44108 -0.50508,-3.56498 -0.481,-0.12579 -0.50508,-0.34447 -0.50508,-4.58757 0,-4.18199 0.031,-4.47485 0.50508,-4.77091 0.46859,-0.29264 0.50508,-0.58893 0.50508,-4.10136 0,-3.61757 0.0225,-3.78593 0.50507,-3.78593 0.44785,0 0.50508,-0.16836 0.50508,-1.48578 0,-1.27338 0.0722,-1.50465 0.50507,-1.61785 0.42111,-0.11012 0.50508,-0.34447 0.50508,-1.40953 0,-1.01899 0.10219,-1.33214 0.50508,-1.54776 0.32358,-0.17317 0.50507,-0.52877 0.50507,-0.98958 0,-0.50689 0.14914,-0.75828 0.50508,-0.85136 0.38291,-0.10013 0.50508,-0.34446 0.50508,-1.01015 0,-0.66568 0.12216,-0.91002 0.50507,-1.01015 0.38688,-0.10117 0.50508,-0.34447 0.50508,-1.03961 0,-0.6466 0.11119,-0.90752 0.38673,-0.90752 0.2127,0 0.45972,-0.19019 0.54892,-0.42265 0.0892,-0.23246 0.36974,-0.63021 0.62342,-0.88389 0.25368,-0.25367 0.46123,-0.74534 0.46123,-1.09258 0,-0.46298 0.13469,-0.63134 0.50508,-0.63134 0.33672,0 0.50508,-0.16836 0.50508,-0.50508 0,-0.2852 0.16835,-0.50507 0.38673,-0.50507 0.2127,0 0.45972,-0.1902 0.54892,-0.42265 0.0892,-0.23246 0.36974,-0.63021 0.62342,-0.88389 0.25368,-0.25367 0.46123,-0.74534 0.46123,-1.09258 0,-0.38406 0.14387,-0.63134 0.36733,-0.63134 0.47589,0 1.65298,-1.17709 1.65298,-1.65298 0,-0.20203 0.22728,-0.36733 0.50507,-0.36733 0.32629,0 0.50508,-0.16835 0.50508,-0.47562 0,-0.26323 0.22554,-0.5346 0.50507,-0.6077 0.2778,-0.0727 0.50508,-0.29993 0.50508,-0.50508 0,-0.20515 0.22729,-0.43243 0.50508,-0.50507 0.27779,-0.0726 0.50507,-0.31319 0.50507,-0.53453 0,-0.28152 0.23477,-0.40245 0.78126,-0.40245 0.56887,0 0.81716,-0.13731 0.91334,-0.50508 0.0731,-0.27954 0.34446,-0.50508 0.6077,-0.50508 0.30726,0 0.47562,-0.17878 0.47562,-0.50507 0,-0.2908 0.16836,-0.50508 0.39685,-0.50508 0.21826,0 0.57289,-0.17604 0.78805,-0.39121 0.21517,-0.21516 0.71844,-0.45665 1.11839,-0.53664 0.39994,-0.08 0.72717,-0.29404 0.72717,-0.47566 0,-0.18162 0.22728,-0.40236 0.50508,-0.49052 0.27779,-0.0882 0.50507,-0.32311 0.50507,-0.5221 0,-0.21429 0.24898,-0.36179 0.61069,-0.36179 0.85698,0 1.40962,-0.24941 1.40962,-0.63616 0,-0.18772 0.43481,-0.40306 1.01015,-0.50026 0.57334,-0.0969 1.01015,-0.31272 1.01015,-0.49917 0,-0.18068 0.38678,-0.40106 0.8595,-0.48975 0.47273,-0.0887 0.92373,-0.32861 1.00223,-0.53318 0.0785,-0.20456 0.4211,-0.37194 0.76134,-0.37194 0.8793,0 1.41754,-0.24998 1.41754,-0.65836 0,-0.22987 0.28983,-0.35179 0.83627,-0.35179 0.48719,0 1.06256,-0.21083 1.3784,-0.50507 0.32843,-0.30599 0.8912,-0.50508 1.42769,-0.50508 0.6271,0 0.96445,-0.14741 1.15587,-0.50508 0.21562,-0.40288 0.52877,-0.50507 1.54775,-0.50507 1.06507,0 1.29941,-0.084 1.40953,-0.50508 0.1132,-0.43288 0.34447,-0.50508 1.61786,-0.50508 1.31741,0 1.48577,-0.0572 1.48577,-0.50507 0,-0.46998 0.16836,-0.50508 2.42276,-0.50508 2.21037,0 2.43433,-0.0443 2.55483,-0.50507 0.12384,-0.47356 0.34447,-0.50508 3.53554,-0.50508 3.19107,0 3.41169,-0.0315 3.53553,-0.50508 0.12741,-0.4872 0.34447,-0.50507 6.13409,-0.50507 5.78962,0 6.00668,0.0179 6.13409,0.50507 0.12357,0.47255 0.34446,0.50508 3.42983,0.50508 3.03929,0 3.31894,0.0396 3.56806,0.50508 0.23904,0.44665 0.52877,0.50507 2.50481,0.50507 2.02212,0 2.24706,0.048 2.36659,0.50508 0.11027,0.42168 0.34446,0.50507 1.41841,0.50507 0.94962,0 1.41855,0.13222 1.79141,0.50508 0.33672,0.33672 0.8418,0.50508 1.51523,0.50508 0.67344,0 1.17851,0.16836 1.51523,0.50507 0.35144,0.35145 0.84179,0.50508 1.61204,0.50508 0.89459,0 1.13231,0.0969 1.23905,0.50508 0.10117,0.38687 0.34447,0.50507 1.03961,0.50507 0.60735,0 0.90752,0.11636 0.90752,0.35179 0,0.40878 0.53839,0.65836 1.42018,0.65836 0.34169,0 0.86521,0.22729 1.16338,0.50508 0.29818,0.27779 0.748,0.50508 0.9996,0.50508 0.2516,0 0.45745,0.16047 0.45745,0.35661 0,0.21924 0.38912,0.42235 1.01016,0.52727 0.58779,0.0993 1.01015,0.31138 1.01015,0.50721 0,0.1851 0.3525,0.41396 0.78333,0.50859 0.43083,0.0946 1.02745,0.39304 1.32582,0.66313 1.16313,1.05291 1.32211,1.15812 1.99459,1.32012 0.38197,0.092 0.69448,0.3356 0.69448,0.5413 0,0.20569 0.21404,0.37399 0.47563,0.37399 0.26323,0 0.5346,0.22554 0.6077,0.50508 0.079,0.30219 0.34446,0.50507 0.6608,0.50507 0.29079,0 0.52872,0.15831 0.52872,0.35179 0,0.38614 0.53065,0.65837 1.28334,0.65837 0.31606,0 0.48442,0.17553 0.48442,0.50507 0,0.33672 0.16836,0.50508 0.50508,0.50508 0.33672,0 0.50508,0.16836 0.50508,0.50508 0,0.33671 0.16836,0.50507 0.50507,0.50507 0.33672,0 0.50508,0.16836 0.50508,0.50508 0,0.33672 0.16836,0.50507 0.50508,0.50507 0.33671,0 0.50507,0.16836 0.50507,0.50508 0,0.33672 0.16836,0.50508 0.50508,0.50508 0.33671,0 0.50507,0.16836 0.50507,0.50507 0,0.33672 0.16836,0.50508 0.50508,0.50508 0.33672,0 0.50508,0.16836 0.50508,0.50508 0,0.27779 0.22728,0.73236 0.50507,1.01015 0.2778,0.27779 0.50508,0.68618 0.50508,0.90752 0,0.22135 0.22728,0.46189 0.50508,0.53453 0.27954,0.0731 0.50507,0.34447 0.50507,0.60771 0,0.30726 0.17879,0.47562 0.50508,0.47562 0.3137,0 0.50507,0.16836 0.50507,0.44433 0,0.24438 0.22729,0.58627 0.50508,0.75975 0.29348,0.18329 0.50508,0.58893 0.50508,0.96828 0,0.44046 0.16431,0.69581 0.50507,0.78492 0.38291,0.10014 0.50508,0.34447 0.50508,1.01016 0,0.66568 0.12217,0.91002 0.50508,1.01015 0.36239,0.0948 0.50507,0.34447 0.50507,0.88388 0,0.53942 0.14269,0.78912 0.50508,0.88389 0.32685,0.0855 0.50507,0.34446 0.50507,0.73397 0,0.43353 0.14128,0.60189 0.50508,0.60189 0.4433,0 0.50508,0.16836 0.50508,1.37641 0,0.95801 0.11461,1.44055 0.37702,1.58741 0.23814,0.13326 0.43741,0.78866 0.54093,1.77915 0.0901,0.86248 0.31824,1.69623 0.50686,1.85278 0.22531,0.18699 0.34371,0.85875 0.34515,1.95833 0.003,2.59756 0.26878,4.32536 0.66433,4.32536 0.28088,0 0.34363,1.1824 0.34363,6.47502 0,5.66342 -0.051,6.51232 -0.407,6.77262 -0.31647,0.23141 -0.43676,0.92566 -0.54084,3.12143 -0.10168,2.14519 -0.21629,2.82383 -0.47688,2.82383 -0.19447,0 -0.34305,0.26451 -0.34305,0.61069 0,0.87179 -0.25119,1.40962 -0.65836,1.40962 -0.23369,0 -0.35179,0.29674 -0.35179,0.88388 0,0.54717 -0.19241,1.07629 -0.50508,1.38896 -0.27779,0.27779 -0.50508,0.78918 -0.50508,1.13642 0,0.46299 -0.13468,0.63135 -0.50507,0.63135 -0.40556,0 -0.50508,0.16836 -0.50508,0.85443 0,0.64204 -0.12554,0.88726 -0.50507,0.98651 -0.38688,0.10117 -0.50508,0.34446 -0.50508,1.0396 0,0.73917 -0.0937,0.90753 -0.50508,0.90753 -0.42089,0 -0.50507,0.16836 -0.50507,1.01015 0,0.8418 -0.0842,1.01016 -0.50508,1.01016 -0.41837,0 -0.50508,0.16835 -0.50508,0.98069 0,0.76832 -0.10938,1.00931 -0.50507,1.11278 -0.44914,0.11746 -0.50508,0.34447 -0.50508,2.04976 0,1.74932 -0.0443,1.91768 -0.50507,1.91768 -0.49288,0 -0.50508,0.16836 -0.50508,6.96844 0,6.75606 -0.0154,6.97247 -0.50508,7.10052 -0.44662,0.1168 -0.50507,0.34447 -0.50507,1.96721 0,1.62274 -0.0585,1.85042 -0.50508,1.96721 -0.38291,0.10013 -0.50508,0.34447 -0.50508,1.01015 0,0.66569 -0.12216,0.91002 -0.50507,1.01016 -0.30219,0.079 -0.50508,0.34446 -0.50508,0.66079 0,0.2943 -0.16288,0.52872 -0.36736,0.52872 -0.2199,0 -0.43393,0.3548 -0.53318,0.88389 -0.12,0.63963 -0.29763,0.88388 -0.64279,0.88388 -0.30861,0 -0.47697,0.17828 -0.47697,0.50508 0,0.32954 -0.16836,0.50507 -0.48442,0.50507 -0.75269,0 -1.28335,0.27223 -1.28335,0.65837 0,0.20688 -0.26006,0.35179 -0.63135,0.35179 -0.46298,0 -0.63134,0.13468 -0.63134,0.50507 0,0.41138 -0.16836,0.50508 -0.90753,0.50508 -0.69514,0 -0.93843,0.1182 -1.0396,0.50507 -0.11971,0.45776 -0.34447,0.50508 -2.39912,0.50508 -2.05464,0 -2.2794,0.0473 -2.39911,0.50508 -0.12036,0.46025 -0.34446,0.50507 -2.52538,0.50507 -2.18092,0 -2.40502,0.0448 -2.52538,0.50508 -0.0731,0.27954 -0.34447,0.50508 -0.6077,0.50508 -0.30727,0 -0.47563,0.17878 -0.47563,0.50507 0,0.4209 -0.16836,0.50508 -1.01015,0.50508 h -1.01015 v 1.01015 c 0,0.84179 -0.0842,1.01015 -0.50508,1.01015 -0.27779,0 -0.50507,0.15538 -0.50507,0.34529 0,0.26837 -0.73658,0.37189 -3.30626,0.46468 -2.46937,0.0892 -3.36332,0.20951 -3.53167,0.47546 -0.12397,0.19584 -0.22715,3.32592 -0.22927,6.95574 -0.004,6.38563 -0.0203,6.60396 -0.50895,6.73176 -0.27779,0.0726 -0.50507,0.31318 -0.50507,0.53453 0,0.58025 -4.9897,0.60289 -5.21198,0.0236 -0.08,-0.20834 -0.29601,-0.3788 -0.48013,-0.3788 -0.18413,0 -0.40691,-0.22729 -0.49508,-0.50508 -0.0882,-0.27779 -0.32311,-0.50508 -0.52209,-0.50508 -0.30472,10e-6 -0.36179,-1.0319 -0.36179,-6.54119 v -6.54119 l -1.53847,-0.17856 c -0.84615,-0.0982 -2.38032,-0.0997 -3.40926,-0.003 l -1.8708,0.17532 v 6.92325 c 0,6.75489 -0.0123,6.92325 -0.50508,6.92325 -0.27779,0 -0.73236,0.22729 -1.01015,0.50508 -0.4282,0.4282 -0.84179,0.50508 -2.71717,0.50508 -1.9386,0 -2.2511,-0.0625 -2.52752,-0.50508 -0.17349,-0.27779 -0.54175,-0.50508 -0.81836,-0.50508 -0.49,0 -0.50294,-0.17817 -0.50294,-6.92325 v -6.92325 l -1.91815,-0.17974 c -1.05498,-0.0989 -2.61756,-0.0802 -3.4724,0.0416 l -1.55425,0.22134 -0.0672,6.88166 c -0.0652,6.67214 -0.0824,6.88166 -0.56821,6.88166 -0.27556,0 -0.72831,0.22729 -1.0061,0.50508 -0.43773,0.43773 -0.84179,0.50508 -3.03046,0.50508 -2.35702,0 -2.52538,-0.0337 -2.52538,-0.50508 z M 265.4622,255.704 c 0.0693,-0.26495 0.34275,-0.53841 0.6077,-0.6077 0.44273,-0.11577 0.48173,-0.39131 0.48173,-3.40316 0,-3.0648 -0.0327,-3.28574 -0.50508,-3.40926 -0.38461,-0.10058 -0.50507,-0.34447 -0.50507,-1.02259 0,-0.66872 -0.1258,-0.93044 -0.50508,-1.05082 -0.41682,-0.13229 -0.50508,-0.38209 -0.50508,-1.42962 0,-1.05693 -0.0845,-1.29141 -0.50507,-1.40139 -0.3957,-0.10348 -0.50508,-0.34447 -0.50508,-1.11278 0,-0.81234 -0.0867,-0.9807 -0.50508,-0.9807 -0.42089,0 -0.50507,-0.16836 -0.50507,-1.01015 0,-0.69171 -0.11014,-1.01015 -0.34936,-1.01015 -0.39482,0 -0.65224,-0.75588 -0.65735,-1.93016 -0.002,-0.4448 -0.1589,-0.85338 -0.35708,-0.92943 -0.1945,-0.0746 -0.43178,-0.59819 -0.52728,-1.16344 -0.10724,-0.63478 -0.30998,-1.02774 -0.53024,-1.02774 -0.20881,0 -0.35661,-0.25311 -0.35661,-0.61069 0,-0.84994 -0.24858,-1.40961 -0.62609,-1.40961 -0.17748,0 -0.39131,-0.44903 -0.48104,-1.01015 -0.10054,-0.62874 -0.29701,-1.01016 -0.52034,-1.01016 -0.19734,0 -0.43094,-0.22728 -0.51911,-0.50507 -0.14008,-0.44138 -0.38209,-0.50508 -1.91897,-0.50508 -1.44377,0 -1.7882,0.0791 -1.92353,0.44194 -0.0907,0.24307 -0.3712,0.59044 -0.62342,0.77194 -0.25709,0.185 -0.45857,0.64363 -0.45857,1.04383 0,0.50145 -0.15027,0.75314 -0.50507,0.84592 -0.37909,0.0991 -0.50508,0.34447 -0.50508,0.98348 0,0.53889 -0.18539,1.01014 -0.50508,1.28386 -0.36648,0.3138 -0.50507,0.74498 -0.50507,1.57136 0,0.97053 -0.0747,1.13889 -0.50508,1.13889 -0.41837,0 -0.50508,0.16836 -0.50508,0.9807 0,0.76831 -0.10938,1.0093 -0.50507,1.11278 -0.38522,0.10074 -0.50508,0.34446 -0.50508,1.02706 0,0.56553 -0.15188,0.97997 -0.41259,1.12587 -0.26682,0.14932 -0.45662,0.68911 -0.53721,1.52778 -0.10135,1.05479 -0.2129,1.29688 -0.59756,1.29688 -0.38341,0 -0.47294,0.19123 -0.47294,1.01015 0,0.69507 -0.10973,1.01015 -0.35179,1.01015 -0.45119,0 -0.65837,0.55351 -0.65837,1.75897 0,0.74766 -0.11173,0.98926 -0.50507,1.09213 -0.45884,0.11998 -0.50508,0.34446 -0.50508,2.4522 0,2.10775 0.0462,2.33222 0.50508,2.45221 0.28714,0.0751 0.50507,0.34447 0.50507,0.62431 0,0.27072 0.11764,0.71204 0.26143,0.9807 0.25143,0.4698 0.62877,0.48847 9.87263,0.48847 9.24354,0 9.61602,-0.0184 9.73718,-0.48173 z M 230.371,235.73014 c 0.27373,-0.31968 0.74498,-0.50507 1.28386,-0.50507 0.63902,0 0.88435,-0.126 0.98349,-0.50508 0.0731,-0.27954 0.34446,-0.50508 0.6077,-0.50508 0.26159,0 0.70291,-0.22728 0.9807,-0.50507 0.27779,-0.2778 0.67554,-0.50508 0.88388,-0.50508 0.21045,0 0.37881,-0.22448 0.37881,-0.50508 0,-0.32629 0.16836,-0.50507 0.47562,-0.50507 0.26324,0 0.5346,-0.22554 0.6077,-0.50508 0.0727,-0.27779 0.31319,-0.50507 0.53453,-0.50507 0.23409,0 0.40245,-0.2113 0.40245,-0.50508 0,-0.33672 0.16836,-0.50508 0.50508,-0.50508 0.3337,0 0.50508,-0.16836 0.50508,-0.49619 0,-0.2729 0.22728,-0.61783 0.50507,-0.7665 0.32359,-0.17318 0.50508,-0.52877 0.50508,-0.98958 0,-0.50689 0.14913,-0.75828 0.50507,-0.85136 0.42753,-0.1118 0.50508,-0.34446 0.50508,-1.51523 0,-1.17076 0.0776,-1.40343 0.50508,-1.51523 0.48668,-0.12726 0.50507,-0.34446 0.50507,-5.9641 0,-5.4953 -0.0292,-5.86118 -0.50507,-6.33709 -0.39284,-0.39284 -0.50508,-0.84179 -0.50508,-2.02031 0,-1.34687 -0.0561,-1.51523 -0.50508,-1.51523 -0.41137,0 -0.50507,-0.16835 -0.50507,-0.90752 0,-0.69514 -0.1182,-0.93844 -0.50508,-1.03961 -0.27954,-0.0731 -0.50507,-0.34446 -0.50507,-0.6077 0,-0.30726 -0.17879,-0.47562 -0.50508,-0.47562 -0.33672,0 -0.50508,-0.16836 -0.50508,-0.50508 0,-0.27779 -0.1628,-0.50508 -0.36179,-0.50508 -0.19898,0 -0.43392,-0.22728 -0.52209,-0.50507 -0.0882,-0.27779 -0.31545,-0.50508 -0.50508,-0.50508 -0.18962,0 -0.4169,-0.22728 -0.50507,-0.50507 -0.0882,-0.2778 -0.36668,-0.50508 -0.61891,-0.50508 -0.25224,0 -0.51804,-0.22728 -0.59069,-0.50508 -0.0948,-0.36239 -0.34446,-0.50507 -0.88388,-0.50507 -0.53942,0 -0.78912,-0.14269 -0.88388,-0.50508 -0.10074,-0.38522 -0.34447,-0.50508 -1.02706,-0.50508 -0.58994,0 -0.97914,-0.15062 -1.1419,-0.44194 -0.21879,-0.3916 -0.78342,-0.45093 -4.95654,-0.5209 -4.57792,-0.0768 -4.71344,-0.0644 -4.84585,0.44194 -0.10075,0.38528 -0.34224,0.5218 -0.92751,0.52435 -1.172,0.005 -1.92772,0.26281 -1.92772,0.65735 0,0.19215 -0.20967,0.34936 -0.46594,0.34936 -0.25626,0 -0.67162,0.22728 -0.92302,0.50507 -0.2514,0.2778 -0.6774,0.50508 -0.94667,0.50508 -0.27719,0 -0.54687,0.21911 -0.62166,0.50508 -0.0731,0.27954 -0.34446,0.50507 -0.6077,0.50507 -0.29744,0 -0.47562,0.17818 -0.47562,0.47563 0,0.26323 -0.22554,0.5346 -0.50508,0.6077 -0.27779,0.0726 -0.50507,0.29993 -0.50507,0.50507 0,0.20515 -0.22729,0.43244 -0.50508,0.50508 -0.38687,0.10117 -0.50508,0.34446 -0.50508,1.03961 0,0.73916 -0.0937,0.90752 -0.50507,0.90752 -0.41837,0 -0.50508,0.16836 -0.50508,0.9807 0,0.76831 -0.10938,1.0093 -0.50508,1.11278 -0.49208,0.12868 -0.50507,0.34446 -0.50507,8.38686 0,8.04239 0.013,8.25817 0.50507,8.38685 0.38291,0.10013 0.50508,0.34447 0.50508,1.01015 0,0.66569 0.12217,0.91002 0.50508,1.01015 0.27779,0.0727 0.50507,0.33682 0.50507,0.58705 0,0.72506 0.27767,1.25389 0.65837,1.25389 0.19348,0 0.35179,0.23793 0.35179,0.52872 0,0.30779 0.20129,0.58136 0.48172,0.6547 0.26495,0.0693 0.53842,0.34275 0.60771,0.6077 0.0884,0.33786 0.3505,0.48173 0.87777,0.48173 0.53942,0 0.78912,0.14268 0.88389,0.50507 0.0726,0.2778 0.30552,0.50508 0.51751,0.50508 0.21199,0 0.45757,0.22728 0.54574,0.50508 0.0882,0.27779 0.37993,0.50507 0.64836,0.50507 0.26843,0 0.48806,0.15721 0.48806,0.34936 0,0.39454 0.75572,0.65224 1.92772,0.65735 0.57721,0.003 0.82702,0.14009 0.92337,0.50852 0.12594,0.48161 0.34447,0.50508 4.70388,0.50508 4.25929,0 4.60136,-0.0345 5.00426,-0.50508 z m 60.17175,0 c 0,-0.42886 0.16836,-0.50507 1.11577,-0.50507 1.35563,0 1.91469,-0.19224 1.91469,-0.65837 0,-0.19348 0.22728,-0.35179 0.50508,-0.35179 0.33671,0 0.50507,-0.16836 0.50507,-0.50507 0,-0.33672 0.16836,-0.50508 0.50508,-0.50508 0.33671,0 0.50507,-0.16836 0.50507,-0.50508 0,-0.41137 0.16836,-0.50507 0.90753,-0.50507 0.69514,0 0.93844,-0.1182 1.03961,-0.50508 0.0726,-0.27779 0.29285,-0.50507 0.48936,-0.50507 0.1965,0 0.43146,-0.19888 0.52212,-0.44195 0.0907,-0.24306 0.37121,-0.59044 0.62342,-0.77193 0.25709,-0.185 0.45857,-0.64363 0.45857,-1.04383 0,-0.50146 0.15028,-0.75314 0.50508,-0.84593 0.38291,-0.10013 0.50508,-0.34446 0.50508,-1.01015 0,-0.66568 0.12216,-0.91002 0.50507,-1.01015 0.46679,-0.12207 0.50508,-0.34446 0.50508,-2.93364 0,-2.52554 0.0532,-2.85479 0.54018,-3.34175 0.49756,-0.49756 0.52851,-0.72035 0.39226,-2.82349 -0.10944,-1.68919 -0.25,-2.34042 -0.54019,-2.50282 -0.31191,-0.17456 -0.39225,-0.71317 -0.39225,-2.62972 0,-2.19783 -0.0445,-2.42185 -0.50508,-2.54229 -0.39569,-0.10348 -0.50507,-0.34447 -0.50507,-1.11278 0,-0.81234 -0.0867,-0.9807 -0.50508,-0.9807 -0.41138,0 -0.50508,-0.16836 -0.50508,-0.90752 0,-0.69515 -0.1182,-0.93844 -0.50507,-1.03961 -0.27779,-0.0726 -0.50508,-0.29993 -0.50508,-0.50508 0,-0.20514 -0.21678,-0.42968 -0.48173,-0.49897 -0.26495,-0.0693 -0.53841,-0.34275 -0.6077,-0.6077 -0.0693,-0.26495 -0.29382,-0.48173 -0.49897,-0.48173 -0.20515,0 -0.43243,-0.22728 -0.50508,-0.50507 -0.0726,-0.2778 -0.31318,-0.50508 -0.53453,-0.50508 -0.22134,0 -0.62973,-0.22728 -0.90752,-0.50508 -0.27779,-0.27779 -0.73236,-0.50507 -1.01015,-0.50507 -0.2778,0 -0.50508,-0.15831 -0.50508,-0.35179 0,-0.46348 -0.55806,-0.65837 -1.88524,-0.65837 -0.88515,0 -1.11155,-0.0965 -1.22262,-0.52123 -0.13238,-0.50624 -0.26818,-0.51895 -4.72224,-0.44194 -4.01963,0.0695 -4.6258,0.13387 -4.90862,0.52123 -0.19221,0.26325 -0.65284,0.44194 -1.13923,0.44194 -0.60416,0 -0.8509,0.13138 -0.94863,0.50508 -0.0838,0.32052 -0.34446,0.50508 -0.71331,0.50508 -0.84393,0 -1.38017,0.2558 -1.38017,0.65836 0,0.19348 -0.1811,0.35179 -0.40245,0.35179 -0.22134,0 -0.46188,0.22728 -0.53453,0.50508 -0.0731,0.27954 -0.34446,0.50507 -0.6077,0.50507 -0.30726,0 -0.47562,0.17879 -0.47562,0.50508 0,0.33672 -0.16836,0.50507 -0.50508,0.50507 -0.33671,0 -0.50507,0.16836 -0.50507,0.50508 0,0.2852 -0.16836,0.50508 -0.38674,0.50508 -0.2127,0 -0.45971,0.19019 -0.54891,0.42265 -0.0892,0.23245 -0.36975,0.6302 -0.62343,0.88388 -0.25367,0.25368 -0.46123,0.68852 -0.46123,0.96631 0,0.27779 -0.22728,0.73236 -0.50507,1.01015 -0.40068,0.40068 -0.50508,0.8418 -0.50508,2.13403 0,1.28897 -0.0922,1.68048 -0.44194,1.87584 -0.38919,0.21742 -0.45155,0.76835 -0.52242,4.61563 -0.0867,4.70617 0.0375,6.02171 0.5685,6.02171 0.24209,0 0.36776,0.51144 0.44006,1.79089 0.0766,1.3559 0.20621,1.84965 0.53357,2.03285 0.23781,0.13309 0.43238,0.43627 0.43238,0.67375 0,0.23748 0.22729,0.57373 0.50508,0.74721 0.29348,0.18328 0.50507,0.58892 0.50507,0.96827 0,0.42992 0.1645,0.69587 0.48173,0.77882 0.26495,0.0693 0.53842,0.34276 0.60771,0.60771 0.0693,0.26495 0.29382,0.48173 0.49897,0.48173 0.20514,0 0.43243,0.22728 0.50507,0.50507 0.0726,0.27779 0.29993,0.50508 0.50508,0.50508 0.20515,0 0.43243,0.22728 0.50507,0.50507 0.0727,0.2778 0.31319,0.50508 0.53453,0.50508 0.22135,0 0.62974,0.22728 0.90753,0.50508 0.27779,0.27779 0.71911,0.50507 0.9807,0.50507 0.26324,0 0.5346,0.22554 0.6077,0.50508 0.10117,0.38687 0.34447,0.50508 1.03961,0.50508 0.6176,0 0.90752,0.1151 0.90752,0.36029 0,0.53463 0.46613,0.58854 5.36644,0.62056 4.32396,0.0283 4.48255,0.0114 4.48255,-0.47578 z"
         id="path943"
         transform="scale(0.26458333)" />
      <path
         style="fill:#000000;fill-opacity:1;stroke:none;stroke-width:1.08524;stroke-linecap:square;stroke-linejoin:round;paint-order:stroke fill markers"
         d="m 247.43336,253.86785 c 0,-0.2127 -0.17046,-0.45214 -0.37881,-0.53209 -0.52379,-0.201 -0.55149,-3.37432 -0.0294,-3.37432 0.39454,0 0.65224,-0.75572 0.65735,-1.92772 0.003,-0.57721 0.14009,-0.82703 0.50853,-0.92337 0.36777,-0.0962 0.50507,-0.34447 0.50507,-0.91334 0,-0.44454 0.21769,-0.99894 0.50508,-1.28633 0.27779,-0.2778 0.50507,-0.78354 0.50507,-1.12388 0,-0.34033 0.17317,-0.7157 0.38482,-0.83415 0.22897,-0.12813 0.44777,-0.74687 0.54025,-1.52777 0.0949,-0.80101 0.27882,-1.31243 0.47205,-1.31243 0.37485,0 0.62319,-0.56173 0.62319,-1.40961 0,-0.35758 0.1478,-0.61069 0.35661,-0.61069 0.21805,0 0.42162,-0.3848 0.52393,-0.99037 0.092,-0.54471 0.31752,-1.04801 0.5011,-1.11846 0.18359,-0.0704 0.41416,-0.71246 0.51239,-1.42671 0.10192,-0.74099 0.33004,-1.35673 0.53125,-1.43394 0.19395,-0.0744 0.35264,-0.35045 0.35264,-0.61338 0,-0.26293 0.16481,-0.47806 0.36626,-0.47806 0.20144,0 0.4779,-0.19887 0.61436,-0.44194 0.23629,-0.4209 0.25621,-0.4209 0.41837,0 0.0936,0.24307 0.32858,0.44194 0.52206,0.44194 0.19349,0 0.35179,0.22729 0.35179,0.50508 0,0.27779 0.16048,0.50507 0.35661,0.50507 0.21924,0 0.42235,0.38912 0.52728,1.01016 0.0955,0.56507 0.31345,1.01015 0.49473,1.01015 0.1986,0 0.38954,0.49348 0.49316,1.27456 0.0937,0.70606 0.3218,1.33316 0.51148,1.40595 0.18833,0.0723 0.41795,0.63514 0.51028,1.25082 0.10913,0.72772 0.29501,1.11943 0.5312,1.11943 0.21592,0 0.36333,0.24777 0.36333,0.61069 0,0.84955 0.24854,1.40962 0.62552,1.40962 0.19258,0 0.37183,0.46917 0.45243,1.1842 0.0748,0.6635 0.31131,1.31423 0.53792,1.47993 0.22244,0.16266 0.40444,0.59572 0.40444,0.96238 0,0.36665 0.22728,0.89392 0.50507,1.17171 0.2874,0.28739 0.50508,0.8418 0.50508,1.28633 0,0.56888 0.13731,0.81717 0.50508,0.91334 0.45119,0.11799 0.50507,0.34447 0.50507,2.12293 0,3.18724 0.5642,3.00101 -9.09137,3.00101 -7.08856,0 -8.08122,-0.0475 -8.08122,-0.38674 z"
         id="path971"
         transform="scale(0.26458333)" />
      <path
         style="fill:#000000;fill-opacity:1;stroke:none;stroke-width:1.08524;stroke-linecap:square;stroke-linejoin:round;paint-order:stroke fill markers"
         d="m 221.42193,233.799 c -0.17483,-0.32667 -0.52877,-0.50508 -1.00202,-0.50508 -0.50991,0 -0.7803,-0.15309 -0.89201,-0.50507 -0.11929,-0.37585 -0.3821,-0.50508 -1.02717,-0.50508 -0.69851,0 -0.86687,-0.0981 -0.86687,-0.50508 0,-0.33671 -0.16836,-0.50507 -0.50508,-0.50507 -0.29378,0 -0.50507,-0.16836 -0.50507,-0.40245 0,-0.22135 -0.21678,-0.45914 -0.48173,-0.52843 -0.26495,-0.0693 -0.53842,-0.34275 -0.6077,-0.6077 -0.0693,-0.26495 -0.29383,-0.48173 -0.49897,-0.48173 -0.20515,0 -0.43244,-0.22728 -0.50508,-0.50507 -0.0726,-0.2778 -0.31318,-0.50508 -0.53453,-0.50508 -0.23409,0 -0.40245,-0.21129 -0.40245,-0.50508 0,-0.27779 -0.22728,-0.73236 -0.50508,-1.01015 -0.27779,-0.27779 -0.50507,-0.70727 -0.50507,-0.9544 0,-0.24713 -0.22729,-0.61315 -0.50508,-0.81337 -0.48494,-0.34952 -0.50507,-0.65374 -0.50507,-7.63189 0,-7.0995 0.0117,-7.26786 0.50507,-7.26786 0.4209,0 0.50508,-0.16835 0.50508,-1.01015 0,-0.84179 0.0842,-1.01015 0.50507,-1.01015 0.33672,0 0.50508,-0.16836 0.50508,-0.50508 0,-0.2852 0.16836,-0.50507 0.38673,-0.50507 0.21271,0 0.45691,-0.18286 0.54267,-0.40636 0.22266,-0.58024 1.22297,-1.61395 1.56181,-1.61395 0.15769,0 0.28671,-0.11608 0.28671,-0.25795 0,-0.14187 0.28411,-0.3874 0.63135,-0.54561 0.34724,-0.15822 0.63134,-0.43989 0.63134,-0.62593 0,-0.18605 0.22729,-0.33828 0.50508,-0.33828 0.27779,0 0.71679,-0.21171 0.97555,-0.47048 0.25877,-0.25876 0.8838,-0.54802 1.38896,-0.64279 0.55639,-0.10437 0.91848,-0.31713 0.91848,-0.53967 0,-0.30651 0.68536,-0.36736 4.13743,-0.36736 3.92504,0 4.1442,0.0259 4.2695,0.50508 0.10014,0.38291 0.34447,0.50507 1.01016,0.50507 0.66568,0 0.91002,0.12217 1.01015,0.50508 0.079,0.30219 0.34446,0.50507 0.6608,0.50507 0.29079,0 0.52872,0.0944 0.52872,0.20987 0,0.11542 0.30285,0.37112 0.67301,0.56821 0.8667,0.46147 2.63313,2.2279 3.0946,3.0946 0.19709,0.37016 0.45278,0.67301 0.56821,0.67301 0.11542,0 0.20986,0.23792 0.20986,0.52872 0,0.31633 0.20289,0.58177 0.50508,0.6608 0.40633,0.10626 0.50508,0.34446 0.50508,1.21839 0,1.32718 0.19488,1.88524 0.65836,1.88524 0.28979,0 0.35179,0.95698 0.35179,5.42957 0,5.09285 -0.0313,5.46089 -0.50508,5.93465 -0.2806,0.28059 -0.50507,0.84179 -0.50507,1.26269 0,0.41668 -0.10629,0.75761 -0.2362,0.75761 -0.1299,0 -0.38001,0.39775 -0.5558,0.88388 -0.17579,0.48614 -0.40891,0.88389 -0.51804,0.88389 -0.10913,0 -0.3528,0.36933 -0.54149,0.82075 -0.18869,0.45141 -0.53115,0.97671 -0.76101,1.16734 -0.22985,0.19063 -0.41792,0.50314 -0.41792,0.69448 0,0.19134 -0.20967,0.34788 -0.46594,0.34788 -0.25626,0 -0.67162,0.22729 -0.92302,0.50508 -0.2514,0.27779 -0.66676,0.50508 -0.92303,0.50508 -0.29757,0 -0.46593,0.1825 -0.46593,0.50507 0,0.33672 -0.16836,0.50508 -0.50508,0.50508 -0.33671,0 -0.50507,0.16836 -0.50507,0.50508 0,0.42089 -0.16836,0.50507 -1.01016,0.50507 -0.84179,0 -1.01015,0.0842 -1.01015,0.50508 0,0.48398 -0.16836,0.50507 -4.03172,0.50507 -3.77327,0 -4.04906,-0.0324 -4.30204,-0.50507 z"
         id="path973"
         transform="scale(0.26458333)" />
      <path
         style="fill:#000000;fill-opacity:1;stroke:none;stroke-width:1.08524;stroke-linecap:square;stroke-linejoin:round;paint-order:stroke fill markers"
         d="m 281.52601,233.799 c 0,-0.39252 -0.16836,-0.50508 -0.75548,-0.50508 -0.48197,0 -0.86966,-0.18285 -1.0709,-0.50507 -0.17348,-0.2778 -0.51537,-0.50508 -0.75975,-0.50508 -0.27597,0 -0.44433,-0.19138 -0.44433,-0.50508 0,-0.3137 -0.16836,-0.50507 -0.44433,-0.50507 -0.24438,0 -0.58627,-0.22729 -0.75975,-0.50508 -0.17349,-0.27779 -0.58625,-0.50508 -0.91726,-0.50508 -0.44549,0 -0.64697,-0.17987 -0.77561,-0.69241 -0.0956,-0.38083 -0.32991,-0.86381 -0.52073,-1.07329 -0.19082,-0.20948 -0.56793,-0.62499 -0.83803,-0.92337 -0.2701,-0.29837 -0.5702,-0.90267 -0.66688,-1.34289 -0.0967,-0.44021 -0.33555,-0.86169 -0.53079,-0.93661 -0.20383,-0.0782 -0.355,-0.48443 -0.355,-0.95395 0,-0.497 -0.19809,-0.997 -0.50507,-1.27481 -0.47038,-0.42569 -0.50508,-0.77781 -0.50508,-5.1252 0,-4.11398 0.0513,-4.70562 0.43213,-4.98409 0.31746,-0.23213 0.45905,-0.7924 0.53358,-2.11128 0.0879,-1.55532 0.16515,-1.7953 0.57802,-1.7953 0.29924,0 0.47658,-0.17789 0.47658,-0.47806 0,-0.26293 0.15584,-0.53786 0.34631,-0.61095 0.19047,-0.0731 0.41764,-0.41708 0.50482,-0.76443 0.17423,-0.69419 2.00515,-2.64234 2.96223,-3.15189 1.73528,-0.92387 1.99501,-1.11242 1.99501,-1.44817 0,-0.25063 0.28443,-0.36503 0.90753,-0.36503 0.69514,0 0.93844,-0.1182 1.03961,-0.50507 0.12525,-0.47898 0.34446,-0.50508 4.24248,-0.50508 3.35097,0 4.13628,0.0674 4.25043,0.36487 0.077,0.20068 0.53586,0.43914 1.01967,0.5299 0.48382,0.0908 0.93518,0.3097 1.00303,0.48652 0.0678,0.17681 0.41954,0.39582 0.78153,0.48667 0.36199,0.0909 0.91097,0.39486 1.21996,0.67557 1.11851,1.01615 1.32895,1.17961 1.90757,1.48168 0.32349,0.16889 0.70394,0.63919 0.84545,1.04512 0.14151,0.40592 0.41663,0.73805 0.61139,0.73805 0.19475,0 0.3541,0.22728 0.3541,0.50507 0,0.33672 0.16836,0.50508 0.50508,0.50508 0.42089,0 0.50507,0.16836 0.50507,1.01015 0,0.8418 0.0842,1.01015 0.50508,1.01015 0.45831,0 0.50539,0.16951 0.50852,1.83091 0.004,2.16731 0.18131,2.96732 0.65735,2.96732 0.27628,0 0.34936,0.58111 0.34936,2.77792 0,2.20608 -0.0724,2.77792 -0.35179,2.77792 -0.52172,0 -0.65837,0.58083 -0.65837,2.79857 0,1.83129 -0.0425,1.99965 -0.50507,1.99965 -0.41138,0 -0.50508,0.16836 -0.50508,0.90753 0,0.69514 -0.1182,0.93843 -0.50507,1.0396 -0.27954,0.0731 -0.50508,0.34447 -0.50508,0.60771 0,0.26159 -0.17403,0.47562 -0.38673,0.47562 -0.21271,0 -0.4565,0.18181 -0.54178,0.40402 -0.1997,0.52042 -1.17751,1.49823 -1.69793,1.69793 -0.22221,0.0853 -0.40402,0.32907 -0.40402,0.54178 0,0.21837 -0.21988,0.38673 -0.50507,0.38673 -0.33672,0 -0.50508,0.16836 -0.50508,0.50507 0,0.39151 -0.16836,0.50508 -0.74873,0.50508 -0.49027,0 -0.84204,0.17435 -1.01904,0.50508 -0.17985,0.33606 -0.52877,0.50507 -1.04268,0.50507 -0.55998,0 -0.80869,0.13889 -0.90445,0.50508 -0.1253,0.47915 -0.34447,0.50507 -4.26951,0.50507 -3.96906,0 -4.13742,-0.0205 -4.13742,-0.50507 z"
         id="path975"
         transform="scale(0.26458333)" />
      <path
         style="fill:#000000;fill-opacity:1;stroke:none;stroke-width:1.08524;stroke-linecap:square;stroke-linejoin:round;paint-order:stroke fill markers"
         d="m 236.38029,299.71145 c -0.26656,-0.42684 -0.58892,-0.50507 -2.08105,-0.50507 -1.34082,0 -1.76563,-0.0847 -1.76563,-0.35179 0,-0.40717 -0.53783,-0.65837 -1.40961,-0.65837 -0.35364,0 -0.61069,-0.14808 -0.61069,-0.35179 0,-0.40716 -0.53783,-0.65836 -1.40962,-0.65836 -0.44233,0 -0.61069,-0.13924 -0.61069,-0.50508 0,-0.33671 -0.16836,-0.50507 -0.50508,-0.50507 -0.29378,0 -0.50507,-0.16836 -0.50507,-0.40245 0,-0.22135 -0.22729,-0.46189 -0.50508,-0.53453 -0.27779,-0.0727 -0.50507,-0.28929 -0.50507,-0.48144 0,-0.19214 -0.17047,-0.34935 -0.37881,-0.34935 -0.20835,0 -0.37881,-0.10779 -0.37881,-0.23953 0,-0.13174 -0.2841,-0.54608 -0.63134,-0.92076 -0.34724,-0.37467 -0.63135,-0.77828 -0.63135,-0.89689 0,-0.11861 -0.17046,-0.21566 -0.37881,-0.21566 -0.20834,0 -0.3788,-0.21799 -0.3788,-0.48442 0,-0.75269 -0.27223,-1.28335 -0.65837,-1.28335 -0.231,0 -0.35179,-0.29179 -0.35179,-0.84983 0,-0.46743 -0.22726,-1.13875 -0.50507,-1.49192 -0.47111,-0.59891 -0.50508,-1.02449 -0.50508,-6.32686 0,-3.12661 -0.069,-5.86451 -0.15329,-6.08422 -0.0843,-0.2197 -0.36841,-0.39946 -0.63134,-0.39946 -0.26293,0 -0.47806,-0.15721 -0.47806,-0.34935 0,-0.49944 -0.8134,-0.65343 -3.4724,-0.65735 -1.99646,-0.003 -2.40939,-0.0769 -2.84105,-0.50853 -0.33672,-0.33671 -0.8418,-0.50507 -1.51523,-0.50507 -0.67344,0 -1.17851,-0.16836 -1.51523,-0.50508 -0.27779,-0.27779 -0.7202,-0.50507 -0.98313,-0.50507 -0.26294,0 -0.54107,-0.1642 -0.61808,-0.36488 -0.077,-0.20068 -0.54373,-0.44061 -1.03717,-0.53318 -0.49343,-0.0926 -0.89715,-0.31847 -0.89715,-0.50199 0,-0.18353 -0.21679,-0.40249 -0.48175,-0.48659 -0.26496,-0.0841 -0.54139,-0.30832 -0.61428,-0.49828 -0.0729,-0.18996 -0.49494,-0.42497 -0.93787,-0.52226 -0.48162,-0.10578 -0.8556,-0.36912 -0.9304,-0.65516 -0.0688,-0.26305 -0.3391,-0.47828 -0.60069,-0.47828 -0.26159,0 -0.47562,-0.17402 -0.47562,-0.38673 0,-0.2127 -0.16614,-0.45048 -0.3692,-0.52841 -0.20306,-0.0779 -0.438,-0.35845 -0.52209,-0.62341 -0.0841,-0.26496 -0.31571,-0.48175 -0.51469,-0.48175 -0.19899,0 -0.36179,-0.12565 -0.36179,-0.27922 0,-0.15357 -0.28411,-0.61685 -0.63135,-1.02953 -0.34724,-0.41267 -0.63134,-0.91205 -0.63134,-1.10974 0,-0.19769 -0.15782,-0.35943 -0.3507,-0.35943 -0.20185,0 -0.42214,-0.38079 -0.51901,-0.89716 -0.0926,-0.49343 -0.3325,-0.96016 -0.53319,-1.03717 -0.20068,-0.077 -0.36487,-0.35514 -0.36487,-0.61807 0,-0.3097 -0.17787,-0.47806 -0.50508,-0.47806 -0.44488,0 -0.50507,-0.16836 -0.50507,-1.4126 0,-1.20022 -0.0759,-1.43246 -0.50508,-1.54468 -0.46417,-0.12138 -0.50507,-0.34447 -0.50507,-2.75428 0,-2.28548 -0.0649,-2.68705 -0.50508,-3.12727 -0.47632,-0.47632 -0.50508,-0.84179 -0.50508,-6.41907 0,-3.2527 -0.069,-6.09375 -0.15328,-6.31345 -0.0843,-0.21971 -0.3116,-0.39946 -0.50508,-0.39946 -0.24761,0 -0.35179,-0.33043 -0.35179,-1.11577 0,-1.35564 -0.19223,-1.91469 -0.65836,-1.91469 -0.20689,0 -0.35179,-0.26006 -0.35179,-0.63135 0,-0.34724 -0.22729,-0.85863 -0.50508,-1.13642 -0.27779,-0.27779 -0.50507,-0.65411 -0.50507,-0.83626 0,-0.18216 -0.22729,-0.57515 -0.50508,-0.87333 -0.27779,-0.29817 -0.50508,-0.77417 -0.50508,-1.05777 0,-0.34728 -0.16491,-0.51564 -0.50507,-0.51564 -0.41138,0 -0.50508,-0.16835 -0.50508,-0.90752 0,-0.69514 -0.1182,-0.93844 -0.50508,-1.03961 -0.39569,-0.10347 -0.50507,-0.34446 -0.50507,-1.11278 0,-0.81234 -0.0867,-0.9807 -0.50508,-0.9807 -0.43725,0 -0.50507,-0.16836 -0.50507,-1.2538 0,-0.99535 -0.10412,-1.30953 -0.50508,-1.52411 -0.41208,-0.22054 -0.50508,-0.52877 -0.50508,-1.67403 0,-1.19133 -0.0764,-1.4237 -0.50507,-1.5358 -0.47451,-0.12408 -0.50508,-0.34446 -0.50508,-3.64063 0,-3.19604 -0.045,-3.54707 -0.50508,-3.94101 -0.48254,-0.41317 -0.50507,-0.74497 -0.50507,-7.43852 0,-6.7476 0.0186,-7.01603 0.50507,-7.27637 0.45688,-0.24451 0.50508,-0.52877 0.50508,-2.97859 0,-2.43479 0.051,-2.74014 0.50508,-3.02372 0.42683,-0.26656 0.50507,-0.58892 0.50507,-2.08105 0,-1.59726 0.0482,-1.76562 0.50508,-1.76562 0.42758,0 0.50508,-0.16836 0.50508,-1.09728 0,-0.77656 0.14762,-1.23089 0.50507,-1.55437 0.31854,-0.28828 0.50508,-0.77781 0.50508,-1.32548 0,-0.656 0.12353,-0.90069 0.50507,-1.00046 0.38291,-0.10014 0.50508,-0.34447 0.50508,-1.01016 0,-0.66568 0.12217,-0.91001 0.50508,-1.01015 0.37697,-0.0986 0.50507,-0.34447 0.50507,-0.96949 0,-0.61562 0.13378,-0.87987 0.50508,-0.99772 0.37585,-0.11929 0.50508,-0.3821 0.50508,-1.02717 0,-0.60844 0.11479,-0.86686 0.38505,-0.86686 0.21178,0 0.48718,-0.26861 0.612,-0.59691 0.12482,-0.32829 0.40611,-0.66565 0.6251,-0.74968 0.21898,-0.084 0.39815,-0.36603 0.39815,-0.62665 0,-0.26063 0.22728,-0.67955 0.50508,-0.93095 0.27779,-0.2514 0.50507,-0.60994 0.50507,-0.79676 0,-0.18681 0.17328,-0.33966 0.38506,-0.33966 0.21178,0 0.49308,-0.28411 0.6251,-0.63135 0.13202,-0.34724 0.35134,-0.63134 0.48738,-0.63134 0.13604,0 0.32196,-0.39775 0.41316,-0.88389 0.10094,-0.53806 0.31228,-0.88388 0.54016,-0.88388 0.20589,0 0.43378,-0.22729 0.50643,-0.50508 0.0726,-0.27779 0.29993,-0.50507 0.50507,-0.50507 0.20515,0 0.43244,-0.22729 0.50508,-0.50508 0.0726,-0.27779 0.29993,-0.50508 0.50508,-0.50508 0.20514,0 0.43243,-0.22728 0.50507,-0.50507 0.0727,-0.27779 0.29993,-0.50508 0.50508,-0.50508 0.20515,0 0.43243,-0.22728 0.50508,-0.50508 0.0726,-0.27779 0.28163,-0.50507 0.46441,-0.50507 0.18279,0 0.40447,-0.22729 0.49264,-0.50508 0.0882,-0.27779 0.31545,-0.50507 0.50508,-0.50507 0.18962,0 0.41691,-0.22729 0.50507,-0.50508 0.0882,-0.27779 0.32311,-0.50508 0.5221,-0.50508 0.19898,0 0.36179,-0.22728 0.36179,-0.50507 0,-0.39252 0.16836,-0.50508 0.75547,-0.50508 0.48198,0 0.86967,-0.18285 1.0709,-0.50508 0.17349,-0.27779 0.51538,-0.50507 0.75976,-0.50507 0.27597,0 0.44433,-0.19138 0.44433,-0.50508 0,-0.33672 0.16835,-0.50507 0.50507,-0.50507 0.33672,0 0.50508,-0.16836 0.50508,-0.50508 0,-0.32454 0.16836,-0.50508 0.47102,-0.50508 0.25906,0 0.75996,-0.22728 1.11312,-0.50507 0.35315,-0.27779 0.76223,-0.50508 0.90905,-0.50508 0.14683,0 0.3886,-0.22728 0.53727,-0.50508 0.14866,-0.27779 0.43677,-0.50507 0.64023,-0.50507 0.20345,0 0.36992,-0.16048 0.36992,-0.35661 0,-0.21924 0.38911,-0.42235 1.01015,-0.52728 0.60256,-0.1018 1.01015,-0.30993 1.01015,-0.51583 0,-0.19479 0.38661,-0.41769 0.88744,-0.51165 0.48809,-0.0916 0.97107,-0.29559 1.07329,-0.45338 0.21196,-0.32721 1.37093,-1.02504 2.39556,-1.44239 0.38196,-0.15559 0.69448,-0.44223 0.69448,-0.63698 0,-0.23363 0.28913,-0.35411 0.84982,-0.35411 0.46741,0 1.12085,-0.21082 1.4521,-0.46848 0.33124,-0.25767 1.02842,-0.54693 1.54928,-0.64279 0.58045,-0.10683 0.94702,-0.3165 0.94702,-0.54167 0,-0.25331 0.28176,-0.36736 0.90753,-0.36736 0.69514,0 0.93843,-0.1182 1.0396,-0.50508 0.10674,-0.40817 0.34447,-0.50507 1.23905,-0.50507 0.77025,0 1.2606,-0.15364 1.61204,-0.50508 0.33321,-0.3332 0.8418,-0.50508 1.49458,-0.50508 1.2338,0 1.78842,-0.20416 1.78842,-0.65836 0,-0.25877 0.37353,-0.35179 1.4126,-0.35179 1.20022,0 1.43246,-0.0759 1.54469,-0.50508 0.11956,-0.45721 0.34446,-0.50507 2.37333,-0.50507 1.96775,0 2.27974,-0.0616 2.55667,-0.50508 0.28365,-0.45419 0.58893,-0.50507 3.03046,-0.50507 2.44153,0 2.7468,-0.0509 3.03045,-0.50508 0.30568,-0.48946 0.58893,-0.50508 9.15904,-0.50508 8.57011,0 8.85336,0.0156 9.15904,0.50508 0.28286,0.45294 0.58892,0.50508 2.96493,0.50508 2.31279,0 2.7137,0.0642 3.15459,0.50507 0.42474,0.42475 0.84179,0.50508 2.62219,0.50508 1.90474,0 2.13037,0.0507 2.2492,0.50507 0.11028,0.42169 0.34447,0.50508 1.41842,0.50508 0.94961,0 1.41854,0.13221 1.79141,0.50508 0.3424,0.3424 0.84179,0.50507 1.55052,0.50507 0.67505,0 1.15213,0.1459 1.34656,0.41181 0.18282,0.25001 0.8054,0.46026 1.58462,0.53513 0.982,0.0944 1.31267,0.23491 1.40771,0.59835 0.0925,0.35383 0.35574,0.47502 1.03174,0.47502 0.60433,0 0.90753,0.11672 0.90753,0.34935 0,0.36025 0.73743,0.6513 1.66549,0.65735 0.29099,0.002 0.73476,0.23074 0.98616,0.50853 0.28355,0.31331 0.77781,0.50507 1.30183,0.50507 0.58868,0 0.84474,0.11674 0.84474,0.38512 0,0.2244 0.31079,0.44728 0.74471,0.53407 0.40959,0.0819 0.93859,0.36318 1.17556,0.62503 0.23697,0.26185 0.58727,0.47609 0.77845,0.47609 0.19118,0 0.40872,0.15929 0.48343,0.35398 0.0747,0.19469 0.52571,0.42713 1.00223,0.51652 0.48496,0.091 0.86639,0.3145 0.86639,0.5077 0,0.2059 0.40759,0.41403 1.01015,0.51583 0.62104,0.10493 1.01015,0.30804 1.01015,0.52728 0,0.19613 0.16647,0.35661 0.36992,0.35661 0.20346,0 0.49157,0.22728 0.64023,0.50507 0.14867,0.2778 0.47217,0.50508 0.71888,0.50508 0.24672,0 0.69254,0.22729 0.99071,0.50508 0.29818,0.27779 0.71735,0.50507 0.93151,0.50507 0.221,0 0.38936,0.21839 0.38936,0.50508 0,0.32629 0.16836,0.50508 0.47562,0.50508 0.26324,0 0.53461,0.22553 0.60771,0.50507 0.0726,0.27779 0.31318,0.50508 0.53453,0.50508 0.22134,0 0.62973,0.22728 0.90752,0.50507 0.2778,0.2778 0.73236,0.50508 1.01016,0.50508 0.33671,0 0.50507,0.16836 0.50507,0.50508 0,0.29378 0.16836,0.50507 0.40245,0.50507 0.22135,0 0.46189,0.22729 0.53453,0.50508 0.0727,0.27779 0.28163,0.50508 0.46442,0.50508 0.18278,0 0.40447,0.22728 0.49264,0.50507 0.0882,0.27779 0.31545,0.50508 0.50507,0.50508 0.18963,0 0.41691,0.22728 0.50508,0.50507 0.0882,0.2778 0.30986,0.50508 0.49264,0.50508 0.18279,0 0.39177,0.22729 0.46442,0.50508 0.0726,0.27779 0.29993,0.50507 0.50507,0.50507 0.20515,0 0.43243,0.22729 0.50508,0.50508 0.0726,0.27779 0.29993,0.50508 0.50508,0.50508 0.20514,0 0.43243,0.22728 0.50507,0.50507 0.0727,0.27779 0.31318,0.50508 0.53453,0.50508 0.23409,0 0.40245,0.21129 0.40245,0.50507 0,0.2778 0.21607,0.72115 0.48015,0.98523 0.26408,0.26408 0.55584,0.71864 0.64836,1.01015 0.0925,0.2915 0.33102,0.53001 0.53001,0.53001 0.19898,0 0.36179,0.1811 0.36179,0.40245 0,0.22134 0.2166,0.45909 0.48133,0.52832 0.30661,0.0802 0.53994,0.43828 0.64279,0.98651 0.0958,0.51074 0.31081,0.86064 0.52882,0.86064 0.20205,0 0.36736,0.21962 0.36736,0.48805 0,0.26844 0.22729,0.5602 0.50508,0.64837 0.35198,0.11171 0.50507,0.3821 0.50507,0.89201 0,0.47325 0.17841,0.8272 0.50508,1.00202 0.35589,0.19047 0.50508,0.52877 0.50508,1.14531 0,0.70664 0.0972,0.875 0.50507,0.875 0.4209,0 0.50508,0.16836 0.50508,1.01015 0,0.84179 0.0842,1.01015 0.50508,1.01015 0.42089,0 0.50507,0.16836 0.50507,1.01016 0,0.84179 0.0842,1.01015 0.50508,1.01015 0.44488,0 0.50507,0.16836 0.50507,1.4126 0,1.20022 0.0759,1.43246 0.50508,1.54468 0.43863,0.11471 0.50508,0.34447 0.50508,1.7466 0,1.302 0.0978,1.69822 0.50507,2.04698 0.43746,0.37455 0.50508,0.74497 0.50508,2.76656 0,2.07564 0.0559,2.36403 0.50508,2.60441 0.48962,0.26204 0.50507,0.52877 0.50507,8.72145 0,7.05529 -0.0581,8.45114 -0.35179,8.45114 -0.54045,0 -0.65836,0.58863 -0.65836,3.28663 0,2.26592 -0.045,2.50201 -0.50508,2.64802 -0.42239,0.13406 -0.50507,0.3821 -0.50507,1.51523 0,1.13313 -0.0827,1.38116 -0.50508,1.51523 -0.42163,0.13382 -0.50508,0.38209 -0.50508,1.50279 0,1.1301 -0.0799,1.36338 -0.50507,1.47457 -0.38291,0.10013 -0.50508,0.34446 -0.50508,1.01015 0,0.66569 -0.12216,0.91002 -0.50507,1.01015 -0.38688,0.10117 -0.50508,0.34447 -0.50508,1.03961 0,0.73917 -0.0937,0.90752 -0.50508,0.90752 -0.41137,0 -0.50507,0.16836 -0.50507,0.90753 0,0.69514 -0.1182,0.93844 -0.50508,1.03961 -0.27779,0.0726 -0.50508,0.33395 -0.50508,0.58068 0,0.24673 -0.15974,0.50991 -0.35499,0.58483 -0.19525,0.0749 -0.4341,0.4964 -0.53079,0.93661 -0.0967,0.44022 -0.39151,1.01611 -0.65516,1.27976 -0.3146,0.31461 -0.47936,0.83456 -0.47936,1.51282 0,0.65106 -0.18689,1.27104 -0.50508,1.67555 -0.47509,0.60398 -0.50507,1.02449 -0.50507,7.08306 0,5.84278 -0.041,6.47097 -0.44194,6.76411 -0.34727,0.25392 -0.46102,0.78738 -0.531,2.49009 -0.0635,1.54659 -0.18164,2.16694 -0.41248,2.16694 -0.38433,0 -0.62668,0.78834 -0.63144,2.05398 -0.003,0.70352 -0.12127,0.94838 -0.50852,1.04965 -0.36286,0.0949 -0.50508,0.34446 -0.50508,0.88631 0,0.41726 -0.15962,0.81549 -0.35727,0.89134 -0.35369,0.13572 -0.85553,0.90967 -1.46082,2.25292 -0.17212,0.38196 -0.4585,0.69448 -0.63639,0.69448 -0.17789,0 -0.32344,0.10925 -0.32344,0.24278 0,0.13352 -0.45457,0.69283 -1.01015,1.24288 -0.55559,0.55006 -1.01016,1.12266 -1.01016,1.27245 0,0.14979 -0.22728,0.27234 -0.50507,0.27234 -0.33672,0 -0.50508,0.16836 -0.50508,0.50508 0,0.32629 -0.16836,0.50508 -0.47562,0.50508 -0.26159,0 -0.53191,0.21522 -0.6007,0.47828 -0.0748,0.28603 -0.44877,0.54937 -0.9304,0.65515 -0.44293,0.0973 -0.86663,0.33663 -0.94155,0.53188 -0.0749,0.19524 -0.33374,0.35499 -0.57514,0.35499 -0.2414,0 -0.64461,0.22729 -0.89601,0.50508 -0.25139,0.27779 -0.71032,0.50508 -1.01984,0.50508 -0.35036,0 -0.61259,0.19061 -0.69483,0.50507 -0.1114,0.42602 -0.34446,0.50508 -1.48893,0.50508 -1.06715,0 -1.43458,0.10784 -1.72089,0.50507 -0.3246,0.45036 -0.65374,0.50508 -3.03794,0.50508 -2.85912,0 -3.09675,0.0841 -3.90404,1.38203 -0.50435,0.81085 -0.84702,4.74091 -0.87331,10.01587 -0.0123,2.46703 -0.0544,2.69606 -0.51847,2.81741 -0.38687,0.10117 -0.50507,0.34446 -0.50507,1.0396 0,0.61578 -0.11533,0.90753 -0.35874,0.90753 -0.19731,0 -0.4351,0.34764 -0.52842,0.77254 -0.0933,0.4249 -0.55693,1.15978 -1.03022,1.63308 -0.4733,0.4733 -0.86054,0.93942 -0.86054,1.03584 0,0.23376 -1.54986,1.6093 -1.81325,1.6093 -0.11388,0 -0.20706,0.17047 -0.20706,0.37881 0,0.20834 -0.1811,0.37881 -0.40245,0.37881 -0.22134,0 -0.46188,0.22728 -0.53453,0.50507 -0.0855,0.32686 -0.34446,0.50508 -0.73397,0.50508 -0.33104,0 -0.82918,0.22728 -1.10697,0.50508 -0.27779,0.27779 -0.73236,0.50507 -1.01015,0.50507 -0.27779,0 -0.71822,0.21315 -0.97873,0.47366 -0.33999,0.33999 -0.95293,0.50417 -2.17194,0.58179 -1.25588,0.08 -1.76073,0.21973 -1.93801,0.5365 -0.20978,0.37486 -0.74277,0.42836 -4.26778,0.42836 -3.69134,0 -4.07028,-0.0422 -4.53314,-0.50508 -0.41447,-0.41447 -0.84179,-0.50507 -2.38209,-0.50507 -1.65523,0 -1.89596,0.0597 -2.03732,0.50507 -0.15377,0.48447 -0.3821,0.50508 -5.5965,0.50508 -5.22381,0 -5.44136,-0.0197 -5.56828,-0.50508 -0.11546,-0.44151 -0.3429,-0.50464 -1.80726,-0.50163 -2.0165,0.004 -2.8116,0.19005 -2.8116,0.65735 0,0.2847 -0.8535,0.34936 -4.61121,0.34936 -4.3377,0 -4.62991,-0.03 -4.92663,-0.50508 z m 6.613,-7.72943 c 0.2197,-0.0843 0.39946,-0.31159 0.39946,-0.50508 0,-0.26927 0.44217,-0.35178 1.88515,-0.35178 1.62669,0 1.92221,-0.0693 2.15546,-0.50508 0.14867,-0.27779 0.48034,-0.50508 0.73705,-0.50508 0.2567,0 0.52617,0.22729 0.59881,0.50508 0.11736,0.44877 0.34447,0.50508 2.03721,0.50508 1.55192,0 1.95094,0.0819 2.15223,0.44194 0.20232,0.36186 0.682,0.45769 2.64719,0.52887 2.21262,0.0801 2.42591,0.0456 2.7304,-0.44194 0.28659,-0.45891 0.57593,-0.52887 2.18722,-0.52887 1.64454,0 1.87203,-0.0578 1.98901,-0.50508 0.0831,-0.31768 0.34446,-0.50508 0.70451,-0.50508 0.36006,0 0.62144,0.1874 0.70452,0.50508 0.12791,0.4891 0.34447,0.50508 6.84799,0.50508 6.37918,0 6.74122,-0.0253 7.22097,-0.50508 0.2778,-0.27779 0.67911,-0.50508 0.89181,-0.50508 0.21271,0 0.45933,-0.19887 0.54807,-0.44194 0.0887,-0.24307 0.36927,-0.71296 0.62342,-1.04421 0.25415,-0.33125 0.46209,-0.80097 0.46209,-1.04383 0,-0.24286 0.22728,-0.501 0.50507,-0.57365 0.48669,-0.12727 0.50508,-0.34446 0.50508,-5.9641 0,-5.4953 0.0292,-5.86118 0.50508,-6.33709 0.35008,-0.35009 0.50507,-0.8418 0.50507,-1.60236 0,-0.77656 0.14763,-1.23088 0.50508,-1.55437 0.27779,-0.2514 0.50507,-0.65351 0.50507,-0.89357 0,-0.24007 0.22729,-0.49592 0.50508,-0.56856 0.27779,-0.0727 0.50508,-0.31319 0.50508,-0.53453 0,-0.22135 0.1811,-0.40245 0.40245,-0.40245 0.22134,0 0.46188,-0.22729 0.53453,-0.50508 0.0731,-0.27954 0.34446,-0.50508 0.6077,-0.50508 0.26159,0 0.70291,-0.22728 0.9807,-0.50507 0.39284,-0.39284 0.84179,-0.50508 2.0203,-0.50508 1.17851,0 1.62747,-0.11224 2.02031,-0.50507 0.43368,-0.43369 0.84179,-0.50508 2.88717,-0.50508 2.1603,0 2.39702,-0.047 2.5424,-0.50508 0.12038,-0.37928 0.3821,-0.50507 1.05081,-0.50507 0.67812,0 0.92201,-0.12046 1.02259,-0.50508 0.0992,-0.37953 0.34447,-0.50508 0.98651,-0.50508 0.68607,0 0.85443,-0.0995 0.85443,-0.50507 0,-0.33085 0.16836,-0.50508 0.48806,-0.50508 0.26843,0 0.56019,-0.22728 0.64836,-0.50507 0.0882,-0.2778 0.33375,-0.50508 0.54574,-0.50508 0.21198,0 0.44486,-0.22728 0.51751,-0.50508 0.0726,-0.27779 0.28929,-0.50507 0.48143,-0.50507 0.19215,0 0.34936,-0.22729 0.34936,-0.50508 0,-0.33672 0.16836,-0.50508 0.50507,-0.50508 0.41138,0 0.50508,-0.16835 0.50508,-0.90752 0,-0.69514 0.1182,-0.93844 0.50508,-1.03961 0.38291,-0.10013 0.50507,-0.34446 0.50507,-1.01015 0,-0.66569 0.12217,-0.91002 0.50508,-1.01015 0.46158,-0.12071 0.50507,-0.34447 0.50507,-2.59856 0,-2.25408 0.0435,-2.47784 0.50508,-2.59855 0.488,-0.12762 0.50508,-0.34447 0.50508,-6.41305 0,-5.96846 0.0251,-6.30249 0.50507,-6.71343 0.40907,-0.35025 0.50508,-0.74498 0.50508,-2.07643 0,-1.47561 0.0517,-1.64397 0.50508,-1.64397 0.41837,0 0.50507,-0.16836 0.50507,-0.9807 0,-0.76831 0.10938,-1.0093 0.50508,-1.11278 0.3718,-0.0972 0.50507,-0.34447 0.50507,-0.93698 0,-0.59252 0.13328,-0.83975 0.50508,-0.93698 0.32622,-0.0853 0.50508,-0.34447 0.50508,-0.73183 0,-0.32987 0.22728,-0.7417 0.50507,-0.91518 0.27779,-0.17348 0.50508,-0.51537 0.50508,-0.75975 0,-0.24439 0.22728,-0.67162 0.50508,-0.94941 0.27779,-0.27779 0.50507,-0.72836 0.50507,-1.00127 0,-0.2729 0.22729,-0.61783 0.50508,-0.7665 0.39845,-0.21324 0.50507,-0.52877 0.50507,-1.49466 0,-1.01196 0.0876,-1.24726 0.50508,-1.35643 0.38688,-0.10117 0.50508,-0.34446 0.50508,-1.0396 0,-0.57081 0.1874,-1.09493 0.50507,-1.41261 0.44652,-0.44651 0.50508,-0.84179 0.50508,-3.40926 0,-2.56747 0.0586,-2.96275 0.50508,-3.40927 0.47514,-0.47514 0.50507,-0.84179 0.50507,-6.18718 0,-5.34539 -0.0299,-5.71204 -0.50507,-6.18719 -0.45523,-0.45522 -0.50508,-0.84179 -0.50508,-3.91681 0,-3.09922 -0.0463,-3.45135 -0.50508,-3.84419 -0.35612,-0.30492 -0.50507,-0.74498 -0.50507,-1.49211 0,-1.30142 -0.19736,-1.85856 -0.65837,-1.85856 -0.25876,0 -0.35179,-0.37354 -0.35179,-1.41261 0,-1.20021 -0.0759,-1.43245 -0.50507,-1.54468 -0.35733,-0.0934 -0.50508,-0.34446 -0.50508,-0.8581 0,-0.45252 -0.19027,-0.84484 -0.50507,-1.04144 -0.2778,-0.17349 -0.50508,-0.51538 -0.50508,-0.75976 0,-0.24438 -0.22729,-0.67161 -0.50508,-0.9494 -0.27779,-0.2778 -0.50507,-0.73237 -0.50507,-1.01016 0,-0.33671 -0.16836,-0.50507 -0.50508,-0.50507 -0.4209,0 -0.50508,-0.16836 -0.50508,-1.01016 0,-0.84179 -0.0842,-1.01015 -0.50507,-1.01015 -0.33672,0 -0.50508,-0.16836 -0.50508,-0.50507 0,-0.33672 -0.16836,-0.50508 -0.50507,-0.50508 -0.394,0 -0.50508,-0.16836 -0.50508,-0.76554 0,-0.46405 -0.1568,-0.82571 -0.39815,-0.91833 -0.21899,-0.084 -0.50028,-0.42139 -0.6251,-0.74968 -0.12482,-0.3283 -0.40022,-0.59691 -0.612,-0.59691 -0.2167,0 -0.38506,-0.22083 -0.38506,-0.50507 0,-0.33672 -0.16836,-0.50508 -0.50507,-0.50508 -0.33672,0 -0.50508,-0.16836 -0.50508,-0.50508 0,-0.33671 -0.16836,-0.50507 -0.50507,-0.50507 -0.33672,0 -0.50508,-0.16836 -0.50508,-0.50508 0,-0.33672 -0.16836,-0.50508 -0.50508,-0.50508 -0.33671,0 -0.50507,-0.16836 -0.50507,-0.50507 0,-0.27779 -0.16281,-0.50508 -0.36179,-0.50508 -0.19899,0 -0.43393,-0.22728 -0.5221,-0.50508 -0.0882,-0.27779 -0.31545,-0.50507 -0.50507,-0.50507 -0.18963,0 -0.41691,-0.22729 -0.50508,-0.50508 -0.0882,-0.27779 -0.31545,-0.50507 -0.50508,-0.50507 -0.18962,0 -0.4169,-0.22729 -0.50507,-0.50508 -0.0882,-0.27779 -0.31747,-0.50508 -0.50955,-0.50508 -0.19208,0 -0.44012,-0.14238 -0.55119,-0.3164 -0.27661,-0.43337 -2.17916,-1.7039 -2.5515,-1.7039 -0.16616,0 -0.3021,-0.15222 -0.3021,-0.33827 0,-0.18605 -0.28411,-0.46772 -0.63135,-0.62593 -0.34724,-0.15822 -0.63134,-0.39859 -0.63134,-0.53417 0,-0.13558 -0.39775,-0.32113 -0.88389,-0.41233 -0.48613,-0.0912 -0.8883,-0.29522 -0.89369,-0.45338 -0.01,-0.28282 -2.14597,-1.43678 -2.64423,-1.42832 -0.14021,0.002 -0.39687,-0.22296 -0.57035,-0.50075 -0.1966,-0.31481 -0.58892,-0.50508 -1.04144,-0.50508 -0.51364,0 -0.76466,-0.14775 -0.85811,-0.50507 -0.10387,-0.39723 -0.34446,-0.50508 -1.12673,-0.50508 -0.67393,0 -1.14204,-0.16286 -1.45174,-0.50507 -0.30612,-0.33826 -0.77781,-0.50508 -1.4281,-0.50508 -0.80266,0 -0.97102,-0.0876 -0.97102,-0.50508 0,-0.41594 -0.16836,-0.50507 -0.95402,-0.50507 -0.64152,0 -1.09569,-0.16545 -1.38649,-0.50508 -0.33471,-0.39091 -0.74497,-0.50508 -1.81501,-0.50508 -1.12408,0 -1.43308,-0.0944 -1.65285,-0.50507 -0.22301,-0.41669 -0.52877,-0.50508 -1.7472,-0.50508 -1.2645,0 -1.49589,-0.0726 -1.60897,-0.50507 -0.11954,-0.4571 -0.34447,-0.50508 -2.36782,-0.50508 -1.96224,0 -2.27433,-0.0618 -2.55117,-0.50508 -0.29229,-0.46804 -0.58892,-0.50507 -4.04523,-0.50507 -3.41729,0 -3.76604,-0.0423 -4.16226,-0.50508 -0.40638,-0.47462 -0.74498,-0.50508 -5.61444,-0.50508 -4.86946,0 -5.20806,0.0305 -5.61444,0.50508 -0.39615,0.46268 -0.74497,0.50508 -4.15552,0.50508 -3.4646,0 -3.74183,0.0351 -3.99337,0.50507 -0.23759,0.44395 -0.52877,0.50508 -2.40586,0.50508 -1.86205,0 -2.17594,0.0647 -2.45097,0.50508 -0.25489,0.40813 -0.58893,0.50507 -1.74045,0.50507 -1.21264,0 -1.44472,0.0753 -1.55711,0.50508 -0.11222,0.42914 -0.34447,0.50507 -1.54468,0.50507 -1.24425,0 -1.41261,0.0602 -1.41261,0.50508 0,0.44488 -0.16836,0.50508 -1.4126,0.50508 -1.20022,0 -1.43246,0.0759 -1.54468,0.50507 -0.10348,0.3957 -0.34447,0.50508 -1.11278,0.50508 -0.81234,0 -0.9807,0.0867 -0.9807,0.50508 0,0.43761 -0.16836,0.50507 -1.26055,0.50507 -0.98705,0 -1.32899,0.10959 -1.57597,0.50508 -0.17349,0.27779 -0.57331,0.50507 -0.8885,0.50507 -0.31519,0 -0.76768,0.22729 -1.00553,0.50508 -0.23785,0.27779 -0.63449,0.50508 -0.88141,0.50508 -0.24693,0 -0.44895,0.16047 -0.44895,0.35661 0,0.21924 -0.38912,0.42235 -1.01016,0.52727 -0.57468,0.0971 -1.01015,0.3126 -1.01015,0.4999 0,0.18107 -0.31159,0.40743 -0.69241,0.50301 -0.38083,0.0956 -0.86381,0.32992 -1.07329,0.52074 -0.20948,0.19082 -0.63657,0.5795 -0.94908,0.86374 -0.31252,0.28424 -0.67786,0.5168 -0.81187,0.5168 -0.13401,0 -0.36035,0.21805 -0.50297,0.48455 -0.14263,0.2665 -0.6012,0.55964 -1.01904,0.65141 -0.41785,0.0918 -0.75972,0.32829 -0.75972,0.5256 0,0.19731 -0.1695,0.35874 -0.37666,0.35874 -0.20717,0 -0.51861,0.22729 -0.6921,0.50508 -0.17348,0.27779 -0.45089,0.50508 -0.61646,0.50508 -0.16558,0 -0.37318,0.22728 -0.46135,0.50507 -0.0882,0.27779 -0.32311,0.50508 -0.52209,0.50508 -0.19899,0 -0.36179,0.1811 -0.36179,0.40245 0,0.22135 -0.22729,0.46188 -0.50508,0.53453 -0.27954,0.0731 -0.50508,0.34447 -0.50508,0.6077 0,0.30726 -0.17878,0.47562 -0.50507,0.47562 -0.33672,0 -0.50508,0.16836 -0.50508,0.50508 0,0.33672 -0.16836,0.50508 -0.50508,0.50508 -0.33671,0 -0.50507,0.16836 -0.50507,0.50507 0,0.33672 -0.16836,0.50508 -0.50508,0.50508 -0.3137,0 -0.50507,0.16836 -0.50507,0.44433 0,0.24438 -0.22729,0.58627 -0.50508,0.75975 -0.32223,0.20124 -0.50508,0.58893 -0.50508,1.0709 0,0.58712 -0.11255,0.75548 -0.50507,0.75548 -0.33672,0 -0.50508,0.16836 -0.50508,0.50507 0,0.33672 -0.16836,0.50508 -0.50508,0.50508 -0.32629,0 -0.50507,0.16836 -0.50507,0.47562 0,0.26324 -0.22554,0.5346 -0.50508,0.6077 -0.38687,0.10117 -0.50507,0.34447 -0.50507,1.03961 0,0.73917 -0.0937,0.90753 -0.50508,0.90753 -0.4209,0 -0.50508,0.16836 -0.50508,1.01015 0,0.84179 -0.0842,1.01015 -0.50507,1.01015 -0.4209,0 -0.50508,0.16836 -0.50508,1.01015 0,0.8418 -0.0842,1.01016 -0.50508,1.01016 -0.42089,0 -0.50507,0.16836 -0.50507,1.01015 0,0.84179 -0.0842,1.01015 -0.50508,1.01015 -0.44488,0 -0.50507,0.16836 -0.50507,1.4126 0,1.20022 -0.0759,1.43246 -0.50508,1.54469 -0.42517,0.11118 -0.50508,0.34446 -0.50508,1.47456 0,1.1207 -0.0834,1.36898 -0.50507,1.5028 -0.47659,0.15126 -0.50508,0.3821 -0.50508,4.09292 0,3.45369 -0.0538,3.97203 -0.44194,4.25628 -0.39226,0.28728 -0.43416,0.74469 -0.37273,4.06845 0.0545,2.94682 0.14865,3.80453 0.44195,4.02517 0.30245,0.22752 0.37272,1.07306 0.37272,4.48502 0,3.89213 0.0375,4.23679 0.50508,4.63711 0.38871,0.33282 0.50507,0.74497 0.50507,1.78893 0,1.1441 0.0791,1.37716 0.50508,1.48856 0.39569,0.10348 0.50508,0.34447 0.50508,1.11278 0,0.64398 0.17341,1.15411 0.50507,1.48578 0.27779,0.27779 0.50508,0.73139 0.50508,1.00801 0,0.27661 0.22728,0.64488 0.50507,0.81836 0.2778,0.17348 0.50508,0.58283 0.50508,0.90967 0,0.38185 0.18052,0.64144 0.50508,0.72632 0.37504,0.0981 0.50507,0.34446 0.50507,0.95705 0,0.61259 0.13003,0.85898 0.50508,0.95706 0.3718,0.0972 0.50508,0.34446 0.50508,0.93698 0,0.59251 0.13327,0.83975 0.50507,0.93698 0.39231,0.10259 0.50508,0.34447 0.50508,1.08332 0,0.73886 0.11277,0.98074 0.50507,1.08333 0.42602,0.1114 0.50508,0.34446 0.50508,1.48893 0,1.06715 0.10784,1.43458 0.50508,1.72089 0.4643,0.33466 0.50507,0.65375 0.50507,3.95308 0,3.36724 0.0312,3.59894 0.50508,3.74934 0.48427,0.1537 0.50508,0.38209 0.50508,5.5434 0,5.17071 0.0199,5.38831 0.50507,5.51518 0.41244,0.10785 0.50508,0.34446 0.50508,1.29 0,0.88443 0.1193,1.23243 0.50507,1.47335 0.2778,0.17348 0.50508,0.51538 0.50508,0.75976 0,0.24438 0.1811,0.44432 0.40245,0.44432 0.22135,0 0.46189,0.22729 0.53453,0.50508 0.0726,0.27779 0.28163,0.50508 0.46442,0.50508 0.18278,0 0.40447,0.22728 0.49264,0.50507 0.0882,0.2778 0.31545,0.50508 0.50507,0.50508 0.18963,0 0.41691,0.22728 0.50508,0.50508 0.0882,0.27779 0.37993,0.50507 0.64836,0.50507 0.3197,0 0.48806,0.17423 0.48806,0.50508 0,0.40698 0.16836,0.50507 0.86687,0.50507 0.64507,0 0.90788,0.12923 1.02717,0.50508 0.13382,0.42163 0.38209,0.50508 1.50279,0.50508 1.1301,0 1.36338,0.0799 1.47457,0.50507 0.11745,0.44914 0.34446,0.50508 2.04976,0.50508 1.58096,0 2.00636,0.0887 2.42275,0.50508 0.4209,0.42089 0.8418,0.50507 2.52538,0.50507 1.85195,0 2.02031,0.0421 2.02031,0.50508 0,0.33672 0.16836,0.50507 0.50507,0.50507 0.29379,0 0.50508,0.16836 0.50508,0.40245 0,0.22135 0.21678,0.45914 0.48173,0.52843 0.26495,0.0693 0.53842,0.34275 0.6077,0.6077 0.0693,0.26495 0.30708,0.48173 0.52843,0.48173 0.23409,0 0.40245,0.21129 0.40245,0.50508 0,0.33671 0.16836,0.50507 0.50507,0.50507 0.43897,0 0.50508,0.16836 0.50508,1.28634 0,1.07394 0.0834,1.30814 0.50507,1.41841 0.488,0.12761 0.50508,0.34447 0.50508,6.41394 0,6.00836 0.022,6.29559 0.50508,6.59728 0.27779,0.17349 0.50507,0.48804 0.50507,0.69901 0,0.21097 0.22729,0.52553 0.50508,0.69901 0.27779,0.17348 0.50508,0.51902 0.50508,0.76785 0,0.65394 0.50193,1.05852 1.31319,1.05852 0.53875,0 0.70711,0.12026 0.70711,0.50508 0,0.46298 0.16836,0.50508 2.02031,0.50508 1.57464,0 2.0203,0.0789 2.0203,0.35776 0,0.19677 0.14205,0.41508 0.31567,0.48514 0.45606,0.18402 4.36814,0.1953 4.84071,0.014 z"
         id="path977"
         transform="scale(0.26458333)" />
      <path
         style="fill:#b3b3b3;fill-opacity:1;stroke:#b3b3b3;stroke-width:4.4863;stroke-linecap:square;stroke-linejoin:round;stroke-miterlimit:4;stroke-dasharray:none;stroke-opacity:1;paint-order:stroke fill markers"
         d="m 236.57422,289.76321 c 0,-0.40717 -0.53783,-0.65836 -1.40961,-0.65836 -0.37448,0 -0.61069,-0.14652 -0.61069,-0.37881 0,-0.21045 -0.22448,-0.3788 -0.50508,-0.3788 -0.33672,0 -0.50508,-0.16836 -0.50508,-0.50508 0,-0.33672 -0.16836,-0.50508 -0.50507,-0.50508 -0.32629,0 -0.50508,-0.16836 -0.50508,-0.47562 0,-0.26324 -0.22554,-0.5346 -0.50508,-0.6077 -0.48821,-0.12767 -0.50507,-0.34447 -0.50507,-6.49282 0,-6.14835 -0.0169,-6.36515 -0.50508,-6.49282 -0.39569,-0.10348 -0.50507,-0.34447 -0.50507,-1.11278 v -0.9807 h 2.14657 2.14657 v 6.84217 c 0,6.62979 0.0157,6.84628 0.50508,6.97426 0.27954,0.0731 0.50508,0.34446 0.50508,0.6077 0,0.30726 0.17878,0.47562 0.50507,0.47562 0.27779,0 0.73236,0.22729 1.01016,0.50508 0.41429,0.41429 0.84179,0.50508 2.37845,0.50508 2.09387,0 2.67231,-0.14251 2.67231,-0.65837 0,-0.2616 0.38844,-0.35179 1.51523,-0.35179 1.15205,0 1.51523,-0.0874 1.51523,-0.36448 0,-0.20047 0.25569,-0.54344 0.56821,-0.76216 0.56135,-0.39287 0.56915,-0.47835 0.64663,-7.08539 l 0.0784,-6.68772 h 1.49994 1.49994 v 6.55616 c 0,6.03393 0.037,6.59214 0.46465,7.00793 0.25555,0.24848 0.53609,0.65065 0.62342,0.89372 0.0873,0.24307 0.39438,0.44194 0.68233,0.44194 0.28796,0 0.76753,0.22729 1.0657,0.50508 0.4461,0.4156 0.89121,0.50508 2.51268,0.50508 1.69705,0 2.01433,-0.0701 2.28597,-0.50508 0.25162,-0.40289 0.58893,-0.50508 1.66729,-0.50508 1.11762,0 1.37368,-0.0835 1.47782,-0.48173 0.0693,-0.26495 0.34276,-0.53841 0.60771,-0.6077 0.45899,-0.12003 0.48173,-0.4489 0.48173,-6.96815 v -6.84217 h 1.49922 1.49922 l 0.0791,6.28745 c 0.0688,5.46268 0.13481,6.3489 0.50351,6.75586 0.2334,0.25762 0.5431,0.78071 0.68823,1.16242 0.18236,0.47966 0.44346,0.69402 0.84533,0.69402 0.31981,0 0.77608,0.22729 1.01393,0.50508 0.36433,0.4255 0.74498,0.50508 2.4161,0.50508 1.66292,0 2.05754,-0.0817 2.44072,-0.50508 0.33728,-0.37269 0.77781,-0.50508 1.68064,-0.50508 1.05519,0 1.22355,-0.0695 1.22355,-0.50507 0,-0.32445 0.16836,-0.50508 0.47075,-0.50508 0.66921,0 0.79194,-1.25788 0.79194,-8.11647 v -5.77313 h 2.02031 2.0203 v 1.48578 c 0,1.27339 -0.0722,1.50465 -0.50507,1.61785 -0.48676,0.12729 -0.50508,0.34447 -0.50508,5.98775 0,5.64327 -0.0183,5.86045 -0.50507,5.98774 -0.27954,0.0731 -0.50508,0.34446 -0.50508,0.6077 0,0.30726 -0.17879,0.47562 -0.50508,0.47562 -0.33671,0 -0.50507,0.16836 -0.50507,0.50508 0,0.33672 -0.16836,0.50508 -0.50508,0.50508 -0.2806,0 -0.50508,0.16835 -0.50508,0.3788 0,0.23229 -0.23621,0.37881 -0.61069,0.37881 -0.87178,0 -1.40961,0.25119 -1.40961,0.65836 0,0.28452 -0.70022,0.35179 -3.6618,0.35179 -3.00458,0 -3.66181,-0.0647 -3.66181,-0.36063 0,-0.24702 -0.43047,-0.41442 -1.36637,-0.53136 -1.04354,-0.13038 -1.39596,-0.28384 -1.49159,-0.64951 -0.17928,-0.68557 -2.0038,-0.6678 -2.69788,0.0263 -0.27779,0.2778 -0.81759,0.50663 -1.19955,0.50853 -1.08137,0.005 -1.8309,0.27447 -1.8309,0.65735 0,0.28054 -0.68534,0.34935 -3.47941,0.34935 -3.1669,0 -3.51826,-0.0454 -3.91187,-0.50507 -0.23786,-0.2778 -0.71768,-0.50508 -1.06628,-0.50508 -0.3734,0 -0.63382,-0.14454 -0.63382,-0.35179 0,-0.42237 -0.54313,-0.65836 -1.51522,-0.65836 -0.94605,0 -1.51523,0.23359 -1.51523,0.62184 0,0.20517 -0.59531,0.37077 -1.70464,0.47419 -1.07978,0.10066 -1.8074,0.29919 -1.98501,0.54159 -0.3958,0.54023 -6.41188,0.56921 -6.41188,0.0309 z"
         id="path979"
         transform="scale(0.26458333)" />
    </g>
  </g>
</svg>
