<?xml version="1.0" encoding="UTF-8" standalone="no"?>
<svg
   xmlns:dc="http://purl.org/dc/elements/1.1/"
   xmlns:cc="http://creativecommons.org/ns#"
   xmlns:rdf="http://www.w3.org/1999/02/22-rdf-syntax-ns#"
   xmlns:svg="http://www.w3.org/2000/svg"
   xmlns="http://www.w3.org/2000/svg"
   xmlns:sodipodi="http://sodipodi.sourceforge.net/DTD/sodipodi-0.dtd"
   xmlns:inkscape="http://www.inkscape.org/namespaces/inkscape"
   width="50"
   height="50"
   viewBox="0 0 13.229166 13.229167"
   version="1.1"
   id="svg8"
   inkscape:version="1.0 (4035a4fb49, 2020-05-01)"
   sodipodi:docname="snowy.svg">
  <defs
     id="defs2" />
  <sodipodi:namedview
     id="base"
     pagecolor="#ffffff"
     bordercolor="#666666"
     borderopacity="1.0"
     inkscape:pageopacity="0.0"
     inkscape:pageshadow="2"
     inkscape:zoom="5.6"
     inkscape:cx="37.92762"
     inkscape:cy="29.984623"
     inkscape:document-units="mm"
     inkscape:current-layer="layer1"
     inkscape:document-rotation="0"
     showgrid="true"
     units="px"
     inkscape:window-width="1920"
     inkscape:window-height="986"
     inkscape:window-x="-11"
     inkscape:window-y="-11"
     inkscape:window-maximized="1">
    <inkscape:grid
       type="xygrid"
       id="grid10" />
  </sodipodi:namedview>
  <metadata
     id="metadata5">
    <rdf:RDF>
      <cc:Work
         rdf:about="">
        <dc:format>image/svg+xml</dc:format>
        <dc:type
           rdf:resource="http://purl.org/dc/dcmitype/StillImage" />
        <dc:title />
      </cc:Work>
    </rdf:RDF>
  </metadata>
  <g
     inkscape:label="Warstwa 1"
     inkscape:groupmode="layer"
     id="layer1">
    <g
       transform="matrix(0.31582329,0,0,0.31582329,-35.321408,-32.824931)"
       id="g1195">
      <path
         style="fill:#f9f9f9;fill-opacity:1;stroke:#f9f9f9;stroke-width:5.62016;stroke-linecap:square;stroke-linejoin:round;stroke-miterlimit:4;stroke-dasharray:none;stroke-opacity:1;paint-order:stroke fill markers"
         d="m 459.16505,501.2319 c -0.1118,-0.42752 -0.34446,-0.50508 -1.51523,-0.50508 -1.17076,0 -1.40343,-0.0775 -1.51522,-0.50507 -0.10117,-0.38688 -0.34447,-0.50508 -1.03961,-0.50508 -0.73917,0 -0.90753,-0.0937 -0.90753,-0.50507 0,-0.37039 -0.16836,-0.50508 -0.63134,-0.50508 -0.3841,0 -0.63135,-0.14387 -0.63135,-0.36737 0,-0.2199 -0.3548,-0.43392 -0.88388,-0.53318 -0.51737,-0.0971 -0.88388,-0.31453 -0.88388,-0.52444 0,-0.19725 -0.19888,-0.43281 -0.44195,-0.52348 -0.24306,-0.0907 -0.59044,-0.3712 -0.77193,-0.62342 -0.19031,-0.26446 -0.64463,-0.45857 -1.07329,-0.45857 -0.57493,0 -0.74329,-0.1144 -0.74329,-0.50507 0,-0.33672 -0.16836,-0.50508 -0.50508,-0.50508 -0.336,0 -0.50508,-0.16836 -0.50508,-0.50294 0,-0.27661 -0.22728,-0.64487 -0.50507,-0.81836 -0.27779,-0.17348 -0.50508,-0.52601 -0.50508,-0.7834 0,-0.25738 -0.22728,-0.5274 -0.50507,-0.60005 -0.29022,-0.0759 -0.50508,-0.34446 -0.50508,-0.63134 0,-0.28688 -0.21486,-0.55546 -0.50508,-0.63135 -0.37504,-0.0981 -0.50507,-0.34447 -0.50507,-0.95705 0,-0.61259 -0.13003,-0.85898 -0.50508,-0.95706 -0.3718,-0.0972 -0.50508,-0.34447 -0.50508,-0.93698 0,-0.59252 -0.13327,-0.83975 -0.50507,-0.93698 -0.39376,-0.10297 -0.50508,-0.34447 -0.50508,-1.09576 0,-0.74189 -0.11624,-1.00058 -0.50507,-1.12399 -0.46485,-0.14753 -0.50508,-0.3821 -0.50508,-2.94485 0,-2.57216 -0.0385,-2.79461 -0.50508,-2.91662 -0.43141,-0.11282 -0.50507,-0.34447 -0.50507,-1.5884 0,-1.24394 0.0737,-1.47559 0.50507,-1.5884 0.4526,-0.11836 0.50508,-0.34447 0.50508,-2.17603 0,-1.57872 0.0801,-2.04395 0.35179,-2.04395 0.45247,0 0.65836,-0.55398 0.65836,-1.7714 0,-0.75069 0.11519,-1.00904 0.50508,-1.13279 0.37585,-0.11929 0.50507,-0.3821 0.50507,-1.02717 0,-0.6985 0.0981,-0.86686 0.50508,-0.86686 0.4209,0 0.50508,-0.16836 0.50508,-1.01016 0,-0.84179 0.0842,-1.01015 0.50507,-1.01015 0.33672,0 0.50508,-0.16836 0.50508,-0.50508 0,-0.28519 0.16836,-0.50507 0.38673,-0.50507 0.21271,0 0.45972,-0.19019 0.54892,-0.42265 0.0892,-0.23246 0.36974,-0.63021 0.62342,-0.88389 0.25368,-0.25367 0.46123,-0.74533 0.46123,-1.09257 0,-0.46299 0.13469,-0.63135 0.50508,-0.63135 0.33672,0 0.50508,-0.16836 0.50508,-0.50508 0,-0.33671 0.16836,-0.50507 0.50507,-0.50507 0.2778,0 0.50508,-0.14996 0.50508,-0.33323 0,-0.30807 0.54695,-0.65413 2.33598,-1.47799 0.38196,-0.1759 0.69448,-0.45084 0.69448,-0.61098 0,-0.16014 0.45457,-0.36386 1.01015,-0.4527 0.65363,-0.10452 1.01015,-0.29417 1.01015,-0.53735 0,-0.22913 0.23837,-0.37582 0.61069,-0.37582 0.87179,0 1.40962,-0.2512 1.40962,-0.65837 0,-0.25371 0.35145,-0.35179 1.26055,-0.35179 0.98705,0 1.32899,-0.10958 1.57597,-0.50507 0.30074,-0.48156 0.58893,-0.50508 6.18933,-0.50508 4.85238,0 5.8739,0.0612 5.8739,0.35179 0,0.42513 0.54411,0.65836 1.53588,0.65836 0.47277,0 0.73696,0.13026 0.73696,0.36334 0,0.44536 1.87808,0.77365 3.00717,0.52566 0.7656,-0.16815 0.7809,-0.20081 0.7809,-1.66668 0,-1.10963 0.0907,-1.49516 0.35179,-1.49516 0.4479,0 0.65837,-0.5523 0.65837,-1.72767 0,-0.65525 0.14873,-1.02164 0.50507,-1.24418 0.30624,-0.19125 0.50508,-0.58893 0.50508,-1.01015 0,-0.42123 0.19884,-0.81891 0.50507,-1.01015 0.32223,-0.20124 0.50508,-0.58893 0.50508,-1.0709 0,-0.47739 0.12949,-0.75548 0.35179,-0.75548 0.40256,0 0.65836,-0.53624 0.65836,-1.38016 0,-0.36885 0.18456,-0.6295 0.50508,-0.71332 0.27779,-0.0726 0.50508,-0.31318 0.50508,-0.53453 0,-0.22134 0.1628,-0.40245 0.36178,-0.40245 0.19899,0 0.43749,-0.2385 0.53001,-0.53 0.0925,-0.29151 0.38429,-0.74608 0.64837,-1.01016 0.26407,-0.26408 0.48014,-0.69417 0.48014,-0.95576 0,-0.26324 0.22554,-0.53461 0.50508,-0.60771 0.27779,-0.0726 0.50507,-0.29993 0.50507,-0.50507 0,-0.20515 0.22729,-0.43244 0.50508,-0.50508 0.27779,-0.0726 0.50508,-0.29993 0.50508,-0.50508 0,-0.20514 0.22728,-0.43243 0.50507,-0.50507 0.27779,-0.0727 0.50508,-0.31319 0.50508,-0.53453 0,-0.22135 0.1695,-0.40245 0.37667,-0.40245 0.20716,0 0.5186,-0.22729 0.69209,-0.50508 0.19163,-0.30685 0.58892,-0.50507 1.01229,-0.50507 0.52851,0 0.69687,-0.12203 0.69687,-0.50508 0,-0.33672 0.16836,-0.50508 0.50507,-0.50508 0.27882,0 0.50508,-0.16836 0.50508,-0.37582 0,-0.24318 0.35652,-0.43283 1.01015,-0.53735 0.57516,-0.092 1.01016,-0.30232 1.01016,-0.48848 0,-0.17982 0.39774,-0.45821 0.88388,-0.61865 0.48613,-0.16044 0.88388,-0.38655 0.88388,-0.50247 0,-0.11591 0.46248,-0.28889 1.02774,-0.38439 0.56525,-0.0955 1.08555,-0.32428 1.1562,-0.50842 0.0707,-0.18413 0.57414,-0.41007 1.11884,-0.5021 0.60558,-0.10231 0.99037,-0.30588 0.99037,-0.52393 0,-0.25278 0.32169,-0.35661 1.10485,-0.35661 1.60769,0 2.68322,-0.26572 2.68322,-0.66291 0,-0.27473 0.61963,-0.34796 2.96733,-0.35069 3.34416,-0.004 4.02894,-0.12114 4.18719,-0.71695 0.10117,-0.38091 0.11297,-0.38121 0.13979,-0.004 0.0416,0.58581 0.77519,0.71657 4.04207,0.72049 2.40969,0.003 2.92713,0.0729 3.18933,0.43148 0.22274,0.30462 0.79504,0.45872 1.98501,0.53449 1.13219,0.0721 1.67203,0.21055 1.67203,0.42884 0,0.42012 0.57516,0.62894 1.7323,0.62894 0.62086,0 1.07816,0.16911 1.36583,0.50508 0.23785,0.27779 0.59187,0.50507 0.78672,0.50507 0.19484,0 0.41967,0.17047 0.49962,0.37881 0.0799,0.20834 0.37733,0.37881 0.66084,0.37881 0.28351,0 0.71008,0.22728 0.94793,0.50507 0.24608,0.28741 0.74497,0.50508 1.15759,0.50508 0.51275,0 0.76382,0.14793 0.85722,0.50508 0.0726,0.27779 0.33285,0.50507 0.57824,0.50507 0.2454,0 0.50561,0.22729 0.57825,0.50508 0.0726,0.27779 0.31319,0.50508 0.53453,0.50508 0.22135,0 0.62974,0.22728 0.90753,0.50507 0.27779,0.27779 0.73236,0.50508 1.01015,0.50508 0.33672,0 0.50508,0.16836 0.50508,0.50507 0,0.33672 0.16836,0.50508 0.50508,0.50508 0.33671,0 0.50507,0.16836 0.50507,0.50508 0,0.33671 0.16836,0.50507 0.50508,0.50507 0.33671,0 0.50507,0.16836 0.50507,0.50508 0,0.33672 0.16836,0.50508 0.50508,0.50508 0.3137,0 0.50508,0.16835 0.50508,0.44432 0,0.24439 0.22728,0.58628 0.50507,0.75976 0.27943,0.17451 0.50508,0.58892 0.50508,0.92761 0,0.3904 0.18299,0.67027 0.50508,0.77249 0.27779,0.0882 0.50507,0.37994 0.50507,0.64837 0,0.3197 0.17423,0.48806 0.50508,0.48806 0.40235,0 0.50507,0.16835 0.50507,0.82775 0,0.51525 0.19069,0.99103 0.50508,1.26022 0.27779,0.23786 0.50508,0.66443 0.50508,0.94794 0,0.28351 0.1602,0.57695 0.35601,0.65209 0.19581,0.0751 0.42526,0.4125 0.50989,0.74969 0.0846,0.33719 0.32217,0.61307 0.52787,0.61307 0.27489,0 0.37399,0.30112 0.37399,1.13642 0,0.7997 0.14966,1.28607 0.50508,1.6415 0.35514,0.35514 0.50508,0.84179 0.50508,1.63936 0,0.86078 0.12178,1.21033 0.50507,1.4497 0.46509,0.29045 0.50508,0.58893 0.50508,3.76956 0,3.61003 0.0951,4.25306 0.62891,4.25306 0.17728,0 0.38177,0.22728 0.45441,0.50507 0.12641,0.4834 0.34447,0.50508 5.08022,0.50508 4.77978,0 4.94814,0.0172 4.94814,0.50507 0,0.44896 0.16836,0.50508 1.51523,0.50508 1.34686,0 1.51522,0.0561 1.51522,0.50508 0,0.42089 0.16836,0.50507 1.01016,0.50507 0.84179,0 1.01015,0.0842 1.01015,0.50508 0,0.33672 0.16836,0.50508 0.50508,0.50508 0.27779,0 0.50507,0.1583 0.50507,0.35178 0,0.40717 0.53783,0.65837 1.40962,0.65837 0.44233,0 0.61069,0.13924 0.61069,0.50507 0,0.33672 0.16836,0.50508 0.50507,0.50508 0.33672,0 0.50508,0.16836 0.50508,0.50508 0,0.27779 0.16143,0.50507 0.35874,0.50507 0.19731,0 0.43383,0.34187 0.5256,0.75972 0.0918,0.41784 0.38491,0.87641 0.65141,1.01904 0.26651,0.14262 0.48455,0.4826 0.48455,0.75551 0,0.2729 0.15782,0.49619 0.35071,0.49619 0.20184,0 0.42214,0.3808 0.51901,0.89716 0.0926,0.49343 0.3325,0.96016 0.53318,1.03717 0.20068,0.077 0.36487,0.41196 0.36487,0.74434 0,0.33238 0.22729,0.83161 0.50508,1.1094 0.35575,0.35575 0.50507,0.8418 0.50507,1.64397 0,0.82638 0.1386,1.25756 0.50508,1.57136 0.43771,0.37477 0.50508,0.74497 0.50508,2.77544 0,1.82651 -0.077,2.34299 -0.34936,2.34299 -0.45315,0 -0.65307,0.78726 -0.65735,2.58852 -0.003,1.06901 -0.096,1.45209 -0.35415,1.45209 -0.20441,0 -0.42376,0.38942 -0.52584,0.93359 -0.0963,0.51347 -0.39308,1.21065 -0.65945,1.54929 -0.26637,0.33863 -0.48431,0.82765 -0.48431,1.08671 0,0.25906 -0.17046,0.47102 -0.37881,0.47102 -0.20834,0 -0.37881,0.20967 -0.37881,0.46594 0,0.25626 -0.22438,0.669 -0.49862,0.91719 -0.27425,0.24819 -0.56601,0.66355 -0.64837,0.92302 -0.0824,0.25948 -0.31254,0.47177 -0.51152,0.47177 -0.19898,0 -0.36179,0.22729 -0.36179,0.50508 0,0.33671 -0.16836,0.50507 -0.50508,0.50507 -0.27779,0 -0.73236,0.22729 -1.01015,0.50508 -0.27779,0.27779 -0.68618,0.50508 -0.90753,0.50508 -0.22134,0 -0.46188,0.22728 -0.53453,0.50507 -0.0731,0.27954 -0.34446,0.50508 -0.6077,0.50508 -0.30726,0 -0.47562,0.17878 -0.47562,0.50508 0,0.42089 -0.16836,0.50507 -1.01015,0.50507 -0.8418,0 -1.01016,0.0842 -1.01016,0.50508 0,0.4209 -0.16836,0.50507 -1.01015,0.50507 -0.84179,0 -1.01015,0.0842 -1.01015,0.50508 0,0.50332 -0.16836,0.50508 -48.45787,0.50508 -48.24548,0 -48.45845,-0.002 -48.58995,-0.50508 z"
         id="path929"
         transform="scale(0.26458333)" />
      <path
         sodipodi:nodetypes="cssssssssssssssssssssssssssssssssssssssssssssssssssssssssssssssssssssssssssssssscssssssssssssssssssssssssssssssssssssssssssssssssssssssssssssssssssssssssssssssssssssssssssssssssssssssssssssssssssssssssssssssssssssssssssssssssssssssssssssssssssssssssssssssssssssssssssssssssssssssssscssssssssssssssssssssssscscsssssssssssssssssssssssssssssssssssssssssssssssssssssssssssssssssssssssssssssssssssssssssssssssssscccccccccssssssssssssssssssssssssssssssssssssssssssssssssssccsssssssssssssssssssssssssssssssssssssssssssssssssssssssssssssssssssssssssssssssssssssssssssssssssssssssssssssssssscssssssssssssssssssssssssssssscc"
         style="fill:#000000;fill-opacity:1;stroke:none;stroke-width:1.08524;stroke-linecap:square;stroke-linejoin:round;paint-order:stroke fill markers"
         d="m 443.90803,550.37513 c 0,-0.12812 -0.39687,-0.36393 -0.88194,-0.52401 -0.48506,-0.16009 -0.96804,-0.43127 -1.07328,-0.60263 -0.10525,-0.17136 -0.56069,-0.46073 -1.0121,-0.64304 -0.45142,-0.18231 -0.82075,-0.41808 -0.82075,-0.52393 0,-0.10584 -0.22729,-0.25188 -0.50508,-0.32452 -0.27779,-0.0726 -0.50508,-0.31319 -0.50508,-0.53453 0,-0.29722 -0.24945,-0.40245 -0.95402,-0.40245 -0.64152,0 -1.09569,-0.16545 -1.38649,-0.50508 -0.23785,-0.27779 -0.71768,-0.50508 -1.06628,-0.50508 -0.46546,0 -0.63382,-0.13416 -0.63382,-0.50507 0,-0.33672 -0.16835,-0.50508 -0.50507,-0.50508 -0.29379,0 -0.50508,-0.16836 -0.50508,-0.40245 0,-0.22135 -0.22728,-0.46188 -0.50507,-0.53453 -0.2778,-0.0726 -0.50508,-0.29993 -0.50508,-0.50507 0,-0.20515 -0.22728,-0.43244 -0.50508,-0.50508 -0.27954,-0.0731 -0.50507,-0.34447 -0.50507,-0.6077 0,-0.30727 -0.17879,-0.47563 -0.50508,-0.47563 -0.44264,0 -0.50508,-0.16836 -0.50508,-1.36194 0,-0.97765 -0.10688,-1.40295 -0.3788,-1.5073 -0.28233,-0.10834 -0.37881,-0.55859 -0.37881,-1.76777 0,-1.20917 0.0965,-1.65943 0.37881,-1.76777 0.54323,-0.20845 0.54323,-3.39696 0,-3.60542 -0.54876,-0.21058 -0.54876,-4.01268 0,-4.22326 0.22484,-0.0863 0.3788,-0.46597 0.3788,-0.9342 0,-0.43386 0.22729,-1.07779 0.50508,-1.43094 0.27779,-0.35316 0.50508,-0.85406 0.50508,-1.11312 0,-0.30266 0.18053,-0.47102 0.50507,-0.47102 0.32629,0 0.50508,-0.16836 0.50508,-0.47562 0,-0.26324 0.22554,-0.53461 0.50508,-0.60771 0.27779,-0.0726 0.50507,-0.31318 0.50507,-0.53453 0,-0.23409 0.21129,-0.40245 0.50508,-0.40245 0.33672,0 0.50507,-0.16836 0.50507,-0.50507 0,-0.40235 0.16836,-0.50508 0.82776,-0.50508 0.51525,0 0.99103,-0.19069 1.26022,-0.50508 0.25466,-0.29741 0.74497,-0.50507 1.19255,-0.50507 0.48838,0 0.76008,-0.12824 0.76008,-0.35874 0,-0.19731 0.34635,-0.43482 0.76966,-0.52779 0.42331,-0.093 0.90522,-0.38611 1.0709,-0.65141 0.16569,-0.2653 0.50119,-0.48237 0.74557,-0.48237 0.24438,0 0.44433,-0.15594 0.44433,-0.34653 0,-0.209 0.40089,-0.41063 1.01015,-0.50806 0.65363,-0.10452 1.01016,-0.29417 1.01016,-0.53735 0,-0.31258 0.52818,-0.37582 3.13869,-0.37582 4.0532,0 4.02672,0.0221 3.88363,-3.24953 -0.0712,-1.62728 -0.20739,-2.43378 -0.42323,-2.50573 -0.17505,-0.0584 -0.42176,-0.37828 -0.54825,-0.71095 -0.12648,-0.33267 -0.38999,-0.60486 -0.58557,-0.60486 -0.19558,0 -0.41504,-0.22729 -0.48768,-0.50508 -0.0893,-0.3413 -0.34447,-0.50507 -0.78707,-0.50507 -0.36024,0 -0.65499,-0.1007 -0.65499,-0.22377 0,-0.12307 -0.39775,-0.4125 -0.88388,-0.64319 -0.48614,-0.23069 -0.88389,-0.52558 -0.88389,-0.65531 0,-0.12973 -0.27574,-0.30509 -0.61276,-0.38967 -0.33701,-0.0846 -0.80919,-0.37086 -1.04929,-0.63616 -0.24009,-0.2653 -0.58938,-0.48236 -0.7762,-0.48236 -0.18681,0 -0.33967,-0.1811 -0.33967,-0.40245 0,-0.22135 -0.22728,-0.46189 -0.50507,-0.53453 -0.27779,-0.0726 -0.50508,-0.28163 -0.50508,-0.46442 0,-0.18278 -0.22728,-0.40447 -0.50507,-0.49264 -0.2778,-0.0882 -0.50508,-0.31545 -0.50508,-0.50507 0,-0.18963 -0.22728,-0.41691 -0.50508,-0.50508 -0.27779,-0.0882 -0.50507,-0.31545 -0.50507,-0.50508 0,-0.18962 -0.22729,-0.4169 -0.50508,-0.50507 -0.27779,-0.0882 -0.50508,-0.31546 -0.50508,-0.50508 0,-0.18962 -0.22728,-0.41691 -0.50507,-0.50508 -0.27779,-0.0882 -0.50508,-0.31545 -0.50508,-0.50507 0,-0.18963 -0.22728,-0.41691 -0.50507,-0.50508 -0.3585,-0.11378 -0.50508,-0.3821 -0.50508,-0.92454 0,-0.55186 -0.14036,-0.80095 -0.50508,-0.89632 -0.27953,-0.0731 -0.50507,-0.34447 -0.50507,-0.6077 0,-0.30727 -0.17879,-0.47563 -0.50508,-0.47563 -0.4209,0 -0.50508,-0.16836 -0.50508,-1.01015 0,-0.84179 -0.0842,-1.01015 -0.50507,-1.01015 -0.41138,0 -0.50508,-0.16836 -0.50508,-0.90753 0,-0.69514 -0.1182,-0.93843 -0.50507,-1.0396 -0.39115,-0.10229 -0.50508,-0.34447 -0.50508,-1.07364 0,-0.62084 -0.17204,-1.09726 -0.50508,-1.39865 -0.35745,-0.32349 -0.50507,-0.77781 -0.50507,-1.55437 0,-0.76588 -0.10551,-1.09728 -0.34936,-1.09728 -0.48011,0 -0.6533,-0.80231 -0.65735,-3.04532 -0.002,-1.2829 -0.12504,-2.06967 -0.37422,-2.39912 -0.54029,-0.71433 -0.54705,-5.62161 -0.008,-5.82845 0.30543,-0.11721 0.3788,-0.69178 0.3788,-2.96641 0,-2.50853 0.056,-2.86895 0.50508,-3.2535 0.37402,-0.32025 0.50508,-0.74498 0.50508,-1.63688 0,-0.93091 0.11469,-1.27604 0.50507,-1.51984 0.36569,-0.22837 0.50508,-0.58892 0.50508,-1.30642 0,-0.7692 0.11304,-1.02687 0.50508,-1.1513 0.3713,-0.11785 0.50507,-0.3821 0.50507,-0.99772 0,-0.62502 0.1281,-0.8709 0.50508,-0.96949 0.38687,-0.10117 0.50507,-0.34446 0.50507,-1.0396 0,-0.64488 0.11144,-0.90753 0.38506,-0.90753 0.21178,0 0.48718,-0.26861 0.612,-0.5969 0.12482,-0.3283 0.40611,-0.66566 0.6251,-0.74969 0.21898,-0.084 0.39815,-0.3092 0.39815,-0.50038 0,-0.19118 0.22728,-0.55328 0.50508,-0.80468 0.27779,-0.2514 0.50507,-0.66676 0.50507,-0.92302 0,-0.29758 0.1825,-0.46594 0.50508,-0.46594 0.33672,0 0.50507,-0.16836 0.50507,-0.50508 0,-0.33671 0.16836,-0.50507 0.50508,-0.50507 0.32629,0 0.50508,-0.16836 0.50508,-0.47563 0,-0.26323 0.22554,-0.5346 0.50507,-0.6077 0.2778,-0.0726 0.50508,-0.31318 0.50508,-0.53453 0,-0.23409 0.21129,-0.40245 0.50508,-0.40245 0.33671,0 0.50507,-0.16836 0.50507,-0.50507 0,-0.33754 0.16836,-0.50508 0.50755,-0.50508 0.27915,0 0.70216,-0.22728 0.94001,-0.50508 0.23785,-0.27779 0.62683,-0.50507 0.86439,-0.50507 0.23757,0 0.50018,-0.21502 0.58359,-0.47781 0.0834,-0.2628 0.37517,-0.53626 0.64836,-0.60771 0.27319,-0.0714 0.49671,-0.31099 0.49671,-0.53234 0,-0.29008 0.24205,-0.40245 0.86687,-0.40245 0.64507,0 0.90788,-0.12922 1.02717,-0.50507 0.11378,-0.3585 0.3821,-0.50508 0.92454,-0.50508 0.55186,0 0.80095,-0.14036 0.89632,-0.50508 0.0855,-0.32685 0.34447,-0.50507 0.73397,-0.50507 0.33104,0 0.82918,-0.22729 1.10697,-0.50508 0.36904,-0.36904 0.8418,-0.50508 1.75522,-0.50508 0.86785,0 1.31729,-0.11998 1.46972,-0.39235 0.13979,-0.2498 0.74077,-0.44615 1.65404,-0.54041 0.8712,-0.0899 1.43447,-0.26788 1.43447,-0.45321 0,-0.33878 9.14737,-0.79081 9.92948,-0.49068 0.64906,0.24906 2.19236,-0.11479 2.19236,-0.51688 0,-0.19269 0.22728,-0.42249 0.50507,-0.51065 0.28041,-0.089 0.50508,-0.3821 0.50508,-0.65893 0,-0.27424 0.22728,-0.74258 0.50507,-1.04075 0.2778,-0.29818 0.50508,-0.74799 0.50508,-0.99959 0,-0.25161 0.16531,-0.45746 0.36737,-0.45746 0.2199,0 0.43392,-0.3548 0.53318,-0.88388 0.0971,-0.51737 0.31452,-0.88389 0.52444,-0.88389 0.19725,0 0.43161,-0.19019 0.52081,-0.42265 0.14712,-0.38338 0.33578,-0.62354 1.45505,-1.85226 0.19082,-0.20948 0.42245,-0.68172 0.51474,-1.04942 0.0923,-0.36771 0.38546,-0.72548 0.65148,-0.79504 0.26603,-0.0696 0.48369,-0.30759 0.48369,-0.52894 0,-0.22135 0.16281,-0.40245 0.36179,-0.40245 0.19899,0 0.43393,-0.22728 0.5221,-0.50508 0.0882,-0.27779 0.32311,-0.50507 0.52209,-0.50507 0.19898,0 0.36179,-0.18111 0.36179,-0.40245 0,-0.22135 0.22728,-0.46189 0.50508,-0.53453 0.27954,-0.0731 0.50507,-0.34447 0.50507,-0.60771 0,-0.30726 0.17879,-0.47562 0.50508,-0.47562 0.33672,0 0.50508,-0.16836 0.50508,-0.50507 0,-0.33672 0.16835,-0.50508 0.50507,-0.50508 0.33672,0 0.50508,-0.16836 0.50508,-0.50508 0,-0.39252 0.16836,-0.50507 0.75547,-0.50507 0.48198,0 0.86967,-0.18285 1.0709,-0.50508 0.17348,-0.27779 0.51538,-0.50508 0.75976,-0.50508 0.27597,0 0.44433,-0.19137 0.44433,-0.50507 0,-0.3137 0.16835,-0.50508 0.44432,-0.50508 0.24438,0 0.58628,-0.22728 0.75976,-0.50507 0.20123,-0.32223 0.58892,-0.50508 1.0709,-0.50508 0.58711,0 0.75547,-0.11256 0.75547,-0.50508 0,-0.42089 0.16836,-0.50507 1.01016,-0.50507 0.84179,0 1.01015,-0.0842 1.01015,-0.50508 0,-0.41138 0.16836,-0.50508 0.90752,-0.50508 0.69515,0 0.93844,-0.1182 1.03961,-0.50507 0.10917,-0.41746 0.34447,-0.50508 1.35643,-0.50508 0.96589,0 1.28142,-0.10662 1.49466,-0.50507 0.18931,-0.35372 0.52877,-0.50508 1.13276,-0.50508 0.49676,0 0.95066,-0.15762 1.07049,-0.37174 0.13718,-0.24513 0.82956,-0.42951 2.03285,-0.54134 1.2076,-0.11224 1.82482,-0.27704 1.82482,-0.48723 0,-0.22634 0.84043,-0.37015 2.92421,-0.50034 2.11704,-0.13228 2.961,-0.27858 3.05748,-0.52999 0.19601,-0.51081 6.39268,-0.5073 6.39268,0.004 0,0.26979 0.69662,0.39276 3.01376,0.53198 2.02233,0.12151 3.05331,0.28413 3.13397,0.49434 0.0701,0.18262 0.83531,0.38004 1.83488,0.47338 1.14097,0.10654 1.78649,0.28846 1.92933,0.54372 0.15106,0.26993 0.62255,0.3836 1.59109,0.3836 1.20805,0 1.37641,0.0618 1.37641,0.50508 0,0.41836 0.16836,0.50507 0.9807,0.50507 0.76831,0 1.0093,0.10938 1.11278,0.50508 0.10013,0.38291 0.34446,0.50507 1.01015,0.50507 0.66569,0 0.91002,0.12217 1.01015,0.50508 0.099,0.3784 0.34447,0.50508 0.97886,0.50508 0.57328,0 0.94866,0.16313 1.16221,0.50507 0.20123,0.32223 0.58892,0.50508 1.0709,0.50508 0.58711,0 0.75547,0.11256 0.75547,0.50508 0,0.32629 0.16836,0.50507 0.47562,0.50507 0.26324,0 0.5346,0.22554 0.60771,0.50508 0.0962,0.36777 0.34446,0.50507 0.91333,0.50507 0.53173,0 0.78126,0.12299 0.78126,0.38506 0,0.21178 0.28411,0.49308 0.63135,0.6251 0.34724,0.13202 0.63134,0.41331 0.63134,0.62509 0,0.21178 0.16281,0.38506 0.36179,0.38506 0.19899,0 0.43393,0.22728 0.5221,0.50508 0.0882,0.27779 0.26789,0.50507 0.39939,0.50507 0.33746,0 4.40282,4.07366 4.59943,4.60882 0.0893,0.24307 0.33638,0.44194 0.54909,0.44194 0.2127,0 0.38673,0.20968 0.38673,0.46594 0,0.25627 0.22729,0.67163 0.50508,0.92302 0.27779,0.2514 0.50507,0.6035 0.50507,0.78244 0,0.17894 0.20636,0.47384 0.45858,0.65534 0.25221,0.18149 0.53275,0.52887 0.62342,0.77193 0.0907,0.24307 0.33887,0.44194 0.55158,0.44194 0.27108,0 0.38673,0.25552 0.38673,0.85443 0,0.64205 0.12555,0.88727 0.50508,0.98651 0.38687,0.10117 0.50507,0.34447 0.50507,1.03961 0,0.73917 0.0937,0.90753 0.50508,0.90753 0.41137,0 0.50507,0.16836 0.50507,0.90752 0,0.69514 0.1182,0.93844 0.50508,1.03961 0.39569,0.10348 0.50508,0.34447 0.50508,1.11278 0,0.81234 0.0867,0.9807 0.50507,0.9807 0.44896,0 0.50508,0.16836 0.50508,1.51523 0,1.34686 0.0561,1.51522 0.50508,1.51522 0.44895,0 0.50507,0.16836 0.50507,1.51523 0,1.34687 0.0561,1.51523 0.50508,1.51523 0.33671,0 0.50507,0.16836 0.50507,0.50508 0,0.40887 0.16836,0.50507 0.88389,0.50507 0.54716,0 1.07629,0.19241 1.38896,0.50508 0.40147,0.40147 0.84179,0.50508 2.14657,0.50508 1.47314,0 1.6415,0.0518 1.6415,0.50507 0,0.41837 0.16836,0.50508 0.9807,0.50508 0.76831,0 1.0093,0.10938 1.11278,0.50508 0.10117,0.38687 0.34446,0.50507 1.0396,0.50507 0.60736,0 0.90753,0.11636 0.90753,0.35179 0,0.38614 0.53066,0.65836 1.28335,0.65836 0.26665,0 0.48442,0.17386 0.48442,0.38674 0,0.2127 0.19887,0.45818 0.44194,0.54551 0.24307,0.0873 0.64524,0.36786 0.89372,0.62342 0.24848,0.25555 0.7182,0.46464 1.04383,0.46464 0.37967,0 0.63944,0.18118 0.72414,0.50508 0.0726,0.27779 0.29993,0.50507 0.50507,0.50507 0.20515,0 0.43243,0.22729 0.50508,0.50508 0.0726,0.27779 0.29993,0.50508 0.50508,0.50508 0.20514,0 0.43243,0.22728 0.50507,0.50507 0.0727,0.27779 0.31318,0.50508 0.53453,0.50508 0.22135,0 0.40245,0.1628 0.40245,0.36179 0,0.19898 0.22729,0.43392 0.50508,0.52209 0.27779,0.0882 0.50507,0.33375 0.50507,0.54574 0,0.21198 0.22729,0.44486 0.50508,0.51751 0.27779,0.0726 0.50508,0.33681 0.50508,0.58705 0,0.72505 0.27766,1.25389 0.65836,1.25389 0.19348,0 0.35179,0.21403 0.35179,0.47562 0,0.26324 0.22554,0.5346 0.50508,0.60771 0.38687,0.10116 0.50507,0.34446 0.50507,1.0396 0,0.73917 0.0937,0.90753 0.50508,0.90753 0.4209,0 0.50507,0.16836 0.50507,1.01015 0,0.84179 0.0842,1.01015 0.50508,1.01015 0.44488,0 0.50508,0.16836 0.50508,1.4126 0,1.20022 0.0759,1.43246 0.50507,1.54469 0.45012,0.1177 0.50508,0.34446 0.50508,2.08379 0,1.63099 0.083,2.02682 0.50508,2.4088 0.45514,0.41189 0.50507,0.77781 0.50507,3.70094 0,2.90714 -0.0524,3.29628 -0.50507,3.74893 -0.41387,0.41387 -0.50508,0.8418 -0.50508,2.36966 0,1.6522 -0.0575,1.87963 -0.50508,1.99666 -0.42913,0.11223 -0.50507,0.34447 -0.50507,1.54469 0,1.24424 -0.0602,1.4126 -0.50508,1.4126 -0.4209,0 -0.50508,0.16836 -0.50508,1.01015 0,0.84179 -0.0842,1.01015 -0.50507,1.01015 -0.4209,0 -0.50508,0.16836 -0.50508,1.01016 0,0.84179 -0.0842,1.01015 -0.50507,1.01015 -0.3263,0 -0.50508,0.16836 -0.50508,0.47562 0,0.26324 -0.22554,0.5346 -0.50508,0.6077 -0.36239,0.0948 -0.50507,0.34447 -0.50507,0.88389 0,0.53941 -0.14269,0.78911 -0.50508,0.88388 -0.27779,0.0726 -0.50508,0.30553 -0.50508,0.51751 0,0.21199 -0.22728,0.45757 -0.50507,0.54574 -0.27779,0.0882 -0.50508,0.32311 -0.50508,0.52209 0,0.19899 -0.1811,0.36179 -0.40245,0.36179 -0.22135,0 -0.46188,0.22729 -0.53453,0.50508 -0.0726,0.27779 -0.29993,0.50508 -0.50507,0.50508 -0.20515,0 -0.43244,0.22728 -0.50508,0.50507 -0.0726,0.27779 -0.29993,0.50508 -0.50508,0.50508 -0.20514,0 -0.43243,0.22728 -0.50507,0.50507 -0.0727,0.2778 -0.3285,0.50508 -0.56856,0.50508 -0.24007,0 -0.64218,0.22728 -0.89358,0.50508 -0.25139,0.27779 -0.60897,0.50507 -0.79461,0.50507 -0.18564,0 -0.47947,0.22729 -0.65295,0.50508 -0.17349,0.27779 -0.45456,0.50508 -0.6246,0.50508 -0.17005,0 -0.43082,0.22728 -0.57949,0.50507 -0.17255,0.32242 -0.52877,0.50508 -0.98498,0.50508 -0.39307,0 -1.00362,0.22728 -1.35677,0.50507 -0.35315,0.2778 -0.87058,0.50508 -1.14982,0.50508 -0.7746,0 -1.30665,0.26808 -1.30665,0.65836 0,0.26161 -0.38844,0.35179 -1.51523,0.35179 -1.17851,0 -1.62747,0.11224 -2.0203,0.50508 -0.33672,0.33672 -0.8418,0.50508 -1.51523,0.50508 h -1.01016 v 1.86458 c 0,1.65219 0.0575,1.87962 0.50508,1.99666 0.71895,0.18801 0.71895,1.94461 0,2.3936 -0.39287,0.24535 -0.50508,0.58893 -0.50508,1.54652 0,1.01871 -0.0871,1.25389 -0.50507,1.36318 -0.38688,0.10117 -0.50508,0.34447 -0.50508,1.03961 0,0.72043 -0.098,0.90752 -0.47562,0.90752 -0.26324,0 -0.5346,0.22554 -0.6077,0.50508 -0.0726,0.27779 -0.31319,0.50508 -0.53453,0.50508 -0.22135,0 -0.40245,0.17046 -0.40245,0.3788 0,0.20835 -0.18111,0.37881 -0.40245,0.37881 -0.22135,0 -0.46189,0.22728 -0.53453,0.50508 -0.0838,0.32052 -0.34447,0.50507 -0.71332,0.50507 -0.82198,0 -1.38016,0.25299 -1.38016,0.62552 0,0.19297 -0.47177,0.37212 -1.19442,0.45358 -0.83303,0.0939 -1.3008,0.29485 -1.54603,0.66419 -0.19339,0.29125 -0.50822,0.52956 -0.69962,0.52956 -0.1914,0 -0.348,0.17046 -0.348,0.3788 0,0.20835 -0.1695,0.37881 -0.37667,0.37881 -0.20717,0 -0.51861,0.22729 -0.69209,0.50508 -0.21355,0.34194 -0.58893,0.50507 -1.16221,0.50507 -0.63439,0 -0.8799,0.12668 -0.97886,0.50508 -0.12372,0.47311 -0.34446,0.50508 -3.48819,0.50508 h -3.35611 l -0.17722,1.28851 c -0.0975,0.70869 -0.0984,2.12922 -0.002,3.15673 0.23392,2.49499 -0.0618,5.65628 -0.52892,5.65628 -0.20091,0 -0.34914,0.25928 -0.34914,0.61069 0,0.87179 -0.2512,1.40962 -0.65837,1.40962 -0.19348,0 -0.35178,0.22728 -0.35178,0.50507 0,0.33672 -0.16836,0.50508 -0.50508,0.50508 -0.33672,0 -0.50508,0.16836 -0.50508,0.50508 0,0.33671 -0.16836,0.50507 -0.50507,0.50507 -0.33672,0 -0.50508,0.16836 -0.50508,0.50508 0,0.41137 -0.16836,0.50507 -0.90752,0.50507 -0.69515,0 -0.93844,0.1182 -1.03961,0.50508 -0.1118,0.42752 -0.34447,0.50508 -1.51523,0.50508 -1.14842,0 -1.40453,0.0818 -1.50912,0.48173 -0.0693,0.26495 -0.34275,0.53841 -0.6077,0.6077 -0.26496,0.0693 -0.48173,0.30707 -0.48173,0.52842 0,0.23409 -0.2113,0.40245 -0.50508,0.40245 -0.27779,0 -0.50508,0.15782 -0.50508,0.3507 0,0.20185 -0.38079,0.42214 -0.89715,0.51901 -0.49344,0.0926 -0.96017,0.3325 -1.03717,0.53318 -0.21086,0.54949 -7.15705,0.53886 -7.15705,-0.0109 0,-0.24318 -0.35652,-0.43284 -1.01015,-0.53736 -0.57986,-0.0927 -1.01015,-0.30189 -1.01015,-0.49104 0,-0.18123 -0.22729,-0.40165 -0.50508,-0.48982 -0.27779,-0.0882 -0.50508,-0.32311 -0.50508,-0.52209 0,-0.19898 -0.22728,-0.36179 -0.50507,-0.36179 -0.33672,0 -0.50508,-0.16836 -0.50508,-0.50508 0,-0.44895 -0.16836,-0.50507 -1.51523,-0.50507 -1.34687,0 -1.51523,-0.0561 -1.51523,-0.50508 0,-0.32257 -0.16836,-0.50508 -0.46593,-0.50508 -0.25627,0 -0.67163,-0.22728 -0.92303,-0.50507 -0.2514,-0.27779 -0.6591,-0.50508 -0.906,-0.50508 -0.24691,0 -0.52106,-0.22728 -0.60923,-0.50507 -0.0882,-0.2778 -0.31046,-0.50508 -0.49399,-0.50508 -0.18352,0 -0.40942,-0.40372 -0.50199,-0.89716 -0.0926,-0.49343 -0.32133,-0.95587 -0.50836,-1.02764 -0.18702,-0.0718 -0.41431,-0.52634 -0.50507,-1.01016 -0.0908,-0.48381 -0.32922,-0.94267 -0.5299,-1.01967 -0.20068,-0.077 -0.36487,-0.46139 -0.36487,-0.85417 0,-1.13338 -0.43388,-2.00973 -0.99502,-2.00973 -0.62847,0 -1.02529,0.71522 -1.02529,1.84798 0,0.65864 -0.12315,0.90324 -0.50508,1.00311 -0.38687,0.10117 -0.50507,0.34447 -0.50507,1.03961 0,0.73916 -0.0937,0.90752 -0.50508,0.90752 -0.41138,0 -0.50507,0.16836 -0.50507,0.90753 0,0.69514 -0.1182,0.93844 -0.50508,1.03961 -0.27954,0.0731 -0.50508,0.34446 -0.50508,0.6077 0,0.3612 -0.18416,0.47562 -0.76554,0.47562 -0.46404,0 -0.82571,0.1568 -0.91832,0.39815 -0.084,0.21899 -0.4214,0.50028 -0.74969,0.6251 -0.3283,0.12482 -0.5969,0.40022 -0.5969,0.612 0,0.29916 -0.31513,0.38506 -1.41261,0.38506 -1.20021,0 -1.43246,0.0759 -1.54468,0.50507 -0.0731,0.27954 -0.34447,0.50508 -0.6077,0.50508 -0.26159,0 -0.47562,0.16281 -0.47562,0.36179 0,0.19898 -0.22729,0.43392 -0.50508,0.52209 -0.27779,0.0882 -0.50508,0.32311 -0.50508,0.5221 0,0.21792 -0.25203,0.36179 -0.63381,0.36179 -0.3486,0 -0.82843,0.22728 -1.06628,0.50507 -0.39362,0.45971 -0.74497,0.50508 -3.91187,0.50508 -2.80052,0 -3.47941,-0.0684 -3.47941,-0.3507 0,-0.20034 -0.37603,-0.42125 -0.87702,-0.51523 -0.48236,-0.0905 -0.96534,-0.31059 -1.07328,-0.4891 -0.10795,-0.1785 -0.39515,-0.39765 -0.63822,-0.48699 -0.24306,-0.0893 -0.44194,-0.33646 -0.44194,-0.54917 0,-0.2127 -0.1811,-0.38673 -0.40245,-0.38673 -0.22134,0 -0.46188,-0.22729 -0.53453,-0.50508 -0.11099,-0.42442 -0.34446,-0.50507 -1.46213,-0.50507 -1.11767,0 -1.35114,-0.0806 -1.46213,-0.50508 -0.10117,-0.38688 -0.34447,-0.50508 -1.03961,-0.50508 -0.73917,0 -0.90752,-0.0937 -0.90752,-0.50507 0,-0.32629 -0.16836,-0.50508 -0.47563,-0.50508 -0.26323,0 -0.5346,-0.22554 -0.6077,-0.50507 -0.0726,-0.2778 -0.31318,-0.50508 -0.53453,-0.50508 -0.23409,0 -0.40245,-0.21129 -0.40245,-0.50508 0,-0.33671 -0.16836,-0.50507 -0.50508,-0.50507 -0.41137,0 -0.50507,-0.16836 -0.50507,-0.90753 0,-0.69514 -0.1182,-0.93844 -0.50508,-1.03961 -0.4217,-0.11027 -0.50564,-0.34606 -0.50852,-1.42845 -0.005,-1.9123 -0.20145,-2.43279 -0.91782,-2.43279 -0.3354,0 -0.67523,0.17046 -0.75518,0.37881 -0.0799,0.20834 -0.30648,0.3788 -0.5034,0.3788 -0.44407,0 -0.85061,1.02089 -0.85061,2.136 0,0.49981 -0.14788,0.89717 -0.36488,0.98044 -0.20068,0.077 -0.44061,0.54374 -0.53318,1.03717 -0.0969,0.51636 -0.31716,0.89716 -0.51901,0.89716 -0.19288,0 -0.3507,0.1811 -0.3507,0.40245 0,0.22134 -0.22728,0.46188 -0.50508,0.53453 -0.27954,0.0731 -0.50507,0.34446 -0.50507,0.6077 0,0.30726 -0.17879,0.47562 -0.50508,0.47562 -0.33671,0 -0.50507,0.16836 -0.50507,0.50508 0,0.32629 -0.16836,0.50507 -0.47563,0.50507 -0.26323,0 -0.5346,0.22554 -0.6077,0.50508 -0.11486,0.43925 -0.34446,0.50508 -1.76161,0.50508 -1.5895,0 -1.65055,0.0248 -2.48589,1.00888 -0.471,0.55489 -1.00198,1.00946 -1.17996,1.01015 -0.17798,7.6e-4 -0.38634,0.16479 -0.46304,0.36465 -0.0767,0.19985 -0.47855,0.43785 -0.89302,0.52889 -0.41447,0.091 -0.81488,0.32526 -0.8898,0.52051 -0.10728,0.27956 -0.82804,0.35499 -3.3922,0.35499 -1.81981,0 -3.25598,-0.10275 -3.25598,-0.23296 z M 470.172,503.636 l 14.58407,-5.1e-4 14.58408,-5e-4 6.56595,1.2e-4 14.58408,5e-4 14.58408,5.1e-4 6.06091,-1.2e-4 h 7.57615 c 7.23942,0 7.59859,-0.0225 8.08122,-0.50508 0.31266,-0.31267 0.84179,-0.50508 1.38896,-0.50508 0.71552,0 0.88388,-0.0962 0.88388,-0.50507 0,-0.4209 0.16836,-0.50508 1.01015,-0.50508 0.84179,0 1.01015,-0.0842 1.01015,-0.50508 0,-0.39252 0.16836,-0.50507 0.75548,-0.50507 0.48197,0 0.86966,-0.18285 1.0709,-0.50508 0.17348,-0.27779 0.51537,-0.50507 0.75975,-0.50507 0.27597,0 0.44433,-0.19138 0.44433,-0.50508 0,-0.33672 0.16836,-0.50508 0.50508,-0.50508 0.33671,0 0.50507,-0.16836 0.50507,-0.50507 0,-0.33672 0.16836,-0.50508 0.50508,-0.50508 0.33672,0 0.50508,-0.16836 0.50508,-0.50508 0,-0.33671 0.16836,-0.50507 0.50507,-0.50507 0.33672,0 0.50508,-0.16836 0.50508,-0.50508 0,-0.33672 0.16836,-0.50507 0.50508,-0.50507 0.3272,0 0.50507,-0.16836 0.50507,-0.47806 0,-0.26293 0.16419,-0.54107 0.36488,-0.61807 0.20068,-0.077 0.44061,-0.54374 0.53318,-1.03718 0.0926,-0.49343 0.31396,-0.89715 0.49199,-0.89715 0.4241,0 0.63026,-0.57536 0.63026,-1.75897 0,-0.74766 0.11173,-0.98926 0.50507,-1.09212 0.45811,-0.1198 0.50508,-0.34447 0.50508,-2.41602 0,-1.91244 0.0719,-2.32424 0.44194,-2.53169 0.64987,-0.36433 0.64987,-4.21191 0,-4.68699 -0.35039,-0.25614 -0.44194,-0.70149 -0.44194,-2.14977 0,-1.61432 -0.0587,-1.84206 -0.50508,-1.95879 -0.39176,-0.10244 -0.50507,-0.34446 -0.50507,-1.07872 0,-0.56425 -0.20403,-1.20601 -0.50508,-1.58874 -0.27779,-0.35316 -0.50508,-0.82305 -0.50508,-1.04421 0,-0.23375 -0.21147,-0.40211 -0.50507,-0.40211 -0.41138,0 -0.50508,-0.16836 -0.50508,-0.90753 0,-0.69514 -0.1182,-0.93843 -0.50507,-1.0396 -0.27954,-0.0731 -0.50508,-0.34447 -0.50508,-0.6077 0,-0.30727 -0.17879,-0.47563 -0.50508,-0.47563 -0.33671,0 -0.50507,-0.16836 -0.50507,-0.50507 0,-0.33672 -0.16836,-0.50508 -0.50508,-0.50508 -0.33672,0 -0.50508,-0.16836 -0.50508,-0.50508 0,-0.33671 -0.16836,-0.50507 -0.50507,-0.50507 -0.33672,0 -0.50508,-0.16836 -0.50508,-0.50508 0,-0.32629 -0.16836,-0.50507 -0.47562,-0.50507 -0.26324,0 -0.5346,-0.22554 -0.6077,-0.50508 -0.10014,-0.38291 -0.34447,-0.50508 -1.01016,-0.50508 -0.66568,0 -0.91002,-0.12216 -1.01015,-0.50507 -0.10013,-0.38291 -0.34446,-0.50508 -1.01015,-0.50508 -0.66569,0 -0.91002,-0.12217 -1.01015,-0.50508 -0.1118,-0.42752 -0.34447,-0.50507 -1.51523,-0.50507 -1.17076,0 -1.40343,-0.0776 -1.51523,-0.50508 -0.12626,-0.48283 -0.34447,-0.50507 -4.95395,-0.50507 h -4.82187 l -0.003,-3.34614 c -0.004,-3.65004 -0.12585,-4.48255 -0.65736,-4.48255 -0.24473,0 -0.34935,-0.33414 -0.34935,-1.11576 0,-1.35564 -0.19223,-1.91469 -0.65836,-1.91469 -0.25877,0 -0.35179,-0.37354 -0.35179,-1.41261 0,-1.20021 -0.0759,-1.43246 -0.50508,-1.54468 -0.32685,-0.0855 -0.50507,-0.34447 -0.50507,-0.73397 0,-0.33104 -0.22729,-0.82918 -0.50508,-1.10697 -0.27779,-0.27779 -0.50508,-0.65793 -0.50508,-0.84474 0,-0.18682 -0.22728,-0.54536 -0.50507,-0.79676 -0.27779,-0.2514 -0.50508,-0.72358 -0.50508,-1.04929 0,-0.42385 -0.14359,-0.59221 -0.50508,-0.59221 -0.41137,0 -0.50507,-0.16835 -0.50507,-0.90752 0,-0.69514 -0.1182,-0.93844 -0.50508,-1.03961 -0.27954,-0.0731 -0.50507,-0.34446 -0.50507,-0.6077 0,-0.30726 -0.17879,-0.47562 -0.50508,-0.47562 -0.33672,0 -0.50508,-0.16836 -0.50508,-0.50508 0,-0.33672 -0.16836,-0.50508 -0.50507,-0.50508 -0.33672,0 -0.50508,-0.16835 -0.50508,-0.50507 0,-0.33672 -0.16836,-0.50508 -0.50508,-0.50508 -0.3053,0 -0.50507,-0.16836 -0.50507,-0.42566 0,-0.57959 -0.99253,-1.59464 -1.55925,-1.59464 -0.2927,0 -0.46106,-0.18444 -0.46106,-0.50508 0,-0.33672 -0.16836,-0.50508 -0.50507,-0.50508 -0.29379,0 -0.50508,-0.16835 -0.50508,-0.40245 0,-0.22134 -0.22728,-0.46188 -0.50508,-0.53453 -0.27779,-0.0726 -0.50507,-0.28712 -0.50507,-0.47662 0,-0.1895 -0.27574,-0.41375 -0.61276,-0.49833 -0.33702,-0.0846 -0.8092,-0.37086 -1.04929,-0.63616 -0.2401,-0.2653 -0.63405,-0.48236 -0.87545,-0.48236 -0.24141,0 -0.50193,-0.1642 -0.57894,-0.36488 -0.077,-0.20068 -0.54373,-0.44061 -1.03717,-0.53318 -0.49343,-0.0926 -0.89715,-0.31709 -0.89715,-0.49894 0,-0.18185 -0.36934,-0.40973 -0.82075,-0.50639 -0.45142,-0.0967 -1.02405,-0.3898 -1.27253,-0.65141 -0.3241,-0.34123 -0.80587,-0.47566 -1.70464,-0.47566 -0.89834,0 -1.25285,-0.0988 -1.25285,-0.34935 0,-0.40265 -0.76003,-0.6524 -2.00042,-0.65735 -0.4752,-0.002 -1.08356,-0.20233 -1.35192,-0.44539 -0.43694,-0.39577 -1.25707,-0.44973 -7.84857,-0.51645 -4.04835,-0.041 -7.61633,-0.0104 -7.92885,0.0679 -0.31252,0.0784 -0.56821,0.31075 -0.56821,0.51645 0,0.29146 -0.35772,0.374 -1.62084,0.374 -1.84671,0 -2.41977,0.15591 -2.41977,0.65836 0,0.24206 -0.31508,0.35179 -1.01015,0.35179 -0.67344,0 -1.17852,0.16836 -1.51523,0.50508 -0.2778,0.27779 -0.78476,0.50507 -1.12659,0.50507 -0.34183,0 -0.82481,0.20236 -1.07328,0.44968 -0.24848,0.24733 -0.7643,0.60746 -1.14626,0.80029 -0.38197,0.19284 -0.69448,0.44505 -0.69448,0.56047 0,0.11543 -0.27645,0.20987 -0.61433,0.20987 -0.39254,0 -0.6722,0.18235 -0.77463,0.50507 -0.0882,0.2778 -0.37993,0.50508 -0.64837,0.50508 -0.26843,0 -0.71534,0.22728 -0.99313,0.50508 -0.27779,0.27779 -0.66788,0.50507 -0.86687,0.50507 -0.19898,0 -0.43392,0.22729 -0.52209,0.50508 -0.0882,0.27779 -0.31545,0.50507 -0.50508,0.50507 -0.18962,0 -0.4169,0.22729 -0.50507,0.50508 -0.0882,0.27779 -0.31546,0.50508 -0.50508,0.50508 -0.18962,0 -0.41691,0.22728 -0.50508,0.50507 -0.0882,0.2778 -0.30985,0.50508 -0.49264,0.50508 -0.18278,0 -0.39177,0.22728 -0.46441,0.50508 -0.0726,0.27779 -0.29993,0.50507 -0.50508,0.50507 -0.20515,0 -0.43243,0.22729 -0.50507,0.50508 -0.0727,0.27779 -0.31319,0.50507 -0.53453,0.50507 -0.23409,0 -0.40245,0.2113 -0.40245,0.50508 0,0.33672 -0.16836,0.50508 -0.50508,0.50508 -0.35605,0 -0.50508,0.16836 -0.50508,0.5706 0,0.31382 -0.22728,0.71254 -0.50507,0.88602 -0.28554,0.17832 -0.50508,0.58892 -0.50508,0.94463 0,0.46085 -0.13515,0.6292 -0.50508,0.6292 -0.42089,0 -0.50507,0.16836 -0.50507,1.01016 0,0.84179 -0.0842,1.01015 -0.50508,1.01015 -0.36149,0 -0.50507,0.16836 -0.50507,0.5922 0,0.32572 -0.22729,0.7979 -0.50508,1.0493 -0.27779,0.2514 -0.50508,0.62042 -0.50508,0.82005 0,0.19964 -0.22728,0.65192 -0.50507,1.00507 -0.35937,0.45686 -0.50508,1.0245 -0.50508,1.96755 0,1.11307 -0.0809,1.34662 -0.50508,1.45753 -0.39284,0.10273 -0.50507,0.34447 -0.50507,1.08788 0,0.85017 -0.0366,0.90576 -0.33103,0.50308 -0.20791,-0.28434 -0.79494,-0.50482 -1.57836,-0.59281 -0.7125,-0.08 -1.37396,-0.31268 -1.54265,-0.54258 -0.25666,-0.34978 -1.12717,-0.40247 -6.64949,-0.40247 -5.76012,0 -6.38438,0.0413 -6.67732,0.44194 -0.17774,0.24307 -0.60894,0.44194 -0.95823,0.44194 -1.17019,0 -2.21343,0.31245 -2.21343,0.66291 0,0.23021 -0.30587,0.34724 -0.90753,0.34724 -0.69514,0 -0.93844,0.11821 -1.03961,0.50508 -0.10013,0.38291 -0.34446,0.50508 -1.01015,0.50508 -0.66569,0 -0.91002,0.12216 -1.01015,0.50507 -0.0838,0.32052 -0.34447,0.50508 -0.71332,0.50508 -0.84392,0 -1.38016,0.2558 -1.38016,0.65836 0,0.19349 -0.1811,0.35179 -0.40245,0.35179 -0.22135,0 -0.46189,0.22729 -0.53453,0.50508 -0.0726,0.27779 -0.29993,0.50507 -0.50508,0.50507 -0.20514,0 -0.43243,0.22729 -0.50507,0.50508 -0.0731,0.27954 -0.34447,0.50508 -0.60771,0.50508 -0.29744,0 -0.47562,0.17817 -0.47562,0.47562 0,0.26324 -0.22554,0.5346 -0.50507,0.6077 -0.2778,0.0726 -0.50508,0.31319 -0.50508,0.53453 0,0.22135 -0.17403,0.40245 -0.38673,0.40245 -0.21271,0 -0.46092,0.19888 -0.55158,0.44194 -0.0907,0.24307 -0.37121,0.59044 -0.62342,0.77194 -0.25709,0.185 -0.45858,0.64363 -0.45858,1.04383 0,0.50146 -0.15027,0.75314 -0.50507,0.84592 -0.38688,0.10117 -0.50508,0.34447 -0.50508,1.03961 0,0.73917 -0.0937,0.90753 -0.50507,0.90753 -0.29973,0 -0.50508,0.16835 -0.50508,0.4141 0,0.22775 -0.18811,0.55165 -0.41803,0.71977 -0.27237,0.19916 -0.45925,0.80281 -0.53634,1.73247 -0.0651,0.78474 -0.19965,1.4268 -0.29906,1.4268 -0.44713,0 -0.76688,1.46781 -0.76688,3.5204 0,1.75276 -0.0816,2.26525 -0.3788,2.37931 -0.52213,0.20035 -0.52213,2.5058 0,2.93913 0.29062,0.24119 0.37961,0.90979 0.38225,2.87197 0.004,2.8757 0.1495,3.69402 0.65735,3.69402 0.24569,0 0.34936,0.33721 0.34936,1.13642 0,0.79971 0.14965,1.28607 0.50507,1.6415 0.2778,0.27779 0.50508,0.65411 0.50508,0.83626 0,0.18216 0.22728,0.57515 0.50508,0.87333 0.27779,0.29817 0.50507,0.78481 0.50507,1.08141 0,0.3269 0.19892,0.5913 0.50508,0.67136 0.36239,0.0948 0.50507,0.34447 0.50507,0.88388 0,0.53942 0.14269,0.78912 0.50508,0.88389 0.27954,0.0731 0.50508,0.34446 0.50508,0.6077 0,0.30726 0.17878,0.47562 0.50507,0.47562 0.33672,0 0.50508,0.16836 0.50508,0.50508 0,0.33672 0.16836,0.50508 0.50508,0.50508 0.33671,0 0.50507,0.16835 0.50507,0.50507 0,0.33672 0.16836,0.50508 0.50508,0.50508 0.33672,0 0.50508,0.16836 0.50508,0.50507 0,0.3263 0.16835,0.50508 0.47562,0.50508 0.26323,0 0.5346,0.22554 0.6077,0.50508 0.079,0.30218 0.34447,0.50507 0.6608,0.50507 0.29079,0 0.52872,0.15831 0.52872,0.35179 0,0.3807 0.52883,0.65837 1.25389,0.65837 0.25023,0 0.5144,0.22728 0.58705,0.50507 0.10117,0.38688 0.34446,0.50508 1.0396,0.50508 0.73917,0 0.90753,0.0937 0.90753,0.50507 0,0.41837 0.16836,0.50508 0.9807,0.50508 0.76831,0 1.0093,0.10938 1.11278,0.50508 0.11222,0.42913 0.34446,0.50507 1.54468,0.50507 1.03907,0 1.4126,0.093 1.4126,0.35179 0,0.54101 0.58887,0.65837 3.30365,0.65837 l 3.13608,0.50502 c 1.84201,0.052 3.62501,-0.1957 5.42917,-0.50498 z"
         id="path1011"
         transform="scale(0.26458333)" />
      <path
         style="fill:#b3dbf2;fill-opacity:1;stroke:#b3dbf2;stroke-width:2.97449;stroke-linecap:square;stroke-linejoin:round;stroke-miterlimit:4;stroke-dasharray:none;stroke-opacity:1;paint-order:stroke fill markers"
         d="m 466.68495,521.79422 c -0.45377,-0.0943 -0.88359,-2.43546 -0.60707,-3.30669 0.0828,-0.26088 0.0368,-0.77344 -0.10217,-1.13903 -0.22667,-0.59619 -0.38351,-0.6647 -1.52166,-0.6647 -1.10058,0 -1.26894,0.067 -1.26894,0.50508 0,0.41137 -0.16836,0.50507 -0.90753,0.50507 -0.69514,0 -0.93844,0.1182 -1.03961,0.50508 -0.0731,0.27954 -0.34446,0.50507 -0.6077,0.50507 -0.30726,0 -0.47562,-0.17878 -0.47562,-0.50507 0,-0.33672 -0.16836,-0.50508 -0.50508,-0.50508 -0.42089,0 -0.50507,-0.16836 -0.50507,-1.01015 0,-0.91019 0.0627,-1.01015 0.63381,-1.01015 0.3486,0 0.82843,-0.22729 1.06628,-0.50508 0.23785,-0.27779 0.74413,-0.50508 1.12507,-0.50508 0.79745,0 1.21545,-0.59917 1.21545,-1.74228 0,-0.81319 -0.55258,-1.28817 -1.49863,-1.28817 -0.29536,0 -0.52168,-0.16434 -0.52168,-0.37881 0,-0.20834 -0.0932,-0.37881 -0.20705,-0.37881 -0.11388,0 -0.56845,-0.32265 -1.01015,-0.717 -0.91648,-0.81823 -1.05777,-1.55584 -0.29803,-1.55584 0.33672,0 0.50508,-0.16836 0.50508,-0.50508 0,-0.42089 0.16836,-0.50507 1.01015,-0.50507 0.8418,0 1.01015,0.0842 1.01015,0.50507 0,0.32629 0.16836,0.50508 0.47563,0.50508 0.26323,0 0.5346,0.22554 0.6077,0.50507 0.10758,0.41141 0.34447,0.50508 1.27724,0.50508 0.62984,0 1.19948,-0.0879 1.26587,-0.19531 0.0664,-0.10743 0.18808,-1.21544 0.27043,-2.46225 0.10399,-1.57468 0.26448,-2.35255 0.52554,-2.54731 0.2067,-0.15421 0.37582,-0.4099 0.37582,-0.56821 0,-0.15831 0.2841,-0.28783 0.63134,-0.28783 0.55632,0 0.63135,0.10785 0.63135,0.90752 0,0.69514 0.1182,0.93844 0.50508,1.03961 0.45119,0.11799 0.50507,0.34446 0.50507,2.12293 v 1.99085 h 0.88389 c 0.71552,0 0.88388,-0.0962 0.88388,-0.50508 0,-0.41137 0.16836,-0.50507 0.90753,-0.50507 0.69514,0 0.93843,-0.1182 1.0396,-0.50508 0.16042,-0.61343 1.33586,-0.71757 1.33586,-0.11834 0,0.2127 0.17047,0.45215 0.37881,0.53209 0.24432,0.0938 0.37881,0.48444 0.37881,1.10039 0,0.89152 -0.0588,0.96606 -0.88388,1.12085 -0.52909,0.0993 -0.88389,0.31328 -0.88389,0.53318 0,0.20205 -0.22728,0.36737 -0.50507,0.36737 -0.44896,0 -0.50508,0.16836 -0.50508,1.51523 0,1.17851 0.0842,1.51522 0.37881,1.51522 0.20834,0 0.60609,0.22729 0.88388,0.50508 0.27779,0.27779 0.71911,0.50508 0.98071,0.50508 0.29458,0 0.51459,0.2163 0.57797,0.56821 0.15173,0.84256 -0.0333,1.45209 -0.44078,1.45209 -0.19815,0 -0.36029,0.22729 -0.36029,0.50508 0,0.37039 -0.16835,0.50507 -0.63134,0.50507 -0.46299,0 -0.63135,-0.13468 -0.63135,-0.50507 0,-0.32629 -0.16835,-0.50508 -0.47562,-0.50508 -0.26324,0 -0.5346,-0.22554 -0.6077,-0.50507 -0.11027,-0.42169 -0.34447,-0.50508 -1.41841,-0.50508 h -1.28634 v 2.0203 c 0,1.85195 -0.0421,2.02031 -0.50507,2.02031 -0.3263,0 -0.50508,0.16836 -0.50508,0.47564 0,0.48303 -0.73343,0.76402 -1.55092,0.59417 z"
         id="path1021"
         transform="scale(0.26458333)" />
      <path
         style="fill:#b3dbf2;fill-opacity:1;stroke:#b3dbf2;stroke-width:2.97449;stroke-linecap:square;stroke-linejoin:round;stroke-miterlimit:4;stroke-dasharray:none;stroke-opacity:1;paint-order:stroke fill markers"
         d="m 517.22827,542.29278 c 0,-0.22135 -0.22729,-0.46189 -0.50508,-0.53453 -0.45391,-0.1187 -0.50507,-0.34447 -0.50507,-2.22855 0,-1.15306 -0.069,-2.27622 -0.15329,-2.49593 -0.23389,-0.60951 -1.62831,-0.52741 -1.79385,0.10562 -0.0838,0.32052 -0.34446,0.50507 -0.71331,0.50507 -0.84392,0 -1.38017,0.2558 -1.38017,0.65837 0,0.24206 -0.31507,0.35179 -1.01015,0.35179 h -1.01015 v -1.51523 c 0,-1.34687 0.0561,-1.51523 0.50508,-1.51523 0.33671,0 0.50507,-0.16836 0.50507,-0.50508 0,-0.42089 0.16836,-0.50507 1.01015,-0.50507 h 1.01016 v -1.36677 -1.36676 l -1.01016,-0.17066 c -0.62103,-0.10493 -1.01015,-0.30803 -1.01015,-0.52728 0,-0.19613 -0.22728,-0.35661 -0.50507,-0.35661 -0.43025,0 -0.50508,-0.16835 -0.50508,-1.13642 0,-0.85214 0.0967,-1.13642 0.38673,-1.13642 0.21271,0 0.45215,-0.17046 0.5321,-0.37881 0.18911,-0.4928 1.10147,-0.4928 1.10147,0 0,0.20835 0.21404,0.37881 0.47563,0.37881 0.26323,0 0.5346,0.22554 0.6077,0.50508 0.11222,0.42914 0.34447,0.50507 1.54468,0.50507 h 1.41261 v -1.88102 c 0,-1.6277 0.0804,-1.9678 0.59716,-2.52538 0.32845,-0.3544 0.7262,-0.64436 0.88389,-0.64436 0.15769,0 0.29017,-0.14205 0.29439,-0.31567 0.004,-0.17519 0.12223,-0.119 0.26509,0.12627 0.14157,0.24307 0.42222,0.44194 0.62366,0.44194 0.29429,0 0.36626,0.47146 0.36626,2.39911 v 2.39911 h 1.35951 c 1.14712,0 1.38014,-0.0789 1.49158,-0.50507 0.10117,-0.38688 0.34447,-0.50508 1.03961,-0.50508 0.63833,0 0.90753,-0.11236 0.90753,-0.37881 0,-0.49436 0.98166,-0.49436 1.17136,0 0.0799,0.20835 0.30367,0.37881 0.49715,0.37881 0.20689,0 0.35179,0.26006 0.35179,0.63135 0,0.39283 -0.1431,0.63134 -0.3788,0.63134 -0.21045,0 -0.37881,0.22448 -0.37881,0.50508 0,0.33672 -0.16836,0.50507 -0.50508,0.50507 -0.27881,0 -0.50507,0.16836 -0.50507,0.37583 0,0.24318 -0.35653,0.43283 -1.01016,0.53735 l -1.01015,0.16153 v 1.35668 1.35669 h 1.01015 c 0.8418,0 1.01016,0.0842 1.01016,0.50507 0,0.33672 0.16835,0.50508 0.50507,0.50508 0.33672,0 0.50508,0.16836 0.50508,0.50508 0,0.28059 0.16836,0.50507 0.37881,0.50507 0.21044,0 0.3788,0.22448 0.3788,0.50508 0,0.27779 -0.15721,0.50507 -0.34935,0.50507 -0.19215,0 -0.40879,0.22729 -0.48143,0.50508 -0.10495,0.40131 -0.34447,0.50508 -1.16588,0.50508 -0.86544,0 -1.0338,-0.0823 -1.0338,-0.50508 0,-0.33672 -0.16835,-0.50508 -0.50507,-0.50508 -0.27779,0 -0.50508,-0.1583 -0.50508,-0.35178 0,-0.40396 -0.53672,-0.65837 -1.38896,-0.65837 -1.3126,0 -1.38896,0.14563 -1.38896,2.64922 0,2.13025 -0.0458,2.35461 -0.50507,2.47472 -0.2778,0.0726 -0.50508,0.31318 -0.50508,0.53453 0,0.23409 -0.21129,0.40245 -0.50508,0.40245 -0.29378,0 -0.50507,-0.16836 -0.50507,-0.40245 z"
         id="path1027"
         transform="scale(0.26458333)" />
      <path
         style="fill:#b3dbf2;fill-opacity:1;stroke:#b3dbf2;stroke-width:2.97449;stroke-linecap:square;stroke-linejoin:round;stroke-miterlimit:4;stroke-dasharray:none;stroke-opacity:1;paint-order:stroke fill markers"
         d="m 482.12547,542.19015 c 0,-0.33672 -0.16836,-0.50508 -0.50508,-0.50508 -0.46923,0 -0.50508,-0.16835 -0.50508,-2.37209 0,-2.53561 -0.0742,-2.67867 -1.38896,-2.67867 -0.85224,0 -1.38896,0.25441 -1.38896,0.65837 0,0.19348 -0.21962,0.35178 -0.48805,0.35178 -0.26844,0 -0.5602,0.22729 -0.64837,0.50508 -0.1245,0.39228 -0.3821,0.50508 -1.15344,0.50508 -0.82477,0 -0.99313,-0.0856 -0.99313,-0.50508 0,-0.33672 -0.16836,-0.50508 -0.50508,-0.50508 -0.33671,0 -0.50507,-0.16835 -0.50507,-0.50507 0,-0.33672 0.16836,-0.50508 0.50507,-0.50508 0.33672,0 0.50508,-0.16836 0.50508,-0.50507 0,-0.33672 0.16836,-0.50508 0.50508,-0.50508 0.33671,0 0.50507,-0.16836 0.50507,-0.50508 0,-0.42198 0.16836,-0.50507 1.02335,-0.50507 h 1.02335 l -0.0763,-1.31748 c -0.075,-1.29456 -0.0928,-1.32134 -1.02335,-1.54031 -0.53752,-0.12649 -0.94702,-0.3758 -0.94702,-0.57657 0,-0.19454 -0.22728,-0.35372 -0.50507,-0.35372 -0.29379,0 -0.50508,-0.16835 -0.50508,-0.40245 0,-0.22134 -0.22729,-0.46188 -0.50508,-0.53453 -0.70292,-0.18381 -0.70292,-1.33586 0,-1.33586 0.2806,0 0.50508,-0.16836 0.50508,-0.37881 0,-0.2357 0.23851,-0.3788 0.63134,-0.3788 0.39284,0 0.63135,0.1431 0.63135,0.3788 0,0.26208 0.2633,0.37881 0.85443,0.37881 0.64204,0 0.88726,0.12555 0.98651,0.50508 0.11222,0.42914 0.34447,0.50507 1.54468,0.50507 h 1.4126 v -2.371 -2.37101 l 0.90397,-0.16958 c 0.76925,-0.14432 0.99505,-0.0713 1.51523,0.48998 0.53291,0.57503 0.61126,0.90066 0.61126,2.54059 v 1.88102 h 1.37194 c 1.15015,0 1.39786,-0.0816 1.53225,-0.50507 0.0882,-0.27779 0.37993,-0.50508 0.64836,-0.50508 0.26844,0 0.48806,-0.17046 0.48806,-0.37881 0,-0.21044 0.22448,-0.3788 0.50508,-0.3788 0.2806,0 0.50507,0.16836 0.50507,0.3788 0,0.21045 0.22448,0.37881 0.50508,0.37881 0.41946,0 0.50508,0.16836 0.50508,0.99314 0,0.77134 -0.1128,1.02893 -0.50508,1.15344 -0.27779,0.0882 -0.50508,0.31312 -0.50508,0.49989 0,0.19939 -0.41705,0.41005 -1.01015,0.51026 l -1.01015,0.17066 v 1.36676 c 0,1.14145 0.074,1.36677 0.44895,1.36677 0.24693,0 0.64356,0.22728 0.88141,0.50507 0.23786,0.27779 0.71768,0.50508 1.06628,0.50508 0.58283,0 0.63382,0.0914 0.63382,1.13642 0,0.803 -0.10322,1.13642 -0.35179,1.13642 -0.19348,0 -0.4172,0.17047 -0.49715,0.37881 -0.20751,0.54076 -0.99417,0.46801 -1.3653,-0.12627 -0.1966,-0.31481 -0.58892,-0.50508 -1.04144,-0.50508 -0.52171,0 -0.76448,-0.14704 -0.86266,-0.5225 -0.10965,-0.41928 -0.30255,-0.50658 -0.97647,-0.44194 l -0.83984,0.0806 -0.0723,2.46225 c -0.0662,2.25421 -0.11418,2.46224 -0.56821,2.46224 -0.32757,0 -0.49593,0.17147 -0.49593,0.50508 0,0.33672 -0.16836,0.50508 -0.50508,0.50508 -0.33671,0 -0.50507,-0.16836 -0.50507,-0.50508 z"
         id="path1029"
         transform="scale(0.26458333)" />
      <path
         style="fill:#b3dbf2;fill-opacity:1;stroke:#b3dbf2;stroke-width:3.73039;stroke-linecap:square;stroke-linejoin:round;stroke-miterlimit:4;stroke-dasharray:none;stroke-opacity:1;paint-order:stroke fill markers"
         d="m 447.0307,542.35591 c -0.004,-0.25607 -0.23532,-0.52502 -0.51311,-0.59766 -0.27954,-0.0731 -0.50508,-0.34447 -0.50508,-0.60771 0,-0.26159 -0.17046,-0.47562 -0.3788,-0.47562 -0.2924,0 -0.3796,-0.33123 -0.38226,-1.45209 -0.005,-2.18018 -0.17236,-2.58852 -1.0598,-2.58852 -0.52705,0 -0.78943,0.14389 -0.87767,0.48133 -0.0807,0.30851 -0.43966,0.5402 -0.99979,0.64528 -0.48065,0.0902 -0.93691,0.32814 -1.01392,0.52882 -0.41677,1.08608 -2.10629,-0.32099 -2.10629,-1.75416 0,-0.85046 0.0523,-0.91142 0.78126,-0.91142 0.56887,0 0.81716,-0.13731 0.91334,-0.50508 0.10347,-0.39569 0.34446,-0.50507 1.11278,-0.50507 0.95244,0 0.9807,-0.0255 0.9807,-0.88389 0,-0.61731 -0.11425,-0.88388 -0.37881,-0.88388 -0.2097,0 -0.37881,-0.22415 -0.37881,-0.50209 0,-0.3905 -0.22452,-0.538 -1.01015,-0.66362 -0.55638,-0.089 -1.01015,-0.30397 -1.01015,-0.47861 0,-0.17439 -0.22729,-0.37651 -0.50508,-0.44916 -0.40131,-0.10494 -0.50508,-0.34446 -0.50508,-1.16587 0,-0.75999 0.10243,-1.0338 0.38674,-1.0338 0.2127,0 0.45214,-0.17046 0.53209,-0.37881 0.18911,-0.4928 1.10148,-0.4928 1.10148,0 0,0.26645 0.26919,0.37881 0.90753,0.37881 0.70289,0 0.93809,0.11688 1.04307,0.51836 0.11044,0.4223 0.30495,0.5042 1.04965,0.44194 l 0.91409,-0.0764 0.0761,-1.76495 c 0.0524,-1.21618 0.18981,-1.82862 0.44194,-1.96972 0.20124,-0.11262 0.36589,-0.36192 0.36589,-0.554 0,-0.45447 0.79652,-0.69906 1.61088,-0.49467 0.62411,0.15664 0.64587,0.23181 0.71596,2.47245 l 0.0723,2.31089 1.29321,0.0752 c 1.12449,0.0654 1.31086,0.008 1.42845,-0.44195 0.10464,-0.40014 0.34057,-0.51714 1.04277,-0.51714 0.63833,0 0.90752,-0.11236 0.90752,-0.37881 0,-0.20834 0.21513,-0.3788 0.47806,-0.3788 0.26293,0 0.54347,0.17046 0.62342,0.3788 0.0799,0.20835 0.31939,0.37881 0.53209,0.37881 0.28173,0 0.38674,0.26966 0.38674,0.99314 0,0.77134 -0.1128,1.02893 -0.50508,1.15344 -0.27779,0.0882 -0.50508,0.32311 -0.50508,0.52209 0,0.19898 -0.23475,0.36179 -0.52167,0.36179 -0.73461,0 -1.49863,0.45515 -1.49863,0.89277 0,0.20345 -0.17046,0.36992 -0.37881,0.36992 -0.26456,0 -0.37881,0.26657 -0.37881,0.88388 0,0.84618 0.0387,0.88389 0.90753,0.88389 0.69514,0 0.93844,0.1182 1.03961,0.50507 0.0731,0.27954 0.34446,0.50508 0.6077,0.50508 0.26159,0 0.47562,0.17403 0.47562,0.38673 0,0.21271 0.17047,0.45215 0.37881,0.5321 0.5446,0.20898 0.46747,0.72725 -0.21836,1.46727 -0.71976,0.77663 -1.02042,0.79915 -1.8593,0.13928 -0.35316,-0.27779 -0.84081,-0.50508 -1.08367,-0.50508 -0.24286,0 -0.501,-0.22728 -0.57365,-0.50507 -0.14723,-0.56304 -0.98087,-0.66792 -2.05696,-0.25879 -0.54541,0.20736 -0.64778,0.40494 -0.64778,1.25014 0,0.66008 0.13919,1.08175 0.40645,1.23132 0.37357,0.20906 0.37357,0.24007 0,0.38343 -0.28057,0.10766 -0.40645,0.47128 -0.40645,1.17404 0,0.59359 -0.12002,1.01808 -0.28784,1.01808 -0.1583,0 -0.43879,0.19888 -0.62331,0.44194 -0.31749,0.41825 -0.33591,0.41698 -0.34351,-0.0236 z"
         id="path1031"
         transform="scale(0.26458333)" />
      <path
         style="fill:#b3dbf2;fill-opacity:1;stroke:#b3dbf2;stroke-width:2.97449;stroke-linecap:square;stroke-linejoin:round;stroke-miterlimit:4;stroke-dasharray:none;stroke-opacity:1;paint-order:stroke fill markers"
         d="m 537.17878,521.33211 c 0,-0.22135 -0.22728,-0.46188 -0.50508,-0.53453 -0.45119,-0.11799 -0.50507,-0.34446 -0.50507,-2.12293 v -1.99085 h -0.9895 c -1.23381,0 -1.78842,0.20417 -1.78842,0.65836 0,0.19349 -0.23793,0.35179 -0.52872,0.35179 -0.31633,0 -0.58178,0.20289 -0.6608,0.50508 -0.0731,0.27954 -0.34447,0.50507 -0.6077,0.50507 -0.30727,0 -0.47562,-0.17878 -0.47562,-0.50507 0,-0.33672 -0.16836,-0.50508 -0.50508,-0.50508 -0.4209,0 -0.50508,-0.16836 -0.50508,-1.01015 0,-0.84179 0.0842,-1.01015 0.50508,-1.01015 0.33672,0 0.50508,-0.16836 0.50508,-0.50508 0,-0.4209 0.16835,-0.50508 1.01015,-0.50508 0.90913,0 1.01015,-0.0631 1.01015,-0.63134 0,-0.40474 0.14199,-0.63135 0.39558,-0.63135 0.28256,0 0.37275,-0.19842 0.31567,-0.69448 -0.0621,-0.53942 -0.27474,-0.75745 -0.95258,-0.97654 -0.47998,-0.15513 -0.91441,-0.40723 -0.9654,-0.56021 -0.051,-0.15299 -0.4822,-0.35122 -0.95822,-0.44053 -0.80399,-0.15083 -0.86551,-0.23008 -0.86551,-1.11496 0,-0.74021 0.11261,-0.98204 0.50508,-1.08467 0.27779,-0.0727 0.50508,-0.31319 0.50508,-0.53453 0,-0.59856 1.02937,-0.50975 1.18951,0.10262 0.0981,0.37505 0.34447,0.50508 0.95706,0.50508 0.61259,0 0.85898,0.13003 0.95706,0.50507 0.10117,0.38688 0.34446,0.50508 1.0396,0.50508 h 0.90753 v -2.0203 c 0,-1.55851 0.0804,-2.02031 0.35179,-2.02031 0.40717,0 0.65836,-0.53783 0.65836,-1.40961 0,-0.48305 0.13196,-0.61069 0.63135,-0.61069 0.37128,0 0.63134,0.1449 0.63134,0.35178 0,0.19349 0.17046,0.41721 0.37881,0.49715 0.29715,0.11403 0.37881,0.62614 0.37881,2.37563 0,1.39793 0.11309,2.34336 0.30304,2.53331 0.16668,0.16667 0.78405,0.30304 1.37194,0.30304 0.84711,0 1.10216,-0.1048 1.2292,-0.50508 0.0882,-0.27779 0.37994,-0.50507 0.64837,-0.50507 0.3197,0 0.48806,-0.17423 0.48806,-0.50508 0,-0.42089 0.16835,-0.50507 1.01015,-0.50507 0.84179,0 1.01015,0.0842 1.01015,0.50507 0,0.33672 0.16836,0.50508 0.50508,0.50508 0.37039,0 0.50507,0.16836 0.50507,0.63134 0,0.39859 -0.14257,0.63135 -0.38673,0.63135 -0.2127,0 -0.45049,0.16614 -0.52841,0.36919 -0.0779,0.20306 -0.35845,0.438 -0.62342,0.5221 -0.26496,0.0841 -0.48174,0.3157 -0.48174,0.51469 0,0.21428 -0.24898,0.36179 -0.61069,0.36179 -1.15719,0 -1.40962,0.24452 -1.40962,1.36547 0,1.36165 0.33126,1.66498 1.81828,1.66498 1.04382,0 1.21218,0.0702 1.21218,0.50508 0,0.33672 0.16836,0.50508 0.50508,0.50508 0.42089,0 0.50507,0.16836 0.50507,1.01015 0,0.84179 -0.0842,1.01015 -0.50507,1.01015 -0.33672,0 -0.50508,0.16836 -0.50508,0.50508 0,0.34424 -0.16836,0.50507 -0.52872,0.50507 -0.31633,0 -0.58177,-0.20288 -0.6608,-0.50507 -0.0981,-0.37505 -0.34446,-0.50508 -0.95705,-0.50508 -0.61259,0 -0.85898,-0.13003 -0.95706,-0.50507 -0.10173,-0.389 -0.34447,-0.50508 -1.05621,-0.50508 -1.73812,0 -1.90107,0.23887 -1.90107,2.7868 v 2.26396 h -1.01016 c -0.75593,0 -1.01015,-0.10128 -1.01015,-0.40245 z"
         id="path1025"
         transform="scale(0.26458333)" />
      <path
         style="fill:#b3dbf2;fill-opacity:1;stroke:#b3dbf2;stroke-width:2.97449;stroke-linecap:square;stroke-linejoin:round;stroke-miterlimit:4;stroke-dasharray:none;stroke-opacity:1;paint-order:stroke fill markers"
         d="m 501.06583,519.20918 v -2.52538 h -1.38896 c -1.2206,0 -1.38896,0.0612 -1.38896,0.50508 0,0.39067 -0.16836,0.50507 -0.7433,0.50507 -0.48181,0 -0.88159,0.19744 -1.13642,0.56127 -0.30811,0.43988 -0.39313,0.47087 -0.39313,0.14329 0,-0.22989 -0.21501,-0.48623 -0.47781,-0.56964 -0.26279,-0.0834 -0.52994,-0.35099 -0.59365,-0.59464 -0.16809,-0.64279 0.23448,-1.56058 0.68452,-1.56058 0.21859,0 0.38694,-0.21976 0.38694,-0.50508 0,-0.4209 0.16836,-0.50508 1.01016,-0.50508 h 1.01015 v -1.51522 -1.51523 h -0.90753 c -0.69514,0 -0.93843,-0.11821 -1.0396,-0.50508 -0.0727,-0.27779 -0.28163,-0.50508 -0.46442,-0.50508 -0.18278,0 -0.40447,-0.22728 -0.49264,-0.50507 -0.0882,-0.27779 -0.25955,-0.50508 -0.38085,-0.50508 -0.1213,0 -0.0575,-0.31251 0.14173,-0.69448 0.19925,-0.38196 0.36298,-0.83653 0.36383,-1.01015 9.9e-4,-0.19967 0.37278,-0.31567 1.01171,-0.31567 0.8418,0 1.01016,0.0842 1.01016,0.50507 0,0.3137 0.16835,0.50508 0.44432,0.50508 0.24438,0 0.58627,0.22728 0.75976,0.50507 0.23937,0.3833 0.58892,0.50508 1.44971,0.50508 h 1.13428 v -2.52538 c 0,-2.35702 0.0337,-2.52538 0.50507,-2.52538 0.33672,0 0.50508,-0.16836 0.50508,-0.50508 0,-0.67437 0.92238,-0.67437 1.13642,0 0.0882,0.27779 0.32311,0.50508 0.5221,0.50508 0.28537,0 0.36178,0.44901 0.36178,2.12592 0,1.16925 0.069,2.30568 0.15329,2.52538 0.23258,0.60608 2.01047,0.53264 2.55696,-0.10562 0.23785,-0.27779 0.63449,-0.50507 0.88141,-0.50507 0.2806,0 0.44895,-0.18941 0.44895,-0.50508 0,-0.42089 0.16836,-0.50507 1.01016,-0.50507 0.84179,0 1.01015,0.0842 1.01015,0.50507 0,0.33672 0.16836,0.50508 0.50508,0.50508 0.32629,0 0.50507,0.16836 0.50507,0.47562 0,0.26324 -0.22554,0.5346 -0.50507,0.6077 -0.2778,0.0727 -0.50508,0.29993 -0.50508,0.50508 0,0.20515 -0.22728,0.43243 -0.50508,0.50508 -0.27779,0.0726 -0.50507,0.30632 -0.50507,0.51928 0,0.26515 -0.29854,0.41192 -0.94702,0.46559 l -0.94702,0.0784 v 1.38896 1.38895 l 0.94702,0.0784 c 0.64848,0.0537 0.94702,0.20044 0.94702,0.46559 0,0.21296 0.22728,0.44664 0.50507,0.51928 0.2778,0.0727 0.50508,0.28365 0.50508,0.46889 0,0.18524 0.15671,0.42768 0.34824,0.53876 0.26897,0.15597 0.1571,0.38408 -0.49136,1.00197 -0.70497,0.67173 -0.88725,0.7426 -1.13678,0.44194 -0.16344,-0.19694 -0.61093,-0.35808 -0.99441,-0.35808 -0.49108,0 -0.73737,-0.15345 -0.83295,-0.51897 -0.11896,-0.45488 -0.3019,-0.50945 -1.48155,-0.44194 l -1.34584,0.077 -0.0723,2.46224 -0.0723,2.46225 h -1.50608 -1.50608 z"
         id="path1023"
         transform="scale(0.26458333)" />
    </g>
    <text
       xml:space="preserve"
       style="font-size:4.23333px;line-height:1.25;font-family:Webdings;-inkscape-font-specification:Webdings;letter-spacing:0px;word-spacing:0px;stroke-width:0.264583"
       x="11.90625"
       y="5.2916665"
       id="text44"><tspan
         sodipodi:role="line"
         id="tspan42"
         x="11.90625"
         y="5.2916665"
         style="stroke-width:0.264583" /></text>
  </g>
</svg>
