<?xml version="1.0" encoding="UTF-8" standalone="no"?>
<svg
   xmlns:dc="http://purl.org/dc/elements/1.1/"
   xmlns:cc="http://creativecommons.org/ns#"
   xmlns:rdf="http://www.w3.org/1999/02/22-rdf-syntax-ns#"
   xmlns:svg="http://www.w3.org/2000/svg"
   xmlns="http://www.w3.org/2000/svg"
   xmlns:sodipodi="http://sodipodi.sourceforge.net/DTD/sodipodi-0.dtd"
   xmlns:inkscape="http://www.inkscape.org/namespaces/inkscape"
   width="50"
   height="50"
   viewBox="0 0 13.229166 13.229167"
   version="1.1"
   id="svg8"
   inkscape:version="1.0 (4035a4fb49, 2020-05-01)"
   sodipodi:docname="storm.svg">
  <defs
     id="defs2" />
  <sodipodi:namedview
     id="base"
     pagecolor="#ffffff"
     bordercolor="#666666"
     borderopacity="1.0"
     inkscape:pageopacity="0.0"
     inkscape:pageshadow="2"
     inkscape:zoom="5.6"
     inkscape:cx="37.92762"
     inkscape:cy="29.984623"
     inkscape:document-units="mm"
     inkscape:current-layer="layer1"
     inkscape:document-rotation="0"
     showgrid="true"
     units="px"
     inkscape:window-width="1920"
     inkscape:window-height="986"
     inkscape:window-x="-11"
     inkscape:window-y="-11"
     inkscape:window-maximized="1">
    <inkscape:grid
       type="xygrid"
       id="grid10" />
  </sodipodi:namedview>
  <metadata
     id="metadata5">
    <rdf:RDF>
      <cc:Work
         rdf:about="">
        <dc:format>image/svg+xml</dc:format>
        <dc:type
           rdf:resource="http://purl.org/dc/dcmitype/StillImage" />
        <dc:title />
      </cc:Work>
    </rdf:RDF>
  </metadata>
  <g
     inkscape:label="Warstwa 1"
     inkscape:groupmode="layer"
     id="layer1">
    <g
       transform="matrix(0.31085984,0,0,0.31085984,-24.208882,4.6038161)"
       id="g1156">
      <path
         style="fill:#f9f9f9;stroke:#f9f9f9;stroke-width:4.92472;stroke-linecap:square;stroke-linejoin:round;stroke-miterlimit:4;stroke-dasharray:none;stroke-opacity:1;paint-order:stroke fill markers"
         d="m 336.0141,54.469572 c -1.44326,-0.05523 -1.55487,-0.08678 -1.60714,-0.45435 -0.0521,-0.366168 -0.16372,-0.398787 -1.52939,-0.446866 -1.41129,-0.04969 -1.47321,-0.06945 -1.47321,-0.470245 0,-0.456426 -0.38186,-0.631957 -1.38393,-0.636168 -0.49935,-0.0021 -0.58036,-0.06475 -0.58036,-0.448866 0,-0.398785 -0.0733,-0.446428 -0.68661,-0.446428 -0.67895,0 -1.27768,-0.40407 -1.27768,-0.862275 0,-0.115034 -0.23548,-0.209154 -0.52329,-0.209154 -0.40594,0 -0.53609,-0.0897 -0.58036,-0.39996 -0.0314,-0.219981 -0.1776,-0.415522 -0.32492,-0.434538 -1.45632,-0.187987 -1.60714,-0.252878 -1.60714,-0.69145 0,-0.345321 -0.0922,-0.438337 -0.43457,-0.438337 -0.34133,0 -0.44669,-0.105363 -0.49107,-0.491072 -0.0444,-0.385709 -0.16187,-0.503194 -0.54757,-0.547575 -0.3815,-0.0439 -0.49108,-0.150821 -0.49108,-0.479211 0,-0.328389 -0.10957,-0.435314 -0.49107,-0.47921 -0.3669,-0.04222 -0.50684,-0.168363 -0.55345,-0.498897 -0.0343,-0.243318 -0.24622,-0.612766 -0.47091,-0.821 -0.22469,-0.208232 -0.46417,-0.631998 -0.5322,-0.941701 -0.0863,-0.392979 -0.25425,-0.595872 -0.55588,-0.671575 -0.35242,-0.08845 -0.4322,-0.221849 -0.4322,-0.722645 0,-0.418957 -0.13626,-0.740447 -0.42869,-1.011461 -0.23578,-0.218512 -0.45676,-0.596371 -0.49107,-0.839689 -0.0466,-0.330534 -0.18655,-0.45668 -0.55345,-0.498897 -0.47825,-0.05503 -0.49108,-0.08613 -0.49108,-1.190751 0,-1.349138 -0.10969,-1.699173 -0.53249,-1.699173 -0.39875,0 -0.53893,-0.655204 -0.53893,-2.51892 0,-1.347445 -0.0176,-1.407273 -0.44643,-1.514895 l -0.44643,-0.112046 v -3.003936 c 0,-2.979237 0.003,-3.004405 0.40178,-3.060998 0.35476,-0.05038 0.40678,-0.172016 0.44447,-1.039205 0.0983,-2.263597 0.21923,-2.797106 0.68143,-3.0077 0.40626,-0.185102 0.4366,-0.291459 0.4366,-1.530183 0,-1.31953 0.004,-1.33175 0.49108,-1.387757 0.3739,-0.04302 0.50365,-0.164398 0.54382,-0.508723 0.0305,-0.261475 0.21881,-0.525098 0.44643,-0.625 0.31273,-0.137257 0.40486,-0.347173 0.4481,-1.020995 0.0493,-0.768298 0.096,-0.848214 0.49554,-0.848214 0.34628,0 0.46391,-0.114021 0.54719,-0.53043 0.0597,-0.298584 0.25272,-0.576968 0.44155,-0.636902 0.18451,-0.05856 0.38087,-0.322098 0.43637,-0.585641 0.0555,-0.263543 0.13757,-0.659973 0.18239,-0.880955 0.0582,-0.286806 0.20826,-0.401786 0.52451,-0.401786 0.35029,0 0.44302,-0.09097 0.44302,-0.434568 0,-0.341327 0.10537,-0.446691 0.49108,-0.491071 0.3857,-0.04438 0.50319,-0.161866 0.54757,-0.547575 0.0444,-0.385709 0.14974,-0.491072 0.49107,-0.491072 0.33839,0 0.43457,-0.09386 0.43457,-0.424107 0,-0.328373 0.12093,-0.448293 0.53571,-0.53125 0.42192,-0.08438 0.53572,-0.200937 0.53572,-0.548703 0,-0.406775 0.0738,-0.445813 0.9375,-0.495536 0.86987,-0.05008 0.94151,-0.08876 0.99314,-0.5360966 0.0515,-0.4464839 0.12412,-0.4860821 0.98214,-0.5357143 0.80545,-0.046591 0.93396,-0.1060875 0.98357,-0.4553786 0.0479,-0.3371839 0.16756,-0.4017857 0.74432,-0.4017857 0.95738,0 1.25219,-0.1499464 1.25219,-0.6368839 0,-0.4029482 0.0602,-0.4222178 1.47321,-0.4719661 1.3735,-0.048354 1.47708,-0.079059 1.53028,-0.45365 l 0.0571,-0.4017857 h 6.05901 6.05901 v 0.4464286 c 0,0.4220786 0.0536,0.4464286 0.98214,0.4464286 0.85723,0 0.98214,0.044623 0.98214,0.3508607 0,0.5021464 0.53414,0.7205678 1.76212,0.7205678 1.03595,0 1.07317,-0.016214 1.12781,-0.4910714 0.0444,-0.3857089 0.16186,-0.5031946 0.54757,-0.547575 l 0.49107,-0.056504 v -1.505996 c 0,-1.4693928 0.0104,-1.5059964 0.42733,-1.5059964 0.5367,0 0.6441,-0.2820821 0.6441,-1.691675 0,-1.0529411 0.0292,-1.134091 0.44643,-1.2387964 0.32132,-0.080646 0.44643,-0.2323554 0.44643,-0.5413375 0,-0.23889286 0.2376,-0.6668875 0.53571,-0.96500357 0.3631,-0.36309642 0.53572,-0.71276071 0.53572,-1.08516603 0,-0.3634875 0.0885,-0.54945 0.26157,-0.54945 0.3469,0 0.63128,-0.5598338 0.63128,-1.2427248 0,-0.4703852 0.0791,-0.5677459 0.53572,-0.6590609 0.40171,-0.080341 0.53571,-0.2060618 0.53571,-0.5025866 0,-0.2455145 0.16458,-0.4704284 0.43407,-0.5932186 0.33252,-0.1515043 0.46259,-0.3879875 0.55599,-1.0108062 0.10555,-0.7038113 0.17917,-0.8130315 0.54808,-0.8130315 0.35231,0 0.42615,-0.090771 0.42615,-0.5238532 0,-0.4387305 0.0798,-0.5330346 0.49107,-0.5803571 0.34434,-0.03962 0.50746,-0.1715406 0.54593,-0.4414959 0.0334,-0.2343772 0.22552,-0.4278229 0.49108,-0.4944736 0.31592,-0.079293 0.4362,-0.2316409 0.4362,-0.552508 0,-0.3732039 0.0844,-0.4430264 0.53572,-0.4430264 0.47619,0 0.53571,-0.059524 0.53571,-0.5357147 0,-0.47619 0.0595,-0.535714 0.53572,-0.535714 0.44558,0 0.53571,-0.0717 0.53571,-0.426153 0,-0.368877 0.10923,-0.442532 0.81267,-0.54802 0.63755,-0.09561 0.84824,-0.215417 0.97772,-0.55599 0.11466,-0.301569 0.30272,-0.434123 0.61591,-0.434123 0.35604,0 0.45084,-0.08954 0.45084,-0.425853 0,-0.381683 0.10074,-0.438439 0.97123,-0.547199 0.81723,-0.102106 0.98004,-0.183234 1.02679,-0.511648 0.0392,-0.275557 0.19992,-0.406911 0.54663,-0.446804 0.41127,-0.04732 0.49107,-0.141626 0.49107,-0.580357 0,-0.515165 0.0161,-0.523853 0.97052,-0.523853 1.12272,0 1.88662,-0.241204 1.88662,-0.595707 0,-0.163893 0.30282,-0.283267 0.89711,-0.353653 1.07135,-0.126885 1.24575,-0.218036 1.24575,-0.651084 0,-0.292819 0.18939,-0.336233 1.70683,-0.391247 1.4867,-0.0539 1.74579,-0.110995 2.00892,-0.442718 0.28337,-0.357215 0.50646,-0.386703 3.59659,-0.475373 2.65455,-0.07617 3.33281,-0.146937 3.49176,-0.364307 0.17506,-0.239418 0.21746,-0.237739 0.37684,0.01492 0.15104,0.239451 0.72421,0.297742 3.60646,0.366776 3.1224,0.07479 3.42688,0.110034 3.42688,0.396701 0,0.448426 0.34897,0.531402 2.23489,0.531402 h 1.66996 l 0.0565,0.491072 c 0.0534,0.464266 0.11204,0.493979 1.07399,0.544348 0.80345,0.04207 1.03948,0.122536 1.12199,0.382506 0.10706,0.337332 0.58849,0.5396 1.29462,0.543922 0.27077,0.0017 0.43292,0.14004 0.50619,0.431995 0.11059,0.440586 0.5222,0.63514 1.35285,0.639433 0.34552,0.0018 0.49997,0.115016 0.57733,0.423248 0.0869,0.34605 0.27271,0.449155 1.04615,0.580357 0.78073,0.132441 0.95022,0.227812 0.99759,0.561334 0.0413,0.290805 0.17694,0.401785 0.49107,0.401785 0.32098,0 0.43401,0.09705 0.43401,0.372655 0,0.250077 0.17621,0.439167 0.53571,0.574864 0.29464,0.111215 0.53572,0.259209 0.53572,0.328876 0,0.344714 0.62996,0.687891 1.26275,0.687891 0.66043,0 0.70153,0.03139 0.70153,0.535714 0,0.4459057 0.0716,0.5357147 0.42707,0.5357147 0.30592,0 0.45866,0.1258735 0.53844,0.4437089 0.0687,0.2737346 0.28133,0.48637 0.55507,0.5550728 0.31783,0.079772 0.44371,0.2325174 0.44371,0.538434 0,0.3554746 0.0898,0.42707 0.53571,0.42707 0.50433,0 0.53572,0.0411 0.53572,0.7015305 0,0.6490878 0.34483,1.2627552 0.70957,1.2627552 0.0816,0 0.23238,0.2410714 0.3351,0.5357142 0.12567,0.3605213 0.30658,0.5357143 0.55318,0.5357143 0.26738,0 0.36643,0.1154388 0.36643,0.42707 0,0.2974018 0.1254,0.4585438 0.41302,0.5307307 0.33566,0.084245 0.44436,0.2801872 0.58035,1.0461443 0.13847,0.7798295 0.23669,0.9523314 0.56913,0.9995463 0.34436,0.048907 0.40179,0.1650391 0.40179,0.81249978 0,0.81103928 0.23625,1.18400892 0.75,1.18400892 0.25564,0 0.32143,0.14535 0.32143,0.7101696 0,0.5604625 0.0941,0.7718304 0.44642,1.0026804 0.37437,0.2452928 0.44643,0.4319661 0.44643,1.1564286 0,1.0165928 0.28074,1.7252624 0.74139,1.871466 0.2787,0.088455 0.33004,0.2950661 0.33004,1.3281125 0,1.4398393 0.10416,1.7882857 0.53458,1.7882857 0.29243,0 0.32321,0.2990268 0.38552,3.7464646 0.0595,3.288484 0.10633,3.785096 0.38355,4.0625 0.28265,0.282841 0.84503,0.325414 5.3543,0.405321 5.01411,0.08885 5.03933,0.09123 5.21475,0.491071 0.15769,0.359431 0.30302,0.401786 1.37859,0.401786 1.12883,0 1.22651,0.03274 1.59838,0.535714 0.34463,0.466145 0.50765,0.535715 1.25534,0.535715 0.79751,0 0.85928,0.03209 0.85928,0.446428 0,0.376984 0.0833,0.446429 0.53571,0.446429 0.4538,0 0.53572,0.06895 0.53572,0.450893 0,0.350955 0.11079,0.473052 0.49989,0.550871 0.27624,0.05525 0.57585,0.272964 0.66965,0.486607 0.11446,0.260715 0.41691,0.438509 0.92867,0.545929 0.41741,0.08762 0.75893,0.256073 0.75893,0.37435 0,0.373066 0.53333,1.302225 0.80796,1.407611 0.14491,0.0556 0.26347,0.248266 0.26347,0.428135 0,0.41647 0.33662,0.755604 0.75,0.755604 0.23809,0 0.32143,0.138889 0.32143,0.535714 0,0.452381 0.0694,0.535714 0.44642,0.535714 0.40024,0 0.44643,0.0724 0.44643,0.699681 0,0.973034 0.14851,1.264605 0.64411,1.264605 0.39365,0 0.42732,0.07024 0.42732,0.891498 0,0.669129 0.10022,1.006279 0.40179,1.351652 0.33788,0.38697 0.43018,0.791897 0.58035,2.546002 0.16817,1.964305 0.20199,2.089173 0.58036,2.142911 0.36447,0.05176 0.40179,0.154255 0.40179,1.103651 0,0.949397 -0.0373,1.051888 -0.40179,1.103652 -0.33596,0.04771 -0.42116,0.203348 -0.52007,0.94992 -0.0651,0.491071 -0.12532,1.590393 -0.13393,2.442937 -0.0148,1.46604 -0.0374,1.553173 -0.41743,1.607143 -0.34887,0.04955 -0.40881,0.178273 -0.45516,0.977397 -0.0466,0.803564 -0.10817,0.934083 -0.48518,1.028708 -0.36038,0.09045 -0.45103,0.253397 -0.54812,0.985256 -0.0965,0.727525 -0.18876,0.895064 -0.54161,0.983623 -0.30104,0.07556 -0.42528,0.232646 -0.42528,0.537732 0,0.278163 -0.13028,0.472341 -0.36738,0.547593 -0.39681,0.125943 -0.70405,0.747841 -0.70405,1.425089 0,0.32695 -0.10985,0.435766 -0.48401,0.479447 -0.34644,0.04044 -0.51346,0.183394 -0.58761,0.502932 -0.0839,0.3617 -0.2378,0.463375 -0.81064,0.535714 -0.50175,0.06336 -0.75631,0.201541 -0.87677,0.475914 -0.0938,0.213643 -0.39341,0.431359 -0.66965,0.486608 -0.3891,0.07782 -0.49989,0.199916 -0.49989,0.550871 0,0.368079 -0.0864,0.450893 -0.4706,0.450893 -0.27259,0 -0.64467,0.187836 -0.88433,0.446428 -0.22755,0.245536 -0.57171,0.446429 -0.7648,0.446429 -0.622,0 -0.91599,0.206729 -0.91599,0.644105 0,0.3983 -0.0659,0.427324 -0.97052,0.427324 -1.12337,0 -1.88662,0.241242 -1.88662,0.596308 0,0.159672 -0.29509,0.28845 -0.8285,0.361563 -0.45567,0.06245 -12.45293,0.113557 -26.66057,0.113557 h -25.83207 l 0.078,-0.669643 c 0.0438,-0.376168 0.22145,-0.7703 0.40534,-0.899318 0.18004,-0.126321 0.42702,-0.562359 0.54884,-0.968973 0.12183,-0.406614 0.40543,-0.937762 0.63024,-1.18033 0.25702,-0.277332 0.40873,-0.663332 0.40873,-1.039954 0,-0.329409 0.0815,-0.598925 0.1812,-0.598925 0.26287,0 0.88878,-1.093143 0.88956,-1.553626 3.6e-4,-0.216102 0.10947,-0.457174 0.24246,-0.535715 0.32881,-0.1942 0.65106,-0.840377 0.65106,-1.305512 0,-0.210441 0.24108,-0.623691 0.53572,-0.918334 0.3708,-0.370798 0.53571,-0.710664 0.53571,-1.104023 0,-0.370429 0.12148,-0.644172 0.34889,-0.78619 0.19188,-0.119834 0.44992,-0.555112 0.57341,-0.967285 0.12349,-0.412172 0.40845,-0.947868 0.63326,-1.190436 0.25702,-0.277332 0.40873,-0.663332 0.40873,-1.039954 0,-0.329409 0.0815,-0.598925 0.1812,-0.598925 0.26287,0 0.88878,-1.093142 0.88956,-1.553626 3.6e-4,-0.216102 0.10947,-0.457174 0.24246,-0.535715 0.60069,-0.354775 0.88714,-1.888869 0.43678,-2.33923 -0.16042,-0.16042 -2.26721,-0.214286 -8.381,-0.214286 h -8.16671 l -0.0565,0.489545 c -0.0372,0.322248 -0.17855,0.512382 -0.41365,0.556371 -0.48928,0.09155 -0.61907,0.345693 -0.62226,1.21845 -0.002,0.637206 -0.0616,0.754865 -0.40452,0.803572 -0.33005,0.04687 -0.43062,0.219007 -0.56326,0.964078 -0.11656,0.654738 -0.26557,0.952745 -0.53572,1.071429 -0.28913,0.127021 -0.38646,0.35343 -0.42797,0.995548 -0.0458,0.708614 -0.11733,0.8471 -0.48517,0.939423 -0.35952,0.09023 -0.45072,0.253591 -0.54707,0.97987 -0.0907,0.684043 -0.20728,0.913348 -0.54161,1.065678 -0.32876,0.149792 -0.42599,0.334293 -0.42599,0.808317 0,0.785728 -0.15323,1.179148 -0.45925,1.179148 -0.34161,0 -0.61218,0.581246 -0.61218,1.315127 0,0.511487 -0.0726,0.634632 -0.40178,0.681382 -0.33005,0.04687 -0.43062,0.219007 -0.56326,0.964078 -0.11656,0.654738 -0.26557,0.952745 -0.53572,1.071429 -0.28913,0.127021 -0.38646,0.35343 -0.42797,0.995548 -0.0458,0.708614 -0.11733,0.8471 -0.48517,0.939423 -0.3631,0.09113 -0.45067,0.253161 -0.55276,1.022772 -0.0902,0.680094 -0.20665,0.936803 -0.45428,1.001559 -0.18313,0.04789 -0.38098,0.278362 -0.43966,0.512162 l -0.10669,0.425091 -11.00742,-0.03672 c -6.05409,-0.02019 -11.70537,-0.06343 -12.5584,-0.09607 z"
         id="path885"
         transform="scale(0.26458333)" />
      <path
         sodipodi:nodetypes="cscsssssssssssssssssscsssscsssssssssssssssssssssssssscssssssssssssssssssssssssssssscscssssssssssssssssssssssssssssssssssssssssssssssssssssssssssssssssssssssssssssssssssssssssssssssssssssssssssssssssssssssssscsssssssssssssssssssssssssssssssssssssssssssssssscssssssssssssssssssssssssssssssssssssssssssssssssssssssssssssssssssssssssssssscsssssssssssssssssssssssssscsscssssssssssssssssssssssssscssscssssssssssssssscsccccsccsssssssssssssssssssssssscscssssssssssssssssssssssssscssssssssssssssssssssssssssssssssssssssssscccsssssssssssssssssssssssssssssssssssssscsssssscsssssssssssssssssssssssssssscssssssssssssssssssssssssssssssssssccccssssssssssssssscssscssssssssscc"
         style="fill:#000000;stroke:none;stroke-width:0.767379;stroke-linecap:square;stroke-linejoin:round;paint-order:stroke fill markers"
         d="m 309.14108,105.04556 c -0.3595,-0.41036 -0.50748,-0.4432 -1.99707,-0.4432 h -1.60879 l -0.0565,-0.49107 c -0.044,-0.38256 -0.16259,-0.50332 -0.53657,-0.54651 -0.33605,-0.0388 -0.49677,-0.17274 -0.53572,-0.44643 -0.0454,-0.3193 -0.22753,-0.42152 -0.99315,-0.5575 -0.81336,-0.14447 -0.9375,-0.22132 -0.9375,-0.58036 0,-0.33869 -0.0951,-0.41384 -0.52385,-0.41384 -0.43873,0 -0.53303,-0.0798 -0.58036,-0.49107 -0.0396,-0.34434 -0.17154,-0.50747 -0.44149,-0.54594 -0.23438,-0.0334 -0.42783,-0.22551 -0.49448,-0.49107 -0.0783,-0.311893 -0.23235,-0.436207 -0.54064,-0.436207 -0.33762,0 -0.44343,-0.106547 -0.48767,-0.491072 -0.0398,-0.345634 -0.17138,-0.507432 -0.44439,-0.546312 -0.29851,-0.04251 -0.41554,-0.218957 -0.50794,-0.765864 -0.0778,-0.460532 -0.26752,-0.807245 -0.53907,-0.985172 -0.23046,-0.151002 -0.44385,-0.4894 -0.4742,-0.751993 -0.0429,-0.371194 -0.16448,-0.490019 -0.54626,-0.533948 -0.48884,-0.05625 -0.49107,-0.06283 -0.49107,-1.447139 0,-1.238914 -0.0491,-1.443629 -0.45016,-1.876364 l -0.45016,-0.485731 0.0484,-3.51356 c 0.0475,-3.450627 0.0556,-3.516716 0.45016,-3.689833 0.34378,-0.150826 0.40179,-0.312578 0.40179,-1.120491 0,-0.828292 0.0518,-0.963917 0.42201,-1.104669 0.42248,-0.160625 0.6424,-0.635711 0.64698,-1.397629 0.002,-0.264605 0.15377,-0.463743 0.43656,-0.571259 0.33941,-0.129046 0.46038,-0.340164 0.55449,-0.967764 0.0957,-0.638104 0.19892,-0.813909 0.50338,-0.857313 0.26536,-0.03783 0.40004,-0.202114 0.43846,-0.534855 0.0429,-0.371159 0.16456,-0.492853 0.53572,-0.535714 0.34062,-0.03934 0.49683,-0.172195 0.53728,-0.456952 0.0356,-0.250482 0.22027,-0.442464 0.49107,-0.51043 0.30832,-0.07738 0.43405,-0.232643 0.43405,-0.536009 0,-0.35337 0.0904,-0.42707 0.52408,-0.42707 0.82532,0 1.4402,-0.303073 1.4402,-0.709866 0,-0.282689 0.11687,-0.361562 0.53572,-0.361562 0.45238,0 0.53571,-0.06945 0.53571,-0.446429 0,-0.384116 0.081,-0.44677 0.58036,-0.448866 1.00775,-0.0042 1.38393,-0.179118 1.38393,-0.643389 0,-0.368849 0.0849,-0.425602 0.63673,-0.425602 0.74183,0 1.32755,-0.268286 1.32755,-0.608075 0,-0.131102 0.36486,-0.340522 0.81079,-0.465375 0.44594,-0.124854 0.88787,-0.371029 0.98208,-0.547054 0.0942,-0.176025 0.39229,-0.345476 0.66242,-0.376557 0.38334,-0.04411 0.50336,-0.162414 0.54682,-0.539 0.0524,-0.453814 0.11604,-0.485652 1.07142,-0.535714 0.89826,-0.04707 1.02236,-0.0997 1.07282,-0.455011 0.0489,-0.344357 0.16504,-0.401786 0.8125,-0.401786 0.95723,0 1.18401,-0.233789 1.18401,-1.220594 0,-0.615447 0.0995,-0.884263 0.44643,-1.205759 0.41234,-0.382147 0.44643,-0.536193 0.44643,-2.017545 v -1.603809 l 0.49107,-0.0565 c 0.45802,-0.0527 0.4947,-0.119595 0.54504,-0.994004 0.0452,-0.78535 0.1094,-0.9375 0.39551,-0.9375 0.50179,0 0.71123,-0.545264 0.71123,-1.851635 0,-1.426588 -0.22228,-2.076936 -0.70986,-2.076936 -0.24754,0 -0.36157,-0.117529 -0.36157,-0.372654 0,-0.248875 -0.17539,-0.438859 -0.52804,-0.571969 -0.30979,-0.116933 -0.54967,-0.3504 -0.58036,-0.564847 -0.03,-0.209514 -0.20833,-0.387859 -0.41784,-0.417843 -0.21445,-0.03069 -0.44792,-0.270568 -0.56485,-0.580357 -0.13311,-0.35265 -0.32309,-0.528044 -0.57197,-0.528044 -0.27845,0 -0.37265,-0.112854 -0.37265,-0.446429 0,-0.333575 -0.0942,-0.446429 -0.37265,-0.446429 -0.25008,0 -0.43917,-0.176212 -0.57487,-0.535714 -0.14326,-0.379543 -0.32094,-0.535714 -0.60949,-0.535714 -0.31248,0 -0.40728,-0.101205 -0.40728,-0.434804 0,-0.682055 -0.3035,-1.309818 -0.69301,-1.433446 -0.21707,-0.06889 -0.3781,-0.301693 -0.41202,-0.595638 -0.0385,-0.333666 -0.17293,-0.499267 -0.43573,-0.536755 -0.3095,-0.04415 -0.40175,-0.217814 -0.49697,-0.935577 -0.0984,-0.742034 -0.18656,-0.898843 -0.55745,-0.99193 -0.32829,-0.0824 -0.44115,-0.230748 -0.44297,-0.58228 -0.004,-0.769863 -0.19415,-1.256934 -0.5327,-1.364386 -0.23136,-0.07343 -0.35123,-0.366947 -0.43999,-1.077343 -0.11011,-0.881246 -0.16426,-0.976413 -0.55558,-0.976413 -0.41503,0 -0.43358,-0.05015 -0.43358,-1.172453 0,-1.324336 -0.20841,-1.863261 -0.72056,-1.863261 -0.32936,0 -0.35086,-0.131889 -0.35086,-2.151384 0,-2.065432 -0.0178,-2.167912 -0.44643,-2.565119 l -0.44643,-0.413736 v -3.522329 c 0,-3.437501 0.01,-3.53015 0.40178,-3.847121 0.37554,-0.303579 0.40762,-0.497432 0.49108,-2.967445 0.0892,-2.641223 0.0895,-2.642705 0.53571,-2.746853 0.42002,-0.09804 0.45171,-0.188277 0.53571,-1.525464 0.0812,-1.292899 0.12454,-1.426281 0.47959,-1.47682 0.32631,-0.04645 0.40947,-0.208991 0.50723,-0.991397 0.0903,-0.722666 0.20476,-0.974408 0.50255,-1.105157 0.30367,-0.133332 0.3972,-0.349594 0.44006,-1.017532 0.0453,-0.706435 0.11323,-0.848214 0.40621,-0.848214 0.39429,0 0.70008,-0.623643 0.70008,-1.427777 0,-0.394664 0.0919,-0.524718 0.40178,-0.568732 0.268,-0.03806 0.4221,-0.200871 0.4628,-0.488948 0.0335,-0.237538 0.29471,-0.665595 0.58035,-0.951238 0.33102,-0.331014 0.51935,-0.704337 0.51935,-1.0294657 0,-0.4237465 0.0831,-0.519684 0.49108,-0.5666215 0.34433,-0.03962 0.50746,-0.1715393 0.54593,-0.4414964 0.0334,-0.2343768 0.22551,-0.4278214 0.49107,-0.4944732 0.31593,-0.079293 0.43621,-0.2316411 0.43621,-0.5525071 0,-0.3301268 0.095,-0.4430268 0.37265,-0.4430268 0.24888,0 0.43886,-0.1753947 0.57197,-0.5280447 0.11693,-0.3097893 0.3504,-0.5496678 0.56485,-0.5803571 0.21868,-0.031296 0.38788,-0.2093839 0.42118,-0.4432982 0.0389,-0.2736929 0.19966,-0.4076197 0.53571,-0.4464286 0.37399,-0.043191 0.49255,-0.1639536 0.53657,-0.5465143 0.0446,-0.3876696 0.14922,-0.4910714 0.49683,-0.4910714 0.28967,0 0.48971,-0.1335036 0.58467,-0.3902071 0.0922,-0.249134 0.39674,-0.4603268 0.84246,-0.5841554 0.42425,-0.1178661 0.76589,-0.3468893 0.87089,-0.5838232 0.099,-0.2234571 0.36581,-0.4123946 0.625,-0.4426304 0.31027,-0.036196 0.46989,-0.1770142 0.50851,-0.4486339 0.0429,-0.3019161 0.21246,-0.421775 0.71428,-0.5049839 0.99827,-0.1655286 1.13056,-0.2319 1.2315,-0.61789643 0.0595,-0.22770357 0.24369,-0.35624107 0.51035,-0.35624107 0.60881,0 1.30431,-0.3619125 1.42475,-0.74138571 0.0657,-0.20683214 0.27399,-0.33004286 0.55809,-0.33004286 0.27087,0 0.59468,-0.17968749 0.8045,-0.44642853 0.30219,-0.3841679 0.49506,-0.4464286 1.38298,-0.4464286 1.2616,0 2.10596,-0.2735839 2.25057,-0.7292107 0.0931,-0.2933714 0.28323,-0.3422179 1.33198,-0.3422179 1.45447,0 1.78828,-0.103566 1.78828,-0.5548196 0,-0.3684054 0.48858,-0.3926929 8.57143,-0.4260929 1.71875,-0.00711 3.22545,-0.075295 3.34821,-0.1515392 0.12277,-0.076245 0.22322,-0.2816983 0.22322,-0.4565661 0,-0.1748679 0.20089,-0.4094732 0.44643,-0.5213482 0.37765,-0.1720679 0.44643,-0.3243572 0.44643,-0.9884839 0,-0.7294518 0.038,-0.7926697 0.53571,-0.8922215 0.43414,-0.086829 0.53571,-0.197216 0.53571,-0.5822018 0,-0.2783053 0.1863,-0.6477142 0.44982,-0.8919339 0.2474,-0.2292803 0.49721,-0.6538535 0.55514,-0.9434928 0.072,-0.3598661 0.24053,-0.5605554 0.53233,-0.6337911 0.29158,-0.073182 0.427,-0.2342446 0.427,-0.5078513 0,-0.242615 0.157,-0.470222 0.39799,-0.576956 0.24936,-0.110444 0.47083,-0.443021 0.59305,-0.890559 0.11758,-0.43057 0.34638,-0.782914 0.57604,-0.887065 0.21369,-0.09691 0.40415,-0.371351 0.43374,-0.625 0.0402,-0.344325 0.16991,-0.465702 0.54382,-0.508724 0.38571,-0.04438 0.49107,-0.149744 0.49107,-0.491072 0,-0.321549 0.0969,-0.434567 0.37266,-0.434567 0.25008,0 0.43916,-0.176213 0.57486,-0.535715 0.14326,-0.379543 0.32094,-0.535714 0.60949,-0.535714 0.31538,0 0.40728,-0.100729 0.40728,-0.446428 0,-0.310847 0.0976,-0.446429 0.32143,-0.446429 0.4114,0 0.75,-0.338595 0.75,-0.75 0,-0.223809 0.13558,-0.321429 0.44643,-0.321429 0.35832,0 0.44642,-0.08899 0.44642,-0.450892 0,-0.358135 0.11021,-0.472935 0.53572,-0.558036 0.41479,-0.08296 0.53571,-0.202877 0.53571,-0.53125 0,-0.334453 0.0953,-0.424107 0.4509,-0.424107 0.35813,0 0.47293,-0.110208 0.55803,-0.535715 0.0995,-0.497756 0.16277,-0.535714 0.89222,-0.535714 0.65972,0 0.81689,-0.06981 0.98429,-0.437215 0.10957,-0.240468 0.369,-0.46145 0.57653,-0.491071 0.25983,-0.03709 0.39464,-0.203978 0.43296,-0.535977 0.0515,-0.446486 0.12412,-0.486083 0.98214,-0.535715 0.79679,-0.04609 0.93428,-0.108237 0.98206,-0.443893 0.0466,-0.327561 0.20933,-0.409512 1.01213,-0.509817 0.81246,-0.101509 0.97275,-0.183952 1.06392,-0.547199 0.088,-0.35063 0.22145,-0.427684 0.74068,-0.427684 0.8023,0 1.32414,-0.275777 1.32414,-0.699766 0,-0.280442 0.17896,-0.341452 1.19046,-0.40586 0.97831,-0.06229 1.23676,-0.145553 1.45035,-0.467231 0.19438,-0.292755 0.43743,-0.391429 0.96414,-0.391429 0.88107,0 1.39505,-0.265481 1.39505,-0.720569 0,-0.322964 0.12871,-0.35086 1.61889,-0.35086 1.64623,0 2.30968,-0.176003 2.30968,-0.612718 0,-0.188154 0.59458,-0.272119 2.63393,-0.37196 2.6902,-0.131705 3.25893,-0.257012 3.25893,-0.718033 0,-0.217997 0.44261,-0.261574 2.65679,-0.261574 2.5522,0 2.66723,0.01572 2.92192,0.399298 0.25072,0.377614 0.44101,0.408269 3.50392,0.564493 2.45861,0.125401 3.2388,0.221273 3.2388,0.397991 0,0.426363 0.67523,0.602503 2.30969,0.602503 1.50643,0 1.61888,0.02511 1.61888,0.361563 0,0.477889 0.64571,0.709866 1.97591,0.709866 1.01141,0 1.05981,0.02039 1.05981,0.446429 0,0.422077 0.0536,0.446428 0.98214,0.446428 0.91686,0 0.98214,0.0284 0.98214,0.427324 0,0.493136 0.29187,0.644105 1.24525,0.644105 0.57675,0 0.69738,0.06796 0.79237,0.446428 0.0798,0.318158 0.23292,0.446429 0.53275,0.446429 0.90752,0 1.53677,0.220674 1.53677,0.53893 0,0.370707 0.34521,0.532498 1.13617,0.532498 0.47074,0 0.60683,0.09426 0.77346,0.535715 0.12828,0.339859 0.32797,0.535714 0.5462,0.535714 0.19363,0 0.4329,0.195132 0.5474,0.446429 0.17266,0.378946 0.32366,0.446428 0.99894,0.446428 0.73512,0 0.79983,0.0373 0.85205,0.491072 0.0444,0.385708 0.16186,0.503194 0.54757,0.547575 0.3815,0.0439 0.49107,0.150822 0.49107,0.47921 0,0.326694 0.10994,0.435541 0.48401,0.479211 0.34641,0.04044 0.51348,0.183417 0.58768,0.502932 0.0656,0.282446 0.24856,0.467389 0.49813,0.503491 0.25769,0.03728 0.39447,0.181971 0.39447,0.417298 0,0.235114 0.1834,0.429462 0.52804,0.559549 0.30979,0.116932 0.54967,0.3504 0.58036,0.564846 0.0318,0.222131 0.20982,0.387901 0.4538,0.422555 0.25095,0.03564 0.44249,0.220357 0.51082,0.492625 0.0642,0.25562 0.28141,0.47879 0.52579,0.540127 0.24715,0.06203 0.43877,0.261044 0.47132,0.489517 0.0348,0.243892 0.20474,0.406248 0.46379,0.44299 0.28868,0.04094 0.43964,0.211593 0.51339,0.580357 0.0803,0.401479 0.20262,0.522359 0.52858,0.522359 0.34302,0 0.42457,0.09389 0.42654,0.491072 0.004,0.850628 0.20501,1.295086 0.63366,1.402669 0.28218,0.07082 0.43241,0.255804 0.46974,0.578404 0.0387,0.3347411 0.17309,0.4910732 0.45667,0.5313464 0.26503,0.037641 0.40178,0.1796768 0.40178,0.4172983 0,0.23505 0.18336,0.4294428 0.52764,0.5593928 0.4765,0.1798607 0.53274,0.2865125 0.58035,1.1005607 0.0446,0.7618447 0.11128,0.9097572 0.43095,0.955375 0.30479,0.043495 0.40881,0.2341929 0.53572,0.9821429 0.12913,0.7610714 0.22821,0.9382303 0.55033,0.9840589 0.33866,0.048182 0.40023,0.1836482 0.44643,0.9821428 0.0499,0.8622393 0.0875,0.9301572 0.54465,0.9827554 0.46772,0.053818 0.49108,0.1021 0.49108,1.0151607 0,1.13773571 0.24397,1.87476427 0.62058,1.87476427 0.21035,0 0.27632,0.23351072 0.29007,1.02678573 0.0246,1.4212053 0.18711,1.9084178 0.65917,1.9767053 0.36571,0.052904 0.39446,0.1521732 0.39446,1.3620643 0,0.8652429 0.0797,1.3711411 0.2365,1.501275 0.13007,0.1079518 0.81311,0.2498661 1.51786,0.3153661 0.88278,0.082045 1.28136,0.1924767 1.28136,0.3550214 0,0.4295393 0.67157,0.6056393 2.30969,0.6056393 1.58845,0 1.61888,0.00804 1.61888,0.4273232 0,0.4951714 0.29162,0.6441053 1.2612,0.6441053 0.59377,0 0.71277,0.065725 0.80833,0.4464286 0.10218,0.4071357 0.19678,0.4464286 1.07483,0.4464286 0.90595,0 0.96278,0.026152 0.96278,0.4430268 0,0.4489212 0.18665,0.5486192 1.25,0.6676962 0.25754,0.02884 0.51968,0.216906 0.61957,0.444495 0.0952,0.216977 0.33554,0.417869 0.53404,0.446428 0.1985,0.02856 0.46649,0.272908 0.59553,0.542997 0.20246,0.423734 0.34042,0.491071 1.00614,0.491071 0.71437,0 0.77944,0.03967 0.87865,0.535715 0.0851,0.425507 0.1999,0.535714 0.55803,0.535714 0.36191,0 0.4509,0.08811 0.4509,0.446428 0,0.374738 0.0841,0.446429 0.52385,0.446429 0.43873,0 0.53303,0.0798 0.58036,0.491071 0.0399,0.346925 0.17122,0.507399 0.44731,0.546695 0.24037,0.03421 0.41221,0.203236 0.44643,0.439109 0.0346,0.23833 0.2246,0.422723 0.50205,0.487152 0.3189,0.07405 0.46251,0.241339 0.50273,0.585601 0.031,0.265065 0.28476,0.710395 0.56399,0.989624 0.27923,0.27923 0.53515,0.702039 0.5687,0.939576 0.0401,0.283911 0.19497,0.450952 0.45199,0.487534 0.27369,0.03895 0.40762,0.199665 0.44643,0.535715 0.0432,0.373985 0.16395,0.492551 0.54651,0.536569 0.46853,0.05391 0.49108,0.101043 0.49108,1.026786 0,0.910396 0.027,0.970282 0.43709,0.970282 0.40139,0 0.44151,0.07659 0.49107,0.9375 0.0503,0.874409 0.087,0.941302 0.54505,0.994004 l 0.49107,0.0565 v 1.481647 c 0,1.33623 0.0431,1.524794 0.43965,1.921289 0.40361,0.403616 0.4495,0.621464 0.5599,2.65828 0.12468,2.300245 0.25904,2.843634 0.70316,2.843634 0.2147,0 0.26158,0.371452 0.26158,2.072515 0,1.997991 -0.0161,2.085141 -0.44643,2.423675 -0.36218,0.284887 -0.4466,0.508792 -0.44735,1.186414 -5.4e-4,0.459389 -0.0533,1.625502 -0.11721,2.59136 -0.1077,1.626554 -0.14716,1.767845 -0.53479,1.915224 -0.3679,0.139875 -0.41851,0.276128 -0.41851,1.126793 0,0.828708 -0.0769,1.050037 -0.53571,1.541162 -0.44415,0.475463 -0.53572,0.722864 -0.53572,1.447457 0,0.813189 -0.031,0.873972 -0.44643,0.873972 -0.42141,0 -0.44642,0.05436 -0.44642,0.970282 0,0.925743 -0.0225,0.972875 -0.49108,1.026785 -0.38256,0.04402 -0.50332,0.162584 -0.54651,0.53657 -0.0388,0.33605 -0.17274,0.496761 -0.44643,0.535714 -0.25702,0.03658 -0.41189,0.203624 -0.45199,0.487534 -0.0336,0.237538 -0.29472,0.665595 -0.58036,0.951238 -0.33101,0.331014 -0.51935,0.704337 -0.51935,1.029466 0,0.423746 -0.0831,0.519684 -0.49107,0.566621 -0.34692,0.03992 -0.5074,0.171218 -0.54669,0.447309 -0.0347,0.243466 -0.20297,0.411775 -0.44643,0.446429 -0.27355,0.03893 -0.40745,0.199719 -0.44627,0.535877 -0.0429,0.371158 -0.16455,0.492853 -0.53571,0.535714 -0.34074,0.03935 -0.49683,0.17218 -0.53732,0.457246 -0.0373,0.262365 -0.17991,0.401786 -0.41107,0.401786 -0.22763,0 -0.41658,0.179455 -0.52924,0.502659 -0.1382,0.396421 -0.33437,0.53795 -0.92821,0.669643 -0.50602,0.112214 -0.80966,0.296103 -0.92577,0.560657 -0.0999,0.227623 -0.36352,0.415927 -0.625,0.446428 -0.30396,0.03546 -0.47001,0.177499 -0.50649,0.433259 -0.0414,0.290534 -0.22017,0.407029 -0.75588,0.492693 -0.46693,0.07467 -0.79707,0.257897 -0.98702,0.547806 -0.22342,0.340976 -0.46655,0.44731 -1.11913,0.48945 -0.6533,0.04219 -0.87034,0.137278 -1.00302,0.439466 -0.13054,0.297326 -0.38229,0.412241 -1.09941,0.501839 -0.78606,0.09821 -0.94674,0.182518 -1.03756,0.544384 -0.1003,0.399616 -0.19968,0.431653 -1.48987,0.480303 -1.21987,0.046 -1.40237,0.09759 -1.55216,0.438756 -0.16597,0.378034 -0.76427,0.595514 -1.63829,0.595514 -0.36271,0 -0.4241,0.0873 -0.4241,0.603136 0,0.331723 -0.12054,0.703169 -0.26786,0.825435 -0.14732,0.122267 -0.26786,0.323159 -0.26786,0.446429 0,0.12327 0.12054,0.324163 0.26786,0.446429 0.34587,0.287044 0.34587,1.003282 0,1.136005 -0.40262,0.154498 -0.40262,11.565566 0,11.899709 0.34316,0.284796 0.34316,0.786632 0,1.071428 -0.21831,0.181177 -0.26786,0.767775 -0.26786,3.17092 0,1.621739 -0.0798,3.440025 -0.17744,4.040634 -0.0976,0.600611 -0.22546,2.026655 -0.28415,3.168991 -0.10136,1.973004 -0.12823,2.086782 -0.53684,2.272957 -0.36937,0.168295 -0.43014,0.319729 -0.43014,1.071843 0,0.723911 -0.0616,0.891964 -0.35499,0.968691 -0.38486,0.100643 -0.71644,0.784829 -0.71644,1.478304 0,0.314362 -0.098,0.434803 -0.35374,0.434803 -0.22528,0 -0.39313,0.156936 -0.4622,0.43215 -0.1499,0.597261 -2.02272,2.603563 -2.43034,2.603563 -0.18304,0 -0.42433,0.20089 -0.53621,0.44643 -0.11187,0.24554 -0.35321,0.44643 -0.53631,0.44643 -0.19078,0 -0.40535,0.19058 -0.50263,0.44643 -0.0961,0.25266 -0.31216,0.44643 -0.49788,0.44643 -0.18049,0 -0.55502,0.23679 -0.8323,0.52621 -0.29744,0.31046 -0.72925,0.54841 -1.05318,0.58036 -0.41731,0.0412 -0.57389,0.16124 -0.65264,0.50057 -0.0975,0.42008 -0.18748,0.45169 -1.52488,0.53571 -1.30624,0.0821 -1.42588,0.1218 -1.47832,0.49107 -0.0567,0.39912 -0.0777,0.40179 -3.16964,0.40179 -2.59104,0 -3.11258,-0.0431 -3.11258,-0.25732 0,-0.43108 -0.3758,-0.54253 -2.14286,-0.63554 -1.69281,-0.0891 -1.69655,-0.0903 -1.75293,-0.58035 -0.0446,-0.38722 -0.14935,-0.49108 -0.49549,-0.49108 -0.30063,0 -0.49101,-0.13682 -0.60405,-0.43412 -0.12882,-0.33884 -0.34015,-0.46038 -0.96289,-0.55377 -0.64409,-0.0966 -0.81856,-0.20219 -0.90536,-0.54801 -0.0773,-0.30812 -0.23188,-0.42838 -0.55054,-0.42838 -0.30757,0 -0.44303,-0.0983 -0.44303,-0.32143 0,-0.579 -0.38618,-0.75008 -1.6875,-0.74756 -1.63309,0.003 -2.04274,0.12454 -2.17309,0.6439 -0.0734,0.29246 -0.2339,0.42509 -0.51441,0.42509 -0.27923,0 -0.44096,0.13247 -0.51322,0.42039 -0.0808,0.32176 -0.28432,0.45793 -0.86757,0.58036 -0.52653,0.11052 -0.81654,0.28414 -0.93834,0.56175 -0.1201,0.27375 -0.32971,0.40178 -0.65778,0.40178 -0.39253,0 -0.49195,0.0907 -0.53801,0.49108 -0.056,0.4866 -0.0709,0.49188 -1.63537,0.58035 -1.36163,0.077 -1.62355,0.14457 -1.90362,0.49107 -0.31445,0.38903 -0.42416,0.40179 -3.45336,0.40179 -3.10852,0 -3.12897,-0.003 -3.18566,-0.40179 -0.0525,-0.36927 -0.17209,-0.40901 -1.47833,-0.49107 -1.33722,-0.084 -1.42742,-0.11568 -1.52538,-0.53571 -0.0749,-0.32118 -0.25231,-0.47148 -0.63231,-0.53572 -0.2905,-0.0491 -0.75439,-0.29017 -1.03085,-0.53571 -0.27647,-0.24554 -0.67826,-0.4899 -0.89286,-0.54303 -0.22656,-0.0561 -0.41412,-0.26204 -0.44726,-0.49108 -0.0401,-0.27727 -0.18025,-0.39446 -0.47171,-0.39446 -0.28825,0 -0.4473,-0.13007 -0.52174,-0.42668 -0.063,-0.25102 -0.28274,-0.47077 -0.53373,-0.53376 -0.23466,-0.0589 -0.47047,-0.27464 -0.52402,-0.47943 -0.0536,-0.204794 -0.24843,-0.411853 -0.43305,-0.460133 -0.18463,-0.04828 -0.42468,-0.323566 -0.53346,-0.611747 -0.13173,-0.349007 -0.32221,-0.523966 -0.57043,-0.523966 -0.27768,0 -0.37265,-0.1129 -0.37265,-0.443026 0,-0.323634 -0.12031,-0.473222 -0.44643,-0.555074 -0.33429,-0.0839 -0.44704,-0.230532 -0.44887,-0.583759 -0.004,-0.832225 -0.20826,-1.276542 -0.63516,-1.383689 -0.35896,-0.09009 -0.42371,-0.231371 -0.46973,-1.024832 l -0.0534,-0.920334 -1.02214,-0.05342 c -1.15688,-0.06046 -1.74572,0.170496 -1.74572,0.684698 0,0.236681 -0.12127,0.350861 -0.37265,0.350861 -0.24888,0 -0.43886,0.175395 -0.57197,0.528045 -0.11693,0.309789 -0.3504,0.549667 -0.56485,0.580357 -0.20951,0.02998 -0.38786,0.208328 -0.41784,0.417843 -0.0307,0.214446 -0.27057,0.447914 -0.58036,0.564846 -0.35265,0.133111 -0.52804,0.323095 -0.52804,0.57197 0,0.25916 -0.11386,0.372653 -0.37386,0.372653 -0.22613,0 -0.41151,0.143952 -0.46913,0.364295 -0.0524,0.20036 -0.32612,0.483675 -0.60828,0.629585 -0.30217,0.156256 -0.51302,0.410195 -0.51302,0.617849 0,0.238401 -0.12066,0.352557 -0.37265,0.352557 -0.24888,0 -0.43886,0.175394 -0.57197,0.528051 -0.11693,0.30979 -0.3504,0.54967 -0.56485,0.58035 -0.21663,0.031 -0.38788,0.20914 -0.42039,0.43731 -0.0333,0.23359 -0.22533,0.42777 -0.48835,0.49379 -0.26011,0.0653 -0.47701,0.28218 -0.54229,0.54229 -0.066,0.26302 -0.2602,0.45506 -0.49379,0.48835 -0.24145,0.0344 -0.40626,0.20457 -0.44202,0.45635 -0.0356,0.25095 -0.22036,0.44249 -0.49263,0.51082 -0.25349,0.0636 -0.47874,0.28124 -0.5388,0.52054 -0.0577,0.22978 -0.28393,0.45656 -0.51283,0.51401 -0.22528,0.0565 -0.45187,0.2644 -0.50352,0.4619 -0.0929,0.35527 -0.22227,0.3591 -12.12185,0.3591 h -12.02794 l -0.17627,-0.40179 c -0.15744,-0.35884 -0.32232,-0.40732 -1.54265,-0.45362 -1.26358,-0.0479 -1.37427,-0.0833 -1.47127,-0.46973 -0.10831,-0.43155 -0.55119,-0.63248 -1.40343,-0.63671 -0.36621,-0.002 -0.49107,-0.0906 -0.49107,-0.34904 0,-0.43239 -0.15859,-0.53115 -1.11333,-0.69331 -0.6025,-0.10233 -0.7736,-0.21244 -0.81873,-0.52687 -0.0438,-0.30514 -0.17589,-0.3975 -0.5685,-0.3975 -0.42518,0 -0.52096,-0.0828 -0.56794,-0.49107 -0.055,-0.47843 -0.089,-0.49241 -1.32056,-0.54292 -1.43109,-0.0587 -2.21078,0.16393 -2.34285,0.66896 -0.0496,0.18973 -0.26282,0.36956 -0.47379,0.39964 -0.21097,0.0301 -0.46291,0.23548 -0.55986,0.45646 -0.0969,0.22098 -0.31731,0.40179 -0.48969,0.40179 -0.17238,0 -0.5244,0.23678 -0.78226,0.52618 -0.32514,0.36492 -0.66763,0.5428 -1.11745,0.58036 -0.55876,0.0467 -0.65644,0.1222 -0.70512,0.54524 -0.0563,0.48959 -0.0608,0.49107 -1.46981,0.49107 -1.3586,0 -1.41764,0.0173 -1.52535,0.44643 l -0.11205,0.44643 -2.97171,-0.003 c -2.93888,-0.003 -2.97601,-0.008 -3.35999,-0.44643 z m 79.5238,-41.023557 7.44224,-7.455357 h 7.7379 c 4.25585,0 7.73791,0.0625 7.73791,0.138886 -24.31294,12.701738 4.80977,30.203226 4.82169,-0.138886 h 6.67151 c 3.66933,0 7.04433,-0.0511 7.5,-0.113557 0.71533,-0.09805 0.82849,-0.170234 0.82849,-0.528493 0,-0.396477 0.0655,-0.417241 1.47322,-0.4668 1.45284,-0.05115 1.47398,-0.05853 1.52885,-0.533986 0.0515,-0.446484 0.12413,-0.486082 0.98215,-0.535714 0.80545,-0.04659 0.93395,-0.106088 0.98356,-0.455379 0.0348,-0.244932 0.18124,-0.401785 0.37514,-0.401785 0.60868,0 1.4289,-0.389192 1.53682,-0.729211 0.0597,-0.18822 0.24784,-0.342218 0.41801,-0.342218 0.39632,0 0.73797,-0.341725 0.73797,-0.738139 0,-0.204965 0.16593,-0.328659 0.49107,-0.366072 0.34693,-0.03992 0.5074,-0.171218 0.54669,-0.447309 0.0347,-0.243466 0.20297,-0.411775 0.44643,-0.446428 0.27355,-0.03893 0.40745,-0.19972 0.44627,-0.535877 0.0429,-0.371159 0.16455,-0.492854 0.53571,-0.535714 0.34062,-0.03934 0.49684,-0.172195 0.53728,-0.456952 0.0354,-0.249359 0.22009,-0.442418 0.48737,-0.5095 0.35725,-0.08966 0.44972,-0.254141 0.54447,-0.968386 0.0943,-0.710928 0.18801,-0.878916 0.53942,-0.967116 0.30047,-0.07541 0.42529,-0.232737 0.42529,-0.53603 0,-0.238893 0.2376,-0.666888 0.53571,-0.965004 0.46462,-0.464621 0.53572,-0.665307 0.53572,-1.512235 0,-0.892695 0.0383,-0.98614 0.44643,-1.088567 l 0.44642,-0.112046 v -2.833203 c 0,-2.825034 10e-4,-2.834047 0.44643,-3.125715 0.58374,-0.382482 0.60889,-1.221666 0.0484,-1.614268 -0.37388,-0.26188 -0.4022,-0.433282 -0.46622,-2.822625 -0.0689,-2.570971 -0.1917,-3.168814 -0.65095,-3.168814 -0.18233,0 -0.26757,-0.285811 -0.30621,-1.026786 -0.0504,-0.967078 -0.0816,-1.030021 -0.53568,-1.082426 -0.44648,-0.05153 -0.48608,-0.124122 -0.53571,-0.982143 -0.0452,-0.780656 -0.11193,-0.934841 -0.42417,-0.979475 -0.29456,-0.04211 -0.40445,-0.243572 -0.53572,-0.982143 -0.13463,-0.75753 -0.23736,-0.939448 -0.55612,-0.984818 -0.27369,-0.03895 -0.40762,-0.199664 -0.44643,-0.535714 -0.0428,-0.370959 -0.16459,-0.492672 -0.5357,-0.535527 -0.37116,-0.04286 -0.49285,-0.164555 -0.53571,-0.535714 -0.0388,-0.336157 -0.17272,-0.496943 -0.44627,-0.535877 -0.24346,-0.03465 -0.41177,-0.202963 -0.44643,-0.446429 -0.0393,-0.276091 -0.19976,-0.407391 -0.54669,-0.447309 -0.38723,-0.04456 -0.49107,-0.149337 -0.49107,-0.495535 0,-0.343148 -0.11487,-0.462006 -0.52597,-0.544225 -0.35848,-0.0717 -0.54328,-0.226643 -0.58035,-0.486607 -0.0441,-0.309145 -0.23203,-0.41155 -0.9919,-0.540458 -0.71378,-0.121091 -0.9375,-0.233716 -0.9375,-0.471966 0,-0.381375 -0.34869,-0.529705 -1.24524,-0.529705 -0.56699,0 -0.69804,-0.07057 -0.78665,-0.423645 -0.11868,-0.472866 -0.67364,-0.647783 -2.05523,-0.647783 -0.68758,0 -0.85811,-0.06821 -1.00446,-0.401786 -0.17509,-0.399079 -0.20875,-0.402388 -4.9977,-0.491072 l -4.82143,-0.08929 -0.0893,-3.392857 c -0.0882,-3.351729 -0.0942,-3.3935487 -0.49107,-3.4499201 -0.37577,-0.053368 -0.40178,-0.1435464 -0.40178,-1.3927964 0,-1.381075 -0.28399,-2.2546196 -0.79697,-2.4514678 -0.20852,-0.080018 -0.27446,-0.3883483 -0.27446,-1.2833804 0,-1.2561125 -0.20698,-1.86886427 -0.63128,-1.86886427 -0.15314,0 -0.26158,-0.16856964 -0.26158,-0.40663214 0,-0.22364822 -0.24107,-0.67057143 -0.53571,-0.99316428 -0.34276,-0.37527321 -0.53572,-0.77712501 -0.53572,-1.11568931 0,-0.4450946 -0.0851,-0.5461785 -0.53571,-0.6363 -0.50698,-0.1013964 -0.53572,-0.1536518 -0.53572,-0.9742767 0,-0.7662715 -0.0498,-0.8796393 -0.42837,-0.9746483 -0.34583,-0.086798 -0.45143,-0.2612642 -0.54802,-0.9053589 -0.0921,-0.6140535 -0.2165,-0.8346643 -0.54009,-0.9576928 -0.23944,-0.091034 -0.44555,-0.3369679 -0.47876,-0.571259 -0.0373,-0.2634035 -0.19863,-0.4313785 -0.44831,-0.4669232 -0.26579,-0.037836 -0.4267,-0.2226625 -0.50526,-0.5803571 -0.0877,-0.3994661 -0.2157,-0.5248411 -0.53566,-0.5248411 -0.32585,0 -0.43308,-0.110425 -0.47688,-0.4910714 -0.0444,-0.3857089 -0.16187,-0.5031946 -0.54757,-0.547575 -0.37872,-0.043577 -0.49108,-0.1515036 -0.49108,-0.4717125 0,-0.2908053 -0.13004,-0.4478503 -0.43404,-0.5241483 -0.2708,-0.06797 -0.4555,-0.259948 -0.49108,-0.51043 -0.0408,-0.287368 -0.1966,-0.417552 -0.54809,-0.457995 -0.38065,-0.0438 -0.49107,-0.151034 -0.49107,-0.476883 0,-0.319958 -0.12538,-0.447916 -0.52484,-0.535654 -0.3577,-0.07856 -0.54252,-0.239473 -0.58036,-0.505259 -0.0378,-0.265541 -0.19982,-0.40682 -0.50773,-0.442741 -0.26148,-0.0305 -0.5251,-0.218806 -0.625,-0.446429 -0.11598,-0.264252 -0.41961,-0.448419 -0.92357,-0.560198 -0.55503,-0.123108 -0.76454,-0.262782 -0.80357,-0.535714 -0.034,-0.237939 -0.21034,-0.391405 -0.49596,-0.431677 -0.24375,-0.03437 -0.7086,-0.295528 -1.033,-0.580357 -0.3672,-0.322403 -0.78968,-0.51787 -1.11933,-0.51787 -0.40698,0 -0.5295,-0.08104 -0.5295,-0.35026 0,-0.262549 -0.19005,-0.398909 -0.75893,-0.544531 -1.14287,-0.292554 -1.20535,-0.32357 -1.20535,-0.598357 0,-0.361239 -0.40016,-0.471138 -1.71546,-0.471138 -1.04463,0 -1.16527,-0.03878 -1.31071,-0.421313 -0.1899,-0.499467 -0.77581,-0.650115 -2.52847,-0.650115 -1.15697,0 -1.23043,-0.02454 -1.33632,-0.446429 l -0.11205,-0.446428 h -7.93518 -7.93519 l -0.44643,0.446428 c -0.39597,0.395967 -0.59619,0.446429 -1.77138,0.446429 -1.21754,0 -1.37442,0.04343 -1.9351,0.535714 -0.46238,0.405974 -0.7847,0.535714 -1.3309,0.535714 -0.93408,0 -1.28567,0.143821 -1.28567,0.525917 0,0.238411 -0.23491,0.346387 -1.02679,0.471966 -0.86936,0.137866 -1.03553,0.224433 -1.08384,0.564617 -0.0408,0.287342 -0.17738,0.401786 -0.47945,0.401786 -0.67602,0 -1.28215,0.300985 -1.38304,0.686762 -0.0605,0.231207 -0.27358,0.377624 -0.60476,0.415486 -0.36354,0.04156 -0.52719,0.16921 -0.56601,0.44147 -0.0434,0.304493 -0.21922,0.407689 -0.85767,0.503431 -0.61291,0.09191 -0.84991,0.223212 -1.00085,0.554497 -0.12675,0.27818 -0.34659,0.434068 -0.61214,0.434068 -0.29047,0 -0.4471,0.130423 -0.52384,0.43621 -0.0666,0.265557 -0.2601,0.457672 -0.49448,0.491071 -0.26744,0.03811 -0.40192,0.201491 -0.44045,0.535116 -0.0429,0.371159 -0.16455,0.492853 -0.53571,0.535714 -0.37419,0.04321 -0.49274,0.163918 -0.53676,0.546532 -0.0436,0.378714 -0.1515,0.491072 -0.47171,0.491072 -0.29397,0 -0.44793,0.130362 -0.52726,0.4464281 -0.0729,0.2905607 -0.23709,0.4464286 -0.47021,0.4464286 -0.2184,0 -0.42486,0.1754428 -0.52911,0.4496303 -0.094,0.2472982 -0.37328,0.5265589 -0.62058,0.6205804 -0.27418,0.1042464 -0.44963,0.3107018 -0.44963,0.5291107 0,0.2331107 -0.15586,0.3972803 -0.44643,0.4702071 -0.31926,0.080129 -0.44642,0.2327286 -0.44642,0.5357143 0,0.3011768 -0.12704,0.4555518 -0.4394,0.53395 -0.34342,0.086193 -0.47102,0.2722125 -0.58416,0.8516161 -0.0996,0.5102678 -0.2688,0.7962767 -0.54274,0.9176071 -0.21889,0.09695 -0.39799,0.3147643 -0.39799,0.4840304 0,0.1692678 -0.12332,0.4113732 -0.27405,0.5380125 -0.71127,0.5975892 -0.79738,0.7460857 -0.79738,1.3750607 0,0.5393267 -0.0862,0.7121196 -0.43407,0.8706428 -0.33406,0.1522089 -0.4626,0.38805358 -0.55792,1.02366786 -0.0966,0.6443125 -0.21712,0.86135535 -0.54807,0.98718392 -0.39395,0.14977857 -0.42422,0.25579286 -0.42422,1.48563572 0,1.2459839 -0.0252,1.3306607 -0.42509,1.4310375 -0.50171,0.1259196 -0.64059,0.5445589 -0.6439,1.9409553 -0.002,1.0161054 -0.008,1.0267857 -0.5263,1.0267857 -0.43873,0 -0.53303,-0.079796 -0.58035,-0.4910714 -0.0531,-0.4611214 -0.11621,-0.49445 -1.03541,-0.5464821 -0.68481,-0.038764 -1.07524,-0.1588232 -1.29958,-0.3996232 -0.17638,-0.1893179 -0.49927,-0.3877072 -0.71753,-0.4408661 -0.21826,-0.053159 -3.12899,-0.07422 -6.46827,-0.046804 l -6.07143,0.049846 -0.17627,0.4017858 c -0.15609,0.3557732 -0.3057,0.4017857 -1.30639,0.4017857 -1.28396,0 -1.82091,0.2124821 -1.82091,0.7205678 0,0.3062375 -0.12491,0.3508607 -0.98214,0.3508607 -0.92858,0 -0.98215,0.02435 -0.98215,0.4464286 0,0.4002321 -0.0724,0.4464286 -0.69968,0.4464286 -0.96906,0 -1.2646,0.14835 -1.2646,0.6347732 0,0.377875 -0.0893,0.4231714 -0.93025,0.4719661 -0.8256,0.047904 -0.94189,0.104191 -1.03384,0.5004035 -0.0742,0.3195357 -0.24118,0.4624893 -0.58762,0.5029322 -0.37407,0.04367 -0.48401,0.1525178 -0.48401,0.4792105 0,0.328389 -0.10957,0.435314 -0.49107,0.479211 -0.38571,0.04438 -0.50319,0.161866 -0.54757,0.547575 -0.0444,0.385709 -0.14975,0.491071 -0.49108,0.491071 -0.33839,0 -0.43456,0.09386 -0.43456,0.424107 0,0.328373 -0.12093,0.448293 -0.53572,0.53125 -0.4207,0.08414 -0.53571,0.201281 -0.53571,0.545616 0,0.316032 -0.11015,0.454407 -0.39447,0.495536 -0.24736,0.03578 -0.43292,0.221113 -0.49758,0.496979 -0.0646,0.275682 -0.26735,0.478312 -0.54304,0.542766 -0.35594,0.08322 -0.45052,0.229859 -0.4955,0.768185 -0.0411,0.492108 -0.19222,0.766352 -0.58035,1.053316 -0.31745,0.2347 -0.52478,0.551084 -0.52478,0.800827 0,0.24352 -0.10728,0.412847 -0.26157,0.412847 -0.36115,0 -0.63128,0.568082 -0.63128,1.327546 0,0.558838 -0.0542,0.636739 -0.44303,0.636739 -0.51125,0 -0.60217,0.25379 -0.67172,1.875 -0.0402,0.937629 -0.0932,1.078166 -0.42398,1.125377 -0.4469,0.06378 -0.60007,0.946555 -0.60258,3.472838 -0.001,1.252455 -0.0534,1.5625 -0.26313,1.5625 -0.49015,0 -0.63128,0.689032 -0.63128,3.082132 0,2.319862 0.0133,2.40386 0.44643,2.810725 0.40689,0.382255 0.44734,0.555016 0.45672,1.950769 0.015,2.230329 0.1722,2.947061 0.66176,3.017007 0.36553,0.05223 0.39938,0.153154 0.39938,1.190752 0,1.416722 0.10689,1.698614 0.6441,1.698614 0.37801,0 0.42733,0.08075 0.42733,0.699681 0,0.930057 0.14677,1.264605 0.55482,1.264605 0.23131,0 0.33824,0.126852 0.3387,0.401786 7.2e-4,0.456923 0.6218,1.5625 0.87771,1.5625 0.0931,0 0.19476,0.217803 0.22583,0.484009 0.0405,0.346505 0.18334,0.513389 0.50294,0.587419 0.3196,0.07403 0.46248,0.240915 0.50293,0.58742 0.0437,0.374072 0.15252,0.484009 0.47921,0.484009 0.32839,0 0.43531,0.109571 0.47921,0.491071 0.0444,0.385709 0.16187,0.503195 0.54758,0.547575 0.3857,0.04438 0.49107,0.149745 0.49107,0.491072 0,0.338393 0.0939,0.434568 0.4241,0.434568 0.32838,0 0.4483,0.120927 0.53125,0.535714 0.0841,0.4207 0.20128,0.535714 0.54562,0.535714 0.31876,0 0.45405,0.109699 0.49554,0.401786 0.0403,0.283573 0.1966,0.417934 0.53134,0.45667 0.3226,0.03733 0.50758,0.187559 0.57841,0.469734 0.10758,0.42865 0.55204,0.629433 1.40267,0.633658 0.36826,0.0018 0.49107,0.09018 0.49107,0.353299 0,0.443935 0.50965,0.720568 1.32754,0.720568 0.56014,0 0.63674,0.0537 0.63674,0.446428 0,0.422079 0.0536,0.446429 0.98215,0.446429 0.73214,0 0.98214,0.06493 0.98214,0.255101 0,0.567 0.53636,0.816327 1.75612,0.816327 1.06788,0 1.21364,0.04271 1.37118,0.401786 0.14532,0.331245 0.34087,0.411262 1.11377,0.455761 0.98161,0.05651 0.99565,0.06821 0.82872,0.690543 -0.0823,0.306619 -0.28666,0.412508 -0.98054,0.507942 -22.85246,8.777774 5.91075,35.978972 5.91075,-0.984603 h 9.01786 9.01785 v 0.493369 c 0,0.340367 -0.1246,0.548036 -0.40178,0.669643 -0.29188,0.128052 -0.44661,0.408313 -0.56565,1.024488 -0.0901,0.466518 -0.225,0.848214 -0.29974,0.848214 -0.34565,0 -0.69711,0.622184 -0.69711,1.234091 0,0.541543 -0.0857,0.711938 -0.43934,0.873045 -0.35224,0.160489 -0.46302,0.378607 -0.55873,1.100093 -0.0759,0.572203 -0.20625,0.899914 -0.35794,0.899914 -0.31596,0 -0.60828,0.570396 -0.60828,1.186909 0,0.318425 -0.16388,0.626775 -0.45757,0.860955 -0.31051,0.247595 -0.48941,0.602289 -0.55666,1.103661 -0.0724,0.539966 -0.20884,0.788814 -0.50687,0.924603 -0.29374,0.133836 -0.44409,0.401363 -0.53764,0.956618 -0.0767,0.455527 -0.30311,0.931684 -0.55341,1.164084 -0.51233,0.475673 -0.52171,0.606625 -0.0824,1.149459 l 0.3412,0.421568 7.1588,0.05576 c 3.93735,0.03067 7.15881,0.08476 7.15881,0.120193 0,0.03544 -0.24108,0.305501 -0.53572,0.600144 -0.33955,0.339548 -0.53684,0.720565 -0.5388,1.040523 -0.002,0.302579 -0.18069,0.673274 -0.44643,0.925336 -0.2475,0.23477 -0.44654,0.62917 -0.4506,0.892857 -0.004,0.259781 -0.24506,0.750543 -0.53571,1.090584 -0.29065,0.340039 -0.52846,0.811573 -0.52846,1.047854 0,0.23628 -0.24107,0.704166 -0.53571,1.039744 -0.29465,0.335581 -0.53572,0.804102 -0.53572,1.041159 0,0.237059 -0.20089,0.647782 -0.44643,0.91272 -0.25338,0.273402 -0.44642,0.696146 -0.44642,0.977607 0,0.312907 -0.19769,0.693589 -0.53572,1.031616 -0.31307,0.313077 -0.53571,0.723582 -0.53571,0.987763 0.62522,11.105443 19.00914,-14.484673 28.15312,-19.219211 z"
         id="path887"
         transform="scale(0.26458333)" />
      <path
         style="fill:#ffcc00;stroke:#ffcc00;stroke-width:3.79087;stroke-linecap:square;stroke-linejoin:round;stroke-miterlimit:4;stroke-dasharray:none;stroke-opacity:1;paint-order:stroke fill markers"
         d="m 359.45787,89.926897 c -0.0133,-0.492502 0.0651,-0.683911 0.31224,-0.762361 0.35994,-0.114241 0.74139,-0.80788 0.74139,-1.348173 0,-0.187343 0.20089,-0.541516 0.44643,-0.787052 0.27567,-0.275675 0.44642,-0.649184 0.44642,-0.976523 0,-0.3509 0.1811,-0.711191 0.53572,-1.065809 0.31307,-0.313077 0.53571,-0.723582 0.53571,-0.987762 0,-0.248627 0.19907,-0.651117 0.44238,-0.89442 0.25287,-0.252879 0.49213,-0.753557 0.55853,-1.168832 0.0716,-0.447436 0.21198,-0.726459 0.36562,-0.726459 0.29989,0 0.59776,-0.717672 0.59776,-1.440197 0,-0.342751 0.0911,-0.524089 0.26327,-0.524089 0.30282,0 0.80816,-0.882662 0.80816,-1.411587 0,-0.196841 0.20089,-0.558786 0.44643,-0.804322 0.30505,-0.30505 0.44642,-0.643118 0.44642,-1.067512 0,-0.470016 0.0894,-0.649443 0.36738,-0.737682 0.37721,-0.119725 0.70405,-0.741574 0.70405,-1.339549 0,-0.185569 0.19557,-0.532967 0.4346,-0.771994 0.52358,-0.523579 0.75858,-1.583118 0.48453,-2.184591 l -0.19718,-0.432763 h -6.92476 -6.92476 l 0.064,-0.804253 c 0.0513,-0.644641 0.16671,-0.877411 0.58165,-1.172875 0.42173,-0.300299 0.51768,-0.499463 0.51768,-1.074574 0,-0.579728 0.0798,-0.742325 0.44643,-0.90936 0.33491,-0.152599 0.44703,-0.341215 0.44886,-0.755102 0.004,-0.904297 0.18727,-1.331593 0.59613,-1.389873 0.32838,-0.04681 0.39134,-0.189577 0.43755,-0.992177 0.0488,-0.847404 0.094,-0.9375 0.47025,-0.9375 0.45251,0 0.62981,-0.38352 0.63405,-1.371509 0.002,-0.452109 0.0844,-0.579575 0.40423,-0.625 0.35003,-0.04971 0.40874,-0.17783 0.45576,-0.994562 0.0433,-0.752759 0.11547,-0.9375 0.36607,-0.9375 0.51754,0 0.74067,-0.383588 0.74067,-1.273295 0,-0.740054 0.0498,-0.851793 0.40178,-0.901786 0.35003,-0.04971 0.40874,-0.17783 0.45576,-0.994562 0.0433,-0.752759 0.11548,-0.9375 0.36608,-0.9375 0.50342,0 0.74066,-0.377033 0.74066,-1.17707 0,-0.641633 0.0613,-0.763892 0.42956,-0.856311 0.35643,-0.08946 0.44996,-0.256134 0.54939,-0.979067 0.0934,-0.678963 0.2131,-0.913755 0.54245,-1.063817 0.34499,-0.157187 0.43269,-0.349938 0.4774,-1.04922 0.046,-0.719472 0.1162,-0.865414 0.43836,-0.911335 0.41108,-0.0586 0.59217,-0.48575 0.59612,-1.406118 0.002,-0.452108 0.0844,-0.579575 0.40422,-0.625 0.35003,-0.04971 0.40874,-0.17783 0.45576,-0.994562 0.0452,-0.785351 0.10941,-0.9375 0.39551,-0.9375 0.43188,0 0.71123,-0.513815 0.71123,-1.308188 0,-0.500534 0.0801,-0.637479 0.4231,-0.723572 0.34954,-0.08773 0.44311,-0.25707 0.53821,-0.973976 0.0918,-0.692072 0.20501,-0.908743 0.55905,-1.070054 0.38707,-0.176359 0.44393,-0.317124 0.44393,-1.098953 0,-0.781292 0.0465,-0.896686 0.36156,-0.896686 0.40679,0 0.70987,-0.614884 0.70987,-1.440196 v -0.524089 h 6.59591 6.59592 l -0.10126,0.669642 c -0.0557,0.368304 -0.29029,0.873443 -0.52132,1.122532 -0.23103,0.249089 -0.47341,0.719684 -0.53863,1.045767 -0.0652,0.326083 -0.30771,0.796963 -0.53888,1.046401 -0.23159,0.249892 -0.42031,0.676182 -0.42031,0.949425 0,0.312908 -0.19769,0.693589 -0.53572,1.031617 -0.33955,0.339548 -0.53684,0.720564 -0.5388,1.040522 -0.002,0.30258 -0.18069,0.673273 -0.44643,0.925336 -0.2475,0.234769 -0.44654,0.62917 -0.4506,0.892857 -0.004,0.259781 -0.24506,0.750544 -0.53571,1.090584 -0.29305,0.342843 -0.52846,0.826148 -0.52846,1.084944 0,0.266148 -0.19066,0.645805 -0.44369,0.883518 -0.24403,0.229257 -0.49535,0.692136 -0.55847,1.028622 -0.0631,0.336485 -0.30543,0.81751 -0.53845,1.068944 -0.2344,0.252921 -0.42367,0.678698 -0.42367,0.953056 0,0.312908 -0.19769,0.693589 -0.53572,1.031617 -0.33955,0.339548 -0.53684,0.720563 -0.5388,1.040522 -0.002,0.305181 -0.18184,0.674409 -0.4551,0.933688 -0.37754,0.358207 -0.44324,0.564188 -0.3987,1.25 l 0.0533,0.82112 9.46428,0.09166 c 5.20536,0.05041 9.2793,0.11068 9.05321,0.133928 -0.27498,0.02828 -0.47167,0.216115 -0.59412,0.56737 -0.11449,0.328409 -0.3284,0.545798 -0.57107,0.580357 -0.24454,0.03483 -0.40912,0.203825 -0.44508,0.457045 -0.0341,0.239893 -0.18157,0.401786 -0.36607,0.401786 -0.39578,0 -0.73758,0.341807 -0.73758,0.73758 0,0.184498 -0.1619,0.332002 -0.40179,0.366071 -0.24426,0.03469 -0.42229,0.200368 -0.4541,0.422593 -0.0307,0.214447 -0.27056,0.447914 -0.58035,0.564847 -0.35265,0.13311 -0.52805,0.323094 -0.52805,0.571969 0,0.256756 -0.11396,0.372654 -0.36643,0.372654 -0.24495,0 -0.42712,0.17408 -0.54948,0.525098 -0.11449,0.328409 -0.3284,0.545798 -0.57107,0.580357 -0.24454,0.03483 -0.40912,0.203825 -0.44508,0.457045 -0.0341,0.239893 -0.18157,0.401785 -0.36607,0.401785 -0.39578,0 -0.73758,0.341808 -0.73758,0.737581 0,0.184498 -0.1619,0.332002 -0.40179,0.366071 -0.24426,0.03469 -0.42229,0.200368 -0.4541,0.422593 -0.0307,0.214447 -0.27056,0.447914 -0.58035,0.564847 -0.35265,0.13311 -0.52805,0.323094 -0.52805,0.571969 0,0.256756 -0.11396,0.372654 -0.36643,0.372654 -0.24495,0 -0.42712,0.17408 -0.54948,0.525098 -0.11449,0.328409 -0.3284,0.545798 -0.57107,0.580357 -0.24454,0.03483 -0.40912,0.203825 -0.44508,0.457045 -0.0341,0.239893 -0.18157,0.401785 -0.36607,0.401785 -0.16996,0 -0.40544,0.09643 -0.5233,0.214286 -0.11785,0.117857 -0.21428,0.353339 -0.21428,0.523295 0,0.184498 -0.1619,0.332002 -0.40179,0.366071 -0.24426,0.03469 -0.42229,0.200368 -0.4541,0.422593 -0.0307,0.214447 -0.27056,0.447914 -0.58035,0.564847 -0.35265,0.13311 -0.52805,0.323094 -0.52805,0.571969 0,0.256756 -0.11396,0.372654 -0.36643,0.372654 -0.24495,0 -0.42712,0.17408 -0.54948,0.525098 -0.11449,0.328409 -0.3284,0.545798 -0.57107,0.580357 -0.24454,0.03483 -0.40912,0.203825 -0.44508,0.457045 -0.0376,0.26503 -0.17968,0.401785 -0.4173,0.401785 -0.23511,0 -0.42946,0.183406 -0.55955,0.528045 -0.11693,0.309789 -0.3504,0.549668 -0.56484,0.580357 -0.20952,0.02998 -0.38786,0.208329 -0.41785,0.417843 -0.0307,0.214446 -0.27056,0.447914 -0.58035,0.564846 -0.35265,0.133111 -0.52805,0.323095 -0.52805,0.57197 0,0.256755 -0.11396,0.372654 -0.36643,0.372654 -0.24495,0 -0.42712,0.17408 -0.54948,0.525098 -0.11449,0.328409 -0.3284,0.545798 -0.57107,0.580357 -0.24454,0.03483 -0.40912,0.203825 -0.44508,0.457045 -0.0376,0.26503 -0.17968,0.401785 -0.4173,0.401785 -0.23511,0 -0.42946,0.183406 -0.55955,0.528045 -0.11693,0.309789 -0.3504,0.549668 -0.56484,0.580357 -0.20952,0.02998 -0.38786,0.208329 -0.41785,0.417843 -0.0307,0.214446 -0.27056,0.447914 -0.58035,0.564846 -0.35265,0.133111 -0.52805,0.323095 -0.52805,0.57197 0,0.256755 -0.11396,0.372654 -0.36643,0.372654 -0.24495,0 -0.42712,0.17408 -0.54948,0.525098 -0.11449,0.328409 -0.3284,0.545798 -0.57107,0.580357 -0.24454,0.03483 -0.40912,0.203825 -0.44508,0.457045 -0.0376,0.26503 -0.17968,0.401785 -0.4173,0.401785 -0.23511,0 -0.42946,0.183406 -0.55955,0.528045 -0.11693,0.309789 -0.3504,0.549668 -0.56484,0.580357 -0.20952,0.02998 -0.38786,0.208329 -0.41785,0.417843 -0.0307,0.214446 -0.27056,0.447914 -0.58035,0.564846 -0.35265,0.133111 -0.52805,0.323095 -0.52805,0.57197 0,0.256755 -0.11396,0.372654 -0.36643,0.372654 -0.24495,0 -0.42712,0.17408 -0.54948,0.525098 -0.11449,0.328409 -0.3284,0.545798 -0.57107,0.580357 -0.24454,0.03483 -0.40912,0.203825 -0.44508,0.457045 -0.0376,0.26503 -0.17968,0.401785 -0.4173,0.401785 -0.23511,0 -0.42946,0.183406 -0.55955,0.528045 -0.11468,0.303836 -0.35141,0.550257 -0.55752,0.580357 -0.20517,0.02996 -0.41095,0.243041 -0.48166,0.498741 -0.10649,0.385086 -0.1259,0.35607 -0.14125,-0.21118 z"
         id="path889"
         transform="scale(0.26458333)" />
      <path
         style="fill:#00ccff;stroke:#00ccff;stroke-width:3.79087;stroke-linecap:square;stroke-linejoin:round;stroke-miterlimit:4;stroke-dasharray:none;stroke-opacity:1;paint-order:stroke fill markers"
         d="m 311.10537,95.045565 c -0.33049,-0.377237 -0.54393,-0.443202 -1.43407,-0.443202 -0.998,0 -1.05503,-0.02448 -1.248,-0.535714 -0.13569,-0.359502 -0.32478,-0.535715 -0.57486,-0.535715 -0.27519,0 -0.37266,-0.11305 -0.37266,-0.43224 0,-0.335072 -0.12043,-0.458691 -0.53571,-0.549903 -0.50637,-0.111217 -0.53571,-0.165605 -0.53571,-0.992929 0,-0.784691 -0.0462,-0.886861 -0.44643,-0.987313 -0.44351,-0.111313 -0.44643,-0.125359 -0.44643,-2.146259 v -2.034213 h 0.44643 c 0.36847,0 0.44643,-0.08616 0.44643,-0.49337 0,-0.340366 0.1246,-0.548035 0.40178,-0.669643 0.27151,-0.119115 0.45505,-0.416205 0.56605,-0.91622 0.15957,-0.718789 0.18887,-0.743211 1.02486,-0.854109 0.72093,-0.09563 0.87855,-0.185662 0.97117,-0.554696 0.0779,-0.31041 0.23328,-0.440533 0.52601,-0.440533 0.62958,0 1.33155,-0.317091 1.33155,-0.601475 0,-0.271172 0.37068,-0.469954 0.87634,-0.469954 0.17127,0 0.49605,-0.196541 0.72172,-0.436758 0.22567,-0.240218 0.66156,-0.4612 0.96863,-0.491072 0.45713,-0.04447 0.5684,-0.141685 0.61395,-0.536433 0.0515,-0.446486 0.12413,-0.486082 0.98215,-0.535715 0.80545,-0.04659 0.93396,-0.106088 0.98356,-0.455379 0.0403,-0.283981 0.17777,-0.401786 0.46875,-0.401786 1.02239,0 1.50677,-0.211474 1.58039,-0.689984 0.0398,-0.258902 0.0845,2.723467 0.0992,6.627484 l 0.0267,7.098215 h -0.45089 c -0.35509,0 -0.47299,0.110468 -0.55487,0.519897 -0.0623,0.311603 -0.2447,0.556696 -0.45522,0.611748 -0.19318,0.05052 -0.39413,0.255867 -0.44655,0.456331 -0.0524,0.200465 -0.25196,0.414197 -0.44341,0.474961 -0.19145,0.06076 -0.42021,0.300171 -0.50836,0.532016 -0.13629,0.358481 -0.30171,0.429652 -1.10584,0.475792 -0.82501,0.04734 -0.95285,0.105482 -1.00263,0.45604 -0.0516,0.363272 -0.1543,0.401477 -1.07143,0.398559 -0.85443,-0.0027 -1.07559,-0.07311 -1.40264,-0.446428 z"
         id="path891"
         transform="scale(0.26458333)" />
      <path
         style="fill:#00ccff;stroke:#00ccff;stroke-width:3.79087;stroke-linecap:square;stroke-linejoin:round;stroke-miterlimit:4;stroke-dasharray:none;stroke-opacity:1;paint-order:stroke fill markers"
         d="m 331.31277,75.093434 c -0.14005,-0.319222 -0.3455,-0.412762 -0.99982,-0.455205 -0.67369,-0.0437 -0.85984,-0.13306 -1.02296,-0.491071 -0.10967,-0.240709 -0.31487,-0.437652 -0.456,-0.437652 -0.14112,0 -0.52454,-0.290505 -0.85204,-0.645567 -0.3275,-0.355063 -0.81643,-0.869445 -1.08652,-1.143074 -0.34888,-0.353445 -0.49107,-0.679898 -0.49107,-1.127391 0,-0.595847 -0.36335,-1.191111 -0.72705,-1.191111 -0.0912,0 -0.16581,-0.47849 -0.16581,-1.063312 0,-0.896103 0.0702,-1.133513 0.44643,-1.50974 0.30259,-0.302592 0.44643,-0.643704 0.44643,-1.058718 0,-0.460875 0.0878,-0.635247 0.35499,-0.705123 0.19524,-0.05106 0.44109,-0.321591 0.54632,-0.601184 0.23342,-0.62017 0.99888,-1.311923 1.45172,-1.311923 0.18325,0 0.42473,-0.200893 0.5366,-0.446428 0.1319,-0.289492 0.34907,-0.446429 0.61777,-0.446429 0.29027,0 0.44709,-0.130403 0.52365,-0.435451 0.0913,-0.363629 0.26119,-0.459529 1.03019,-0.581434 0.76444,-0.121181 0.93059,-0.214063 0.97796,-0.546692 0.0478,-0.335935 0.16816,-0.400709 0.74432,-0.400709 0.95648,0 1.25219,-0.149906 1.25219,-0.634773 0,-0.378342 0.0889,-0.423111 0.9375,-0.471966 0.79165,-0.04558 0.94574,-0.111626 0.99047,-0.424551 0.0421,-0.294561 0.24357,-0.404451 0.98215,-0.535715 0.76678,-0.136277 0.93914,-0.235356 0.98623,-0.566923 0.0444,-0.312281 0.17363,-0.401786 0.58035,-0.401786 h 0.5233 v 5.470594 5.470595 l -0.44643,0.413736 c -0.38861,0.360153 -0.44643,0.565164 -0.44643,1.582977 0,1.060073 -0.0342,1.169241 -0.36643,1.169241 -0.24379,0 -0.42685,0.173318 -0.54695,0.517824 -0.0993,0.284804 -0.34213,0.56009 -0.53967,0.611748 -0.19754,0.05166 -0.40097,0.253795 -0.45207,0.449194 -0.0511,0.195399 -0.28498,0.40348 -0.51974,0.462401 -0.25729,0.06457 -0.47108,0.283386 -0.53821,0.550838 -0.0995,0.396619 -0.2037,0.443709 -0.98146,0.443709 -0.77917,0 -0.8818,0.04665 -0.98214,0.446429 -0.10299,0.410346 -0.19366,0.446428 -1.12177,0.446428 -0.87585,0 -1.0331,-0.05327 -1.186,-0.401786 z"
         id="path893"
         transform="scale(0.26458333)" />
      <path
         style="fill:#00ccff;stroke:#00ccff;stroke-width:3.79087;stroke-linecap:square;stroke-linejoin:round;stroke-miterlimit:4;stroke-dasharray:none;stroke-opacity:1;paint-order:stroke fill markers"
         d="m 336.31277,95.093434 c -0.13435,-0.306232 -0.34614,-0.41268 -0.89056,-0.447593 -1.48688,-0.09535 -1.84901,-0.214876 -1.90799,-0.629742 -0.04,-0.281446 -0.19824,-0.412212 -0.54736,-0.452383 -0.36759,-0.04229 -0.49169,-0.154557 -0.49351,-0.446428 -0.005,-0.741692 -0.22663,-1.221533 -0.63736,-1.377694 -0.34793,-0.132283 -0.42089,-0.304632 -0.46667,-1.102371 -0.0473,-0.825014 -0.10548,-0.95285 -0.45604,-1.002637 -0.35433,-0.05032 -0.40178,-0.160561 -0.40178,-0.933383 0,-0.737692 0.0706,-0.922595 0.44643,-1.168832 0.3706,-0.242831 0.44643,-0.434018 0.44643,-1.125682 0,-0.761761 0.0459,-0.850501 0.53571,-1.035379 0.35137,-0.132629 0.53571,-0.326167 0.53571,-0.562444 0,-0.237622 0.13676,-0.379657 0.40179,-0.417298 0.25395,-0.03607 0.42221,-0.200552 0.4573,-0.447048 0.0378,-0.265786 0.22266,-0.426697 0.58036,-0.50526 0.40035,-0.08793 0.52484,-0.215474 0.52484,-0.53773 0,-0.375821 0.0916,-0.428464 0.82992,-0.476883 0.60913,-0.03995 0.8823,-0.149441 1.02679,-0.41157 0.10827,-0.196428 0.21844,-0.392117 0.24482,-0.434864 0.0264,-0.04275 0.38798,-0.123104 0.80357,-0.178571 0.556,-0.07421 0.80218,-0.20699 0.93189,-0.502636 0.10587,-0.24132 0.33301,-0.401786 0.56873,-0.401786 0.65472,0 1.33772,-0.340766 1.43596,-0.716436 0.0641,-0.24521 0.244,-0.354992 0.58164,-0.354992 0.2739,0 0.7006,-0.196281 0.97052,-0.446429 0.26494,-0.245536 0.60338,-0.446429 0.7521,-0.446429 0.48039,0 0.9612,-0.360444 0.9612,-0.720568 0,-0.255203 0.12171,-0.35086 0.44643,-0.35086 h 0.44643 v 5.554579 5.554579 l -0.44643,0.530551 c -0.35364,0.420281 -0.44643,0.727805 -0.44643,1.479633 0,0.863429 -0.0403,0.959196 -0.44643,1.06113 -0.24553,0.06163 -0.44642,0.238996 -0.44642,0.394157 0,0.464236 -0.55891,1.496799 -0.81019,1.496799 -0.12857,0 -0.47484,0.241072 -0.76949,0.535715 -0.45401,0.454015 -0.67345,0.535714 -1.4389,0.535714 -0.81448,0 -0.9142,0.04385 -1.01524,0.446428 -0.10299,0.410347 -0.19366,0.446429 -1.12177,0.446429 -0.87585,0 -1.0331,-0.05327 -1.186,-0.401786 z"
         id="path895"
         transform="scale(0.26458333)" />
      <path
         style="fill:#00ccff;stroke:#00ccff;stroke-width:3.79087;stroke-linecap:square;stroke-linejoin:round;stroke-miterlimit:4;stroke-dasharray:none;stroke-opacity:1;paint-order:stroke fill markers"
         d="m 386.40435,95.048791 c 0,-0.421384 -0.0544,-0.446428 -0.96972,-0.446428 -0.86841,0 -0.97568,-0.0418 -1.02678,-0.400113 -0.0322,-0.225757 -0.27106,-0.502358 -0.54814,-0.634744 -0.27781,-0.132735 -0.49107,-0.380106 -0.49107,-0.56961 0,-0.209976 -0.14808,-0.356273 -0.39682,-0.392042 -0.30948,-0.0445 -0.42983,-0.224783 -0.54685,-0.819172 -0.0991,-0.503506 -0.29774,-0.858891 -0.58532,-1.047324 -0.41915,-0.274637 -0.4353,-0.3606 -0.4353,-2.318247 0,-1.901851 0.0226,-2.033034 0.35086,-2.033034 0.44394,0 0.72057,-0.509655 0.72057,-1.327546 0,-0.558837 0.0542,-0.636739 0.44303,-0.636739 0.31453,0 0.4732,-0.120219 0.54706,-0.4145 0.0781,-0.311187 0.29036,-0.455838 0.85162,-0.580357 0.50719,-0.112527 0.80426,-0.295051 0.92385,-0.567643 0.11179,-0.254804 0.33181,-0.401786 0.60143,-0.401786 0.23383,0 0.69972,-0.241072 1.0353,-0.535714 0.33558,-0.294643 0.80671,-0.535715 1.04695,-0.535715 0.31701,0 0.46755,-0.122443 0.54886,-0.446428 0.0986,-0.393056 0.20766,-0.446429 0.91177,-0.446429 0.7218,0 0.81913,-0.05139 0.9988,-0.527401 0.17515,-0.464023 0.29667,-0.533764 1.01127,-0.580357 0.63084,-0.04113 0.84991,-0.138825 0.98106,-0.437503 0.11642,-0.26514 0.39091,-0.420057 0.88399,-0.498904 0.39333,-0.0629 0.81958,-0.201028 0.94723,-0.306961 0.18964,-0.157392 0.23207,0.970356 0.23207,6.168547 0,5.419518 -0.0381,6.36115 -0.25732,6.36115 -0.34758,0 -0.51543,0.309605 -0.62928,1.160715 -0.0747,0.558443 -0.17954,0.726255 -0.48054,0.769147 -0.22847,0.03256 -0.42748,0.224175 -0.48951,0.471323 -0.0624,0.248587 -0.28511,0.461783 -0.55251,0.528897 -0.32767,0.08224 -0.44798,0.231419 -0.44798,0.555463 0,0.41649 -0.0573,0.443027 -0.95607,0.443027 -0.7723,0 -1.04866,0.08581 -1.43777,0.446428 -0.41029,0.380237 -0.65244,0.446429 -1.63322,0.446429 -1.10924,0 -1.15152,-0.01639 -1.15152,-0.446429 z"
         id="path897"
         transform="scale(0.26458333)" />
      <path
         style="fill:#00ccff;stroke:#00ccff;stroke-width:3.41291;stroke-linecap:square;stroke-linejoin:round;stroke-miterlimit:4;stroke-dasharray:none;stroke-opacity:1;paint-order:stroke fill markers"
         d="m 407.29721,75.233645 c 0,-0.348536 -0.56076,-0.631282 -1.25199,-0.631282 -0.38545,0 -0.72896,-0.167763 -1.09691,-0.535714 -0.29464,-0.294643 -0.72038,-0.535715 -0.94608,-0.535715 -0.31389,0 -0.43578,-0.127035 -0.51843,-0.54028 -0.0594,-0.297154 -0.31055,-0.74277 -0.55804,-0.990259 -0.24749,-0.247489 -0.44998,-0.649209 -0.44998,-0.892711 0,-0.305342 -0.13555,-0.49427 -0.43682,-0.608812 -0.53574,-0.203686 -0.6758,-0.829329 -0.60005,-2.680329 0.048,-1.173005 0.0986,-1.345652 0.41187,-1.404587 0.49076,-0.09233 0.61908,-0.346238 0.62227,-1.231236 0.002,-0.688187 0.044,-0.758928 0.44576,-0.758928 0.31826,0 0.47321,-0.120254 0.5502,-0.427004 0.0732,-0.291794 0.27392,-0.460355 0.63379,-0.532328 0.28964,-0.05793 0.70681,-0.299757 0.92705,-0.537398 0.22024,-0.23764 0.59951,-0.460146 0.84283,-0.494458 0.29379,-0.04143 0.46103,-0.193348 0.49789,-0.452278 0.0456,-0.320212 0.22112,-0.416148 0.98215,-0.536791 0.77007,-0.122077 0.93628,-0.214602 0.9837,-0.547606 0.0454,-0.318633 0.17339,-0.401208 0.625,-0.403147 0.92036,-0.004 1.34752,-0.185042 1.40611,-0.596122 0.0401,-0.281123 0.19778,-0.396662 0.5904,-0.432548 0.97684,-0.08929 1.29576,-0.211744 1.37884,-0.529452 0.0516,-0.197297 0.39885,-0.399148 0.93198,-0.541738 0.58106,-0.155411 0.87893,-0.338909 0.94207,-0.580344 0.30267,-1.157393 0.40782,0.287281 0.40782,5.602876 0,7.1412 -0.0716,8.110516 -0.60483,8.186625 -0.26185,0.03737 -0.3946,0.20413 -0.43382,0.544927 -0.0436,0.378715 -0.1515,0.491071 -0.47171,0.491071 -0.2908,0 -0.44785,0.130049 -0.52415,0.434048 -0.068,0.270793 -0.25994,0.455495 -0.51043,0.491071 -0.28521,0.04051 -0.4176,0.19665 -0.45713,0.539145 -0.0515,0.446485 -0.12412,0.486082 -0.98214,0.535714 -0.80545,0.04659 -0.93396,0.106089 -0.98357,0.455379 -0.0524,0.369097 -0.15049,0.401786 -1.20535,0.401786 -0.8894,0 -1.1483,-0.05898 -1.1483,-0.261575 z"
         id="path899"
         transform="scale(0.26458333)" />
      <path
         style="fill:#00ccff;stroke:#00ccff;stroke-width:3.79087;stroke-linecap:square;stroke-linejoin:round;stroke-miterlimit:4;stroke-dasharray:none;stroke-opacity:1;paint-order:stroke fill markers"
         d="m 412.29721,95.233645 c 0,-0.41462 -0.60477,-0.631282 -1.76211,-0.631282 -1.03595,0 -1.07317,-0.01621 -1.12781,-0.491072 -0.0396,-0.344338 -0.17154,-0.507464 -0.4415,-0.545933 -0.23359,-0.03329 -0.42778,-0.225329 -0.49379,-0.488352 -0.0662,-0.263769 -0.28252,-0.477091 -0.55251,-0.544853 -0.38258,-0.09602 -0.44408,-0.213252 -0.44644,-0.850934 -0.003,-0.818727 -0.11794,-1.068529 -0.56777,-1.234282 -0.38987,-0.143658 -0.53476,-0.958507 -0.46637,-2.622802 0.0515,-1.254269 0.0807,-1.337843 0.50116,-1.435633 0.31946,-0.0743 0.4625,-0.24149 0.50293,-0.587844 0.0395,-0.338083 0.15958,-0.484009 0.39839,-0.484009 0.21832,0 0.38355,-0.16604 0.45719,-0.459451 0.0634,-0.252699 0.30603,-0.53196 0.53912,-0.620581 0.23309,-0.08862 0.4238,-0.285662 0.4238,-0.43787 0,-0.162924 0.21437,-0.319615 0.52123,-0.380987 0.35458,-0.07092 0.55549,-0.240771 0.6284,-0.53125 0.076,-0.302883 0.23257,-0.427004 0.53857,-0.427004 0.64366,0 1.34751,-0.314172 1.34751,-0.601475 0,-0.278481 0.37303,-0.469954 0.91558,-0.469954 0.19286,0 0.55155,-0.200893 0.79708,-0.446428 0.24554,-0.245536 0.63653,-0.446429 0.86887,-0.446429 0.24782,0 0.60425,-0.216068 0.86228,-0.522725 0.29316,-0.348403 0.64088,-0.541945 1.04266,-0.580357 0.46755,-0.0447 0.61562,-0.147791 0.65988,-0.459418 0.0476,-0.334861 0.16829,-0.401786 0.7248,-0.401786 0.74988,0 1.20111,-0.27361 1.32522,-0.803571 0.12822,-0.547562 0.14064,12.068625 0.0128,13.001383 -0.0897,0.654829 -0.18823,0.829926 -0.49107,0.873137 -0.26149,0.03731 -0.39605,0.203496 -0.43448,0.536593 -0.0327,0.283218 -0.19488,0.526719 -0.39265,0.589491 -0.18534,0.05882 -0.38814,0.268157 -0.45068,0.465188 -0.0625,0.197031 -0.31549,0.434959 -0.56212,0.52873 -0.24664,0.09377 -0.48918,0.326329 -0.53899,0.516796 -0.0723,0.276375 -0.27613,0.357074 -1.00951,0.399636 -0.7977,0.0463 -0.92647,0.106343 -0.97601,0.455117 -0.0524,0.369097 -0.15048,0.401786 -1.20535,0.401786 -0.8894,0 -1.1483,-0.05898 -1.1483,-0.261575 z"
         id="path901"
         transform="scale(0.26458333)" />
    </g>
    <text
       xml:space="preserve"
       style="font-size:4.23333px;line-height:1.25;font-family:Webdings;-inkscape-font-specification:Webdings;letter-spacing:0px;word-spacing:0px;stroke-width:0.264583"
       x="11.90625"
       y="5.2916665"
       id="text44"><tspan
         sodipodi:role="line"
         id="tspan42"
         x="11.90625"
         y="5.2916665"
         style="stroke-width:0.264583" /></text>
  </g>
</svg>
