<?xml version="1.0" encoding="UTF-8" standalone="no"?>
<svg
   xmlns:dc="http://purl.org/dc/elements/1.1/"
   xmlns:cc="http://creativecommons.org/ns#"
   xmlns:rdf="http://www.w3.org/1999/02/22-rdf-syntax-ns#"
   xmlns:svg="http://www.w3.org/2000/svg"
   xmlns="http://www.w3.org/2000/svg"
   xmlns:sodipodi="http://sodipodi.sourceforge.net/DTD/sodipodi-0.dtd"
   xmlns:inkscape="http://www.inkscape.org/namespaces/inkscape"
   width="50"
   height="50"
   viewBox="0 0 13.229166 13.229167"
   version="1.1"
   id="svg8"
   inkscape:version="1.0 (4035a4fb49, 2020-05-01)"
   sodipodi:docname="sunny_partialy_cloudy.svg">
  <defs
     id="defs2" />
  <sodipodi:namedview
     id="base"
     pagecolor="#ffffff"
     bordercolor="#666666"
     borderopacity="1.0"
     inkscape:pageopacity="0.0"
     inkscape:pageshadow="2"
     inkscape:zoom="5.6"
     inkscape:cx="37.92762"
     inkscape:cy="29.984623"
     inkscape:document-units="mm"
     inkscape:current-layer="layer1"
     inkscape:document-rotation="0"
     showgrid="true"
     units="px"
     inkscape:window-width="1920"
     inkscape:window-height="986"
     inkscape:window-x="-11"
     inkscape:window-y="-11"
     inkscape:window-maximized="1">
    <inkscape:grid
       type="xygrid"
       id="grid10" />
  </sodipodi:namedview>
  <metadata
     id="metadata5">
    <rdf:RDF>
      <cc:Work
         rdf:about="">
        <dc:format>image/svg+xml</dc:format>
        <dc:type
           rdf:resource="http://purl.org/dc/dcmitype/StillImage" />
        <dc:title />
      </cc:Work>
    </rdf:RDF>
  </metadata>
  <g
     inkscape:label="Warstwa 1"
     inkscape:groupmode="layer"
     id="layer1">
    <g
       transform="matrix(0.29814652,0,0,0.29814652,-44.300653,-11.501088)"
       id="g1175">
      <path
         style="fill:#ffcc00;fill-opacity:1;stroke:#ffcc00;stroke-width:8.26583;stroke-linecap:square;stroke-linejoin:round;stroke-miterlimit:4;stroke-dasharray:none;stroke-opacity:1;paint-order:stroke fill markers"
         d="m 625.65131,282.66513 c 0,-0.34724 -0.21513,-0.84647 -0.47806,-1.1094 -0.37798,-0.37799 -0.49692,-0.93674 -0.56821,-2.66942 -0.0725,-1.76343 -0.17646,-2.23967 -0.5321,-2.43869 -0.3631,-0.20319 -0.44194,-0.60549 -0.44194,-2.25507 0,-1.67104 -0.0847,-2.09246 -0.50507,-2.51283 -0.4209,-0.4209 -0.50508,-0.84179 -0.50508,-2.52538 0,-1.68359 -0.0842,-2.10449 -0.50508,-2.52538 -0.41528,-0.41529 -0.50507,-0.8418 -0.50507,-2.39912 0,-1.72567 -0.0449,-1.89403 -0.50508,-1.89403 -0.33672,0 -0.50508,-0.16836 -0.50508,-0.50508 0,-0.46018 -0.16836,-0.50507 -1.89403,-0.50507 -1.48641,0 -1.89404,0.0788 -1.89404,0.36626 0,0.26025 -0.43857,0.41589 -1.51523,0.5377 -0.94636,0.10707 -1.51523,0.28915 -1.51523,0.485 0,0.19584 -0.56887,0.37792 -1.51522,0.48499 -1.00086,0.11324 -1.51523,0.28469 -1.51523,0.50508 0,0.22038 -0.51437,0.39184 -1.51523,0.50507 -1.00211,0.11338 -1.51523,0.28459 -1.51523,0.50557 0,0.21788 -0.4541,0.37777 -1.30509,0.45954 -0.73014,0.0702 -1.42547,0.28943 -1.57836,0.49774 -0.1503,0.20478 -0.83458,0.43538 -1.52061,0.51243 -0.68603,0.0771 -1.36789,0.30435 -1.51523,0.50508 -0.14734,0.20074 -0.82175,0.42718 -1.49869,0.50321 -0.67693,0.076 -1.32863,0.29267 -1.44822,0.48141 -0.14416,0.22753 -0.21874,0.024 -0.22131,-0.60384 -0.003,-0.64296 0.10909,-0.94702 0.34792,-0.94702 0.46614,0 0.65837,-0.55906 0.65837,-1.91469 0,-0.78535 0.10418,-1.11577 0.35179,-1.11577 0.46613,0 0.65836,-0.55905 0.65836,-1.91469 0,-0.78534 0.10418,-1.11577 0.35179,-1.11577 0.46613,0 0.65836,-0.55905 0.65836,-1.91469 0,-0.78534 0.10418,-1.11576 0.35179,-1.11576 0.46614,0 0.65837,-0.55906 0.65837,-1.91469 0,-0.78535 0.10417,-1.11577 0.35178,-1.11577 0.4484,0 0.65837,-0.55248 0.65837,-1.7323 0,-0.62086 0.16911,-1.07817 0.50508,-1.36583 0.37759,-0.32331 0.50507,-0.74497 0.50507,-1.6706 0,-0.86761 0.11337,-1.28165 0.37881,-1.38351 0.47626,-0.18276 0.49498,-1.07936 0.0282,-1.34822 -0.19286,-0.11108 -0.3928,-0.42924 -0.44431,-0.70703 -0.0774,-0.41729 -0.32605,-0.51843 -1.43078,-0.58188 -0.91166,-0.0524 -1.4935,-0.23317 -1.82854,-0.56821 -0.40976,-0.40977 -0.84802,-0.49141 -2.63797,-0.49141 -1.65928,0 -2.14658,-0.0793 -2.14658,-0.34935 0,-0.4641 -0.79331,-0.65317 -2.75803,-0.65735 -1.18104,-0.003 -1.75316,-0.12249 -2.10578,-0.44161 -0.34594,-0.31307 -1.03655,-0.46476 -2.419,-0.53132 -1.29881,-0.0625 -2.08319,-0.22471 -2.38614,-0.49335 -0.27128,-0.24054 -1.17796,-0.46715 -2.27285,-0.56806 -1.00184,-0.0923 -1.67947,-0.18455 -1.50585,-0.20492 0.17362,-0.0204 0.31567,-0.19424 0.31567,-0.38639 0,-0.19214 0.22728,-0.40879 0.50507,-0.48143 0.2778,-0.0726 0.50508,-0.31318 0.50508,-0.53453 0,-0.23409 0.21129,-0.40245 0.50508,-0.40245 0.33671,0 0.50507,-0.16836 0.50507,-0.50508 0,-0.33671 0.16836,-0.50507 0.50508,-0.50507 0.33672,0 0.50508,-0.16836 0.50508,-0.50508 0,-0.33672 0.16835,-0.50508 0.50507,-0.50508 0.33672,0 0.50508,-0.16836 0.50508,-0.50507 0,-0.33672 0.16836,-0.50508 0.50507,-0.50508 0.33672,0 0.50508,-0.16836 0.50508,-0.50507 0,-0.2778 0.1653,-0.50508 0.36733,-0.50508 0.20203,0 0.65402,-0.2557 1.00441,-0.56821 1.38784,-1.23781 1.66778,-1.4521 1.89694,-1.4521 0.13102,0 0.38671,-0.20635 0.56821,-0.45857 0.18149,-0.25221 0.52886,-0.53275 0.77193,-0.62342 0.24307,-0.0907 0.44194,-0.33887 0.44194,-0.55158 0,-0.2127 0.16647,-0.38673 0.36993,-0.38673 0.20345,0 0.49156,-0.22729 0.64023,-0.50508 0.14867,-0.27779 0.43677,-0.50507 0.64023,-0.50507 0.20345,0 0.36992,-0.16281 0.36992,-0.36179 0,-0.19899 0.22728,-0.43393 0.50508,-0.5221 0.27779,-0.0882 0.50507,-0.30985 0.50507,-0.49264 0,-0.18278 0.22729,-0.39177 0.50508,-0.46441 0.27779,-0.0727 0.50507,-0.31319 0.50507,-0.53453 0,-0.22135 0.17403,-0.40245 0.38674,-0.40245 0.2127,0 0.46091,-0.19888 0.55158,-0.44194 0.0907,-0.24307 0.3712,-0.59044 0.62342,-0.77194 0.60584,-0.43597 0.5831,-1.22945 -0.0465,-1.62265 -0.27779,-0.17348 -0.50507,-0.51537 -0.50507,-0.75975 0,-0.27597 -0.19138,-0.44433 -0.50508,-0.44433 -0.29379,0 -0.50508,-0.16836 -0.50508,-0.40245 0,-0.22135 -0.22728,-0.46189 -0.50507,-0.53453 -0.27779,-0.0726 -0.50508,-0.29993 -0.50508,-0.50508 0,-0.20515 -0.22728,-0.43243 -0.50507,-0.50508 -0.2778,-0.0726 -0.50508,-0.29992 -0.50508,-0.50507 0,-0.20515 -0.22729,-0.43243 -0.50508,-0.50508 -0.27779,-0.0726 -0.50507,-0.28163 -0.50507,-0.46441 0,-0.18279 -0.21679,-0.40114 -0.48175,-0.48524 -0.26496,-0.0841 -0.5455,-0.31904 -0.62342,-0.52209 -0.0779,-0.20306 -0.30804,-0.3692 -0.51139,-0.3692 -0.20334,0 -0.44185,-0.22728 -0.53002,-0.50507 -0.0882,-0.2778 -0.29586,-0.50508 -0.46154,-0.50508 -0.16568,0 -0.60763,-0.28411 -0.98211,-0.63135 -0.37448,-0.34724 -0.79548,-0.63134 -0.93555,-0.63134 -0.14007,0 -0.37632,-0.22729 -0.52499,-0.50508 -0.14867,-0.27779 -0.43677,-0.50507 -0.64023,-0.50507 -0.20345,0 -0.36992,-0.16281 -0.36992,-0.36179 0,-0.19899 -0.22728,-0.43393 -0.50508,-0.5221 -0.27779,-0.0882 -0.50507,-0.32311 -0.50507,-0.52209 0,-0.19898 -0.1811,-0.36179 -0.40245,-0.36179 -0.22135,0 -0.46189,-0.22728 -0.53453,-0.50508 -0.0731,-0.27954 -0.34447,-0.50507 -0.6077,-0.50507 -0.30727,0 -0.47563,-0.17879 -0.47563,-0.50508 0,-0.32629 -0.16836,-0.50508 -0.47562,-0.50508 -0.26324,0 -0.5346,-0.22553 -0.6077,-0.50507 -0.0726,-0.27779 -0.31318,-0.50508 -0.53453,-0.50508 -0.22135,0 -0.40245,-0.16481 -0.40245,-0.36626 0,-0.20144 -0.19888,-0.48209 -0.44194,-0.62366 -0.3289,-0.19157 0.0443,-0.25937 1.45903,-0.26509 1.20463,-0.005 2.08493,-0.13652 2.40314,-0.3594 0.27618,-0.19345 1.40948,-0.43392 2.51843,-0.53439 1.10896,-0.10046 2.18675,-0.32477 2.3951,-0.49846 0.20834,-0.17369 1.28794,-0.38795 2.39911,-0.47613 1.22431,-0.0972 2.1198,-0.2933 2.27284,-0.49782 0.15988,-0.21366 1.08553,-0.3959 2.52291,-0.4967 1.55804,-0.10926 2.35551,-0.27564 2.54171,-0.53028 0.1562,-0.21362 0.78921,-0.40455 1.49183,-0.44996 0.90739,-0.0586 1.29192,-0.20845 1.4989,-0.58396 0.15313,-0.27779 0.42046,-0.59595 0.59408,-0.70702 0.43981,-0.28137 0.39553,-1.35487 -0.0631,-1.53088 -0.2596,-0.0996 -0.37881,-0.50547 -0.37881,-1.28971 0,-0.80762 -0.14861,-1.29296 -0.50507,-1.64942 -0.35515,-0.35514 -0.50508,-0.84179 -0.50508,-1.63936 0,-0.86078 -0.12179,-1.21033 -0.50508,-1.4497 -0.38929,-0.24312 -0.50507,-0.58893 -0.50507,-1.50849 0,-0.93459 -0.10942,-1.25161 -0.50508,-1.46336 -0.40289,-0.21562 -0.50508,-0.52877 -0.50508,-1.54776 0,-1.06506 -0.084,-1.29941 -0.50507,-1.40953 -0.42752,-0.1118 -0.50508,-0.34446 -0.50508,-1.51523 0,-1.17076 -0.0775,-1.40343 -0.50507,-1.51523 -0.42753,-0.11179 -0.50508,-0.34446 -0.50508,-1.51522 0,-1.17077 -0.0776,-1.40343 -0.50508,-1.51523 -0.7212,-0.1886 -0.74579,-2.09348 -0.027,-2.09348 0.26294,0 0.53896,0.15869 0.61338,0.35264 0.0772,0.20121 0.69296,0.42933 1.43395,0.53124 0.74099,0.10192 1.35673,0.33003 1.43394,0.53125 0.0874,0.22777 0.52814,0.35264 1.24473,0.35264 0.77268,0 1.2627,0.15329 1.61448,0.50507 0.35514,0.35514 0.84179,0.50508 1.63935,0.50508 0.86079,0 1.21034,0.12178 1.44971,0.50507 0.24352,0.38995 0.58893,0.50508 1.51523,0.50508 0.9263,0 1.27171,0.11514 1.51523,0.50508 0.24352,0.38994 0.58892,0.50507 1.51523,0.50507 0.9263,0 1.2717,0.11514 1.51523,0.50508 0.25161,0.40289 0.58892,0.50508 1.66728,0.50508 1.13947,0 1.3726,0.0794 1.48393,0.50507 0.11145,0.42617 0.34447,0.50508 1.49159,0.50508 1.16308,0 1.3595,-0.0687 1.3595,-0.47562 0,-0.26324 0.22554,-0.53461 0.50508,-0.60771 0.44877,-0.11735 0.50508,-0.34446 0.50508,-2.03721 0,-1.55183 0.082,-1.95099 0.44194,-2.15244 0.35634,-0.19941 0.45963,-0.67735 0.53329,-2.46758 0.0695,-1.6901 0.19013,-2.29248 0.50507,-2.52265 0.31765,-0.23215 0.43423,-0.83496 0.50199,-2.59573 0.0636,-1.65276 0.17883,-2.29335 0.41249,-2.29335 0.44425,0 0.62815,-0.82642 0.63223,-2.84105 0.003,-1.36493 0.1041,-1.80529 0.50852,-2.20971 0.27779,-0.27779 0.50508,-0.78918 0.50508,-1.13642 0,-0.46299 0.13468,-0.63135 0.50507,-0.63135 0.32065,0 0.50508,0.16836 0.50508,0.46106 0,0.25358 0.2841,0.72795 0.63134,1.05417 0.34724,0.32621 0.63135,0.74377 0.63135,0.9279 0,0.18414 0.17046,0.33479 0.37881,0.33479 0.20834,0 0.3788,0.16402 0.3788,0.36449 0,0.20047 0.20636,0.51298 0.45858,0.69448 0.25221,0.18149 0.53275,0.52886 0.62342,0.77193 0.0907,0.24307 0.33887,0.44194 0.55158,0.44194 0.2127,0 0.38673,0.18111 0.38673,0.40245 0,0.22135 0.22728,0.46189 0.50508,0.53453 0.27779,0.0727 0.50507,0.29993 0.50507,0.50508 0,0.20515 0.22729,0.43243 0.50508,0.50508 0.27779,0.0726 0.50507,0.29992 0.50507,0.50507 0,0.20515 0.22729,0.43243 0.50508,0.50508 0.27779,0.0726 0.50508,0.28412 0.50508,0.46995 0,0.18583 0.29203,0.65556 0.64896,1.04384 1.06892,1.1628 1.28171,1.44271 1.44863,1.90551 0.0877,0.24307 0.33343,0.44194 0.54613,0.44194 0.21838,0 0.38673,0.21988 0.38673,0.50508 0,0.33672 0.16836,0.50508 0.50508,0.50508 0.32629,0 0.50508,0.16835 0.50508,0.47562 0,0.26324 0.22553,0.5346 0.50507,0.6077 0.2778,0.0727 0.50508,0.29993 0.50508,0.50508 0,0.20515 0.22728,0.43243 0.50508,0.50507 0.27779,0.0726 0.50507,0.31319 0.50507,0.53453 0,0.31946 0.28643,0.40245 1.38896,0.40245 1.03724,0 1.38896,-0.0916 1.38896,-0.36179 0,-0.19898 0.22729,-0.43392 0.50508,-0.52209 0.27779,-0.0882 0.50507,-0.31545 0.50507,-0.50508 0,-0.18962 0.22729,-0.4169 0.50508,-0.50507 0.27779,-0.0882 0.50508,-0.31545 0.50508,-0.50508 0,-0.18962 0.21501,-0.41301 0.47781,-0.49642 0.26279,-0.0834 0.53626,-0.37517 0.6077,-0.64836 0.0714,-0.2732 0.31099,-0.49672 0.53234,-0.49672 0.22579,0 0.40245,-0.20878 0.40245,-0.47562 0,-0.26324 0.22554,-0.5346 0.50508,-0.6077 0.27779,-0.0726 0.50507,-0.31318 0.50507,-0.53453 0,-0.22135 0.17047,-0.40245 0.37881,-0.40245 0.20835,0 0.37881,-0.15066 0.37881,-0.33479 0,-0.18413 0.2841,-0.60169 0.63134,-0.9279 0.34724,-0.32622 0.63135,-0.73978 0.63135,-0.91902 0,-0.17925 0.22728,-0.44754 0.50508,-0.59621 0.27779,-0.14867 0.50507,-0.42352 0.50507,-0.61078 0,-0.18726 0.22729,-0.3999 0.50508,-0.47255 0.27779,-0.0726 0.50507,-0.29992 0.50507,-0.50507 0,-0.20515 0.22729,-0.43243 0.50508,-0.50508 0.27779,-0.0726 0.50508,-0.31318 0.50508,-0.53453 0,-0.22135 0.17046,-0.40245 0.3788,-0.40245 0.20835,0 0.37881,-0.10925 0.37881,-0.24278 0,-0.13353 0.45457,-0.69283 1.01015,-1.24288 0.55559,-0.55006 1.01016,-1.08122 1.01016,-1.18036 0,-0.19013 1.20805,-1.37459 1.40197,-1.37459 0.0623,0 0.11326,0.17046 0.11326,0.37881 0,0.20834 0.17046,0.37881 0.3788,0.37881 0.30704,0 0.37881,0.40714 0.37881,2.14904 0,1.83654 0.0734,2.21194 0.50508,2.58151 0.42308,0.36225 0.50507,0.74497 0.50507,2.3575 0,1.60432 0.0842,2.00119 0.50508,2.38213 0.42821,0.38752 0.50507,0.7778 0.50507,2.56452 0,1.93907 0.0404,2.10743 0.50508,2.10743 0.47141,0 0.50508,0.16836 0.50508,2.52538 0,2.33083 0.0377,2.52538 0.48983,2.52538 0.38373,0 0.50681,0.20513 0.56821,0.94702 l 0.0784,0.94702 1.44398,0.0755 c 1.2,0.0627 1.51884,-0.0119 1.88703,-0.44194 0.3187,-0.37221 0.74693,-0.51743 1.52581,-0.51743 0.77026,0 1.20759,-0.14578 1.51523,-0.50508 0.28766,-0.33597 0.74497,-0.50508 1.36583,-0.50508 1.17982,0 1.7323,-0.20997 1.7323,-0.65836 0,-0.24761 0.33042,-0.35179 1.11577,-0.35179 1.35563,0 1.91469,-0.19223 1.91469,-0.65836 0,-0.25229 0.34607,-0.35179 1.22355,-0.35179 0.90283,0 1.34336,-0.13239 1.68064,-0.50508 0.31961,-0.35317 0.77781,-0.50507 1.52344,-0.50507 0.62379,0 1.19258,-0.15209 1.37047,-0.36643 0.16726,-0.20154 0.81184,-0.44257 1.43239,-0.53563 0.62056,-0.0931 1.285,-0.32591 1.47655,-0.51745 0.55152,-0.55153 0.63687,-0.42928 0.63687,0.91229 0,0.98705 -0.10959,1.32899 -0.50508,1.57598 -0.4101,0.25611 -0.50507,0.58892 -0.50507,1.7699 0,1.28613 -0.0585,1.45448 -0.50508,1.45448 -0.42758,0 -0.50508,0.16836 -0.50508,1.09729 0,0.77656 -0.14762,1.23088 -0.50507,1.55436 -0.35033,0.31705 -0.50508,0.77781 -0.50508,1.50387 0,0.57572 -0.13637,1.18314 -0.30305,1.34982 -0.21143,0.21143 -1.57419,0.30304 -4.508,0.30304 -3.89835,0 -5.79555,0.24586 -5.79555,0.75105 0,0.10811 -0.64206,0.24981 -1.42681,0.31488 -0.92966,0.0771 -1.5333,0.26398 -1.73247,0.53635 -0.16812,0.22992 -0.53954,0.41803 -0.82538,0.41803 -0.78588,0 -1.31864,0.26599 -1.31864,0.65836 0,0.60533 -1.02123,0.38546 -2.07086,-0.44587 -1.45882,-1.1554 -2.60252,-1.9066 -3.18359,-2.09103 -0.27958,-0.0887 -0.64614,-0.32739 -0.81458,-0.53036 -0.16845,-0.20296 -0.4733,-0.36902 -0.67746,-0.36902 -0.20415,0 -0.66013,-0.22729 -1.01328,-0.50508 -0.35316,-0.27779 -0.80773,-0.50508 -1.01016,-0.50508 -0.20243,0 -0.657,-0.22728 -1.01015,-0.50507 -0.36717,-0.28882 -1.02449,-0.50508 -1.53518,-0.50508 -0.49119,0 -1.09074,-0.17889 -1.33233,-0.39753 -0.2416,-0.21864 -1.0671,-0.48272 -1.83445,-0.58685 -0.76734,-0.10414 -1.59046,-0.35141 -1.82914,-0.54949 -0.63946,-0.53071 -13.71028,-0.53071 -14.34974,0 -0.23868,0.19808 -1.06872,0.44629 -1.84453,0.55157 -0.77581,0.10528 -1.49005,0.32003 -1.5872,0.47723 -0.0972,0.15719 -0.81692,0.37269 -1.59948,0.47888 -0.78256,0.1062 -1.6325,0.38282 -1.88874,0.61472 -0.25624,0.23189 -0.60948,0.42162 -0.78498,0.42162 -0.1755,0 -0.60804,0.22729 -0.96119,0.50508 -0.35316,0.27779 -0.77985,0.50508 -0.94821,0.50508 -0.16836,0 -0.56817,0.22728 -0.88847,0.50507 -0.32029,0.2778 -0.78555,0.50508 -1.03389,0.50508 -0.24834,0 -0.52746,0.12285 -0.62026,0.27301 -0.0928,0.15015 -0.48251,0.46383 -0.86602,0.69705 -0.84645,0.51476 -3.16463,2.49171 -4.9331,4.20697 -1.53311,1.48698 -4.41602,5.01861 -4.41602,5.40972 0,0.14981 -0.11944,0.27239 -0.26543,0.27239 -0.14598,0 -0.43789,0.36934 -0.6487,0.82075 -0.2108,0.45141 -0.65687,1.27532 -0.99126,1.8309 -0.6776,1.12579 -1.12507,2.07422 -1.12507,2.38463 0,0.11285 -0.16489,0.34203 -0.36643,0.50929 -0.20153,0.16726 -0.44543,0.83093 -0.54199,1.47483 -0.0966,0.6439 -0.32265,1.31782 -0.50243,1.4976 -0.17978,0.17978 -0.40435,0.86531 -0.49906,1.52341 -0.0947,0.65809 -0.3189,1.367 -0.49822,1.57534 -0.4591,0.53341 -0.82942,7.90743 -0.60242,11.99557 0.10027,1.80564 0.19363,3.53057 0.20747,3.83316 0.0138,0.3026 0.18197,0.70698 0.37362,0.89863 0.19165,0.19165 0.43071,0.94652 0.53124,1.6775 0.10054,0.73098 0.32775,1.38468 0.50493,1.45267 0.17717,0.068 0.395,0.67295 0.48407,1.34436 0.0891,0.6714 0.33008,1.36028 0.53558,1.53083 0.2055,0.17056 0.37364,0.45132 0.37364,0.62393 0,0.1726 0.22024,0.59381 0.48942,0.93602 0.26919,0.34221 0.56355,0.91753 0.65414,1.27848 0.0906,0.36095 0.32492,0.71775 0.52073,0.79289 0.19581,0.0751 0.35602,0.35087 0.35602,0.61274 0,0.26187 0.25569,0.76743 0.56821,1.12347 0.57424,0.65422 1.16121,1.38874 2.08344,2.60717 0.27779,0.36701 0.70395,0.88109 0.94702,1.14238 0.24306,0.2613 0.44194,0.5469 0.44194,0.63467 0,0.0878 0.38292,0.51393 0.85093,0.94702 2.56127,2.37012 3.30215,2.99867 4.21033,3.57198 0.54981,0.34708 0.99965,0.74327 0.99965,0.88042 0,0.13716 0.15285,0.24937 0.33967,0.24937 0.18682,0 0.54535,0.22729 0.79675,0.50508 0.2514,0.27779 0.67725,0.50507 0.94633,0.50507 0.26908,0 0.77818,0.22729 1.13134,0.50508 0.35315,0.27779 0.8288,0.50508 1.05699,0.50508 0.22819,0 0.6095,0.22728 0.84736,0.50507 0.23785,0.2778 0.68032,0.50508 0.98325,0.50508 0.30294,0 0.75401,0.1839 1.00238,0.40867 0.24837,0.22477 0.99599,0.46651 1.66138,0.53718 0.6654,0.0707 1.40982,0.30317 1.65428,0.51664 0.26278,0.22947 1.19186,0.45265 2.27284,0.54597 1.00561,0.0868 2.11248,0.31794 2.45972,0.51361 0.96369,0.54305 9.43584,0.51336 10.48033,-0.0367 0.41669,-0.21945 1.6014,-0.45693 2.6327,-0.52773 1.23226,-0.0846 1.96815,-0.25554 2.14657,-0.49862 0.14932,-0.20345 0.81591,-0.43104 1.4813,-0.50577 0.66539,-0.0747 1.41301,-0.31978 1.66138,-0.54455 0.24837,-0.22477 0.683,-0.40867 0.96585,-0.40867 0.28285,0 0.80321,-0.22728 1.15637,-0.50508 0.35315,-0.27779 0.82416,-0.50507 1.04668,-0.50507 0.22252,0 0.59919,-0.22729 0.83704,-0.50508 0.23785,-0.27779 0.6737,-0.50508 0.96854,-0.50508 0.29485,0 0.74177,-0.22728 0.99317,-0.50507 0.2514,-0.27779 0.56355,-0.50508 0.69368,-0.50508 0.28601,0 1.35867,-0.81346 2.70532,-2.05162 0.54747,-0.50336 1.17149,-0.98277 1.38671,-1.06536 0.21523,-0.0826 0.39132,-0.26737 0.39132,-0.41063 0,-0.17224 2.22382,-0.26046 6.56599,-0.26046 h 6.56599 v 0.875 c 0,0.61654 0.1492,0.95484 0.50508,1.1453 0.40022,0.2142 0.50508,0.52877 0.50508,1.51523 0,0.98646 0.10486,1.30104 0.50507,1.51523 0.40096,0.21459 0.50508,0.52877 0.50508,1.52412 0,1.08544 0.0678,1.2538 0.50508,1.2538 0.44488,0 0.50507,0.16836 0.50507,1.4126 0,1.20022 0.0759,1.43246 0.50508,1.54469 0.42752,0.1118 0.50508,0.34446 0.50508,1.51523 0,1.15053 0.0814,1.40442 0.48385,1.50967 0.39466,0.10321 0.4994,0.40151 0.56821,1.61832 0.0464,0.82048 -7.6e-4,1.49158 -0.10505,1.49132 -0.10417,-2.5e-4 -0.1894,-0.15876 -0.1894,-0.35224 0,-0.44065 -0.54967,-0.65837 -1.66215,-0.65837 -0.52652,0 -1.06024,-0.19701 -1.36831,-0.50507 -0.3346,-0.3346 -0.84179,-0.50508 -1.50268,-0.50508 -0.66049,0 -1.07563,-0.13943 -1.2285,-0.41259 -0.15011,-0.26823 -0.69204,-0.45691 -1.54881,-0.53923 -0.77104,-0.0741 -1.37193,-0.26741 -1.4481,-0.4659 -0.0716,-0.1866 -0.69469,-0.41415 -1.38464,-0.50568 -0.68995,-0.0915 -1.39965,-0.31161 -1.57712,-0.48908 -0.17747,-0.17747 -0.85743,-0.40286 -1.51103,-0.50087 -0.6536,-0.098 -1.33457,-0.32442 -1.51327,-0.50312 -0.17871,-0.17871 -0.96857,-0.40534 -1.75526,-0.50363 -0.96412,-0.12046 -1.43034,-0.29269 -1.43034,-0.52841 0,-0.26684 -0.44885,-0.34971 -1.89403,-0.34971 h -1.89404 v 1.01015 c 0,0.84179 -0.0842,1.01015 -0.50508,1.01015 -0.46938,0 -0.50507,0.16836 -0.50507,2.38209 0,2.16031 -0.047,2.39703 -0.50508,2.5424 -0.45149,0.1433 -0.50508,0.3821 -0.50508,2.25072 0,1.7697 -0.0775,2.16055 -0.50507,2.54751 -0.41775,0.37805 -0.50508,0.77781 -0.50508,2.31198 0,1.51818 -0.0917,1.94658 -0.50507,2.35997 -0.41658,0.41658 -0.50508,0.8418 -0.50508,2.42666 0,1.61772 -0.0851,2.01 -0.53821,2.48077 l -0.5382,0.55919 -0.59822,-0.59821 c -0.32902,-0.32902 -0.59821,-0.71026 -0.59821,-0.8472 0,-0.13694 -0.16614,-0.31274 -0.3692,-0.39066 -0.20305,-0.0779 -0.438,-0.35846 -0.52209,-0.62342 -0.0841,-0.26496 -0.30805,-0.48174 -0.49767,-0.48174 -0.18963,0 -0.41691,-0.22729 -0.50508,-0.50508 -0.0882,-0.27779 -0.30986,-0.50508 -0.49264,-0.50508 -0.18279,0 -0.39177,-0.22728 -0.46442,-0.50507 -0.0726,-0.2778 -0.29993,-0.50508 -0.50507,-0.50508 -0.20515,0 -0.43243,-0.22728 -0.50508,-0.50508 -0.0726,-0.27779 -0.31318,-0.50507 -0.53453,-0.50507 -0.23409,0 -0.40245,-0.21129 -0.40245,-0.50508 0,-0.28424 -0.16836,-0.50507 -0.38506,-0.50507 -0.21178,0 -0.48607,-0.2557 -0.60954,-0.56822 -0.26237,-0.66409 -0.79083,-1.35766 -2.09899,-2.75474 -0.52086,-0.55628 -0.94702,-1.10812 -0.94702,-1.22632 0,-0.1182 -0.22728,-0.28705 -0.50507,-0.37522 -0.2778,-0.0882 -0.50508,-0.33375 -0.50508,-0.54574 0,-0.21198 -0.22728,-0.44486 -0.50508,-0.51751 -0.27779,-0.0726 -0.50507,-0.29993 -0.50507,-0.50507 0,-0.20515 -0.22729,-0.43243 -0.50508,-0.50508 -0.27779,-0.0726 -0.50508,-0.29993 -0.50508,-0.50508 0,-0.20514 -0.21677,-0.42968 -0.48172,-0.49897 -0.26496,-0.0693 -0.53842,-0.34275 -0.60771,-0.6077 -0.18466,-0.70613 -2.4347,-0.70613 -2.61936,0 -0.0693,0.26495 -0.34275,0.53842 -0.6077,0.6077 -0.26495,0.0693 -0.48173,0.29942 -0.48173,0.51141 0,0.21199 -0.22728,0.45757 -0.50508,0.54574 -0.27779,0.0882 -0.50507,0.31545 -0.50507,0.50507 0,0.18963 -0.22729,0.41691 -0.50508,0.50508 -0.27779,0.0882 -0.50508,0.37993 -0.50508,0.64836 0,0.26992 -0.17285,0.48806 -0.38673,0.48806 -0.2127,0 -0.45972,0.19019 -0.54892,0.42265 -0.165,0.42999 -0.41871,0.76312 -1.49216,1.95924 -0.33145,0.36934 -0.60264,0.83682 -0.60264,1.03885 0,0.20203 -0.22729,0.36733 -0.50508,0.36733 -0.33672,0 -0.50508,0.16836 -0.50508,0.50508 0,0.33672 -0.16836,0.50508 -0.50507,0.50508 -0.33672,0 -0.50508,0.16835 -0.50508,0.50507 0,0.29379 -0.16836,0.50508 -0.40245,0.50508 -0.22135,0 -0.46188,0.22728 -0.53453,0.50507 -0.0726,0.2778 -0.29285,0.50508 -0.48936,0.50508 -0.1965,0 -0.42485,0.17609 -0.50744,0.39132 -0.0826,0.21522 -0.562,0.8329 -1.06536,1.37262 -1.66238,1.78247 -2.05162,2.31429 -2.05162,2.8032 0,0.31526 -0.17583,0.48362 -0.50508,0.48362 -0.37039,0 -0.50507,-0.16836 -0.50507,-0.63134 z"
         id="path989"
         transform="scale(0.26458333)" />
      <path
         style="fill:#000000;fill-opacity:1;stroke:none;stroke-width:1.08524;stroke-linecap:square;stroke-linejoin:round;paint-order:stroke fill markers"
         d="m 621.35816,299.84916 c 0,-0.2199 -0.3548,-0.43392 -0.88389,-0.53318 -0.53805,-0.10094 -0.88388,-0.31228 -0.88388,-0.54016 0,-0.20589 -0.22728,-0.43378 -0.50507,-0.50642 -0.35733,-0.0935 -0.50508,-0.34447 -0.50508,-0.85811 0,-0.45252 -0.19027,-0.84484 -0.50508,-1.04144 -0.42526,-0.26558 -0.50507,-0.58893 -0.50507,-2.04609 0,-1.51828 -0.062,-1.74687 -0.50508,-1.86274 -0.45722,-0.11957 -0.50508,-0.34447 -0.50508,-2.37333 0,-1.96775 -0.0616,-2.27974 -0.50507,-2.55668 -0.44257,-0.27639 -0.50508,-0.58892 -0.50508,-2.52538 0,-1.93645 -0.0625,-2.24899 -0.50507,-2.52538 -0.43384,-0.27093 -0.50508,-0.58892 -0.50508,-2.25433 0,-2.15812 -0.1394,-2.73782 -0.65837,-2.73782 -0.26461,0 -0.35178,-0.40678 -0.35178,-1.6415 v -1.6415 h -1.79141 c -1.57903,0 -1.80707,0.0599 -1.92349,0.50508 -0.10348,0.39569 -0.34447,0.50507 -1.11278,0.50507 -0.81234,0 -0.9807,0.0867 -0.9807,0.50508 0,0.44488 -0.16836,0.50508 -1.4126,0.50508 -1.20022,0 -1.43246,0.0759 -1.54469,0.50507 -0.1132,0.43288 -0.34446,0.50508 -1.61785,0.50508 -1.14906,0 -1.60024,0.11446 -1.99085,0.50507 -0.36944,0.36944 -0.8418,0.50508 -1.75888,0.50508 -0.99535,0 -1.30953,0.10412 -1.52412,0.50508 -0.19256,0.35981 -0.52877,0.50507 -1.16895,0.50507 -0.68625,0 -0.92985,0.11937 -1.03072,0.50508 -0.11293,0.43186 -0.34447,0.50508 -1.5972,0.50508 -1.69477,0 -2.26404,0.16554 -2.26404,0.65836 0,0.26395 -0.40251,0.35179 -1.61205,0.35179 -1.39966,0 -1.62944,-0.0666 -1.74412,-0.50508 -0.10117,-0.38687 -0.34447,-0.50507 -1.03961,-0.50507 -0.73917,0 -0.90752,-0.0937 -0.90752,-0.50508 0,-0.27779 -0.1635,-0.50508 -0.36334,-0.50508 -0.82129,0 -0.84554,-5.66203 -0.0262,-6.12054 0.2758,-0.15435 0.38956,-0.61496 0.38956,-1.5774 0,-1.1376 0.0824,-1.38555 0.50507,-1.5197 0.42163,-0.13382 0.50508,-0.3821 0.50508,-1.50279 0,-1.1301 0.0799,-1.36339 0.50507,-1.47457 0.42573,-0.11133 0.50508,-0.34447 0.50508,-1.48393 0,-1.07836 0.10219,-1.41568 0.50508,-1.66729 0.39287,-0.24535 0.50507,-0.58892 0.50507,-1.54652 0,-1.01871 0.0871,-1.25388 0.50508,-1.36318 0.42914,-0.11222 0.50508,-0.34446 0.50508,-1.54468 0,-1.24424 0.0602,-1.4126 0.50507,-1.4126 0.44785,0 0.50508,-0.16836 0.50508,-1.48578 0,-1.27338 0.0722,-1.50465 0.50507,-1.61785 0.56068,-0.14662 0.67304,-0.92054 0.20204,-1.39155 -0.16668,-0.16667 -0.608,-0.30305 -0.9807,-0.30305 -0.46527,0 -0.71905,-0.15829 -0.80974,-0.50507 -0.11999,-0.45884 -0.34446,-0.50508 -2.45221,-0.50508 -2.10774,0 -2.33221,-0.0462 -2.4522,-0.50507 -0.11799,-0.4512 -0.34447,-0.50508 -2.12294,-0.50508 -1.65413,0 -2.07627,-0.0854 -2.49592,-0.50508 -0.4209,-0.42089 -0.8418,-0.50507 -2.52538,-0.50507 -1.55177,0 -2.02031,-0.081 -2.02031,-0.34936 0,-0.47273 -0.79814,-0.65324 -2.90658,-0.65735 -1.49445,-0.003 -1.81928,-0.0821 -2.08557,-0.50852 -0.24699,-0.39549 -0.58893,-0.50508 -1.57598,-0.50508 -1.09219,0 -1.26055,-0.0675 -1.26055,-0.50507 0,-0.33672 -0.16836,-0.50508 -0.50508,-0.50508 -0.33672,0 -0.50507,-0.16836 -0.50507,-0.50508 0,-0.33671 -0.16836,-0.50507 -0.50508,-0.50507 -0.46236,0 -0.50508,-0.16836 -0.50508,-1.99085 0,-1.77847 0.0539,-2.00494 0.50508,-2.12294 0.38687,-0.10117 0.50508,-0.34446 0.50508,-1.0396 0,-0.73917 0.0937,-0.90753 0.50507,-0.90753 0.27779,0 0.73236,-0.22728 1.01015,-0.50507 0.2778,-0.2778 0.61228,-0.50508 0.7433,-0.50508 0.13102,0 0.38671,-0.20636 0.56821,-0.45857 0.1815,-0.25222 0.52887,-0.53276 0.77193,-0.62342 0.24307,-0.0907 0.44195,-0.32563 0.44195,-0.52213 0,-0.1965 0.22728,-0.41671 0.50507,-0.48936 0.27779,-0.0726 0.50508,-0.31318 0.50508,-0.53453 0,-0.23409 0.21129,-0.40245 0.50507,-0.40245 0.33672,0 0.50508,-0.16836 0.50508,-0.50507 0,-0.33672 0.16836,-0.50508 0.50508,-0.50508 0.33671,0 0.50507,-0.16836 0.50507,-0.50508 0,-0.33671 0.16836,-0.50507 0.50508,-0.50507 0.28424,0 0.50508,-0.16836 0.50508,-0.38506 0,-0.21178 0.26036,-0.48405 0.57859,-0.60504 0.31822,-0.12099 0.72988,-0.40228 0.9148,-0.62509 0.18492,-0.22282 0.48877,-0.40512 0.67522,-0.40512 0.18645,0 0.46064,-0.22728 0.60931,-0.50507 0.14867,-0.2778 0.43677,-0.50508 0.64023,-0.50508 0.20345,0 0.36992,-0.17403 0.36992,-0.38673 0,-0.21271 0.1985,-0.46291 0.4411,-0.55601 0.24261,-0.0931 1.04806,-0.77138 1.78988,-1.5073 0.74182,-0.73592 1.4448,-1.33803 1.56218,-1.33803 0.11738,0 0.28555,-0.22729 0.37372,-0.50508 0.0882,-0.27779 0.30985,-0.50508 0.49264,-0.50508 0.39844,0 0.64786,-0.81374 0.46441,-1.51522 -0.0726,-0.2778 -0.28163,-0.50508 -0.46441,-0.50508 -0.18279,0 -0.40448,-0.22728 -0.49264,-0.50508 -0.0882,-0.27779 -0.31545,-0.50507 -0.50508,-0.50507 -0.18962,0 -0.41691,-0.22729 -0.50508,-0.50508 -0.0882,-0.27779 -0.31545,-0.50508 -0.50507,-0.50508 -0.18963,0 -0.41691,-0.22728 -0.50508,-0.50507 -0.0882,-0.27779 -0.31911,-0.50508 -0.51321,-0.50508 -0.19409,0 -0.47454,-0.22728 -0.62321,-0.50507 -0.14867,-0.2778 -0.43677,-0.50508 -0.64023,-0.50508 -0.20346,0 -0.36992,-0.17046 -0.36992,-0.37881 0,-0.20834 -0.12902,-0.37881 -0.28672,-0.37881 -0.15769,0 -0.54672,-0.25569 -0.8645,-0.56821 -0.83114,-0.81735 -2.0448,-1.70463 -2.33167,-1.70463 -0.13545,0 -0.30571,-0.22728 -0.37836,-0.50507 -0.0726,-0.2778 -0.29992,-0.50508 -0.50507,-0.50508 -0.20515,0 -0.43243,-0.22729 -0.50508,-0.50508 -0.0726,-0.27779 -0.31318,-0.50507 -0.53453,-0.50507 -0.22135,0 -0.40245,-0.17047 -0.40245,-0.37881 0,-0.20834 -0.1811,-0.37881 -0.40245,-0.37881 -0.22135,0 -0.46188,-0.22728 -0.53453,-0.50507 -0.0726,-0.2778 -0.33286,-0.50508 -0.57825,-0.50508 -0.24539,0 -0.5056,-0.22728 -0.57825,-0.50508 -0.0726,-0.27779 -0.30552,-0.50507 -0.51751,-0.50507 -0.21199,0 -0.45757,-0.22729 -0.54574,-0.50508 -0.0882,-0.27779 -0.32311,-0.50508 -0.52209,-0.50508 -0.19898,0 -0.58907,-0.22728 -0.86687,-0.50507 -0.27779,-0.27779 -0.73236,-0.50508 -1.01015,-0.50508 -0.41138,0 -0.50507,-0.16836 -0.50507,-0.90752 0,-0.69515 -0.11821,-0.93844 -0.50508,-1.03961 -0.45073,-0.11787 -0.50508,-0.34447 -0.50508,-2.10591 0,-1.75204 0.0568,-1.99185 0.50508,-2.13414 0.27779,-0.0882 0.50508,-0.31546 0.50508,-0.50508 0,-0.18962 0.22728,-0.41691 0.50507,-0.50507 0.27779,-0.0882 0.50508,-0.32311 0.50508,-0.5221 0,-0.21755 0.25171,-0.36179 0.63134,-0.36179 0.34724,0 0.85863,-0.22728 1.13643,-0.50507 0.40442,-0.40443 0.84478,-0.50577 2.2097,-0.50853 2.045,-0.004 2.84106,-0.18833 2.84106,-0.65735 0,-0.2671 0.46082,-0.35017 1.95717,-0.3528 2.2899,-0.004 3.09359,-0.17481 3.09359,-0.65735 0,-0.2671 0.46082,-0.35017 1.95717,-0.3528 2.28991,-0.004 3.09359,-0.17481 3.09359,-0.65735 0,-0.26978 0.48424,-0.34936 2.12592,-0.34936 2.34179,0 2.92485,-0.13124 2.92485,-0.65836 0,-0.20371 0.25706,-0.35179 0.61069,-0.35179 1.04043,0 1.40961,-0.26718 1.40961,-1.02015 0,-0.49179 -0.15699,-0.76341 -0.50508,-0.87389 -0.42239,-0.13406 -0.50507,-0.38209 -0.50507,-1.51523 0,-1.13313 -0.0827,-1.38116 -0.50508,-1.51522 -0.42342,-0.13439 -0.50507,-0.3821 -0.50507,-1.53225 0,-1.20358 -0.062,-1.37194 -0.50508,-1.37194 -0.44488,0 -0.50508,-0.16836 -0.50508,-1.41261 0,-1.20021 -0.0759,-1.43245 -0.50507,-1.54468 -0.42752,-0.1118 -0.50508,-0.34446 -0.50508,-1.51523 0,-1.17076 -0.0775,-1.40343 -0.50508,-1.51523 -0.42752,-0.11179 -0.50507,-0.34446 -0.50507,-1.51522 0,-1.17077 -0.0776,-1.40343 -0.50508,-1.51523 -0.43288,-0.1132 -0.50507,-0.34447 -0.50507,-1.61786 0,-1.08653 -0.0926,-1.48577 -0.34449,-1.48577 -0.39419,0 -0.66567,-1.55085 -0.66567,-3.80267 0,-1.68912 0.16592,-2.25825 0.65837,-2.25825 0.19348,0 0.35179,-0.22728 0.35179,-0.50508 0,-0.33671 0.16835,-0.50507 0.50507,-0.50507 0.33672,0 0.50508,-0.16836 0.50508,-0.50508 0,-0.47171 0.16836,-0.50507 2.54902,-0.50507 2.33664,0 2.56003,0.0421 2.68111,0.50507 0.11118,0.42517 0.34446,0.50508 1.47456,0.50508 1.1207,0 1.36898,0.0834 1.5028,0.50507 0.13319,0.41965 0.3821,0.50508 1.4715,0.50508 1.03769,0 1.37699,0.10535 1.62662,0.50508 0.2463,0.39439 0.58892,0.50507 1.56342,0.50507 0.89218,0 1.31384,0.11764 1.4789,0.4126 0.14849,0.26532 0.68611,0.45633 1.50619,0.53513 0.97433,0.0936 1.3046,0.23464 1.3995,0.59756 0.10253,0.39206 0.36578,0.47502 1.50737,0.47502 1.17077,0 1.40343,0.0776 1.51523,0.50508 0.10117,0.38687 0.34447,0.50507 1.03961,0.50507 0.57826,0 1.0954,0.18788 1.42536,0.51783 0.41494,0.41495 0.77872,0.50276 1.8309,0.44195 l 1.31307,-0.0759 0.0733,-1.93036 c 0.0634,-1.67092 0.1398,-1.94777 0.56821,-2.0598 0.44817,-0.1172 0.49494,-0.35836 0.49494,-2.55218 0,-2.2544 0.0351,-2.42276 0.50508,-2.42276 0.46298,0 0.50507,-0.16836 0.50507,-2.0203 0,-1.68359 0.0842,-2.10449 0.50508,-2.52539 0.41828,-0.41828 0.50507,-0.84179 0.50507,-2.46463 0,-1.68606 0.0705,-2.00358 0.50508,-2.27498 0.42081,-0.2628 0.50508,-0.58893 0.50508,-1.95479 0,-1.30264 0.10374,-1.74309 0.50507,-2.14443 0.27779,-0.27779 0.50508,-0.7247 0.50508,-0.99313 0,-0.26844 0.22728,-0.5602 0.50508,-0.64837 0.27779,-0.0882 0.50507,-0.32311 0.50507,-0.52209 0,-0.19899 0.1811,-0.36179 0.40245,-0.36179 0.22135,0 0.46189,-0.22729 0.53453,-0.50508 0.19307,-0.7383 2.87041,-0.7383 3.60871,0 0.27779,0.27779 0.71911,0.50508 0.9807,0.50508 0.26323,0 0.5346,0.22554 0.6077,0.50507 0.0726,0.2778 0.29993,0.50508 0.50508,0.50508 0.20514,0 0.43243,0.22729 0.50507,0.50508 0.0726,0.27779 0.29993,0.50507 0.50508,0.50507 0.20515,0 0.43243,0.22729 0.50507,0.50508 0.0726,0.27779 0.31319,0.50508 0.53453,0.50508 0.23409,0 0.40245,0.21129 0.40245,0.50507 0,0.27779 0.20756,0.71263 0.46124,0.96631 0.25368,0.25368 0.53421,0.65143 0.62342,0.88389 0.0892,0.23245 0.32296,0.42265 0.51946,0.42265 0.19651,0 0.41672,0.22728 0.48936,0.50507 0.0726,0.27779 0.31318,0.50508 0.53453,0.50508 0.23409,0 0.40245,0.21129 0.40245,0.50507 0,0.33672 0.16836,0.50508 0.50508,0.50508 0.33671,0 0.50507,0.16836 0.50507,0.50508 0,0.33671 0.16836,0.50507 0.50508,0.50507 0.33672,0 0.50508,0.16836 0.50508,0.50508 0,0.33672 0.16836,0.50508 0.50507,0.50508 0.33672,0 0.50508,0.16835 0.50508,0.50507 0,0.33672 0.16836,0.50508 0.50508,0.50508 0.33671,0 0.50507,0.16836 0.50507,0.50507 0,0.33672 0.16836,0.50508 0.50508,0.50508 0.33672,0 0.50507,0.16836 0.50507,0.50508 0,0.27779 0.22729,0.73236 0.50508,1.01015 0.27779,0.27779 0.50508,0.61227 0.50508,0.74329 0,0.13102 0.20635,0.38672 0.45857,0.56822 0.25221,0.18149 0.53275,0.52886 0.62342,0.77193 0.0907,0.24307 0.33888,0.44194 0.55158,0.44194 0.21837,0 0.38673,0.21988 0.38673,0.50508 0,0.44385 0.16836,0.50507 1.38896,0.50507 1.2206,0 1.38896,-0.0612 1.38896,-0.50507 0,-0.33672 0.16836,-0.50508 0.50508,-0.50508 0.33671,0 0.50507,-0.16836 0.50507,-0.50508 0,-0.29378 0.16836,-0.50507 0.40245,-0.50507 0.22135,0 0.46189,-0.22729 0.53453,-0.50508 0.0726,-0.27779 0.29286,-0.50507 0.48936,-0.50507 0.19651,0 0.43027,-0.1902 0.51947,-0.42265 0.0892,-0.23246 0.37501,-0.65862 0.63514,-0.94702 0.26013,-0.2884 0.62781,-0.69483 0.81707,-0.90318 0.18926,-0.20834 0.48633,-0.69132 0.66016,-1.07328 0.17382,-0.38197 0.46827,-0.69448 0.65432,-0.69448 0.18604,0 0.33827,-0.22729 0.33827,-0.50508 0,-0.33672 0.16836,-0.50508 0.50507,-0.50508 0.33672,0 0.50508,-0.16836 0.50508,-0.50507 0,-0.33672 0.16836,-0.50508 0.50508,-0.50508 0.33671,0 0.50507,-0.16836 0.50507,-0.50508 0,-0.33671 0.16836,-0.50507 0.50508,-0.50507 0.33671,0 0.50507,-0.16836 0.50507,-0.50508 0,-0.29378 0.16836,-0.50507 0.40245,-0.50507 0.22135,0 0.46189,-0.22729 0.53453,-0.50508 0.0727,-0.27779 0.28163,-0.50508 0.46442,-0.50508 0.18278,0 0.40447,-0.22728 0.49264,-0.50507 0.0882,-0.2778 0.32311,-0.50508 0.5221,-0.50508 0.19898,0 0.36178,-0.16646 0.36178,-0.36992 0,-0.20346 0.21805,-0.48662 0.48455,-0.62925 0.26651,-0.14262 0.55964,-0.60119 0.65141,-1.01903 0.0959,-0.43664 0.32948,-0.75972 0.54925,-0.75972 0.21031,0 0.44182,-0.22728 0.51446,-0.50508 0.0727,-0.27779 0.33682,-0.50507 0.58705,-0.50507 0.72506,0 1.25389,-0.27767 1.25389,-0.65837 0,-0.26461 0.40679,-0.35178 1.6415,-0.35178 1.23472,0 1.6415,0.0872 1.6415,0.35178 0,0.38116 0.52899,0.65837 1.25633,0.65837 0.48163,0 0.76398,0.47428 0.76398,1.28334 0,0.26644 0.15578,0.48443 0.34618,0.48443 0.23476,0 0.40003,0.47588 0.51345,1.47841 0.092,0.81313 0.33035,1.69386 0.52967,1.95717 0.19932,0.26332 0.36726,0.99015 0.37321,1.61518 0.0171,1.80365 0.28825,3.03046 0.66964,3.03046 0.25913,0 0.34576,0.43501 0.34576,1.7362 0,2.15949 0.22025,3.31456 0.63203,3.31456 0.22195,0 0.34877,0.67812 0.425,2.27267 0.0811,1.69538 0.21193,2.3529 0.51522,2.58852 0.30039,0.23335 0.42883,0.85703 0.49181,2.38801 0.0472,1.14673 0.21898,2.20591 0.38469,2.37162 0.16469,0.1647 0.86115,0.35342 1.54769,0.41939 1.03281,0.0992 1.34047,0.0277 1.78263,-0.41445 0.34058,-0.34058 0.85494,-0.53439 1.41827,-0.53439 0.54717,0 1.07629,-0.19241 1.38896,-0.50507 0.31768,-0.31768 0.84179,-0.50508 1.4126,-0.50508 0.69514,0 0.93844,-0.1182 1.03961,-0.50508 0.10917,-0.41746 0.34447,-0.50507 1.35643,-0.50507 0.96589,0 1.28142,-0.10663 1.49466,-0.50508 0.21858,-0.40842 0.52877,-0.50508 1.62093,-0.50508 1.13824,0 1.37139,-0.0794 1.4827,-0.50507 0.11223,-0.42914 0.34447,-0.50508 1.54468,-0.50508 1.24425,0 1.41261,-0.0602 1.41261,-0.50508 0,-0.44895 0.16836,-0.50507 1.51523,-0.50507 1.34687,0 1.51522,-0.0561 1.51522,-0.50508 0,-0.4714 0.16836,-0.50507 2.52539,-0.50507 2.09942,0 2.52538,0.0652 2.52538,0.38673 0,0.2127 0.19887,0.45993 0.44194,0.54939 0.70992,0.26129 1.51968,1.25224 1.70214,2.08301 0.0929,0.42292 0.33033,0.76894 0.52763,0.76894 0.53777,0 0.43997,1.18146 -0.14633,1.76777 -0.39061,0.39061 -0.50508,0.84179 -0.50508,1.99085 0,1.27338 -0.0722,1.50465 -0.50507,1.61785 -0.42914,0.11222 -0.50508,0.34447 -0.50508,1.54468 0,1.03907 -0.093,1.41261 -0.35179,1.41261 -0.46348,0 -0.65836,0.55806 -0.65836,1.88523 0,0.87393 -0.0987,1.11214 -0.50508,1.2184 -0.41755,0.10919 -0.50508,0.34446 -0.50508,1.35766 0,0.95209 -0.11271,1.29598 -0.50507,1.54102 -0.72633,0.45359 -0.73274,2.57173 -0.008,2.76116 0.27319,0.0714 0.56496,0.34491 0.64836,0.6077 0.0834,0.2628 0.31446,0.47781 0.51344,0.47781 0.19899,0 0.58908,0.22729 0.86687,0.50508 0.27779,0.27779 0.71911,0.50508 0.9807,0.50508 0.26323,0 0.5346,0.22553 0.6077,0.50507 0.079,0.30219 0.34447,0.50508 0.6608,0.50508 0.29079,0 0.52872,0.15831 0.52872,0.35179 0,0.38613 0.53065,0.65836 1.28334,0.65836 0.31607,0 0.48443,0.17554 0.48443,0.50508 0,0.33671 0.16835,0.50507 0.50507,0.50507 0.33672,0 0.50508,0.16836 0.50508,0.50508 0,0.33672 0.16836,0.50508 0.50507,0.50508 0.33672,0 0.50508,0.16836 0.50508,0.50507 0,0.33672 0.16836,0.50508 0.50508,0.50508 0.33671,0 0.50507,0.16836 0.50507,0.50508 0,0.33671 0.16836,0.50507 0.50508,0.50507 0.33672,0 0.50508,0.16836 0.50508,0.50508 0,0.27779 0.22728,0.73236 0.50507,1.01015 0.27779,0.27779 0.50508,0.68618 0.50508,0.90753 0,0.22134 0.22728,0.46188 0.50507,0.53453 0.37953,0.0992 0.50508,0.34446 0.50508,0.98651 0,0.59729 0.11588,0.85443 0.38506,0.85443 0.21178,0 0.49307,0.2841 0.62509,0.63134 0.13202,0.34724 0.41332,0.63135 0.6251,0.63135 0.27953,0 0.38506,0.27116 0.38506,0.98949 0,1.23381 0.20417,1.78843 0.65836,1.78843 0.24869,0 0.35179,0.33378 0.35179,1.13889 0,0.82638 0.13859,1.25756 0.50507,1.57135 0.33963,0.2908 0.50508,0.74498 0.50508,1.38649 0,0.78567 0.0891,0.95403 0.50508,0.95403 0.33671,0 0.50507,0.16836 0.50507,0.50508 0,0.42089 0.16836,0.50507 1.01016,0.50507 0.84179,0 1.01015,0.0842 1.01015,0.50508 0,0.36149 0.16836,0.50507 0.5922,0.50507 0.32572,0 0.7979,0.22729 1.0493,0.50508 0.2514,0.27779 0.66675,0.50508 0.92302,0.50508 0.29758,0 0.46594,0.1825 0.46594,0.50507 0,0.36993 0.16836,0.50508 0.6292,0.50508 0.35571,0 0.76631,0.21954 0.94463,0.50508 0.17348,0.27779 0.50212,0.50507 0.7303,0.50507 0.22818,0 0.47431,0.22729 0.54696,0.50508 0.0726,0.27779 0.31318,0.50507 0.53453,0.50507 0.22135,0 0.40245,0.20748 0.40245,0.46106 0,0.25358 0.2841,0.72796 0.63134,1.05417 0.34724,0.32622 0.63135,0.74734 0.63135,0.93583 0,0.1885 0.15926,0.40383 0.35392,0.47853 0.19466,0.0747 0.4113,0.35523 0.48143,0.62342 0.0701,0.26818 0.30862,0.4876 0.52997,0.4876 0.27855,0 0.40245,0.23258 0.40245,0.75548 0,0.48197 0.18285,0.86967 0.50507,1.0709 0.30624,0.19125 0.50508,0.58892 0.50508,1.01015 0,0.42123 0.19884,0.81891 0.50507,1.01015 0.32888,0.20539 0.50508,0.58893 0.50508,1.09943 0,0.45147 0.20497,0.96948 0.48325,1.22132 0.4078,0.36906 0.49651,0.8667 0.56821,3.18749 0.0659,2.13259 0.17813,2.84317 0.49985,3.16439 0.3848,0.38422 0.38022,0.44891 -0.0631,0.89227 -0.4083,0.4083 -0.47802,0.86477 -0.47802,3.12967 0,2.08931 -0.0741,2.65165 -0.34936,2.65165 -0.39088,0 -0.65216,0.75379 -0.65735,1.89643 -0.002,0.48385 -0.18697,0.87461 -0.50852,1.07542 -0.31481,0.1966 -0.50508,0.58893 -0.50508,1.04145 0,0.51363 -0.14775,0.76466 -0.50507,0.8581 -0.3309,0.0865 -0.50508,0.34446 -0.50508,0.74793 0,0.33871 -0.22728,0.82153 -0.50508,1.07293 -0.27779,0.2514 -0.50507,0.60994 -0.50507,0.79676 0,0.18681 -0.17403,0.33966 -0.38673,0.33966 -0.21271,0 -0.46269,0.19888 -0.55552,0.44195 -0.0928,0.24306 -0.54384,0.79628 -1.00223,1.22937 -0.45839,0.43309 -0.83344,0.91607 -0.83344,1.07329 0,0.15722 -0.1811,0.28585 -0.40245,0.28585 -0.22135,0 -0.46189,0.22729 -0.53453,0.50508 -0.0726,0.27779 -0.33845,0.50507 -0.59069,0.50507 -0.25223,0 -0.53074,0.22729 -0.61891,0.50508 -0.0882,0.27779 -0.33375,0.50508 -0.54573,0.50508 -0.21199,0 -0.44487,0.22728 -0.51751,0.50507 -0.0948,0.3624 -0.34447,0.50508 -0.88389,0.50508 -0.53942,0 -0.78911,0.14268 -0.88388,0.50508 -0.0855,0.32685 -0.34447,0.50507 -0.73397,0.50507 -0.33104,0 -0.82918,0.22729 -1.10697,0.50508 -0.27779,0.27779 -0.67554,0.50508 -0.88388,0.50508 -0.20835,0 -0.6061,0.22728 -0.88389,0.50507 -0.37016,0.37016 -0.84179,0.50508 -1.76563,0.50508 -0.98705,0 -1.32898,0.10958 -1.57597,0.50507 -0.30284,0.48494 -0.58893,0.50508 -7.17246,0.50508 -7.66773,0 -7.16361,-0.13329 -7.16361,1.89404 0,1.33567 0.19409,1.89403 0.65837,1.89403 0.24761,0 0.35178,0.33042 0.35178,1.11577 0,1.32905 0.19155,1.91469 0.62624,1.91469 0.20044,0 0.36643,0.48674 0.44506,1.30508 0.0766,0.7976 0.28553,1.42218 0.53721,1.60621 0.2659,0.19443 0.4118,0.67151 0.4118,1.34656 0,0.70873 0.16267,1.20813 0.50508,1.55053 0.37286,0.37286 0.50507,0.84179 0.50507,1.79141 0,1.07395 0.0834,1.30814 0.50508,1.41841 0.39569,0.10348 0.50508,0.34447 0.50508,1.11278 0,0.6699 -0.11149,0.9807 -0.35179,0.9807 -0.40257,0 -0.65837,0.53624 -0.65837,1.38016 0,0.36885 -0.18455,0.6295 -0.50507,0.71332 -0.2778,0.0726 -0.50508,0.31318 -0.50508,0.53453 0,0.23409 -0.21129,0.40245 -0.50508,0.40245 -0.33671,0 -0.50507,0.16835 -0.50507,0.50507 0,0.46237 -0.16836,0.50508 -1.99085,0.50508 -1.77847,0 -2.00494,-0.0539 -2.12294,-0.50508 -0.11745,-0.44914 -0.34446,-0.50507 -2.04975,-0.50507 -1.74932,0 -1.91768,-0.0444 -1.91768,-0.50508 0,-0.4209 -0.16836,-0.50508 -1.01016,-0.50508 -0.84179,0 -1.01015,-0.0842 -1.01015,-0.50507 0,-0.44785 -0.16836,-0.50508 -1.48577,-0.50508 -1.27339,0 -1.50466,-0.0722 -1.61786,-0.50508 -0.11027,-0.42168 -0.34446,-0.50507 -1.41841,-0.50507 -0.94962,0 -1.41855,-0.13221 -1.79141,-0.50508 -0.35543,-0.35542 -0.84179,-0.50507 -1.6415,-0.50507 -0.79921,0 -1.13642,-0.10367 -1.13642,-0.34936 0,-0.39454 -0.75572,-0.65224 -1.92772,-0.65735 -0.57721,-0.003 -0.82702,-0.14009 -0.92337,-0.50852 -0.1153,-0.4409 -0.34447,-0.50508 -1.80347,-0.50508 -1.56176,0 -1.68755,0.0425 -1.91768,0.64779 -0.13546,0.35628 -0.24629,1.4927 -0.24629,2.52538 0,1.42475 -0.0838,1.87759 -0.34724,1.87759 -0.44122,0 -0.66291,1.10845 -0.66291,3.31457 0,1.30987 -0.0858,1.7362 -0.34936,1.7362 -0.45606,0 -0.6531,0.78885 -0.65735,2.63176 -0.002,1.00044 -0.13467,1.64034 -0.39993,1.93346 -0.25579,0.28264 -0.44672,1.14109 -0.53804,2.419 -0.0778,1.08948 -0.28499,2.15134 -0.46032,2.35969 -0.17533,0.20834 -0.39895,1.08907 -0.49692,1.95717 -0.12423,1.10078 -0.28525,1.57836 -0.53214,1.57836 -0.19471,0 -0.35401,0.21403 -0.35401,0.47562 0,0.26324 -0.22554,0.5346 -0.50508,0.60771 -0.27779,0.0726 -0.50508,0.31318 -0.50508,0.53453 0,0.23409 -0.21129,0.40245 -0.50507,0.40245 -0.33672,0 -0.50508,0.16836 -0.50508,0.50507 0,0.45233 -0.16836,0.50508 -1.61204,0.50508 -1.39966,0 -1.62945,-0.0665 -1.74413,-0.50508 -0.0962,-0.36777 -0.34446,-0.50507 -0.91334,-0.50507 -0.54649,0 -0.78125,-0.12094 -0.78125,-0.40245 0,-0.22135 -0.22729,-0.46189 -0.50508,-0.53453 -0.28511,-0.0746 -0.50508,-0.34447 -0.50508,-0.61977 0,-0.26822 -0.2841,-0.75098 -0.63134,-1.07279 -0.34724,-0.32181 -0.63135,-0.6611 -0.63135,-0.75397 0,-0.0929 -0.38037,-0.54924 -0.84528,-1.01415 -0.4649,-0.4649 -0.91591,-1.02933 -1.00222,-1.25427 -0.0863,-0.22495 -0.31773,-0.40899 -0.51423,-0.40899 -0.1965,0 -0.41671,-0.22728 -0.48936,-0.50508 -0.0726,-0.27779 -0.29993,-0.50507 -0.50507,-0.50507 -0.20515,0 -0.43244,-0.22729 -0.50508,-0.50508 -0.0727,-0.27779 -0.31318,-0.50507 -0.53453,-0.50507 -0.22135,0 -0.40245,-0.16647 -0.40245,-0.36993 0,-0.20346 -0.22728,-0.49156 -0.50508,-0.64023 -0.27779,-0.14867 -0.50507,-0.43092 -0.50507,-0.62722 0,-0.1963 -0.28411,-0.66346 -0.63135,-1.03814 -0.34724,-0.37468 -0.63134,-0.77828 -0.63134,-0.89689 0,-0.11862 -0.15721,-0.21567 -0.34936,-0.21567 -0.19214,0 -0.40879,-0.22728 -0.48143,-0.50507 -0.0727,-0.2778 -0.31318,-0.50508 -0.53453,-0.50508 -0.23409,0 -0.40245,-0.21129 -0.40245,-0.50508 0,-0.33671 -0.16836,-0.50507 -0.50508,-0.50507 -0.33671,0 -0.50507,-0.16836 -0.50507,-0.50508 0,-0.33671 -0.16836,-0.50507 -0.50508,-0.50507 -0.33672,0 -0.50508,-0.16836 -0.50508,-0.50508 0,-0.33672 -0.16836,-0.50508 -0.50507,-0.50508 -0.33672,0 -0.50508,-0.16836 -0.50508,-0.50507 0,-0.44386 -0.16836,-0.50508 -1.38896,-0.50508 -1.2206,0 -1.38896,0.0612 -1.38896,0.50508 0,0.33671 -0.16836,0.50507 -0.50507,0.50507 -0.33672,0 -0.50508,0.16836 -0.50508,0.50508 0,0.33672 -0.16836,0.50508 -0.50508,0.50508 -0.33671,0 -0.50507,0.16836 -0.50507,0.50507 0,0.2852 -0.16836,0.50508 -0.38673,0.50508 -0.21271,0 -0.45972,0.19019 -0.54892,0.42265 -0.0892,0.23245 -0.36975,0.6302 -0.62342,0.88388 -0.25368,0.25368 -0.46124,0.6277 -0.46124,0.83116 0,0.20346 -0.22728,0.49156 -0.50507,0.64023 -0.2778,0.14867 -0.50508,0.43677 -0.50508,0.64023 0,0.20345 -0.1811,0.36992 -0.40245,0.36992 -0.22135,0 -0.46188,0.22728 -0.53453,0.50508 -0.0726,0.27779 -0.29993,0.50507 -0.50508,0.50507 -0.20514,0 -0.43145,0.22352 -0.50289,0.49671 -0.0714,0.2732 -0.3449,0.56496 -0.6077,0.64837 -0.26279,0.0834 -0.47781,0.3068 -0.47781,0.49642 0,0.18962 -0.22728,0.41691 -0.50507,0.50508 -0.2778,0.0882 -0.50508,0.31911 -0.50508,0.5132 0,0.1941 -0.22728,0.47455 -0.50508,0.62322 -0.27779,0.14867 -0.50507,0.43677 -0.50507,0.64023 0,0.20346 -0.16281,0.36992 -0.36179,0.36992 -0.19899,0 -0.42917,0.2123 -0.51153,0.47177 -0.0823,0.25948 -0.37411,0.67483 -0.64836,0.92302 -0.27425,0.24819 -0.49863,0.66093 -0.49863,0.9172 0,0.29757 -0.1825,0.46593 -0.50507,0.46593 -0.33672,0 -0.50508,0.16836 -0.50508,0.50508 0,0.33671 -0.16836,0.50507 -0.50508,0.50507 -0.33671,0 -0.50507,0.16836 -0.50507,0.50508 0,0.33672 -0.16836,0.50508 -0.50508,0.50508 -0.27779,0 -0.73236,0.22728 -1.01015,0.50507 -0.62701,0.62701 -2.77792,0.73364 -2.77792,0.13771 z m 37.32258,-15.33206 c 0.0712,-0.74079 0.26924,-1.46054 0.44015,-1.59943 0.18062,-0.14678 0.37243,-1.19809 0.45802,-2.51037 0.10787,-1.65395 0.25094,-2.31585 0.53496,-2.47479 0.29787,-0.1667 0.3877,-0.68216 0.3877,-2.22473 0,-1.67104 0.0847,-2.09246 0.50508,-2.51283 0.42926,-0.42927 0.50507,-0.8418 0.50507,-2.74847 0,-2.031 0.0478,-2.25589 0.50508,-2.37547 0.45037,-0.11777 0.50507,-0.34446 0.50507,-2.09301 0,-1.47027 0.10458,-2.07648 0.41795,-2.42275 0.55144,-0.60934 1.72897,-0.58776 2.35997,0.0433 0.32993,0.32993 0.8418,0.50507 1.47609,0.50507 0.65029,0 1.12199,0.16683 1.4281,0.50508 0.31855,0.35199 0.77781,0.50508 1.51523,0.50508 0.73742,0 1.19669,0.15309 1.51523,0.50507 0.30611,0.33826 0.77781,0.50508 1.4281,0.50508 0.6343,0 1.14616,0.17515 1.47609,0.50508 0.33672,0.33671 0.84179,0.50507 1.51523,0.50507 0.67343,0 1.17851,0.16836 1.51523,0.50508 0.33671,0.33672 0.84179,0.50507 1.51522,0.50507 0.67344,0 1.17852,0.16836 1.51523,0.50508 0.33672,0.33672 0.8418,0.50508 1.51523,0.50508 0.68173,0 1.17851,0.16836 1.52799,0.51783 0.41494,0.41494 0.77872,0.50275 1.8309,0.44194 l 1.31307,-0.0759 0.0763,-1.18361 c 0.0632,-0.98061 -0.0126,-1.23119 -0.44194,-1.46098 -0.39192,-0.20975 -0.51827,-0.52714 -0.51827,-1.30194 0,-0.64218 -0.1885,-1.26421 -0.50507,-1.66667 -0.30074,-0.38232 -0.50508,-1.02449 -0.50508,-1.58727 0,-0.51985 -0.16058,-1.07845 -0.35685,-1.24134 -0.19628,-0.16289 -0.43344,-0.85294 -0.52703,-1.53345 -0.0936,-0.6805 -0.3184,-1.3603 -0.49957,-1.51066 -0.18118,-0.15036 -0.40534,-0.77975 -0.49815,-1.39864 -0.0928,-0.6189 -0.31391,-1.27044 -0.49133,-1.44786 -0.17743,-0.17743 -0.38832,-0.81263 -0.46866,-1.41158 -0.0803,-0.59894 -0.32616,-1.28799 -0.54627,-1.53121 -0.22011,-0.24323 -0.40021,-0.68898 -0.40021,-0.99055 v -0.54833 h 12.75104 c 12.47753,0 12.7578,-0.0108 13.06646,-0.50508 0.22456,-0.35957 0.58892,-0.50507 1.26483,-0.50507 0.61269,0 1.12853,-0.17913 1.45448,-0.50508 0.27779,-0.27779 0.67154,-0.50508 0.875,-0.50508 0.20346,0 0.48352,-0.21227 0.62237,-0.47171 0.13885,-0.25944 0.59742,-0.54071 1.01904,-0.62503 0.45161,-0.0903 0.76659,-0.31156 0.76659,-0.53844 0,-0.21182 0.1811,-0.38512 0.40244,-0.38512 0.22135,0 0.46189,-0.22728 0.53453,-0.50508 0.0726,-0.27779 0.29211,-0.50507 0.48769,-0.50507 0.19558,0 0.45773,-0.26861 0.58255,-0.59691 0.12481,-0.32829 0.40611,-0.66565 0.62509,-0.74968 0.2365,-0.0908 0.39815,-0.45165 0.39815,-0.88888 0,-0.5237 0.14573,-0.77419 0.50508,-0.86816 0.37908,-0.0991 0.50508,-0.34447 0.50508,-0.98349 0,-0.53888 0.18539,-1.01013 0.50507,-1.28386 0.47384,-0.40571 0.50508,-0.74497 0.50508,-5.48569 0,-4.88488 -0.0168,-5.05324 -0.50508,-5.05324 -0.44309,0 -0.50507,-0.16835 -0.50507,-1.37194 0,-1.15015 -0.0817,-1.39786 -0.50508,-1.53224 -0.35542,-0.11281 -0.50508,-0.3821 -0.50508,-0.90883 0,-0.44855 -0.15956,-0.80975 -0.39815,-0.90131 -0.21898,-0.084 -0.50028,-0.42139 -0.62509,-0.74969 -0.12482,-0.32829 -0.40022,-0.5969 -0.612,-0.5969 -0.21179,0 -0.38506,-0.1811 -0.38506,-0.40245 0,-0.22135 -0.22729,-0.46188 -0.50508,-0.53453 -0.27779,-0.0727 -0.50507,-0.27713 -0.50507,-0.45441 0,-0.3801 -0.55768,-0.62892 -1.40962,-0.62892 -0.44233,0 -0.61069,-0.13924 -0.61069,-0.50507 0,-0.2806 -0.16836,-0.50508 -0.37881,-0.50508 -0.20834,0 -0.60609,-0.22728 -0.88388,-0.50507 -0.33672,-0.33672 -0.84179,-0.50508 -1.51523,-0.50508 -0.67344,0 -1.17851,-0.16836 -1.51523,-0.50508 -0.39111,-0.39111 -0.84179,-0.50507 -1.99732,-0.50507 h -1.49224 l -0.0861,-2.67242 c -0.0705,-2.18869 -0.16612,-2.73084 -0.52806,-2.99517 -0.29527,-0.21563 -0.44194,-0.66285 -0.44194,-1.34753 0,-1.26781 -0.20069,-1.82372 -0.65837,-1.82372 -0.23543,0 -0.35179,-0.30017 -0.35179,-0.90752 0,-0.69515 -0.1182,-0.93844 -0.50507,-1.03961 -0.35733,-0.0934 -0.50508,-0.34447 -0.50508,-0.8581 0,-0.45252 -0.19027,-0.84485 -0.50508,-1.04145 -0.27779,-0.17348 -0.50507,-0.49776 -0.50507,-0.72061 0,-0.22286 -0.22729,-0.61088 -0.50508,-0.86228 -0.27779,-0.2514 -0.50507,-0.60349 -0.50507,-0.78243 0,-0.17894 -0.20636,-0.47385 -0.45858,-0.65534 -0.25221,-0.1815 -0.53275,-0.52887 -0.62342,-0.77194 -0.0907,-0.24306 -0.33887,-0.44194 -0.55158,-0.44194 -0.21837,0 -0.38673,-0.21988 -0.38673,-0.50507 0,-0.33672 -0.16836,-0.50508 -0.50508,-0.50508 -0.2852,0 -0.50507,-0.16836 -0.50507,-0.38673 0,-0.21271 -0.19019,-0.45972 -0.42265,-0.54892 -0.23246,-0.0892 -0.63021,-0.36974 -0.88389,-0.62342 -0.25367,-0.25368 -0.74533,-0.46124 -1.09257,-0.46124 -0.46299,0 -0.63135,-0.13468 -0.63135,-0.50507 0,-0.32629 -0.16836,-0.50508 -0.47562,-0.50508 -0.26324,0 -0.5346,-0.22554 -0.60771,-0.50507 -0.10116,-0.38688 -0.34446,-0.50508 -1.0396,-0.50508 -0.73917,0 -0.90753,-0.0937 -0.90753,-0.50508 0,-0.41837 -0.16836,-0.50507 -0.9807,-0.50507 -0.76062,0 -1.00965,-0.11074 -1.10974,-0.49348 -0.11087,-0.42395 -0.39076,-0.504 -1.98663,-0.56821 l -1.85757,-0.0747 0.0667,-1.46642 c 0.0367,-0.80653 0.22981,-1.71567 0.42917,-2.0203 0.19937,-0.30464 0.43923,-1.03472 0.53303,-1.6224 0.0938,-0.58769 0.32683,-1.19823 0.51784,-1.35675 0.19101,-0.15853 0.34804,-0.70047 0.34896,-1.20432 10e-4,-0.50386 0.22745,-1.25703 0.50341,-1.67372 0.27596,-0.41668 0.5025,-1.15851 0.50341,-1.6485 10e-4,-0.57685 0.17971,-1.04334 0.50674,-1.32336 0.3492,-0.29899 0.50508,-0.74497 0.50508,-1.44508 v -1.01263 h -1.83329 c -1.55979,0 -1.88035,0.0754 -2.14872,0.50508 -0.24092,0.38578 -0.58892,0.50508 -1.47334,0.50508 -0.94555,0 -1.18216,0.0926 -1.29001,0.50507 -0.11083,0.42384 -0.34447,0.50508 -1.45244,0.50508 -0.99965,0 -1.4314,0.12268 -1.77746,0.50508 -0.31854,0.35198 -0.77781,0.50507 -1.51523,0.50507 -0.73742,0 -1.19668,0.15309 -1.51523,0.50508 -0.32239,0.35624 -0.77781,0.50507 -1.54548,0.50507 -0.82994,0 -1.15259,0.11994 -1.35871,0.50508 -0.21197,0.39608 -0.52876,0.50508 -1.46798,0.50508 -0.88517,0 -1.31053,0.13179 -1.63015,0.50507 -0.31091,0.36312 -0.74497,0.50508 -1.54433,0.50508 -0.70499,0 -1.16015,0.1258 -1.24379,0.34376 -0.20103,0.52387 -1.08987,0.65417 -1.67355,0.24535 -0.45332,-0.31751 -0.52142,-0.6303 -0.52142,-2.39484 0,-1.81724 -0.0529,-2.04345 -0.50507,-2.16171 -0.45871,-0.11995 -0.50508,-0.34446 -0.50508,-2.44561 0,-2.00102 -0.0682,-2.37195 -0.50507,-2.746 -0.42656,-0.36523 -0.50508,-0.74497 -0.50508,-2.44268 0,-1.55492 -0.0888,-2.05995 -0.39226,-2.22975 -0.29134,-0.16305 -0.43127,-0.8218 -0.54393,-2.56077 -0.10474,-1.61666 -0.25689,-2.38162 -0.49163,-2.4717 -0.219,-0.084 -0.33995,-0.55797 -0.33995,-1.33206 0,-0.83381 -0.16044,-1.40559 -0.52416,-1.86798 -0.4858,-0.6176 -0.56382,-0.63857 -1.06634,-0.28659 -0.2982,0.20887 -0.74418,0.37976 -0.99107,0.37976 -0.27126,0 -0.44889,0.18821 -0.44889,0.47562 0,0.26324 -0.22553,0.53461 -0.50507,0.60771 -0.27779,0.0726 -0.50508,0.31318 -0.50508,0.53453 0,0.22134 -0.17046,0.40245 -0.3788,0.40245 -0.20835,0 -0.37881,0.097 -0.37881,0.21566 0,0.11861 -0.2557,0.51335 -0.56821,0.8772 -1.04503,1.21667 -1.70464,2.14149 -1.70464,2.39002 0,0.13546 -0.22728,0.30572 -0.50507,0.37836 -0.27779,0.0726 -0.50508,0.29993 -0.50508,0.50508 0,0.20515 -0.22728,0.43243 -0.50507,0.50507 -0.2778,0.0727 -0.50508,0.31319 -0.50508,0.53453 0,0.22135 -0.17403,0.40245 -0.38673,0.40245 -0.21271,0 -0.45736,0.18405 -0.54368,0.40899 -0.0863,0.22495 -0.53732,0.78937 -1.00223,1.25428 -0.4649,0.4649 -0.84528,0.91002 -0.84528,0.98915 0,0.0791 -0.51139,0.67755 -1.13642,1.32983 -0.62503,0.65228 -1.13642,1.326 -1.13642,1.49716 0,0.17116 -0.22729,0.43284 -0.50508,0.58151 -0.27779,0.14867 -0.50508,0.43677 -0.50508,0.64023 0,0.20346 -0.1628,0.36992 -0.36178,0.36992 -0.19899,0 -0.43393,0.22729 -0.5221,0.50508 -0.0882,0.27779 -0.30986,0.50507 -0.49264,0.50507 -0.18279,0 -0.39177,0.22729 -0.46442,0.50508 -0.17993,0.68808 -1.18951,0.68808 -1.18951,0 0,-0.27857 -0.16836,-0.50508 -0.37542,-0.50508 -0.20648,0 -0.54161,-0.39774 -0.74473,-0.88388 -0.20312,-0.48614 -0.48875,-0.88388 -0.63473,-0.88388 -0.14599,0 -0.26543,-0.16647 -0.26543,-0.36993 0,-0.20345 -0.22728,-0.49156 -0.50507,-0.64023 -0.2778,-0.14866 -0.50508,-0.42911 -0.50508,-0.62321 0,-0.19409 -0.22729,-0.42504 -0.50508,-0.51321 -0.27779,-0.0882 -0.50507,-0.33375 -0.50507,-0.54573 0,-0.21199 -0.22729,-0.44487 -0.50508,-0.51752 -0.27779,-0.0726 -0.50508,-0.29992 -0.50508,-0.50507 0,-0.20515 -0.22728,-0.43243 -0.50507,-0.50508 -0.27779,-0.0726 -0.50508,-0.33285 -0.50508,-0.57825 0,-0.24539 -0.22728,-0.5056 -0.50507,-0.57825 -0.2778,-0.0726 -0.50508,-0.31318 -0.50508,-0.53453 0,-0.22134 -0.17046,-0.40245 -0.37881,-0.40245 -0.20834,0 -0.37881,-0.17403 -0.37881,-0.38673 0,-0.2127 -0.17466,-0.45376 -0.38814,-0.53568 -0.21348,-0.0819 -0.54308,-0.44769 -0.73243,-0.81282 -0.18935,-0.36513 -0.75336,-1.0844 -1.25335,-1.59838 -0.49999,-0.51397 -0.90907,-1.05377 -0.90907,-1.19956 0,-0.14578 -0.16281,-0.26505 -0.36179,-0.26505 -0.19898,0 -0.43393,-0.22729 -0.52209,-0.50508 -0.0882,-0.27779 -0.32311,-0.50507 -0.5221,-0.50507 -0.19898,0 -0.36179,-0.16647 -0.36179,-0.36993 0,-0.20345 -0.22728,-0.49156 -0.50507,-0.64023 -0.2778,-0.14867 -0.50508,-0.42295 -0.50508,-0.60951 0,-0.18766 -0.47674,-0.46021 -1.0671,-0.61006 -1.58683,-0.40278 -1.96336,0.0391 -1.96336,2.30416 0,1.35713 -0.0974,1.83513 -0.42225,2.07268 -0.32166,0.2352 -0.45029,0.84292 -0.53994,2.55087 -0.0874,1.66422 -0.22186,2.31829 -0.52187,2.53766 -0.3005,0.21973 -0.42645,0.83581 -0.49096,2.40147 -0.064,1.55293 -0.19265,2.1882 -0.48999,2.4193 -0.29596,0.23004 -0.43406,0.90114 -0.51919,2.52303 -0.0808,1.54017 -0.22782,2.29143 -0.48514,2.47958 -0.23136,0.16918 -0.4198,0.90068 -0.5048,1.95953 -0.12372,1.54135 -0.18526,1.68957 -0.70147,1.68957 -0.31121,0 -0.70732,-0.17046 -0.88023,-0.3788 -0.18715,-0.22551 -0.73906,-0.37881 -1.36375,-0.37881 -0.73687,0 -1.17817,-0.15042 -1.48184,-0.50508 -0.30764,-0.3593 -0.74497,-0.50507 -1.51523,-0.50507 -0.77025,0 -1.20759,-0.14578 -1.51523,-0.50508 -0.30764,-0.3593 -0.74497,-0.50508 -1.51523,-0.50508 -0.77025,0 -1.20758,-0.14577 -1.51522,-0.50507 -0.299,-0.3492 -0.74498,-0.50508 -1.44509,-0.50508 -0.67591,0 -1.18057,-0.16795 -1.5177,-0.50507 -0.33672,-0.33672 -0.84179,-0.50508 -1.51523,-0.50508 -0.67343,0 -1.17851,-0.16836 -1.51523,-0.50508 -0.33671,-0.33671 -0.84179,-0.50507 -1.51523,-0.50507 -0.67343,0 -1.17851,-0.16836 -1.51522,-0.50508 -0.38409,-0.38408 -0.8418,-0.50508 -1.91064,-0.50508 -2.05044,0 -2.996,0.6917 -2.03539,1.48894 0.19091,0.15844 0.403,0.8696 0.47129,1.58033 0.0802,0.83469 0.27026,1.37402 0.53676,1.52316 0.26933,0.15072 0.41259,0.56547 0.41259,1.19444 0,0.58116 0.20045,1.21837 0.50508,1.60565 0.29218,0.37145 0.50508,1.02449 0.50508,1.54929 0,0.57046 0.18746,1.09465 0.50507,1.41226 0.33672,0.33671 0.50508,0.84179 0.50508,1.51523 0,0.67343 0.16836,1.17851 0.50508,1.51523 0.29557,0.29557 0.5065,0.84552 0.50852,1.32582 0.005,1.19967 0.25946,1.95717 0.65735,1.95717 0.23473,0 0.35049,0.31073 0.3528,0.94702 0.005,1.31881 0.24605,2.08344 0.65735,2.08344 0.24569,0 0.34936,0.33721 0.34936,1.13642 0,0.79971 0.14965,1.28607 0.50507,1.6415 0.50508,0.50507 0.50508,0.50507 -0.34475,0.50507 -0.46743,0 -1.13875,0.22727 -1.49192,0.50508 -0.51078,0.40178 -1.0245,0.50508 -2.51182,0.50508 -1.52065,0 -1.97094,0.0943 -2.41186,0.50507 -0.44608,0.41559 -0.8912,0.50508 -2.51225,0.50508 -1.69662,0 -2.01391,0.0701 -2.28554,0.50508 -0.27564,0.44136 -0.58893,0.50507 -2.48351,0.50507 -1.95569,0 -2.18101,0.0495 -2.30015,0.50508 -0.12036,0.46025 -0.34447,0.50507 -2.52538,0.50507 -2.18092,0 -2.40503,0.0448 -2.52539,0.50508 -0.0931,0.35594 -0.34446,0.50508 -0.85135,0.50508 -1.11324,0 -1.40897,0.8041 -0.612,1.66405 0.34791,0.3754 0.63257,0.77959 0.63257,0.8982 0,0.11862 0.14312,0.21567 0.31806,0.21567 0.17493,0 0.46,0.22728 0.63348,0.50507 0.17349,0.27779 0.42811,0.50508 0.56583,0.50508 0.24687,0 0.5527,0.23127 1.87467,1.41766 0.36934,0.33145 0.83682,0.60264 1.03885,0.60264 0.20203,0 0.36733,0.22729 0.36733,0.50508 0,0.33672 0.16836,0.50508 0.50508,0.50508 0.33672,0 0.50507,0.16836 0.50507,0.50507 0,0.33672 0.16836,0.50508 0.50508,0.50508 0.33672,0 0.50508,0.16836 0.50508,0.50508 0,0.33671 0.16836,0.50507 0.50507,0.50507 0.29379,0 0.50508,0.16836 0.50508,0.40245 0,0.22135 0.22728,0.46189 0.50508,0.53453 0.27779,0.0727 0.50507,0.29286 0.50507,0.48936 0,0.1965 0.18842,0.42958 0.41871,0.51796 0.23029,0.0884 0.82691,0.53656 1.32583,0.99599 1.43611,1.32246 2.47205,2.11047 2.77447,2.11047 0.15357,0 0.27922,0.18111 0.27922,0.40245 0,0.22135 0.22728,0.46189 0.50507,0.53453 0.27779,0.0726 0.50508,0.29286 0.50508,0.48936 0,0.19651 0.19887,0.43191 0.44194,0.52311 0.75849,0.28461 1.0464,0.86373 0.75134,1.51131 -0.14531,0.31892 -0.42706,0.57985 -0.62611,0.57985 -0.19906,0 -0.42135,0.22729 -0.494,0.50508 -0.0726,0.27779 -0.29993,0.50508 -0.50507,0.50508 -0.20515,0 -0.43244,0.22728 -0.50508,0.50507 -0.0726,0.2778 -0.24291,0.50508 -0.37836,0.50508 -0.24854,0 -1.17335,0.6596 -2.39002,1.70463 -0.36385,0.31252 -0.75859,0.56821 -0.8772,0.56821 -0.11862,0 -0.21567,0.15721 -0.21567,0.34936 0,0.19214 -0.22728,0.40879 -0.50507,0.48143 -0.27779,0.0727 -0.50508,0.31318 -0.50508,0.53453 0,0.23409 -0.21129,0.40245 -0.50507,0.40245 -0.33672,0 -0.50508,0.16836 -0.50508,0.50508 0,0.33671 -0.16836,0.50507 -0.50508,0.50507 -0.33671,0 -0.50507,0.16836 -0.50507,0.50508 0,0.33672 -0.16836,0.50507 -0.50508,0.50507 -0.33672,0 -0.50508,0.16836 -0.50508,0.50508 0,0.33672 -0.16835,0.50508 -0.50507,0.50508 -0.33672,0 -0.50508,0.16836 -0.50508,0.50507 0,0.33672 -0.16836,0.50508 -0.50507,0.50508 -0.2778,0 -0.50508,0.11072 -0.50508,0.24605 0,0.13533 -0.35482,0.42954 -0.78848,0.65379 -0.43366,0.22426 -1.15875,0.77802 -1.61131,1.23058 -0.45256,0.45256 -1.00689,0.89346 -1.23183,0.97978 -0.22495,0.0863 -0.40899,0.33097 -0.40899,0.54368 0,0.2127 -0.15831,0.38673 -0.35179,0.38673 -0.49109,0 -0.70731,0.69937 -0.39603,1.28098 0.15938,0.29782 0.52759,0.48679 0.94849,0.48679 0.41449,0 0.81338,0.20079 1.00341,0.50507 0.27694,0.44345 0.58893,0.50508 2.55668,0.50508 2.02886,0 2.25376,0.0479 2.37333,0.50508 0.11891,0.45474 0.34446,0.50507 2.26315,0.50507 1.81036,0 2.19987,0.076 2.58817,0.50508 0.37903,0.41883 0.77781,0.50507 2.33528,0.50507 1.49581,0 2.00893,0.10284 2.5203,0.50508 0.50236,0.39515 1.02449,0.50508 2.39911,0.50508 1.37462,0 1.89676,0.10992 2.39912,0.50507 0.35455,0.2789 1.05093,0.51401 1.55506,0.52502 0.50213,0.011 0.74249,0.0848 0.53415,0.16413 -0.5843,0.22243 -0.74954,0.6084 -0.75375,1.76055 -0.003,0.70832 -0.1386,1.13614 -0.40939,1.28769 -0.25224,0.14116 -0.45387,0.69479 -0.53341,1.46464 -0.0703,0.68073 -0.29885,1.37356 -0.50782,1.53963 -0.20898,0.16606 -0.44017,0.83615 -0.51377,1.4891 -0.0753,0.66791 -0.33854,1.39192 -0.60187,1.65525 -0.30497,0.30497 -0.46806,0.83233 -0.46806,1.5135 0,0.66728 -0.1463,1.15243 -0.40444,1.34119 -0.23227,0.16984 -0.46409,0.82673 -0.54455,1.54306 -0.077,0.68604 -0.30434,1.36789 -0.50508,1.51523 -0.20073,0.14735 -0.42801,0.8292 -0.50507,1.51523 -0.0771,0.68604 -0.30765,1.37031 -0.51244,1.52062 -0.20799,0.15265 -0.42749,0.84729 -0.49729,1.57373 -0.0687,0.71526 -0.28117,1.4301 -0.47208,1.58855 -0.88,0.73033 -0.0347,1.48893 1.65905,1.48893 0.71672,0 1.16054,-0.15336 1.46169,-0.50508 0.28766,-0.33596 0.74497,-0.50507 1.36583,-0.50507 1.17982,0 1.7323,-0.20998 1.7323,-0.65837 0,-0.24761 0.33042,-0.35179 1.11576,-0.35179 1.35564,0 1.9147,-0.19223 1.9147,-0.65836 0,-0.24761 0.33042,-0.35179 1.11576,-0.35179 1.35564,0 1.91469,-0.19223 1.91469,-0.65836 0,-0.24761 0.33042,-0.35179 1.11577,-0.35179 1.35563,0 1.91469,-0.19223 1.91469,-0.65836 0,-0.25371 0.35145,-0.35179 1.26055,-0.35179 0.98705,0 1.32899,-0.10959 1.57598,-0.50508 0.24352,-0.38994 0.58892,-0.50508 1.51523,-0.50508 0.9263,0 1.2717,-0.11513 1.51522,-0.50507 0.22092,-0.35374 0.58893,-0.50508 1.22821,-0.50508 h 0.91278 l 0.15039,1.79392 c 0.0944,1.12569 0.28843,1.90177 0.52096,2.08344 0.25843,0.20191 0.39682,0.92678 0.45733,2.39543 0.0652,1.5809 0.1892,2.18081 0.49762,2.40633 0.31153,0.2278 0.43291,0.83768 0.50218,2.52327 0.0689,1.67657 0.19139,2.29601 0.49843,2.52052 0.30333,0.22179 0.43699,0.86755 0.52444,2.53362 0.0916,1.7448 0.21018,2.28791 0.53993,2.47244 0.33275,0.18621 0.42429,0.62305 0.43061,2.05484 0.008,1.8898 0.337,2.70224 1.0931,2.70224 0.22776,0 0.4141,-0.11364 0.4141,-0.25254 0,-0.1389 0.29475,-0.25254 0.65499,-0.25254 0.4426,0 0.69781,-0.16377 0.78707,-0.50507 0.0726,-0.2778 0.29993,-0.50508 0.50507,-0.50508 0.20515,0 0.43243,-0.22728 0.50508,-0.50508 0.0726,-0.27779 0.28163,-0.50507 0.46441,-0.50507 0.18279,0 0.40448,-0.22729 0.49265,-0.50508 0.0882,-0.27779 0.32311,-0.50508 0.52209,-0.50508 0.19898,0 0.36179,-0.16646 0.36179,-0.36992 0,-0.20346 0.22728,-0.49156 0.50508,-0.64023 0.27779,-0.14867 0.50507,-0.37478 0.50507,-0.50248 0,-0.1277 0.2557,-0.51144 0.56821,-0.85277 0.31252,-0.34133 0.7955,-0.92576 1.07329,-1.29872 0.27779,-0.37297 0.93123,-1.11273 1.45209,-1.64392 0.52086,-0.53119 0.94702,-1.0807 0.94702,-1.22112 0,-0.14043 0.22729,-0.32747 0.50508,-0.41563 0.27779,-0.0882 0.50507,-0.31546 0.50507,-0.50508 0,-0.18962 0.22729,-0.41691 0.50508,-0.50508 0.27779,-0.0882 0.50508,-0.31911 0.50508,-0.5132 0,-0.1941 0.22728,-0.47455 0.50507,-0.62322 0.27779,-0.14867 0.50508,-0.43677 0.50508,-0.64023 0,-0.20345 0.16281,-0.36992 0.36179,-0.36992 0.19898,0 0.43392,-0.22728 0.52209,-0.50508 0.0882,-0.27779 0.27209,-0.50507 0.40871,-0.50507 0.13663,0 0.4146,-0.39775 0.61772,-0.88389 0.20312,-0.48613 0.53825,-0.88388 0.74473,-0.88388 0.20706,0 0.37542,-0.2265 0.37542,-0.50508 0,-0.34424 0.16836,-0.50507 0.52872,-0.50507 0.31633,0 0.58177,0.20289 0.66079,0.50507 0.0726,0.2778 0.28163,0.50508 0.46442,0.50508 0.18278,0 0.40447,0.22728 0.49264,0.50508 0.0882,0.27779 0.32311,0.50507 0.5221,0.50507 0.19898,0 0.36178,0.18111 0.36178,0.40245 0,0.22135 0.21766,0.45937 0.48369,0.52894 0.26603,0.0696 0.54529,0.37192 0.62058,0.67189 0.0753,0.29997 0.5963,1.02352 1.15781,1.60788 0.56151,0.58436 1.02092,1.18051 1.02092,1.32477 0,0.14426 0.17046,0.2623 0.37881,0.2623 0.20834,0 0.3788,0.10437 0.3788,0.23193 0,0.12756 0.45457,0.70504 1.01016,1.2833 0.55558,0.57825 1.01015,1.14807 1.01015,1.26628 0,0.1182 0.22728,0.28705 0.50508,0.37521 0.27779,0.0882 0.50507,0.31546 0.50507,0.50508 0,0.18962 0.22729,0.41691 0.50508,0.50508 0.27779,0.0882 0.50507,0.27672 0.50507,0.41902 0,0.30641 0.7843,1.34906 2.05162,2.72744 0.50336,0.54747 0.98278,1.17149 1.06537,1.38671 0.0826,0.21523 0.31093,0.39132 0.50744,0.39132 0.1965,0 0.41671,0.22728 0.48936,0.50508 0.0757,0.28958 0.34446,0.50507 0.62988,0.50507 0.27378,0 0.6444,0.17666 0.8236,0.39258 0.55049,0.66329 1.29597,-0.33866 1.45074,-1.94987 z"
         id="path991"
         transform="scale(0.26458333)" />
      <path
         style="fill:#ffe680;fill-opacity:1;stroke:none;stroke-width:1.08524;stroke-linecap:square;stroke-linejoin:round;paint-order:stroke fill markers"
         d="m 636.27895,259.38322 c -1.94642,-0.0714 -2.70177,-0.19374 -2.90419,-0.47045 -0.15047,-0.2057 -0.86934,-0.44452 -1.59749,-0.53073 -0.72815,-0.0862 -1.4504,-0.30915 -1.605,-0.49543 -0.1546,-0.18629 -0.83042,-0.41157 -1.50183,-0.50064 -0.67141,-0.0891 -1.27848,-0.3124 -1.34905,-0.4963 -0.0706,-0.18391 -0.52416,-0.40864 -1.00797,-0.4994 -0.48382,-0.0908 -0.93518,-0.30969 -1.00303,-0.48651 -0.0679,-0.17682 -0.43609,-0.39998 -0.81831,-0.49591 -0.38222,-0.0959 -0.97494,-0.39466 -1.31715,-0.66384 -0.34221,-0.26918 -0.77354,-0.48942 -0.95853,-0.48942 -0.18498,0 -0.73408,-0.39775 -1.22021,-0.88389 -0.48614,-0.48613 -1.00488,-0.88388 -1.15277,-0.88388 -0.14788,0 -0.32665,-0.15056 -0.39727,-0.33457 -0.0706,-0.18402 -0.72049,-0.77911 -1.44417,-1.32243 -0.72368,-0.54332 -1.3726,-1.06049 -1.44205,-1.14927 -0.0694,-0.0888 -0.35355,-0.47441 -0.63134,-0.85696 -0.27779,-0.38256 -0.76077,-0.98149 -1.07329,-1.33096 -0.31251,-0.34947 -0.56821,-0.73245 -0.56821,-0.85106 0,-0.11862 -0.17046,-0.21566 -0.37881,-0.21566 -0.20834,0 -0.3788,-0.16402 -0.3788,-0.36449 0,-0.20047 -0.20063,-0.51299 -0.44583,-0.69448 -0.24521,-0.1815 -0.5837,-0.64251 -0.7522,-1.02447 -0.16851,-0.38197 -0.40981,-0.69448 -0.53622,-0.69448 -0.12642,0 -0.30559,-0.40372 -0.39816,-0.89716 -0.0926,-0.49344 -0.3325,-0.96016 -0.53318,-1.03717 -0.20068,-0.077 -0.36487,-0.33982 -0.36487,-0.58402 0,-0.2442 -0.22729,-0.73294 -0.50508,-1.0861 -0.27779,-0.35315 -0.50507,-0.79776 -0.50507,-0.98802 0,-0.19025 -0.19051,-0.6179 -0.42335,-0.95032 -0.23283,-0.33242 -0.51237,-1.16761 -0.62119,-1.85599 -0.10881,-0.68836 -0.35874,-1.43604 -0.5554,-1.66149 -0.19665,-0.22545 -0.4361,-1.24106 -0.53211,-2.2569 -0.096,-1.01584 -0.33742,-2.3086 -0.53648,-2.8728 -0.502,-1.42282 -0.49616,-6.89284 0.009,-8.10101 0.20382,-0.48781 0.44603,-1.83698 0.53825,-2.99817 0.10263,-1.29228 0.31332,-2.2787 0.54317,-2.54294 0.20652,-0.23743 0.43537,-0.9761 0.50854,-1.64149 0.0732,-0.6654 0.34384,-1.48083 0.60148,-1.81208 0.25764,-0.33124 0.46844,-0.85713 0.46844,-1.16863 0,-0.3115 0.16606,-0.70419 0.36902,-0.87263 0.20297,-0.16845 0.44589,-0.5517 0.53982,-0.85167 0.0939,-0.29998 0.38244,-0.81643 0.64112,-1.14768 0.25869,-0.33124 0.47034,-0.79661 0.47034,-1.03414 0,-0.23754 0.22729,-0.63757 0.50508,-0.88897 0.27779,-0.2514 0.50507,-0.60594 0.50507,-0.78787 0,-0.18193 0.22729,-0.45242 0.50508,-0.60109 0.27779,-0.14867 0.50508,-0.43677 0.50508,-0.64023 0,-0.20346 0.0903,-0.36992 0.20064,-0.36992 0.11036,0 0.61537,-0.5398 1.12226,-1.19956 1.21091,-1.5761 2.10232,-2.49647 3.60775,-3.72493 0.68084,-0.55559 1.4824,-1.26585 1.78124,-1.57837 0.29885,-0.31251 0.67238,-0.56821 0.83007,-0.56821 0.1577,0 0.28672,-0.11944 0.28672,-0.26542 0,-0.14599 0.36934,-0.4379 0.82075,-0.6487 0.45141,-0.2108 1.27531,-0.66031 1.8309,-0.99889 0.55558,-0.33859 1.43631,-0.80259 1.95717,-1.03111 0.52086,-0.22852 0.94702,-0.51055 0.94702,-0.62674 0,-0.11618 0.46219,-0.28515 1.0271,-0.37548 0.5649,-0.0903 1.16816,-0.3053 1.34057,-0.47771 0.1724,-0.17241 0.93186,-0.39619 1.68768,-0.49731 0.75582,-0.10111 1.5458,-0.33497 1.75552,-0.51969 0.23234,-0.20464 1.41625,-0.4039 3.03046,-0.51005 1.45703,-0.0958 3.10372,-0.32852 3.65931,-0.51714 1.3004,-0.44148 2.63509,-0.44165 3.55986,-4.5e-4 0.4039,0.1927 2.02023,0.42224 3.59832,0.51102 1.86658,0.105 2.98286,0.279 3.20314,0.49929 0.18597,0.18596 0.92772,0.41633 1.64835,0.51192 0.72063,0.0956 1.47494,0.33852 1.67625,0.53983 0.20131,0.20131 0.61359,0.3677 0.91619,0.36974 0.30259,0.002 0.83428,0.1657 1.18152,0.36367 0.34724,0.19797 0.97227,0.53493 1.38896,0.74881 0.41669,0.21388 0.95649,0.5048 1.19955,0.64649 l 0.88389,0.51523 c 0.24307,0.14169 0.78287,0.41763 1.19955,0.61321 1.13656,0.53345 3.06716,2.41129 2.48343,2.41556 -0.44343,0.003 -1.13875,0.46863 -2.54176,1.70124 -0.35572,0.31252 -0.74381,0.56821 -0.86243,0.56821 -0.11861,0 -0.21566,0.17047 -0.21566,0.37881 0,0.20835 -0.17403,0.37881 -0.38673,0.37881 -0.2127,0 -0.45431,0.17609 -0.5369,0.39132 -0.0826,0.21522 -0.59041,0.84953 -1.12849,1.40956 -0.5857,0.6096 -0.97834,1.26336 -0.97834,1.62899 0,0.38008 -0.14605,0.61074 -0.38673,0.61074 -0.2127,0 -0.45971,0.19019 -0.54892,0.42265 -0.0892,0.23246 -0.36974,0.6302 -0.62342,0.88388 -0.25367,0.25368 -0.46123,0.71801 -0.46123,1.03183 0,0.31383 -0.22728,0.71254 -0.50508,0.88603 -0.32222,0.20123 -0.50507,0.58892 -0.50507,1.0709 0,0.5826 -0.11354,0.75547 -0.49619,0.75547 -0.27291,0 -0.61783,-0.22728 -0.7665,-0.50507 -0.25522,-0.47688 -0.52877,-0.50508 -4.89933,-0.50508 -4.24662,0 -4.68205,0.0417 -5.27111,0.50508 -0.45462,0.3576 -1.02449,0.50507 -1.95173,0.50507 -1.09726,0 -1.33106,0.0819 -1.44172,0.50508 -0.10013,0.38291 -0.34447,0.50507 -1.01015,0.50507 -0.66569,0 -0.91002,0.12217 -1.01015,0.50508 -0.0986,0.37698 -0.34447,0.50508 -0.9695,0.50508 -0.61562,0 -0.87987,0.13377 -0.99771,0.50507 -0.0882,0.2778 -0.33375,0.50508 -0.54574,0.50508 -0.21199,0 -0.44487,0.22728 -0.51751,0.50508 -0.0727,0.27779 -0.29993,0.50507 -0.50508,0.50507 -0.20515,0 -0.43243,0.22729 -0.50508,0.50508 -0.0726,0.27779 -0.29285,0.50507 -0.48936,0.50507 -0.1965,0 -0.43026,0.1902 -0.51946,0.42266 -0.0892,0.23245 -0.3212,0.60179 -0.51554,0.82074 -1.07715,1.21354 -1.57868,1.96166 -1.57896,2.35527 -1.7e-4,0.24307 -0.15861,0.44194 -0.35209,0.44194 -0.37467,0 -0.65837,0.52683 -0.65837,1.2226 0,0.23302 -0.22728,0.56562 -0.50507,0.7391 -0.35245,0.22011 -0.50508,0.58893 -0.50508,1.22047 0,0.52266 -0.2134,1.17634 -0.50508,1.54715 -0.46988,0.59736 -0.50507,1.02449 -0.50507,6.12982 0,5.10534 0.0352,5.53247 0.50507,6.12983 0.29759,0.37832 0.50508,1.02449 0.50508,1.57293 0,0.71844 0.11524,0.96096 0.50508,1.06291 0.32052,0.0838 0.50507,0.34446 0.50507,0.71331 0,0.82527 0.2534,1.38016 0.63026,1.38016 0.17803,0 0.3983,0.39775 0.4895,0.88389 0.0993,0.52909 0.31328,0.88388 0.53318,0.88388 0.20205,0 0.36737,0.1695 0.36737,0.37667 0,0.20717 0.22728,0.51861 0.50507,0.69209 0.2778,0.17348 0.50508,0.45855 0.50508,0.63349 0,0.17493 0.11439,0.31806 0.25421,0.31806 0.13981,0 0.50123,0.2841 0.80315,0.63134 0.30193,0.34724 0.69892,0.63135 0.88222,0.63135 0.18329,0 0.33326,0.11944 0.33326,0.26542 0,0.14598 0.38397,0.42586 0.85326,0.62194 0.46929,0.19608 0.92029,0.53121 1.00222,0.74473 0.0819,0.21351 0.33349,0.38821 0.55901,0.38821 0.22552,0 0.69898,0.22729 1.05214,0.50508 0.35315,0.27779 0.80772,0.50507 1.01015,0.50507 0.20243,0 0.657,0.22729 1.01015,0.50508 0.36717,0.28882 1.02449,0.50508 1.53518,0.50508 0.49627,0 1.10991,0.19636 1.3811,0.44194 0.44434,0.40237 1.47352,0.45325 11.49497,0.56821 l 11.00693,0.12627 -1.37355,1.11952 c -0.75546,0.61573 -1.48763,1.25264 -1.62706,1.41534 -0.13943,0.16271 -0.53718,0.38263 -0.88389,0.48872 -0.3467,0.10609 -0.80084,0.34105 -1.00918,0.52215 -0.20834,0.18109 -0.7005,0.40956 -1.09368,0.5077 -0.39318,0.0981 -0.77468,0.33428 -0.84777,0.52475 -0.0731,0.19047 -0.33269,0.34631 -0.57689,0.34631 -0.2442,0 -0.71502,0.21277 -1.04627,0.47281 -0.33125,0.26004 -1.0875,0.55452 -1.68056,0.65439 -0.59306,0.0999 -1.2192,0.32248 -1.39141,0.4947 -0.17222,0.17222 -0.87193,0.38971 -1.55491,0.48333 -0.68297,0.0936 -1.42055,0.32851 -1.63904,0.52201 -0.43529,0.38548 -7.88973,0.66398 -12.87686,0.48109 z"
         id="path987"
         transform="scale(0.26458333)" />
      <path
         style="fill:#f9f9f9;stroke:#f9f9f9;stroke-width:5.2422;stroke-linecap:square;stroke-linejoin:round;stroke-miterlimit:4;stroke-dasharray:none;stroke-opacity:1;paint-order:stroke fill markers"
         d="m 654.30793,249.19761 c -10.93249,-0.0769 -12.51009,-0.13635 -12.76204,-0.48091 -0.15811,-0.21623 -0.79488,-0.45575 -1.41504,-0.53226 -0.62016,-0.0765 -1.2443,-0.26784 -1.38698,-0.42519 -0.39167,-0.43192 -2.3122,-1.42251 -2.75794,-1.42251 -0.21555,0 -0.39191,-0.17327 -0.39191,-0.38505 0,-0.21179 -0.2686,-0.48719 -0.5969,-0.61201 -0.3283,-0.12481 -0.66566,-0.4061 -0.74969,-0.62509 -0.0926,-0.24135 -0.45428,-0.39815 -0.91832,-0.39815 -0.53978,0 -0.76554,-0.1216 -0.76554,-0.41232 0,-0.22678 -0.21103,-0.59611 -0.46896,-0.82075 -0.25792,-0.22464 -0.54968,-0.66412 -0.64836,-0.97664 -0.0987,-0.31252 -0.28821,-0.56821 -0.42118,-0.56821 -0.13298,0 -0.34979,-0.28411 -0.48181,-0.63135 -0.13202,-0.34724 -0.41331,-0.63134 -0.62509,-0.63134 -0.27362,0 -0.38506,-0.26265 -0.38506,-0.90753 0,-0.69514 -0.1182,-0.93843 -0.50508,-1.0396 -0.37821,-0.0989 -0.50508,-0.34447 -0.50508,-0.97763 0,-0.58708 -0.15438,-0.92817 -0.50507,-1.11585 -0.45283,-0.24235 -0.50508,-0.52877 -0.50508,-2.76877 0,-2.00346 -0.0841,-2.58254 -0.42441,-2.92287 -0.39753,-0.39753 -0.39753,-0.43947 0,-0.66194 0.35723,-0.19991 0.42441,-0.67527 0.42441,-3.00288 0,-2.59701 0.0308,-2.76537 0.50508,-2.76537 0.41837,0 0.50507,-0.16836 0.50507,-0.9807 0,-0.76831 0.10939,-1.0093 0.50508,-1.11278 0.38688,-0.10117 0.50508,-0.34447 0.50508,-1.03961 0,-0.73916 0.0937,-0.90752 0.50507,-0.90752 0.3263,0 0.50508,-0.16836 0.50508,-0.47563 0,-0.26323 0.22554,-0.5346 0.50508,-0.6077 0.27779,-0.0726 0.50507,-0.31318 0.50507,-0.53453 0,-0.22135 0.22729,-0.62973 0.50508,-0.90752 0.27779,-0.2778 0.50508,-0.66789 0.50508,-0.86687 0,-0.19898 0.22728,-0.43393 0.50507,-0.52209 0.27779,-0.0882 0.50508,-0.25119 0.50508,-0.36227 0,-0.21775 1.86367,-1.54201 2.58851,-1.8393 0.24307,-0.0997 0.44195,-0.28593 0.44195,-0.41384 0,-0.12792 0.39465,-0.30661 0.87701,-0.3971 0.48236,-0.0905 0.96534,-0.31437 1.07329,-0.49751 0.10795,-0.18313 0.75757,-0.39431 1.4436,-0.46928 0.72034,-0.0787 1.37228,-0.30719 1.54307,-0.54075 0.43085,-0.58922 9.12742,-0.6073 9.55696,-0.0199 0.15466,0.21151 0.71346,0.45472 1.24178,0.54045 0.82571,0.13399 0.97957,0.0833 1.09581,-0.36122 0.0744,-0.28441 0.352,-0.5738 0.61695,-0.64309 0.35906,-0.0939 0.48173,-0.35274 0.48173,-1.01648 0,-0.66871 0.1258,-0.93043 0.50508,-1.05081 0.37585,-0.11929 0.50508,-0.3821 0.50508,-1.02717 0,-0.69851 0.0981,-0.86687 0.50507,-0.86687 0.33085,0 0.50508,-0.16836 0.50508,-0.48806 0,-0.26843 0.22728,-0.56019 0.50507,-0.64836 0.2778,-0.0882 0.50508,-0.36232 0.50508,-0.60922 0,-0.24691 0.22728,-0.65461 0.50508,-0.90601 0.27779,-0.2514 0.50507,-0.66676 0.50507,-0.92302 0,-0.29758 0.1825,-0.46594 0.50508,-0.46594 0.33672,0 0.50508,-0.16836 0.50508,-0.50507 0,-0.29885 0.16836,-0.50508 0.41231,-0.50508 0.22678,0 0.59612,-0.21103 0.82075,-0.46895 0.22464,-0.25792 0.66413,-0.54969 0.97664,-0.64837 0.31252,-0.0987 0.56821,-0.2882 0.56821,-0.42118 0,-0.13297 0.28411,-0.34978 0.63135,-0.48181 0.34724,-0.13202 0.63135,-0.41331 0.63135,-0.62509 0,-0.27027 0.25842,-0.38506 0.86686,-0.38506 0.64507,0 0.90788,-0.12923 1.02717,-0.50507 0.11847,-0.37327 0.3821,-0.50508 1.01015,-0.50508 0.62806,0 0.89169,-0.13182 1.01016,-0.50508 0.13229,-0.41682 0.38209,-0.50507 1.42962,-0.50507 1.05693,0 1.29141,-0.0845 1.40139,-0.50508 0.12741,-0.4872 0.34447,-0.50508 6.13409,-0.50508 5.78962,0 6.00668,0.0179 6.13409,0.50508 0.1118,0.42752 0.34446,0.50508 1.51523,0.50508 1.17076,0 1.40343,0.0776 1.51523,0.50507 0.10013,0.38291 0.34446,0.50508 1.01015,0.50508 0.66568,0 0.91002,0.12217 1.01015,0.50508 0.10117,0.38687 0.34447,0.50507 1.03961,0.50507 0.73916,0 0.90752,0.0937 0.90752,0.50508 0,0.33672 0.16836,0.50507 0.50508,0.50507 0.33672,0 0.50508,0.16836 0.50508,0.50508 0,0.32629 0.16836,0.50508 0.47562,0.50508 0.26323,0 0.5346,0.22554 0.6077,0.50507 0.10018,0.3831 0.34447,0.50508 1.0115,0.50508 0.80511,0 0.89343,0.0747 1.04524,0.88388 0.0993,0.52909 0.31328,0.88389 0.53318,0.88389 0.20448,0 0.36737,0.23442 0.36737,0.52872 0,0.31633 0.20289,0.58177 0.50507,0.66079 0.27954,0.0731 0.50508,0.34447 0.50508,0.60771 0,0.30726 0.17878,0.47562 0.50507,0.47562 0.32954,0 0.50508,0.16836 0.50508,0.48442 0,0.75269 0.27223,1.28335 0.65837,1.28335 0.20688,0 0.35178,0.26006 0.35178,0.63134 0,0.46299 0.13469,0.63135 0.50508,0.63135 0.4209,0 0.50508,0.16836 0.50508,1.01015 0,0.84179 0.0842,1.01015 0.50507,1.01015 0.44888,0 0.50508,0.16836 0.50508,1.51309 0,1.23959 0.0913,1.57011 0.50508,1.82852 0.46045,0.28756 0.50507,0.58892 0.50507,3.4114 v 3.09598 h 2.3821 c 2.1603,0 2.39702,0.047 2.54239,0.50508 0.12342,0.38883 0.3821,0.50507 1.12399,0.50507 0.75129,0 0.99279,0.11132 1.09576,0.50508 0.0962,0.36777 0.34447,0.50507 0.91334,0.50507 0.54649,0 0.78126,0.12094 0.78126,0.40245 0,0.22135 0.22352,0.46091 0.49671,0.53235 0.27319,0.0714 0.56495,0.3449 0.64836,0.6077 0.0834,0.2628 0.37128,0.47781 0.63971,0.47781 0.26992,0 0.48806,0.17285 0.48806,0.38673 0,0.21271 0.15926,0.44785 0.35392,0.52255 0.19466,0.0747 0.4113,0.35523 0.48144,0.62342 0.0701,0.26818 0.30861,0.48761 0.52996,0.48761 0.23409,0 0.40245,0.21129 0.40245,0.50507 0,0.27779 0.22728,0.73236 0.50507,1.01015 0.27996,0.27997 0.50508,0.8418 0.50508,1.26056 0,0.48197 0.18285,0.86966 0.50508,1.07089 0.4711,0.29422 0.50507,0.58893 0.50507,4.38242 0,3.74627 -0.0398,4.10304 -0.50507,4.52408 -0.33826,0.30611 -0.50508,0.77781 -0.50508,1.4281 0,0.80265 -0.0876,0.97101 -0.50508,0.97101 -0.32629,0 -0.50507,0.16836 -0.50507,0.47563 0,0.26323 -0.22554,0.5346 -0.50508,0.6077 -0.27779,0.0726 -0.50508,0.31318 -0.50508,0.53453 0,0.22135 -0.17046,0.40245 -0.3788,0.40245 -0.20835,0 -0.37881,0.1811 -0.37881,0.40245 0,0.22135 -0.22352,0.4609 -0.49671,0.53234 -0.2732,0.0714 -0.56496,0.34491 -0.64837,0.6077 -0.0834,0.2628 -0.31802,0.47781 -0.52136,0.47781 -0.20335,0 -0.43394,0.16738 -0.51244,0.37194 -0.0785,0.20457 -0.5295,0.4445 -1.00223,0.53318 -0.47273,0.0887 -0.8595,0.30454 -0.8595,0.47967 0,0.17622 -0.45114,0.39057 -1.01015,0.47996 -0.65363,0.10452 -1.01016,0.29417 -1.01016,0.53735 0,0.32709 -1.45195,0.37582 -11.19672,0.37582 -6.15819,0 -14.93705,0.0384 -19.50857,0.0854 -4.57152,0.0469 -13.9254,0.0459 -20.7864,-0.003 z"
         id="path945"
         transform="scale(0.26458333)" />
    </g>
    <text
       xml:space="preserve"
       style="font-size:4.23333px;line-height:1.25;font-family:Webdings;-inkscape-font-specification:Webdings;letter-spacing:0px;word-spacing:0px;stroke-width:0.264583"
       x="11.90625"
       y="5.2916665"
       id="text44"><tspan
         sodipodi:role="line"
         id="tspan42"
         x="11.90625"
         y="5.2916665"
         style="stroke-width:0.264583" /></text>
  </g>
</svg>
