<?xml version="1.0" encoding="UTF-8" standalone="no"?>
<svg
   xmlns:dc="http://purl.org/dc/elements/1.1/"
   xmlns:cc="http://creativecommons.org/ns#"
   xmlns:rdf="http://www.w3.org/1999/02/22-rdf-syntax-ns#"
   xmlns:svg="http://www.w3.org/2000/svg"
   xmlns="http://www.w3.org/2000/svg"
   xmlns:sodipodi="http://sodipodi.sourceforge.net/DTD/sodipodi-0.dtd"
   xmlns:inkscape="http://www.inkscape.org/namespaces/inkscape"
   width="50"
   height="50"
   viewBox="0 0 13.229166 13.229167"
   version="1.1"
   id="svg8"
   inkscape:version="1.0 (4035a4fb49, 2020-05-01)"
   sodipodi:docname="sunny.svg">
  <defs
     id="defs2" />
  <sodipodi:namedview
     id="base"
     pagecolor="#ffffff"
     bordercolor="#666666"
     borderopacity="1.0"
     inkscape:pageopacity="0.0"
     inkscape:pageshadow="2"
     inkscape:zoom="5.6"
     inkscape:cx="37.92762"
     inkscape:cy="29.984623"
     inkscape:document-units="mm"
     inkscape:current-layer="layer1"
     inkscape:document-rotation="0"
     showgrid="true"
     units="px"
     inkscape:window-width="1920"
     inkscape:window-height="986"
     inkscape:window-x="-11"
     inkscape:window-y="-11"
     inkscape:window-maximized="1">
    <inkscape:grid
       type="xygrid"
       id="grid10" />
  </sodipodi:namedview>
  <metadata
     id="metadata5">
    <rdf:RDF>
      <cc:Work
         rdf:about="">
        <dc:format>image/svg+xml</dc:format>
        <dc:type
           rdf:resource="http://purl.org/dc/dcmitype/StillImage" />
        <dc:title />
      </cc:Work>
    </rdf:RDF>
  </metadata>
  <g
     inkscape:label="Warstwa 1"
     inkscape:groupmode="layer"
     id="layer1">
    <g
       transform="matrix(0.29814652,0,0,0.29814652,-28.737299,-11.145739)"
       id="g1169">
      <path
         style="fill:#ffcc00;fill-opacity:1;stroke:#ffcc00;stroke-width:9.02173;stroke-linecap:square;stroke-linejoin:round;stroke-miterlimit:4;stroke-dasharray:none;stroke-opacity:1;paint-order:stroke fill markers"
         d="m 429.68171,291.66429 c 0,-1.35132 -0.1114,-1.87533 -0.50507,-2.37581 -0.39599,-0.50341 -0.50508,-1.02449 -0.50508,-2.41252 0,-1.99298 -0.14768,-2.56933 -0.65836,-2.56933 -0.27283,0 -0.35179,-0.47714 -0.35179,-2.12592 0,-2.34179 -0.13124,-2.92485 -0.65837,-2.92485 -0.27461,0 -0.35178,-0.49817 -0.35178,-2.2707 0,-1.9972 -0.0608,-2.30869 -0.50508,-2.58613 -0.43853,-0.27387 -0.50508,-0.58892 -0.50508,-2.39141 0,-1.72134 -0.0828,-2.15317 -0.48454,-2.52777 -0.2665,-0.24848 -0.5222,-0.84953 -0.56821,-1.33567 -0.082,-0.86653 -0.10806,-0.88542 -1.32636,-0.96261 -0.91674,-0.0581 -1.41354,0.0474 -1.89404,0.40231 -0.35824,0.26458 -1.2083,0.54368 -1.88904,0.62022 -0.76005,0.0855 -1.32528,0.29568 -1.46464,0.54471 -0.14653,0.26183 -0.56836,0.40553 -1.19049,0.40553 -0.55361,0 -1.21978,0.19929 -1.56582,0.46844 -0.33124,0.25763 -1.14825,0.52848 -1.81556,0.60187 -0.66732,0.0734 -1.34917,0.30441 -1.51523,0.51338 -0.16606,0.20898 -0.84792,0.43626 -1.51523,0.50508 -0.66732,0.0688 -1.34917,0.2961 -1.51523,0.50508 -0.16606,0.20897 -0.85889,0.43749 -1.53963,0.50782 -0.76985,0.0795 -1.32348,0.28117 -1.46464,0.53341 -0.14864,0.26561 -0.57115,0.40553 -1.22455,0.40553 -0.66089,0 -1.16808,0.17047 -1.50268,0.50507 -0.29557,0.29557 -0.84552,0.50651 -1.32582,0.50853 -1.19968,0.005 -1.95718,0.25946 -1.95718,0.65735 0,0.20428 -0.26216,0.34935 -0.63134,0.34935 -0.56202,0 -0.63135,-0.10476 -0.63135,-0.95403 0,-0.64151 0.16545,-1.09569 0.50508,-1.38648 0.3492,-0.299 0.50508,-0.74498 0.50508,-1.44509 0,-0.67591 0.16794,-1.18057 0.50507,-1.5177 0.34698,-0.34697 0.50508,-0.84179 0.50508,-1.58075 0,-0.80217 0.12842,-1.15587 0.50508,-1.3911 0.39549,-0.24699 0.50507,-0.58892 0.50507,-1.57597 0,-0.90911 0.0981,-1.26056 0.35179,-1.26056 0.46613,0 0.65836,-0.55905 0.65836,-1.91469 0,-0.78162 0.10463,-1.11576 0.34936,-1.11576 0.4113,0 0.65255,-0.76463 0.65735,-2.08344 0.002,-0.63946 0.1177,-0.94702 0.35523,-0.94702 0.46614,0 0.65837,-0.55906 0.65837,-1.91469 0,-0.78535 0.10418,-1.11577 0.35179,-1.11577 0.45499,0 0.65836,-0.55491 0.65836,-1.79634 0,-0.64545 0.13125,-1.0478 0.37194,-1.14016 0.44052,-0.16904 0.75642,-1.59651 0.51891,-2.34484 -0.11539,-0.36358 -0.37956,-0.52704 -0.85174,-0.52704 -0.37646,0 -0.87908,-0.22728 -1.11693,-0.50507 -0.35773,-0.4178 -0.74928,-0.50605 -2.26584,-0.51069 -1.42999,-0.004 -1.97228,-0.11428 -2.46472,-0.49946 -0.50095,-0.39185 -1.03556,-0.49501 -2.58851,-0.49946 -1.07645,-0.003 -1.95717,-0.10102 -1.95717,-0.21762 0,-0.44232 -1.35075,-0.79815 -3.02979,-0.79815 -1.39775,0 -1.79237,-0.0876 -1.99065,-0.44194 -0.19942,-0.35635 -0.67736,-0.45964 -2.46759,-0.53329 -1.6901,-0.0695 -2.29247,-0.19014 -2.52264,-0.50508 -0.23216,-0.31765 -0.83496,-0.43422 -2.59573,-0.50199 -2.0233,-0.0779 -2.29335,-0.14277 -2.29335,-0.55119 0,-0.25461 0.22728,-0.53507 0.50507,-0.62324 0.2778,-0.0882 0.50508,-0.30986 0.50508,-0.49264 0,-0.18279 0.22728,-0.39177 0.50508,-0.46442 0.27779,-0.0726 0.50507,-0.31318 0.50507,-0.53453 0,-0.23409 0.21129,-0.40245 0.50508,-0.40245 0.33672,0 0.50508,-0.16836 0.50508,-0.50507 0,-0.33672 0.16835,-0.50508 0.50507,-0.50508 0.33672,0 0.50508,-0.16836 0.50508,-0.50507 0,-0.33672 0.16836,-0.50508 0.50507,-0.50508 0.33672,0 0.50508,-0.16836 0.50508,-0.50508 0,-0.33671 0.16836,-0.50507 0.50508,-0.50507 0.33671,0 0.50507,-0.16836 0.50507,-0.50508 0,-0.27779 0.1653,-0.50508 0.36733,-0.50508 0.20203,0 0.66951,-0.27119 1.03885,-0.60264 1.314,-1.17923 1.62724,-1.41766 1.8625,-1.41766 0.13102,0 0.38671,-0.20636 0.56821,-0.45857 0.1815,-0.25222 0.52887,-0.53276 0.77193,-0.62342 0.24307,-0.0907 0.44195,-0.33888 0.44195,-0.55158 0,-0.21838 0.21987,-0.38674 0.50507,-0.38674 0.33672,0 0.50508,-0.16836 0.50508,-0.50507 0,-0.33672 0.16836,-0.50508 0.50507,-0.50508 0.29379,0 0.50508,-0.16836 0.50508,-0.40245 0,-0.22135 0.22729,-0.46188 0.50508,-0.53453 0.27779,-0.0726 0.50507,-0.28163 0.50507,-0.46441 0,-0.18279 0.22729,-0.40448 0.50508,-0.49264 0.27779,-0.0882 0.50508,-0.32311 0.50508,-0.5221 0,-0.19898 0.16646,-0.36179 0.36992,-0.36179 0.20346,0 0.49156,-0.22728 0.64023,-0.50507 0.14867,-0.2778 0.41696,-0.50508 0.59621,-0.50508 0.17924,0 0.5928,-0.28411 0.91902,-0.63135 0.32621,-0.34724 0.73052,-0.63134 0.89845,-0.63134 0.35544,0 0.60842,-0.79877 0.61333,-1.93652 0.004,-1.0203 -0.21847,-1.59901 -0.61578,-1.59901 -0.17195,0 -0.52913,-0.24033 -0.79373,-0.53406 -0.26459,-0.29373 -0.73677,-0.63185 -1.04929,-0.75137 -0.31252,-0.11952 -0.56821,-0.39058 -0.56821,-0.60236 0,-0.21178 -0.21403,-0.38506 -0.47562,-0.38506 -0.26324,0 -0.53461,-0.22553 -0.60771,-0.50507 -0.0726,-0.2778 -0.29992,-0.50508 -0.50507,-0.50508 -0.20515,0 -0.43243,-0.22728 -0.50508,-0.50508 -0.0726,-0.27779 -0.31318,-0.50507 -0.53453,-0.50507 -0.22135,0 -0.40245,-0.16281 -0.40245,-0.36179 0,-0.19899 -0.22728,-0.43393 -0.50508,-0.5221 -0.27779,-0.0882 -0.50507,-0.32311 -0.50507,-0.52209 0,-0.19898 -0.16647,-0.36179 -0.36992,-0.36179 -0.20346,0 -0.49156,-0.22728 -0.64023,-0.50508 -0.14867,-0.27779 -0.43678,-0.50507 -0.64023,-0.50507 -0.20346,0 -0.36993,-0.17403 -0.36993,-0.38673 0,-0.21271 -0.19887,-0.45936 -0.44194,-0.54811 -0.24307,-0.0888 -0.71313,-0.42611 -1.04459,-0.74969 -0.33145,-0.32357 -0.75761,-0.58832 -0.94702,-0.58832 -0.1894,0 -0.34437,-0.11608 -0.34437,-0.25795 0,-0.14187 -0.2841,-0.3874 -0.63134,-0.54561 -0.34724,-0.15821 -0.63135,-0.43988 -0.63135,-0.62593 0,-0.18605 -0.1811,-0.33827 -0.40245,-0.33827 -0.22134,0 -0.46188,-0.22729 -0.53453,-0.50508 -0.0726,-0.27779 -0.29992,-0.50508 -0.50507,-0.50508 -0.20515,0 -0.43243,-0.22728 -0.50508,-0.50507 -0.0731,-0.27954 -0.34447,-0.50508 -0.6077,-0.50508 -0.30727,0 -0.47562,-0.17878 -0.47562,-0.50507 0,-0.3263 -0.16836,-0.50508 -0.47563,-0.50508 -0.26323,0 -0.5346,-0.22554 -0.6077,-0.50508 -0.0726,-0.27779 -0.31318,-0.50507 -0.53453,-0.50507 -0.22135,0 -0.40245,-0.16281 -0.40245,-0.36179 0,-0.19899 -0.22728,-0.43393 -0.50508,-0.5221 -0.27779,-0.0882 -0.50507,-0.36311 -0.50507,-0.61098 0,-0.38907 0.3185,-0.47131 2.33008,-0.60164 1.56735,-0.10154 2.41518,-0.26732 2.59003,-0.50644 0.17253,-0.23595 0.95892,-0.39594 2.33877,-0.47582 1.38438,-0.0801 2.22751,-0.25213 2.52387,-0.51485 0.29574,-0.26216 1.09413,-0.42576 2.37988,-0.48766 1.38245,-0.0666 2.07306,-0.21825 2.41899,-0.53132 0.3467,-0.31376 0.91598,-0.43817 2.00496,-0.43817 1.57643,0 3.11139,-0.38594 3.11139,-0.78232 0,-0.1253 0.83699,-0.22783 1.85998,-0.22783 1.47759,0 1.99199,-0.10384 2.50208,-0.50507 0.35316,-0.2778 0.92904,-0.50508 1.27973,-0.50508 0.42469,0 0.69349,-0.176 0.8049,-0.52703 0.23624,-0.74433 -0.0915,-2.25073 -0.52597,-2.41745 -0.2417,-0.0927 -0.36488,-0.51539 -0.36488,-1.25189 0,-0.79936 -0.14196,-1.23343 -0.50507,-1.54434 -0.33597,-0.28766 -0.50508,-0.74497 -0.50508,-1.36583 0,-1.17981 -0.20997,-1.7323 -0.65837,-1.7323 -0.24761,0 -0.35178,-0.33042 -0.35178,-1.11576 0,-1.35564 -0.19223,-1.91469 -0.65837,-1.91469 -0.24761,0 -0.35179,-0.33042 -0.35179,-1.11577 0,-1.35563 -0.19223,-1.91469 -0.65836,-1.91469 -0.24761,0 -0.35179,-0.33042 -0.35179,-1.11577 0,-1.35563 -0.19223,-1.91469 -0.65836,-1.91469 -0.24858,0 -0.35179,-0.33342 -0.35179,-1.13642 0,-0.7997 -0.14965,-1.28607 -0.50508,-1.6415 -0.35514,-0.35514 -0.50507,-0.84179 -0.50507,-1.63936 0,-0.86078 -0.12179,-1.21033 -0.50508,-1.4497 -0.72635,-0.45362 -0.72635,-2.21424 0,-2.21424 0.27779,0 0.73236,0.22729 1.01015,0.50508 0.3424,0.3424 0.8418,0.50507 1.55053,0.50507 0.65749,0 1.15277,0.14679 1.33468,0.39556 0.15908,0.21756 0.79664,0.45979 1.4168,0.53829 0.62016,0.0785 1.31762,0.30787 1.5499,0.50972 0.23229,0.20185 0.91414,0.42914 1.51523,0.50508 0.60109,0.0759 1.28294,0.30322 1.51523,0.50507 0.23229,0.20186 0.91414,0.42914 1.51523,0.50508 0.60109,0.0759 1.28294,0.30323 1.51523,0.50508 0.23229,0.20185 0.91414,0.42913 1.51523,0.50507 0.60109,0.0759 1.26632,0.28819 1.47829,0.47165 0.21197,0.18347 0.89382,0.41092 1.51523,0.50546 0.6214,0.0945 1.30029,0.31485 1.50863,0.4896 0.20834,0.17476 0.88771,0.4013 1.50971,0.50343 0.622,0.10213 1.36068,0.33295 1.6415,0.51293 0.4783,0.30655 1.52984,0.45139 2.84657,0.3921 0.49029,-0.0221 0.56821,-0.16411 0.56821,-1.03574 0,-0.69507 0.10973,-1.01015 0.35179,-1.01015 0.52133,0 0.65836,-0.58067 0.65836,-2.78969 0,-1.7323 0.0656,-2.02586 0.50508,-2.26107 0.44741,-0.23945 0.50508,-0.52877 0.50508,-2.53427 0,-1.76677 0.0773,-2.26396 0.35178,-2.26396 0.52713,0 0.65837,-0.58305 0.65837,-2.92484 0,-1.64878 0.079,-2.12592 0.35179,-2.12592 0.51068,0 0.65836,-0.57635 0.65836,-2.56934 0,-1.38802 0.10909,-1.9091 0.50508,-2.41251 0.39367,-0.50048 0.50507,-1.0245 0.50507,-2.37581 0,-1.52957 0.056,-1.73371 0.47563,-1.73371 0.26323,0 0.5346,0.22553 0.6077,0.50507 0.0726,0.27779 0.31318,0.50508 0.53453,0.50508 0.23409,0 0.40245,0.21129 0.40245,0.50507 0,0.33672 0.16836,0.50508 0.50508,0.50508 0.33671,0 0.50507,0.16836 0.50507,0.50508 0,0.33671 0.16836,0.50507 0.50508,0.50507 0.33671,0 0.50507,0.16836 0.50507,0.50508 0,0.33672 0.16836,0.50508 0.50508,0.50508 0.33672,0 0.50508,0.16835 0.50508,0.50507 0,0.33672 0.16836,0.50508 0.50507,0.50508 0.32925,0 0.50508,0.16836 0.50508,0.48362 0,0.46473 0.64702,1.38694 1.57836,2.24969 0.24307,0.22517 0.44194,0.54694 0.44194,0.71506 0,0.16812 0.22729,0.3778 0.50508,0.46597 0.27779,0.0882 0.50508,0.33375 0.50508,0.54574 0,0.21198 0.22728,0.44486 0.50507,0.51751 0.27954,0.0731 0.50508,0.34446 0.50508,0.6077 0,0.30726 0.17878,0.47562 0.50508,0.47562 0.33671,0 0.50507,0.16836 0.50507,0.50508 0,0.27779 0.16281,0.50508 0.36179,0.50508 0.19899,0 0.43393,0.22728 0.5221,0.50507 0.0882,0.27779 0.32311,0.50508 0.52209,0.50508 0.19898,0 0.36179,0.1811 0.36179,0.40245 0,0.22135 0.22728,0.46188 0.50508,0.53453 0.27779,0.0726 0.50507,0.28529 0.50507,0.47255 0,0.18725 0.22729,0.4621 0.50508,0.61077 0.27779,0.14867 0.50507,0.43242 0.50507,0.63054 0,0.19813 0.48298,0.87304 1.07329,1.49982 0.59031,0.62677 1.21982,1.31298 1.39892,1.52492 0.5328,0.63049 2.23857,0.49574 2.96884,-0.23453 0.34093,-0.34093 0.61987,-0.78224 0.61987,-0.9807 0,-0.19846 0.22728,-0.42027 0.50508,-0.49291 0.27779,-0.0727 0.50507,-0.29993 0.50507,-0.50508 0,-0.20515 0.22729,-0.43243 0.50508,-0.50508 0.27779,-0.0726 0.50507,-0.29992 0.50507,-0.50507 0,-0.20515 0.22729,-0.43243 0.50508,-0.50508 0.27779,-0.0726 0.50508,-0.31318 0.50508,-0.53453 0,-0.22135 0.17046,-0.40245 0.3788,-0.40245 0.20835,0 0.37881,-0.10925 0.37881,-0.24278 0,-0.13353 0.45457,-0.69283 1.01015,-1.24288 0.55559,-0.55006 1.01016,-1.06998 1.01016,-1.15537 0,-0.0854 0.51139,-0.68894 1.13642,-1.34122 0.62503,-0.65227 1.13642,-1.33356 1.13642,-1.51397 0,-0.1804 0.16614,-0.39176 0.36919,-0.46968 0.20306,-0.0779 0.438,-0.35846 0.5221,-0.62342 0.0841,-0.26496 0.30245,-0.48175 0.48523,-0.48175 0.18279,0 0.39177,-0.22728 0.46442,-0.50507 0.0726,-0.27779 0.31318,-0.50508 0.53453,-0.50508 0.23409,0 0.40245,-0.21129 0.40245,-0.50508 0,-0.33671 0.16836,-0.50507 0.50508,-0.50507 0.33671,0 0.50507,-0.16836 0.50507,-0.50508 0,-0.33672 0.16836,-0.50507 0.50508,-0.50507 0.33671,0 0.50507,-0.16836 0.50507,-0.50508 0,-0.29379 0.16836,-0.50508 0.40245,-0.50508 0.22135,0 0.46189,-0.22728 0.53453,-0.50507 0.0727,-0.27779 0.29286,-0.50508 0.48936,-0.50508 0.19651,0 0.4299,-0.19887 0.51865,-0.44194 0.0888,-0.24307 0.42612,-0.71313 0.74969,-1.04459 0.45238,-0.4634 0.58832,-0.51006 0.58832,-0.20195 0,0.22038 0.15423,0.49157 0.34274,0.60265 0.2247,0.1324 0.39085,0.92575 0.48244,2.30363 0.0874,1.31426 0.279,2.26043 0.51148,2.52538 0.23891,0.27228 0.41336,1.18172 0.48812,2.54472 0.087,1.58645 0.2218,2.19811 0.53474,2.42695 0.31923,0.23342 0.41862,0.71833 0.41934,2.04586 7.6e-4,1.29312 0.13041,1.95226 0.50508,2.56678 0.36579,0.59996 0.50413,1.27236 0.50413,2.45037 0,1.57565 0.36598,2.90996 0.79815,2.90996 0.1166,0 0.212,0.84697 0.212,1.88216 0,2.2333 0.31594,3.05326 1.30994,3.39977 0.84239,0.29366 2.23191,0.10604 2.60528,-0.35176 0.13938,-0.1709 0.90646,-0.39232 1.70463,-0.49204 0.92993,-0.11619 1.45122,-0.29932 1.45122,-0.50983 0,-0.21109 0.46646,-0.37332 1.30509,-0.45391 0.7976,-0.0766 1.42217,-0.28553 1.6062,-0.5372 0.19161,-0.26204 0.66894,-0.41181 1.31251,-0.41181 0.629,0 1.25416,-0.19096 1.65349,-0.50507 0.36089,-0.28388 1.02449,-0.50508 1.51523,-0.50508 0.49074,0 1.15434,-0.2212 1.51523,-0.50507 0.35315,-0.2778 0.98816,-0.50508 1.41113,-0.50508 0.85101,0 2.05549,-0.4677 2.05549,-0.79815 0,-0.1166 0.48996,-0.212 1.0888,-0.212 0.73974,0 1.26262,-0.16193 1.63094,-0.50508 0.34105,-0.31773 0.89732,-0.50716 1.49972,-0.51069 0.55943,-0.003 1.22008,-0.21095 1.58892,-0.49946 0.92849,-0.72628 1.76777,-0.66633 1.76777,0.12627 0,0.36918 -0.14507,0.63134 -0.34936,0.63134 -0.39647,0 -0.65228,0.75675 -0.65735,1.94462 -0.002,0.47663 -0.16982,0.90131 -0.40898,1.03515 -0.24907,0.13939 -0.45916,0.70446 -0.54454,1.46464 -0.0765,0.68074 -0.30325,1.35825 -0.50399,1.5056 -0.20074,0.14734 -0.42802,0.82919 -0.50508,1.51522 -0.077,0.68604 -0.30434,1.36789 -0.50507,1.51523 -0.20074,0.14735 -0.42802,0.8292 -0.50508,1.51523 -0.077,0.68604 -0.30765,1.37031 -0.51244,1.52061 -0.2083,0.15289 -0.42758,0.84823 -0.49774,1.57837 -0.0818,0.85098 -0.24166,1.30508 -0.45953,1.30508 -0.22099,0 -0.3922,0.51313 -0.50557,1.51523 -0.11158,0.98625 -0.28594,1.51523 -0.49945,1.51523 -0.20876,0 -0.39201,0.51224 -0.50406,1.40901 -0.0968,0.77496 -0.31739,1.46326 -0.49016,1.52955 -0.36177,0.13883 -0.69302,2.46817 -0.47095,3.31176 0.0928,0.35273 0.34332,0.56821 0.66049,0.56821 0.281,0 0.65538,0.19757 0.83195,0.43905 0.24884,0.3403 0.79324,0.46049 2.42055,0.53439 1.53377,0.0696 2.17763,0.20217 2.3894,0.49179 0.21487,0.29385 0.88641,0.42496 2.59492,0.50665 1.61965,0.0774 2.30503,0.20427 2.30503,0.42655 0,0.39884 1.14277,0.63203 3.09732,0.63203 1.13317,0 1.59803,0.10813 1.83028,0.42576 0.24064,0.3291 0.83466,0.45078 2.61636,0.53597 1.60834,0.0769 2.30503,0.20498 2.30503,0.42379 0,0.35398 1.63543,0.63478 3.69705,0.63478 1.18535,0 1.35371,0.0628 1.35371,0.50508 0,0.33671 -0.16836,0.50507 -0.50508,0.50507 -0.33671,0 -0.50507,0.16836 -0.50507,0.50508 0,0.33672 -0.16836,0.50508 -0.50508,0.50508 -0.33671,0 -0.50507,0.16836 -0.50507,0.50507 0,0.33672 -0.16836,0.50508 -0.50508,0.50508 -0.33672,0 -0.50508,0.16836 -0.50508,0.50508 0,0.33671 -0.16836,0.50507 -0.50507,0.50507 -0.33672,0 -0.50508,0.16836 -0.50508,0.50508 0,0.29537 -0.16836,0.50507 -0.40548,0.50507 -0.35972,0 -1.23197,0.58891 -2.37244,1.60178 -0.20834,0.18503 -0.57768,0.40815 -0.82075,0.49582 -0.24307,0.0877 -0.44194,0.32017 -0.44194,0.51667 0,0.19651 -0.22728,0.41672 -0.50508,0.48937 -0.27779,0.0726 -0.50507,0.31318 -0.50507,0.53452 0,0.2341 -0.21129,0.40245 -0.50508,0.40245 -0.27779,0 -0.50507,0.16281 -0.50507,0.36179 0,0.19899 -0.22729,0.43393 -0.50508,0.5221 -0.27779,0.0882 -0.50508,0.30985 -0.50508,0.49264 0,0.18278 -0.22728,0.39177 -0.50507,0.46441 -0.2778,0.0727 -0.50508,0.29993 -0.50508,0.50508 0,0.20515 -0.22728,0.43243 -0.50508,0.50508 -0.27779,0.0726 -0.50507,0.31318 -0.50507,0.53453 0,0.22134 -0.12408,0.40245 -0.27573,0.40245 -0.31237,0 -1.49859,0.8564 -2.36112,1.70463 -0.31779,0.31252 -0.70682,0.56821 -0.86451,0.56821 -0.15769,0 -0.28671,0.17046 -0.28671,0.37881 0,0.20834 -0.11928,0.3788 -0.26506,0.3788 -0.34812,0 -2.00779,1.61658 -2.00779,1.95567 0,0.14473 -0.17046,0.32855 -0.3788,0.4085 -0.20835,0.0799 -0.37881,0.37978 -0.37881,0.66629 0,0.28651 0.17046,0.58634 0.37881,0.66629 0.20834,0.08 0.3788,0.25807 0.3788,0.39583 0,0.30408 1.35821,1.60151 1.89028,1.80568 0.21041,0.0807 0.38257,0.32084 0.38257,0.53354 0,0.2127 0.16481,0.38673 0.36625,0.38673 0.20145,0 0.45714,0.15094 0.56822,0.33543 0.11107,0.18448 0.57128,0.54991 1.0227,0.81206 0.45141,0.26215 0.82075,0.55812 0.82075,0.65771 0,0.0996 0.22728,0.25321 0.50507,0.34138 0.27779,0.0882 0.50508,0.31545 0.50508,0.50507 0,0.18963 0.22728,0.41691 0.50507,0.50508 0.2778,0.0882 0.50508,0.32311 0.50508,0.5221 0,0.19898 0.22728,0.36178 0.50508,0.36178 0.33671,0 0.50507,0.16836 0.50507,0.50508 0,0.33672 0.16836,0.50508 0.50508,0.50508 0.29378,0 0.50508,0.16836 0.50508,0.40245 0,0.22134 0.22728,0.46188 0.50507,0.53453 0.27779,0.0726 0.50508,0.29285 0.50508,0.48936 0,0.1965 0.17609,0.42485 0.39132,0.50744 0.21522,0.0826 0.84953,0.59041 1.40956,1.12849 0.56004,0.53809 1.15435,0.97834 1.3207,0.97834 0.16635,0 0.46627,0.22728 0.66649,0.50507 0.20022,0.2778 0.56624,0.50508 0.81336,0.50508 0.28097,0 0.44933,0.18925 0.44933,0.50508 0,0.33671 0.16836,0.50507 0.50508,0.50507 0.33671,0 0.50507,0.16836 0.50507,0.50508 0,0.33671 0.16836,0.50507 0.50508,0.50507 0.33672,0 0.50508,0.16836 0.50508,0.50508 0,0.33672 0.16836,0.50508 0.50507,0.50508 0.33672,0 0.50508,0.16836 0.50508,0.50507 0,0.33672 0.16836,0.50508 0.50507,0.50508 0.33672,0 0.50508,0.16836 0.50508,0.50508 0,0.46133 -0.16951,0.50537 -1.95717,0.50852 -2.2899,0.004 -3.09359,0.17481 -3.09359,0.65735 0,0.27005 -0.4873,0.34935 -2.14658,0.34935 -1.7694,0 -2.23057,0.084 -2.62462,0.47806 -0.37799,0.37799 -0.93674,0.49692 -2.66942,0.56821 -1.76343,0.0725 -2.23967,0.17646 -2.43869,0.5321 -0.20319,0.3631 -0.6055,0.44194 -2.25507,0.44194 -1.67104,0 -2.09246,0.0847 -2.51283,0.50508 -0.41364,0.41364 -0.8418,0.50507 -2.36506,0.50507 -1.47759,0 -1.99199,0.10384 -2.50208,0.50508 -0.35315,0.27779 -0.81073,0.50507 -1.01683,0.50507 -0.2061,0 -0.44554,0.28211 -0.53207,0.6269 -0.20857,0.83098 0.0834,2.71723 0.46969,3.03491 0.16892,0.13889 0.38343,0.82075 0.47669,1.51523 0.0933,0.69448 0.32055,1.37633 0.50507,1.51523 0.18453,0.13889 0.41182,0.82074 0.50508,1.51522 0.0933,0.69448 0.32155,1.37634 0.5073,1.51523 0.18576,0.1389 0.40078,0.81384 0.47784,1.49987 0.0771,0.68604 0.30434,1.36789 0.50507,1.51523 0.20074,0.14734 0.4263,0.81388 0.50124,1.4812 0.075,0.66731 0.30725,1.34917 0.51622,1.51523 0.20897,0.16606 0.43626,0.84791 0.50508,1.51523 0.0688,0.66731 0.2961,1.34916 0.50507,1.51522 0.20897,0.16607 0.4375,0.8589 0.50783,1.53963 0.0795,0.76985 0.28116,1.32348 0.5334,1.46464 0.23916,0.13384 0.40695,0.55852 0.40898,1.03515 0.005,1.18787 0.26088,1.94462 0.65735,1.94462 0.20429,0 0.34936,0.26217 0.34936,0.63135 0,0.79549 -0.77486,0.85308 -1.69886,0.12627 -0.45686,-0.35937 -1.02449,-0.50508 -1.96755,-0.50508 -1.11306,0 -1.34661,-0.0809 -1.45753,-0.50508 -0.10363,-0.3963 -0.34447,-0.50507 -1.11826,-0.50507 -0.6371,0 -1.17807,-0.17878 -1.52831,-0.50508 -0.37131,-0.34593 -0.8912,-0.50507 -1.64998,-0.50507 -0.78711,0 -1.24016,-0.14622 -1.56492,-0.50508 -0.31855,-0.35199 -0.77781,-0.50508 -1.51523,-0.50508 -0.73742,0 -1.19669,-0.15309 -1.51523,-0.50507 -0.31629,-0.34949 -0.77781,-0.50508 -1.49825,-0.50508 -0.72864,0 -1.17096,-0.1516 -1.47361,-0.50508 -0.30764,-0.35929 -0.74497,-0.50507 -1.51523,-0.50507 -0.77026,0 -1.20759,-0.14578 -1.51523,-0.50508 -0.32025,-0.37402 -0.74497,-0.50508 -1.63688,-0.50508 -0.93091,0 -1.27604,-0.11469 -1.51984,-0.50507 -0.23653,-0.37876 -0.58332,-0.50307 -1.38657,-0.49705 -1.84201,0.0138 -2.46011,0.87507 -2.46011,3.42789 0,1.2649 -0.11319,1.82642 -0.44123,2.18891 -0.32398,0.35799 -0.46498,1.0344 -0.53056,2.54526 -0.0628,1.44659 -0.21188,2.19559 -0.502,2.52199 -0.28299,0.31837 -0.44196,1.07232 -0.50584,2.39911 -0.0619,1.28574 -0.22551,2.08413 -0.48766,2.37987 -0.26431,0.29816 -0.43213,1.13163 -0.5085,2.52538 -0.0758,1.38244 -0.24519,2.22964 -0.50508,2.52538 -0.25918,0.29494 -0.43051,1.14667 -0.508,2.52538 -0.0783,1.39347 -0.23123,2.14703 -0.46314,2.2823 -0.19041,0.11107 -0.34621,0.3616 -0.34621,0.55673 0,0.41518 -1.09789,-0.5963 -1.34434,-1.23854 -0.0853,-0.22222 -0.32907,-0.40403 -0.54177,-0.40403 -0.21837,0 -0.38673,-0.21987 -0.38673,-0.50507 0,-0.33672 -0.16836,-0.50508 -0.50508,-0.50508 -0.33672,0 -0.50508,-0.16836 -0.50508,-0.50508 0,-0.33671 -0.16836,-0.50507 -0.50507,-0.50507 -0.33672,0 -0.50508,-0.16836 -0.50508,-0.50508 0,-0.29378 -0.16836,-0.50507 -0.40245,-0.50507 -0.22135,0 -0.46188,-0.22729 -0.53453,-0.50508 -0.0726,-0.27779 -0.27105,-0.50508 -0.4409,-0.50508 -0.16985,0 -0.43826,-0.2841 -0.59647,-0.63134 -0.15822,-0.34724 -0.40374,-0.63135 -0.54562,-0.63135 -0.14187,0 -0.25795,-0.15497 -0.25795,-0.34437 0,-0.1894 -0.26474,-0.61556 -0.58832,-0.94702 -0.32357,-0.33145 -0.66093,-0.80152 -0.74969,-1.04459 -0.0888,-0.24306 -0.33539,-0.44194 -0.5481,-0.44194 -0.2127,0 -0.38673,-0.16646 -0.38673,-0.36992 0,-0.20346 -0.22729,-0.49156 -0.50508,-0.64023 -0.27779,-0.14867 -0.50507,-0.43677 -0.50507,-0.64023 0,-0.20346 -0.15721,-0.36992 -0.34936,-0.36992 -0.19214,0 -0.40879,-0.22729 -0.48143,-0.50508 -0.0727,-0.27779 -0.29993,-0.50507 -0.50508,-0.50507 -0.20514,0 -0.43243,-0.22729 -0.50507,-0.50508 -0.0727,-0.27779 -0.29993,-0.50508 -0.50508,-0.50508 -0.20515,0 -0.43243,-0.22728 -0.50508,-0.50507 -0.0726,-0.2778 -0.31318,-0.50508 -0.53453,-0.50508 -0.23409,0 -0.40245,-0.21129 -0.40245,-0.50508 0,-0.33671 -0.16836,-0.50507 -0.50507,-0.50507 -0.33227,0 -0.50508,-0.16836 -0.50508,-0.49207 0,-0.42827 -0.64165,-1.33855 -1.52229,-2.15958 -0.14898,-0.1389 -0.46088,-0.45141 -0.69311,-0.69448 -0.51766,-0.54183 -1.2851,-0.57454 -1.48134,-0.0631 -0.08,0.20835 -0.35284,0.37881 -0.60641,0.37881 -0.25357,0 -0.53317,0.22728 -0.62134,0.50508 -0.0882,0.27779 -0.31545,0.50507 -0.50508,0.50507 -0.18962,0 -0.41357,0.21679 -0.49767,0.48175 -0.0841,0.26496 -0.31904,0.5455 -0.52209,0.62342 -0.20306,0.0779 -0.3692,0.30804 -0.3692,0.51139 0,0.20334 -0.22728,0.44185 -0.50507,0.53002 -0.2778,0.0882 -0.50508,0.29586 -0.50508,0.46154 0,0.16568 -0.28411,0.60763 -0.63135,0.98211 -0.34724,0.37448 -0.63134,0.79548 -0.63134,0.93555 0,0.14007 -0.22729,0.37632 -0.50508,0.52499 -0.27779,0.14866 -0.50507,0.43677 -0.50507,0.64023 0,0.20345 -0.15721,0.36992 -0.34936,0.36992 -0.19214,0 -0.40879,0.22728 -0.48143,0.50507 -0.0727,0.2778 -0.31318,0.50508 -0.53453,0.50508 -0.23409,0 -0.40245,0.21129 -0.40245,0.50508 0,0.33671 -0.16836,0.50507 -0.50508,0.50507 -0.32629,0 -0.50507,0.16836 -0.50507,0.47563 0,0.26323 -0.22554,0.5346 -0.50508,0.6077 -0.27779,0.0726 -0.50508,0.31318 -0.50508,0.53453 0,0.22135 -0.17402,0.40245 -0.38673,0.40245 -0.2127,0 -0.45972,0.19019 -0.54892,0.42265 -0.0892,0.23245 -0.31707,0.60179 -0.50637,0.82075 -0.90111,1.04226 -1.58843,2.00978 -1.58843,2.236 0,0.13737 -0.22729,0.3092 -0.50508,0.38184 -0.27779,0.0727 -0.50508,0.30553 -0.50508,0.51751 0,0.21199 -0.22728,0.45757 -0.50507,0.54574 -0.27779,0.0882 -0.50508,0.31545 -0.50508,0.50508 0,0.18962 -0.21501,0.41301 -0.47781,0.49642 -0.26279,0.0834 -0.53626,0.37517 -0.6077,0.64836 -0.0714,0.27319 -0.29774,0.49672 -0.50289,0.49672 -0.20515,0 -0.43243,0.22728 -0.50508,0.50507 -0.0726,0.27779 -0.31318,0.50508 -0.53453,0.50508 -0.32916,0 -0.40245,-0.31573 -0.40245,-1.73371 z m 26.39024,-21.16408 c 0.41669,-0.19998 1.49629,-0.43144 2.39911,-0.51436 0.90283,-0.0829 2.03757,-0.36075 2.52164,-0.61741 0.48408,-0.25665 1.18043,-0.46664 1.54745,-0.46664 0.36701,0 0.80057,-0.16059 0.96346,-0.35686 0.16289,-0.19627 0.86674,-0.43533 1.56412,-0.53124 0.69737,-0.0959 1.32456,-0.32191 1.39374,-0.50221 0.0692,-0.18029 0.50425,-0.39881 0.96681,-0.48559 0.46256,-0.0868 0.97393,-0.31792 1.13638,-0.51366 0.16245,-0.19574 0.62059,-0.42732 1.01808,-0.51463 0.39749,-0.0873 0.85812,-0.32189 1.02363,-0.52131 0.1655,-0.19942 0.42293,-0.36257 0.57208,-0.36257 0.34862,0 2.25601,-1.28939 2.52058,-1.7039 0.11108,-0.17402 0.36092,-0.31641 0.5552,-0.31641 0.19429,0 0.67162,-0.28234 1.06074,-0.62742 1.02249,-0.90677 1.28441,-1.12867 2.98553,-2.5293 2.67094,-2.19916 2.3274,-1.86058 5.48751,-5.40837 0.93755,-1.05256 1.70463,-2.0288 1.70463,-2.16942 0,-0.14062 0.22729,-0.39761 0.50508,-0.5711 0.27779,-0.17348 0.50507,-0.46731 0.50507,-0.65295 0,-0.18564 0.22729,-0.54321 0.50508,-0.79461 0.27779,-0.2514 0.50508,-0.59233 0.50508,-0.75762 0,-0.16529 0.22728,-0.50621 0.50507,-0.75761 0.2778,-0.2514 0.50508,-0.69833 0.50508,-0.99317 0,-0.29485 0.22728,-0.73069 0.50508,-0.96854 0.27779,-0.23785 0.50507,-0.72124 0.50507,-1.0742 0,-0.35296 0.16352,-0.7045 0.36338,-0.78119 0.19985,-0.0767 0.43979,-0.49928 0.53318,-0.93909 0.0934,-0.43981 0.33248,-0.98443 0.5313,-1.21027 0.19882,-0.22584 0.42884,-0.85087 0.51114,-1.38896 0.0823,-0.53809 0.29511,-1.1488 0.47291,-1.35715 0.1778,-0.20834 0.40686,-0.83337 0.50901,-1.38896 0.10216,-0.55558 0.3332,-1.23743 0.51343,-1.51523 0.18024,-0.27779 0.4079,-1.30057 0.50592,-2.27284 0.098,-0.97227 0.35424,-2.03873 0.56937,-2.36991 0.57997,-0.89284 0.57253,-13.82663 -0.008,-14.7134 -0.21419,-0.3269 -0.47309,-1.5035 -0.57535,-2.61466 -0.10226,-1.11117 -0.33318,-2.19077 -0.51315,-2.39912 -0.17998,-0.20834 -0.4088,-0.89019 -0.50849,-1.51523 -0.0997,-0.62503 -0.32495,-1.30688 -0.50058,-1.51522 -0.17563,-0.20835 -0.39355,-0.79355 -0.48427,-1.30045 -0.0907,-0.50691 -0.33239,-1.06062 -0.53706,-1.23048 -0.20467,-0.16986 -0.37213,-0.52221 -0.37213,-0.78299 0,-0.26079 -0.22728,-0.70144 -0.50507,-0.97923 -0.27779,-0.27779 -0.50508,-0.73236 -0.50508,-1.01015 0,-0.2778 -0.22728,-0.73237 -0.50507,-1.01016 -0.2778,-0.27779 -0.50508,-0.72793 -0.50508,-1.00031 0,-0.27238 -0.20405,-0.69854 -0.45344,-0.94702 -0.24939,-0.24848 -0.58789,-0.7643 -0.7522,-1.14626 -0.16432,-0.38196 -0.41484,-0.69448 -0.55671,-0.69448 -0.14188,0 -0.25796,-0.17157 -0.25796,-0.38128 0,-0.2097 -0.22728,-0.57588 -0.50507,-0.81374 -0.27779,-0.23785 -0.50508,-0.537 -0.50508,-0.66478 0,-0.97614 -8.64445,-9.50442 -9.63388,-9.50442 -0.19038,0 -0.48809,-0.22728 -0.66157,-0.50507 -0.17349,-0.27779 -0.46732,-0.50508 -0.65296,-0.50508 -0.18564,0 -0.54321,-0.22728 -0.79461,-0.50507 -0.2514,-0.2778 -0.58468,-0.50508 -0.74063,-0.50508 -0.15595,0 -0.47815,-0.22728 -0.716,-0.50508 -0.23786,-0.27779 -0.6356,-0.50507 -0.88389,-0.50507 -0.24828,0 -0.64603,-0.22729 -0.88388,-0.50508 -0.23785,-0.27779 -0.61452,-0.50508 -0.83704,-0.50508 -0.22252,0 -0.69353,-0.22728 -1.04668,-0.50507 -0.35316,-0.27779 -0.78333,-0.50508 -0.95593,-0.50508 -0.17261,0 -0.44793,-0.16158 -0.61183,-0.35906 -0.1639,-0.19749 -0.77443,-0.43715 -1.35675,-0.53257 -0.58231,-0.0954 -1.24352,-0.33646 -1.46936,-0.53562 -0.22585,-0.19916 -0.85088,-0.42944 -1.38896,-0.51174 -0.53809,-0.0823 -1.16024,-0.30698 -1.38256,-0.49928 -0.23395,-0.20237 -1.29763,-0.41687 -2.52538,-0.50926 -1.16664,-0.0878 -2.19531,-0.27318 -2.28593,-0.41198 -0.49442,-0.75729 -14.82696,-0.83522 -15.98247,-0.0869 -0.28616,0.18531 -1.47481,0.40929 -2.64145,0.49772 -1.23574,0.0937 -2.2899,0.30764 -2.52538,0.5126 -0.22232,0.1935 -0.85878,0.43264 -1.41437,0.53144 -0.55558,0.0988 -1.18061,0.32509 -1.38896,0.5029 -0.20834,0.1778 -0.833,0.39287 -1.38813,0.47794 -0.55513,0.0851 -1.12496,0.31281 -1.2663,0.5061 -0.14133,0.19329 -0.63236,0.43388 -1.09118,0.53465 -0.45881,0.10078 -0.8955,0.34297 -0.97043,0.53822 -0.0749,0.19525 -0.33602,0.35499 -0.58022,0.35499 -0.2442,0 -0.73295,0.22729 -1.0861,0.50508 -0.35316,0.27779 -0.75232,0.50508 -0.88702,0.50508 -0.13471,0 -0.39184,0.17703 -0.57141,0.3934 -0.17957,0.21636 -0.70487,0.55149 -1.16734,0.74472 -0.46247,0.19324 -0.84086,0.47077 -0.84086,0.61676 0,0.14598 -0.15285,0.26542 -0.33966,0.26542 -0.18682,0 -0.54536,0.22729 -0.79676,0.50508 -0.2514,0.27779 -0.60066,0.50507 -0.77615,0.50507 -0.17548,0 -0.79217,0.45457 -1.37042,1.01016 -0.57825,0.55558 -1.10199,1.01015 -1.16386,1.01015 -0.2381,0 -4.64452,4.54577 -4.64452,4.7914 0,0.14265 -0.17046,0.25936 -0.37881,0.25936 -0.20834,0 -0.3788,0.0971 -0.3788,0.21566 0,0.11862 -0.28734,0.54477 -0.63852,0.94702 -0.98926,1.13308 -1.15028,1.3464 -1.46665,1.943 -0.1622,0.30587 -0.72085,1.19292 -1.24144,1.97123 -0.5206,0.7783 -0.94654,1.53147 -0.94654,1.6737 0,0.14224 -0.16316,0.39402 -0.36257,0.55953 -0.19942,0.1655 -0.43365,0.62449 -0.52051,1.01997 -0.0869,0.39549 -0.31519,0.77941 -0.50738,0.85316 -0.19219,0.0737 -0.4237,0.52995 -0.51447,1.01376 -0.0908,0.48381 -0.31299,0.93644 -0.49384,1.00584 -0.18085,0.0694 -0.40733,0.59091 -0.50329,1.15892 -0.096,0.56801 -0.31574,1.174 -0.48839,1.34665 -0.17266,0.17265 -0.39271,0.80669 -0.48902,1.40898 -0.0963,0.60229 -0.32587,1.24583 -0.51014,1.4301 -0.18426,0.18426 -0.41307,1.09681 -0.50846,2.02788 -0.0954,0.93107 -0.36481,2.04752 -0.59871,2.481 -0.3726,0.69055 -0.42605,1.77466 -0.43157,8.75421 -0.006,7.05147 0.0426,8.04063 0.41927,8.61556 0.23407,0.35722 0.50528,1.35399 0.60269,2.21504 0.0974,0.86105 0.3184,1.70682 0.49107,1.87949 0.17268,0.17268 0.39682,0.81872 0.49809,1.43566 0.10128,0.61693 0.32986,1.29216 0.50796,1.50051 0.1781,0.20834 0.4019,0.85524 0.49733,1.43755 0.0954,0.58231 0.32778,1.18679 0.51633,1.34328 0.18856,0.15649 0.41427,0.60975 0.50157,1.00724 0.0873,0.39749 0.31459,0.85206 0.50508,1.01015 0.19049,0.15809 0.41777,0.61266 0.50508,1.01015 0.0873,0.3975 0.32189,0.85813 0.52131,1.02363 0.19941,0.1655 0.36257,0.41317 0.36257,0.55038 0,0.3681 1.56523,2.71914 1.8103,2.71914 0.1155,0 0.21,0.12565 0.21,0.27922 0,0.15357 0.28311,0.63655 0.62912,1.07329 0.34602,0.43673 0.829,1.06297 1.07329,1.39164 0.59901,0.80588 5.89333,6.10812 6.65518,6.66512 0.33414,0.2443 0.96485,0.72728 1.40159,1.07329 0.43674,0.34602 0.85657,0.62912 0.93296,0.62912 0.0764,0 0.57138,0.39802 1.09997,0.88449 0.52859,0.48647 1.17116,0.95226 1.42794,1.03508 0.25678,0.0828 0.68294,0.36666 0.94702,0.63074 0.26408,0.26408 0.65061,0.48015 0.85895,0.48015 0.20835,0 0.37881,0.10483 0.37881,0.23295 0,0.12812 0.42616,0.37148 0.94702,0.5408 0.52086,0.16931 1.03231,0.45225 1.13656,0.62875 0.10425,0.1765 0.63751,0.3966 1.18502,0.4891 0.54751,0.0925 1.11971,0.31788 1.27155,0.50083 0.15184,0.18296 0.68638,0.40963 1.18788,0.50371 0.50149,0.0941 1.15088,0.3205 1.44309,0.50315 0.29221,0.18265 0.97407,0.40993 1.51523,0.50507 0.54117,0.0951 1.22302,0.3217 1.51523,0.50346 0.29221,0.18176 1.31146,0.39773 2.26501,0.47992 0.95354,0.0822 1.90822,0.29455 2.12151,0.47191 0.86061,0.71559 13.8552,0.73833 15.33767,0.0268 z"
         id="path983"
         transform="scale(0.26458333)" />
      <path
         style="fill:#000000;fill-opacity:1;stroke:none;stroke-width:1.08524;stroke-linecap:square;stroke-linejoin:round;paint-order:stroke fill markers"
         d="m 428.09881,304.76221 c -0.29671,-0.34653 -0.74497,-0.50507 -1.42806,-0.50507 -0.77382,0 -1.03132,-0.11252 -1.15591,-0.50508 -0.11929,-0.37585 -0.3821,-0.50507 -1.02718,-0.50507 -0.6985,0 -0.86686,-0.0981 -0.86686,-0.50508 0,-0.33672 -0.16836,-0.50508 -0.50508,-0.50508 -0.33671,0 -0.50507,-0.16836 -0.50507,-0.50507 0,-0.33672 -0.16836,-0.50508 -0.50508,-0.50508 -0.41138,0 -0.50508,-0.16836 -0.50508,-0.90753 0,-0.69514 -0.1182,-0.93843 -0.50507,-1.0396 -0.43288,-0.1132 -0.50508,-0.34447 -0.50508,-1.61786 0,-1.14906 -0.11446,-1.60024 -0.50507,-1.99085 -0.421,-0.421 -0.50508,-0.84179 -0.50508,-2.52785 0,-1.71027 -0.078,-2.08959 -0.50508,-2.45524 -0.42966,-0.36788 -0.50507,-0.74497 -0.50507,-2.52538 0,-1.78041 -0.0754,-2.1575 -0.50508,-2.52538 -0.42472,-0.36365 -0.50508,-0.74497 -0.50508,-2.39664 0,-2.37621 -0.40677,-2.97433 -2.02277,-2.97433 -0.70012,0 -1.14609,0.15587 -1.44509,0.50507 -0.32025,0.37403 -0.74497,0.50508 -1.63688,0.50508 -0.93093,0 -1.27606,0.11469 -1.51985,0.50507 -0.24353,0.38995 -0.58893,0.50508 -1.51523,0.50508 -0.92631,0 -1.27171,0.11514 -1.51523,0.50508 -0.24352,0.38994 -0.58893,0.50507 -1.51523,0.50507 -0.92631,0 -1.27171,0.11514 -1.51523,0.50508 -0.24963,0.39972 -0.58893,0.50508 -1.62662,0.50508 -1.0894,0 -1.33831,0.0854 -1.4715,0.50507 -0.13387,0.42179 -0.3821,0.50508 -1.50523,0.50508 -0.96252,0 -1.38625,0.1077 -1.49028,0.37881 -0.10829,0.28219 -0.55816,0.3788 -1.76387,0.3788 -1.13058,0 -1.71327,-0.11419 -1.93288,-0.3788 -0.19184,-0.23116 -0.7453,-0.37881 -1.41988,-0.37881 -0.93714,0 -1.1055,-0.0769 -1.1055,-0.50508 0,-0.37039 -0.16836,-0.50507 -0.63135,-0.50507 -0.38922,0 -0.63134,-0.14343 -0.63134,-0.374 0,-0.2057 -0.27268,-0.44244 -0.60596,-0.52608 -0.72653,-0.18235 -2.17196,-1.90372 -2.17196,-2.58659 0,-0.26721 -0.22729,-0.77478 -0.50508,-1.12793 -0.42478,-0.54003 -0.50507,-1.02449 -0.50507,-3.0475 0,-2.1836 0.0466,-2.42018 0.50507,-2.5657 0.42163,-0.13382 0.50508,-0.3821 0.50508,-1.50279 0,-1.1301 0.0799,-1.36339 0.50507,-1.47457 0.42822,-0.11198 0.50508,-0.34446 0.50508,-1.52766 0,-1.1738 0.0803,-1.42107 0.50508,-1.55589 0.42163,-0.13382 0.50507,-0.3821 0.50507,-1.5028 0,-1.1301 0.0799,-1.36338 0.50508,-1.47457 0.42752,-0.11179 0.50508,-0.34446 0.50508,-1.51522 0,-1.17077 0.0776,-1.40343 0.50507,-1.51523 0.42914,-0.11223 0.50508,-0.34447 0.50508,-1.54469 0,-1.03906 0.093,-1.4126 0.35179,-1.4126 0.41827,0 0.65836,-0.54169 0.65836,-1.48537 0,-1.06291 -0.42825,-1.29255 -2.41048,-1.29255 -1.48367,0 -1.88563,-0.0898 -2.26147,-0.50507 -0.39452,-0.43594 -0.77781,-0.50508 -2.80005,-0.50508 -2.12116,0 -2.35813,-0.0478 -2.50326,-0.50508 -0.14527,-0.45771 -0.38209,-0.50507 -2.52538,-0.50507 -2.14328,0 -2.38011,-0.0474 -2.52538,-0.50508 -0.13657,-0.4303 -0.3821,-0.50508 -1.65851,-0.50508 -1.11225,0 -1.49821,-0.0906 -1.49821,-0.35178 0,-0.40717 -0.53783,-0.65837 -1.40962,-0.65837 -0.33588,0 -0.61069,-0.11944 -0.61069,-0.26542 0,-0.14598 -0.39775,-0.43162 -0.88388,-0.63474 -0.48614,-0.20312 -0.88389,-0.53824 -0.88389,-0.74472 0,-0.20706 -0.2265,-0.37542 -0.50507,-0.37542 -0.39151,0 -0.50508,-0.16836 -0.50508,-0.74873 0,-0.49027 -0.17435,-0.84204 -0.50508,-1.01904 -0.27779,-0.14867 -0.50507,-0.47598 -0.50507,-0.72736 0,-0.25138 -0.22729,-0.66274 -0.50508,-0.91414 -0.44307,-0.40097 -0.50507,-0.77781 -0.50507,-3.0696 0,-2.44415 0.0325,-2.61251 0.50507,-2.61251 0.4209,0 0.50508,-0.16836 0.50508,-1.01015 0,-0.84179 0.0842,-1.01015 0.50507,-1.01015 0.33672,0 0.50508,-0.16836 0.50508,-0.50508 0,-0.33671 0.16836,-0.50507 0.50508,-0.50507 0.33671,0 0.50507,-0.16836 0.50507,-0.50508 0,-0.33672 0.16836,-0.50508 0.50508,-0.50508 0.33672,0 0.50508,-0.16836 0.50508,-0.50507 0,-0.33672 0.16835,-0.50508 0.50507,-0.50508 0.33672,0 0.50508,-0.16836 0.50508,-0.50507 0,-0.33672 0.16836,-0.50508 0.50507,-0.50508 0.33672,0 0.50508,-0.16836 0.50508,-0.50508 0,-0.33671 0.16836,-0.50507 0.50508,-0.50507 0.2806,0 0.50507,-0.16836 0.50507,-0.37881 0,-0.20834 0.16175,-0.37881 0.35943,-0.37881 0.19769,0 0.69708,-0.2841 1.10975,-0.63134 0.41267,-0.34724 0.87596,-0.63135 1.02953,-0.63135 0.15357,0 0.27921,-0.17403 0.27921,-0.38673 0,-0.21271 0.18261,-0.45681 0.4058,-0.54245 0.22319,-0.0856 1.02877,-0.76393 1.79017,-1.50731 0.76141,-0.74337 1.48028,-1.35158 1.59749,-1.35158 0.11722,0 0.28525,-0.22728 0.37342,-0.50508 0.0882,-0.27779 0.33375,-0.50507 0.54574,-0.50507 0.21199,0 0.44487,-0.22729 0.51751,-0.50508 0.0727,-0.27779 0.28163,-0.50508 0.46442,-0.50508 0.18278,0 0.40447,-0.22728 0.49264,-0.50507 0.20888,-0.65812 -0.0698,-1.51523 -0.49264,-1.51523 -0.18279,0 -0.39177,-0.22728 -0.46442,-0.50508 -0.0726,-0.27779 -0.29993,-0.50507 -0.50508,-0.50507 -0.20514,0 -0.43243,-0.22729 -0.50507,-0.50508 -0.0727,-0.27779 -0.30553,-0.50508 -0.51751,-0.50508 -0.21199,0 -0.45757,-0.22728 -0.54574,-0.50507 -0.0882,-0.27779 -0.25702,-0.50508 -0.37522,-0.50508 -0.1182,0 -0.68803,-0.45457 -1.26628,-1.01015 -0.57825,-0.55558 -1.15573,-1.01015 -1.2833,-1.01015 -0.12756,0 -0.23193,-0.17047 -0.23193,-0.37881 0,-0.20834 -0.14205,-0.38077 -0.31567,-0.38317 -0.17362,-0.002 -0.5833,-0.28651 -0.91039,-0.63135 -0.32709,-0.34484 -0.79682,-0.62698 -1.04383,-0.62698 -0.24702,0 -0.50855,-0.22728 -0.5812,-0.50507 -0.0726,-0.2778 -0.29993,-0.50508 -0.50508,-0.50508 -0.20514,0 -0.43243,-0.22729 -0.50507,-0.50508 -0.0727,-0.27779 -0.31318,-0.50507 -0.53453,-0.50507 -0.22135,0 -0.40245,-0.16281 -0.40245,-0.36179 0,-0.19899 -0.22729,-0.43393 -0.50508,-0.5221 -0.27779,-0.0882 -0.50507,-0.32311 -0.50507,-0.52209 0,-0.19898 -0.22729,-0.36179 -0.50508,-0.36179 -0.33672,0 -0.50508,-0.16836 -0.50508,-0.50508 0,-0.33671 -0.16836,-0.50507 -0.50507,-0.50507 -0.32258,0 -0.50508,-0.16836 -0.50508,-0.46594 0,-0.25626 -0.22728,-0.67162 -0.50508,-0.92302 -0.27779,-0.2514 -0.50507,-0.70597 -0.50507,-1.01016 0,-0.30418 -0.22729,-0.75875 -0.50508,-1.01015 -0.44236,-0.40033 -0.50507,-0.77781 -0.50507,-3.04014 0,-2.37067 0.0415,-2.59392 0.50507,-2.71514 0.28597,-0.0748 0.50508,-0.34446 0.50508,-0.62166 0,-0.26927 0.22728,-0.69526 0.50507,-0.94666 0.2778,-0.2514 0.50508,-0.65351 0.50508,-0.89357 0,-0.24007 0.22729,-0.49592 0.50508,-0.56857 0.27779,-0.0726 0.50507,-0.31318 0.50507,-0.53453 0,-0.23409 0.21129,-0.40245 0.50508,-0.40245 0.33672,0 0.50508,-0.16836 0.50508,-0.50507 0,-0.41138 0.16835,-0.50508 0.90752,-0.50508 0.69514,0 0.93844,-0.1182 1.03961,-0.50507 0.11586,-0.44305 0.34446,-0.50508 1.86151,-0.50508 1.47096,0 1.76982,-0.0755 1.99973,-0.50508 0.23558,-0.44017 0.52877,-0.50507 2.28173,-0.50507 1.6747,0 2.09597,-0.0846 2.5165,-0.50508 0.41528,-0.41528 0.84179,-0.50508 2.39911,-0.50508 1.55732,0 1.98383,-0.0898 2.39911,-0.50507 0.41639,-0.41639 0.8418,-0.50508 2.42276,-0.50508 1.67431,0 1.93366,-0.0611 2.04365,-0.48173 0.0693,-0.26495 0.34275,-0.53841 0.6077,-0.6077 0.69016,-0.18048 0.67161,-1.57992 -0.0233,-1.76166 -0.42914,-0.11222 -0.50508,-0.34447 -0.50508,-1.54468 0,-1.24425 -0.0602,-1.41261 -0.50508,-1.41261 -0.44895,0 -0.50507,-0.16836 -0.50507,-1.51522 0,-1.34687 -0.0561,-1.51523 -0.50508,-1.51523 -0.44488,0 -0.50508,-0.16836 -0.50508,-1.41261 0,-1.20021 -0.0759,-1.43245 -0.50507,-1.54468 -0.42752,-0.1118 -0.50508,-0.34446 -0.50508,-1.51523 0,-1.17076 -0.0775,-1.40343 -0.50508,-1.51523 -0.42752,-0.11179 -0.50507,-0.34446 -0.50507,-1.51522 0,-1.17077 -0.0776,-1.40343 -0.50508,-1.51523 -0.4615,-0.12069 -0.50507,-0.34447 -0.50507,-2.59395 0,-2.07948 0.0784,-2.56161 0.50507,-3.10398 0.27779,-0.35315 0.50508,-0.86225 0.50508,-1.13133 0,-0.26908 0.22728,-0.69493 0.50507,-0.94633 0.2778,-0.2514 0.50508,-0.66676 0.50508,-0.92302 0,-0.29758 0.1825,-0.46594 0.50508,-0.46594 0.33671,0 0.50507,-0.16836 0.50507,-0.50508 0,-0.33671 0.16836,-0.50507 0.50508,-0.50507 0.33672,0 0.50508,-0.16836 0.50508,-0.50508 0,-0.42089 0.16835,-0.50507 1.01015,-0.50507 0.67343,0 1.17851,-0.16836 1.51523,-0.50508 0.43694,-0.43694 0.84179,-0.50508 3.001,-0.50508 2.28354,0 2.50717,0.043 2.62801,0.50508 0.1118,0.42752 0.34446,0.50508 1.51523,0.50508 1.17076,0 1.40343,0.0776 1.51523,0.50507 0.11222,0.42914 0.34446,0.50508 1.54468,0.50508 1.24424,0 1.4126,0.0602 1.4126,0.50507 0,0.43762 0.16836,0.50508 1.26055,0.50508 0.98705,0 1.32899,0.10959 1.57598,0.50508 0.2322,0.3718 0.58892,0.50507 1.35196,0.50507 0.71581,0 1.17796,0.15628 1.49362,0.50508 0.35777,0.39533 0.77781,0.50508 1.93318,0.50508 1.30772,0 1.47608,0.0576 1.47608,0.50507 0,0.40887 0.16836,0.50508 0.88389,0.50508 1.50738,0 1.89403,-0.64443 1.89403,-3.15673 0,-1.65927 0.0793,-2.14657 0.34936,-2.14657 0.47036,0 0.65322,-0.79681 0.65735,-2.86436 0.003,-1.34195 0.11627,-1.87136 0.50852,-2.37003 0.40501,-0.51489 0.50508,-1.0245 0.50508,-2.57223 0,-1.61761 0.0818,-2.00014 0.50508,-2.36258 0.37633,-0.32223 0.50507,-0.74497 0.50507,-1.65848 0,-0.9053 0.13213,-1.3456 0.50508,-1.68311 0.31331,-0.28355 0.50507,-0.77781 0.50507,-1.30183 0,-0.60458 0.11442,-0.84475 0.40245,-0.84475 0.22135,0 0.46189,-0.22728 0.53453,-0.50507 0.0727,-0.27779 0.29993,-0.50508 0.50508,-0.50508 0.20515,0 0.43243,-0.22728 0.50508,-0.50508 0.0726,-0.27779 0.29993,-0.50507 0.50507,-0.50507 0.20515,0 0.43243,-0.22729 0.50508,-0.50508 0.10013,-0.38291 0.34447,-0.50507 1.01015,-0.50507 0.66569,0 0.91002,-0.12217 1.01015,-0.50508 0.12025,-0.45981 0.34447,-0.50508 2.50174,-0.50508 2.03294,0 2.44143,0.0718 2.87474,0.50508 0.27779,0.27779 0.78918,0.50508 1.13642,0.50508 0.34724,0 0.85863,0.22728 1.13642,0.50507 0.27779,0.27779 0.73236,0.50508 1.01015,0.50508 0.33672,0 0.50508,0.16836 0.50508,0.50507 0,0.33672 0.16836,0.50508 0.50508,0.50508 0.33671,0 0.50507,0.16836 0.50507,0.50508 0,0.33671 0.16836,0.50507 0.50508,0.50507 0.33672,0 0.50507,0.16836 0.50507,0.50508 0,0.27779 0.14206,0.50579 0.31568,0.50667 0.28166,0.001 0.63836,0.46569 1.62294,2.11231 0.16342,0.2733 0.47593,0.59697 0.69448,0.71928 0.21855,0.1223 0.39736,0.38719 0.39736,0.58863 0,0.20144 0.17403,0.36626 0.38673,0.36626 0.21271,0 0.45659,0.18203 0.54197,0.40452 0.0854,0.22249 0.76366,1.00811 1.5073,1.74584 0.74364,0.73772 1.35207,1.46482 1.35207,1.61578 0,0.15096 0.18111,0.27447 0.40245,0.27447 0.22135,0 0.46091,0.22352 0.53235,0.49671 0.0714,0.27319 0.33361,0.56137 0.58259,0.6404 0.24899,0.079 0.52984,0.45098 0.6241,0.82658 0.22115,0.88111 0.52701,1.05818 1.83599,1.0629 0.90622,0.003 1.07329,-0.0748 1.07329,-0.50121 0,-0.33672 0.16836,-0.50508 0.50507,-0.50508 0.33672,0 0.50508,-0.16836 0.50508,-0.50507 0,-0.33672 0.16836,-0.50508 0.50508,-0.50508 0.33671,0 0.50507,-0.16836 0.50507,-0.50508 0,-0.29378 0.16836,-0.50507 0.40245,-0.50507 0.22135,0 0.46189,-0.22729 0.53453,-0.50508 0.0726,-0.27779 0.29993,-0.50507 0.50508,-0.50507 0.20514,0 0.43243,-0.22729 0.50507,-0.50508 0.0727,-0.27779 0.28929,-0.50508 0.48144,-0.50508 0.19214,0 0.34935,-0.12902 0.34935,-0.28671 0,-0.15769 0.2557,-0.54672 0.56821,-0.86451 0.84823,-0.86253 1.70463,-2.04876 1.70463,-2.36112 0,-0.15165 0.18111,-0.27573 0.40245,-0.27573 0.22135,0 0.46189,-0.22728 0.53453,-0.50508 0.0727,-0.27779 0.28163,-0.50507 0.46442,-0.50507 0.18278,0 0.40447,-0.22729 0.49264,-0.50508 0.0882,-0.27779 0.32311,-0.50507 0.5221,-0.50507 0.19898,0 0.36178,-0.16647 0.36178,-0.36993 0,-0.20345 0.22729,-0.49156 0.50508,-0.64023 0.27779,-0.14867 0.50508,-0.43677 0.50508,-0.64023 0,-0.20345 0.1811,-0.36992 0.40245,-0.36992 0.22134,0 0.46188,-0.22728 0.53453,-0.50508 0.0731,-0.27953 0.34446,-0.50507 0.6077,-0.50507 0.30726,0 0.47562,-0.17879 0.47562,-0.50508 0,-0.42089 0.16836,-0.50507 1.01015,-0.50507 0.8418,0 1.01016,-0.0842 1.01016,-0.50508 0,-0.47118 0.16836,-0.50508 2.50836,-0.50508 2.28657,0 2.52254,0.0447 2.66867,0.50508 0.11886,0.37451 0.3821,0.50508 1.01828,0.50508 0.59952,0 0.93941,0.15215 1.12829,0.50507 0.17318,0.32359 0.52877,0.50508 0.98959,0.50508 0.50689,0 0.75827,0.14914 0.85135,0.50507 0.0726,0.2778 0.30054,0.50508 0.50643,0.50508 0.22788,0 0.43922,0.34583 0.54016,0.88388 0.0993,0.52909 0.31328,0.88389 0.53318,0.88389 0.2235,0 0.36736,0.24725 0.36736,0.63134 0,0.34724 0.22729,0.85863 0.50508,1.13642 0.41014,0.41015 0.50508,0.8418 0.50508,2.29649 0,1.57902 0.0599,1.80707 0.50507,1.92349 0.46026,0.12036 0.50508,0.34447 0.50508,2.52538 0,2.18092 0.0448,2.40502 0.50508,2.52538 0.45391,0.1187 0.50507,0.34447 0.50507,2.22855 0,2.30143 0.13288,2.89539 0.64774,2.89539 0.25084,0 0.3607,0.51819 0.41493,1.95717 l 0.0738,1.95717 1.30485,0.0756 c 1.12936,0.0654 1.32694,0.006 1.46912,-0.44194 0.13902,-0.43803 0.37503,-0.51754 1.5362,-0.51754 1.20358,0 1.37194,-0.062 1.37194,-0.50508 0,-0.44488 0.16836,-0.50508 1.4126,-0.50508 1.20022,0 1.43246,-0.0759 1.54469,-0.50507 0.1118,-0.42752 0.34446,-0.50508 1.51523,-0.50508 1.17076,0 1.40343,-0.0776 1.51522,-0.50508 0.1118,-0.42752 0.34447,-0.50507 1.51523,-0.50507 1.17077,0 1.40343,-0.0776 1.51523,-0.50508 0.11119,-0.42517 0.34447,-0.50507 1.47457,-0.50507 1.1207,0 1.36897,-0.0834 1.50279,-0.50508 0.14604,-0.46011 0.3821,-0.50508 2.65165,-0.50508 2.26956,0 2.50562,0.045 2.65165,0.50508 0.11785,0.3713 0.3821,0.50508 0.99772,0.50508 0.62503,0 0.87091,0.12809 0.96949,0.50507 0.0727,0.27779 0.31861,0.50508 0.54659,0.50508 0.42065,0 1.65308,1.15715 1.65308,1.5521 0,0.11862 0.17047,0.21567 0.37881,0.21567 0.2161,0 0.37881,0.2271 0.37881,0.52871 0,0.31634 0.20289,0.58178 0.50507,0.6608 0.3957,0.10348 0.50508,0.34447 0.50508,1.11278 0,0.81234 0.0867,0.9807 0.50508,0.9807 0.46263,0 0.50507,0.16836 0.50507,2.00329 0,1.78149 -0.0559,2.02103 -0.50507,2.16359 -0.4224,0.13407 -0.50508,0.3821 -0.50508,1.51523 0,1.13313 -0.0827,1.38116 -0.50508,1.51523 -0.42342,0.13439 -0.50507,0.3821 -0.50507,1.53225 0,1.00431 -0.0943,1.37194 -0.35179,1.37194 -0.46348,0 -0.65836,0.55806 -0.65836,1.88523 0,0.87393 -0.0987,1.11214 -0.50508,1.2184 -0.42752,0.1118 -0.50508,0.34446 -0.50508,1.51523 0,1.17076 -0.0776,1.40343 -0.50507,1.51522 -0.42914,0.11223 -0.50508,0.34447 -0.50508,1.54469 0,1.03907 -0.093,1.4126 -0.35179,1.4126 -0.81612,0 -0.933,2.50328 -0.15329,3.283 0.41829,0.41828 0.8418,0.50507 2.46464,0.50507 1.68606,0 2.00358,0.0705 2.27498,0.50508 0.27694,0.44344 0.58893,0.50507 2.55668,0.50507 2.02886,0 2.25376,0.0479 2.37333,0.50508 0.11981,0.45819 0.34446,0.50508 2.41968,0.50508 2.02914,0 2.31814,0.0571 2.55791,0.50507 0.21968,0.41049 0.52877,0.50508 1.65038,0.50508 1.03927,0 1.38007,0.0907 1.38007,0.36736 0,0.22254 0.3621,0.4353 0.91848,0.53968 0.90019,0.16887 1.11287,0.29963 2.47357,1.52077 0.36934,0.33146 0.83682,0.60265 1.03885,0.60265 0.25007,0 0.36733,0.27671 0.36733,0.86686 0,0.64507 0.12922,0.90788 0.50507,1.02717 0.41683,0.1323 0.50508,0.3821 0.50508,1.42962 0,1.05693 0.0845,1.29142 0.50508,1.4014 0.43853,0.11468 0.50507,0.34447 0.50507,1.74412 0,1.44369 -0.0527,1.61205 -0.50507,1.61205 -0.41837,0 -0.50508,0.16836 -0.50508,0.9807 0,0.76831 -0.10938,1.0093 -0.50508,1.11278 -0.36471,0.0954 -0.50507,0.34446 -0.50507,0.89631 0,0.54245 -0.14658,0.81077 -0.50508,0.92455 -0.27779,0.0882 -0.50507,0.31545 -0.50507,0.50507 0,0.18963 -0.22729,0.41691 -0.50508,0.50508 -0.27779,0.0882 -0.50508,0.32311 -0.50508,0.5221 0,0.19898 -0.12902,0.36178 -0.28671,0.36178 -0.15769,0 -0.54672,0.2557 -0.86451,0.56821 -0.86253,0.84823 -2.04876,1.70464 -2.36112,1.70464 -0.15165,0 -0.27573,0.17046 -0.27573,0.3788 0,0.20835 -0.10925,0.37881 -0.24278,0.37881 -0.13353,0 -0.69283,0.45457 -1.24289,1.01015 -0.55005,0.55559 -1.115,1.01016 -1.25543,1.01016 -0.14042,0 -0.32746,0.22728 -0.41563,0.50507 -0.0882,0.2778 -0.31545,0.50508 -0.50507,0.50508 -0.18963,0 -0.41691,0.22728 -0.50508,0.50508 -0.0882,0.27779 -0.31545,0.50507 -0.50507,0.50507 -0.18963,0 -0.41691,0.22729 -0.50508,0.50508 -0.0882,0.27779 -0.32311,0.50507 -0.5221,0.50507 -0.19898,0 -0.58047,0.21869 -0.84775,0.48597 -0.26727,0.26727 -0.72184,0.6122 -1.01015,0.76649 -0.44109,0.23607 -0.52419,0.5206 -0.52419,1.79481 0,1.21233 0.0881,1.54645 0.44194,1.67564 0.24307,0.0888 0.71313,0.42611 1.04459,0.74969 0.33146,0.32358 0.74996,0.58832 0.93,0.58832 0.18004,0 0.39949,0.22728 0.48766,0.50508 0.0882,0.27779 0.2562,0.50507 0.37342,0.50507 0.11721,0 0.85331,0.62503 1.63577,1.38896 0.78246,0.76393 1.52356,1.38896 1.64689,1.38896 0.12332,0 0.29636,0.22729 0.38453,0.50508 0.0882,0.27779 0.33375,0.50507 0.54574,0.50507 0.21198,0 0.44486,0.22729 0.51751,0.50508 0.0731,0.27954 0.34447,0.50508 0.6077,0.50508 0.26159,0 0.47562,0.1733 0.47562,0.38512 0,0.22952 0.3197,0.44906 0.79128,0.54337 0.46954,0.0939 0.8409,0.34805 0.91333,0.62504 0.0671,0.25672 0.3361,0.46677 0.59769,0.46677 0.30726,0 0.47562,0.17879 0.47562,0.50508 0,0.33671 0.16836,0.50507 0.50508,0.50507 0.33672,0 0.50508,0.16836 0.50508,0.50508 0,0.33672 0.16836,0.50508 0.50507,0.50508 0.37039,0 0.50508,0.16836 0.50508,0.63134 0,0.34724 0.22728,0.85863 0.50507,1.13642 0.2874,0.28739 0.50508,0.8418 0.50508,1.28634 0,0.56887 0.13731,0.81716 0.50508,0.91333 0.43142,0.11282 0.50507,0.34447 0.50507,1.58841 0,1.24393 -0.0736,1.47558 -0.50507,1.5884 -0.42752,0.1118 -0.50508,0.34446 -0.50508,1.51523 0,1.17076 -0.0775,1.40343 -0.50508,1.51523 -0.27779,0.0726 -0.50507,0.31318 -0.50507,0.53453 0,0.43975 -0.86348,1.4126 -1.25381,1.4126 -0.13401,0 -0.36529,0.22728 -0.51396,0.50507 -0.14867,0.2778 -0.42911,0.50508 -0.62321,0.50508 -0.1941,0 -0.42504,0.22728 -0.51321,0.50508 -0.11847,0.37326 -0.3821,0.50507 -1.01015,0.50507 -0.62806,0 -0.89169,0.13182 -1.01016,0.50508 -0.13382,0.42163 -0.38209,0.50507 -1.50279,0.50507 -1.10793,0 -1.36447,0.0841 -1.46833,0.48123 -0.11198,0.42821 -0.42334,0.49082 -2.82549,0.56821 -2.25124,0.0725 -2.74067,0.16039 -2.94662,0.52893 -0.20483,0.36654 -0.61103,0.44194 -2.38099,0.44194 -1.78104,0 -2.2157,0.0817 -2.62781,0.49379 -0.38179,0.38179 -0.91161,0.51066 -2.33598,0.56821 l -1.84219,0.0744 -0.0754,1.43986 c -0.0616,1.17786 0.0188,1.53399 0.44195,1.95717 0.34937,0.34937 0.51731,0.84605 0.51731,1.52994 0,0.70011 0.15587,1.14609 0.50508,1.44508 0.3593,0.30764 0.50507,0.74497 0.50507,1.51523 0,0.77026 0.14578,1.20759 0.50508,1.51523 0.37329,0.31962 0.50508,0.74497 0.50508,1.63014 0,0.93922 0.10899,1.25601 0.50507,1.46799 0.40022,0.21419 0.50508,0.52877 0.50508,1.51523 0,0.98646 0.10486,1.30104 0.50507,1.51523 0.40931,0.21905 0.50508,0.52877 0.50508,1.63336 0,1.14127 0.0822,1.38914 0.50508,1.52336 0.43441,0.13788 0.50507,0.3821 0.50507,1.74565 0,1.26462 -0.10218,1.67781 -0.50507,2.04243 -0.33826,0.30611 -0.50508,0.77781 -0.50508,1.4281 0,0.80265 -0.0876,0.97101 -0.50508,0.97101 -0.32629,0 -0.50507,0.16836 -0.50507,0.47562 0,0.26324 -0.22554,0.5346 -0.50508,0.6077 -0.27779,0.0727 -0.50507,0.29993 -0.50507,0.50508 0,0.20515 -0.22729,0.43243 -0.50508,0.50508 -0.27779,0.0726 -0.50508,0.31318 -0.50508,0.53453 0,0.23409 -0.21129,0.40245 -0.50507,0.40245 -0.33672,0 -0.50508,0.16836 -0.50508,0.50507 0,0.44264 -0.16836,0.50508 -1.36194,0.50508 -0.97765,0 -1.40296,0.10688 -1.5073,0.37881 -0.10834,0.28232 -0.5586,0.3788 -1.76777,0.3788 -1.20917,0 -1.65943,-0.0965 -1.76777,-0.3788 -0.10386,-0.27068 -0.52678,-0.37881 -1.4815,-0.37881 -1.06264,0 -1.4007,-0.10339 -1.65156,-0.50508 -0.2628,-0.42081 -0.58893,-0.50507 -1.95478,-0.50507 -1.471,0 -1.63936,-0.0519 -1.63936,-0.50508 0,-0.42758 -0.16836,-0.50508 -1.09728,-0.50508 -0.77656,0 -1.23089,-0.14762 -1.55437,-0.50507 -0.3364,-0.37172 -0.77781,-0.50508 -1.67176,-0.50508 -0.9562,0 -1.27218,-0.10747 -1.48497,-0.50508 -0.21905,-0.4093 -0.52877,-0.50507 -1.63337,-0.50507 -1.15221,0 -1.38846,-0.0801 -1.52731,-0.51755 -0.14218,-0.44794 -0.33976,-0.50738 -1.46912,-0.44194 l -1.30485,0.0756 -0.0733,1.93037 c -0.0634,1.67091 -0.1398,1.94777 -0.56821,2.0598 -0.44764,0.11706 -0.49494,0.35816 -0.49494,2.52273 0,2.18091 -0.0448,2.40502 -0.50507,2.52538 -0.45819,0.11982 -0.50508,0.34447 -0.50508,2.41968 0,2.02914 -0.0571,2.31814 -0.50508,2.55791 -0.43582,0.23325 -0.50507,0.52877 -0.50507,2.15546 0,1.48123 -0.0787,1.88515 -0.36737,1.88515 -0.22146,0 -0.43472,0.35905 -0.53696,0.90405 -0.0933,0.49722 -0.32262,0.96276 -0.50965,1.03453 -0.18703,0.0718 -0.41261,0.51727 -0.50129,0.98999 -0.10978,0.58514 -0.30101,0.8595 -0.59908,0.8595 -0.24081,0 -0.64352,0.22729 -0.89492,0.50508 -0.2514,0.27779 -0.6591,0.50508 -0.906,0.50508 -0.24691,0 -0.52106,0.22728 -0.60923,0.50507 -0.11846,0.37326 -0.38209,0.50508 -1.01015,0.50508 -0.62805,0 -0.89168,0.13181 -1.01015,0.50507 -0.14613,0.46042 -0.3821,0.50508 -2.66867,0.50508 -2.34,0 -2.50836,-0.0339 -2.50836,-0.50508 0,-0.42089 -0.16836,-0.50507 -1.01016,-0.50507 -0.84179,0 -1.01015,-0.0842 -1.01015,-0.50508 0,-0.33671 -0.16836,-0.50507 -0.50507,-0.50507 -0.3263,0 -0.50508,-0.16836 -0.50508,-0.47563 0,-0.26323 -0.22554,-0.5346 -0.50508,-0.6077 -0.27779,-0.0726 -0.50507,-0.31318 -0.50507,-0.53453 0,-0.22135 -0.16281,-0.40245 -0.36179,-0.40245 -0.19899,0 -0.43393,-0.22728 -0.5221,-0.50508 -0.0882,-0.27779 -0.30985,-0.50507 -0.49264,-0.50507 -0.18278,0 -0.39177,-0.22729 -0.46441,-0.50508 -0.0726,-0.27779 -0.29993,-0.50507 -0.50508,-0.50507 -0.20515,0 -0.43243,-0.22729 -0.50508,-0.50508 -0.0726,-0.27779 -0.31318,-0.50508 -0.53453,-0.50508 -0.23721,0 -0.40245,-0.21231 -0.40245,-0.51713 0,-0.28443 -0.2841,-0.78044 -0.63134,-1.10225 -0.34724,-0.32181 -0.63135,-0.71413 -0.63135,-0.87182 0,-0.15769 -0.17046,-0.28672 -0.3788,-0.28672 -0.20835,0 -0.37881,-0.14673 -0.37881,-0.32606 0,-0.17934 -0.45457,-0.74401 -1.01015,-1.25484 -0.55559,-0.51083 -1.01016,-1.0383 -1.01016,-1.17215 0,-0.13385 -0.22728,-0.3155 -0.50507,-0.40367 -0.27779,-0.0882 -0.50508,-0.33375 -0.50508,-0.54574 0,-0.21199 -0.22728,-0.44487 -0.50507,-0.51751 -0.2778,-0.0727 -0.50508,-0.29993 -0.50508,-0.50508 0,-0.20515 -0.22728,-0.43243 -0.50508,-0.50507 -0.27779,-0.0727 -0.50507,-0.27713 -0.50507,-0.45442 0,-0.46849 -0.69771,-0.66304 -1.70213,-0.47461 -0.67802,0.1272 -0.95436,0.35034 -1.21938,0.98461 -0.18847,0.45108 -0.51737,0.88717 -0.73089,0.96911 -0.21351,0.0819 -0.38821,0.30975 -0.38821,0.50625 0,0.1965 -0.22729,0.41672 -0.50508,0.48936 -0.27779,0.0727 -0.50508,0.29993 -0.50508,0.50508 0,0.20514 -0.22728,0.43243 -0.50507,0.50507 -0.27779,0.0726 -0.50508,0.31319 -0.50508,0.53453 0,0.22135 -0.17046,0.40245 -0.37881,0.40245 -0.20834,0 -0.3788,0.10925 -0.3788,0.24278 0,0.13353 -0.45457,0.69283 -1.01016,1.24289 -0.55558,0.55006 -1.01015,1.12266 -1.01015,1.27245 0,0.14979 -0.1811,0.27234 -0.40245,0.27234 -0.22134,0 -0.4609,0.22352 -0.53234,0.49671 -0.0714,0.2732 -0.34491,0.56496 -0.6077,0.64837 -0.2628,0.0834 -0.47781,0.31045 -0.47781,0.50455 0,0.1941 -0.22729,0.47454 -0.50508,0.62321 -0.33072,0.177 -0.50508,0.52877 -0.50508,1.01904 0,0.58037 -0.11357,0.74873 -0.50507,0.74873 -0.33672,0 -0.50508,0.16836 -0.50508,0.50508 0,0.3137 -0.16836,0.50507 -0.44433,0.50507 -0.24438,0 -0.58627,0.22729 -0.75975,0.50508 -0.18328,0.29348 -0.58893,0.50508 -0.96827,0.50508 -0.44047,0 -0.69582,0.16431 -0.78493,0.50507 -0.0934,0.35733 -0.34447,0.50508 -0.8581,0.50508 -0.45252,0 -0.84485,0.19027 -1.04145,0.50507 -0.25884,0.41448 -0.58893,0.50508 -1.84005,0.50508 -1.21211,0 -1.61327,-0.10353 -1.95709,-0.50508 z m 2.32533,-8.54014 c 0.86767,-0.52766 2.28803,-2.22396 2.28803,-2.73253 0,-0.18924 0.1811,-0.34408 0.40245,-0.34408 0.22135,0 0.46189,-0.22728 0.53453,-0.50508 0.0726,-0.27779 0.28929,-0.50507 0.48144,-0.50507 0.19214,0 0.34935,-0.1811 0.34935,-0.40245 0,-0.22135 0.22728,-0.46189 0.50508,-0.53453 0.27953,-0.0731 0.50507,-0.34447 0.50507,-0.6077 0,-0.30727 0.17879,-0.47563 0.50508,-0.47563 0.33671,0 0.50507,-0.16836 0.50507,-0.50507 0,-0.29379 0.16836,-0.50508 0.40245,-0.50508 0.22135,0 0.46189,-0.22728 0.53453,-0.50508 0.0726,-0.27779 0.29286,-0.50507 0.48936,-0.50507 0.19651,0 0.42901,-0.19888 0.51668,-0.44194 0.0877,-0.24307 0.31079,-0.61241 0.49582,-0.82075 0.76358,-0.85978 1.52582,-1.92145 1.67714,-2.33598 0.0887,-0.24307 0.33535,-0.44194 0.54805,-0.44194 0.21838,0 0.38674,-0.21988 0.38674,-0.50508 0,-0.33672 0.16836,-0.50508 0.50507,-0.50508 0.33672,0 0.50508,-0.16835 0.50508,-0.50507 0,-0.33672 0.16836,-0.50508 0.50508,-0.50508 0.33671,0 0.50507,-0.16836 0.50507,-0.50507 0,-0.29379 0.16836,-0.50508 0.40245,-0.50508 0.22135,0 0.46189,-0.22728 0.53453,-0.50508 0.0727,-0.27779 0.29286,-0.50507 0.48936,-0.50507 0.1965,0 0.43262,-0.19634 0.52471,-0.43631 0.0921,-0.23997 0.51468,-0.78402 0.93909,-1.20899 0.42441,-0.42496 0.97316,-1.08094 1.21943,-1.45772 0.48325,-0.73936 1.19373,-0.92162 1.19373,-0.30625 0,0.20835 0.16281,0.37881 0.36179,0.37881 0.19899,0 0.43393,0.22728 0.5221,0.50508 0.0882,0.27779 0.32311,0.50507 0.52209,0.50507 0.19898,0 0.36179,0.16647 0.36179,0.36993 0,0.20345 0.22728,0.49156 0.50508,0.64022 0.27779,0.14867 0.50507,0.42352 0.50507,0.61078 0,0.18726 0.22729,0.39991 0.50508,0.47255 0.27779,0.0726 0.50507,0.31318 0.50507,0.53453 0,0.22135 0.17328,0.40245 0.38506,0.40245 0.21178,0 0.49308,0.28411 0.6251,0.63135 0.13202,0.34724 0.41331,0.63134 0.62509,0.63134 0.21178,0 0.38506,0.17046 0.38506,0.37881 0,0.20834 0.22728,0.60609 0.50508,0.88388 0.27779,0.27779 0.50507,0.61227 0.50507,0.7433 0,0.13102 0.20636,0.38671 0.45857,0.56821 0.25222,0.18149 0.53276,0.52886 0.62342,0.77193 0.0907,0.24307 0.32563,0.44194 0.52213,0.44194 0.1965,0 0.41672,0.22729 0.48936,0.50508 0.0726,0.27779 0.31318,0.50508 0.53453,0.50508 0.23409,0 0.40245,0.21129 0.40245,0.50507 0,0.33672 0.16836,0.50508 0.50508,0.50508 0.33671,0 0.50507,0.16836 0.50507,0.50507 0,0.33672 0.16836,0.50508 0.50508,0.50508 0.33672,0 0.50507,0.16836 0.50507,0.50508 0,0.33671 0.16836,0.50507 0.50508,0.50507 0.29355,0 0.50508,0.16836 0.50508,0.402 0,0.43995 0.63984,1.33525 2.05162,2.87074 0.50336,0.54746 0.98277,1.17148 1.06536,1.38671 0.0826,0.21522 0.31094,0.39132 0.50744,0.39132 0.1965,0 0.41672,0.22728 0.48936,0.50507 0.0878,0.33586 0.34447,0.50508 0.76602,0.50508 0.34867,0 0.67699,0.12912 0.72959,0.28694 0.068,0.2041 0.2564,0.18656 0.65239,-0.0607 0.46928,-0.29306 0.55675,-0.57619 0.55675,-1.80217 0,-1.11776 0.11692,-1.57141 0.50507,-1.95956 0.41529,-0.41528 0.50508,-0.84179 0.50508,-2.39911 0,-1.55732 0.0898,-1.98383 0.50508,-2.39911 0.42354,-0.42354 0.50507,-0.84179 0.50507,-2.5909 0,-1.81233 0.0662,-2.12719 0.50508,-2.40126 0.44424,-0.27743 0.50507,-0.58892 0.50507,-2.58612 0,-1.77254 0.0772,-2.27071 0.35179,-2.27071 0.51897,0 0.65837,-0.5797 0.65837,-2.73782 0,-1.66541 0.0712,-1.9834 0.50507,-2.25433 0.42684,-0.26657 0.50508,-0.58893 0.50508,-2.08105 0,-1.59727 0.0482,-1.76563 0.50508,-1.76563 0.27779,0 0.73236,0.22728 1.01015,0.50507 0.33672,0.33672 0.84179,0.50508 1.51523,0.50508 0.67343,0 1.17851,0.16836 1.51523,0.50508 0.33671,0.33671 0.84179,0.50507 1.51522,0.50507 0.67344,0 1.17852,0.16836 1.51523,0.50508 0.35543,0.35542 0.8418,0.50508 1.6415,0.50508 0.62503,0 1.13642,0.0954 1.13642,0.212 0,0.33237 1.20652,0.79815 2.06748,0.79815 0.4306,0 0.91614,0.18477 1.08215,0.4118 0.18403,0.25167 0.80861,0.46057 1.6062,0.53721 0.7178,0.069 1.30509,0.20634 1.30509,0.30527 0,0.31862 1.26068,0.76602 2.15845,0.76602 0.4796,0 0.87201,0.0954 0.87201,0.212 0,0.34642 1.22165,0.79816 2.15845,0.79816 0.4796,0 0.872,0.0954 0.872,0.212 0,0.34641 1.22166,0.79815 2.15846,0.79815 0.4796,0 0.872,0.11364 0.872,0.25254 0,0.41606 0.80333,0.2853 1.16368,-0.18941 0.19336,-0.25471 0.33889,-1.10973 0.34352,-2.01816 0.007,-1.30793 -0.0779,-1.62992 -0.49705,-1.89165 -0.38929,-0.24312 -0.50507,-0.58893 -0.50507,-1.50848 0,-0.9346 -0.10942,-1.25162 -0.50508,-1.46337 -0.40289,-0.21562 -0.50507,-0.52877 -0.50507,-1.54776 0,-1.06506 -0.084,-1.2994 -0.50508,-1.40953 -0.42752,-0.1118 -0.50508,-0.34446 -0.50508,-1.51523 0,-1.17076 -0.0775,-1.40343 -0.50507,-1.51522 -0.42753,-0.1118 -0.50508,-0.34447 -0.50508,-1.51523 0,-1.17077 -0.0775,-1.40343 -0.50508,-1.51523 -0.42752,-0.1118 -0.50507,-0.34447 -0.50507,-1.51523 0,-1.17076 -0.0776,-1.40343 -0.50508,-1.51523 -0.42752,-0.1118 -0.50508,-0.34447 -0.50508,-1.51523 0,-1.17076 -0.0775,-1.40343 -0.50507,-1.51523 -0.42517,-0.11118 -0.50508,-0.34446 -0.50508,-1.47456 0,-1.1207 -0.0834,-1.36898 -0.50507,-1.5028 -0.38935,-0.12357 -0.50508,-0.3821 -0.50508,-1.12831 v -0.96801 l 2.26219,-0.0883 c 1.73934,-0.0679 2.33761,-0.18561 2.58852,-0.50946 0.24698,-0.31878 0.83836,-0.44229 2.43223,-0.50797 1.64043,-0.0676 2.17688,-0.18382 2.42696,-0.52582 0.25557,-0.34952 0.70751,-0.43905 2.21631,-0.43905 1.47369,0 2.02976,-0.10578 2.49987,-0.47557 0.45202,-0.35557 1.13543,-0.49968 2.70818,-0.57111 1.63106,-0.0741 2.1757,-0.19415 2.42462,-0.53458 0.25374,-0.347 0.70411,-0.43904 2.14825,-0.43904 1.39964,0 1.98721,-0.11393 2.51096,-0.48687 0.37606,-0.26778 1.13227,-0.52347 1.68048,-0.56821 0.88691,-0.0724 1.00587,-0.16123 1.07959,-0.80634 0.11698,-1.02358 -0.15497,-1.92665 -0.58019,-1.92665 -0.19879,0 -0.45232,-0.15258 -0.5634,-0.33906 -0.11107,-0.18648 -0.54288,-0.55309 -0.95956,-0.81469 -0.41669,-0.26159 -0.8485,-0.62041 -0.95957,-0.79736 -0.11107,-0.17696 -0.36677,-0.32174 -0.56821,-0.32174 -0.20144,0 -0.36626,-0.1628 -0.36626,-0.36179 0,-0.19898 -0.22728,-0.43392 -0.50508,-0.52209 -0.27779,-0.0882 -0.50507,-0.32311 -0.50507,-0.5221 0,-0.19898 -0.22729,-0.36178 -0.50508,-0.36178 -0.33672,0 -0.50507,-0.16836 -0.50507,-0.50508 0,-0.33672 -0.16836,-0.50508 -0.50508,-0.50508 -0.33672,0 -0.50508,-0.16836 -0.50508,-0.50507 0,-0.33672 -0.16836,-0.50508 -0.50507,-0.50508 -0.29379,0 -0.50508,-0.16836 -0.50508,-0.40245 0,-0.22135 -0.22728,-0.46188 -0.50508,-0.53453 -0.27779,-0.0726 -0.50507,-0.28929 -0.50507,-0.48143 0,-0.19215 -0.10779,-0.34936 -0.23953,-0.34936 -0.13174,0 -0.54608,-0.2841 -0.92076,-0.63134 -0.37468,-0.34724 -0.80777,-0.63135 -0.96242,-0.63135 -0.15465,0 -0.42312,-0.22728 -0.59661,-0.50507 -0.17348,-0.2778 -0.48492,-0.50508 -0.69209,-0.50508 -0.20716,0 -0.37666,-0.1811 -0.37666,-0.40245 0,-0.22135 -0.22353,-0.4609 -0.49672,-0.53234 -0.27319,-0.0714 -0.56495,-0.34491 -0.64836,-0.60771 -0.0834,-0.26279 -0.3068,-0.47781 -0.49642,-0.47781 -0.18963,0 -0.41691,-0.22728 -0.50508,-0.50507 -0.0882,-0.27779 -0.31545,-0.50508 -0.50508,-0.50508 -0.18962,0 -0.4169,-0.22728 -0.50507,-0.50507 -0.0882,-0.2778 -0.31911,-0.50508 -0.51321,-0.50508 -0.1941,0 -0.47454,-0.22728 -0.62321,-0.50508 -0.14867,-0.27779 -0.43678,-0.50507 -0.64023,-0.50507 -0.20346,0 -0.36993,-0.17047 -0.36993,-0.37881 0,-0.20834 -0.097,-0.37881 -0.21566,-0.37881 -0.11861,0 -0.52967,-0.29102 -0.91347,-0.6467 l -0.69781,-0.64671 0.57869,-0.61599 c 0.31827,-0.33879 0.72934,-0.61598 0.91347,-0.61598 0.18413,0 0.33478,-0.17046 0.33478,-0.37881 0,-0.20834 0.10926,-0.3788 0.24278,-0.3788 0.13353,0 0.69283,-0.45457 1.24289,-1.01016 0.55006,-0.55558 1.11501,-1.01015 1.25543,-1.01015 0.14043,0 0.32746,-0.22728 0.41563,-0.50507 0.0882,-0.2778 0.31545,-0.50508 0.50508,-0.50508 0.18962,0 0.41691,-0.22728 0.50507,-0.50508 0.0882,-0.27779 0.33375,-0.50507 0.54574,-0.50507 0.21199,0 0.44487,-0.22729 0.51751,-0.50508 0.0726,-0.27779 0.28529,-0.50508 0.47255,-0.50508 0.18726,0 0.46211,-0.22728 0.61078,-0.50507 0.14867,-0.27779 0.4275,-0.50508 0.61962,-0.50508 0.19212,0 0.80753,-0.44025 1.36757,-0.97833 0.56003,-0.53808 1.19434,-1.04591 1.40956,-1.1285 0.21523,-0.0826 0.39132,-0.32419 0.39132,-0.53689 0,-0.21271 0.1811,-0.38674 0.40245,-0.38674 0.22135,0 0.46188,-0.22728 0.53453,-0.50507 0.0731,-0.27954 0.34447,-0.50508 0.6077,-0.50508 0.30727,0 0.47563,-0.17878 0.47563,-0.50507 0,-0.33672 0.16835,-0.50508 0.50507,-0.50508 0.33672,0 0.50508,-0.16836 0.50508,-0.50508 0,-0.33671 0.16836,-0.50507 0.50507,-0.50507 0.33672,0 0.50508,-0.16836 0.50508,-0.50508 0,-0.3137 0.16836,-0.50508 0.44433,-0.50508 0.24438,0 0.58627,-0.22728 0.75975,-0.50507 0.17349,-0.27779 0.43477,-0.50508 0.58063,-0.50508 0.14587,0 0.71312,-0.35994 1.26056,-0.79988 0.88253,-0.70922 0.99534,-0.92389 0.99534,-1.89403 v -1.09416 h -1.09728 c -0.77656,0 -1.23088,-0.14763 -1.55437,-0.50508 -0.38309,-0.42331 -0.77781,-0.50507 -2.43825,-0.50507 -1.64445,0 -2.06701,-0.0858 -2.48624,-0.50508 -0.42037,-0.42037 -0.8418,-0.50508 -2.51284,-0.50508 -1.64962,0 -2.05185,-0.0788 -2.25494,-0.44194 -0.20068,-0.35879 -0.67816,-0.45854 -2.53793,-0.5302 -1.65984,-0.064 -2.29074,-0.17823 -2.29074,-0.41492 0,-0.49325 -0.60626,-0.63324 -2.74245,-0.63324 -1.63102,0 -2.01307,-0.0812 -2.37599,-0.50508 -0.36957,-0.43163 -0.74497,-0.50507 -2.5815,-0.50507 h -2.14905 v -0.94941 c 0,-0.6759 0.1455,-1.04027 0.50508,-1.26483 0.38994,-0.24352 0.50507,-0.58892 0.50507,-1.51523 0,-0.9263 0.11514,-1.27171 0.50508,-1.51523 0.39287,-0.24535 0.50507,-0.58892 0.50507,-1.54652 0,-1.01871 0.0871,-1.25388 0.50508,-1.36318 0.42752,-0.1118 0.50508,-0.34446 0.50508,-1.51523 0,-1.17076 0.0775,-1.40343 0.50507,-1.51522 0.42753,-0.1118 0.50508,-0.34447 0.50508,-1.51523 0,-1.17076 0.0776,-1.40343 0.50508,-1.51523 0.42752,-0.1118 0.50507,-0.34447 0.50507,-1.51523 0,-1.17076 0.0776,-1.40343 0.50508,-1.51523 0.42752,-0.1118 0.50508,-0.34446 0.50508,-1.51523 0,-1.17076 0.0775,-1.40343 0.50507,-1.51523 0.4211,-0.11012 0.50508,-0.34446 0.50508,-1.40953 0,-1.01898 0.10219,-1.33213 0.50507,-1.54775 0.40125,-0.21474 0.50508,-0.52877 0.50508,-1.52754 0,-0.69148 0.13921,-1.48014 0.30935,-1.75258 0.52046,-0.83339 -0.93019,-1.61881 -1.65366,-0.89533 -0.21513,0.21512 -0.82341,0.38738 -1.36795,0.38738 -0.6315,0 -1.17357,0.1798 -1.52271,0.50507 -0.35673,0.33235 -0.89121,0.50508 -1.56285,0.50508 -0.68399,0 -1.18733,0.16662 -1.52579,0.50508 -0.33671,0.33671 -0.84179,0.50507 -1.51522,0.50507 -0.67344,0 -1.17852,0.16836 -1.51523,0.50508 -0.33672,0.33671 -0.8418,0.50507 -1.51523,0.50507 -0.67344,0 -1.17851,0.16836 -1.51523,0.50508 -0.33672,0.33672 -0.84179,0.50508 -1.51523,0.50508 -0.67344,0 -1.17851,0.16836 -1.51523,0.50507 -0.33672,0.33672 -0.84179,0.50508 -1.51523,0.50508 -0.67343,0 -1.17851,0.16836 -1.51523,0.50508 -0.33671,0.33671 -0.84179,0.50507 -1.51523,0.50507 -0.67343,0 -1.17851,0.16836 -1.51522,0.50508 -0.33672,0.33671 -0.8418,0.50507 -1.51523,0.50507 -0.67344,0 -1.17851,0.16836 -1.51523,0.50508 -0.27779,0.27779 -0.73236,0.50508 -1.01015,0.50508 -0.45692,0 -0.50508,-0.16836 -0.50508,-1.76563 0,-1.49213 -0.0782,-1.81449 -0.50508,-2.08105 -0.43383,-0.27093 -0.50507,-0.58893 -0.50507,-2.25433 0,-2.15812 -0.1394,-2.73783 -0.65837,-2.73783 -0.27283,0 -0.35179,-0.47714 -0.35179,-2.12592 0,-2.34179 -0.13124,-2.92484 -0.65836,-2.92484 -0.27461,0 -0.35179,-0.49817 -0.35179,-2.2707 0,-1.99721 -0.0608,-2.3087 -0.50507,-2.58613 -0.43885,-0.27407 -0.50508,-0.58893 -0.50508,-2.40125 0,-1.74911 -0.0815,-2.16737 -0.50508,-2.59091 -0.37703,-0.37703 -0.50507,-0.84179 -0.50507,-1.83329 0,-1.07935 -0.10021,-1.39079 -0.53485,-1.66223 -0.38362,-0.23957 -0.61212,-0.25675 -0.80813,-0.0607 -0.15029,0.1503 -0.53464,0.27328 -0.8541,0.27328 -0.41248,0 -0.58084,0.1464 -0.58084,0.50507 0,0.29379 -0.16836,0.50508 -0.40245,0.50508 -0.22135,0 -0.46189,0.22728 -0.53453,0.50508 -0.0727,0.27779 -0.29286,0.50507 -0.48936,0.50507 -0.19651,0 -0.43146,0.19888 -0.52213,0.44194 -0.0907,0.24307 -0.3712,0.59044 -0.62342,0.77194 -0.25221,0.18149 -0.45857,0.49401 -0.45857,0.69448 0,0.20047 -0.11944,0.36448 -0.26543,0.36448 -0.14598,0 -0.43161,0.39775 -0.63473,0.88389 -0.20312,0.48613 -0.53825,0.88388 -0.74473,0.88388 -0.20706,0 -0.37542,0.22651 -0.37542,0.50508 0,0.33672 -0.16835,0.50507 -0.50507,0.50507 -0.33672,0 -0.50508,0.16836 -0.50508,0.50508 0,0.33672 -0.16836,0.50508 -0.50507,0.50508 -0.33672,0 -0.50508,0.16836 -0.50508,0.50507 0,0.33672 -0.16836,0.50508 -0.50508,0.50508 -0.33671,0 -0.50507,0.16836 -0.50507,0.50508 0,0.29378 -0.16836,0.50507 -0.40245,0.50507 -0.22135,0 -0.46189,0.22729 -0.53453,0.50508 -0.0727,0.27779 -0.29286,0.50507 -0.48936,0.50507 -0.19651,0 -0.43056,0.19097 -0.52013,0.42438 -0.0896,0.23341 -0.59739,0.87215 -1.1285,1.41941 -0.5311,0.54727 -0.96564,1.1478 -0.96564,1.33451 0,0.18671 -0.22729,0.46111 -0.50508,0.60978 -0.27779,0.14867 -0.50508,0.42352 -0.50508,0.61077 0,0.18726 -0.22728,0.39991 -0.50507,0.47255 -0.27779,0.0726 -0.50508,0.29993 -0.50508,0.50508 0,0.20514 -0.22728,0.43243 -0.50507,0.50507 -0.2778,0.0727 -0.50508,0.31319 -0.50508,0.53453 0,0.22135 -0.17403,0.40245 -0.38673,0.40245 -0.21271,0 -0.4565,0.18181 -0.54177,0.40403 -0.0853,0.22221 -0.39681,0.64837 -0.6923,0.94701 -0.51142,0.51689 -0.55823,0.52175 -0.97346,0.10106 -0.23991,-0.24307 -0.4362,-0.51206 -0.4362,-0.59776 0,-0.0857 -0.45457,-0.59697 -1.01015,-1.13615 -0.55558,-0.53917 -1.01015,-1.08643 -1.01015,-1.21612 0,-0.12969 -0.22729,-0.30793 -0.50508,-0.3961 -0.27779,-0.0882 -0.50508,-0.31545 -0.50508,-0.50508 0,-0.18962 -0.22728,-0.41691 -0.50507,-0.50507 -0.27779,-0.0882 -0.50508,-0.33375 -0.50508,-0.54574 0,-0.21199 -0.22728,-0.44487 -0.50507,-0.51751 -0.2778,-0.0726 -0.50508,-0.29993 -0.50508,-0.50508 0,-0.20515 -0.22729,-0.43243 -0.50508,-0.50508 -0.27779,-0.0726 -0.50507,-0.3137 -0.50507,-0.53568 0,-0.22199 -0.22191,-0.63489 -0.49312,-0.91757 -1.07598,-1.12144 -1.44634,-1.58051 -1.60169,-1.98534 -0.0892,-0.23246 -0.32296,-0.42265 -0.51946,-0.42265 -0.19651,0 -0.41672,-0.22729 -0.48936,-0.50508 -0.0727,-0.27779 -0.31319,-0.50507 -0.53453,-0.50507 -0.23409,0 -0.40245,-0.21129 -0.40245,-0.50508 0,-0.33672 -0.16836,-0.50508 -0.50508,-0.50508 -0.33672,0 -0.50508,-0.16835 -0.50508,-0.50507 0,-0.33672 -0.16836,-0.50508 -0.50507,-0.50508 -0.33672,0 -0.50508,-0.16836 -0.50508,-0.50507 0,-0.29379 -0.16836,-0.50508 -0.40245,-0.50508 -0.22135,0 -0.46188,-0.22729 -0.53453,-0.50508 -0.0726,-0.27779 -0.28929,-0.50507 -0.48143,-0.50507 -0.19215,0 -0.34936,-0.16482 -0.34936,-0.36626 0,-0.20144 -0.14478,-0.45714 -0.32173,-0.56821 -0.17696,-0.11108 -0.53577,-0.54288 -0.79737,-0.95957 -0.26159,-0.41669 -0.6282,-0.84849 -0.81468,-0.95957 -0.18649,-0.11107 -0.33906,-0.34309 -0.33906,-0.51559 0,-0.17251 -0.4115,-0.50016 -0.91444,-0.72812 -1.243,-0.56341 -1.86348,-0.18795 -1.86348,1.12761 0,0.64315 -0.11348,0.9494 -0.35179,0.9494 -0.52712,0 -0.65836,0.58305 -0.65836,2.92484 0,1.64878 -0.079,2.12592 -0.35179,2.12592 -0.51896,0 -0.65836,0.57971 -0.65836,2.73783 0,1.6654 -0.0712,1.9834 -0.50508,2.25433 -0.43295,0.27038 -0.50508,0.58893 -0.50508,2.23062 0,1.53281 -0.10084,2.0434 -0.50507,2.5573 -0.39639,0.50393 -0.50508,1.02449 -0.50508,2.41906 0,1.33687 -0.10928,1.89771 -0.44124,2.26452 -0.32397,0.35799 -0.46497,1.0344 -0.53056,2.54527 -0.11779,2.71377 -0.84811,3.63462 -1.93239,2.43651 -0.3364,-0.37172 -0.77781,-0.50508 -1.67175,-0.50508 -0.9562,0 -1.27218,-0.10747 -1.48497,-0.50507 -0.21419,-0.40022 -0.52877,-0.50508 -1.51523,-0.50508 -0.98646,0 -1.30104,-0.10486 -1.51523,-0.50507 -0.21419,-0.40022 -0.52877,-0.50508 -1.51523,-0.50508 -0.98646,0 -1.30104,-0.10486 -1.51523,-0.50508 -0.21175,-0.39565 -0.52877,-0.50507 -1.46337,-0.50507 -0.91955,0 -1.26536,-0.11579 -1.50848,-0.50508 -0.24352,-0.38994 -0.58892,-0.50508 -1.51523,-0.50508 -0.9263,0 -1.2717,-0.11513 -1.51523,-0.50507 -0.24352,-0.38994 -0.58892,-0.50508 -1.51523,-0.50508 -0.9263,0 -1.2717,-0.11513 -1.51523,-0.50507 -0.24698,-0.39549 -0.58892,-0.50508 -1.57597,-0.50508 -0.9091,0 -1.26055,-0.0981 -1.26055,-0.35179 0,-0.47456 -0.56224,-0.65836 -2.01394,-0.65836 -0.87118,0 -1.25808,-0.11222 -1.36718,-0.39652 -0.0913,-0.23784 -0.37999,-0.36417 -0.7215,-0.31568 -0.47788,0.0679 -0.58215,0.26028 -0.64913,1.19791 -0.058,0.81232 0.0281,1.17744 0.31567,1.33837 0.22902,0.12817 0.39692,0.56149 0.39892,1.02952 0.005,1.18787 0.26087,1.94462 0.65735,1.94462 0.23472,0 0.35048,0.31073 0.3528,0.94702 0.005,1.31881 0.24605,2.08344 0.65735,2.08344 0.23473,0 0.35049,0.31073 0.3528,0.94702 0.005,1.31881 0.24605,2.08344 0.65735,2.08344 0.25079,0 0.34936,0.35565 0.34936,1.26055 0,0.98705 0.10958,1.32898 0.50507,1.57597 0.37666,0.23523 0.50508,0.58893 0.50508,1.3911 0,0.73896 0.1581,1.23378 0.50508,1.58075 0.33712,0.33713 0.50507,0.8418 0.50507,1.5177 0,0.70012 0.15588,1.14609 0.50508,1.44509 0.3593,0.30764 0.50507,0.74497 0.50507,1.51523 0,0.77025 0.14578,1.20758 0.50508,1.51523 0.33597,0.28766 0.50508,0.74497 0.50508,1.36583 0,1.17981 0.20997,1.7323 0.65836,1.7323 0.19348,0 0.35179,0.14773 0.35179,0.3283 0,0.7054 -0.63187,0.93439 -2.57836,0.93439 -1.65976,0 -2.0408,0.08 -2.40473,0.50507 -0.36753,0.42925 -0.74497,0.50508 -2.51403,0.50508 -1.8231,0 -2.11512,0.0627 -2.35187,0.50508 -0.23521,0.4395 -0.52877,0.50507 -2.26107,0.50507 -2.20902,0 -2.78969,0.13704 -2.78969,0.65837 0,0.2731 -0.48014,0.35178 -2.14658,0.35178 -1.80985,0 -2.2258,0.0792 -2.65165,0.50508 -0.41528,0.41528 -0.84179,0.50508 -2.39911,0.50508 -1.55732,0 -1.98383,0.0898 -2.39911,0.50507 -0.32827,0.32827 -0.84179,0.50508 -1.46696,0.50508 -0.52904,0 -1.18248,0.16381 -1.4521,0.36402 -0.41147,0.30554 -0.4394,0.43737 -0.17393,0.82074 0.17395,0.25121 0.42683,0.71243 0.56196,1.02495 0.13513,0.31251 0.41896,0.56821 0.63074,0.56821 0.21179,0 0.38506,0.17403 0.38506,0.38673 0,0.21271 0.19887,0.46092 0.44194,0.55158 0.24307,0.0907 0.59044,0.37121 0.77194,0.62342 0.18149,0.25222 0.49401,0.45857 0.69448,0.45857 0.20047,0 0.36448,0.16281 0.36448,0.36179 0,0.19899 0.2123,0.42917 0.47177,0.51153 0.25948,0.0823 0.67484,0.37411 0.92303,0.64836 0.24819,0.27425 0.66092,0.49863 0.91719,0.49863 0.29758,0 0.46593,0.1825 0.46593,0.50508 0,0.33671 0.16836,0.50507 0.50508,0.50507 0.33672,0 0.50508,0.16836 0.50508,0.50508 0,0.33671 0.16836,0.50507 0.50507,0.50507 0.33672,0 0.50508,0.16836 0.50508,0.50508 0,0.32629 0.16836,0.50508 0.47562,0.50508 0.26324,0 0.5346,0.22553 0.6077,0.50507 0.0727,0.27779 0.31319,0.50508 0.53453,0.50508 0.22135,0 0.40245,0.17403 0.40245,0.38673 0,0.21271 0.1761,0.45431 0.39132,0.5369 0.21523,0.0826 0.83925,0.562 1.38671,1.06536 1.37838,1.26733 2.42103,2.05162 2.72745,2.05162 0.14229,0 0.33085,0.22728 0.41902,0.50508 0.0882,0.27779 0.31545,0.50507 0.50507,0.50507 0.18963,0 0.41691,0.22729 0.50508,0.50508 0.0882,0.27779 0.2947,0.50619 0.45896,0.50755 0.16426,0.001 0.6964,0.45482 1.18254,1.00768 0.48613,0.55285 1.02593,1.00631 1.19955,1.00767 0.17362,0.001 0.31568,0.17294 0.31568,0.38129 0,0.20834 0.10295,0.3788 0.22877,0.3788 0.12583,0 0.0974,0.28322 -0.0631,0.62938 -0.16055,0.34616 -0.42997,0.63026 -0.5987,0.63134 -0.16873,10e-4 -0.42843,0.22926 -0.5771,0.50705 -0.14866,0.27779 -0.42911,0.50508 -0.62321,0.50508 -0.1941,0 -0.42504,0.22728 -0.51321,0.50507 -0.0882,0.2778 -0.31545,0.50508 -0.50507,0.50508 -0.18963,0 -0.41691,0.22728 -0.50508,0.50508 -0.0882,0.27779 -0.33375,0.50507 -0.54574,0.50507 -0.21198,0 -0.44486,0.22729 -0.51751,0.50508 -0.0726,0.27779 -0.24447,0.50507 -0.38184,0.50507 -0.22959,0 -0.89032,0.48361 -2.42757,1.7768 -0.32432,0.27283 -0.69365,0.49605 -0.82075,0.49605 -0.1271,0 -0.23108,0.15721 -0.23108,0.34935 0,0.19215 -0.22729,0.40879 -0.50508,0.48144 -0.27779,0.0726 -0.50508,0.31318 -0.50508,0.53453 0,0.23409 -0.21129,0.40244 -0.50507,0.40244 -0.33672,0 -0.50508,0.16836 -0.50508,0.50508 0,0.33672 -0.16836,0.50508 -0.50507,0.50508 -0.33672,0 -0.50508,0.16836 -0.50508,0.50507 0,0.33672 -0.16836,0.50508 -0.50508,0.50508 -0.33671,0 -0.50507,0.16836 -0.50507,0.50508 0,0.33671 -0.16836,0.50507 -0.50508,0.50507 -0.27779,0 -0.50579,0.14206 -0.50667,0.31568 -10e-4,0.28166 -0.46569,0.63836 -2.11231,1.62294 -0.2733,0.16342 -0.59697,0.47593 -0.71928,0.69448 -0.1223,0.21855 -0.37953,0.39736 -0.57161,0.39736 -0.19208,0 -0.42138,0.22728 -0.50955,0.50508 -0.0882,0.27779 -0.27503,0.50507 -0.41525,0.50507 -0.34502,0 -1.73132,1.40628 -1.73132,1.75627 0,0.15394 -0.17046,0.3453 -0.37881,0.42525 -0.53728,0.20618 -0.4697,1.03506 0.10967,1.34513 0.26866,0.14378 0.89369,0.26142 1.38896,0.26142 0.56377,0 1.08935,0.18887 1.40556,0.50508 0.41693,0.41693 0.84179,0.50508 2.43441,0.50508 1.54599,0 1.99353,0.0878 2.25248,0.44194 0.25447,0.34802 0.78942,0.4611 2.51711,0.5321 1.73525,0.0713 2.29391,0.19011 2.67201,0.56821 0.38887,0.38887 0.8526,0.47805 2.48581,0.47805 1.64957,0 2.05188,0.0788 2.25507,0.44194 0.19902,0.35564 0.67526,0.45955 2.43869,0.5321 1.73268,0.0713 2.29143,0.19023 2.66942,0.56822 0.38264,0.38264 0.84988,0.47805 2.34117,0.47805 1.36676,0 1.9488,0.10325 2.18477,0.38758 0.26711,0.32185 0.22953,0.47341 -0.22162,0.89372 -0.37938,0.35345 -0.54327,0.8079 -0.54327,1.50646 0,0.66359 -0.17002,1.17032 -0.50508,1.50539 -0.33672,0.33671 -0.50508,0.84179 -0.50508,1.51522 0,0.67344 -0.16836,1.17852 -0.50507,1.51523 -0.35543,0.35543 -0.50508,0.8418 -0.50508,1.6415 0,0.803 -0.10321,1.13642 -0.35179,1.13642 -0.46613,0 -0.65836,0.55906 -0.65836,1.91469 0,0.78535 -0.10418,1.11577 -0.35179,1.11577 -0.46613,0 -0.65836,0.55906 -0.65836,1.91469 0,0.78163 -0.10463,1.11577 -0.34936,1.11577 -0.4113,0 -0.65255,0.76463 -0.65735,2.08344 -0.002,0.63629 -0.11807,0.94702 -0.3528,0.94702 -0.39143,0 -0.65218,0.75407 -0.65735,1.90104 -0.002,0.44876 -0.2121,0.94327 -0.50853,1.19709 -0.36311,0.31091 -0.50507,0.74497 -0.50507,1.54433 0,0.77375 -0.11965,1.15779 -0.39344,1.26285 -0.56382,0.21636 -0.39613,2.15434 0.21883,2.52899 0.36015,0.21942 0.52624,0.18481 0.78545,-0.16368 0.2307,-0.31016 0.67811,-0.44194 1.50044,-0.44194 0.835,0 1.31686,-0.14515 1.67679,-0.50508 0.33672,-0.33672 0.84179,-0.50507 1.51523,-0.50507 0.67344,0 1.17851,-0.16836 1.51523,-0.50508 0.35847,-0.35847 0.84179,-0.50508 1.66514,-0.50508 0.94768,0 1.18424,-0.0925 1.29214,-0.50507 0.11142,-0.42605 0.34447,-0.50508 1.48945,-0.50508 1.08387,0 1.42092,-0.10177 1.67279,-0.50508 0.24504,-0.39236 0.58893,-0.50507 1.54101,-0.50507 1.0132,0 1.24848,-0.0875 1.35767,-0.50508 0.11131,-0.42565 0.34447,-0.50507 1.4827,-0.50507 1.09216,0 1.40235,-0.0967 1.62093,-0.50508 0.21419,-0.40022 0.52877,-0.50508 1.51523,-0.50508 0.98646,0 1.30104,-0.10486 1.51523,-0.50507 0.21197,-0.39608 0.52877,-0.50508 1.46799,-0.50508 0.88516,0 1.31052,-0.13179 1.63014,-0.50508 1.07453,-1.25496 1.87317,-0.27762 1.99098,2.43651 0.0656,1.51087 0.20659,2.18728 0.53056,2.54527 0.33362,0.36864 0.44124,0.9293 0.44124,2.29858 0,1.4743 0.0939,1.90492 0.50508,2.31609 0.40773,0.40774 0.50507,0.8418 0.50507,2.25219 0,1.97018 0.14891,2.54604 0.65837,2.54604 0.27283,0 0.35179,0.47714 0.35179,2.12592 0,2.34179 0.13124,2.92484 0.65836,2.92484 0.27461,0 0.35179,0.49817 0.35179,2.2707 0,1.99721 0.0608,2.3087 0.50508,2.58613 0.34415,0.21493 0.50507,0.58893 0.50507,1.17386 0,0.52139 0.17352,0.99015 0.44194,1.19391 0.55303,0.41981 0.42674,0.43016 1.31064,-0.10738 z"
         id="path985"
         transform="scale(0.26458333)" />
      <path
         style="fill:#ffe680;fill-opacity:1;stroke:#ffe680;stroke-width:0.706772;stroke-linecap:square;stroke-linejoin:round;stroke-miterlimit:4;stroke-dasharray:none;stroke-opacity:1;paint-order:stroke fill markers"
         d="m 447.48565,270.15242 c -3.444,-0.64315 -4.20237,-0.74361 -5.68211,-0.75265 -1.08799,-0.007 -1.98211,-0.17456 -2.65165,-0.49797 -0.55558,-0.26837 -1.46472,-0.49254 -2.0203,-0.49817 -0.57003,-0.006 -1.34024,-0.22885 -1.76777,-0.51198 -0.41669,-0.27596 -1.09854,-0.50325 -1.51523,-0.50508 -0.41668,-0.002 -1.09854,-0.22911 -1.51523,-0.50508 -0.41668,-0.27596 -1.02379,-0.50249 -1.34912,-0.50341 -0.32533,-0.001 -0.88046,-0.22895 -1.23362,-0.50674 -0.35315,-0.27779 -0.80772,-0.50507 -1.01015,-0.50507 -0.20243,0 -0.657,-0.22729 -1.01015,-0.50508 -0.35316,-0.27779 -0.83645,-0.50508 -1.07398,-0.50508 -0.23753,0 -0.63757,-0.22728 -0.88897,-0.50507 -0.25139,-0.2778 -0.57199,-0.50508 -0.71243,-0.50508 -0.14044,0 -0.43535,-0.16986 -0.65534,-0.37748 -0.85016,-0.80231 -1.99966,-1.64282 -2.24674,-1.64282 -0.14224,0 -0.71842,-0.42616 -1.28041,-0.94702 -0.56199,-0.52086 -1.55017,-1.40159 -2.19596,-1.95717 -0.64578,-0.55559 -1.64418,-1.50953 -2.21867,-2.11988 -2.46713,-2.62115 -3.09293,-3.30994 -3.56989,-3.92923 -0.27779,-0.36069 -0.63239,-0.80057 -0.788,-0.9775 -0.15561,-0.17693 -0.47105,-0.68548 -0.70097,-1.1301 -0.22992,-0.44462 -0.52876,-0.8084 -0.66409,-0.8084 -0.13533,0 -0.24605,-0.15285 -0.24605,-0.33966 0,-0.18682 -0.22729,-0.54536 -0.50508,-0.79676 -0.27779,-0.2514 -0.50508,-0.65143 -0.50508,-0.88897 0,-0.23753 -0.22728,-0.72082 -0.50507,-1.07397 -0.27779,-0.35316 -0.50508,-0.80773 -0.50508,-1.01016 0,-0.20243 -0.22728,-0.657 -0.50508,-1.01015 -0.27779,-0.35315 -0.50507,-0.86454 -0.50507,-1.13642 0,-0.27188 -0.22729,-0.78327 -0.50508,-1.13642 -0.27779,-0.35316 -0.50582,-0.96511 -0.50674,-1.35989 -9.1e-4,-0.39478 -0.22745,-1.0587 -0.50341,-1.47539 -0.27596,-0.41669 -0.50499,-1.09854 -0.50896,-1.51523 -0.004,-0.41669 -0.232,-1.253 -0.50674,-1.85848 -0.27474,-0.60548 -0.49953,-1.60464 -0.49953,-2.22035 0,-0.61573 -0.19625,-1.99543 -0.43612,-3.06602 -0.53618,-2.39312 -0.60893,-8.53369 -0.11772,-9.93622 0.17695,-0.50524 0.41649,-1.98259 0.53231,-3.28299 0.1165,-1.30804 0.3933,-2.70285 0.61957,-3.12199 0.22495,-0.41668 0.41045,-1.15536 0.41222,-1.64149 0.002,-0.48614 0.22901,-1.22481 0.50497,-1.6415 0.27596,-0.41669 0.5025,-1.10957 0.50341,-1.53973 9.2e-4,-0.43015 0.22895,-1.04416 0.50674,-1.36446 0.27779,-0.3203 0.50508,-0.83146 0.50508,-1.13592 0,-0.30446 0.22728,-0.75926 0.50507,-1.01066 0.2778,-0.25139 0.50508,-0.69832 0.50508,-0.99316 0,-0.29485 0.22729,-0.73069 0.50508,-0.96854 0.27779,-0.23786 0.50507,-0.64325 0.50507,-0.90087 0,-0.25763 0.22729,-0.6741 0.50508,-0.9255 0.27779,-0.2514 0.50508,-0.59232 0.50508,-0.75761 0,-0.16529 0.22728,-0.50622 0.50507,-0.75762 0.27779,-0.25139 0.50508,-0.63942 0.50508,-0.86227 0,-0.22286 0.22728,-0.54713 0.50507,-0.72062 0.2778,-0.17348 0.50508,-0.48492 0.50508,-0.69209 0,-0.20717 0.0852,-0.37709 0.1894,-0.37761 0.10418,-5.3e-4 0.75762,-0.70701 1.4521,-1.56998 2.36813,-2.94269 5.22088,-5.55013 8.41749,-7.6937 0.92134,-0.61782 1.73398,-1.20324 1.80587,-1.30092 0.0719,-0.0977 0.41481,-0.31652 0.76205,-0.48631 0.69688,-0.34074 1.29413,-0.69398 2.32575,-1.37553 0.37634,-0.24863 0.85932,-0.45206 1.07329,-0.45206 0.21397,0 0.61631,-0.22729 0.89411,-0.50508 0.27779,-0.27779 0.70707,-0.50507 0.95396,-0.50507 0.24689,0 0.71747,-0.18813 1.04575,-0.41807 0.32828,-0.22993 1.11198,-0.51429 1.74157,-0.63191 0.62958,-0.11762 1.32383,-0.36935 1.54276,-0.5594 0.21894,-0.19005 1.01246,-0.42335 1.76338,-0.51845 0.75093,-0.0951 1.66006,-0.32133 2.02031,-0.50275 0.36024,-0.18142 1.96187,-0.39693 3.55917,-0.47891 1.59731,-0.082 3.72165,-0.34545 4.72077,-0.58548 1.71477,-0.41196 1.90333,-0.4123 3.36456,-0.006 0.85139,0.23671 2.98863,0.50217 4.74942,0.5899 1.90993,0.0952 3.40518,0.29034 3.7065,0.4838 0.27779,0.17835 1.12898,0.40614 1.89152,0.50621 0.76254,0.10007 1.7285,0.39054 2.14658,0.6455 0.41807,0.25496 1.11731,0.46398 1.55386,0.4645 0.44818,5.3e-4 0.85303,0.15549 0.92995,0.35594 0.0749,0.19524 0.51324,0.43734 0.97404,0.53798 0.46079,0.10065 1.10883,0.39547 1.44008,0.65516 0.33124,0.25969 0.81422,0.47217 1.07328,0.47217 0.25907,0 0.47102,0.1013 0.47102,0.22512 0,0.12381 0.42616,0.41266 0.94702,0.64189 1.15017,0.50617 2.41401,1.21557 2.59616,1.45722 0.20608,0.2734 2.36692,1.70659 2.58087,1.71178 0.29561,0.007 0.88363,0.55315 4.8981,4.54786 4.2594,4.23843 4.39725,4.39189 4.81243,5.35751 0.16692,0.38821 0.42261,0.70583 0.56821,0.70583 0.1456,0 0.26473,0.17158 0.26473,0.38128 0,0.2097 0.22728,0.57589 0.50508,0.81374 0.27779,0.23785 0.50507,0.56234 0.50507,0.72108 0,0.15875 0.22729,0.57757 0.50508,0.93073 0.27779,0.35316 0.50508,0.80772 0.50508,1.01015 0,0.20243 0.22728,0.657 0.50507,1.01016 0.27779,0.35315 0.50508,0.80772 0.50508,1.01015 0,0.20243 0.21247,0.63907 0.47216,0.97032 0.2597,0.33124 0.55452,0.97928 0.65516,1.44008 0.10065,0.46079 0.34274,0.89911 0.53799,0.97404 0.21783,0.0836 0.35499,0.50293 0.35499,1.0853 0,0.53888 0.20223,1.20937 0.46791,1.55134 0.28568,0.36771 0.5211,1.20447 0.60449,2.14852 0.0751,0.85045 0.30592,1.8164 0.51289,2.14658 0.34636,0.55252 0.78022,5.67147 0.78933,9.31288 0.009,3.64997 -0.42456,8.28191 -0.87925,9.39073 -0.26687,0.65078 -0.48596,1.61674 -0.48688,2.14657 -0.001,0.53613 -0.22417,1.29932 -0.50341,1.72095 -0.27596,0.41669 -0.5025,1.08062 -0.50341,1.4754 -0.001,0.39478 -0.22895,1.00673 -0.50674,1.35988 -0.2778,0.35316 -0.50508,0.97127 -0.50508,1.37359 0,0.41124 -0.16283,0.79397 -0.37194,0.87421 -0.20456,0.0785 -0.4462,0.53857 -0.53696,1.02238 -0.0908,0.48382 -0.31805,0.93839 -0.50508,1.01016 -0.18703,0.0718 -0.41431,0.52633 -0.50507,1.01015 -0.0908,0.48381 -0.31089,0.93563 -0.48916,1.00404 -0.17827,0.0684 -0.39409,0.40316 -0.47961,0.74388 -0.0855,0.34072 -0.35147,0.83196 -0.591,1.09163 -1.00708,1.09176 -1.57194,1.84775 -1.57194,2.1038 0,0.15017 -0.17359,0.45303 -0.38576,0.67303 -2.00043,2.07425 -3.40231,3.61512 -3.40231,3.73964 0,0.21615 -1.56595,1.58484 -1.81326,1.58484 -0.11388,0 -0.20705,0.17047 -0.20705,0.37881 0,0.20834 -0.14673,0.37881 -0.32606,0.37881 -0.17934,0 -0.74402,0.45457 -1.25485,1.01015 -0.51082,0.55558 -1.01754,1.01029 -1.12603,1.01046 -0.18703,2.5e-4 -1.1883,0.75449 -2.15442,1.6228 -0.24307,0.21846 -0.53797,0.3972 -0.65534,0.3972 -0.11737,0 -0.41908,0.22728 -0.67048,0.50507 -0.2514,0.2778 -0.61106,0.50508 -0.79923,0.50508 -0.18818,0 -0.53675,0.22728 -0.7746,0.50508 -0.23785,0.27779 -0.61916,0.50507 -0.84735,0.50507 -0.2282,0 -0.70384,0.22729 -1.057,0.50508 -0.35315,0.27779 -0.80772,0.50508 -1.01015,0.50508 -0.20243,0 -0.657,0.22728 -1.01015,0.50507 -0.35316,0.27779 -0.90828,0.50583 -1.23362,0.50674 -0.32533,10e-4 -0.93244,0.22745 -1.34912,0.50341 -0.41669,0.27597 -1.11884,0.5025 -1.56033,0.50342 -0.44149,10e-4 -0.9846,0.18355 -1.20691,0.40586 -0.22231,0.22231 -1.11116,0.49595 -1.97521,0.60808 -0.86405,0.11213 -1.91193,0.37168 -2.32862,0.57676 -0.45107,0.22201 -1.88161,0.43206 -3.53554,0.51913 -1.52785,0.0804 -3.11884,0.25464 -3.53553,0.38712 -1.27254,0.40459 -1.97631,0.46742 -3.03046,0.27056 z"
         id="path981"
         transform="scale(0.26458333)" />
    </g>
    <text
       xml:space="preserve"
       style="font-size:4.23333px;line-height:1.25;font-family:Webdings;-inkscape-font-specification:Webdings;letter-spacing:0px;word-spacing:0px;stroke-width:0.264583"
       x="11.90625"
       y="5.2916665"
       id="text44"><tspan
         sodipodi:role="line"
         id="tspan42"
         x="11.90625"
         y="5.2916665"
         style="stroke-width:0.264583" /></text>
  </g>
</svg>
